<?xml version="1.0" encoding="UTF-8"?>
<svg width="512pt" height="512pt" version="1.1" viewBox="0 0 512 512" xmlns="http://www.w3.org/2000/svg">
 <g fill="#443f3c">
  <path d="m90.398 316.8-10.398-5.6016-10.398 5.6016c-8 4-13.602 12-13.602 21.602v37.598h48v-38.398c0-8.8008-4.8008-16.801-13.602-20.801zm-2.3984 43.199h-16v-22.398c0-3.1992 1.6016-5.6016 4.8008-7.1992l3.1992-1.6016 3.1992 1.6016c2.3984 1.6016 4.8008 4 4.8008 7.1992z"/>
  <path d="m154.4 316.8-10.398-5.6016-10.398 5.6016c-8 4-13.602 12-13.602 21.602v37.598h48v-38.398c0-8.8008-4.8008-16.801-13.602-20.801zm-2.3984 43.199h-16v-22.398c0-3.1992 1.6016-5.6016 4.8008-7.1992l3.1992-1.6016 3.1992 1.6016c2.3984 1.6016 4.8008 4 4.8008 7.1992z"/>
  <path d="m90.398 404.8-10.398-5.6016-10.398 5.6016c-8 4-13.602 12-13.602 21.602v37.598h48v-38.398c0-8.8008-4.8008-16.801-13.602-20.801zm-2.3984 43.199h-16v-22.398c0-3.1992 1.6016-5.6016 4.8008-7.1992l3.1992-1.6016 3.1992 1.6016c2.3984 1.6016 4.8008 4 4.8008 7.1992z"/>
  <path d="m154.4 404.8-10.398-5.6016-10.398 5.6016c-8 4-13.602 12-13.602 21.602v37.598h48v-38.398c0-8.8008-4.8008-16.801-13.602-20.801zm-2.3984 43.199h-16v-22.398c0-3.1992 1.6016-5.6016 4.8008-7.1992l3.1992-1.6016 3.1992 1.6016c2.3984 1.6016 4.8008 4 4.8008 7.1992z"/>
  <path d="m392 337.6c0-8.8008-4.8008-17.602-13.602-21.602l-10.398-4.8008-10.398 5.6016c-8 4-13.602 12-13.602 21.602v37.598h48zm-16 22.398h-16v-22.398c0-3.1992 1.6016-5.6016 4.8008-7.1992l3.1992-1.6016 3.1992 1.6016c2.3984 1.6016 4.8008 4 4.8008 7.1992z"/>
  <path d="m456 337.6c0-8.8008-4.8008-17.602-13.602-21.602l-10.398-4.8008-10.398 5.6016c-8 4-13.602 12-13.602 21.602v37.598h48zm-16 22.398h-16v-22.398c0-3.1992 1.6016-5.6016 4.8008-7.1992l3.1992-1.6016 3.1992 1.6016c2.3984 1.6016 4.8008 4 4.8008 7.1992z"/>
  <path d="m392 425.6c0-8.8008-4.8008-17.602-13.602-21.602l-10.398-4.8008-10.398 5.6016c-8 4-13.602 12-13.602 21.602v37.598h48zm-16 22.398h-16v-22.398c0-3.1992 1.6016-5.6016 4.8008-7.1992l3.1992-1.6016 3.1992 1.6016c2.3984 1.6016 4.8008 4 4.8008 7.1992z"/>
  <path d="m456 425.6c0-8.8008-4.8008-17.602-13.602-21.602l-10.398-4.8008-10.398 5.6016c-8 4-13.602 12-13.602 21.602v37.598h48zm-16 22.398h-16v-22.398c0-3.1992 1.6016-5.6016 4.8008-7.1992l3.1992-1.6016 3.1992 1.6016c2.3984 1.6016 4.8008 4 4.8008 7.1992z"/>
  <path d="m488 480v-345.6c0-6.3984-2.3984-12.801-7.1992-16.801l-8.8008-8.7969v-20.801h-16v20.801l-8.8008 8.8008c-4.8008 4.7969-7.1992 10.398-7.1992 16.797v105.6h-8v-128c0-7.1992-3.1992-14.398-9.6016-19.199l-22.398-16.801v-20h-16v20l-22.398 16.801c-6.4023 4.8008-9.6016 12-9.6016 19.199v88h-32v-36c15.199-10.398 24-28 24-45.602v-3.1992c0-20-10.398-37.602-27.199-48l-52.801-32v-19.199h-16v19.199l-52.801 32c-16.801 10.398-27.199 28-27.199 48v0.80078c0 15.199 5.6016 28.801 16.801 39.199l7.1992 7.1992v37.602h-32v-88c0-7.1992-3.1992-14.398-9.6016-19.199l-22.398-16.801v-20h-16v20l-22.398 16.801c-6.4023 4.8008-9.6016 12-9.6016 19.199v128h-8v-105.6c0-6.3984-2.3984-12.801-7.1992-16.801l-8.8008-8.7969v-20.801h-16v20.801l-8.8008 8.8008c-4.8008 4.7969-7.1992 10.398-7.1992 16.797v345.6h-8v16h480v-16zm-16-208h-16v-16h16zm-13.602-143.2 5.6016-5.6016 5.6016 5.6016c1.6016 1.6016 2.3984 3.1992 2.3984 5.6016v1.5977h-16v-1.6016c0-1.5977 0.80078-4 2.3984-5.5977zm-2.3984 23.199h16v88h-16zm-16 104v16h-8v-16zm-344 16v-16h16v16zm32-16h16v16h-16zm32 0h24v16h-24zm40 0h16v16h-16zm16-40v24h-16v-24zm96 0v24h-16v-24zm-32 24h-16v-24h16zm-32 0h-16v-24h16zm-16 16h16v16h-16zm32 0h16v16h-16zm32 0h16v16h-16zm32 0h24v16h-24zm40 0h16v16h-16zm32 0h16v16h-16zm-32-16v-56h48v56zm48-72h-48v-40h48zm-44.801-62.398 20.801-15.199 20.801 15.199c2.3984 1.6016 3.1992 4 3.1992 6.3984h-48c0-2.3984 0.80078-4.8008 3.1992-6.3984zm-19.199 134.4h-24v-24h24zm-44.801-160h-102.4l51.199-30.398zm-123.2 36v-0.80078c0-6.3984 1.6016-13.602 4.8008-19.199h134.4c3.1992 5.6016 4.8008 12.801 4.8008 19.199v3.1992c0 13.602-6.3984 25.602-17.602 33.602h-107.2l-7.1992-7.1992c-8-8-12-18.402-12-28.801zm24 52h96v32h-96zm-24 48v24h-24v-24zm-40-48h-48v-40h48zm-44.801-62.398 20.801-15.199 20.801 15.199c2.3984 1.6016 3.1992 4 3.1992 6.3984h-48c0-2.3984 0.80078-4.8008 3.1992-6.3984zm-3.1992 78.398h48v56h-48zm-16 72v16h-8v-16zm-40 16v-16h16v16zm2.3984-143.2 5.6016-5.6016 5.6016 5.6016c1.5977 1.5977 2.3984 4 2.3984 5.5977v1.6016h-16v-1.6016c0-1.5977 0.80078-4 2.3984-5.5977zm-2.3984 23.199h16v88h-16zm0 136h432v192h-144v-68c0-40-19.199-78.398-51.199-102.4l-20.801-16-20.801 16c-32 24-51.199 62.398-51.199 102.4v68h-144zm224 112h24v80h-24zm-16 80h-24v-80h24zm-40-96v96h-8v-68c0-35.199 16.801-68 44.801-89.602l11.199-8 11.199 8c28 21.602 44.801 54.402 44.801 89.602v68h-8v-96z"/>
  <path d="m112 136h16v24h-16z"/>
  <path d="m384 136h16v24h-16z"/>
  <path d="m216 176h16v16h-16z"/>
  <path d="m248 176h16v16h-16z"/>
  <path d="m280 176h16v16h-16z"/>
 </g>
</svg>
