<?xml version="1.0" encoding="UTF-8"?>
<svg width="512pt" height="512pt" version="1.1" viewBox="0 0 512 512" xmlns="http://www.w3.org/2000/svg">
 <path d="m470.22 447.96v-63.23l-3.707-1.2969c-0.48828-0.16406-49.348-17.613-95.082-66.566-42.301-45.27-90.238-127.45-78.43-261.86l0.44141-4.9297-24.562-4.9102-4.1992 36.285c-1.0195-0.41016-2.082-0.79297-3.1523-1.1172v-46.125c0-3.0508-2.4727-5.5312-5.5234-5.5312-3.0508 0-5.5234 2.4727-5.5234 5.5312v46.125c-1.0742 0.32422-2.1367 0.70703-3.1523 1.1172l-4.207-36.285-24.551 4.9102 0.42969 4.9297c11.785 134.13-35.941 216.22-78.059 261.47-45.727 49.125-94.965 66.797-95.457 66.961l-3.707 1.2969v63.242h-11.785v35.363h452.02v-35.363h-11.785l-0.011718-0.011718zm-203.81-353.33 7.3516 4.4102 4.7148-40.68 3.1016 0.625c-4.6133 59.117 1.6328 113.27 18.602 161.04 13.992 39.387 35.246 74.512 63.164 104.4 40.762 43.621 83.164 62.934 95.82 68.039v55.508h-13.188v-51.844h-58.895c-72.879-38.316-122.17-214.85-125.55-227.28v-76.707c1.7695 0.76953 3.5664 1.6992 4.8789 2.4922zm105.54 353.33c-7.9414-10.199-16.59-24.664-25.16-40.797h88.145v40.797zm-294.88 0v-40.797h88.141c-8.5703 16.129-17.223 30.598-25.16 40.797zm67.988-51.848c24.977-19.434 49.168-54.258 72.188-103.96-6.3008 15.82-25.883 63.938-46.895 105.14v-1.1875zm73.918-78.832v130.68h-65.215c23.496-33.727 50.578-95.406 65.215-130.68zm11.055-54.562c8.4141-20.645 15.293-40.176 20.445-55.875v241.12h-20.445zm31.5-55.871c5.1445 15.699 12.031 35.23 20.445 55.875v185.24h-20.445zm80.121 190.45c-21.012-41.199-40.59-89.309-46.895-105.14 23.023 49.695 47.215 84.516 72.191 103.95h-25.293v1.1875zm-48.625-80.02c14.629 35.277 41.711 96.957 65.215 130.68h-65.215zm-240.2 75.172c12.652-5.1055 55.055-24.426 95.812-68.039 27.926-29.891 49.176-65.016 63.172-104.4 16.961-47.766 23.215-101.92 18.602-161.04l3.1016-0.625 4.7148 40.68 7.3438-4.4102c1.3203-0.79297 3.1172-1.7188 4.8945-2.5039v76.707c-3.3906 12.438-52.648 188.95-125.56 227.28h-58.891v51.844h-13.184zm418.12 79.82h-429.91v-13.254h429.91z" fill="#443f3c"/>
</svg>
