<?xml version="1.0" encoding="UTF-8"?>
<svg width="512pt" height="512pt" version="1.1" viewBox="0 0 512 512" xmlns="http://www.w3.org/2000/svg">
 <g fill="#443f3c">
  <path d="m280 160c0-13.301-10.699-24-24-24s-24 10.699-24 24v40h48zm-16 24h-16v-24c0-4.3984 3.6016-8 8-8s8 3.6016 8 8z"/>
  <path d="m200 160c0-13.301-10.699-24-24-24s-24 10.699-24 24v40h48zm-16 24h-16v-24c0-4.3984 3.6016-8 8-8s8 3.6016 8 8z"/>
  <path d="m360 160c0-13.301-10.699-24-24-24s-24 10.699-24 24v40h48zm-16 24h-16v-24c0-4.3984 3.6016-8 8-8s8 3.6016 8 8z"/>
  <path d="m72 136h16v64h-16z"/>
  <path d="m424 136h16v64h-16z"/>
  <path d="m424 248h16v104h-16z"/>
  <path d="m72 248h16v104h-16z"/>
  <path d="m496 131.3v-27.301h-16v-48h-16v16h-48v-16h-16v16h-48v-16h-16v16h-40v-16c0-22.102-17.898-40-40-40s-40 17.898-40 40v16h-40v-16h-16v16h-48v-16h-16v16h-48v-16h-16v48h-16v27.301l16 16v68.699h-16v27.301l16 16v220.7h-16v16h480v-16h-16v-220.7l16-16v-27.301h-16v-68.699zm-200-43.301h40v16h-40zm-64-32c0-13.301 10.699-24 24-24s24 10.699 24 24v16h-48zm0 32h48v16h-48zm-56 0h40v16h-40zm-128 0h48v16h-48zm56 392h-56v-42.801l56-24.898zm-56-60.301v-14.5l24-10.699v14.5zm56-24.898-16 7.1016v-14.5l16-7.1016zm0-32-56 24.898v-135l-16-16v-4.6992h72zm0-146.8h-56v-75.301l-16-16v-4.6992h72zm8-128h48v16h-48zm8 288h32v16h-32zm48 104h-16v-32c0-4.3984 3.6016-8 8-8s8 3.6016 8 8zm32 0h-16v-32c0-13.301-10.699-24-24-24s-24 10.699-24 24v32h-16v-72h80zm-16-104v16h-16v-16zm-16-16v-88c0-4.3984 3.6016-8 8-8s8 3.6016 8 8v88zm96 120h-16v-32c0-4.3984 3.6016-8 8-8s8 3.6016 8 8zm32 0h-16v-32c0-13.301-10.699-24-24-24s-24 10.699-24 24v32h-16v-72h80zm-96-88v-16h32v16zm64-16v16h-16v-16zm-16-16v-88c0-4.3984 3.6016-8 8-8s8 3.6016 8 8v88zm32 32v-16h32v16zm80 88h-16v-32c0-4.3984 3.6016-8 8-8s8 3.6016 8 8zm32 0h-16v-32c0-13.301-10.699-24-24-24s-24 10.699-24 24v32h-16v-72h80zm-48-104v16h-16v-16zm-16-16v-88c0-4.3984 3.6016-8 8-8s8 3.6016 8 8v88zm64 32h-32v-16h32zm0-32h-32v-88c0-13.301-10.699-24-24-24s-24 10.699-24 24v88h-32v-88c0-13.301-10.699-24-24-24s-24 10.699-24 24v88h-32v-88c0-13.301-10.699-24-24-24s-24 10.699-24 24v88h-32v-128h272zm0-144h-272v-96h272zm8-112h-48v-16h48zm16-16h48v16h-48zm-8 293.6 16 8.8984v13.699l-16-8.8984zm56 98.398h-56v-66.398l56 31.102zm0-53.602-24-13.301v-13.699l24 13.301zm16-189.7-16 16v141.7l-56-31.102v-131.3h72zm-16-96v75.301h-56v-96h72v4.6992z"/>
 </g>
</svg>
