<?xml version="1.0" encoding="UTF-8"?>
<svg width="512pt" height="512pt" version="1.1" viewBox="0 0 512 512" xmlns="http://www.w3.org/2000/svg">
 <g fill="#443f3c">
  <path d="m168 120h32v16h-32z"/>
  <path d="m312 120h32v16h-32z"/>
  <path d="m456 480c-1.6016-150.4-44-297.6-123.2-425.6l-24-38.398h-20.801v136h-12.801l-21.602-21.602-11.199 11.199 10.398 10.398-28.797 0.003906v-136h-20.801l-24 38.398c-79.199 128-121.6 275.2-123.2 425.6h-8v16h416v-16zm-104-208h43.199c-8 12.801-13.602 25.602-18.398 40h-30.398c1.5977-13.602 3.1992-26.398 5.5977-40zm2.3984-16c5.6016-28 12.801-55.199 21.602-81.602 11.199 26.398 20.801 53.602 29.602 81.602zm-10.398 111.2c0-13.602 0.80078-26.398 1.6016-39.199h27.199c-3.1992 12.801-4 25.602-4 38.398v1.6016zm0 16.801h24v40h-24zm0 56h24v40h-24zm40-73.602c0-32 9.6016-64 27.199-90.398 18.398 66.398 28 135.2 28.801 204h-56zm-64.801-303.2c17.602 28.801 34.398 59.199 48 90.398-25.598 68.004-39.199 140.8-39.199 213.6v112.8h-24v-440.8zm-81.598 238.4 21.602-21.602h28.797v96h-28.801l10.398-10.398-11.199-11.199-21.598 21.598h-12.801v-96h12.801l-10.398 10.398zm-0.80078 90.398 21.602 21.602 11.199-11.199-10.402-10.402h28.801v88h-64v-88zm16-224-10.398 10.398 11.199 11.199 21.602-21.602 12.797 0.003906v96h-28.801l-21.602-21.602-11.199 11.199 10.398 10.398-12.797 0.003906v-96zm-60-104.8 15.199-24v440.8h-24v-112.8c0-72.801-13.602-145.6-39.199-214.4 14.398-30.402 30.398-60.801 48-89.602zm-24.801 360.8h-24v-40h24zm0-56.801-24 0.80078v-1.6016c0-12.801-1.6016-25.602-4-38.398h27.199c0 12.801 0.80078 26.398 0.80078 39.199zm-8-95.199c2.3984 13.602 4 26.398 5.6016 40h-30.398c-4.8008-14.398-10.398-27.199-18.398-40zm-53.602-16c8-28 18.398-55.199 29.602-81.602 8.8008 26.398 16.801 53.602 21.602 81.602zm37.602 184h24v40h-24zm-43.199-164c17.602 27.199 27.199 58.398 27.199 90.398v113.6h-56c0.80078-68.801 10.398-137.6 28.801-204z"/>
 </g>
</svg>
