<?xml version="1.0" encoding="UTF-8"?>
<svg width="512pt" height="512pt" version="1.1" viewBox="0 0 512 512" xmlns="http://www.w3.org/2000/svg">
 <g fill="#443f3c">
  <path d="m311 486h-110c-2.7617 0-5-2.2383-5-5v-79.387c0-21.723 0.94922-42.547 12.406-58.586l43.527-60.938c0.9375-1.3086 2.4531-2.0898 4.0664-2.0898s3.1289 0.78125 4.0664 2.0938l43.527 60.938c11.457 16.039 12.406 36.863 12.406 58.582v79.387c0 2.7617-2.2383 5-5 5zm-105-10h100v-74.387c0-20.031-0.80859-39.141-10.543-52.77l-39.457-55.242-39.457 55.242c-9.7383 13.629-10.543 32.738-10.543 52.77z"/>
  <path d="m201 486h-70.715c-2.7617 0-5-2.2383-5-5v-51.031c0-14.266 0.63672-27.957 8.3086-38.699l27.98-39.176c0.9375-1.3125 2.4531-2.0938 4.0703-2.0938 1.6133 0 3.1289 0.78125 4.0703 2.0938l27.98 39.176c7.6719 10.742 8.3086 24.434 8.3086 38.699l-0.003906 51.031c0 2.7617-2.2383 5-5 5zm-65.715-10h60.715v-46.031c0-12.574-0.49219-24.555-6.4453-32.887l-23.91-33.477-23.914 33.473c-5.9531 8.332-6.4453 20.312-6.4453 32.887z"/>
  <path d="m381.71 486h-70.715c-2.7617 0-5-2.2383-5-5v-51.031c0-14.266 0.63672-27.961 8.3086-38.699l27.98-39.176c0.9375-1.3125 2.4531-2.0938 4.0664-2.0938s3.1289 0.78125 4.0664 2.0938l27.98 39.176c7.6719 10.738 8.3086 24.434 8.3086 38.699l0.003906 51.031c0 2.7617-2.2383 5-5 5zm-65.715-10h60.715v-46.031c0-12.574-0.49219-24.555-6.4414-32.887l-23.914-33.477-23.914 33.477c-5.9492 8.332-6.4453 20.312-6.4453 32.887z"/>
  <path d="m421 486h-330c-2.7617 0-5-2.2383-5-5v-210c0-2.7617 2.2383-5 5-5h65v-25c0-2.7617 2.2383-5 5-5h190c2.7617 0 5 2.2383 5 5v25h65c2.7617 0 5 2.2383 5 5v210c0 2.7617-2.2383 5-5 5zm-325-10h320v-200h-65c-2.7617 0-5-2.2383-5-5v-25h-180v25c0 2.7617-2.2383 5-5 5h-65z"/>
  <path d="m331 246h-150c-2.7617 0-5-2.2383-5-5v-40c0-2.7617 2.2383-5 5-5h150c2.7617 0 5 2.2383 5 5v40c0 2.7617-2.2383 5-5 5zm-145-10h140v-30h-140z"/>
  <path d="m256 76c-2.7617 0-5-2.2383-5-5v-40c0-2.7617 2.2383-5 5-5s5 2.2383 5 5v40c0 2.7617-2.2383 5-5 5z"/>
  <path d="m481 486h-60c-2.7617 0-5-2.2383-5-5v-270c0-2.7617 2.2383-5 5-5h60c2.7617 0 5 2.2383 5 5v270c0 2.7617-2.2383 5-5 5zm-55-10h50v-260h-50z"/>
  <path d="m481 216h-60c-2.7617 0-5-2.2383-5-5v-28.352c0-8.8477 3.4453-17.164 9.6992-23.422l21.766-21.766c1.9492-1.9531 5.1172-1.9531 7.0703 0l21.766 21.762c6.2578 6.2578 9.6992 14.574 9.6992 23.422v28.355c0 2.7617-2.2383 5-5 5zm-55-10h50v-23.352c0-6.1758-2.4062-11.98-6.7734-16.352l-18.227-18.227-18.23 18.227c-4.3672 4.3672-6.7695 10.176-6.7695 16.352z"/>
  <path d="m321.09 206h-128.76c-2.7617 0-5-2.2383-5-5v-52.652c0-15.199 7.0742-30.039 19.402-40.711l46.703-40.418c1.8789-1.625 4.6641-1.625 6.543 0l46.703 40.418c12.332 10.672 19.402 25.508 19.402 40.711l0.007812 52.652c0 2.7617-2.2383 5-5 5zm-123.76-10h118.76v-47.652c0-12.477-5.6641-24.25-15.945-33.148l-43.434-37.586-43.434 37.586c-10.285 8.8984-15.949 20.672-15.949 33.148z"/>
  <path d="m91 486h-60c-2.7617 0-5-2.2383-5-5v-270c0-2.7617 2.2383-5 5-5h60c2.7617 0 5 2.2383 5 5v270c0 2.7617-2.2383 5-5 5zm-55-10h50v-260h-50z"/>
  <path d="m91 216h-60c-2.7617 0-5-2.2383-5-5v-28.352c0-8.8477 3.4453-17.164 9.6992-23.422l21.762-21.762c1.9531-1.9531 5.1172-1.9531 7.0703 0l21.762 21.762c6.2617 6.2578 9.707 14.574 9.707 23.422v28.352c0 2.7617-2.2383 5-5 5zm-55-10h50v-23.352c0-6.1758-2.4062-11.98-6.7734-16.352l-18.227-18.227-18.227 18.227c-4.3672 4.3672-6.7734 10.176-6.7734 16.352z"/>
  <path d="m491 486h-470c-2.7617 0-5-2.2383-5-5s2.2383-5 5-5h470c2.7617 0 5 2.2383 5 5s-2.2383 5-5 5z"/>
  <path d="m381 276c-2.7617 0-5-2.2383-5-5v-100c0-2.7617 2.2383-5 5-5s5 2.2383 5 5v100c0 2.7617-2.2383 5-5 5z"/>
  <path d="m131 276c-2.7617 0-5-2.2383-5-5v-100c0-2.7617 2.2383-5 5-5s5 2.2383 5 5v100c0 2.7617-2.2383 5-5 5z"/>
  <path d="m261 166h-60c-2.7617 0-5-2.2383-5-5s2.2383-5 5-5h60c2.7617 0 5 2.2383 5 5s-2.2383 5-5 5z"/>
  <path d="m311 136h-50c-2.7617 0-5-2.2383-5-5s2.2383-5 5-5h50c2.7617 0 5 2.2383 5 5s-2.2383 5-5 5z"/>
  <path d="m281 486h-50c-2.7617 0-5-2.2383-5-5v-102c0-12.684 10.316-23 23-23h14c12.684 0 23 10.316 23 23v102c0 2.7617-2.2383 5-5 5zm-45-10h40v-97c0-7.168-5.832-13-13-13h-14c-7.168 0-13 5.832-13 13z"/>
 </g>
</svg>
