<?xml version="1.0" encoding="UTF-8"?>
<svg width="512pt" height="512pt" version="1.1" viewBox="0 0 512 512" xmlns="http://www.w3.org/2000/svg">
 <defs>
  <clipPath id="a">
   <path d="m94.781 94.781h322.44v322.44h-322.44z"/>
  </clipPath>
 </defs>
 <path d="m186.29 295.21v-8.7148h226.58v8.7148z" fill="#443f3c"/>
 <g clip-path="url(#a)">
  <path d="m103.5 103.5v305.01h305.01v-305.01zm313.72-8.7148v322.44h-322.44v-322.44z" fill="#443f3c"/>
 </g>
 <path d="m190.64 412.86h-8.7148v-313.73h8.7148z" fill="#443f3c"/>
 <path d="m109.41 131.09 11.512 12.273 11.508-12.273-11.508-12.277zm11.512-23.242 21.785 23.242-21.785 23.238-21.789-23.238z" fill="#443f3c"/>
 <path d="m152.99 131.09 11.508 12.273 11.512-12.273-11.512-12.277zm11.508-23.242 21.789 23.242-21.789 23.238-21.785-23.238z" fill="#443f3c"/>
 <path d="m109.41 380.91 11.512 12.277 11.508-12.277-11.508-12.277zm11.512-23.238 21.785 23.238-21.785 23.238-21.789-23.238z" fill="#443f3c"/>
 <path d="m152.99 380.91 11.508 12.277 11.512-12.277-11.512-12.277zm11.508-23.238 21.789 23.238-21.789 23.238-21.785-23.238z" fill="#443f3c"/>
 <path d="m142.71 278.51 26.145-28.32 17.43 18.879v11.086l-17.43-18.879-24.625 26.676 24.625 26.68 17.43-18.883v11.086l-17.43 18.879-26.145-28.32-26.145 28.32-17.43-18.879v-11.086l17.43 18.883 24.625-26.68-24.625-26.676-17.43 18.879v-11.086l17.43-18.879z" fill="#443f3c"/>
 <path d="m142.71 214.61 26.145-28.32 17.43 18.879v11.086l-17.43-18.883-24.625 26.68 24.625 26.68 17.43-18.883v11.086l-17.43 18.879-26.145-28.32-26.145 28.32-17.43-18.879v-11.086l17.43 18.883 24.625-26.68-24.625-26.68-17.43 18.883v-11.086l17.43-18.879z" fill="#443f3c"/>
 <path d="m107.85 197.9 8.7148 11.621-8.7148 11.617-8.7148-11.617z" fill="#443f3c"/>
 <path d="m177.57 197.9 8.7148 11.621-8.7148 11.617-8.7148-11.617z" fill="#443f3c"/>
 <path d="m107.85 290.86 8.7148 11.617-8.7148 11.621-8.7148-11.621z" fill="#443f3c"/>
 <path d="m177.57 290.86 8.7148 11.617-8.7148 11.621-8.7148-11.621z" fill="#443f3c"/>
 <path d="m107.85 158.66 8.7148 11.617-8.7148 11.621-8.7148-11.621z" fill="#443f3c"/>
 <path d="m131.09 158.66 8.7109 11.617-8.7109 11.621-8.7148-11.621z" fill="#443f3c"/>
 <path d="m154.33 158.66 8.7148 11.617-8.7148 11.621-8.7148-11.621z" fill="#443f3c"/>
 <path d="m177.57 158.66 8.7148 11.617-8.7148 11.621-8.7148-11.621z" fill="#443f3c"/>
 <path d="m107.85 330.07 8.7148 11.617-8.7148 11.621-8.7148-11.621z" fill="#443f3c"/>
 <path d="m131.09 330.07 8.7109 11.617-8.7109 11.621-8.7148-11.621z" fill="#443f3c"/>
 <path d="m154.33 330.07 8.7148 11.617-8.7148 11.621-8.7148-11.621z" fill="#443f3c"/>
 <path d="m177.57 330.07 8.7148 11.617-8.7148 11.621-8.7148-11.621z" fill="#443f3c"/>
</svg>
