<?xml version="1.0" encoding="UTF-8"?>
<svg width="512pt" height="512pt" version="1.1" viewBox="0 0 512 512" xmlns="http://www.w3.org/2000/svg">
 <g fill="#443f3c">
  <path d="m316.51 300.86c0-24.781-8.207-48.199-23.73-67.711l-1.6523-2.0781h185.88v-62.309c0-65.609-53.375-118.99-118.99-118.99l-201.77-0.003906c-66.863 0-121.25 54.395-121.25 121.25v291.2h120.16c88.973 0.003906 161.36-72.387 161.36-161.36zm72.871-228.09 1.6992 0.58984c40.672 14.141 68.004 52.48 68.004 95.402v44.391h-69.703zm-211.4-5.0781h180.04c4.5664 0 9.3047 0.39062 14.91 1.2227l1.0898 0.16406v144.07l-196.04 0.003906zm-125.07 368.86v-240.42l1.7734 0.73828c47.82 19.852 79.949 67.859 79.949 119.48-0.003906 51.613-32.129 99.621-79.953 119.47zm24.227 5.3711c44.938-25.887 72.852-74.004 72.852-125.58 0-59.547-37.387-113.88-93.035-135.2-0.83984-0.31641-1.7617-0.48047-2.7383-0.48047h-0.019532-1.2812v-9.6289c0-56.977 46.355-103.33 103.33-103.33h3.8203v163.38h105.86l0.35938 0.30078c20.535 17.402 32.312 42.73 32.312 69.488 0 79.094-64.348 143.45-143.45 143.45h-82.16z"/>
  <path d="m121.82 112.97c-15.523 0-28.148 12.625-28.148 28.148 0 15.52 12.625 28.148 28.148 28.148 15.52 0 28.148-12.625 28.148-28.148 0-15.523-12.629-28.148-28.148-28.148zm0 42.469c-7.8984 0-14.324-6.4258-14.324-14.324 0-7.8984 6.4258-14.324 14.324-14.324 7.8945 0 14.324 6.4258 14.324 14.324 0 7.8984-6.4297 14.324-14.324 14.324z"/>
 </g>
</svg>
