<?xml version="1.0" encoding="UTF-8"?>
<svg width="512pt" height="512pt" version="1.1" viewBox="0 0 512 512" xmlns="http://www.w3.org/2000/svg">
 <defs>
  <clipPath id="n">
   <path d="m30 30h452v143h-452z"/>
  </clipPath>
  <clipPath id="h">
   <path d="m481.28 256c0 124.42-100.86 225.28-225.28 225.28s-225.28-100.86-225.28-225.28 100.86-225.28 225.28-225.28 225.28 100.86 225.28 225.28"/>
  </clipPath>
  <clipPath id="g">
   <path d="m376 50h106v416h-106z"/>
  </clipPath>
  <clipPath id="f">
   <path d="m481.28 256c0 124.42-100.86 225.28-225.28 225.28s-225.28-100.86-225.28-225.28 100.86-225.28 225.28-225.28 225.28 100.86 225.28 225.28"/>
  </clipPath>
  <clipPath id="e">
   <path d="m150 341h212v56h-212z"/>
  </clipPath>
  <clipPath id="d">
   <path d="m481.28 256c0 124.42-100.86 225.28-225.28 225.28s-225.28-100.86-225.28-225.28 100.86-225.28 225.28-225.28 225.28 100.86 225.28 225.28"/>
  </clipPath>
  <clipPath id="c">
   <path d="m115 206h21v106h-21z"/>
  </clipPath>
  <clipPath id="b">
   <path d="m481.28 256c0 124.42-100.86 225.28-225.28 225.28s-225.28-100.86-225.28-225.28 100.86-225.28 225.28-225.28 225.28 100.86 225.28 225.28"/>
  </clipPath>
  <clipPath id="a">
   <path d="m30 340h452v142h-452z"/>
  </clipPath>
  <clipPath id="m">
   <path d="m481.28 256c0 124.42-100.86 225.28-225.28 225.28s-225.28-100.86-225.28-225.28 100.86-225.28 225.28-225.28 225.28 100.86 225.28 225.28"/>
  </clipPath>
  <clipPath id="l">
   <path d="m30 50h104v165h-104z"/>
  </clipPath>
  <clipPath id="k">
   <path d="m481.28 256c0 124.42-100.86 225.28-225.28 225.28s-225.28-100.86-225.28-225.28 100.86-225.28 225.28-225.28 225.28 100.86 225.28 225.28"/>
  </clipPath>
  <clipPath id="j">
   <path d="m30 50h105v416h-105z"/>
  </clipPath>
  <clipPath id="i">
   <path d="m481.28 256c0 124.42-100.86 225.28-225.28 225.28s-225.28-100.86-225.28-225.28 100.86-225.28 225.28-225.28 225.28 100.86 225.28 225.28"/>
  </clipPath>
 </defs>
 <path d="m256 486.4c-61.105 0-119.71-24.273-162.92-67.48s-67.48-101.81-67.48-162.92 24.273-119.71 67.48-162.92 101.81-67.48 162.92-67.48 119.71 24.273 162.92 67.48 67.48 101.81 67.48 162.92c-0.066407 61.086-24.363 119.65-67.555 162.84-43.195 43.191-101.76 67.488-162.84 67.555zm0-450.56c-58.391 0-114.39 23.195-155.68 64.484-41.289 41.289-64.484 97.285-64.484 155.68s23.195 114.39 64.484 155.68c41.289 41.289 97.285 64.484 155.68 64.484s114.39-23.195 155.68-64.484c41.289-41.289 64.484-97.285 64.484-155.68s-23.195-114.39-64.484-155.68c-41.289-41.289-97.285-64.484-155.68-64.484z" fill="#443f3c"/>
 <g clip-path="url(#n)">
  <g clip-path="url(#h)">
   <path d="m358.4 172.54c-1.4961 0-2.918-0.65234-3.8906-1.7891l-0.87109-0.97266-0.51172-0.5625v-0.003906c-24.691-27.684-60.027-43.516-97.125-43.516s-72.434 15.832-97.125 43.516c-1.5977 1.8125-4.2461 2.2617-6.3516 1.0781l-2.3047-1.2812-232.14-139.01c-1.9844-1.1875-2.9297-3.5586-2.3008-5.7852 0.63672-2.2812 2.7539-3.8281 5.1172-3.7383h670.72c2.25 0.12891 4.1523 1.7148 4.6797 3.9062 0.53125 2.1914-0.43359 4.4727-2.375 5.6172l-230.4 138.34c-0.44922 2.4648-2.6172 4.2422-5.1211 4.1992zm-419.27-141.82 215.04 128.82c26.535-28.07 63.461-43.977 102.09-43.977 38.629 0 75.555 15.906 102.09 43.977l214.53-128.82z" fill="#443f3c"/>
  </g>
 </g>
 <g clip-path="url(#g)">
  <g clip-path="url(#f)">
   <path d="m640 465.46c-0.92188 0.015624-1.8281-0.23438-2.6094-0.71875l-258.51-154.21c-2.2695-1.3555-3.1367-4.2188-1.9961-6.6055 11.566-29.156 12.277-61.5 1.9961-91.133l-0.66406-1.7422c-0.89453-2.3398 0.039062-4.9844 2.1992-6.2461l256.97-153.6h0.003906c1.5742-0.93359 3.5273-0.95312 5.1211-0.058594 1.5938 0.89844 2.5898 2.582 2.6094 4.4102v404.48c-0.003906 1.8477-1.0039 3.5508-2.6133 4.457-0.73437 0.53906-1.6016 0.875-2.5078 0.97266zm-251.96-161.54 246.84 147.41v-386.41l-245.76 146.64c9.9141 29.992 9.4805 62.441-1.2305 92.16z" fill="#443f3c"/>
  </g>
 </g>
 <g clip-path="url(#e)">
  <g clip-path="url(#d)">
   <path d="m256 396.44c-39.629-0.050781-77.41-16.773-104.09-46.078-0.9375-1.0117-1.4297-2.3594-1.3633-3.7383s0.6875-2.6719 1.7227-3.5859c1-0.92969 2.332-1.418 3.6992-1.3633 1.3633 0.058594 2.6523 0.66016 3.5703 1.6719 24.676 27.324 59.773 42.918 96.59 42.918s71.91-15.594 96.59-42.918c1.9102-2.0742 5.1367-2.2109 7.2188-0.30859 1.0156 0.91406 1.6289 2.1953 1.6953 3.5625 0.066407 1.3633-0.41406 2.6992-1.3398 3.707-26.691 29.414-64.574 46.172-104.29 46.133z" fill="#443f3c"/>
  </g>
 </g>
 <g clip-path="url(#c)">
  <g clip-path="url(#b)">
   <path d="m130.2 311.04c-2.1016 0.003907-3.9883-1.2734-4.7617-3.2266-12.426-31.316-13.203-66.047-2.2031-97.891 0.40234-1.332 1.332-2.4414 2.5703-3.0742 1.2383-0.63281 2.6797-0.73438 3.9961-0.28516 1.3125 0.45312 2.3867 1.4219 2.9766 2.6836 0.58594 1.2578 0.63281 2.7031 0.13281 4-10.148 29.469-9.4219 61.598 2.0508 90.574 0.50391 1.2617 0.48438 2.6758-0.054688 3.9219-0.53906 1.25-1.5508 2.2344-2.8125 2.7344-0.58984 0.30859-1.2344 0.5-1.8945 0.5625z" fill="#443f3c"/>
  </g>
 </g>
 <g clip-path="url(#a)">
  <g clip-path="url(#m)">
   <path d="m591.36 491.52h-670.72c-2.3672 0.089844-4.4844-1.457-5.1211-3.7383-0.58203-2.2852 0.47656-4.6758 2.5586-5.7852l234.34-140.59c1.1719-0.85156 2.6484-1.168 4.0664-0.87109 1.418 0.30078 2.6445 1.1836 3.3711 2.4375 0.73047 1.2539 0.89062 2.7539 0.44922 4.1367-0.44141 1.3789-1.4453 2.5078-2.7656 3.1016l-218.42 131.07h633.75l-218.37-130.97c-2.1211-1.543-2.7344-4.4414-1.4141-6.7109 1.3203-2.2695 4.1406-3.1758 6.5352-2.0938l234.29 140.49c1.9727 1.1719 2.9258 3.5156 2.332 5.7344-0.59766 2.2148-2.5977 3.7656-4.8945 3.7891z" fill="#443f3c"/>
  </g>
 </g>
 <g clip-path="url(#l)">
  <g clip-path="url(#k)">
   <path d="m128.92 214.43c-0.91797 0-1.8203-0.24609-2.6133-0.71875l-256.92-153.6 0.003906 0.003906c-2.4336-1.4414-3.2344-4.582-1.793-7.0156 1.457-2.4141 4.5938-3.1914 7.0117-1.7383l256.98 153.45c1.168 0.73438 1.9883 1.9102 2.2773 3.2578 0.28906 1.3516 0.019531 2.7617-0.74219 3.9102-0.89844 1.4727-2.4766 2.3984-4.1992 2.457z" fill="#443f3c"/>
  </g>
 </g>
 <g clip-path="url(#j)">
  <g clip-path="url(#i)">
   <path d="m-128 465.46c-0.87891-0.003907-1.7422-0.23438-2.5078-0.66797-1.6094-0.90625-2.6094-2.6055-2.6133-4.4531v-404.48c0-2.8281 2.293-5.1211 5.1211-5.1211 1.3594 0 2.6602 0.53906 3.6211 1.5 0.96094 0.96094 1.5 2.2617 1.5 3.6211v395.47l250.52-149.61c2.3945-1.082 5.2148-0.17969 6.5352 2.0898 1.3203 2.2695 0.71094 5.1719-1.4141 6.7148l-258.15 154.21c-0.78125 0.48437-1.6875 0.73437-2.6094 0.71875z" fill="#443f3c"/>
  </g>
 </g>
 <path d="m256 223.8c-1.5273-0.007813-2.9102-0.91016-3.5312-2.3047l-6.707-14.848-16.129 1.793v-0.003906c-1.5195 0.17578-2.9961-0.5625-3.7656-1.8867-0.76563-1.3242-0.67578-2.9727 0.23047-4.2031l9.7812-12.902-9.5742-13.262c-0.84766-1.2734-0.84766-2.9258 0-4.1992 0.71875-1.3594 2.2148-2.1172 3.7383-1.8945l16.129 1.7422 6.5039-14.848h-0.003906c0.71484-1.2812 2.0664-2.0781 3.5312-2.0781 1.4688 0 2.8203 0.79688 3.5352 2.0781l6.5 14.848 16.129-1.7422c1.5195-0.20703 3.0078 0.54687 3.7383 1.8945 0.84766 1.2734 0.84766 2.9258 0 4.1992l-9.9844 13.262 9.5742 13.105c0.84766 1.2734 0.84766 2.9258 0 4.1992-0.76172 1.3164-2.2266 2.0586-3.7383 1.8945l-15.719-1.9961-6.5039 14.848h0.003906c-0.65234 1.4648-2.1367 2.3789-3.7383 2.3047zm-7.6797-25.09c1.5312-0.003906 2.918 0.89844 3.5312 2.3047l4.1484 9.4219 4.1484-9.4219c0.6875-1.5273 2.2695-2.4531 3.9414-2.3047l10.238 1.125-6.0898-8.3438c-0.97656-1.3438-0.97656-3.1602 0-4.5078l6.0938-8.3438-10.238 1.125h-0.003906c-1.6602 0.17578-3.25-0.73047-3.9414-2.25l-4.1484-9.4727-4.1484 9.4727c-0.69141 1.5195-2.2812 2.4258-3.9414 2.25l-10.238-1.125 6.0938 8.3438h-0.003906c0.97656 1.3477 0.97656 3.1641 0 4.5078l-6.0898 8.1914 10.238-1.125z" fill="#443f3c"/>
 <path d="m198.86 324.5c-1.5352 0.019532-2.9297-0.89062-3.5312-2.3008l-6.5039-15.004-16.129 1.7422h0.003907c-1.4883 0.19922-2.9531-0.48438-3.7539-1.75-0.80469-1.2617-0.79687-2.8789 0.015626-4.1367l9.5742-13.105-9.5742-13.059c-0.82031-1.2812-0.82031-2.9219 0-4.1992 0.71875-1.3594 2.2148-2.1172 3.7383-1.8945l16.129 1.7422 6.5039-14.848h-0.003906c0.71484-1.2812 2.0664-2.0781 3.5312-2.0781 1.4688 0 2.8203 0.79688 3.5352 2.0781l6.5547 14.848 16.332-1.7422c1.5078-0.16406 2.9766 0.57812 3.7383 1.8945 0.81641 1.2773 0.81641 2.918 0 4.1992l-9.5742 13.055 9.5742 13.105v0.003907c0.94922 1.2578 1.0312 2.9727 0.20703 4.3164-0.82812 1.3477-2.3906 2.0508-3.9453 1.7734l-16.336-1.9453-6.5547 14.848h0.003906c-0.56641 1.4648-1.9648 2.4375-3.5352 2.457zm-7.6797-25.09v0.003907c1.5352-0.019531 2.9336 0.89062 3.5352 2.3047l4.1484 9.4219 4.1484-9.4219h-0.003907c0.69531-1.5195 2.2812-2.4258 3.9414-2.2539l10.238 1.0742-6.0938-8.293h0.003906c-1.0156-1.3516-1.0156-3.207 0-4.5586l6.0938-8.3438-10.238 1.125h-0.003906c-1.6641 0.19141-3.2578-0.72266-3.9414-2.25l-4.1484-9.4727-4.3008 9.4727c-0.65234 1.5547-2.2695 2.4766-3.9414 2.25l-10.238-1.125 6.0938 8.3438h-0.003906c0.96875 1.3672 0.96875 3.1914 0 4.5586l-5.9375 8.293 10.238-1.0742z" fill="#443f3c"/>
 <path d="m313.14 324.5c-1.5195 0.015625-2.9062-0.86719-3.5352-2.25l-6.5508-15.055-16.336 1.9453c-1.5078 0.15234-2.9648-0.59766-3.7188-1.9141-0.75391-1.3164-0.66016-2.9531 0.23828-4.1758l9.5742-13.105-9.5742-13.055v-0.003906c-0.82031-1.2812-0.82031-2.9219 0-4.1992 0.74219-1.3359 2.2227-2.0859 3.7383-1.8945l16.129 1.7422 6.5547-14.848h-0.003906c0.625-1.3984 2.0078-2.2969 3.5352-2.3047 1.5273 0.007812 2.9102 0.90625 3.5312 2.3047l6.5039 14.848 16.129-1.7422c1.5078-0.16406 2.9727 0.57812 3.7344 1.8945 0.82031 1.2773 0.82031 2.918 0 4.1992l-9.5742 13.055 9.5234 13.109c0.90625 1.2305 1 2.8789 0.23047 4.2031-0.76562 1.3203-2.2422 2.0625-3.7617 1.8867l-16.332-1.9453-6.5039 14.797c-0.53516 1.4961-1.9453 2.4961-3.5312 2.5078zm-7.6797-25.09v0.003907c1.5273 0.007812 2.9062 0.91016 3.5312 2.3047l4.1484 9.4219 4.3008-9.4219c0.67969-1.5312 2.2773-2.4453 3.9414-2.2539l10.238 1.0742-6.0938-8.293h0.003906c-0.96875-1.3672-0.96875-3.1914 0-4.5586l6.0938-8.3438-10.238 1.125h-0.003907c-1.668 0.20703-3.2734-0.71094-3.9414-2.25l-4.1484-9.4727-4.1484 9.4727c-0.66797 1.5391-2.2734 2.457-3.9414 2.25l-10.238-1.125 6.0938 8.3438h-0.003906c1.0156 1.3516 1.0156 3.207 0 4.5586l-6.2969 8.293 10.238-1.0742z" fill="#443f3c"/>
</svg>
