<?xml version="1.0" encoding="UTF-8"?>
<svg width="512pt" height="512pt" version="1.1" viewBox="0 0 512 512" xmlns="http://www.w3.org/2000/svg">
 <path d="m9.9219 65.488h28.52l36.969 36.969 36.969-36.969h28.52v93.766h6.9453v19.848h-6.9453v14.883h72.195l42.906-42.906 42.906 42.906h72.195v-14.883h-6.9453v-19.848h6.9453v-93.766h28.52l36.969 36.969 36.969-36.969h28.52v93.766h6.9453v19.848h-6.9453v267.41h-44.156v-81.621l-13.891-13.891v-55.566l-7.4414-7.4414-7.4414 7.4414v55.566l-13.895 13.891v81.621h-44.152v-177.12h-102.44l-12.66-12.656-12.66 12.656h-102.44v177.12h-44.152v-81.621l-13.895-13.891v-55.566l-7.4414-7.4414-7.4414 7.4414v55.566l-13.891 13.891v81.621h-44.156v-267.41h-6.9453v-19.848h6.9453zm5.9531 5.9531v93.77h-6.9453v7.9375h6.9453v267.41h32.25v-78.133l13.891-13.891v-55.566l13.395-13.395 13.395 13.395v55.566l13.895 13.891v78.133h32.246v-177.12h105.93l15.125-15.125 15.125 15.125h105.93v177.12h32.246v-78.133l13.895-13.891v-55.566l13.395-13.395 13.395 13.395v55.566l13.891 13.891v78.133h32.25v-267.41h6.9453v-7.9375h-6.9453v-93.77h-20.102l-39.434 39.434-39.434-39.434h-20.102v93.77h-6.9453v7.9375h6.9453v26.789h-80.613l-40.441-40.441-40.441 40.441h-80.613v-26.789h6.9453v-7.9375h-6.9453v-93.77h-20.102l-39.434 39.434-39.434-39.434z" fill="#443f3c" fill-rule="evenodd"/>
</svg>
