<?xml version="1.0" encoding="UTF-8"?>
<svg width="512pt" height="512pt" version="1.1" viewBox="0 0 512 512" xmlns="http://www.w3.org/2000/svg">
 <path d="m503.85 382.46-58.086-296.86c-4.3008-21.84-16.043-41.508-33.219-55.66-17.18-14.148-38.734-21.902-60.992-21.941h-191.1c-22.258 0.039062-43.812 7.793-60.992 21.941-17.176 14.152-28.918 33.82-33.219 55.66l-58.086 296.86c-0.71484 3.6094 1.1289 7.2422 4.4648 8.8008l27.383 12.734v44h16v-36.504l32 14.902v37.602h16v-30.105l32 14.906v39.199h16v-31.703l100.62 46.953v-0.003906c2.1445 1.0039 4.6211 1.0039 6.7656 0l100.62-46.949v31.703h16v-39.199l32-14.938v30.137h16v-37.602l32-14.938v36.539h16v-44l27.383-12.801c3.3086-1.5508 5.1484-5.1445 4.4648-8.7344zm-24.762-43.199-175.09 78.453v-78.473l160.98-72.16zm-137.48-34.387-37.602 16.84v-54.398zm-31.703-54.328 34.102-15.305v49.441zm86.938 29.602-36.836 16.465v-53.305zm-31.695-54.32 34.859-15.688v50.543zm50.859 45.68v-52.199l36.039 36zm43.762-31.062-39.414-39.414 29.148-13.035zm-108.21-216.45c18.543 0.027344 36.504 6.4883 50.82 18.273 14.312 11.789 24.098 28.172 27.684 46.367l16.281 83.199-142.34 63.809v-166.14c13.172-11.762 21.547-27.965 23.527-45.512zm-40.191 0c-2.5703 17.91-13.648 33.469-29.73 41.758-16.078 8.293-35.18 8.293-51.258 0-16.082-8.2891-27.16-23.848-29.73-41.758zm-23.359 56.398v344.49l-32 14.312-32-14.344v-344.46c20.133 10.129 43.867 10.129 64 0zm-206.05 8.2422c3.5859-18.195 13.371-34.578 27.684-46.367 14.316-11.785 32.277-18.246 50.82-18.273h24c1.9844 17.551 10.371 33.754 23.551 45.512v166.14l-142.34-63.809zm126.05 178.67v54.398l-37.602-16.832zm-40 17.375v-49.441l34.137 15.305zm-16-41.375v53.305l-36.801-16.504zm-40 17.375v-50.543l34.895 15.648zm-49.496-72.688 29.152 13.07-39.418 39.379zm33.496 31.312v52.199l-36-16.16zm-48.977 47.777 160.98 72.156v78.473l-175.09-78.52zm208.98 220.11-230.95-107.8 4.7109-24.055 222.97 99.953c2.082 0.9375 4.4648 0.9375 6.5469 0l222.96-99.953 4.7109 24.055z" fill="#443f3c"/>
</svg>
