<?xml version="1.0" encoding="UTF-8"?>
<svg width="512pt" height="512pt" version="1.1" viewBox="0 0 512 512" xmlns="http://www.w3.org/2000/svg">
 <path d="m226.45 114.93c-73.652 16.367-111.38 81.34-111.52 139.21 0 78.875 64.016 142.92 142.86 142.92 60.414-0.28125 122.96-40.168 139.12-110.93 1.3359-5.7773-6.668-8.7148-9.3867-3.4453-20.176 38.969-60.352 63.422-104.21 63.461-64.938 0-117.48-52.547-117.48-117.52 0.019531-43.777 24.352-83.906 63.145-104.16 3.1914-1.8203 3.0078-5.125 2.3086-6.4023-0.58203-1.0586-1.3164-3.1328-4.8438-3.1484zm-32.902 23.043c-24.152 24.598-37.766 56.652-37.781 90.578 2.4727 84.992 68.898 127.36 127.55 127.59 32.633 0 66.086-13.137 90.586-37.84-22.84 41.363-67.328 68.566-116.11 68.617-73.398 0-132.79-59.414-132.79-132.85 2.6719-75.336 52.73-107.83 68.539-116.1z" fill="#443f3c"/>
</svg>
