<?xml version="1.0" encoding="UTF-8"?>
<svg width="512pt" height="512pt" version="1.1" viewBox="0 0 512 512" xmlns="http://www.w3.org/2000/svg">
 <g fill="#443f3c">
  <path d="m344 148.7c-2.1016 2.1016-5 3.3008-8 3.3008-7.1992 0-14.199 2.8984-19.301 8l-4.6992 4.6992c-2.1016 2.1016-5 3.3008-8 3.3008h-8v16h8c7.1992 0 14.199-2.8984 19.301-8l4.6992-4.6992c2.1016-2.1016 5-3.3008 8-3.3008 7.1992 0 14.199-2.8984 19.301-8l10.301-10.301-11.301-11.301z"/>
  <path d="m490.3 185c3.6016-3.6016 5.6992-8.5 5.6992-13.699v-56c0-10.699-8.6992-19.301-19.301-19.301h-8c-0.89844 0-1.6992-0.30078-2.3008-1l-17.398-17.301c-3.6016-3.6016-8.5-5.6992-13.699-5.6992h-38.602c-5.1016 0-10 2-13.699 5.6992l-28.699 28.699c-1.3008 1.3008-3.3984 1.3008-4.6992 0l-8-8c-7.5-7.5-19.801-7.5-27.301 0l-5.6992 5.6992h-16c-0.89844 0-1.6992-0.30078-2.3008-1l-9.3984-9.3984c-3.6016-3.6016-8.5-5.6992-13.699-5.6992h-30.602c-5.1016 0-10 2-13.699 5.6992l-17.203 17.301c-3.6016 3.6016-5.6992 8.5-5.6992 13.699v8c0 1.8008-1.5 3.3008-3.3008 3.3008-5.1016 0-10 2-13.699 5.6992l-23 23v-22.102c12.5-4.3984 19-18.102 14.602-30.602-2.3984-6.8008-7.8008-12.199-14.602-14.602v-36.496l2.6992-1.3984c8.1992-4 13.301-12.398 13.301-21.5v-22h-112v22.102c0 9.1016 5.1016 17.398 13.301 21.5l2.6992 1.3984v36.398c-12.5 4.3984-19 18.102-14.602 30.602 2.3984 6.8008 7.8008 12.199 14.602 14.602v108.4l-14.699 7.3984c-10.602 5.3008-17.301 16.102-17.301 28 0 4-1.6016 7.8984-4.5 10.801l-2.3984 2.3984c-5.8984 5.8008-9.1992 13.801-9.1992 22.102v12.699c0 8.3008 3.3008 16.301 9.1992 22.102l2.3984 2.3984c2.8984 2.8984 4.5 6.6992 4.5 10.801v62.301h-32v64h480v-155.3c0-5.1016-2-10-5.6992-13.699l-9.3984-9.3984c-0.60156-0.60156-1-1.5-1-2.3008v-46.602c0-0.89844 0.30078-1.6992 1-2.3008l9.3984-9.3984c3.6016-3.6016 5.6992-8.5 5.6992-13.699v-30.602c0-5.1016-2-10-5.6992-13.699l-4.6992-4.6992c-1.3008-1.3008-1.3008-3.3984 0-4.6992zm-410.3-153h80v6.1016c0 3-1.6992 5.8008-4.3984 7.1992l-5.5 2.6992h-60.203l-5.5-2.6992c-2.6992-1.3008-4.3984-4.1016-4.3984-7.1992zm64 32v32h-16v-32zm-32 0v32h-16v-32zm-24 48h64c4.3984 0 8 3.6016 8 8s-3.6016 8-8 8h-64c-4.3984 0-8-3.6016-8-8s3.6016-8 8-8zm200 272h-32v-48h-48v-73.5c0-34.801 14.5-68.102 40-91.801 25.5 23.699 40 57 40 91.801zm24 16v32h-80v-32zm-72-48v32h-104v-32zm-144-72v-136h48v16h-24v16h24v128h-16v16h16v16h-24v48h-24v-88h16v-16zm32 120h40v16h16v-16h32v32h-88zm-16 0v32h-48v-32zm-64-78.398c0-4 1.6016-7.8984 4.5-10.801l2.3984-2.3984c5.8984-5.8008 9.1992-13.801 9.1992-22.102 0-5.8008 3.3008-11.102 8.3984-13.602l7.6016-3.8008 0.003906 115.1h-16.102v-14.398c0-8.3008-3.3008-16.301-9.1992-22.102l-2.3984-2.3984c-2.8984-2.8984-4.5-6.6992-4.5-10.801l-0.003906-12.699zm88 158.4h-56v-16h-16v16h-32v-32h104zm112 0h-96v-32h96zm120 0h-104v-32h24v16h16v-16h64zm32-80v32h-72v-32zm-48-16v-121.5c0-34.801 14.5-68.102 40-91.801 25.5 23.699 40 57 40 91.801v121.5zm128 96h-96v-32h96zm0-48h-64v-32h64zm0-304h-56v16h56v27.301c0 0.89844-0.30078 1.6992-1 2.3008l-4.6992 4.6992c-7.5 7.5-7.5 19.801 0 27.301l4.6992 4.6992c0.60156 0.60156 1 1.5 1 2.3008v3.3008h-16v16h16v11.301c0 0.89844-0.30078 1.6992-1 2.3008l-9.3984 9.3984c-3.6016 3.6016-5.6992 8.5-5.6992 13.699v46.602c0 5.1016 2 10 5.6992 13.699l9.3984 9.3984c0.60156 0.60156 1 1.5 1 2.3008v11.398h-16v16h16v16h-32v-121.5c0.10156-42-18.602-81.801-50.898-108.6l-5.1016-4.3008-5.1016 4.3008c-32.301 26.801-50.898 66.699-50.898 108.6v121.5h-32v-96h16v-16h-16v-9.5c0.10156-42-18.602-81.801-50.898-108.6l-5.1016-4.3008-5.1016 4.3008c-32.301 26.801-50.898 66.699-50.898 108.6v73.5h-32v-80h16v-16h-16v-52.699l34.301-34.301c0.60156-0.60156 1.5-1 2.3008-1 10.699 0 19.301-8.6992 19.301-19.301v-8c0-0.89844 0.30078-1.6992 1-2.3008l17.398-17.398c0.60156-0.60156 1.5-1 2.3008-1h30.602c0.89844 0 1.6992 0.30078 2.3008 1l9.3984 9.3984c3.6016 3.6016 8.5 5.6992 13.699 5.6992h22.602l10.301-10.301c1.3008-1.3008 3.3984-1.3008 4.6992 0l8 8c7.5 7.5 19.801 7.5 27.301 0l28.797-28.797c0.60156-0.60156 1.5-1 2.3008-1h38.602c0.89844 0 1.6992 0.30078 2.3008 1l17.398 17.398c3.6016 3.6016 8.5 5.6992 13.699 5.6992h8c1.8008 0 3.3008 1.5 3.3008 3.3008l-0.003906 12.602z"/>
  <path d="m112 208h16v16h-16z"/>
  <path d="m248 120h16v16h-16z"/>
  <path d="m392 112h16v16h-16z"/>
  <path d="m440 160h16v16h-16z"/>
  <path d="m312 200h16v16h-16z"/>
 </g>
</svg>
