<?xml version="1.0" encoding="UTF-8"?>
<svg width="1200pt" height="1200pt" version="1.1" viewBox="0 0 1200 1200" xmlns="http://www.w3.org/2000/svg">
 <path d="m836.16 452.23h-159.97l5.4688-55.586h154.5c12.055-0.019531 23.469-5.4375 31.105-14.766 7.6367-9.332 10.691-21.59 8.3281-33.41-2.0156-9.2656-7.1836-17.543-14.621-23.422-7.4375-5.8789-16.684-8.9961-26.16-8.8164h-41.109c-6.8438 0.015626-13.16 3.6758-16.578 9.6055-3.4141 5.9297-3.4141 13.23 0 19.16 3.418 5.9297 9.7344 9.5898 16.578 9.6055h42.457c1.0117 0 1.832 0.82031 1.832 1.832 0 1.0117-0.82031 1.832-1.832 1.832h-150.73l6.0352-61.359h144.7c12.059-0.015625 23.473-5.4297 31.109-14.758 7.6406-9.332 10.691-21.594 8.3242-33.414-2.0156-9.2656-7.1797-17.543-14.617-23.422s-16.684-9-26.164-8.8203h-41.109c-6.8555 0-13.191 3.6562-16.621 9.5938-3.4258 5.9375-3.4258 13.25 0 19.188 3.4297 5.9375 9.7656 9.5977 16.621 9.5977h42.457c1.0078 0 1.8281 0.81641 1.8281 1.8281 0 1.0078-0.82031 1.8281-1.8281 1.8281h-144.23c-3.2266-23.594-14.914-45.211-32.887-60.828-17.973-15.617-41.012-24.172-64.82-24.07h-3.2812c-23.812-0.097656-46.848 8.457-64.824 24.074-17.973 15.617-29.664 37.23-32.895 60.824h-130.61c-11.039 0.011718-21.555 4.6992-28.945 12.902-7.3867 8.1992-10.957 19.148-9.8203 30.129 1.3477 9.7852 6.2344 18.742 13.734 25.176 7.5 6.4297 17.098 9.8945 26.977 9.7344h41.742c6.8438-0.019532 13.16-3.6797 16.574-9.6094 3.418-5.9297 3.418-13.23 0-19.156-3.4141-5.9297-9.7305-9.5938-16.574-9.6094l-43.688-1.1875h131.09l6.0352 61.359h-137.12c-11.039 0.011719-21.555 4.6992-28.945 12.902-7.3867 8.1992-10.957 19.148-9.8203 30.129 1.3477 9.7852 6.2344 18.742 13.734 25.176 7.5 6.4297 17.098 9.8945 26.977 9.7344h41.742c6.8555 0 13.191-3.6602 16.617-9.5977 3.4297-5.9375 3.4297-13.25 0-19.188-3.4258-5.9375-9.7617-9.5938-16.617-9.5938l-43.688-1.1875h140.9l5.4688 55.586-146.37 0.003906c-11.039 0.015626-21.555 4.7031-28.945 12.902-7.3867 8.2031-10.957 19.148-9.8203 30.129 1.3477 9.7891 6.2344 18.746 13.734 25.176 7.5 6.4336 17.098 9.8945 26.977 9.7344h41.742c6.8555 0 13.191-3.6562 16.617-9.5938 3.4297-5.9375 3.4297-13.254 0-19.191-3.4258-5.9375-9.7617-9.5938-16.617-9.5938l-43.688-1.1836h150.15l6.2031 63.027c0.46094 5.0898 2.8125 9.8203 6.5938 13.258 3.7773 3.4375 8.7109 5.3359 13.82 5.3125h24.129v136.48c0 8.6406-0.30469 17.449-0.92578 26.168l-9.7383 138.97c-1.1836 16.996 3.5625 33.875 13.43 47.766l6.9062 9.7227-16.227 27.426h-3.7344c-5.5312 0-10.641 2.9492-13.406 7.7383-2.7656 4.793-2.7656 10.691 0 15.484 2.7656 4.7891 7.875 7.7383 13.406 7.7383h2.6172l18.121 36.68h33.516l21.707-36.68h2.7656c5.5312 0 10.641-2.9492 13.406-7.7383 2.7656-4.793 2.7656-10.691 0-15.484-2.7656-4.7891-7.875-7.7383-13.406-7.7383h-3.4336l-14.773-29.895 5.1523-7.2539c9.8594-13.891 14.605-30.77 13.43-47.766l-9.7383-138.97c-0.62109-8.7188-0.92578-17.527-0.92578-26.168v-136.48h24.129c5.0977 0.027344 10.023-1.8555 13.805-5.2812 3.7773-3.4219 6.1367-8.1367 6.6094-13.215l6.207-63.098 163.75-0.003906c12.055-0.019531 23.469-5.4375 31.105-14.766s10.691-21.586 8.3281-33.41c-2.0156-9.2617-7.1836-17.539-14.621-23.418-7.4375-5.8789-16.684-8.9961-26.16-8.8203h-41.109c-6.8438 0.019532-13.16 3.6797-16.578 9.6094-3.4141 5.9258-3.4141 13.227 0 19.156 3.418 5.9297 9.7344 9.5898 16.578 9.6094h42.457c0.99609 0.015625 1.7969 0.83203 1.7969 1.8281 0 1-0.80078 1.8125-1.7969 1.832zm-235.52 562.15h-19.219l-11.379-23.031h44.227zm235.52-644.11c7.6367 0 13.832-6.1953 13.832-13.832 0-7.6406-6.1953-13.832-13.832-13.832h-42.457c-3.957-0.015625-7.1562-3.2305-7.1562-7.1875 0-3.957 3.1992-7.168 7.1562-7.1836h41.109c6.6914-0.17969 13.238 1.9648 18.527 6.0742 5.2852 4.1055 8.9844 9.918 10.465 16.449 1.6836 8.3008-0.44141 16.922-5.7969 23.488-5.3555 6.5664-13.375 10.383-21.848 10.398h-153.32l1.4141-14.375zm0-99.738c7.6367 0 13.828-6.1914 13.828-13.828 0-7.6406-6.1914-13.828-13.828-13.828h-42.457c-3.9727 0-7.1914-3.2188-7.1914-7.1914 0-3.9688 3.2188-7.1875 7.1914-7.1875h41.109c6.6914-0.17969 13.242 1.9648 18.527 6.0742s8.9844 9.9219 10.465 16.453c1.6836 8.3047-0.44531 16.922-5.8008 23.488-5.3555 6.5625-13.371 10.379-21.844 10.398h-143.51l0.23828-2.4258v-0.003906c0.32031-3.5742 0.4375-7.1641 0.34766-10.75-0.007813-0.41016 0.050781-0.78906 0.039063-1.1992zm-473.54 14.379c-6.957 0-12.598 5.6367-12.598 12.594 0 6.9531 5.6406 12.594 12.598 12.594h43.688c3.957 0.015625 7.1562 3.2305 7.1562 7.1875 0 3.957-3.1992 7.168-7.1562 7.1836h-41.742c-6.918 0.18359-13.66-2.168-18.961-6.6133-5.3008-4.4414-8.793-10.672-9.8203-17.516-0.79297-7.6016 1.6758-15.184 6.793-20.867 5.1133-5.6836 12.398-8.9336 20.043-8.9414h129.28c-0.011719 0.40234 0.042968 0.76953 0.039062 1.168v-0.003906c-0.089844 3.5977 0.023438 7.1953 0.34766 10.777l0.23828 2.4375zm0 99.738v-0.003906c-3.3477-0.007813-6.5586 1.3125-8.9297 3.6758s-3.7031 5.5703-3.7031 8.918c0 3.3477 1.332 6.5547 3.7031 8.918 2.3711 2.3633 5.582 3.6836 8.9297 3.6719h43.688c3.9688 0 7.1875 3.2227 7.1875 7.1914s-3.2188 7.1875-7.1875 7.1875h-41.742c-6.918 0.18359-13.66-2.168-18.961-6.6133-5.3008-4.4414-8.793-10.672-9.8203-17.516-0.78906-7.6016 1.6758-15.184 6.793-20.867 5.1133-5.6836 12.398-8.9336 20.043-8.9414h138.3l1.1953 12.109 0.22266 2.2695-139.72-0.003906zm0 93.969v-0.003906c-3.3477-0.011719-6.5586 1.3125-8.9297 3.6758-2.3711 2.3594-3.7031 5.5703-3.7031 8.9141 0 3.3477 1.332 6.5586 3.7031 8.918 2.3711 2.3633 5.582 3.6875 8.9297 3.6758h43.688c3.9688 0 7.1875 3.2188 7.1875 7.1875 0 3.9727-3.2188 7.1914-7.1875 7.1914h-41.742c-6.918 0.18359-13.66-2.168-18.961-6.6133-5.3008-4.4453-8.793-10.676-9.8203-17.516-0.79297-7.6055 1.6758-15.188 6.793-20.871 5.1133-5.6797 12.398-8.9297 20.043-8.9414h147.55l1.3477 13.684 0.066406 0.69531h-148.96zm269.33 499.09h-78.727c-1.9219 0-3.4805-1.5586-3.4805-3.4805s1.5586-3.4805 3.4805-3.4805h78.727c1.9219 0 3.4805 1.5586 3.4805 3.4805s-1.5586 3.4805-3.4805 3.4805zm-61.043-18.961 13.617-23.027h19.23l11.379 23.027zm39.703-223.04 9.7383 138.97c0.98438 14.219-2.9844 28.348-11.227 39.977l-6.4453 9.0703h-20.18l-6.4453-9.0703c-8.25-11.625-12.219-25.75-11.227-39.973l9.7383-138.97c0.63281-9 0.94922-18.086 0.94922-27.012v-136.48h34.148v136.48c0 8.9219 0.31641 18.012 0.94922 27.012zm43.641-183.13c-0.40625 4.3555-4.082 7.6797-8.4609 7.6445h-106.41c-4.3984 0.023437-8.0781-3.3359-8.4609-7.7148l-26.684-271.2c-0.26172-2.6133-0.38672-5.2383-0.38281-7.8672 0-2.6953 0.12891-5.4727 0.38281-8.3711 1.8828-21.691 11.832-41.887 27.887-56.598 16.059-14.707 37.047-22.855 58.82-22.832h3.2812c21.77-0.023438 42.758 8.1211 58.812 22.828 16.055 14.707 26.004 34.906 27.883 56.594v0.011719c0.51953 5.3984 0.52344 10.832 0.011719 16.23l-20.512 208.54-0.078125 0.78125zm181.91-116h-42.457c-3.957-0.015625-7.1562-3.2266-7.1562-7.1836 0-3.957 3.1992-7.1719 7.1562-7.1875h41.109c6.6914-0.17969 13.238 1.9688 18.527 6.0742 5.2852 4.1055 8.9844 9.9219 10.465 16.449 1.6836 8.3047-0.44141 16.926-5.7969 23.492-5.3555 6.5664-13.375 10.383-21.848 10.398h-162.57l1.4141-14.379h161.16c7.6367 0 13.832-6.1914 13.832-13.832 0-7.6367-6.1953-13.832-13.832-13.832zm-171.21-139.66h0.007813l1.6758-17.016v-0.003907c0.36328-4.1406 0.36719-8.3047 0.007812-12.449-0.09375-1.2227-0.10156-2.4297-0.25391-3.6641l-0.003906-0.015625-0.64062-5.2305h-0.42188c-2.4688-12.887-8.4102-24.855-17.18-34.613-13.801-15.211-33.379-23.895-53.918-23.906h-3.2812c-20.539 0.015625-40.117 8.6914-53.918 23.902-8.7695 9.7578-14.711 21.727-17.18 34.617h-0.41016l-0.65625 5.2578v-0.003906c-0.67969 5.3438-0.76172 10.746-0.24609 16.109l7.7109 78.375 3.7734 38.379h0.003907l5.4688 55.586 3.7734 38.379h0.003906l5.4336 55.223h95.766l5.4297-55.223h0.007812l3.7734-38.379h-0.003907l5.4688-55.586h0.007813l3.7734-38.379h-0.007812zm-134.48-18.191v-0.003907c-0.22656-2.5078-0.29687-5.0273-0.20703-7.5391 0.007813-0.21484 0.039063-0.42969 0.046875-0.64453h124.53c0.007813 0.23828 0.042969 0.48047 0.050782 0.71484 0.058593 2.2227 0 4.4453-0.18359 6.6602-0.023438 0.26953-0.007813 0.55078-0.035156 0.81641l-0.60938 6.1875h-122.98zm15.434-46.746v-0.003906c11.531-12.695 27.883-19.941 45.035-19.957h3.2812c17.152 0.015625 33.504 7.2617 45.035 19.965 6.7773 7.543 11.543 16.676 13.852 26.555h-121.05c2.3086-9.8789 7.0703-19.016 13.852-26.562zm-13.645 64.938h120.63l-6.0352 61.359h-108.55zm112 87.738h-103.37l-0.77344-7.8711-0.63672-6.5078h106.19zm-95.531 79.586h87.703l-0.26953 2.7461-1.1445 11.633h-84.879l-0.65625-6.6875zm80.859 69.602h-74.016l-4.2539-43.223h82.52zm8.0234-81.602h-90.07l-5.4688-55.586h101.01z" fill="#443e3c"/>
</svg>
