<?xml version="1.0" encoding="UTF-8"?>
<svg width="512pt" height="512pt" version="1.1" viewBox="0 0 512 512" xmlns="http://www.w3.org/2000/svg">
 <path d="m451.17 176.77c8.0469-7.3867 15.262-16.148 21.453-26.035 0.97266-1.5469 1.2344-3.4297 0.73047-5.1758-0.5-1.75-1.7188-3.2109-3.3633-4.0078-9.6055-4.6914-18.832-8.2852-27.961-10.953 3.6641-3.4062 7.1641-6.8984 10.285-10.559 1.2344-1.4492 1.7617-3.3633 1.4453-5.2422l-1.1836-6.9688 2.0156 0.79688c2.9062 1.1523 6.2773 0.027344 7.8906-2.6836 12.98-21.762 13.758-43.551 2.1289-59.781-1.2891-1.7969-3.7266-4.0586-8.0547-4.6328-4.25-0.56641-17.102-2.293-67.734 39.164-2.6797 2.1914-5.2852 4.3047-7.9258 6.4648 0.046875-0.29297 0.082031-0.50781 0.12891-0.80859 2.6367-17.57-2.5234-35.801-8.8281-42.609-1.6797-1.8125-4.2461-2.5-6.6016-1.7852-17.961 5.4688-32.625 12.129-44.816 20.363-1.2227 0.82422-2.1211 2.0391-2.5547 3.4453l-3.4336 11.258-0.21484-0.33984c-1.0586-1.6367-2.8008-2.707-4.7344-2.9062-2-0.21484-3.8594 0.49219-5.2383 1.875-4.4023 4.4609-8.1875 9.4805-11.668 14.73-8.9453-11.504-16.887-22.277-23.285-30.965-6.8672-9.3242-11.402-15.484-13.941-18.156-1.7031-1.793-4.2734-2.4688-6.6367-1.6953-2.3555 0.75781-4.0664 2.8008-4.3945 5.2461-1.8984 13.973-2.6562 27.27-2.3047 39.844-5.4727-3.6562-11.09-7.2969-17.102-10.973-1.7031-1.043-3.7734-1.2383-5.6328-0.52734-1.3203 0.50781-2.4258 1.4219-3.168 2.6016l-6.7344-10.43c-0.55859-0.87109-1.3203-1.5859-2.2188-2.0977-12.625-7.1875-27.305-15.078-44.871-24.125-1.5664-0.80469-3.3984-0.92188-5.0703-0.35156-1.6641 0.58984-3.0195 1.832-3.7383 3.4414-2.8828 6.4375-2.0938 20.07 1.9336 34.84-31.52-12.863-64.613-23-108.89-35.406-1.7031-0.46094-3.543-0.21875-5.0625 0.69922-1.5195 0.91406-2.5898 2.4258-2.9648 4.1602-1.8164 8.5508 1.8672 23.164 9.6211 38.141 1.1094 2.1523 3.2461 3.3945 5.7734 3.4727l7.7617-0.078124-2.8711 9.3945c-0.59766 1.9609-0.23047 4.0977 1.0039 5.7344 3.3398 4.4531 7 8.7617 10.887 12.805 4.2344 4.4023 8.8438 8.8789 13.691 13.297 1.2031 1.0938 2.9297 1.6836 4.3984 1.6797l16.285-0.16406-2.6367 8.6211c-0.77734 2.543 0.09375 5.3008 2.1875 6.9414 7.7461 6.0625 15.832 11.719 24.02 17.133-17.398 11.203-33.949 26.035-49.543 44.438-0.47656 0.57031-47.207 60.387-40.316 85.695 0.76172 2.8008 2.6172 4.9648 5.2266 6.1094 1.3555 0.59375 2.832 0.89453 4.5312 0.89453 7.2031 0 18.375-5.4375 41.059-17.289 0.82422-0.43359 1.5508-1.0391 2.1211-1.7773l10.27-13.359c0.52734 1.832 1.8398 3.3398 3.5859 4.1133 1.7617 0.78516 3.8086 0.72656 5.5352-0.16406 12.059-6.1992 22.477-11.367 32.797-16.246 3.7539-1.7773 7.582-3.5781 11.48-5.3867 0.9375-0.43359 1.7578-1.0898 2.3867-1.9102l8.1406-10.59c0.57422 1.6016 1.7578 2.9219 3.3086 3.6562 1.7109 0.79687 3.6719 0.82422 5.3945 0.046874 16.219-7.332 32.867-14.637 48.934-21.613 4.5781 7.7422 12.059 13.543 21.043 16.031-24.375 47.559-49.566 108.68-47.887 180.76-3.4219 2.5977-6.6445 5.4375-9.6094 8.5469-19.18-20.152-47.16-28.738-74.766-22.523-30.191 6.8008-53.246 29.941-60.164 60.379-0.17578 0.77344-0.15234 1.543-0.054687 2.2773-0.14453 0.53125-0.32812 1.043-0.32812 1.6172 0 3.5469 2.8789 6.4258 6.4258 6.4258h150.46l60.918 0.003906c0.011719 0 0.019531-0.003906 0.03125-0.003906h160.71c3.5469 0 6.4258-2.8789 6.4258-6.4258 0-0.36328-0.14844-0.67578-0.20312-1.0234 0.21875-0.92188 0.28516-1.8906 0.066406-2.8789-6.918-30.438-29.973-53.574-60.156-60.379-27.621-6.2109-55.594 2.3711-74.773 22.512-11.062-11.605-25.293-19.527-40.883-22.836-7.4961-50.895 0.50781-91.652 21.992-149.17 5.2344 2.832 11.121 4.4102 17.176 4.4102 16.066 0 29.512-10.535 33.895-24.859 2.2422-0.019531 4.4023-1.1562 5.5664-3.2109l6.0859 11.77c0.47656 0.92578 1.1836 1.7188 2.0312 2.3203 3.5117 2.4414 6.9648 4.8633 10.344 7.2461 9.125 6.457 18.457 13.312 29.375 21.574 1.543 1.168 3.5312 1.582 5.4023 1.1211 1.8672-0.45703 3.4336-1.7266 4.2656-3.457l7.6953 14.875c0.43359 0.83594 1.043 1.5664 1.793 2.1406 22.328 17.156 32.203 24.203 39.445 24.203 0.85156 0 1.6641-0.097657 2.4688-0.28516 2.7695-0.66406 4.9805-2.4727 6.2305-5.0938 11.336-23.734-23.93-90.605-24.305-91.25-3.6055-6.2148-7.4258-12.051-11.32-17.695 3.8867-1.6484 7.7266-3.4766 11.465-5.5742 1.5469-0.86719 2.668-2.3359 3.0938-4.0547 0.42578-1.7188 0.11719-3.543-0.83594-5.0312l-2.5234-3.9062 16.43-0.16797c1.5625-0.011719 3.082-0.61719 4.2578-1.6914zm-54.203-86.133c42.781-35.02 55.289-36.535 57.602-36.398 7.4297 10.875 7.2188 25.031-0.5 40.352l-7.3672-2.918c-2.1641-0.85156-4.6094-0.47656-6.4102 0.97656-1.8086 1.4609-2.6836 3.7773-2.293 6.0664l2.5742 15.211c-6.6133 7.3438-14.531 14.133-23.613 20.262l-6.3086-7.0039c-1.543-1.7031-3.875-2.4688-6.1289-1.9805-2.2461 0.48047-4.0664 2.1367-4.7656 4.3281l-5.5742 17.43c-28.414 13.164-56.367 18.582-87.805 16.977 7.3711-6.0156 17.016-13.773 27.895-22.523 17.926-14.434 39.84-32.066 62.695-50.777zm-121.52 107.88c0-11.832 9.8086-21.449 21.992-21.812 0.050782 0 0.10938 0 0.16016-0.003906 0.30078-0.011719 0.57813-0.019531 0.875-0.03125 12.348 0.17969 22.344 9.8906 22.344 21.848 0 12.062-10.18 21.883-22.688 21.883-12.508 0-22.684-9.8203-22.684-21.883zm-42.898-22.766 1.6523-5.4062c0.59766-1.9609 0.22656-4.0898-1.0039-5.7305-1.2344-1.6367-3.3555-2.457-5.2188-2.5742l-19.078 0.19922c-14.801-13.512-28.098-30.547-38.949-49.844 2.3867 0.3125 4.9727 0.63672 7.7305 0.98437 33.27 4.1641 102.19 12.809 116.09 44.254-4.1523 3.4141-7.3281 6.082-9.2383 7.7969-0.52734 0.47656-0.9375 1.0391-1.2734 1.6445-3.5391 1.6016-6.7617 3.7383-9.5547 6.332-5.4766-3.5273-11.902-5.3086-19.176-5.3086-8.332-0.007812-15.91 2.9336-21.98 7.6523zm75.777-85.031 3.1602 4.8984c1.3633 2.0977 3.7734 3.2344 6.293 2.8828 2.4727-0.34375 4.5273-2.0938 5.2578-4.4844l6.8047-22.273c9.6836-6.25 21.145-11.52 34.863-16.02 2.5547 5.5078 5.4336 16.492 3.5742 28.891-1.0234 6.7734-1.4023 9.3086-4.1992 15.891-0.054687 0.12891-0.035156 0.26563-0.082031 0.39453-13.633 11.051-26.543 21.449-37.781 30.496-0.41406 0.33203-0.79297 0.64062-1.2031 0.96875-4.0586-6.6289-9.5195-14.137-16.461-22.492-2.4727-2.9766-4.8828-5.9453-7.2539-8.8945 2.1367-3.6133 4.418-7.0586 7.0273-10.258zm-52.57-28.457c1.1211 1.5117 2.3008 3.1133 3.5312 4.7891 10.023 13.609 23.75 32.25 39.367 51.043 7.0742 8.5156 12.484 16.012 16.25 22.406-3.9688 3.1992-7.6602 6.1758-10.992 8.8789-8.1523-15.016-24.953-25.273-44.605-32.383-3.7656-16.078-5-34.707-3.5508-54.734zm-55.969 11.371 13.219 20.469c1.3516 2.0977 3.8398 3.2422 6.2812 2.8828 2.4844-0.34375 4.5352-2.0938 5.2695-4.4844l1.0547-3.457c6.2734 3.9688 12.176 7.9219 17.926 11.949 0.44531 3.9219 0.97656 7.7812 1.6641 11.523-23.082-6.4727-47.75-9.625-65.543-11.848-0.015625-0.027344-0.015625-0.0625-0.03125-0.085937-10.543-16.895-14.273-35.504-14.688-45.809 13.238 6.9102 24.715 13.113 34.848 18.859zm-83.426 65.266 3.9062-12.773c0.59766-1.9609 0.23047-4.0859-1-5.7305-1.2305-1.6445-3.0508-2.5977-5.2188-2.5742l-22.523 0.23047c-3.9609-3.6758-7.7344-7.3711-11.234-11.008-2.7695-2.8828-5.418-5.9141-7.8945-9.043l4.4688-14.621c0.59766-1.9609 0.23047-4.0859-1-5.7305-1.2305-1.6367-3.332-2.5039-5.2188-2.5742l-12.504 0.12891c-3.6289-7.6602-5.5664-14.117-6.3984-18.84 44.523 12.594 77.477 23.035 109.7 37.004 0.74609 1.7344 1.5312 3.4609 2.3594 5.1602-1.5703-0.26172-2.9648-0.51562-3.9922-0.77344-2.4258-0.60547-4.9805 0.26172-6.5469 2.207-1.5664 1.9453-1.8633 4.625-0.76172 6.8672 6.3828 12.984 13.82 25.184 22.078 36.305-11.359 3.0508-22.465 7.3516-33.254 13.113-8.5-5.4141-16.887-11.199-24.961-17.348zm60.176 87.965-1.2812-4.75c-0.64062-2.3555-2.5586-4.1523-4.957-4.6289-2.4102-0.47656-4.8594 0.44922-6.3477 2.3867l-15.078 19.613c-3.4336 1.5977-6.8164 3.1836-10.137 4.7617-8.3711 3.9609-16.809 8.1055-26.098 12.82l-1.2891-4.7812c-0.64062-2.3594-2.5547-4.1523-4.957-4.6328-2.4023-0.46484-4.8594 0.44922-6.3477 2.3867l-17.324 22.531c-11.145 5.8203-25.246 13.133-31.52 14.816 0.14844-16.094 26.188-57.184 38.043-71.18 28.492-33.637 60.172-54.43 94.152-62.059 5.9609 7.0078 12.238 13.527 18.816 19.355 1.1875 1.0586 2.7695 1.6016 4.3281 1.6133l12.801-0.13281-1.6094 5.2539c-0.82812 2.7227 0.22656 5.6641 2.6016 7.2344 0.62109 0.41016 1.2344 0.75391 1.8477 1.1523-2.0078 4.3477-3.1797 9.1289-3.1797 14.199 0 1.75 0.26953 3.4297 0.52734 5.1133-14.09 6.1172-28.641 12.488-42.992 18.926zm55.32-24.043c0-12.062 10.18-21.879 22.688-21.879 4.4492 0 8.2266 0.99219 11.496 2.9023-2.1523 4.4688-3.4414 9.4062-3.4414 14.664 0 1.4688 0.26172 2.8672 0.44531 4.2852-0.38281 0.39844-0.79297 0.76953-1.0703 1.2812-3.4883 6.3945-7.1797 13.203-10.93 20.285-10.848-1.6367-19.188-10.633-19.188-21.539zm-116.38 212.6c25.258-5.6875 50.895 3.4141 66.887 23.75 2.4375 3.0938 7.6641 3.0938 10.105 0 1.6641-2.1211 3.4922-4.0977 5.3867-5.9922 0.72266 9.0195 1.9102 18.211 3.5547 27.551l-134.78 0.003906c7.168-23.137 24.992-39.941 48.844-45.312zm181.48 23.746c1.2188 1.5469 3.0781 2.4531 5.0547 2.4531s3.8359-0.90625 5.0547-2.4531c16-20.336 41.605-29.457 66.898-23.746 23.848 5.3711 41.668 22.168 48.836 45.312h-148.07c-4.793-15.914-8.5859-30.602-11.25-44.336 13.113 3.8828 24.82 11.762 33.48 22.77zm-35.703 21.566h-46.961c-18.719-101.6 23.449-185.05 54.621-242.52 2.7227 3.8516 6.2461 7.0859 10.297 9.5938-36.836 92.484-44.863 141.75-17.957 232.93zm39.035-215.79c-4.5 0-8.8359-1.3516-12.543-3.7383 1.1055-2.8359 2.2422-5.7227 3.4062-8.6484 2.2578 0.44141 4.5859 0.69141 6.9805 0.69141 9.6602 0 18.406-3.8086 24.816-9.9414-0.13672 11.949-10.238 21.637-22.66 21.637zm119.17-23.602c9.1602 15.816 27.441 60.793 24.637 76.602-5.8438-2.6875-18.441-12.305-28.387-19.941l-12.996-25.113c-1.125-2.1641-3.3789-3.4961-5.8203-3.4727-2.4414 0.039062-4.6484 1.4648-5.6953 3.6719l-2.1641 4.5625c-8.4062-6.3008-15.969-11.816-23.402-17.074-2.9805-2.1094-6.0195-4.2383-9.1094-6.3906l-11.309-21.855c-1.125-2.1719-3.3555-3.6211-5.8203-3.4727-2.2891 0.035156-4.3281 1.3203-5.4414 3.293-0.49219-1.4492-1.082-2.8633-1.7656-4.2461 0.87109-3.0039 1.4844-6.1133 1.4844-9.3906 0-0.078125-0.027343-0.14844-0.027343-0.23047 13.344 5.2773 27.375 7.9727 41.43 7.9727 10.641 0 21.27-1.5664 31.609-4.582 4.4141 6.1797 8.7227 12.688 12.777 19.668zm-0.80078-55.441c-2.3398 0.019531-4.4844 1.3203-5.5977 3.3789-1.1055 2.0625-1.0078 4.5664 0.26172 6.5273l5.0117 7.7617c-2.6562 1.2656-5.3828 2.2734-8.1094 3.2969-1.9102-0.58984-4.0312-0.39844-5.7461 0.90234-0.52344 0.39453-0.88672 0.90625-1.25 1.4062-24.465 7.1797-50.773 4.9219-73.926-6.9727-1.0508-1.9102-2.2578-3.6953-3.6445-5.3711 26.641-1.1172 51.43-7.4258 76.555-19.457 1.5977-0.76953 2.8125-2.1562 3.3477-3.8398l3.0195-9.4297 2.4883 2.7656c2.0938 2.3242 5.5352 2.8047 8.1836 1.1523 3.7109-2.3203 7.2227-4.7734 10.617-7.2891 9.1016 2.0234 18.258 5.0547 27.785 9.2617-4.0977 5.75-8.5859 10.988-13.418 15.648z" fill="#443f3c"/>
</svg>
