<?xml version="1.0" encoding="UTF-8"?>
<svg width="512pt" height="512pt" version="1.1" viewBox="0 0 512 512" xmlns="http://www.w3.org/2000/svg">
 <path d="m256 242.38c-23.762 0-43.086 19.324-43.086 43.078 0 23.762 19.324 43.086 43.086 43.086s43.086-19.324 43.086-43.086c0-23.754-19.324-43.078-43.086-43.078zm0 76.027c-18.164 0-32.953-14.793-32.953-32.961 0-18.164 14.785-32.941 32.953-32.941 18.164 0 32.953 14.777 32.953 32.941 0 18.188-14.789 32.961-32.953 32.961zm0-46.984c-7.7422 0-14.051 6.2969-14.051 14.039 0 7.75 6.3086 14.051 14.051 14.051s14.051-6.2969 14.051-14.051c0-7.7422-6.3086-14.039-14.051-14.039zm0 17.949c-2.1562 0-3.9102-1.7617-3.9102-3.9102 0-2.1562 1.7578-3.9102 3.9102-3.9102 2.1562 0 3.9102 1.7578 3.9102 3.9102 0 2.1484-1.7539 3.9102-3.9102 3.9102zm121.18 2.9922c-2.4727 1.1211-10.574 5.3086-10.574 12.23v30.402h25.328l0.003906-30.406c0.011719-6.9336-8.1016-11.121-10.59-12.23-1.3281-0.60156-2.8555-0.60156-4.168 0.003906zm4.625 32.492h-5.0898l-0.0625-19.828c0.25-0.53125 1.3516-1.4531 2.6367-2.2734 1.2148 0.74609 2.293 1.5508 2.5156 1.8281zm-31.105-32.492c-1.3242-0.59766-2.8477-0.59766-4.1641 0-2.4727 1.1211-10.582 5.3086-10.582 12.23v30.402h25.332l0.003907-30.406c-0.003907-6.9297-8.1055-11.121-10.59-12.227zm0.45703 32.492h-5.0781l-0.066406-19.828c0.25781-0.53125 1.3398-1.4531 2.6367-2.2734 1.207 0.74609 2.3008 1.5508 2.5078 1.8281zm19.086 144.04h-12.664c-2.8047 0-5.0703 2.2578-5.0703 5.0703v35.48h22.809v-35.48c0.011719-2.8125-2.2617-5.0703-5.0742-5.0703zm-5.0625 30.41h-2.5273v-20.27h2.5273zm-210.77-30.41h-12.672c-2.8008 0-5.0703 2.2578-5.0703 5.0703v35.48h22.809v-35.48c0.003906-2.8125-2.2656-5.0703-5.0664-5.0703zm-5.0664 30.41h-2.5273v-20.27h2.5273zm98.527-30.41h-12.672c-2.8008 0-5.0703 2.2578-5.0703 5.0703v35.48h22.809v-35.48c0.003907-2.8125-2.2617-5.0703-5.0664-5.0703zm-5.0625 30.41h-2.5352v-20.27h2.5352zm32.941-30.41h-12.684c-2.8047 0-5.0703 2.2578-5.0703 5.0703v35.48h22.82v-35.48c0.007812-2.8125-2.2656-5.0703-5.0664-5.0703zm-5.0703 30.41h-2.5352v-20.27h2.5352zm-135.88-206.94c-1.3242-0.59766-2.8477-0.59766-4.1641 0-2.4844 1.1094-10.59 5.3008-10.59 12.23v30.402h25.34l0.003907-30.406c-0.003907-6.918-8.1055-11.113-10.59-12.227zm0.46094 32.492h-5.0938l-0.054687-19.836c0.24609-0.53125 1.3398-1.4531 2.625-2.2695 1.2188 0.74609 2.3047 1.5508 2.5234 1.8281zm26.027-32.492c-2.4766 1.1094-10.59 5.3008-10.59 12.23v30.402h25.344v-30.406c0-6.9219-8.1055-11.109-10.59-12.23-1.3281-0.60156-2.8438-0.60156-4.1641 0.003906zm4.6211 32.492h-5.0898l-0.058594-19.836c0.25-0.53125 1.3398-1.4531 2.625-2.2695 1.2188 0.74609 2.3047 1.5508 2.5234 1.8281zm278.9-19.438h-3.8047v-70.965c6.6133 0 6.6133-10.137 0-10.137v-57.02c6.6133 0 6.6133-10.137 0-10.137h-14.781v-90.391c6.7109 0 6.7109-10.137 0-10.137h-1.2852l-1.6758-6.5898v-17.488c6.7617 0 6.7617-10.137 0-10.137h-1.4648l-1.9062-5.5039 0.003906-14.355h-111.96v14.352l-1.9102 5.5039h-1.4609c-6.7109 0-6.7109 10.137 0 10.137v17.496l-1.7812 6.5859h-1.1758c-6.7617 0-6.7617 10.137 0 10.137l-0.003906 105.18h-40.539v-36.449h3.9102c6.6523 0 6.6523-10.137 0-10.137h-3.9102v-7.3867c0-6.6719-10.137-6.6719-10.137 0v7.3867h-2.8711c-6.7383 0-6.7383 10.137 0 10.137h2.8711v36.449h-40.535l-0.003907-105.18c6.6445 0 6.6445-10.137 0-10.137h-1.2852l-1.668-6.5859v-17.492c6.8086 0 6.8086-10.137 0-10.137h-1.4688l-1.9102-5.5039v-14.355h-111.96v14.352l-1.9102 5.5039h-1.4648c-6.6562 0-6.6562 10.137 0 10.137v17.496l-1.7734 6.5859h-1.1914c-6.7031 0-6.7031 10.137 0 10.137v90.387h-14.777c-6.7578 0-6.7578 10.137 0 10.137v57.027c-6.6445 0-6.6445 10.137 0 10.137v70.957h-3.8047c-6.9023 0-6.9023 10.133 0 10.133v193.89h63.156v-48.887c0-19.285 12.242-30.859 17.742-35.086 5.5156 4.2344 17.742 15.84 17.742 35.086l-0.003907 48.887h62.367v-37.738c-1.5508-39.762 21.871-51.027 27.816-53.227 5.9688 2.2383 29.352 13.531 27.809 53.441v37.531h62.391v-48.887c0-19.246 12.227-30.832 17.742-35.086 5.5078 4.2227 17.742 15.812 17.742 35.086v48.879h63.137v-193.88c6.7031 0 6.6992-10.145-0.007813-10.145zm-359.05 32.527c-5.0742 0-7.1367 6.832-2.4219 9.4375v26.332c-4.2461 2.375-3.1914 9.4375 2.4219 9.4375v116.15h-8.4414v-183.74h8.4414zm0-32.527h-4.6445v-70.965h4.6445zm0-81.094h-4.6445v-57.027h4.6445zm321.45 5.0664h8.8789v108.55h-8.8789zm-0.011719-10.141v-57.023h8.8789v57.02zm-89.129-200.63v-5.9219h91.668v5.9258l1.3242 3.793-94.316-0.003907zm-3.5469 33.41 0.13672-19.477h98.457v18.16l2.9609 11.652v89.723h-4.4375v-90.395c0-2.7969-2.2695-5.0703-5.0703-5.0703-2.8125 0-5.0703 2.2695-5.0703 5.0703v90.395h-4.4375v5.0703h-5.1211v-91.238c0-6.9258-8.1094-11.105-10.59-12.227-1.3398-0.59766-2.8516-0.59766-4.1641 0-2.4766 1.1211-10.578 5.3164-10.578 12.227v91.238h-5.3086v-91.238c0-6.9258-8.1094-11.105-10.582-12.227-1.3359-0.59766-2.8555-0.59766-4.1641 0-2.4727 1.1211-10.578 5.3164-10.578 12.227v91.238h-5.1914v-5.0703h-5.0625l0.003906-90.395c0-2.7969-2.2617-5.0703-5.0703-5.0703-2.8008 0-5.0547 2.2695-5.0547 5.0703v90.395h-3.8203l0.003907-89.723h-0.039063zm50.562 200.38c-0.83984-0.20312-1.6914-0.17969-2.4727 0.03125-1.5156 0.39453-19.918 5.5469-31.848 23.574v-41.555h66.301v41.594c-12.371-18.672-31.707-23.578-31.98-23.645zm31.977 60.176v25.363h-66.297v-25.363c0-37.195 26.98-47.98 33.172-49.965 6.1797 1.9375 33.125 12.527 33.125 49.965zm-66.297-88.258v-57.027h66.301v57.027zm15.242-157.96c0.25781-0.53906 1.3398-1.4609 2.6367-2.2852 1.207 0.74609 2.3008 1.5547 2.5078 1.8398v91.238h-5.0703zm30.652 0c0.25-0.53906 1.3398-1.4609 2.6328-2.2852 1.207 0.74609 2.3008 1.5547 2.5078 1.8398v91.238h-5.0703zm-64.926 95.859h8.8828v57.02h-8.8828zm0 67.164h8.8828v108.55h-8.8828zm-10.137-47.309v42.238l-33.637-42.238zm-45.418 4.1211 30.355 38.113-60.715 0.003906zm-45.785-4.1211h33.637l-33.637 42.238zm-0.007813 52.371h91.211v103.48l-91.211 0.003906zm-19.02-15.203v-57.023h8.8828v57.02zm8.8828 10.141v108.55h-8.8828v-108.55zm-98.012-210.77v-5.9219h91.672v5.9258l1.3242 3.793-94.316-0.003907zm-3.5586 33.41 0.14453-19.477h98.457v18.16l2.9609 11.652v89.723h-3.8125l-0.003906-90.395c0-6.7188-10.133-6.7227-10.133 0v90.395h-5.0703v5.0703h-5.1875v-91.238c0-6.9062-8.1055-11.102-10.582-12.227-1.332-0.59766-2.8477-0.59766-4.168 0-2.4766 1.1211-10.59 5.3047-10.59 12.227v91.238h-5.3086v-91.238c0-6.9062-8.1016-11.102-10.582-12.227-1.3242-0.59766-2.8477-0.59766-4.1641 0-2.4844 1.1211-10.59 5.3047-10.59 12.227v91.238h-5.125v-5.0703h-5.0703l0.007813-90.395c0-6.7188-10.133-6.7227-10.133 0v90.395h-3.8203v-89.723h-0.015625zm50.719 200.41c-0.78906-0.21484-1.6484-0.23438-2.4922-0.03125-0.29297 0.066406-19.609 4.9727-31.984 23.645v-41.594h66.309v41.559c-11.906-17.977-30.223-23.156-31.832-23.578zm31.828 60.141v25.363h-66.305v-25.363c0-37.457 26.98-48.047 33.137-49.965 6.1836 1.9844 33.168 12.773 33.168 49.965zm0-145.29v57.027h-66.305v-57.027zm-51.113-100.94c0.24609-0.53906 1.3398-1.4609 2.625-2.2773 1.2188 0.75391 2.3047 1.5547 2.5234 1.8398v91.238h-5.0781zm30.641 0c0.24609-0.53906 1.3477-1.4609 2.6211-2.2773 1.2305 0.75391 2.3125 1.5547 2.5234 1.8398v91.238h-5.0703zm-64.859 95.867h8.8828v57.02h-8.8828zm0 67.164h8.8828v108.55h-8.8828zm8.8906 269.91h-8.8828l-0.003906-116.16h8.8828zm76.445 0h-5.2773v-38.734c0-29.973-24.211-44.973-25.246-45.598-1.6016-0.96094-3.6133-0.97266-5.2227-0.019531-1.0352 0.61328-25.293 15.395-25.293 45.621v38.734h-5.2695v-40.918c0-36.867 25.98-51.473 33.152-54.789 7.1992 3.3477 33.164 18.012 33.164 54.789zm-66.309-78.637v-37.52h66.305v37.359c-11.91-19.461-30.203-26.738-31.344-27.172-1.1406-0.42969-2.418-0.44531-3.5703-0.015625-0.28125 0.10547-19.191 7.4297-31.391 27.348zm85.328 78.637h-8.8828v-116.16h8.8828zm101.34 0h-7.6758v-27.203c2.0547-52.926-36.23-63.754-36.625-63.863-0.85547-0.23047-1.7578-0.23047-2.6094 0-0.39062 0.10938-38.711 10.938-36.633 63.668v27.406h-7.6641v-37.898c-0.71094-48.648 38.441-61.219 45.605-63.09 7.3477 1.9219 48.133 14.926 45.605 66.453zm0.007813-78.715c-15.742-25.98-44.148-32.375-44.559-32.473-0.69531-0.13672-1.3945-0.13672-2.0938 0-0.41016 0.10156-28.809 6.4922-44.559 32.379v-37.367h91.211zm19.02 78.715h-8.8828v-116.16h8.8828zm76.469 0h-5.2891v-38.734c0-30.223-24.25-45.004-25.281-45.621-1.6016-0.95703-3.6133-0.94531-5.2266 0.019532-1.0273 0.625-25.246 15.625-25.246 45.598v38.734h-5.2734v-40.918c0-36.762 25.918-51.41 33.148-54.777 7.0742 3.3398 33.172 18.191 33.172 54.777zm-66.32-78.801v-37.367l66.301 0.003907v37.516c-12.199-19.918-31.109-27.234-31.391-27.348-1.1641-0.42969-2.4336-0.41797-3.5703 0.019531-1.1367 0.44531-19.434 7.7148-31.34 27.176zm85.328 78.801h-8.8789v-116.16h8.8789zm2.418-126.29h-325.04v-24.918h325.04zm7.7109-205.71h4.6406v57.027h-4.6406zm0 67.156h4.6406v70.965h-4.6406zm8.4375 264.85h-8.4375v-116.16c5.6875 0 6.4727-7.1992 2.4219-9.4297v-26.332c4.543-2.5273 2.9453-9.4414-2.4219-9.4414v-22.391h8.4375z" fill="#443f3c"/>
</svg>
