<?xml version="1.0" encoding="UTF-8"?>
<svg width="512pt" height="512pt" version="1.1" viewBox="0 0 512 512" xmlns="http://www.w3.org/2000/svg">
 <g fill="#443f3c">
  <path d="m511.59 501.47-16-48c-1.0898-3.2656-4.1445-5.4688-7.5859-5.4727h-2.2383l-14.176-42.527c-1.0898-3.2656-4.1445-5.4688-7.5859-5.4727h-10.238l-14.176-42.527c-1.0898-3.2656-4.1445-5.4688-7.5859-5.4727h-10.238l-14.176-42.527c-1.0898-3.2656-4.1445-5.4688-7.5859-5.4727h-10.238l-14.176-42.527c-1.0898-3.2656-4.1445-5.4688-7.5859-5.4727h-10.238l-14.176-42.527c-1.0898-3.2656-4.1445-5.4688-7.5859-5.4727h-16v-64h8c2.1211 0 4.1562-0.84375 5.6562-2.3438s2.3438-3.5352 2.3438-5.6562v-32c0-2.1211-0.84375-4.1562-2.3438-5.6562s-3.5352-2.3438-5.6562-2.3438h-144c-4.418 0-8 3.582-8 8v32c0 2.1211 0.84375 4.1562 2.3438 5.6562s3.5352 2.3438 5.6562 2.3438h8v64h-16c-3.4414 0.003906-6.4961 2.207-7.5859 5.4727l-14.176 42.527h-10.238c-3.4414 0.003906-6.4961 2.207-7.5859 5.4727l-14.176 42.527h-10.238c-3.4414 0.003906-6.4961 2.207-7.5859 5.4727l-14.176 42.527h-10.238c-3.4414 0.003906-6.4961 2.207-7.5859 5.4727l-14.176 42.527h-10.238c-3.4414 0.003906-6.4961 2.207-7.5859 5.4727l-14.176 42.527h-2.2383c-3.4414 0.003906-6.4961 2.207-7.5859 5.4727l-16 48c-0.80859 2.4375-0.40234 5.1172 1.1016 7.2031 1.5 2.0859 3.9141 3.3242 6.4844 3.3242h496c2.5703 0 4.9844-1.2383 6.4844-3.3242 1.5039-2.0859 1.9102-4.7656 1.1016-7.2031zm-42.684-53.473h-142.12l-5.3359-32h136.8zm-196.9-240h-32v-16c0-5.7148 3.0508-11 8-13.855 4.9492-2.8594 11.051-2.8594 16 0 4.9492 2.8555 8 8.1406 8 13.855zm164.9 192h-118.12l-5.3359-32h112.8zm-32-48h-94.125l-5.3359-32h88.801zm-32-48h-70.125l-5.3359-32h64.801zm-32-48h-46.125l-5.3359-32h40.801zm-148.9-144h128v16h-128zm16 32h96v64h-16v-16c0-11.434-6.0977-21.996-16-27.711-9.9023-5.7188-22.098-5.7188-32 0-9.9023 5.7148-16 16.277-16 27.711v16h-16zm-26.23 80h40.801l-5.3359 32h-46.137zm-32 48h64.801l-5.3359 32h-70.137zm-32 48h88.801l-5.3359 32h-94.137zm-32 48h112.8l-5.3359 32h-118.14zm-32 48h136.8l-5.3359 32h-142.14zm-24 48h152.8l-5.3359 32h-158.13zm163.68 32 45.328-272h34.449l45.328 272zm141.33 0-5.3359-32h152.8l10.664 32z"/>
  <path d="m248 272h16c4.418 0 8-3.582 8-8s-3.582-8-8-8h-16c-4.418 0-8 3.582-8 8s3.582 8 8 8z"/>
  <path d="m240 304c-4.418 0-8 3.582-8 8s3.582 8 8 8h32c4.418 0 8-3.582 8-8s-3.582-8-8-8z"/>
  <path d="m232 352c-4.418 0-8 3.582-8 8s3.582 8 8 8h48c4.418 0 8-3.582 8-8s-3.582-8-8-8z"/>
  <path d="m224 400c-4.418 0-8 3.582-8 8s3.582 8 8 8h64c4.418 0 8-3.582 8-8s-3.582-8-8-8z"/>
  <path d="m216 448c-4.418 0-8 3.582-8 8s3.582 8 8 8h80c4.418 0 8-3.582 8-8s-3.582-8-8-8z"/>
 </g>
</svg>
