<?xml version="1.0" encoding="UTF-8"?>
<svg width="512pt" height="512pt" version="1.1" viewBox="0 0 512 512" xmlns="http://www.w3.org/2000/svg">
 <path d="m109.3 139.88 27.496 5.7344c0.17578 0.035156 0.34766 0.054687 0.52344 0.054687 0.90234 0 1.75-0.47656 2.2188-1.2734l7.625-13.148 13.145 7.625c1.2188 0.71094 2.7891 0.28516 3.5039-0.93359l7.625-13.148 13.055 7.5508c-3.1016 2.7891-6.1953 5.6641-9.2422 8.6875-30.043 29.902-53.09 68.906-39.641 82.418 0.48828 0.49219 1.1484 0.75391 1.8125 0.75391 0.26562 0 0.53906-0.039062 0.80469-0.12891l29.645-9.7773c1.0508-0.34375 1.7578-1.3242 1.7578-2.4336v-17.191l17.199 0.039063h0.003906c1.4062 0 2.5586-1.1406 2.5586-2.5547l0.039063-17.152 10.297 0.03125c-11.918 34.586-16.445 74.453-1.5703 82.93 0.39453 0.22656 0.83594 0.33203 1.2695 0.33203 0.60938 0 1.2148-0.21484 1.6914-0.64062l20.273-17.816c0.78906-0.69531 1.0742-1.8008 0.71875-2.7891l-5.8359-16.121 13.359-4.8125c0.64063-0.23047 1.1641-0.70703 1.4492-1.3164 0.28516-0.61328 0.32422-1.3203 0.09375-1.9609l-5.8359-16.18 8.9102-3.2109-0.015625 164.96c0 60.949-9.8555 99.84-16.641 99.84-1.4141 0-2.5586 1.1484-2.5586 2.5586 0 1.4141 1.1484 2.5586 2.5586 2.5586h76.801c1.4141 0 2.5586-1.1484 2.5586-2.5586 0-1.4141-1.1484-2.5586-2.5586-2.5586-6.7852 0-16.641-38.891-16.641-99.84v-164.91l8.8047 3.1758-5.8359 16.18c-0.23047 0.64062-0.19922 1.3477 0.09375 1.9609 0.29297 0.61328 0.80859 1.0859 1.4492 1.3164l13.359 4.8125-5.832 16.121c-0.35938 0.98828-0.070313 2.0977 0.71875 2.7891l20.273 17.816c0.47656 0.41797 1.082 0.64062 1.6914 0.64062 0.43359 0 0.87109-0.10938 1.2695-0.33203 14.883-8.4805 10.344-48.383-1.5703-82.93l10.297-0.03125 0.039063 17.152c0 1.4062 1.1523 2.5547 2.5586 2.5547h0.003907l17.199-0.039063v17.191c0 1.1055 0.71094 2.082 1.7578 2.4336l29.645 9.7773c0.26172 0.085937 0.53125 0.12891 0.80469 0.12891 0.67188 0 1.3242-0.26172 1.8125-0.75391 13.445-13.512-9.5938-52.516-39.641-82.418-3.0469-3.0273-6.1328-5.8984-9.2422-8.6875l13.055-7.5508 7.625 13.148c0.71094 1.2188 2.2734 1.6484 3.5039 0.93359l13.145-7.625 7.625 13.148c0.46484 0.79688 1.3164 1.2734 2.2188 1.2734 0.17578 0 0.34766-0.015625 0.52344-0.054687l27.496-5.7344c0.95313-0.19922 1.7109-0.91797 1.957-1.8594 4.3711-16.789-31.23-36.898-68.172-46.637-4.3984-1.1719-8.7656-2.1523-13.078-3.0156l4.8281-8.5234 11.699 6.668c1.2305 0.69531 2.7852 0.26562 3.4883-0.95312l6.6602-11.605 11.66 6.668c0.94531 0.54297 2.1445 0.41797 2.9688-0.3125l18.84-16.742c0.72656-0.64453 1.0234-1.6445 0.76953-2.582-2.1562-7.9453-13.301-12.324-31.391-12.324-12.82 0-27.715 2.1875-43.07 6.3242-23.152 6.25-43.305 16.051-53.812 25.957-10.508-9.9062-30.652-19.707-53.812-25.957-15.355-4.1367-30.25-6.3242-43.07-6.3242-18.09 0-29.234 4.3789-31.391 12.324-0.25781 0.9375 0.039063 1.9336 0.76953 2.582l18.84 16.742c0.82422 0.73047 2.0234 0.85938 2.9688 0.3125l11.66-6.668 6.6602 11.605c0.70312 1.2188 2.2617 1.6445 3.4883 0.95312l11.699-6.668 4.8281 8.5234c-4.3047 0.86719-8.6719 1.8438-13.07 3.0156-36.949 9.7422-72.555 29.855-68.18 46.637 0.25 0.92969 1.0078 1.6523 1.9609 1.8477zm77.586 30.008h-0.003907c-0.67578 0-1.3242 0.26563-1.8086 0.74609-0.48438 0.47656-0.75391 1.125-0.75391 1.8086l-0.039062 17.152-17.203-0.039063h-0.003906c-0.67578 0-1.3242 0.26953-1.8086 0.74609-0.48047 0.48047-0.75391 1.1328-0.75391 1.8125v17.914l-26.203 8.6406c-6.3086-10.047 8.0781-41.676 40.555-74 8.5625-8.5156 17.402-16.109 26.277-22.586l-0.039063-0.054687c0.19531-0.09375 0.39453-0.1875 0.54688-0.29688 4.7656-3.457 9.25-6.4062 13.398-8.7969 0.51172-0.3125 1.0039-0.58984 1.4883-0.85938l1.082-0.62109c1.5039-0.83594 2.9766-1.5859 4.4141-2.3008 0.75391-0.375 1.4688-0.69141 2.2031-1.0352 0.79688-0.36719 1.6016-0.74609 2.375-1.0742 0.50781-0.21484 0.99219-0.41016 1.4883-0.60937 1.0586-0.42578 2.1094-0.83594 3.1172-1.1836 0.23438-0.082032 0.46484-0.16016 0.70312-0.23438 1.0039-0.33203 1.9609-0.60547 2.9023-0.85547 0.58984-0.16016 1.1719-0.30078 1.7344-0.42578 0.72266-0.16016 1.4219-0.30078 2.1094-0.41406 0.6875-0.11328 1.3359-0.17969 1.9766-0.23438 0.52734-0.046875 1.0586-0.10156 1.5547-0.11328 0.71875-0.015625 1.3789 0.03125 2.0234 0.09375 0.36719 0.03125 0.76953 0.035156 1.1094 0.09375 0.74219 0.11719 1.3945 0.32812 2.0156 0.55859 0.20312 0.078125 0.44531 0.10938 0.64062 0.19531 0.15234 0.070313 0.3125 0.12109 0.47266 0.16406h0.003907c0.16406 0.082031 0.3125 0.19922 0.46484 0.29297 0.12109 0.11719 0.23438 0.25 0.37891 0.34375 0 0 0.003906 0 0.003906 0.003906l0.03125 4.1484c-0.11328 0.066407-0.26562 0.16016-0.39062 0.23047-0.28125 0.16797-0.56641 0.33984-0.91016 0.54688-0.21875 0.13281-0.46094 0.28516-0.70703 0.43359-0.32812 0.21094-0.67188 0.42578-1.043 0.66016-0.29297 0.1875-0.58984 0.38281-0.90234 0.58984-0.38281 0.25781-0.78516 0.52344-1.1992 0.80469-0.34766 0.23438-0.69531 0.47266-1.0664 0.72656-0.44531 0.30859-0.90625 0.64062-1.3828 0.97266-0.37891 0.26953-0.75391 0.53125-1.1523 0.82812-0.54297 0.39844-1.1172 0.82812-1.6953 1.2656-0.36328 0.27734-0.71094 0.53125-1.0898 0.82422-0.94531 0.73047-1.9258 1.5039-2.9336 2.3281-0.24219 0.19922-0.49609 0.41797-0.74219 0.625-0.78906 0.65625-1.5859 1.3242-2.4062 2.0391-0.40625 0.34766-0.8125 0.72266-1.2188 1.0859-0.6875 0.61328-1.3789 1.2305-2.0781 1.8789-0.44922 0.41797-0.90625 0.85938-1.3672 1.2969-0.67188 0.64062-1.3398 1.2969-2.0234 1.9727-0.47656 0.47656-0.95312 0.95703-1.4297 1.4492-0.67969 0.70312-1.3633 1.418-2.043 2.1523-0.47656 0.50781-0.94531 1.0156-1.418 1.543-0.71094 0.78906-1.4219 1.6133-2.1367 2.4414-0.43359 0.51172-0.875 1.0156-1.3125 1.5352-0.82812 1.0039-1.6523 2.0469-2.4727 3.1094-0.30859 0.39453-0.61328 0.76172-0.91016 1.1641-1.1055 1.4648-2.1953 2.9766-3.2734 4.5352-0.28516 0.41797-0.55859 0.85938-0.83984 1.2852-0.66406 1.0039-1.3398 1.9961-1.9883 3.0352l-4.5625-0.007812c-1.4062 0-2.5547 1.1406-2.5586 2.5508l-0.046876 10.945c-0.19531 0.42578-0.37891 0.85547-0.55469 1.2812l-0.21094 0.48828c-0.53125 1.2188-1.0586 2.543-1.5156 3.7578-0.09375 0.23047-0.17969 0.46094-0.26172 0.69141zm3.6758-42.828 5.1211-8.7188 3.3477 1.957c-2.832 2.1523-5.6523 4.3984-8.4688 6.7617zm49.539 63.527c0.011719-0.019531 0.03125-0.03125 0.039063-0.050781 0.14453-0.30859 0.21875-0.64062 0.23438-0.97266 0.015625-0.33203-0.03125-0.67188-0.14844-0.98828l-0.87109-2.4102 0.003906-4.3984h33.281v4.043l-1.0391 2.8359c-0.23047 0.64062-0.20312 1.3398 0.082032 1.957 0.21094 0.44922 0.54297 0.82812 0.95703 1.0859v10.555h-33.281v-10.746c0.03125-0.027344 0.046875-0.070313 0.082031-0.097657 0.27344-0.22266 0.49609-0.48828 0.66016-0.8125zm-0.74219 165.26v-20.48h33.281v20.48zm33.281-97.281v20.48h-33.281v-20.48zm-33.281-5.1172v-20.48h33.281v20.48zm33.281 30.719v20.48h-33.281v-20.48zm0 25.602v20.48h-33.281v-20.48zm0-81.922h-33.281v-20.48h33.281zm-33.297 133.12h33.316c0.035156 6.5078 0.20312 13.418 0.52734 20.5-0.039062 0-0.078125-0.019532-0.11328-0.019532h-34.137c-0.039062 0-0.078125 0.019532-0.11328 0.019532 0.31641-7.082 0.48438-13.992 0.51953-20.5zm-2.8984 51.199h39.113c0.82422 7.25 1.8398 14.172 3.0625 20.48h-45.234c1.2188-6.3086 2.2344-13.23 3.0586-20.48zm0.55469-5.1211c0.67578-6.7539 1.2031-13.68 1.582-20.551 0.11719 0.015625 0.22656 0.070313 0.35156 0.070313h34.137c0.12891 0 0.23438-0.054688 0.35156-0.070313 0.37891 6.8711 0.90625 13.797 1.582 20.551zm31.43-258.84-5.8242 16.098c-0.24609 0.67969-0.17969 1.3945 0.11719 1.9961 0.27734 0.60547 0.77734 1.1016 1.4492 1.3477l8.4688 3.1016v5.8945h-33.281v-6l8.3984-3.0352c1.0039-0.36328 1.6367-1.2852 1.6836-2.2891 0.015625-0.33203-0.027344-0.67969-0.14844-1.0156l-5.832-16.109 12.492-4.5117 7.3594 2.6523zm-48.781 47.789 5.8359 16.18-13.359 4.8125c-0.64062 0.23047-1.1641 0.70703-1.4492 1.3203-0.28516 0.61328-0.32422 1.3203-0.09375 1.957l6.1133 16.895-17.406 15.297c-8.1953-7.875-7.7148-40.043 6.457-79.156 0.23438-0.71875 0.47656-1.4336 0.79297-2.2305 0.44531-1.1836 0.9375-2.4102 1.4336-3.5586l0.22656-0.53125c0.21484-0.51172 0.42969-1.0352 0.74219-1.6523 1.6445-3.7578 3.6133-7.5156 5.8516-11.16 0.015625-0.019531 0.027343-0.046874 0.039062-0.066406 0.03125-0.046875 0.066407-0.097656 0.097657-0.14453 1.4336-2.3594 2.9492-4.5859 4.4844-6.7422 0.35938-0.50781 0.72266-1.0156 1.0859-1.5039 1.5273-2.0625 3.0781-4.0586 4.6523-5.9336 0.16016-0.1875 0.31641-0.35938 0.47656-0.54297 1.4844-1.7344 2.9805-3.3789 4.4688-4.9492 0.36328-0.38281 0.73047-0.77344 1.0938-1.1484 1.5781-1.6172 3.1445-3.1602 4.6836-4.5859 0.26562-0.24609 0.52734-0.46484 0.78906-0.71094 1.3555-1.2383 2.6875-2.4062 3.9844-3.4961 0.32422-0.26953 0.64453-0.55469 0.96094-0.8125 1.4219-1.1758 2.7969-2.2695 4.0977-3.2578 0.28516-0.21875 0.55469-0.41406 0.83594-0.625 1.0859-0.8125 2.1211-1.5625 3.0781-2.2383 0.23438-0.16797 0.49609-0.35156 0.72656-0.51172 1.0508-0.72656 2.0078-1.3672 2.8477-1.9102 0.054688-0.035156 0.10156-0.0625 0.15234-0.097656l0.039063 24.266-14.074 5.0742c-0.64062 0.23047-1.1641 0.70703-1.4492 1.3203-0.14844 0.3125-0.21875 0.64844-0.23438 0.98828-0.015625 0.33203 0.035156 0.66406 0.14844 0.98828l5.832 16.113-13.363 4.8594c-1.3242 0.48047-2.0117 1.9453-1.5312 3.2773l5.8359 16.121-13.359 4.8125c-0.64062 0.23047-1.1641 0.70703-1.4492 1.3164-0.29297 0.625-0.32422 1.332-0.09375 1.9688zm5.293 262.25c2.9648-4.4844 5.3906-11.715 7.3672-20.48h47.379c1.9805 8.7656 4.4023 15.996 7.3672 20.48zm87.672-205.78-17.406-15.297 6.1133-16.895c0.23047-0.64062 0.19922-1.3398-0.09375-1.957-0.29297-0.61328-0.80859-1.0898-1.4492-1.3203l-13.359-4.8125 5.8359-16.18c0.23047-0.64062 0.19922-1.3477-0.09375-1.9609-0.29297-0.61328-0.80859-1.0859-1.4492-1.3164l-13.359-4.8125 5.8359-16.121c0.48047-1.3242-0.20312-2.7891-1.5312-3.2773l-13.301-4.8398 5.8828-16.055c0.23438-0.64062 0.20312-1.3398-0.082031-1.957-0.16016-0.34375-0.40625-0.62891-0.69141-0.86719-0.25-0.23437-0.54688-0.42578-0.87891-0.54687l-7.5-2.7031-6.4258-2.3516 0.050782-24.184c0.85937 0.55469 1.8281 1.1992 2.9062 1.9414 0.16797 0.11719 0.35937 0.25781 0.53125 0.37891 1.0156 0.71094 2.1211 1.5117 3.2812 2.3789 0.24219 0.17969 0.47266 0.34766 0.71875 0.53906 1.3125 1 2.7031 2.1055 4.1523 3.2969 0.29688 0.24609 0.59766 0.50781 0.89453 0.75781 1.3203 1.1094 2.6836 2.3047 4.0742 3.5742 0.24219 0.21875 0.47656 0.42578 0.71875 0.64453 1.5469 1.4336 3.125 2.9844 4.707 4.6094 0.35938 0.36719 0.72266 0.75391 1.082 1.1367 1.5 1.5781 3 3.2266 4.4922 4.9727 0.15234 0.17969 0.30859 0.34375 0.46094 0.52734 1.582 1.8789 3.1367 3.8828 4.6641 5.9531 0.36328 0.49219 0.72266 0.99219 1.082 1.4961 1.543 2.1641 3.0625 4.3945 4.4961 6.7617 0.03125 0.046875 0.0625 0.09375 0.09375 0.13672 0.015625 0.027344 0.035156 0.050781 0.050782 0.078125 2.2305 3.6445 4.1992 7.3984 5.9023 11.281 0.25 0.49609 0.46484 1.0234 0.67969 1.5312l0.23047 0.54297c0.49609 1.1367 0.98828 2.3711 1.4531 3.6211 0.29297 0.71875 0.53125 1.4375 0.78906 2.2227 14.156 39.027 14.637 71.195 6.4414 79.07zm60.988-33.797-26.203-8.6406v-17.918c0-0.67969-0.26953-1.332-0.75391-1.8125-0.48047-0.48047-1.1328-0.74609-1.8086-0.74609h-0.003907l-17.203 0.039062-0.039062-17.152c0-0.67578-0.26953-1.332-0.75391-1.8086-0.48047-0.47656-1.125-0.74609-1.8086-0.74609h-0.003906l-14.605 0.046875c-0.078125-0.21094-0.15234-0.41016-0.23047-0.60547 0-0.003906-0.003906-0.011718-0.003906-0.019531 0-0.003906 0-0.003906-0.003906-0.011719-0.47656-1.2695-1.0039-2.5977-1.5312-3.8008l-0.21484-0.5c-0.17969-0.42578-0.35938-0.85547-0.55469-1.2812l-0.046875-10.945c-0.003906-1.4062-1.1523-2.5508-2.5586-2.5508h-4.5664c-0.64062-1.0352-1.3125-2.0156-1.9727-3.0117-0.29297-0.43359-0.56641-0.88672-0.85938-1.3164-1.0664-1.5625-2.1602-3.0703-3.2656-4.5312-0.30859-0.40625-0.61328-0.77734-0.92188-1.1719-0.82031-1.0547-1.6367-2.0938-2.4688-3.0977-0.42969-0.52734-0.86719-1.0195-1.3047-1.5312-0.71094-0.83594-1.4219-1.6602-2.1406-2.4531-0.46484-0.52344-0.9375-1.0234-1.4023-1.5273-0.69141-0.74219-1.3828-1.4688-2.0703-2.1758-0.46484-0.48047-0.93359-0.95312-1.3984-1.418-0.69531-0.69531-1.3867-1.3672-2.082-2.0273-0.43359-0.41406-0.87109-0.83594-1.3008-1.2344-0.74219-0.6875-1.4648-1.3359-2.1875-1.9805-0.36719-0.32812-0.74219-0.66406-1.1055-0.98438-0.90625-0.78516-1.7852-1.5273-2.6562-2.2422-0.16406-0.13281-0.33203-0.28516-0.5-0.41797-1.0273-0.84375-2.0273-1.6289-2.9883-2.375-0.30078-0.23047-0.57812-0.43359-0.875-0.65625-0.64844-0.49609-1.2969-0.97656-1.9141-1.4297-0.35156-0.25781-0.6875-0.49219-1.0234-0.73828-0.52344-0.375-1.0352-0.73828-1.5195-1.0703-0.32812-0.23047-0.64062-0.44141-0.95312-0.64844-0.46094-0.3125-0.90234-0.60547-1.3203-0.87891-0.27734-0.18359-0.54297-0.35937-0.80469-0.52344-0.41406-0.26562-0.78516-0.5-1.1484-0.72656-0.21484-0.13281-0.42578-0.26562-0.61328-0.38281-0.37891-0.23047-0.70312-0.42578-1.0078-0.60938-0.050782-0.027344-0.11328-0.066406-0.16406-0.097656l0.011719-4.1211c0.12891-0.085937 0.27734-0.17969 0.44141-0.28516 0.19922-0.12891 0.26562-0.35156 0.41797-0.52344 0.11328-0.03125 0.23047-0.0625 0.33984-0.11328 0.19531-0.09375 0.44531-0.12109 0.64844-0.19922 0.62109-0.23047 1.2656-0.43359 1.9922-0.55469 0.35938-0.0625 0.76172-0.0625 1.1484-0.097656 0.64062-0.054688 1.2852-0.10938 1.9961-0.09375 0.49609 0.011718 1.0352 0.070312 1.5625 0.11719 0.64062 0.054687 1.2891 0.12109 1.9727 0.23047 0.67578 0.10938 1.3828 0.25 2.1055 0.41406 0.56641 0.12109 1.1523 0.26562 1.7461 0.42578 0.93359 0.25 1.875 0.51562 2.8555 0.83984 0.26172 0.085938 0.52344 0.17969 0.78906 0.26953 0.96094 0.33203 1.9609 0.72266 2.9766 1.1211 0.54297 0.21875 1.0742 0.42578 1.6289 0.66406 0.70703 0.30078 1.4453 0.64453 2.1719 0.97656 0.78516 0.36328 1.5547 0.70703 2.3594 1.1055 1.4297 0.70703 2.8711 1.4492 4.3555 2.2695l1.1406 0.64844c0.48828 0.27734 0.97656 0.55469 1.543 0.89453 4.0898 2.3594 8.582 5.3086 13.344 8.7656 0.019532 0.015625 0.42969 0.30078 0.53125 0.375 8.8633 6.4727 17.695 14.059 26.25 22.562 32.457 32.344 46.844 63.973 40.535 74.02zm-60.734-98.367 3.3477-1.957 5.1211 8.7148c-2.8086-2.3594-5.6367-4.6055-8.4688-6.7578zm86.922 14.941-23.922 4.9922-7.9805-13.762c-0.47656-0.82031-1.3359-1.2734-2.2188-1.2734-0.43359 0-0.875 0.10938-1.2812 0.34375l-13.145 7.625-7.625-13.145c-0.70703-1.2188-2.2695-1.6367-3.4961-0.93359l-13.086 7.5742-7.6953-13.102c-0.71094-1.207-2.2734-1.6289-3.4922-0.91797l-7.4453 4.332c-1.4727-1.0586-2.8711-1.9805-4.2891-2.9453-0.72266-0.48828-1.4688-1.0273-2.1719-1.4883-2.2266-1.4609-4.3789-2.7969-6.4141-3.9688-0.5625-0.34375-1.1055-0.64844-1.6367-0.95312l-0.74609-0.42578-0.36719-0.21484c-0.027344-0.015625-0.046875-0.027344-0.070313-0.035156-1.6172-0.88672-3.1992-1.7031-4.7461-2.4609-0.75391-0.375-1.4883-0.70312-2.2266-1.043-0.9375-0.42969-1.8672-0.85547-2.7734-1.2383-0.54688-0.23047-1.0898-0.44922-1.6289-0.66406-1.2656-0.50781-2.4883-0.95703-3.6875-1.3555-0.18359-0.0625-0.36719-0.12891-0.54688-0.18359-0.38281-0.12109-0.78906-0.28125-1.1641-0.39453-0.77734-0.23047-1.4961-0.36328-2.2422-0.55469-0.47656-0.11719-0.95703-0.24609-1.418-0.34766-0.98438-0.21484-1.9219-0.36328-2.8477-0.49609-0.51172-0.070313-1.0156-0.14453-1.5039-0.1875-0.82812-0.082031-1.6211-0.11328-2.4023-0.12109-0.54297-0.003906-1.0742 0-1.5938 0.03125-0.66406 0.035156-1.3125 0.10156-1.9297 0.19922-0.56641 0.085937-1.1172 0.20312-1.6484 0.33984-0.29688 0.078124-0.64062 0.097656-0.92578 0.1875l-0.13281-0.21484c0.54688-1.1836 1.5273-2.293 2.8828-3.2617 4.0742-2.9609 11.434-4.793 20.863-5.3359 5.6562-0.32813 12.062-0.19531 18.977 0.43359 5.6172 0.53906 11.203 1.3359 16.133 2.2461 0.34375 0.17578 0.72266 0.25781 1.1016 0.25781 0.011718 0 0.019531-0.003907 0.03125-0.003907 0.011718 0 0.019531 0.003907 0.03125 0.003907 5.1406 0.95312 10.445 2.1523 15.766 3.5625 39.465 10.395 64.793 28.285 64.715 38.898zm-88.691-75.316c14.711-3.9609 29.531-6.1484 41.734-6.1484 13.547 0 23.156 2.7148 25.855 7.1719l-16.102 14.309-12.277-7.0234c-1.2227-0.70312-2.7891-0.27734-3.4922 0.94531l-6.668 11.613-11.711-6.6719c-0.59375-0.33984-1.3008-0.42969-1.9453-0.24219-0.65625 0.17969-1.2148 0.61328-1.5469 1.2031l-6.6055 11.652-11.652-6.7148c-1.2305-0.70703-2.7891-0.28516-3.4961 0.93359l-2.3594 4.0703c-1.0859-0.085937-2.1094-0.12109-3.1758-0.18359-1.0195-0.0625-2.0547-0.13672-3.0469-0.17969-1.4453-0.054688-2.8203-0.070313-4.207-0.082032-0.8125-0.003906-1.6484-0.03125-2.4414-0.027343-1.4688 0.015625-2.8672 0.082031-4.2656 0.14844-0.64453 0.03125-1.3203 0.039063-1.9492 0.085938-1.4375 0.10156-2.7852 0.25-4.1328 0.41016-0.52734 0.0625-1.082 0.10156-1.5938 0.16797-1.3477 0.18359-2.5977 0.42578-3.8398 0.67188-0.43359 0.085937-0.91016 0.15234-1.3359 0.24609-1.2148 0.26953-2.3242 0.59766-3.4219 0.93359-0.375 0.11328-0.78906 0.20312-1.1484 0.32422-1.082 0.36328-2.0469 0.77734-3 1.207-0.29297 0.12891-0.62891 0.23438-0.91016 0.375-1.1836 0.57812-2.2578 1.207-3.207 1.8984-0.16797 0.11719-0.32422 0.24609-0.48828 0.36719l0.019531-6.0742c9.6484-9.5547 29.461-19.191 52.41-25.387zm-125.69 13.953c-0.65625-0.1875-1.3555-0.097656-1.9453 0.24219l-11.711 6.6719-6.668-11.613c-0.70313-1.2227-2.2695-1.6484-3.4922-0.94531l-12.277 7.0234-16.102-14.309c2.6914-4.4609 12.309-7.1719 25.855-7.1719 12.199 0 27.023 2.1875 41.734 6.1484 22.941 6.1914 42.762 15.832 52.383 25.375l0.019531 6.0742c-0.15234-0.11719-0.30859-0.24219-0.47266-0.35938-0.88672-0.64062-1.9062-1.2227-2.9883-1.7773-0.24609-0.12109-0.51172-0.23438-0.76953-0.35156-0.96875-0.45703-2-0.87109-3.1094-1.2539-0.1875-0.066406-0.375-0.13281-0.56641-0.19922-4.168-1.3711-9.2656-2.2617-15.172-2.6641-0.16016-0.011719-0.31641-0.019531-0.47656-0.03125-1.957-0.11719-3.9844-0.19922-6.1133-0.21094-0.21875 0-0.42578-0.015625-0.64844-0.015625-1.9727 0-4.0195 0.054688-6.1094 0.14844-0.20312 0.011718-0.42578 0.03125-0.62891 0.039062-1.668 0.082032-3.3594 0.17969-5.0898 0.31641l-2.3594-4.0703c-0.70703-1.2188-2.2734-1.6289-3.4961-0.93359l-11.652 6.7109-6.6016-11.645c-0.32812-0.58594-0.88672-1.0195-1.543-1.1992zm-8.5703 22.453c5.457-1.4531 10.895-2.6797 16.164-3.6406 0.14844-0.015625 0.29688-0.046875 0.43359-0.085938 5.3555-1.0195 10.895-1.8125 16.461-2.3438 18.434-1.6797 33.305 0.16406 39.855 4.9102 1.3477 0.95703 2.3203 2.0625 2.8672 3.2461l-0.13281 0.21484c-0.27734-0.085938-0.60938-0.10938-0.89453-0.18359-0.54297-0.13672-1.1016-0.25781-1.6836-0.34375-0.61328-0.09375-1.2461-0.16016-1.8984-0.19922-0.52734-0.027344-1.0703-0.035157-1.6211-0.027344-0.76953 0.003906-1.5547 0.039062-2.375 0.11719-0.49219 0.046875-1 0.11719-1.5117 0.19531-0.93359 0.12891-1.875 0.28125-2.8633 0.49609-0.44531 0.097656-0.90625 0.21875-1.3633 0.33203-0.77344 0.1875-1.5039 0.32812-2.3125 0.56641-0.38281 0.11328-0.79688 0.27734-1.1914 0.40625-0.12109 0.039063-0.25781 0.085937-0.38281 0.12891-1.2578 0.41797-2.5586 0.89453-3.9023 1.4336-0.48828 0.19531-0.97266 0.39062-1.4688 0.59766-0.96875 0.41016-1.9648 0.85938-2.9766 1.332-0.69531 0.32422-1.3828 0.63672-2.0938 0.97656-1.5859 0.78516-3.207 1.6172-4.8789 2.5352l-1.0547 0.60547c-0.53125 0.30078-1.0742 0.60938-1.5859 0.92188-2.0625 1.1875-4.2305 2.5352-6.4648 4-0.69141 0.44922-1.4297 0.98828-2.1367 1.4648-1.4297 0.96875-2.8477 1.9062-4.332 2.9688l-7.4453-4.332c-1.2227-0.71094-2.7734-0.29297-3.4922 0.91797l-7.6953 13.102-13.086-7.5742c-1.2305-0.71875-2.7891-0.29688-3.4961 0.93359l-7.625 13.145-13.145-7.625c-1.2344-0.71875-2.7969-0.29297-3.5039 0.93359l-7.9805 13.762-23.922-4.9922c-0.074219-10.598 25.254-28.488 64.734-38.895z" fill="#443f3c"/>
</svg>
