<?xml version="1.0" encoding="UTF-8"?>
<svg width="512pt" height="512pt" version="1.1" viewBox="0 0 512 512" xmlns="http://www.w3.org/2000/svg">
 <g fill="#443f3c">
  <path d="m488 480v-48h-8v-88h-104v-40.801l-16 0.80078v-65.602l-16 1.6016v-65.602l-16 1.6016v-65.602l-24 3.1992v-65.598h-16v-32h-64v32h-16v77.602l-24 3.1992v62.398l-16 1.6016v62.398l-16 1.6016v62.398l-16 0.80078v24h-104v88h-8v48h-8v16h480v-16zm-24-120v72h-8v-40c0-13.602-10.398-24-24-24s-24 10.398-24 24v40h-16v-64.801l-16 0.80078v-8zm-24 72h-16v-40c0-4.8008 3.1992-8 8-8s8 3.1992 8 8zm-64-47.199v47.199h-240v-32.801zm-136-352.8h32v16h-32zm-16 32h64v52l-64 8zm-24 79.199 112-14.398v49.602l-112 11.199zm-16 64 144-14.398v48.801l-144 12zm-16 64 176-14.398v48.801l-176 12.801zm192 49.602v48.801l-208 12.801v-47.199zm-312 39.199h88v23.199l-16 0.80078v48h-16v-40c0-13.602-10.398-24-24-24s-24 10.398-24 24v40h-8zm40 72h-16v-40c0-4.8008 3.1992-8 8-8s8 3.1992 8 8zm-48 16h432v32h-432z"/>
  <path d="m56 456h16v16h-16z"/>
  <path d="m104 456h16v16h-16z"/>
  <path d="m152 456h16v16h-16z"/>
  <path d="m200 456h16v16h-16z"/>
  <path d="m248 456h16v16h-16z"/>
  <path d="m296 456h16v16h-16z"/>
  <path d="m344 456h16v16h-16z"/>
  <path d="m392 456h16v16h-16z"/>
  <path d="m440 456h16v16h-16z"/>
  <path d="m232 72h16v24h-16z"/>
  <path d="m264 72h16v24h-16z"/>
 </g>
</svg>
