<?xml version="1.0" encoding="UTF-8"?>
<svg width="512pt" height="512pt" version="1.1" viewBox="0 0 512 512" xmlns="http://www.w3.org/2000/svg">
 <path d="m426.51 164.37c-7.2227-13.457-30.977-42.574-95.328-22.301-41.996 13.215-53.871-8.5312-75.438-48.027-4.6758-8.5664-9.9727-18.27-16.012-28.293-34.879-57.953-128.29-36.398-132.25-35.457-1.1758 0.28125-2.2109 0.99219-2.8945 1.9961-24.586 36.086-7.8789 62.863-1.5312 70.883-7.8281 22.078-54.477 171.08 41.941 340.73l-24.367 28.109c-1.0039 1.1562-1.4062 2.7188-1.082 4.2188 0.32422 1.4961 1.332 2.7578 2.7227 3.3984 0.875 0.40625 15.094 6.7695 39.664 6.7695 12.441 0 27.547-1.6328 44.906-6.5039 1.0898-0.30859 2.043-0.98438 2.6875-1.9141l205.73-296.82 10.492-11.152c1.4492-1.5195 1.7461-3.7969 0.75781-5.6406zm-314.93-124.99c12.965-2.6562 91.055-16.375 119.8 31.395 5.9297 9.8477 10.953 19.047 15.805 27.941 21.641 39.633 37.289 68.273 86.918 52.645 52.75-16.613 74.203 2.6328 82.043 14.645l-4.3555 4.6328c-7.0234-7.5273-24.121-20.016-55.871-12.477-0.36719 0.050782-0.72656 0.14844-1.0703 0.28125-3.8438 0.95703-7.8555 2.1406-12.133 3.7227-16.211 6-30.926 9.1992-44.395 9.5625-0.082031-0.003906-0.16016-0.03125-0.24219-0.03125-0.34375-0.015624-0.67969 0.003907-1.0078 0.0625-9.0977 0.12891-17.629-1.043-25.652-3.5781-0.56641-0.33984-1.2031-0.5625-1.8945-0.64844-9.0781-3.1367-17.512-8.0195-25.395-14.699-0.35938-0.44141-0.78906-0.8125-1.2812-1.1094-8.3359-7.3164-16.066-16.641-23.32-28.051-0.97266-1.5273-1.9766-2.9688-3-4.3711-0.03125-0.050781-0.066406-0.097656-0.10156-0.14844-8.5469-11.672-18.84-19.148-29.656-23.746-0.55469-0.38281-1.1875-0.64453-1.875-0.77344-4.4336-1.7422-8.9336-3.0195-13.434-3.918-0.76953-0.36328-1.6016-0.5-2.4219-0.44531-5.5039-0.93359-10.973-1.3398-16.258-1.3398-19.16 0-35.844 5.0703-42.73 7.5-5.2266-6.7109-17.621-27.586 1.5234-57.051zm67.434 63.488-10.336 307.25c-18.914-42.613-80.203-201.58 2.6328-309.47 2.582 0.58203 5.1523 1.3203 7.7031 2.2227zm9.6055 4.3242c6.8164 3.7852 13.23 9.0586 18.828 16.266l-8.6914 258.42-20.156 23.254zm28.129 29.738c5.8789 8.207 12.094 15.262 18.664 21.191l-6.3477 188.8-20.16 23.254zm28.16 28.809c6.0469 4.2461 12.387 7.6172 19.035 10.145l-4.5781 136.08-20.156 23.254zm28.688 13.148c6.168 1.5273 12.594 2.3711 19.293 2.5547l-3.2148 95.555-20.156 23.254zm29.047 2.3711c6.2422-0.40625 12.715-1.3398 19.414-2.8125l-2.3672 63.93-19.871 22.926zm29.258-5.3047c4.6289-1.3203 9.3555-2.8555 14.203-4.6523 1.8672-0.69141 3.6719-1.2852 5.4375-1.8398l-1.2656 37.621-20.398 23.535zm29.477-9.0195c9.6758-1.8906 17.555-1.5977 23.887-0.21484l-24.844 28.66zm-248.96-61.012c6.1289-2.2617 26.281-8.8594 48.07-6.9727-38.652 53.238-50.551 125.39-34.238 209.43 11.012 56.762 31.699 102.26 37.359 114.05l-7.0508 8.1289-4.7969 5.5391c-93.227-166.74-45.91-311.97-39.344-330.18zm90.117 365.06c-34.16 9.2227-58.797 4.9805-69.785 1.9453l262.4-302.73c5.1758 2.6367 8.4922 5.832 10.332 7.9766z" fill="#443f3c"/>
</svg>
