<?xml version="1.0" encoding="UTF-8"?>
<svg width="512pt" height="512pt" version="1.1" viewBox="0 0 512 512" xmlns="http://www.w3.org/2000/svg">
 <path d="m479.2 480-24-168h-17.602l-13.598-33.602v-22.398h-16v22.398l-13.602 33.602h-17.602l-24 168h-40.797v-212c0-52.801 17.602-104 51.199-144.8l11.199-14.398-12.801-9.6016-11.199 14.398c-4 4.8008-7.1992 9.6016-10.398 14.398h-12.801c3.1992-4 6.3984-8 9.6016-12l5.6016-7.1992-12.801-9.6016-5.6016 6.3984c-6.3984 8-12 15.199-17.602 22.398h-4.8008c17.602-25.602 11.199-60-13.602-77.602-7.1992-4.8008-15.199-8-24-9.6016l0.003906-24.789h-16v24.801c-30.398 4-52 32.801-47.199 63.199 1.6016 8.8008 4.8008 16.801 9.6016 24h-4.8008c-5.6016-7.1992-11.199-14.398-17.602-22.398l-5.6016-6.3984-12.801 9.6016 5.6016 7.1992c3.1992 4 6.3984 8 9.6016 12h-12.801c-3.1992-4.8008-7.1992-9.6016-10.398-14.398l-11.199-14.398-12.801 9.6016 11.199 14.398c32.801 40.801 50.398 92 51.199 144.8v211.99h-40.801l-24-168h-17.602l-13.598-33.602v-22.398h-16v22.398l-13.602 33.602h-17.598l-24 168h-16.801v16h480v-16zm-383.2-178.4 4 10.398h-8zm-46.398 178.4 21.602-152h16.797v64h16v-64h16.801l21.602 152zm132.8-336h14.398c16 24.801 26.398 52.801 27.199 112h-8c-2.3945-39.199-13.598-77.602-33.598-112zm41.602 336h-8v-208h8zm24 0h-8v-208h8zm0-224h-8c-0.80078-56.801-10.398-87.199-24-112h12c6.3984 4 13.602 6.3984 20.801 7.1992v104.8zm0-128h-16c-17.602-12.801-21.602-38.398-8.8008-56s38.398-21.602 56-8.8008c17.602 12.801 21.602 38.398 8.8008 56-2.3984 3.1992-5.6016 6.3984-8.8008 8.8008h-16v-32h-16v32zm24 352h-8v-208h8zm-8-224v-104.8c7.1992-0.80078 14.398-3.1992 20.801-7.1992h12c-14.398 24.801-23.199 55.199-24 112zm32 224h-8v-208h8zm-8-224c0.80078-59.199 11.199-87.199 27.199-112h14.398c-20 34.398-31.199 72.801-32.801 112zm128 45.602 4 10.398h-8zm-46.398 178.4 21.602-152h16.797v64h16v-64h16.801l21.602 152z" fill="#443f3c"/>
</svg>
