<?xml version="1.0" encoding="UTF-8"?>
<svg width="512pt" height="512pt" version="1.1" viewBox="0 0 512 512" xmlns="http://www.w3.org/2000/svg">
 <g fill="#443f3c">
  <path d="m247.72 322.05v-85.738l7 3.5c10.371 5.1836 21.98 7.9258 33.57 7.9258 23.984 0 45.543-13.324 56.27-34.773 1.4922-2.9883 2.2812-6.332 2.2812-9.668 0-11.922-9.6992-21.621-21.621-21.621-20.664 0-41.109 2.668-60.992 7.9219-0.13672-10.625-6.9922-19.652-16.508-23.027v-15.988c0-14.539-8.0781-27.609-21.082-34.109l-3.6953-1.8477-3.6953 1.8477c-13.004 6.5039-21.082 19.574-21.082 34.109v15.988c-9.5117 3.375-16.363 12.395-16.508 23.016-19.871-5.2461-40.297-7.9102-60.945-7.9102-11.914-0.003907-21.613 9.6953-21.613 21.617 0 3.3398 0.78906 6.6836 2.2812 9.668 10.727 21.449 32.285 34.773 56.27 34.773 11.594 0 23.199-2.7422 33.57-7.9258l6.9492-3.4727v85.711c0 13.66 11.113 24.773 24.773 24.773 13.664 0.003906 24.777-11.109 24.777-24.77zm-8.2578-140.39c4.5547 0 8.2578 3.7031 8.2578 8.2578 0 4.5547-3.7031 8.2578-8.2578 8.2578-4.5547 0-8.2578-3.7031-8.2578-8.2578-0.003906-4.5547 3.7031-8.2578 8.2578-8.2578zm90.863 21.629c0 0.78906-0.1875 1.5781-0.53906 2.2812-7.9102 15.82-23.812 25.648-41.496 25.648-9.043 0-18.098-2.1367-26.184-6.1797l-14.387-7.1914v-4.5742c2.3242-0.82422 4.4883-1.9844 6.4375-3.4219 22.941-7.7344 46.84-11.664 71.062-11.664 2.8125 0 5.1055 2.2891 5.1055 5.1016zm-107.38-69.719c5.1758 4.043 8.2578 10.246 8.2578 17.008v15.988c-3.0742 1.0898-5.875 2.7734-8.2578 4.9102-2.3828-2.1367-5.1836-3.8164-8.2578-4.9102v-15.988c0-6.7617 3.082-12.965 8.2578-17.008zm-16.516 48.09c4.5547 0 8.2578 3.7031 8.2578 8.2578 0 4.5547-3.7031 8.2578-8.2578 8.2578-4.5547 0-8.2578-3.7031-8.2578-8.2578 0-4.5547 3.707-8.2578 8.2578-8.2578zm-22.594 43.375c-8.0898 4.0469-17.145 6.1836-26.184 6.1836-17.688 0-33.586-9.8281-41.496-25.645-0.35156-0.70312-0.53906-1.4922-0.53906-2.2812 0-2.8164 2.2891-5.1016 5.1016-5.1016 24.188 0 48.059 3.918 70.973 11.633 1.957 1.4531 4.1406 2.625 6.4805 3.4531v4.5977zm30.852 97.012v-108.78c3.0742-1.0898 5.875-2.7734 8.2578-4.9102 2.3828 2.1367 5.1836 3.8164 8.2578 4.9102v108.78c0 4.5547-3.7031 8.2578-8.2578 8.2578-4.5508 0-8.2578-3.7031-8.2578-8.2578z"/>
  <path d="m510.68 448.88-13.273-39.816c-2.2344-6.707-7.2461-12.152-13.742-14.938l-34.371-14.73 10.809-32.422c1.5625-4.6836 2.3516-9.5625 2.3516-14.5v-27.875c0-12.246-4.7695-23.762-13.43-32.422l-11.012-11.012c-5.5391-5.5391-8.5898-12.906-8.5898-20.742v-87.254c0-10.055-3.375-19.984-9.5078-27.957l-68.809-89.449c-4.7695-6.1992-11.09-11.105-18.281-14.188l-41.703-17.871c-5.7383-2.4609-11.816-3.707-18.059-3.707-13.223 0-25.801 5.707-34.504 15.66l-39.855 45.543c-3.4297 3.9219-7.8555 6.8633-12.801 8.5117l-93.07 31.023c-15.887 5.293-27.617 18.816-30.613 35.297l-10.434 57.387c-1.0742 5.8984-3.8789 11.254-8.1172 15.496l-30.234 30.234c-8.6602 8.6562-13.43 20.172-13.43 32.418v67.953c0 12.246 4.7695 23.762 13.43 32.422l28.57 28.57-29.871 29.871c-7.8242 7.8203-12.129 18.219-12.129 29.277 0 8.8984 2.9414 17.719 8.2812 24.84l13.191 17.586c4.6523 6.207 12.059 9.9102 19.816 9.9102h31.664c1.3555 0 2.7266-0.11328 4.0742-0.33594l79.746-13.293c14.43-2.4023 24.902-14.766 24.902-29.398 0-2.2109-0.24219-4.3945-0.71875-6.5234h19.637c-1.5586 4.6055-2.4062 9.5078-2.4062 14.562v0.38672c-0.003906 9.2383 3.5938 17.926 10.125 24.461s15.219 10.133 24.461 10.133h0.31641c5.5352 0 10.828-1.2422 15.727-3.6914l23.914-11.957c1.1367-0.57031 2.4102-0.87109 3.6836-0.87109h30.551c2.207 0 4.2812 0.85938 5.8398 2.418l5.8398 5.8398c5.3242 5.3242 12.406 8.2578 19.941 8.2578 7.5312 0 14.609-2.9336 19.934-8.2617 5.3203-5.3242 12.398-8.2578 19.938-8.2578 15.859 0 31.738 3.75 45.926 10.84l3.4688 1.7344c5.1562 2.5781 10.926 3.9414 16.691 3.9414 14.273 0 26.898-9.0977 31.414-22.641 0.72656-2.1797 2.4883-3.8125 4.7188-4.3672l11.812-2.9531c11.492-2.875 19.52-13.156 19.52-25.004-0.007812-2.7578-0.45312-5.5-1.332-8.1367zm-419.39-52.496c17.637 0 34.008 8.7617 43.789 23.434l7.5508 11.324c-5.7617 10.445-15.508 18.25-27.016 21.539l-28.129 8.0391c-4.0195 1.1484-8.1758 1.7305-12.352 1.7305-13.734 0-26.531-6.1484-35.109-16.875l-8.7656-10.957 22.816-22.816c9.9414-9.9414 23.156-15.418 37.215-15.418zm62.773 85.691-79.742 13.293c-0.44922 0.074218-0.91016 0.11328-1.3594 0.11328h-31.668c-2.5859 0-5.0547-1.2344-6.6055-3.3047l-13.191-17.586c-3.207-4.2812-4.9766-9.582-4.9766-14.93 0-4.5352 1.207-8.8867 3.4688-12.688l7.1367 8.918c11.73 14.664 29.227 23.074 48.004 23.074 5.7109 0 11.395-0.79688 16.891-2.3633l28.129-8.0391c13.051-3.7305 24.441-11.711 32.445-22.469l10.34 15.508c1.4609 2.1875 2.2305 4.7383 2.2305 7.3711 0 6.5195-4.668 12.031-11.102 13.102zm18.273-36.145-23.516-35.273c-12.852-19.281-34.359-30.789-57.531-30.789-13.023 0-25.492 3.5898-36.293 10.281l-29.883-29.883c-5.543-5.543-8.5938-12.91-8.5938-20.746v-67.953c0-7.8359 3.0508-15.203 8.5898-20.742l30.234-30.234c6.625-6.625 11.012-15 12.691-24.219l10.434-57.387c1.918-10.543 9.4219-19.195 19.586-22.582l93.074-31.027c7.7266-2.5742 14.645-7.1758 20.008-13.305l39.852-45.547c5.5664-6.3594 13.613-10.012 22.074-10.012 3.9961 0 7.8828 0.79688 11.555 2.3711l41.703 17.871c4.6016 1.9688 8.6445 5.1094 11.695 9.0781l68.809 89.449c3.9219 5.0977 6.082 11.453 6.082 17.887v87.254c0 12.246 4.7695 23.762 13.43 32.422l11.012 11.012c5.5391 5.5391 8.5898 12.906 8.5898 20.742v27.875c0 3.1602-0.50781 6.2812-1.5039 9.2773l-9.6992 29.098c-0.0625-0.13281-0.12891-0.26562-0.18359-0.40234l-11.348-28.367c-2.5078-6.2656-7.5391-11.297-13.801-13.801l-26.879-10.75c-2.4531-0.98047-4.3047-3.1016-4.9453-5.6641l-2.5469-10.188c-3.0742-12.309-14.086-20.906-26.777-20.906-8.6406 0-16.895 4.1289-22.082 11.039l-15.184 20.246c-1.2227 1.6289-2.9922 2.7461-4.9883 3.1445l-23.926 4.7852c-10.031 2.0039-17.898 10.133-19.578 20.223l-5.5156 33.082c-0.28516 1.707-1.082 3.2578-2.3047 4.4805l-16.195 16.195c-4.6797 4.6797-7.2578 10.902-7.2578 17.52v15.984c0 3.1484-1.75 5.9766-4.5664 7.3867l-3.4883 1.7422c-4.8242 2.4102-9.0742 5.5859-12.637 9.3359zm316.14 20.082-11.812 2.9531c-7.7344 1.9336-13.859 7.6055-16.379 15.168-2.2617 6.7852-8.5898 11.348-15.742 11.348-3.2109 0-6.4297-0.75781-9.3047-2.1953l-3.4688-1.7344c-16.469-8.2344-34.902-12.586-53.324-12.586-11.941 0-23.164 4.6523-31.605 13.098-2.2031 2.2031-5.1328 3.418-8.2539 3.418-3.1172 0-6.0508-1.2148-8.2578-3.4219l-5.8398-5.8398c-4.6797-4.6797-10.902-7.2539-17.52-7.2539h-30.551c-3.8281 0-7.6562 0.90234-11.074 2.6133l-23.91 11.957c-2.582 1.293-5.3906 1.9453-8.3398 1.9453h-0.31641c-4.8281 0-9.3672-1.8789-12.781-5.293-3.4141-3.4141-5.293-7.9531-5.2891-12.773v-0.39844c0.003906-10.93 6.0781-20.758 15.855-25.648l3.4844-1.7422c8.4492-4.2227 13.695-12.715 13.695-22.16v-15.984c0-2.207 0.85938-4.2812 2.418-5.8398l16.195-16.195c3.6719-3.6719 6.0664-8.3242 6.918-13.445l5.5156-33.082c0.55859-3.3633 3.1836-6.0742 6.5273-6.7422l23.926-4.7852c5.9844-1.1992 11.297-4.5469 14.961-9.4297l15.184-20.246c2.082-2.7773 5.3984-4.4336 8.8672-4.4336 5.0977 0 9.5195 3.4531 10.754 8.3945l2.5469 10.188c1.9258 7.6953 7.4688 14.047 14.832 16.992l26.879 10.75c2.0898 0.83594 3.7656 2.5117 4.6016 4.6016l11.348 28.367c2.457 6.1445 7.1602 10.965 13.242 13.57l44.703 19.16c2.1641 0.92578 3.8359 2.7422 4.582 4.9805l13.273 39.812c0.31641 0.94531 0.47656 1.9297 0.47656 2.9258-0.003906 4.2617-2.8867 7.957-7.0156 8.9883z"/>
  <path d="m409.26 412.9h-23.652c-4.0547 0-7.4805-2.9023-8.1445-6.9023l-3.6602-21.949c-2-11.988-12.277-20.695-24.438-20.695h-19.039v16.516h19.043c4.0547 0 7.4805 2.9023 8.1445 6.9023l3.6602 21.949c2 11.996 12.277 20.699 24.438 20.699h23.652c3.5586 0 6.707 2.2695 7.8359 5.6445l4.4922 13.48 15.668-5.2227-4.4922-13.48c-3.3828-10.133-12.828-16.941-23.508-16.941z"/>
  <path d="m312.8 410.48c-1.5586 1.5625-3.6328 2.418-5.8398 2.418h-5.0391c-11.391 0-21.273 7.7188-24.035 18.766l-2.0039 8.0117c-0.92188 3.6836-4.2148 6.2539-8.0117 6.2539l-3.6172 0.003906v16.516h3.6211c11.391 0 21.273-7.7188 24.035-18.766l2.0039-8.0117c0.92188-3.6836 4.2148-6.2539 8.0117-6.2539h5.0391c6.6172 0 12.84-2.5781 17.52-7.2539l11.68-11.68-11.68-11.68z"/>
  <path d="m49.547 323.03v-17.484c0-7.7578 3.7031-15.164 9.9102-19.816l15.129-11.348c4.5352-3.4023 7.793-8.3047 9.168-13.809l6.8359-27.344-16.023-4.0078-6.8359 27.344c-0.46094 1.8359-1.5469 3.4688-3.0586 4.6055l-15.125 11.344c-10.344 7.7578-16.516 20.105-16.516 33.031v17.48c0 17.801 11.344 33.543 28.234 39.172l26.961 8.9883 5.2227-15.668-26.961-8.9844c-10.133-3.3789-16.941-12.824-16.941-23.504z"/>
  <path d="m247.74 84.531c0-3.1484 1.75-5.9766 4.5664-7.3867l14.773-7.3867c8.4453-4.2227 13.691-12.715 13.691-22.16v-14.566h-16.516v14.566c0 3.1484-1.75 5.9766-4.5664 7.3867l-14.773 7.3867c-8.4453 4.2227-13.691 12.715-13.691 22.16v14.566h16.516z"/>
  <path d="m331.69 99.719 5.75 34.504c1.1953 7.1719 5.457 13.43 11.691 17.172l26.73 16.039c2.4727 1.4844 4.0078 4.1953 4.0078 7.082l0.003906 40.195h16.516v-40.195c0-8.6523-4.6094-16.793-12.027-21.242l-26.73-16.039c-2.0781-1.2461-3.5-3.332-3.8984-5.7266l-5.75-34.504c-1.1953-7.1719-5.457-13.43-11.691-17.172l-34.75-20.848-8.4961 14.164 34.75 20.848c2.0781 1.2461 3.4961 3.332 3.8945 5.7227z"/>
 </g>
</svg>
