<?xml version="1.0" encoding="UTF-8"?>
<svg width="512pt" height="512pt" version="1.1" viewBox="0 0 512 512" xmlns="http://www.w3.org/2000/svg">
 <g fill="#443f3c">
  <path d="m256 25.602c-61.105 0-119.71 24.273-162.92 67.48s-67.48 101.81-67.48 162.92 24.273 119.71 67.48 162.92 101.81 67.48 162.92 67.48 119.71-24.273 162.92-67.48 67.48-101.81 67.48-162.92c-0.066407-61.086-24.363-119.65-67.555-162.84-43.195-43.191-101.76-67.488-162.84-67.555zm0 10.238c40.922 0.015625 81.031 11.434 115.82 32.977 34.793 21.543 62.895 52.355 81.145 88.98h-393.93c18.25-36.625 46.352-67.438 81.145-88.98 34.789-21.543 74.898-32.961 115.82-32.977zm-201.78 132.2h403.55c12.125 27.738 18.383 57.688 18.383 87.961s-6.2578 60.223-18.383 87.961h-403.55c-12.125-27.738-18.383-57.688-18.383-87.961s6.2578-60.223 18.383-87.961zm201.78 308.12c-40.922-0.015625-81.031-11.434-115.82-32.977-34.793-21.543-62.895-52.355-81.145-88.98h393.93c-18.25 36.625-46.352 67.438-81.145 88.98-34.789 21.543-74.898 32.961-115.82 32.977z"/>
  <path d="m256 341.2c54.629-0.5625 84.379-19.508 84.379-19.508l-14.336-26.062-7.0664 2.7148-44.031-51.812c3.125-6.5039 12.289-27.598 9.9844-43.008-2.457-16.332-9.9336-24.781-23.707-26.418v-3.4805c-1.6758-1.5742-3.8125-2.5586-6.0938-2.8164-2.2422 0.32422-4.3125 1.3867-5.8867 3.0195v3.5312c-11.879 2.2031-20.48 10.957-22.324 26.93-1.7422 15.359 7.0664 35.84 10.238 42.238l-43.57 52.074-7.9883-2.4062-13.871 26.367c26.211 12.82 55.102 19.207 84.273 18.637zm-4.043-8.9609-3.2773-4.5547 14.949-4.5039 7.0156 8.4492zm73.727-14.234-6.7578 2.3047-0.5625-3.1758 3.9414-5.8359zm-5.6836-12.645 1.9453 3.0703-5.4258 9.0156-5.582-7.8867zm-5.1211 18.277-12.289 2.6094-2.3555-3.4297 8.6562-5.3711zm-14.336-12.336 3.0703 2.8164-9.0625 6.1953-5.582-5.9922zm-7.9375 15.871-15.359 2.0977-3.0195-4.1484 11.367-4.8125zm-13.723-12.852 2.7656 3.9922-10.238 5.1211-4.3516-7.5273zm-17.762-132.35c9.8828 1.7422 15.359 8.9102 17.152 22.324 1.793 13.414-5.6836 31.949-7.8867 36.965l-5.9922-7.0664 0.003907-18.688h9.0625l-12.34-10.238zm-3.0195 133.12 1.4844 3.4805-13.16 4.7617-5.1211-8.9609zm-24.578-110.29c1.3828-12.852 7.3711-20.172 15.77-22.527v23.141l-11.211 10.238h9.0625v18.176l-5.7383 7.3242c-2.1484-5.0703-9.2656-23.09-7.8828-36.352zm4.5039 118.38 6.9648 8.9609-16.539-1.9453-1.7422-3.7891zm-7.2695-10.238 3.2773 3.8906-10.238 3.125-4.6602-9.0117zm-11.367 12.953-13.262-2.6094-1.3281-3.5391 9.2656-2.3008zm-10.238-17.461 2.7148 5.6836-10.238 2.8164-4.25-11.93zm-18.074-3.4297 2.5078 7.4766-7.3203 1.4844c0-0.003907 4.4023-7.8867 4.9648-8.6055zm4.4531 12.441 1.8438 5.9922-10.957-3.5312z"/>
 </g>
</svg>
