<?xml version="1.0" encoding="UTF-8"?>
<svg width="512pt" height="512pt" version="1.1" viewBox="0 0 512 512" xmlns="http://www.w3.org/2000/svg">
 <g fill="#443f3c">
  <path d="m216 248h16v16h-16z"/>
  <path d="m248 248h16v16h-16z"/>
  <path d="m280 248h16v16h-16z"/>
  <path d="m488 416h-8v-91.039c0.015625-2.9805-0.80859-5.9062-2.3789-8.4375-1.5703-2.5352-3.8242-4.5742-6.5-5.8828l-7.1211-3.6016v-78.078c0.015625-2.9805-0.80859-5.9062-2.3789-8.4375-1.5703-2.5352-3.8242-4.5742-6.5-5.8828l-7.1211-3.6016v-62.078c0.015625-2.9805-0.80859-5.9062-2.3789-8.4375-1.5703-2.5352-3.8242-4.5742-6.5-5.8828l-7.1211-3.6016v-24.641c-0.015625-3.1602-0.96094-6.25-2.7188-8.8789l-24-36c-1.3516-2.0195-3.1602-3.6914-5.2812-4.8789v-40.641h-16v40.641c-2.1211 1.1875-3.9297 2.8594-5.2812 4.8789l-24 36c-1.7578 2.6289-2.7031 5.7188-2.7188 8.8789v24.641l-7.1211 3.6016c-2.6758 1.3086-4.9297 3.3477-6.5 5.8828-1.5703 2.5312-2.3945 5.457-2.3789 8.4375v62.078l-7.1211 3.6016c-3.832 1.8984-6.7188 5.2773-8 9.3594h-129.76c-1.2812-4.082-4.168-7.4609-8-9.3594l-7.1211-3.6016v-62.078c0.015625-2.9805-0.80859-5.9062-2.3789-8.4375-1.5703-2.5352-3.8242-4.5742-6.5-5.8828l-7.1211-3.6016v-24.641c-0.015625-3.1602-0.96094-6.25-2.7188-8.8789l-24-36c-1.3516-2.0195-3.1602-3.6914-5.2812-4.8789v-40.641h-16v40.641c-2.1211 1.1875-3.9297 2.8594-5.2812 4.8789l-24 36c-1.7578 2.6289-2.7031 5.7188-2.7188 8.8789v24.641l-7.1211 3.6016c-2.6758 1.3086-4.9297 3.3477-6.5 5.8828-1.5703 2.5312-2.3945 5.457-2.3789 8.4375v62.078l-7.1211 3.6016c-2.6758 1.3086-4.9297 3.3477-6.5 5.8828-1.5703 2.5312-2.3945 5.457-2.3789 8.4375v78.078l-7.1211 3.6016c-2.6758 1.3086-4.9297 3.3477-6.5 5.8828-1.5703 2.5312-2.3945 5.457-2.3789 8.4375v91.039h-8c-4.418 0-8 3.582-8 8v64c0 2.1211 0.84375 4.1562 2.3438 5.6562s3.5352 2.3438 5.6562 2.3438h192c2.1211 0 4.1562-0.84375 5.6562-2.3438s2.3438-3.5352 2.3438-5.6562v-64c0-2.1211-0.84375-4.1562-2.3438-5.6562s-3.5352-2.3438-5.6562-2.3438h-8v-91.039c-0.039062-0.53906-0.12109-1.0742-0.23828-1.6016l35.359-35.359h25.762l35.359 35.359h-0.003907c-0.11719 0.52734-0.19922 1.0625-0.23828 1.6016v91.039h-8c-4.418 0-8 3.582-8 8v64c0 2.1211 0.84375 4.1562 2.3438 5.6562s3.5352 2.3438 5.6562 2.3438h192c2.1211 0 4.1562-0.84375 5.6562-2.3438s2.3438-3.5352 2.3438-5.6562v-64c0-2.1211-0.84375-4.1562-2.3438-5.6562s-3.5352-2.3438-5.6562-2.3438zm-31.84-95.121c0.22656 0.17969 0.46875 0.33984 0.71875 0.48047l7.1211 3.6016v91.039h-16v-91.039zm-16-96c0.22656 0.17969 0.46875 0.33984 0.71875 0.48047l7.1211 3.6016v78.078l-8 4.0781-8-4.0781v-78.078zm-15.281-79.52 7.1211 3.6016v62.16l-8 4-8-4.0781v-62.082l8.1602-4.0781v-0.003906c0.22656 0.17969 0.46875 0.33984 0.71875 0.48047zm-40.879 179.6 8-4.0781 8 4.0781v91.039h-16zm-8-13.84-8-4.0781v-78.082l8-4.0781 8 4.0781v78.078zm16-96-8-4.0781v-62.082l8-4.0781 8 4.0781v62.078zm8 13.84 8-4.0781 8 4.0781v78.078l-8 4.0781-8-4.0781zm16 96 7.9219-4.0781 8.0781 4.0781v91.039h-16zm-24-254.56 17.039 25.602h-34.078zm-24 41.602h48v19.121l-8 4-8.8008-4.4805c-4.5195-2.3203-9.8789-2.3203-14.398 0l-8.8008 4.4805-8-4.0781zm-16 36.961 7.1211-3.6016c0.25-0.14062 0.49219-0.30078 0.71875-0.48047l8.1602 4.0781v62.078l-8 4.0781-8-4.0781zm16 176v91.039h-16v-91.039l8-4.0781zm-32-96 7.1211-3.6016c0.25-0.14062 0.49219-0.30078 0.71875-0.48047l8.1602 4.0781v78.078l-8 4.0781-8-4.0781zm-8.8789 92.398c0.25-0.14062 0.49219-0.30078 0.71875-0.48047l8.1602 4.0781v91.043h-16v-91.039zm-142.96-0.48047c0.22656 0.17969 0.46875 0.33984 0.71875 0.48047l7.1211 3.6016v91.039h-16v-91.039zm-16-96c0.22656 0.17969 0.46875 0.33984 0.71875 0.48047l7.1211 3.6016v78.16l-8 4-8-4.0781v-78.082zm-15.281-79.52 7.1211 3.6016v62.16l-8 4-8-4.0781v-62.082l8.1602-4.0781v-0.003906c0.22656 0.17969 0.46875 0.33984 0.71875 0.48047zm-40.879 179.6 8-4.0781 8 4.0781v91.039h-16zm-8-13.84-8-4.0781v-78.082l8-4.0781 8 4.0781v78.078zm16-96-8-4.0781v-62.082l8-4.0781 8 4.0781v62.078zm8 13.84 8-4.0781 8 4.0781v78.078l-8 4.0781-8-4.0781zm16 96 8-4.0781 8 4.0781v91.039h-16zm-24-254.56 17.039 25.602h-34.078zm-24 41.602h48v19.121l-8 4-8.8008-4.4805c-4.5195-2.3203-9.8789-2.3203-14.398 0l-8.8008 4.4805-8-4.0781zm-16 36.961 7.1211-3.6016c0.25-0.14062 0.49219-0.30078 0.71875-0.48047l8.1602 4.0781v62.078l-8 4.0781-8-4.0781zm16 176v91.039h-16v-91.039l8-4.0781zm-32-96 7.1211-3.6016c0.25-0.14062 0.49219-0.30078 0.71875-0.48047l8.1602 4.0781v78.078l-8 4.0781-8-4.0781zm-16 96 7.1211-3.6016c0.25-0.14062 0.49219-0.30078 0.71875-0.48047l8.1602 4.082v91.039h-16zm160 107.04v48h-176v-48zm-9.6797-121.76-6.3203-3.1992v-19.039h28.559zm-6.3203-38.238v-32h128v32zm99.441 16h28.559v19.039l-6.3203 3.1992zm188.56 192h-176v-48h176z"/>
 </g>
</svg>
