<?xml version="1.0" encoding="UTF-8"?>
<svg width="512pt" height="512pt" version="1.1" viewBox="0 0 512 512" xmlns="http://www.w3.org/2000/svg">
 <g fill="#443f3c">
  <path d="m455.52 137.51c-6.9219-16.66-11.207-34.176-12.738-52.059l-0.82031-9.5703-9.3398 2.2422c-17.48 4.1992-35.473 5.6562-53.535 4.332l-0.054687-0.003906c-31.523-2.3203-62.602 12.18-81.098 37.82-18.492 25.641-22.449 59.668-10.316 88.836l0.054688 0.125c6.9414 16.684 11.242 34.23 12.773 52.148l0.82031 9.5703 9.3398-2.2422c17.484-4.1992 35.492-5.6562 53.469-4.3398l0.19141 0.015625c31.516 2.2852 62.551-12.211 81.027-37.828 18.492-25.641 22.438-59.699 10.309-88.848zm-23.621 79.383c-15.148 21.004-40.605 32.887-66.387 31.02l-0.18359-0.015624c-16.605-1.2188-33.191-0.27734-49.445 2.793-2.2148-16.391-6.5625-32.434-12.969-47.828l-0.054687-0.125c-9.9336-23.879-6.6875-51.777 8.4766-72.797 14.105-19.559 37.137-31.203 61.133-31.203 1.7969 0 3.6016 0.066407 5.4102 0.19922l0.054688 0.003906c16.594 1.2148 33.176 0.27734 49.418-2.793 2.2109 16.355 6.543 32.355 12.902 47.668l0.082031 0.20312c9.957 23.926 6.7227 51.852-8.4375 72.875z"/>
  <path d="m427.78 164.32c1.3125-3.8086 1.668-7.9062 1.0078-11.996-1.0586-6.5312-4.5977-12.262-9.9648-16.133-4.5352-3.2695-9.9688-4.8438-15.395-4.6562-2.2969-5.8242-6.2227-10.938-11.398-14.668-7.1562-5.1602-15.895-7.2266-24.605-5.8164-8.7109 1.4102-16.352 6.1289-21.512 13.285-1.1562 1.6055-2.1602 3.2891-3.0039 5.0469-7.1523 0.54297-13.836 4.1836-18.188 10.215-2.5703 3.5625-4.1133 7.707-4.543 11.996-3.9336 1.7617-7.3828 4.5352-9.9492 8.0977-6.5273 9.0469-6.0469 21.055 0.38281 29.508-1.3125 3.8125-1.6758 7.9141-1.0117 12.004 1.0586 6.5352 4.5977 12.262 9.9609 16.133 4.5352 3.2734 9.9883 4.8477 15.395 4.6562 2.2969 5.8242 6.2227 10.938 11.398 14.668 5.832 4.207 12.586 6.2305 19.281 6.2305 10.262 0 20.387-4.7578 26.836-13.699 1.1562-1.6055 2.1602-3.2891 3.0039-5.0469 7.1523-0.54297 13.836-4.1836 18.188-10.215 2.5664-3.5625 4.1094-7.707 4.543-11.996 3.9336-1.7617 7.3828-4.5352 9.9492-8.0977 3.8711-5.3672 5.4219-11.922 4.3633-18.453-0.66016-4.0859-2.293-7.8633-4.7383-11.062zm-13.016 19.855c-1.3984 1.9414-3.4961 3.1367-5.9062 3.3711l-9.3359 0.91016 2.0859 9.1445c0.53906 2.3594 0.0625 4.7266-1.3359 6.668-1.957 2.7109-5.3242 3.9688-8.582 3.2109l-8.0391-1.875-1.8789 8.0391c-0.49609 2.125-1.4023 4.1055-2.6875 5.8906-5.3281 7.3867-15.668 9.0625-23.059 3.7344-3.8516-2.7773-6.3203-7.0938-6.7734-11.836l-1.1094-11.621-10.59 4.9141c-2.7148 1.2617-5.9023 0.96094-8.3203-0.78125-1.7891-1.2891-2.9688-3.1992-3.3203-5.3789-0.35156-2.1758 0.16406-4.3633 1.4531-6.1523l4.832-6.6992-6.6992-4.832c-3.6914-2.6641-4.5312-7.8359-1.8672-11.531 1.3984-1.9414 3.4961-3.1367 5.9023-3.3711l9.3359-0.91016-2.0859-9.1445c-0.53906-2.3594-0.0625-4.7266 1.3359-6.668 1.957-2.7109 5.3164-3.9727 8.582-3.2109l8.0391 1.875 1.8789-8.0391c0.49609-2.125 1.4023-4.1055 2.6875-5.8906 2.582-3.5781 6.3984-5.9375 10.754-6.6406 4.3516-0.70312 8.7227 0.32813 12.301 2.9102 3.8516 2.7773 6.3242 7.0938 6.7734 11.836l1.1094 11.621 10.59-4.9141c2.7148-1.2578 5.9023-0.96094 8.3203 0.78125 3.6953 2.6641 4.5312 7.8359 1.8672 11.527l-4.832 6.6992 6.6992 4.832c3.6992 2.6641 4.5352 7.8359 1.875 11.531z"/>
  <path d="m381.27 160.02c2.668-3.6992 1.832-8.8633-1.8672-11.527-3.6992-2.668-8.8633-1.832-11.527 1.8672-2.668 3.6992-1.832 8.8633 1.8672 11.527 3.6992 2.668 8.8594 1.832 11.527-1.8672z"/>
  <path d="m353.39 170.45c-3.6992-2.668-8.8633-1.832-11.527 1.8672-2.668 3.6992-1.832 8.8633 1.8672 11.527 3.6992 2.668 8.8633 1.832 11.527-1.8672 2.6641-3.6992 1.8281-8.8594-1.8672-11.527z"/>
  <path d="m385.01 183.08c-3.6992-2.668-8.8633-1.832-11.527 1.8672-2.668 3.6992-1.832 8.8633 1.8672 11.527 3.6992 2.668 8.8633 1.832 11.527-1.8672 2.668-3.6953 1.832-8.8594-1.8672-11.527z"/>
  <path d="m129.75 271.79-0.1875 0.042969c-17.555 4.168-35.527 5.6016-53.426 4.2539l-9.5742-0.71875 0.71875 9.5742c1.3516 17.926-0.085937 35.922-4.2656 53.48l-0.027343 0.11719c-7.3203 30.754 2.0156 63.746 24.367 86.102 17.32 17.32 41 26.828 65.102 26.828 7.0078 0 14.051-0.80469 20.98-2.4531l0.097656-0.023437c17.582-4.1875 35.594-5.6211 53.52-4.2734l9.5781 0.72266-0.71875-9.5781c-1.3516-17.934 0.085937-35.938 4.2656-53.484l0.042968-0.17969c7.293-30.73-2.0508-63.699-24.387-86.031-22.359-22.359-55.352-31.699-86.086-24.379zm94.406 106.55-0.042968 0.17188c-3.8555 16.195-5.582 32.723-5.1484 49.258-16.527-0.42969-33.07 1.2969-49.324 5.1641l-0.097656 0.023437c-25.164 5.9883-52.18-1.6758-70.508-20.004-18.328-18.328-25.984-45.379-19.984-70.578l0.027343-0.11719c3.8516-16.184 5.5781-32.703 5.1445-49.23 16.492 0.42969 32.988-1.2891 49.141-5.1211l0.19531-0.046875c25.219-6.0039 52.266 1.6523 70.594 19.98 18.309 18.312 25.973 45.344 20.004 70.5z"/>
  <path d="m198.31 325.36c-3.1055-3.1055-6.9531-5.293-11.117-6.4023-1.1094-4.1641-3.2969-8.0117-6.4023-11.117-7.8906-7.8906-19.824-9.3398-29.199-4.332-9.3711-5.0039-21.309-3.5586-29.199 4.332-3.9531 3.9531-6.3828 9.0664-7.0547 14.453-6.1172 1.3359-11.793 4.3945-16.305 8.9062-12.879 12.883-12.879 33.836 0 46.719 1.3984 1.3984 2.9023 2.6562 4.5 3.7695-0.60547 7.1484 1.9141 14.328 7.1758 19.59 3.1055 3.1055 6.9492 5.2891 11.117 6.4023 1.1094 4.1641 3.2969 8.0117 6.4023 11.117 7.8945 7.8906 19.828 9.3359 29.199 4.332 3.6328 1.9414 7.6562 2.9102 11.68 2.9102 6.3438 0 12.688-2.4141 17.52-7.2461 3.9531-3.9531 6.3828-9.0664 7.0547-14.453 6.1172-1.3359 11.793-4.3945 16.305-8.9062 12.879-12.879 12.879-33.836 0-46.719-1.3984-1.3984-2.9023-2.6562-4.5-3.7695 0.60938-7.1445-1.9141-14.324-7.1758-19.586zm0 58.395c-3.3594 3.3594-8.0156 5.1133-12.77 4.7969l-11.648-0.76172 3.1602 11.238c0.80859 2.8828 0.003906 5.9844-2.1016 8.0898-3.2188 3.2188-8.457 3.2188-11.68 0l-5.8398-5.8398-5.8398 5.8398c-3.2188 3.2188-8.4609 3.2227-11.68 0-1.6914-1.6914-2.5391-3.9531-2.3867-6.3672l0.59375-9.3555-9.3594 0.58984c-2.3945 0.16016-4.6758-0.69141-6.3711-2.3867-2.3633-2.3633-3.0703-5.8906-1.7969-8.9844l3.1406-7.6367-7.6367-3.1406c-2.0156-0.82813-3.8281-2.0391-5.3828-3.5938-6.4414-6.4375-6.4414-16.918 0-23.359 3.3594-3.3594 8.0039-5.1016 12.77-4.7969l11.648 0.76562-3.1602-11.238c-0.80859-2.8828-0.003906-5.9805 2.1016-8.0898 1.5586-1.5586 3.6328-2.418 5.8398-2.418 2.2031 0 4.2812 0.85938 5.8398 2.418l5.8398 5.8398 5.8398-5.8398c3.2188-3.2227 8.457-3.2188 11.68 0 1.6914 1.6914 2.5391 3.9531 2.3828 6.3711l-0.59375 9.3594 9.3594-0.59375c2.4102-0.15234 4.6758 0.69141 6.3672 2.3867 2.3633 2.3633 3.0703 5.8906 1.7969 8.9844l-3.1367 7.6367 7.6328 3.1406c2.0195 0.83203 3.832 2.0391 5.3867 3.5938 6.4453 6.4336 6.4453 16.914 0.003906 23.352z"/>
  <path d="m142.34 354.56c0 4.5586-3.6953 8.2578-8.2578 8.2578s-8.2578-3.6992-8.2578-8.2578c0-4.5625 3.6953-8.2578 8.2578-8.2578s8.2578 3.6953 8.2578 8.2578"/>
  <path d="m159.86 383.75c0 4.5625-3.6953 8.2617-8.2578 8.2617s-8.2578-3.6992-8.2578-8.2617c0-4.5586 3.6953-8.2578 8.2578-8.2578s8.2578 3.6992 8.2578 8.2578"/>
  <path d="m177.38 354.56c0 4.5586-3.6992 8.2578-8.2578 8.2578-4.5625 0-8.2617-3.6992-8.2617-8.2578 0-4.5625 3.6992-8.2578 8.2617-8.2578 4.5586 0 8.2578 3.6953 8.2578 8.2578"/>
  <path d="m501.21 117.96-0.042969-0.10156c-12.008-29.312-12.773-61.902-2.1641-91.746l0.078125-0.21875c2.8633-8.0508 0.070313-17.184-6.7891-22.211-6.9453-5.0859-16.488-4.8789-23.207 0.5l-0.16406 0.13281c-24.488 19.613-55.098 29.141-86.266 26.816-24-1.7852-48.207 2.7266-70.012 13.055-21.789 10.32-40.734 26.242-54.793 46.035-14.047 19.781-22.93 43.035-25.691 67.258-2.7617 24.215 0.65625 48.91 9.8633 71.391l0.042969 0.10156c3.6367 8.875 6.2383 18.031 7.8047 27.387-16.629-15.699-36.93-27.238-58.957-33.473-23.336-6.6055-48.145-7.1289-71.816-1.4922-30.656 7.3008-62.711 2.8906-90.246-12.406l-0.19531-0.10938c-7.4922-4.1641-16.957-2.8359-23.016 3.2227-6.0625 6.0586-7.3867 15.523-3.2188 23.027l0.097656 0.17578c15.305 27.547 19.711 59.602 12.395 90.332-5.6172 23.594-5.0977 48.402 1.5078 71.742 6.6055 23.336 19.164 44.738 36.312 61.891 17.152 17.148 38.551 29.707 61.891 36.312s48.145 7.1289 71.707 1.5156l0.10938-0.027344c30.656-7.2969 62.707-2.8906 90.246 12.41l0.19531 0.10547c2.918 1.6211 6.1367 2.4102 9.3398 2.4102 5.0117 0 9.9805-1.9375 13.68-5.6328 6.0586-6.0586 7.3867-15.523 3.2227-23.016l-0.10156-0.18359c-15.305-27.547-19.711-59.602-12.395-90.336 4.832-20.293 5.1094-41.48 0.89453-61.863 21.109-11.789 44.836-17.066 69.062-15.266 23.988 1.7852 48.207-2.7266 70.012-13.055 21.789-10.32 40.734-26.242 54.793-46.035 14.047-19.781 22.93-43.035 25.691-67.258 2.7539-24.215-0.66406-48.91-9.8711-71.391zm-212.63 373.23 0.10156 0.18359c0.59375 1.0781 0.40234 2.4375-0.46875 3.3086-0.87109 0.875-2.2344 1.0625-3.3047 0.46875l-0.19531-0.10547c-21.348-11.859-45.082-17.934-69.055-17.934-11.023 0-22.102 1.2852-33.016 3.8828l-0.10938 0.027344c-42.195 10.043-87.457-2.7656-118.12-33.434-30.668-30.668-43.48-75.93-33.418-118.2 8.2578-34.68 3.2695-70.941-14.047-102.11l-0.097656-0.17578c-0.60156-1.0781-0.41016-2.4414 0.46484-3.3125 0.87109-0.875 2.2344-1.0625 3.3047-0.47266l0.19531 0.10938c31.164 17.312 67.426 22.301 102.18 14.023 42.195-10.047 87.457 2.7656 118.12 33.434 30.668 30.668 43.48 75.93 33.418 118.2-8.2578 34.68-3.2695 70.938 14.047 102.11zm183.34-244.14c-25.121 35.375-67.312 55.363-110.19 52.176-26.035-1.9375-51.625 3.3594-74.645 15.359-4.457-13.266-10.852-25.812-18.938-37.195-0.03125-18.855-3.6523-37.234-10.785-54.645l-0.042969-0.10156c-16.527-40.344-11.164-87.418 14-122.85 25.121-35.375 67.32-55.367 110.19-52.176 35.262 2.625 69.977-8.1719 97.738-30.398l0.16406-0.13281c0.91797-0.73828 2.1758-0.76562 3.125-0.070312 1.0195 0.74609 1.4219 2.125 0.99609 3.332l-0.078125 0.21875c-11.98 33.699-11.117 70.477 2.4258 103.53l0.042969 0.10156c16.52 40.344 11.156 87.418-14.004 122.85z"/>
 </g>
</svg>
