<?xml version="1.0" encoding="UTF-8"?>
<svg width="512pt" height="512pt" version="1.1" viewBox="0 0 512 512" xmlns="http://www.w3.org/2000/svg">
 <path d="m505.4 282.14c4.2812-5.5938 6.6016-12.398 6.6016-19.562 0-11.824-6.3164-22.5-16.578-28.191-1.1484-20.148-17.906-36.188-38.336-36.188-3.7148 0-7.375 0.54688-10.887 1.5859-7.4414-11.203-20.016-18.105-33.887-18.105-3.9883 0-7.9805 0.60156-11.805 1.7578 2.3555-12.055 5.7188-23.914 10.074-35.516 10.805-2.668 18.836-12.434 18.836-24.047 0-11.41-7.7539-21.035-18.27-23.902 1.1289-2.8281 1.7539-5.9062 1.7539-9.1289 0-13.66-11.113-24.773-24.773-24.773s-24.773 11.113-24.773 24.773c0 3.2266 0.625 6.3047 1.75 9.1328-10.512 2.8633-18.266 12.488-18.266 23.898 0 9.7266 5.6367 18.16 13.812 22.211-3.8359 10.777-6.8789 21.754-9.1172 32.891-8.0781-8.7383-19.453-13.812-31.574-13.812-2.0938 0-4.1641 0.15234-6.1992 0.44531-0.47266-12.273-6.6953-23.359-16.758-30.113-2.2344-18.836-17.203-33.824-36.027-36.098-6.8438-10.469-18.426-16.812-31.16-16.812-5.7539 0-11.52 1.3594-16.668 3.9336l-6.6953 3.3477-3.1172-1.5586c-7.4922-3.7461-15.879-5.7227-24.254-5.7227-10.742 0-21.145 3.1484-30.086 9.1094l-0.35156 0.23438v-10.766c9.6133-3.4102 16.516-12.59 16.516-23.355 0-11.41-7.7539-21.035-18.27-23.902 1.1289-2.8242 1.7539-5.9023 1.7539-9.1289 0-13.66-11.113-24.773-24.773-24.773s-24.773 11.113-24.773 24.773c0 3.2266 0.625 6.3047 1.75 9.1328-10.512 2.8633-18.266 12.492-18.266 23.898 0 10.766 6.9062 19.945 16.516 23.355v5.9336c0 4.2695 0.11328 8.5273 0.32812 12.773-17.293 3.3789-30.762 17.586-33.023 35.25l-6.6445 3.3203c-15.418 7.707-25.371 22.703-26.598 39.691l-2.5469 2.5469c-9.0898 9.0898-14.098 21.176-14.098 34.035 0 8.5469 2.2539 16.812 6.4531 24.07-13.785 8.6992-22.969 24.062-22.969 41.535 0 18.711 10.398 35.535 27.137 43.906l6.2305 3.1172c2.2773 17.812 15.953 32.105 33.453 35.332-32.551 39.742-50.305 89.191-50.305 141.07v8.2578h8.2578c74.832 0 143.58-37.051 184.8-98.148 23.668 58.582 81.164 98.148 145.52 98.148h8.2578v-8.2578c0-36.523-12.543-71.43-35.523-99.43 0.875-0.57422 1.7422-1.1719 2.582-1.8008l8.3008-6.2266c7.6094 10.086 19.691 16.617 33.27 16.617 6.4336 0 12.879-1.5234 18.633-4.3984l5.7695-2.8867 5.9648 2.9805c5.6289 2.8164 11.93 4.3008 18.219 4.3008 18.73 0 34.984-12.691 39.527-30.859l1.2344-4.9336c10.812-6.6719 17.445-18.309 17.621-31.172 18.852-3.9766 33.047-20.738 33.047-40.758 0-6.4336-1.5234-12.879-4.3984-18.633zm-103.92-81.387c3.3438-1.6719 7.0938-2.5586 10.832-2.5586 7.7656 0 14.84 3.6445 19.332 9.6289l-35.258 30.223v-11.898c0-7.8789 0.42578-15.707 1.2461-23.473zm-13.352-58.434c1.6641 1.4922 3.5312 2.7617 5.5547 3.7617-2.9414 8.2695-5.4219 16.66-7.4297 25.148l-15.234-3.0469c1.8438-6.832 4.0234-13.59 6.5312-20.262 3.9961-0.98438 7.6094-2.9375 10.578-5.6016zm-5.1133 45.109c-2.0859 12.742-3.1445 25.668-3.1445 38.723v38.109h-16.516v-38.109c0-14.141 1.3281-28.129 3.957-41.863zm21.629-55.297c-4.5547 0-8.2578-3.7031-8.2578-8.2578 0-4.5547 3.7031-8.2578 8.2578-8.2578 4.5547 0 8.2578 3.7031 8.2578 8.2578 0 4.5547-3.7031 8.2578-8.2578 8.2578zm-16.516-49.547c4.5547 0 8.2578 3.7031 8.2578 8.2578 0 4.5547-3.7031 8.2578-8.2578 8.2578-4.5547 0-8.2578-3.7031-8.2578-8.2578 0-4.5547 3.7031-8.2578 8.2578-8.2578zm-16.516 33.031c4.5547 0 8.2578 3.7031 8.2578 8.2578 0 4.5547-3.7031 8.2578-8.2578 8.2578-4.5547 0-8.2578-3.7031-8.2578-8.2578 0-4.5547 3.7031-8.2578 8.2578-8.2578zm-29.574 77.879 5.9766 8.9609c-0.74219 7.5-1.1289 15.055-1.1602 22.652-4.9883-5.8125-10.75-10.965-17.16-15.234l-3.0469-2.0312-9.1641 13.742 3.0469 2.0312c10.824 7.2148 19.391 17.516 24.578 29.402-13.684-10.043-29.227-17.395-45.812-21.543l-4.0078 16.023c13.324 3.332 25.879 9.0273 37.109 16.746-2.832-0.003907-5.7734-0.007813-8.7305-0.015626h-0.32422c-21.207 0-42.438 4.4961-61.867 13.031l-1.9219-1.2812c-7.3945-4.9336-11.812-13.188-11.812-22.082 0-7.0898 2.7617-13.75 7.7734-18.762l8.7461-8.7461-0.003907-3.418c0-13.66 11.113-24.773 24.773-24.773h3.418l8.7461-8.7461c5.0117-5.0117 11.676-7.7734 18.762-7.7734 8.8945 0 17.148 4.418 22.082 11.816zm-110.93 126.2c0.078125 6.8867 2.1562 13.453 5.9531 19.027-3.7969 5.8594-5.832 12.715-5.832 19.898v0.45312c0 9.9648 3.8828 19.336 10.926 26.383 3.9883 3.9922 8.7266 6.957 13.891 8.7891-3.2539 1.3906-6.7891 2.1406-10.406 2.1406-7.0859 0-13.75-2.7617-18.762-7.7734l-12.164-12.164-10.641 10.641c-5.9961 5.9961-13.965 9.2969-22.445 9.2969-12.102 0-22.98-6.7227-28.391-17.547l-3.75-7.4961 35.535-82.914 13.699 36.531 15.465-5.7969-17.781-47.414 29.664 23.73 10.316-12.898-22.906-18.324h19.012c2.0938 8.4766 6.7305 16.137 13.352 21.953-9.2969 7.9141-14.891 19.719-14.75 32.18zm-110.66 76.691h-57.355c7.0898-11.613 15.363-22.586 24.773-32.758 11.832 10.496 26.895 16.242 42.844 16.242h4.5703l0.55859 1.1211zm3.4219-320.14c2.3828 2.1367 5.1836 3.8164 8.2578 4.9102v16.23c0 6.1133 0.28125 12.191 0.82812 18.223h-15.613c-1.1367-9.4297-1.7305-18.949-1.7305-28.52v-5.9336c3.0742-1.0898 5.875-2.7734 8.2578-4.9102zm11.293 55.879c7.9141 45.23 31.094 86.633 65.797 117.06-5.6289 1.5156-10.832 4.1953-15.301 7.8359-33.93-34.203-56.762-77.957-65.746-124.89zm43.918-33.031c5.8242 0 11.66 1.3789 16.867 3.9805l10.504 5.25 14.086-7.043c2.8672-1.4336 6.0742-2.1914 9.2773-2.1914 7.9102 0 15.02 4.3945 18.559 11.469l2.5234 5.0469 5.1016 0.003906c13.66 0 24.773 11.113 24.773 24.773v5.1016l4.5664 2.2812c7.3711 3.6875 11.953 11.098 11.953 19.336v4.4961c-2.7852 1.7305-5.3945 3.7852-7.7734 6.1641l-4.0586 4.0586c-19.926 1.7148-35.848 17.641-37.562 37.562l-4.0586 4.0586c-6.6641 6.6641-10.867 15.125-12.172 24.289h-6.0273c-2.3008-1.6562-4.5703-3.3516-6.7812-5.1055l2.4258-8.4883c5.9141-20.691 17.082-39.672 32.297-54.891l-11.68-11.68c-17.195 17.199-29.82 38.648-36.5 62.031l-0.27734 0.97266c-2.375-2.2969-4.6914-4.6445-6.9297-7.0586v-12.074c0-17.844 5.2305-35.121 15.129-49.969l-13.742-9.1602c-10.215 15.32-16.227 32.828-17.598 51.062-18.777-26.945-30.254-58.668-32.785-91.977l8.9609-5.9766c6.2148-4.1328 13.449-6.3242 20.922-6.3242zm-38.695-33.031c-4.5547 0-8.2578-3.7031-8.2578-8.2578 0-4.5547 3.7031-8.2578 8.2578-8.2578 4.5547 0 8.2578 3.7031 8.2578 8.2578 0 4.5508-3.7031 8.2578-8.2578 8.2578zm-16.516-49.551c4.5547 0 8.2578 3.7031 8.2578 8.2578 0 4.5547-3.7031 8.2578-8.2578 8.2578-4.5547 0-8.2578-3.7031-8.2578-8.2578 0-4.5508 3.7031-8.2578 8.2578-8.2578zm-16.516 33.031c4.5547 0 8.2578 3.7031 8.2578 8.2578 0 4.5547-3.7031 8.2578-8.2578 8.2578-4.5547 0-8.2578-3.7031-8.2578-8.2578 0-4.5508 3.7031-8.2578 8.2578-8.2578zm-74.324 165.16c0-8.4453 3.2891-16.387 9.2617-22.355l7.2539-7.2578v-3.4219c0-12.133 6.7422-23.043 17.594-28.469l15.441-7.7148v-5.1055c0-11.398 7.7422-21.02 18.238-23.895 3.6133 31.168 12.91 61.371 27.223 89.059-14.629-4.8359-30.008-7.3555-45.461-7.3555v16.516c20.629 0 41.113 5.0547 59.387 14.613 0.42188 0.64062 0.86328 1.2695 1.2891 1.9023h-94.168c-3.6523 0-7.2109 0.41406-10.637 1.1758-3.5195-5.1953-5.4219-11.328-5.4219-17.691zm16.516 107.36v-5.1016l-15.027-7.5117c-11.105-5.5586-18.004-16.723-18.004-29.141 0-17.957 14.613-32.57 32.574-32.57h102.74c-22.035 6.9062-42.227 19.105-58.57 35.449l11.68 11.68c15.215-15.219 34.199-26.387 54.891-32.297l6.5391-1.8672c0.75 0.82422 1.5156 1.6289 2.2773 2.4414-15.27 7.207-28.52 17.977-38.773 31.652l-4.3477 5.793 13.215 9.9102 4.3438-5.793c7.3945-9.8594 16.641-17.934 27.219-23.855l-35.359 82.5h-4.2305c-12.855 0-24.941-5.0078-34.035-14.098l-2.418-2.418h-19.934c-13.66 0-24.777-11.117-24.777-24.773zm4.4766 90.836h49.91l-51.969 51.969 11.68 11.68 35.453-35.453v40.621c-20.762 7.9883-42.969 12.672-65.895 13.594 1.1602-28.941 8.3086-56.91 20.82-82.41zm61.59 61.598v-49.918l28.977-28.977c9.0312 10.867 22.449 17.297 37.035 17.297 3.0391 0 6.0352-0.28125 8.9609-0.82812-19.844 26.785-45.617 48.062-74.973 62.426zm109.24-66.938c6.293 3.4805 13.395 5.3398 20.785 5.3398 2.168 0 4.3164-0.18359 6.4336-0.50781l12.188 12.188v37.449c-17.09-14.488-30.777-33.055-39.406-54.469zm55.922 66.543v-33.008l35.449 35.449 11.68-11.68-18.934-18.934h25.453c6.9766 15.434 11.129 32.102 12.16 49.289-23.809-1.4453-46.332-8.9414-65.809-21.117zm44.809-44.688h-33.129l-23.445-23.445c1.5078-0.97266 2.957-2.0352 4.3359-3.1914 6.9102 6.4141 16.062 10.121 25.895 10.121 4.332 0 8.6484-0.5625 12.836-1.6328 5.0156 5.7227 9.5273 11.789 13.508 18.148zm-5.0781-40.121c-6.0938 4.5703-13.648 7.0898-21.266 7.0898-8.2422 0-15.652-4.582-19.336-11.953l-2.2812-4.5625h-9.0859c-5.5508 0-10.773-2.1641-14.703-6.0898-3.9258-3.9297-6.0898-9.1523-6.0898-14.707v-0.45312c0-5.3906 2.0742-10.434 5.8398-14.199l5.8711-5.8711-6.4727-6.4062c-3.4023-3.3633-5.3047-7.8516-5.3555-12.637l-0.015625-1.2852c-0.10547-9.5586 5.3516-18.484 13.895-22.738l0.75-0.37109c18.883-9.4023 40.004-14.367 61.094-14.367h0.28906c0.90625 0.003906 1.8125 0.003906 2.7148 0.003906l-41.691 26.059 8.7539 14.004 30.789-19.242-17.113 23.957 13.441 9.5977 15.113-21.16c-3.5312 18.84-5.3203 37.992-5.3203 57.277 0 3.3789 0.41406 6.6641 1.1797 9.8125zm130.48-25.312-3.8828 1.9375-3.0312 12.113c-2.6992 10.805-12.363 18.352-23.504 18.352-3.7422 0-7.4883-0.88281-10.832-2.5586l-13.352-6.6719-13.156 6.5781c-3.4727 1.7344-7.3633 2.6523-11.246 2.6523-13.867 0-25.145-11.281-25.145-25.145 0-24.641 3.082-49.055 9.1484-72.828l16.152 43.07 15.465-5.7969-20.465-54.57 22.168 36.945 14.164-8.4961-16.781-27.973 66.914 46.84c5.543 3.8789 8.8516 10.234 8.8516 17-0.003906 7.9023-4.4023 15.016-11.469 18.551zm41.84-70.055c1.7344 3.4727 2.6523 7.3633 2.6523 11.246 0 12.094-8.582 22.219-19.973 24.609-2.7266-5.8906-6.9727-11.062-12.438-14.891l-41.879-29.312 23.57 3.3672 2.3359-16.352-31.637-4.5195 25.902-12.953-7.3867-14.773-35.793 17.898 44.652-38.273c3.9648-3.3984 9.0195-5.2695 14.242-5.2695 12.074 0.003907 21.891 9.8203 21.891 21.887v7.9961l7.8125 3.9062c5.3672 2.6836 8.7031 8.0781 8.7031 14.078 0 4.2031-1.6367 8.1562-4.6094 11.129l-5.4375 5.4375z" fill="#443f3c"/>
</svg>
