<?xml version="1.0" encoding="UTF-8"?>
<svg width="512pt" height="512pt" version="1.1" viewBox="0 0 512 512" xmlns="http://www.w3.org/2000/svg">
 <path d="m488 336h-16v-24c0-2.1211-0.84375-4.1562-2.3438-5.6562s-3.5352-2.3438-5.6562-2.3438h-12.688l-29.656-29.656c-1.5-1.5-3.5352-2.3438-5.6562-2.3438h-104v-88c0-3.4453-2.2031-6.5-5.4688-7.5898l-10.531-3.5117v-68.898c0-3.0312-1.7109-5.8008-4.4219-7.1562l-11.578-5.7891v-35.055c0-2.1211-0.84375-4.1562-2.3438-5.6562s-3.5352-2.3438-5.6562-2.3438h-8v-24c0-4.418-3.582-8-8-8s-8 3.582-8 8v24h-8c-4.418 0-8 3.582-8 8v35.055l-11.578 5.7891c-2.7109 1.3555-4.4219 4.125-4.4219 7.1562v68.898l-10.531 3.5117c-3.2656 1.0898-5.4688 4.1445-5.4688 7.5898v88h-104c-2.1211 0-4.1562 0.84375-5.6562 2.3438l-29.656 29.656h-12.688c-4.418 0-8 3.582-8 8v24h-16c-4.418 0-8 3.582-8 8v144c0 2.1211 0.84375 4.1562 2.3438 5.6562s3.5352 2.3438 5.6562 2.3438h464c2.1211 0 4.1562-0.84375 5.6562-2.3438s2.3438-3.5352 2.3438-5.6562v-144c0-2.1211-0.84375-4.1562-2.3438-5.6562s-3.5352-2.3438-5.6562-2.3438zm-32 0h-16v-8c0-2.7266-0.46484-5.4297-1.375-8h17.375zm-128 0h-16v-16h17.375c-0.91016 2.5703-1.375 5.2734-1.375 8zm16-8c0-4.418 3.582-8 8-8s8 3.582 8 8v8h-16zm30.625-8h18.754-0.003906c-0.91016 2.5703-1.375 5.2734-1.375 8v8h-16v-8c0-2.7266-0.46484-5.4297-1.375-8zm33.375 8c0-4.418 3.582-8 8-8s8 3.582 8 8v8h-16zm4.6875-40 16 16h-116.69v-16zm-70.062 112h-14.625v-14.625c6.8242 2.4336 12.191 7.8008 14.625 14.625zm97.375 80h-16v-72c0-2.1211-0.84375-4.1562-2.3438-5.6562s-3.5352-2.3438-5.6562-2.3438h-22.625c2.5391-7.1719 8.3281-12.715 15.605-14.941 7.2734-2.2227 15.172-0.87109 21.289 3.6562 6.1172 4.5234 9.7266 11.676 9.7305 19.285zm-32-64v64h-16v-24c0-8.5742-4.5742-16.496-12-20.785-7.4258-4.2852-16.574-4.2852-24 0-7.4258 4.2891-12 12.211-12 20.785v24h-16v-64zm-32 64h-16v-24c0-4.418 3.582-8 8-8s8 3.582 8 8zm-224 0h-16v-24c0-4.418 3.582-8 8-8s8 3.582 8 8zm-8-48c-6.3633 0.007812-12.465 2.5391-16.961 7.0391-4.5 4.4961-7.0312 10.598-7.0391 16.961v24h-16v-64h80v64h-16v-24c-0.007812-6.3633-2.5391-12.465-7.0391-16.961-4.4961-4.5-10.598-7.0312-16.961-7.0391zm-56 48h-16v-72c0.003906-7.6094 3.6133-14.762 9.7305-19.285 6.1172-4.5273 14.016-5.8789 21.289-3.6562 7.2773 2.2266 13.066 7.7695 15.605 14.941h-22.625c-4.418 0-8 3.582-8 8zm96-80h-14.625c2.4336-6.8242 7.8008-12.191 14.625-14.625zm16 14.246 48-12v31.129c-7.3438-2.6016-15.496-1.4727-21.859 3.0273-6.3633 4.4961-10.145 11.805-10.141 19.598v24h-16zm32 41.754c0-4.418 3.582-8 8-8s8 3.582 8 8v24h-16zm32 0c0-4.418 3.582-8 8-8s8 3.582 8 8v24h-16zm8-24c-2.7266 0-5.4297 0.46484-8 1.375v-31.129l48 12v65.754h-16v-24c-0.007812-6.3633-2.5391-12.465-7.0391-16.961-4.4961-4.5-10.598-7.0312-16.961-7.0391zm-14.059-47.762c-1.2734-0.31641-2.6094-0.31641-3.8828 0l-54.059 13.516v-15.508l56-14 56 14v15.508zm-161.94-64.238c4.418 0.003906 7.9961 3.582 8 8v8h-16v-8c0.003906-4.418 3.582-7.9961 8-8zm22.625 0h18.754-0.003906c-0.91016 2.5703-1.375 5.2734-1.375 8v8h-16v-8c0-2.7266-0.46484-5.4297-1.375-8zm33.375 8c0-4.418 3.582-8 8-8s8 3.582 8 8v8h-16zm30.625-8h17.375v16h-16v-8c0-2.7266-0.46484-5.4297-1.375-8zm81.375 33.754v-174.65l32 10.668v171.98zm0-191.52v-61.289l16 8v58.621zm-16-98.234h16v19.055l-4.4219-2.2109c-2.2539-1.125-4.9023-1.125-7.1562 0l-4.4219 2.2109zm-16 44.945 16-8v61.289l-16 5.332zm16 70.156v174.65l-32 8v-171.99zm-148.69 108.9h100.69v16h-116.69zm-43.312 32h17.375c-0.91016 2.5703-1.375 5.2734-1.375 8v8h-16zm-24 32h168v13.754l-9.0938 2.2734c-9.0234 0.25781-17.695 3.5547-24.613 9.3594-6.9141 5.8008-11.668 13.77-13.488 22.613h-17.605c-2.6562-13.078-11.656-23.973-24.004-29.039-12.344-5.0703-26.402-3.6523-37.484 3.7852-11.082 7.4375-17.723 19.91-17.711 33.254v72h-24zm448 128h-24v-72c0.003906-13.34-6.6406-25.805-17.719-33.234s-25.129-8.8516-37.469-3.7852c-12.34 5.0664-21.344 15.949-24.008 29.02h-17.605c-1.8203-8.8438-6.5703-16.812-13.488-22.613-6.9141-5.8047-15.586-9.1016-24.609-9.3594l-9.1016-2.2734v-13.754h168z" fill="#443f3c"/>
</svg>
