<?xml version="1.0" encoding="UTF-8"?>
<svg width="512pt" height="512pt" version="1.1" viewBox="0 0 512 512" xmlns="http://www.w3.org/2000/svg">
 <g fill="#443f3c">
  <path d="m421.49 165.71c-11.012-5.3125-20.77-12.914-28.617-22.293-11.008-16.586 7.7773-50.496 22.059-71.008 11.902 19.789 29.742 35.316 50.988 44.371 5.5938 1.8633 11.641-1.1641 13.504-6.7617 1.8594-5.5977-1.168-11.641-6.7656-13.504-27.348-9.1289-46.934-47.617-47.168-48-0.51172-0.89453-1.1562-1.7109-1.9062-2.4219-0.27734-0.28906-0.4375-0.66016-0.73438-0.91797h-0.003906c-1.0195-0.80469-2.1758-1.4258-3.4141-1.832-0.12891 0-0.21484-0.13672-0.33203-0.17188-0.11719-0.03125-0.4375 0-0.66016-0.0625-1.1367-0.29297-2.3164-0.39844-3.4883-0.3125-0.53516 0.11328-1.0625 0.26562-1.5781 0.46094-0.83594 0.16016-1.6484 0.42578-2.4219 0.78906-0.0625 0-0.14844 0-0.22266 0.074219-0.74609 0.36328-72.734 41.215-112.06 41.215-31.777 0-82.848-36.715-99.84-50.871-0.12891-0.10547-0.28906-0.13672-0.41406-0.23438-0.12891-0.097656-0.12891-0.17187-0.22266-0.23437l-0.003906 0.003906c-0.26562-0.14062-0.54297-0.26562-0.82031-0.375-0.78906-0.46094-1.6289-0.82031-2.5078-1.0664-0.44141-0.11719-0.89062-0.20313-1.3438-0.25781-0.82422-0.125-1.6562-0.14844-2.4844-0.074219-0.45703 0.039063-0.91016 0.10156-1.3555 0.19141-0.80859 0.19922-1.5898 0.49219-2.3281 0.875-0.42969 0.18359-0.84766 0.39844-1.2461 0.64063-0.16016 0.10547-0.35156 0.13672-0.5 0.25781-41.41 30.996-146.65 83.742-147.7 84.266-5.2734 2.6328-7.4102 9.043-4.7773 14.316 2.6328 5.2695 9.043 7.4102 14.312 4.7773 3.4258-1.7188 67.062-33.621 115.33-62.879-10.668 26.922-16.32 61.867 12.172 83.199 20.473 12.102 42.449 21.465 65.363 27.84 47.328 16.246 106.25 36.457 118.63 68.734h0.003906c4.2422 13.184 2.1836 27.59-5.5898 39.051-51.648 92.949-249.36 165.18-289.34 165.18-5.8906 0-10.668 4.7734-10.668 10.664s4.7773 10.668 10.668 10.668c43.926 0 251.73-74.934 307.99-176.16 10.918-16.953 13.449-37.977 6.8711-57.035-16-41.602-77.418-62.668-131.64-81.27-20.734-5.8711-40.703-14.176-59.488-24.734-26.113-19.586-4.5117-63.223 6.9336-82.465 20.074 15.266 67.809 48.332 104 48.332 25.09 0 59.328-13.141 85.281-25.09-12.691 23.051-22.902 52.555-8.8203 73.676h-0.003906c9.5312 12.125 21.652 21.965 35.477 28.801 24.727 14.676 48.066 28.531 48.066 71.945 0 5.8906 4.7734 10.668 10.664 10.668s10.668-4.7773 10.668-10.668c0-55.562-32.438-74.816-58.508-90.293z"/>
  <path d="m247.33 271.12c-0.51172 0.70312-51.703 71.105-120.84 80.98-5.832 0.83594-9.8828 6.2422-9.043 12.074 0.83594 5.832 6.2422 9.8828 12.074 9.0469 78.273-11.188 132.89-86.496 135.17-89.695 3.3633-4.793 2.2344-11.402-2.5273-14.805-4.7656-3.4062-11.383-2.3359-14.828 2.3984z"/>
  <path d="m202.99 365.25c1.1836 4.7539 5.4492 8.0859 10.344 8.0859 0.87891 0 1.7539-0.10938 2.6055-0.32031 45.867-11.457 79.211-55.414 80.609-57.281l-0.003906 0.003906c3.5352-4.7148 2.582-11.398-2.1328-14.934-4.7109-3.5352-11.398-2.582-14.934 2.1328-0.29687 0.40625-30.355 39.809-68.734 49.398-5.7031 1.4297-9.1719 7.207-7.7539 12.914z"/>
  <path d="m337.37 118.09c-28.332 11.211-60.367 7.7344-85.633-9.2891-4.7148-3.5352-11.398-2.582-14.934 2.1328-3.5352 4.7109-2.582 11.398 2.1328 14.934 19.094 13.047 41.656 20.074 64.777 20.18 14.262-0.023437 28.383-2.7852 41.602-8.1367 5.4727-2.1914 8.1328-8.4062 5.9414-13.879s-8.4062-8.1328-13.879-5.9414z"/>
 </g>
</svg>
