<?xml version="1.0" encoding="UTF-8"?>
<svg width="512pt" height="512pt" version="1.1" viewBox="0 0 512 512" xmlns="http://www.w3.org/2000/svg">
 <g fill="#443f3c">
  <path d="m78.348 346.55 8.0781-4.4688c1.043-0.57812 1.6953-1.6797 1.6953-2.8828l-0.011719-6.2305-8.0781-114.34c-0.10156-1.4453-1.1328-2.6484-2.543-2.9766-1.3945-0.32422-2.8555 0.31641-3.5859 1.5664-27.766 48.301-1.3867 124.34-0.24609 127.55 0.32422 0.91016 1.0234 1.6289 1.9297 1.9805 0.37891 0.13672 0.77344 0.21094 1.168 0.21094 0.55469 0.003907 1.1055-0.13672 1.5938-0.40625z"/>
  <path d="m116.39 324.21 8.1875-4.2812c1.0586-0.54688 1.7344-1.6289 1.7656-2.832l0.14453-6.2227-5.2383-114.52c-0.066406-1.4453-1.0703-2.6719-2.4688-3.0312-1.4062-0.36719-2.8711 0.23438-3.625 1.4727-28.953 47.594-4.4688 124.27-3.4141 127.5 0.30078 0.92188 0.98828 1.6602 1.8828 2.0273 0.40625 0.16016 0.82422 0.24219 1.2461 0.24219 0.52344 0.015625 1.0469-0.10547 1.5195-0.35938z"/>
  <path d="m152.11 308.66 8.3516-3.9414c1.082-0.51172 1.8008-1.5703 1.8789-2.7578l0.39062-6.2305-0.68359-114.62c-0.011719-1.4492-0.96094-2.7148-2.3438-3.1289-1.3828-0.41016-2.8789 0.12109-3.6758 1.332-30.824 46.406-9.3984 124-8.4727 127.27 0.26172 0.93359 0.92187 1.6992 1.8008 2.0977 0.42969 0.19922 0.89453 0.30078 1.3633 0.30078 0.46484 0 0.94922-0.11328 1.3906-0.32031z"/>
  <path d="m192.95 298.5 8.3359-3.7031c1.1172-0.5 1.8672-1.582 1.9453-2.8008l0.36719-5.9102-1.082-108.47c-0.015625-1.4297-0.95312-2.6875-2.3125-3.1094-1.3672-0.41406-2.8398 0.085938-3.6641 1.2539-30.734 43.93-9.0117 117.57-8.0703 120.68 0.27734 0.90234 0.92188 1.6367 1.7773 2.0273 0.43359 0.19922 0.90234 0.30078 1.3711 0.30078 0.45312 0.007813 0.90234-0.078125 1.332-0.26953z"/>
  <path d="m227.05 291.83 8.4922-3.3906c1.1328-0.44922 1.9219-1.4883 2.0469-2.6992l0.64062-5.9609 3.7891-109.79c0.050781-1.4297-0.83594-2.7305-2.1875-3.207-1.3477-0.48047-2.8516-0.03125-3.7227 1.1094-32.66 43.102-14.27 118.49-13.473 121.68 0.23047 0.92188 0.84375 1.6914 1.6836 2.1289 0.47656 0.23047 0.98828 0.35938 1.5 0.35938 0.42578 0.003906 0.83984-0.078126 1.2305-0.22656z"/>
  <path d="m265.11 279.33 8.5352-2.8984c1.1758-0.41016 2.0312-1.4375 2.1953-2.6797l0.74219-5.582 5.5742-102.6c0.082031-1.4062-0.74609-2.7148-2.0625-3.2305-1.2891-0.51562-2.8047-0.15234-3.7188 0.92578-33.445 39.418-16.262 110.72-15.512 113.73 0.22656 0.90234 0.80859 1.6602 1.6133 2.0977 0.49219 0.26953 1.0273 0.39844 1.5781 0.39844 0.34766 0.007812 0.70703-0.054688 1.0547-0.16016z"/>
  <path d="m307.66 262.02 8.4805-2.6641c1.2305-0.38281 2.125-1.4609 2.2734-2.75l0.60938-5.1602 3.3125-94.004c0.046874-1.3828-0.77734-2.6406-2.0547-3.1602-1.2656-0.52344-2.7383-0.18359-3.6797 0.85156-32.691 36.32-13.895 101.9-13.082 104.67 0.25 0.85156 0.82812 1.5625 1.6016 1.9727 0.48047 0.26172 1.0156 0.39062 1.5469 0.39062 0.33594 0 0.67188-0.050781 0.99219-0.14844z"/>
  <path d="m347.61 242.66c-0.47656 0-0.94531-0.10156-1.3828-0.30859-0.80469-0.375-1.4219-1.0547-1.7188-1.8906-0.83594-2.3555-20.105-58.18 6.332-91.227 0.85937-1.082 2.3086-1.5 3.625-1.0586 1.3125 0.44531 2.2031 1.668 2.2266 3.0508l1.6016 81.141-0.29297 4.5195c-0.082032 1.2852-0.91016 2.3945-2.1094 2.8516l-7.1211 2.7031c-0.37109 0.14844-0.76953 0.21875-1.1602 0.21875z"/>
  <path d="m391.2 137.49c-0.054687-1.3008-0.87891-2.4531-2.0898-2.9297-1.2344-0.47656-2.6016-0.17578-3.5234 0.74219-24.176 24.273-5.668 65.828-4.8633 67.586 0.54297 1.1914 1.7344 1.9258 2.9883 1.9258 0.3125 0 0.61328-0.039062 0.92578-0.13281l6.4141-1.875c1.3203-0.39062 2.2617-1.5547 2.3555-2.9336l0.21094-3.4297"/>
  <path d="m418.57 176.89 4.8125-1.2969c1.3555-0.36719 2.3281-1.5508 2.4258-2.9492l0.14844-2.543-2.0156-41.406c-0.0625-1.2812-0.85937-2.4062-2.0469-2.8828-1.1719-0.48828-2.5352-0.21875-3.4766 0.64453-18.672 17.5-4.2695 47.445-3.6562 48.711 0.5625 1.1484 1.7266 1.832 2.9531 1.832 0.28906 0.003906 0.57422-0.03125 0.85547-0.10938z"/>
  <path d="m207.14 403.02c0.47266-1.3633-0.003906-2.8828-1.1719-3.7344l-92.832-67.637-5.0898-3.1797c-1.0195-0.64062-2.293-0.67188-3.332-0.09375l-8.0742 4.4688c-0.85156 0.47266-1.4375 1.2891-1.6289 2.2422-0.1875 0.95312 0.046875 1.9297 0.64453 2.6875 2.125 2.6641 52.582 65.371 108.26 67.449h0.12109c1.3945 0.003906 2.6406-0.87109 3.1055-2.2031z"/>
  <path d="m244.24 387.04c0.43359-1.3828-0.078125-2.8828-1.2656-3.7031l-94.473-65.32-5.1602-3.0625c-1.0273-0.59766-2.3086-0.60938-3.3398 0l-7.9648 4.668c-0.83594 0.49219-1.4062 1.3203-1.5781 2.2695-0.16406 0.96094 0.097657 1.9297 0.71875 2.668 2.1875 2.6211 54.18 64.051 109.89 64.758h0.046875c1.4219 0.007813 2.6914-0.92187 3.125-2.2773z"/>
  <path d="m278.12 369.86c1.4453-0.039063 2.6914-1.0195 3.082-2.4219 0.37891-1.3867-0.1875-2.8711-1.4062-3.6406l-96.988-61.496-5.2891-2.8633c-1.0586-0.57812-2.3359-0.52344-3.3398 0.12891l-7.7734 4.9805c-0.8125 0.52344-1.3555 1.3828-1.4844 2.3398-0.12891 0.95703 0.17578 1.9219 0.82422 2.6406 2.2305 2.457 55.316 60.348 110.3 60.348z"/>
  <path d="m321.56 347.84c1.418-0.17969 2.5664-1.25 2.8281-2.6641 0.26562-1.3984-0.40625-2.8125-1.6602-3.4922l-95.555-51.871-5.1758-2.3281c-1.1094-0.5-2.4219-0.34766-3.3789 0.41016l-7.1719 5.6328c-0.74609 0.57812-1.1992 1.4492-1.2539 2.3906-0.054687 0.94141 0.30078 1.8594 0.96875 2.5273 2.0586 2.0273 50.996 49.941 101.27 49.941h0.003906c3.082 0 6.1562-0.19141 9.125-0.54688z"/>
  <path d="m354.88 320.39c1.3828-0.34766 2.3789-1.5625 2.4609-2.9805 0.085937-1.4297-0.75391-2.75-2.0898-3.2617l-88.996-34.57-4.7617-1.4609c-1.1641-0.35938-2.4492-0.039063-3.3008 0.83984l-5.625 5.6875c-0.66406 0.67188-1.0078 1.6016-0.94531 2.5273 0.070312 0.95312 0.53125 1.8125 1.2812 2.3906 1.7578 1.3398 43.418 32.91 84.652 32.91 6.0703 0.003906 11.895-0.69141 17.324-2.082z"/>
  <path d="m385.28 296.56c1.3359-0.44922 2.2383-1.6992 2.2383-3.1094 0-1.4062-0.89062-2.6641-2.2266-3.1094l-78.398-26.621-4.2148-1.0586c-1.1719-0.29297-2.3711 0.0625-3.1836 0.93359l-5.5 5.7891c-0.64453 0.67969-0.96875 1.5938-0.89453 2.5195 0.070313 0.93359 0.53125 1.7812 1.2695 2.3516 1.3672 1.0508 33.812 25.707 69.402 25.707 7.5664-0.003906 14.805-1.1445 21.508-3.4023z"/>
  <path d="m408.26 266.52c1.2891-0.54688 2.0938-1.8477 2.0078-3.2422-0.085937-1.3867-1.043-2.5742-2.3906-2.9609l-68.844-19.457-3.7344-0.69141c-1.1484-0.19531-2.2617 0.17969-3.0312 1.0078l-5.3867 5.8789c-0.62109 0.67578-0.92578 1.5859-0.85156 2.5 0.082031 0.91797 0.53125 1.7578 1.2656 2.3203 1.0352 0.80469 25.719 19.656 55.707 19.656 8.8789 0.003906 17.379-1.6875 25.258-5.0117z"/>
  <path d="m437.23 233.54c1.2344-0.64062 1.9258-1.9922 1.7344-3.3633-0.19531-1.3789-1.2227-2.4844-2.5859-2.7695l-59.391-12.344-3.2305-0.32422c-1.1172-0.10938-2.0977 0.30078-2.7891 1.0898l-5.2773 5.9648c-0.59766 0.67969-0.89453 1.582-0.8125 2.4844 0.085938 0.90234 0.53906 1.7305 1.2539 2.2891 0.73828 0.57812 18.379 14.125 42.32 14.125h0.003907c9.9961-0.003906 19.684-2.4062 28.773-7.1523z"/>
  <path d="m460.18 197.59c1.1875-0.73047 1.7812-2.1367 1.4844-3.4922-0.29688-1.3672-1.418-2.3906-2.8008-2.5664l-50.258-6.3125-2.7578-0.03125c-0.79688 0.078125-1.8984 0.41016-2.5352 1.1484l-5.0391 5.8789c-0.57422 0.67969-0.85938 1.5703-0.77344 2.4609 0.09375 0.88672 0.53906 1.7031 1.2383 2.2578 0.51562 0.40625 12.676 9.8203 30.914 9.8242 10.406-0.003906 20.676-3.0898 30.527-9.168z"/>
  <path d="m476.81 167.53c1.2695-0.65625 1.9648-2.0625 1.7266-3.4727-0.24609-1.4062-1.3789-2.4922-2.7852-2.6914l-33.133-4.6094-1.8984-0.027344c-0.79297-0.14844-1.5664 0.26563-2.1719 0.77734l-4.9609 4.1914c-0.66406 0.56641-1.0859 1.3789-1.1523 2.2539-0.070313 0.87109 0.21484 1.7422 0.78516 2.4062 0.27734 0.3125 6.8047 7.707 20.113 7.707h0.003907c7.2539-0.003906 15.156-2.1992 23.473-6.5352z"/>
  <path d="m447.5 152.02 3.6875-0.98828c1.3633-0.36719 2.3281-1.5547 2.4258-2.9609l0.10938-2.0273-1.543-31.676c-0.0625-1.2812-0.85938-2.4062-2.0469-2.8828-1.1758-0.47656-2.5391-0.22656-3.4766 0.64453-14.695 13.773-3.4453 37.176-2.9609 38.168 0.5625 1.1484 1.7266 1.832 2.9492 1.832 0.28516 0 0.57812-0.035156 0.85547-0.10938z"/>
  <path d="m481.48 143.61c1.1328-0.66016 1.7461-2.0625 1.5352-3.4727-0.21875-1.4062-1.2227-2.5-2.4844-2.6992l-19.77-3.0781-1.1328-0.015625c-0.74219-0.011719-1.3867 0.26562-1.9297 0.77734l-2.9453 2.7891c-0.59375 0.56641-0.96875 1.3828-1.0234 2.2539-0.066407 0.875 0.1875 1.7422 0.70703 2.4023 0.16797 0.22656 4.3359 5.5039 12.668 5.5039 4.4609 0.007813 9.2969-1.4961 14.375-4.4609z"/>
  <path d="m50.953 392.84 1.7188-1.8398c21.938-23.5 62.777-67.25 167.71-94.551 110.57-28.754 139.06-54.109 182.2-92.477 46.629-41.477 63.32-61.105 72.285-71.648 5.9102-6.957 6.4219-15.043 5.8125-20.504-0.019532-1.0938-0.26172-6.5586-3.3945-6.5586-1.2383 0-2.5273 0.89453-4.0664 2.8125l-19.734 24.656c-105.89 121.4-211.46 138.16-212.55 138.31-181.99 33.465-218.89 113.79-219.24 114.6-0.082031 0.1875-0.10156 0.41016-0.054687 0.60937 0.14453 0.62891 3.707 15.5 14.074 15.5 4.5742 0.003907 9.6992-2.9961 15.238-8.9141z"/>
 </g>
</svg>
