<?xml version="1.0" encoding="UTF-8"?>
<svg width="512pt" height="512pt" version="1.1" viewBox="0 0 512 512" xmlns="http://www.w3.org/2000/svg">
 <g fill="#443f3c">
  <path d="m398.29 460.08h-284.59c-2.9453 0-5.332-2.3867-5.332-5.332v-186.98c0-2.9453 2.3867-5.3359 5.332-5.3359h284.59c1.4141 0 2.7695 0.5625 3.7734 1.5625 1 1 1.5586 2.3555 1.5586 3.7734v186.98c0 1.4141-0.55859 2.7734-1.5586 3.7734-1.0039 1-2.3594 1.5586-3.7734 1.5586zm-279.25-10.668 273.92 0.003906v-176.32h-273.92z"/>
  <path d="m506.67 460.08h-108.38c-2.9453 0-5.332-2.3867-5.332-5.332v-186.98c-0.003907-1.707 0.80859-3.3164 2.1875-4.3203 1.375-1.0234 3.1641-1.3242 4.7969-0.80078l108.38 35.254c2.2891 0.74219 3.7969 2.9258 3.6797 5.332v151.52c0 1.4141-0.5625 2.7734-1.5625 3.7734s-2.3555 1.5586-3.7695 1.5586zm-103.04-10.668 97.703 0.003906v-142.56l-97.707-32z"/>
  <path d="m473.81 460.08h-38.348c-2.9453 0-5.332-2.3867-5.332-5.332v-56.691c0.035157-6.8516 2.9141-13.383 7.9453-18.027 4.7031-4.2891 10.891-6.5859 17.254-6.3984s12.402 2.8398 16.848 7.3945c4.4414 4.5586 6.9414 10.664 6.9688 17.031v56.691c0 1.4141-0.5625 2.7734-1.5625 3.7734s-2.3594 1.5586-3.7734 1.5586zm-33.012-10.668h27.68v-51.355c0.046875-7.2148-5.5-13.227-12.695-13.762-3.8516-0.32812-7.6641 0.97266-10.516 3.5898-2.8477 2.6133-4.4688 6.3047-4.4688 10.172z"/>
  <path d="m506.67 352.29h-1.0664l-107.84-22.027h-284.05c-2.9453 0-5.332-2.3867-5.332-5.332 0-2.9453 2.3867-5.332 5.332-5.332h284.59c0.35547-0.050781 0.71484-0.050781 1.0664 0l108.38 22.133c2.9453 0.29297 5.0938 2.9219 4.8008 5.8672-0.29688 2.9453-2.9219 5.0938-5.8672 4.7969z"/>
  <path d="m436.27 398h-0.53516l-37.973-3.8398h-284.05c-2.9453 0-5.332-2.3867-5.332-5.332s2.3867-5.3359 5.332-5.3359h284.59l38.508 3.8398c2.9453 0.14844 5.2148 2.6562 5.0664 5.6016-0.14844 2.9453-2.6562 5.2148-5.6016 5.0664z"/>
  <path d="m506.67 405.04h-0.53516l-32.852-3.3086v0.003906c-1.418-0.13672-2.7227-0.83203-3.625-1.9336-0.90234-1.1016-1.3242-2.5195-1.1758-3.9336 0.30859-2.9102 2.9023-5.0273 5.8125-4.7461l32.906 3.3086v-0.003907c2.9453 0.14844 5.2148 2.6562 5.0664 5.6016-0.14453 2.9453-2.6523 5.2148-5.5977 5.0664z"/>
  <path d="m113.71 460.08h-108.38c-2.9453 0-5.332-2.3867-5.332-5.332v-151.79c-0.11719-2.4062 1.3906-4.5898 3.6797-5.3359l108.32-34.984c1.6211-0.50391 3.3828-0.20703 4.7461 0.80078 1.3789 1.0039 2.1914 2.6133 2.1875 4.3203v186.98c0 2.9062-2.3242 5.2773-5.2266 5.332zm-103.04-10.664h97.707v-174.35l-97.707 31.785z"/>
  <path d="m76.535 460.08h-38.297c-2.9453 0-5.332-2.3867-5.332-5.332v-56.691c0.007812-6.3672 2.4922-12.48 6.9297-17.043 4.4414-4.5625 10.48-7.2188 16.844-7.4023 6.3633-0.18359 12.547 2.1172 17.242 6.418 5.0312 4.6445 7.9102 11.176 7.9453 18.027v56.691c0 1.4141-0.5625 2.7734-1.5625 3.7734s-2.3555 1.5586-3.7695 1.5586zm-32.961-10.668h27.625v-51.355c0-7.6289-6.1836-13.816-13.812-13.816-7.6289 0-13.812 6.1875-13.812 13.816z"/>
  <path d="m5.332 352.29c-2.9453 0.29297-5.5703-1.8555-5.8672-4.8008-0.29297-2.9453 1.8555-5.5703 4.8008-5.8672l108.43-22.027v0.003906c1.4023-0.26562 2.8516 0.042969 4.0234 0.85547s1.9727 2.0586 2.2188 3.4648c0.28125 1.3828 0.003906 2.8281-0.77734 4.0078-0.78125 1.1797-1.9961 2-3.3828 2.2852l-108.38 21.973z"/>
  <path d="m76.535 397.95c-2.9492 0.14844-5.4531-2.1211-5.6016-5.0664-0.14844-2.9453 2.1211-5.4531 5.0664-5.5977l37.332-3.7344c1.418-0.14844 2.832 0.27344 3.9375 1.1758 1.1016 0.90234 1.7969 2.207 1.9297 3.625 0.27734 2.9297-1.8672 5.5312-4.8008 5.8125l-37.332 3.7344z"/>
  <path d="m5.332 405.04c-2.9453 0.14844-5.4531-2.1211-5.5977-5.0664-0.14844-2.9453 2.1211-5.4531 5.0664-5.5977l32.961-3.3086c2.9453-0.29297 5.5703 1.8555 5.8633 4.8008 0.29688 2.9453-1.8516 5.5703-4.7969 5.8672l-32.961 3.3086z"/>
  <path d="m506.67 332.35h-1.2266l-107.79-25.121h-283.3l-107.79 24.961c-1.3789 0.32422-2.8281 0.089844-4.0352-0.65625-1.2031-0.74609-2.0664-1.9375-2.3906-3.3164-0.67578-2.875 1.1016-5.75 3.9727-6.4297l108.43-25.117h286.93l108.43 25.117c2.9453 0.33984 5.0586 3.0039 4.7188 5.9492-0.33984 2.9453-3 5.0586-5.9453 4.7188z"/>
  <path d="m382.56 273.04h-253.12c-2.9453 0-5.3359-2.3867-5.3359-5.332v-57.707c0-2.9453 2.3906-5.332 5.3359-5.332 2.9453 0 5.332 2.3867 5.332 5.332v52.375h242.45v-52.375c0-2.9453 2.3867-5.332 5.332-5.332 2.9453 0 5.3359 2.3867 5.3359 5.332v57.707c0 1.4141-0.5625 2.7695-1.5625 3.7695s-2.3594 1.5625-3.7734 1.5625z"/>
  <path d="m388.54 216.03h-1.5469c-42.898-5.6602-86.121-8.5117-129.39-8.5352-44.223 0.042968-88.398 2.8555-132.27 8.4297h-1.707c-5.6094 0.039063-10.852-2.7891-13.902-7.4961-3.0508-4.7109-3.4844-10.648-1.1562-15.754 2.332-5.1016 7.1055-8.6641 12.66-9.4453 89.445-11.496 180-11.496 269.44 0 5.6289 0.63672 10.527 4.1406 12.953 9.2578 2.4258 5.1211 2.0312 11.129-1.0391 15.887-3.0703 4.7617-8.3867 7.5977-14.047 7.4961zm-0.375-10.668h0.53516-0.003906c2.9023-0.19922 5.1992-2.5234 5.3594-5.4219 0.16406-2.9023-1.8594-5.4688-4.7188-5.9922-88.52-11.41-178.14-11.41-266.66 0-3.1289 0.41797-5.3398 3.2695-4.9609 6.4023 0.45703 2.9531 3.0391 5.1016 6.0273 5.0117h0.69141c44.227-5.6016 88.758-8.4336 133.34-8.4805 43.602-0.011718 87.164 2.8203 130.4 8.4805z"/>
  <path d="m130.29 192.93h-0.74609c-2.8906-0.41406-4.9141-3.0781-4.5352-5.9727 3.4648-25.066 22.828-107.2 126.19-111.46h0.58594c103.41 4.1602 122.67 85.332 125.97 110.35l0.003907-0.003906c0.39453 2.9453-1.668 5.6562-4.6133 6.0547-2.9492 0.39453-5.6562-1.668-6.0547-4.6133-3.0391-22.828-20.426-97.387-115.73-101.23-94.824 3.9453-112.69 79.305-115.79 102.29-0.37109 2.6289-2.625 4.5859-5.2812 4.5859z"/>
  <path d="m173.92 188.67h-0.53516c-1.4062-0.14844-2.6992-0.85156-3.5898-1.9492-0.89062-1.1016-1.3047-2.5117-1.1562-3.918 2.5078-24.105 16-103.09 82.453-107.36h0.80078c21.332 1.332 72.266 14.453 82.613 106.67v-0.003906c0.33594 2.9453-1.7773 5.6094-4.7227 5.9492-2.9453 0.33594-5.6055-1.7773-5.9453-4.7227-3.1484-28-16.535-93.547-72.691-97.121-14.188 0.96094-62.879 10.668-72.055 97.867-0.36719 2.5938-2.5586 4.5352-5.1719 4.5898z"/>
  <path d="m218.08 186.05c-2.9453 0-5.332-2.3906-5.332-5.3359 2.3984-45.602 10.668-100.85 37.867-104.96v0.003907c0.58203-0.10938 1.1797-0.10938 1.7617 0 26.879 3.7305 35.625 58.824 38.078 104.16l-5.332 0.32031h-5.332c-3.0938-54.988-13.867-90.668-28.266-94.238-14.242 3.25-25.23 40.582-28.109 95.035-0.17187 2.8203-2.5078 5.0195-5.3359 5.0156z"/>
  <path d="m357.33 256.29h-22.504c-2.9453 0-5.3359-2.3867-5.3359-5.332v-30.723c0-2.9453 2.3906-5.332 5.3359-5.332h22.504c1.4141 0 2.7734 0.5625 3.7734 1.5625s1.5625 2.3555 1.5625 3.7695v30.723c0 1.4141-0.5625 2.7695-1.5625 3.7695s-2.3594 1.5625-3.7734 1.5625zm-16.961-10.668h11.629v-20.051h-11.84z"/>
  <path d="m312.11 256.29h-22.238c-2.9453 0-5.332-2.3867-5.332-5.332v-30.723c0-2.9453 2.3867-5.332 5.332-5.332h22.238c1.4141 0 2.7734 0.5625 3.7734 1.5625s1.5625 2.3555 1.5625 3.7695v30.723c0 1.4141-0.5625 2.7695-1.5625 3.7695s-2.3594 1.5625-3.7734 1.5625zm-16.906-10.668h11.574v-20.051h-11.574z"/>
  <path d="m267.15 256.29h-22.297c-2.9453 0-5.332-2.3867-5.332-5.332v-30.723c0-2.9453 2.3867-5.332 5.332-5.332h22.297c1.4141 0 2.7695 0.5625 3.7695 1.5625s1.5625 2.3555 1.5625 3.7695v30.723c0 2.9453-2.3867 5.332-5.332 5.332zm-16.961-10.668h11.625v-20.051h-11.625z"/>
  <path d="m222.13 256.29h-22.238c-2.9453 0-5.3359-2.3867-5.3359-5.332v-30.723c0-2.9453 2.3906-5.332 5.3359-5.332h22.238c1.4141 0 2.7734 0.5625 3.7734 1.5625s1.5586 2.3555 1.5586 3.7695v30.723c0 1.4141-0.55859 2.7695-1.5586 3.7695s-2.3594 1.5625-3.7734 1.5625zm-16.906-10.668h11.574v-20.051h-11.574z"/>
  <path d="m177.17 256.29h-22.504c-2.9453 0-5.3359-2.3867-5.3359-5.332v-30.723c0-2.9453 2.3906-5.332 5.3359-5.332h22.293c1.4141 0 2.7695 0.5625 3.7695 1.5625s1.5625 2.3555 1.5625 3.7695v30.723c0.003906 2.8633-2.2578 5.2188-5.1211 5.332zm-16.961-10.668h11.625l0.003906-20.051h-11.84z"/>
  <path d="m251.41 86.055c-2.9453 0-5.3359-2.3906-5.3359-5.3359v-23.465c0-2.9453 2.3906-5.332 5.3359-5.332 2.9453 0 5.332 2.3867 5.332 5.332v23.465c0 1.4141-0.5625 2.7734-1.5625 3.7734s-2.3555 1.5625-3.7695 1.5625z"/>
 </g>
</svg>
