<?xml version="1.0" encoding="UTF-8"?>
<svg width="512pt" height="512pt" version="1.1" viewBox="0 0 512 512" xmlns="http://www.w3.org/2000/svg">
 <g fill="#443f3c">
  <path d="m448 480v-134.4l-48-8v-65.602h-56v-42.398l-16 4.8008v-68.801l-32 9.6016v-95.203c0-19.199-13.602-35.199-32-39.199v-24.801h-16v24.801c-18.398 4-32 20-32 39.199v76.801l-16 5.6016v43.199l-16 4.8008v67.199l-16 4.8008v13.598h-56v41.602l-48 8v134.4h-48v16h480v-16zm-16-121.6v121.6h-32v-126.4zm-152 121.6h-48v-32c0-13.602 10.398-24 24-24s24 10.398 24 24zm-24-72c-22.398 0-40 17.602-40 40v32h-88v-128h256v128h-88v-32c0-22.398-17.602-40-40-40zm128-72h-88v-48h88zm-128-280c13.602 0 24 10.398 24 24h-48c0-13.602 10.398-24 24-24zm-24 40h48v39.199l-48 16zm-16 77.602 64-21.602v28l-64 20zm-16 48 96-29.602 16-4.8008v52l-112 33.602zm128 28.797v21.602h-48v64h-96v-42.398zm-160 61.602v24h-40v-24zm-88 46.398 32-5.6016v127.2h-32z"/>
  <path d="m248 104h16v32h-16z"/>
  <path d="m272 200h16v16h-16z"/>
  <path d="m272 224h16v16h-16z"/>
  <path d="m224 216h16v16h-16z"/>
  <path d="m224 240h16v16h-16z"/>
  <path d="m224 288h16v16h-16z"/>
  <path d="m224 312h16v16h-16z"/>
  <path d="m328 304h32v16h-32z"/>
  <path d="m144 408h56v-48h-56zm16-32h24v16h-24z"/>
  <path d="m224 400h64v-40h-64zm16-24h32v8h-32z"/>
  <path d="m368 360h-56v48h56zm-16 32h-24v-16h24z"/>
  <path d="m144 472h56v-48h-56zm16-32h24v16h-24z"/>
  <path d="m368 424h-56v48h56zm-16 32h-24v-16h24z"/>
  <path d="m408 368h16v40h-16z"/>
  <path d="m408 424h16v40h-16z"/>
  <path d="m88 368h16v40h-16z"/>
  <path d="m88 424h16v40h-16z"/>
 </g>
</svg>
