<?xml version="1.0" encoding="UTF-8"?>
<svg width="512pt" height="512pt" version="1.1" viewBox="0 0 512 512" xmlns="http://www.w3.org/2000/svg">
 <path d="m256 496.66c-7.2695-0.007812-14.238-2.8984-19.375-8.0391-5.1406-5.1367-8.0312-12.105-8.0391-19.375v-23.117c-9.6797-5.4141-9.375-18.203-9.0781-25.344-19.09-4.4414-37.246-12.219-53.633-22.977-4.5742 4.9648-14.074 15.418-25.039 12.203l-16.281 16.281c-6.9414 6.9375-17.059 9.6484-26.539 7.1055-9.4766-2.543-16.883-9.9492-19.422-19.43-2.5352-9.4805 0.17578-19.598 7.1172-26.535l16.359-16.359c-3.0508-10.422 5.5-19.047 12.203-25.031-10.703-16.387-18.473-34.508-22.961-53.555-7.25 0.29687-20.43 0.67969-25.68-9.0781h-22.883c-9.7148-0.09375-18.656-5.3242-23.496-13.75-4.8438-8.4219-4.8672-18.777-0.0625-27.223 4.8047-8.4453 13.719-13.715 23.434-13.855 0.10547-0.058594 23.125 0.042968 23.242 0 5.5078-9.8359 18.609-9.375 25.688-9.0703 4.0938-19.223 11.555-37.57 22.039-54.195-5.0938-4.7109-14.703-14.031-11.609-24.484l-16.281-16.281c-5.0938-5.168-7.957-12.129-7.9688-19.387-0.007813-7.2578 2.832-14.227 7.9141-19.41 5.1367-5.1992 12.137-8.1289 19.445-8.1406 7.3086-0.007813 14.32 2.9062 19.469 8.0938l16.359 16.359c10.25-3 18.809 5.2422 24.727 11.867 16.621-10.211 34.84-17.555 53.898-21.719-0.28516-7.418-1.0898-21.027 9.0391-26.586v-22.883c0.23437-9.6211 5.4961-18.414 13.863-23.168 8.3633-4.7578 18.609-4.7812 26.996-0.0625 8.3867 4.7188 13.688 13.488 13.969 23.105 0.054688 0.089844-0.039062 23.258 0 23.367 9.5195 4.8438 9.4688 16.266 9.0312 25.516 19.262 4.0273 37.629 11.516 54.211 22.109 5.875-6.5742 14.336-14.504 24.43-11.555l16.359-16.359c6.957-6.7852 16.977-9.3906 26.355-6.8516 9.3789 2.5352 16.719 9.8359 19.309 19.199 2.5898 9.3672 0.039063 19.402-6.7031 26.395-0.050781 0.10156-16.512 16.473-16.586 16.586 3.3047 9.9805-4.7344 18.223-11.609 24.406 10.891 16.445 18.605 34.781 22.75 54.062 7.3359-0.26562 20.219-0.54688 25.406 9.0859h22.883c9.793 0 18.844 5.2266 23.742 13.707 4.8945 8.4805 4.8945 18.934 0 27.414-4.8984 8.4805-13.949 13.707-23.742 13.707h-23.117c-5.6914 10.023-18.996 9.3125-26.164 9.0469-4.5234 18.926-12.051 37-22.289 53.547 5.0273 4.6445 15.531 14.188 12.336 25.156l16.281 16.281c6.9414 6.9414 9.6523 17.055 7.1094 26.535-2.5391 9.4805-9.9453 16.887-19.426 19.426-9.4805 2.543-19.594-0.16797-26.535-7.1094l-16.281-16.281c-10.414 3.0781-19.75-6.4766-24.484-11.594-16.523 10.719-34.898 18.27-54.188 22.258 0.29687 7.2188 0.6875 20.422-9.0781 25.688v22.883c-0.007812 7.2695-2.8984 14.238-8.0391 19.375-5.1367 5.1406-12.105 8.0312-19.375 8.0391zm-11.414-48.156v20.742c0 6.3047 5.1094 11.414 11.414 11.414s11.414-5.1094 11.414-11.414v-20.742zm30.828-16c0.50781-0.10156 1.375-0.89844 1.1484-9.3438-13.633 2-27.469 2.1484-41.141 0.4375-0.085937 3.3438-0.023437 7.8594 0.99219 8.7031zm145.23-11.867m-308.88-36.617c-6.7578 8.3125-25.945 18.75-14.664 31.039 12.23 10.902 22.594-8.0625 30.883-14.82zm272.27 16.219c8.293 6.7617 18.656 25.766 30.961 14.742 11.016-12.324-7.9844-22.668-14.742-30.961zm-156.47 5.625c49.238 8.8984 99.719-6.7812 135.25-42.004 35.535-35.227 51.656-85.566 43.191-134.88-21.703-128.32-188.55-169.65-269.66-67.215-71.938 86.039-18.012 224.71 91.219 244.1zm132.2-16.891c2.3516 2.4531 5.5391 5.5469 7.0078 5.5781 0.24609-0.21484 0.77734-0.58203 1.2031-0.88281l25.703-25.711c2.5781-2.2227-2.3047-5.4844-4.9531-8.4375-8.5156 10.875-18.23 20.754-28.961 29.453zm-215.22 5.0938c1.9766 0.42969 5.5547-2.875 7.9297-5.3516-10.883-8.5078-20.684-18.312-29.188-29.195-2.5 2.375-5.8438 5.7734-5.8281 7.25 0.97656 0.87109 25.941 26.465 27.086 27.297zm-58.094-158.68c-2.9453 0-6.0625 0.19531-6.75 1.0234l-0.20312 39c0.09375 0.50781 0.89062 1.3203 8.9453 1.1641-1.7773-13.664-1.707-27.508 0.20312-41.156-0.6875-0.015625-1.4375-0.03125-2.1953-0.03125zm336.72 41.172c7.8516 0.22656 9.0938-0.57031 9.3438-1.7188v-37.688c-0.26562-1.125-1.5859-1.8984-8.9531-1.7266 1.4453 13.68 1.3125 27.48-0.39063 41.133zm-380.34-31.977c-6.3047 0.015624-11.402 5.1367-11.387 11.441 0.015625 6.3047 5.1367 11.402 11.441 11.387h20.617v-22.828zm405.69 22.828h20.742c6.3047 0 11.414-5.1094 11.414-11.414s-5.1094-11.414-11.414-11.414h-20.742zm-88.68-144.43c10.809 8.5352 20.527 18.363 28.945 29.266 1.5898-2.1914 7.793-5.7031 4.8984-8.2188-0.51953-0.42969-25.449-25.594-26.047-25.969-2.2422-0.39062-5.4453 2.5312-7.7969 4.9219zm-241.9 21.555c-0.33594 1.9688 2.5781 5.2109 4.9844 7.5703 8.5234-10.883 18.402-20.629 29.398-29-2.3633-2.4727-5.6133-5.6641-7.0859-5.6562-0.87109 0.97656-26.465 25.941-27.297 27.086zm-12.719-50.875c-4.6094 0.054688-8.7461 2.8438-10.527 7.0977-1.7773 4.2539-0.86328 9.1562 2.332 12.48l14.742 14.734 16.219-16.219c-4.8242-3.793-15.699-19.031-22.766-18.094zm278.81 18.086 16.219 16.227 14.68-14.672c4.3242-4.5156 4.2383-11.664-0.19922-16.074-4.4336-4.4102-11.582-4.457-16.074-0.10547zm36.617 7.1484m-171.39-39.406c-6.6797 0-12.156 0.007812-12.586 0.007812-0.58594 0.10156-1.4531 0.89062-1.2266 9.3359 13.617-1.6992 27.391-1.707 41.008-0.015626-0.34766-1.7188 1.1172-9.0391-1.5625-9.3281zm-4.6641-16h22.828v-20.672c-0.10547-6.2383-5.2031-11.234-11.441-11.219-6.2383 0.015626-11.309 5.0352-11.387 11.273zm9.1406 323.53c-96.59 2.0078-161.77-113.29-111.71-195.95 43.145-82.449 169-88.238 220.22-11.664 64.492 83.152-2.9258 212.6-108.51 207.62zm2.2734-16.07c3.8164-0.042969 7.625-0.30078 11.414-0.76562v-34.805c-7.5664 1.125-15.262 1.125-22.828 0v35.031c3.7852 0.46875 7.6016 0.64844 11.414 0.53906zm-59.609-16.492c9.9336 6.2148 20.805 10.785 32.195 13.531v-36.516c-2.2891-0.77344-4.4922-1.6406-6.625-2.5859zm87.023-22.984v35.664c11.125-2.9219 21.801-7.3438 31.734-13.141l-25.102-25.102c-2.1328 0.9375-4.3438 1.8047-6.6328 2.5781zm-116.09-3.0234c4.7734 6.0039 10.125 11.52 15.977 16.477l24.344-24.344c-6.1797-4.5859-11.605-10.109-16.078-16.375zm137.04-7.8672 24.258 24.25c5.957-4.8359 11.348-10.332 16.062-16.383l-24.242-24.242c-4.4688 6.2656-9.8945 11.793-16.078 16.375zm-40.359-17.82v16.797c11.441-1.3203 22.301-5.7734 31.375-12.867l-11.797-11.797c-5.8398 4.0781-12.539 6.7695-19.578 7.8672zm-23.945 15.297c2.6211 0.64062 5.2734 1.1406 7.9453 1.4922v-16.789c-7.043-1.0938-13.738-3.7891-19.578-7.875l-11.805 11.805c6.8867 5.457 14.887 9.3359 23.438 11.367zm88.547-28.312 25.32 25.32c5.8867-9.8789 10.359-20.535 13.289-31.656h-36.172c-0.71875 2.1406-1.5391 4.25-2.4375 6.3359zm-183.81-6.3359c2.9258 11.121 7.3984 21.773 13.289 31.648l25.32-25.312c-0.89844-2.0859-1.7188-4.2031-2.4375-6.3359zm149.97 0.039063 11.938 11.93c6.8555-9.168 11.133-20.004 12.391-31.383h-16.672c-1.1133 6.9609-3.7266 13.598-7.6562 19.453zm-92.227 8.0469c0.875 1.3281 1.8047 2.625 2.7734 3.8828l11.938-11.938c-3.9297-5.8516-6.543-12.484-7.6562-19.445h-16.672c1.1289 9.7656 4.4141 19.16 9.6172 27.5zm32.344-11.773c8.5078 7.3242 20.254 9.6133 30.891 6.0195 10.641-3.5938 18.59-12.535 20.914-23.52 2.3281-10.984-1.3164-22.383-9.5859-29.977-8.5117-7.3203-20.254-9.6055-30.887-6.0117-10.637 3.5938-18.586 12.535-20.91 23.516-2.3281 10.98 1.3164 22.375 9.5781 29.973zm100.52-12.312h34.836c0.88672-7.5781 0.95313-15.234 0.20313-22.828h-35.047c1.1289 7.5664 1.1328 15.262 0.007813 22.828zm-193.23 0h34.453c-1.125-7.5664-1.1211-15.262 0.007813-22.828h-34.461c-0.6875 7.5938-0.6875 15.234 0 22.828zm160.26-19.414h16.672c-1.2539-11.379-5.5352-22.215-12.391-31.383l-11.953 11.953c3.9414 5.8398 6.5586 12.473 7.6719 19.43zm-109.5 0h16.672c1.1133-6.9609 3.7227-13.594 7.6484-19.445l-11.93-11.93c-6.8711 9.1562-11.152 19.992-12.391 31.375zm138.12-19.414h36.961c-2.6797-11.398-7.293-22.25-13.633-32.094l-25.773 25.773c0.90625 2.0781 1.7227 4.1836 2.4453 6.3203zm-186.32 0h36.25c0.71875-2.1406 1.5391-4.25 2.4375-6.3359l-25.875-25.875c-5.9609 9.9844-10.289 20.859-12.812 32.211zm119.29-19.297c7.0195 1.1172 13.699 3.8047 19.539 7.8594l11.844-11.844c-9.0781-7.0938-19.938-11.543-31.383-12.859zm-47.383-3.9844 11.797 11.805c5.8438-4.0859 12.543-6.7812 19.586-7.875v-16.852c-11.461 1.2969-22.332 5.7734-31.383 12.922zm87.688-13.828c6.1875 4.5742 11.621 10.09 16.102 16.344l24.32-24.32c-4.9805-5.8281-10.492-11.18-16.469-15.984zm-137.3-8.2422 24.555 24.555c4.4688-6.2656 9.8945-11.793 16.078-16.375l-24.406-24.406c-5.9258 4.8633-11.363 10.301-16.227 16.227zm116.41-2.6094c2.2578 0.76562 4.4453 1.625 6.5547 2.5547l24.977-24.977c-9.8359-5.918-20.449-10.434-31.531-13.414zm-87.062-23.125 25.602 25.602c2.1328-0.9375 4.3438-1.8047 6.6328-2.5781v-35.812c-11.355 2.5234-22.234 6.8438-32.234 12.789zm59.648 18.266c3.8203-0.003906 7.6367 0.27344 11.414 0.82812v-34.438c-7.5938-0.6875-15.234-0.6875-22.828 0v34.438c3.7773-0.55469 7.5938-0.83203 11.414-0.82812z" fill="#443f3c"/>
</svg>
