<?xml version="1.0" encoding="UTF-8"?>
<svg width="512pt" height="512pt" version="1.1" viewBox="0 0 512 512" xmlns="http://www.w3.org/2000/svg">
 <path d="m71.297 132.92c-1.8516 0.89844-3.2617 2.5039-3.9141 4.457-0.65625 1.9492-0.50391 4.0781 0.42578 5.9141 12.992 22.273 31.633 40.727 54.035 53.488 22.406 12.766 47.781 19.395 73.566 19.215 6.3438-0.015625 12.68-0.37109 18.984-1.0625v7.5664l-9.7773 8.6055c-1.6562 1.4609-2.6094 3.5586-2.6094 5.7656v16.312l-9.7734 8.6055c-1.6562 1.4609-2.6055 3.5586-2.6055 5.7656v16.309l-9.7773 8.6133c-1.6562 1.457-2.6055 3.5586-2.6016 5.7617v19.781c0 2.6133 1.332 5.0469 3.5312 6.4609l43.168 27.699-7.0078 123.55c-0.12109 2.1094 0.63281 4.1758 2.0859 5.7109 1.457 1.5391 3.4766 2.4062 5.5938 2.4023h62.797c2.1133 0.003906 4.1367-0.86328 5.5898-2.4023 1.4531-1.5352 2.207-3.6016 2.0898-5.7109l-7.0195-123.56 10.379-6.6562h-0.003906c3.5703-2.2891 4.6094-7.0391 2.3203-10.609-2.293-3.5703-7.043-4.6094-10.613-2.3164l-26.48 16.98v-20.391l50.293-32.258 5.4102 4.7578v12.148l-7.2227 4.6445c-3.5664 2.293-4.6016 7.0469-2.3086 10.613 2.293 3.5703 7.0469 4.6016 10.613 2.3086l10.754-6.9102c2.1992-1.4141 3.5273-3.8477 3.5273-6.4609v-19.832c0-2.207-0.94922-4.3047-2.6055-5.7656l-9.7578-8.5859-0.003906-16.305c0-2.207-0.94922-4.3086-2.6055-5.7656l-9.7734-8.6055v-16.312c0-2.207-0.94531-4.3086-2.6016-5.7656l-9.7773-8.6055v-7.5898c6.3906 0.70703 12.812 1.0742 19.242 1.0938 18.508 0.12109 36.879-3.1914 54.184-9.7656 0.054687 0 0.10938-0.054688 0.16406-0.082032 0.13672-0.054687 0.26562-0.13672 0.40625-0.20312l-0.003907-0.003907c0.32812-0.14453 0.64453-0.31641 0.94531-0.51172 0.0625-0.039062 0.11328-0.09375 0.17578-0.13281h-0.003906c0.34766-0.24219 0.67578-0.51172 0.97656-0.80859l0.054688-0.070312c0.32031-0.32812 0.60938-0.67969 0.86719-1.0547 0.050782-0.078125 0.085938-0.16406 0.13281-0.24219 0.21484-0.32812 0.40234-0.66797 0.56641-1.0234 0.0625-0.13281 0.09375-0.28125 0.14453-0.42578h-0.003906c0.125-0.32031 0.23047-0.65234 0.30859-0.98828 0.035156-0.16016 0.039062-0.32812 0.0625-0.48828v0.003906c0.058594-0.33984 0.09375-0.68359 0.10547-1.0273v-25.234l22.398 12.625h0.003906c0.47266 0.27734 0.98047 0.50391 1.5039 0.67188h0.050782c0.45703 0.14844 0.92578 0.25 1.4023 0.30469h0.28516 0.003906c0.39844 0.03125 0.80078 0.03125 1.2031 0 0.066406 0 0.12891 0 0.1875-0.03125v0.003906c0.42969-0.039063 0.85938-0.11328 1.2773-0.22656h0.050781c0.45703-0.125 0.90234-0.29688 1.3242-0.51172l0.054687-0.03125h0.003906c0.41797-0.21484 0.82031-0.46484 1.1953-0.74609 15.223-11.523 27.914-26.055 37.285-42.688 0.92578-1.832 1.082-3.9648 0.42578-5.9102-0.65234-1.9492-2.0625-3.5547-3.9062-4.457-17.867-8.8359-37.691-12.98-57.602-12.043 2.2344-11.383 2.7188-23.039 1.4375-34.57-0.33984-3.1562-2.5859-5.7734-5.6523-6.5938-11.574-2.5977-23.512-3.2031-35.293-1.793-2.0586 0.18359-3.9609 1.1914-5.2695 2.793-1.3086 1.6055-1.9141 3.668-1.6797 5.7227 0.23047 2.0547 1.2852 3.9336 2.9219 5.1992 1.6328 1.2695 3.7109 1.8281 5.7617 1.543 8.1211-0.91016 16.324-0.77344 24.41 0.40625 0.57031 9.7617-0.37109 19.555-2.7852 29.035-21.293 4.0352-41.641 12.012-60.008 23.516 0.69141-12.457 0.16406-24.949-1.5703-37.305 5.2578-4.0234 11.012-7.3438 17.125-9.8828 3.8828-1.6406 5.7188-6.1016 4.1133-9.9961-1.6016-3.8984-6.0469-5.7734-9.9609-4.207-5.0742 2.1094-9.9492 4.668-14.566 7.6523-11.949-45.984-40.691-62.375-42.375-63.297l-0.070313-0.03125-0.003906 0.003906c-0.29297-0.16016-0.60156-0.29297-0.91406-0.40625-0.16406-0.066406-0.32812-0.14844-0.51172-0.19922-0.26172-0.078125-0.51172-0.11328-0.79688-0.16406-0.28516-0.050782-0.43359-0.10938-0.66016-0.12891h-0.003906c-0.30469-0.015626-0.60938-0.015626-0.91016 0h-0.54297c-0.35547 0.042968-0.71094 0.10937-1.0547 0.19922-0.12891 0.03125-0.25781 0.039063-0.38281 0.078125h-0.003906c-0.31641 0.10938-0.62891 0.23438-0.93359 0.375-0.14844 0.066407-0.30078 0.11719-0.44531 0.1875-0.054688 0.03125-0.10938 0.039063-0.16016 0.070313-1.6836 0.92188-30.449 17.32-42.387 63.328v0.003906c-22.984-14.035-50.523-18.59-76.801-12.699-3.0664 0.83203-5.3047 3.457-5.6328 6.6172-1.2695 11.48-0.79297 23.09 1.4219 34.426-19.918-0.83594-39.73 3.3438-57.613 12.156zm217.93 102.6 5.4258 4.7773 0.003906 12.117-30.973 19.887v-20.398zm-84.234 35.48 5.4453-4.7617 37.887 24.312v20.379l-43.332-27.793zm43.34 1.3008-30.957-19.887v-12.098l5.4297-4.7969 25.52 16.383zm-18.574-50.551v-9.125c6.082-1.1367 12.289-2.5586 18.574-4.3008l0.003906 25.352zm-37.145 79.93 5.4258-4.7773 50.293 32.258v20.379l-55.719-35.746zm86.676 166.8h-46.551l6.0586-106.8 12.922 8.293 0.13672 0.085938c0.050782 0.035156 0.11328 0.039062 0.16406 0.078125 0.22656 0.13672 0.45703 0.26172 0.69141 0.375 0.28516 0.13281 0.58203 0.24219 0.88281 0.33594h0.027344c0.10156 0.035157 0.20312 0.09375 0.30859 0.12109l0.40625 0.097656h-0.007812c0.33984 0.066407 0.68359 0.10938 1.0273 0.125 0.21484 0 0.42969 0.082032 0.64453 0.082032 0.13281 0 0.25781-0.046875 0.38281-0.054688v-0.003906c0.45312-0.015625 0.90625-0.070312 1.3516-0.17188l0.19531-0.039063c0.18359-0.050781 0.36328-0.12109 0.54688-0.1875v-0.003906c0.30469-0.10547 0.60547-0.22656 0.89453-0.36719 0.16406-0.078125 0.31641-0.16406 0.47656-0.25781s0.19922-0.070312 0.29297-0.13281l13.078-8.3867zm27.746-185.34-43.352 27.789v-20.379l37.926-24.309 5.4258 4.7812zm-24.762-61.383-18.59 11.922v-25.363c6.2812 1.7305 12.473 3.1641 18.582 4.2969zm143.96-78.43c-6.9609 10.211-15.305 19.406-24.789 27.324l-29.391-16.535c-2.3711-1.3359-5.2734-1.3164-7.6289 0.050781-2.3516 1.3672-3.8047 3.8828-3.8203 6.6055v32.77c-26.922 9.0977-57.211 9.3984-90.363 0.67188 22.652-22.414 87.938-77.855 155.99-50.887zm-170.23-98.27c8.0547 6.0938 26.664 23.848 33.371 61.172v0.003907c0.039062 0.41406 0.10938 0.82031 0.21094 1.2227 2.5977 16.344 2.9688 32.961 1.1055 49.402-12.375 8.9531-23.973 18.945-34.656 29.859-10.699-11.031-22.324-21.121-34.754-30.156-1.8477-16.484-1.4453-33.141 1.2031-49.516 0.050781-0.23438 0.09375-0.47656 0.12109-0.71484 6.7148-37.379 25.352-55.152 33.398-61.273zm-117.8 91.848c5.4727 0.67969 10.895 1.7578 16.215 3.2148 1.9766 0.57422 4.0977 0.32812 5.8945-0.67578 1.793-1.0078 3.1094-2.6953 3.6523-4.6797 0.53906-1.9844 0.26172-4.1055-0.77344-5.8828s-2.7422-3.0664-4.7344-3.5781c-4.4102-1.1797-8.8789-2.125-13.391-2.8398-2.3828-9.418-3.3086-19.145-2.75-28.84 22.625-3.5664 45.742 1.9062 64.367 15.23-1.7227 12.242-2.2539 24.625-1.5938 36.973-6.2734-3.8359-12.754-7.3281-19.406-10.457-3.8477-1.7891-8.4141-0.12109-10.203 3.7266-1.7891 3.8477-0.12109 8.418 3.7266 10.207 10.625 5 20.781 10.938 30.352 17.746 11.484 8.1328 22.273 17.211 32.258 27.133-6.8906 1.832-13.871 3.3008-20.918 4.3984-0.11719 0-0.23047 0.027344-0.34375 0.046875h-0.027344c-81.551 12.426-122.37-36.48-134.82-55.266 16.648-6.6367 34.73-8.8633 52.496-6.457z" fill="#443f3c"/>
</svg>
