<?xml version="1.0" encoding="UTF-8"?>
<svg width="512pt" height="512pt" version="1.1" viewBox="0 0 512 512" xmlns="http://www.w3.org/2000/svg">
 <g fill="#443f3c">
  <path d="m471.52 481.2-430.08-4.3984c-4.1797 0.011719-7.668-3.1953-8-7.3594-7.2578-78.141 5.2617-156.85 36.398-228.88 17.402-43.492 44.812-82.273 80-113.2 23.539-20.227 50.68-35.832 80-46 31.957-11.293 66.266-14.238 99.68-8.5586 35.762 6.0195 69.066 22.117 96 46.398 21.391 19.184 37.41 43.617 46.48 70.879 12.559 38.559 9.9219 83.281 0 100.8-2.25 4.543-6.3711 7.8711-11.281 9.1211-11.602 2.3984-18.48-10.16-27.84-27.602-12.801-23.52-30.32-56-63.281-66.879h0.003906c-6.125-1.9766-12.527-2.9492-18.961-2.8789-16.555-0.085937-32.465 6.4219-44.219 18.082-11.75 11.664-18.379 27.52-18.422 44.078 0.066406 6.7109 1.1445 13.371 3.1992 19.758 5.5195 16.492 15.484 31.137 28.801 42.32 16.559 15.039 67.359 52.398 156 107.92 2.3438 1.4648 3.7656 4.0352 3.7617 6.8008v31.602-0.003906c0 2.1211-0.84375 4.1562-2.3438 5.6562s-3.5352 2.3438-5.6562 2.3438zm-422.56-20.32 414.56 4.2383v-19.117c-72-45.199-132.4-87.199-154.56-107.28-15.41-13.156-26.922-30.281-33.281-49.52-2.4688-7.7617-3.7617-15.852-3.8398-24 0.042968-20.73 8.3008-40.598 22.969-55.25 14.664-14.648 34.543-22.887 55.27-22.91 8.1484-0.09375 16.258 1.1484 24 3.6797 39.121 13.121 59.121 50.078 72 74.48 3.2227 6.4414 6.9414 12.617 11.121 18.48 5.7617-8.7188 12.16-48-0.87891-88-8.3516-24.625-22.93-46.672-42.32-64-24.641-21.965-54.926-36.621-87.441-42.32-30.898-5.2227-62.621-2.4727-92.16 8-27.223 9.3047-52.457 23.633-74.398 42.242-33.27 29.395-59.168 66.195-75.602 107.44-29.02 67.34-41.188 140.74-35.438 213.84z"/>
  <path d="m227.84 478.72c-1.3281-0.007812-2.6406-0.30859-3.8398-0.87891-39.098-20.332-68.281-55.648-80.883-97.875-12.602-42.23-7.5469-87.762 14.012-126.2 21.559-38.434 57.777-66.488 100.38-77.75 42.605-11.266 87.957-4.7773 125.69 17.984l0.64062 0.39844c18.801 11.754 35.109 27.082 48 45.121 0.29297 0.38281 0.5625 0.78125 0.80078 1.1992 4.8281 6.9219 9.082 14.227 12.719 21.84 0.59766 1.168 0.92578 2.4531 0.96094 3.7617 0 2.1211-0.84375 4.1562-2.3438 5.6562s-3.5352 2.3438-5.6562 2.3438c-3.1445-0.007812-5.9922-1.8516-7.2812-4.7188-3.2695-6.8633-7.0977-13.445-11.438-19.68l-0.55859-0.87891-0.003907-0.003907c-11.504-16.379-26.129-30.328-43.039-41.039h-0.48047c-45.73-25.723-101.71-25.094-146.85 1.6445-45.141 26.742-72.586 75.535-72 128 0.58984 52.465 29.121 100.63 74.852 126.36 3.4062 1.5508 5.2812 5.2578 4.5156 8.9219s-3.9727 6.3047-7.7148 6.3594zm198.96-234.24-0.87891 0.80078 1.1211-0.80078z"/>
  <path d="m385.44 480c-1.082-0.007812-2.1484-0.25391-3.1211-0.71875-103.52-44.32-168.96-119.28-166.32-190.24 1.1211-35.359 12.48-63.121 33.84-82.559 41.039-37.359 98.078-24.961 109.12-22.078v-0.003906c2.1953 0.38672 4.1328 1.6758 5.3398 3.5547 1.207 1.875 1.5781 4.1719 1.0156 6.332-0.55859 2.1602-1.9961 3.9883-3.9609 5.043-1.9688 1.0547-4.2852 1.2422-6.3945 0.51172-5.9219-1.5195-58.641-14-94.32 18.48-18.078 16.398-27.68 40-28.641 71.121-2 64.641 59.602 133.44 157.04 175.52 3.5117 1.4922 5.4766 5.2578 4.6992 8.9922-0.77734 3.7344-4.0859 6.3984-7.8984 6.3672z"/>
 </g>
</svg>
