<?xml version="1.0" encoding="UTF-8"?>
<svg width="512pt" height="512pt" version="1.1" viewBox="0 0 512 512" xmlns="http://www.w3.org/2000/svg">
 <path d="m366.73 110.2c31.09-4.7812 57.273-0.64844 57.695-0.57422 1.9258 0.32812 3.8516-0.47656 4.9922-2.0547 1.1367-1.5781 1.2812-3.6641 0.375-5.3828-11.992-22.738-32.062-39.375-56.512-46.844-24.281-7.418-50.004-4.8867-72.41 7.1367-21.59 11.586-37.66 31.137-45.398 53.973-7.6758-22.824-23.68-42.293-45.449-53.973-22.406-12.023-48.117-14.559-72.414-7.1367-24.449 7.4688-44.516 24.102-56.512 46.844-0.91406 1.7305-0.75781 3.8281 0.39844 5.4102 1.1523 1.5781 3.0938 2.3516 5.0391 2.0156 0.44922-0.082031 28.57-4.9141 61.23 0.66797-53.93 4.207-96.562 49.695-96.562 105.12 0 2 1.1641 3.8164 2.9844 4.6523 1.8242 0.83594 3.957 0.53125 5.4766-0.76562 0.77734-0.66406 60.609-50.863 129.25-35.254-15.613 0.95313-30.645 6.4062-43.488 16.039-35.953 26.973-43.449 78.414-16.707 114.67 0.97656 1.3242 2.5156 2.0781 4.1211 2.0781 0.34766 0 0.69922-0.035157 1.0469-0.10938 1.9609-0.41016 3.5039-1.9219 3.9492-3.875 0.054688-0.24609 5.8359-25.012 23.203-48.238 9.9531-13.312 21.492-23.34 34.531-30.086-0.51172 1.9531-0.87109 3.9648-0.87109 6.0742 0 13.309 10.824 24.133 24.133 24.133 5.3359 0 10.23-1.7969 14.23-4.7461-3.4844 45.73-10.289 126.84-19.305 195.03-0.19531 1.4609 0.25391 2.9375 1.2266 4.0469 0.96875 1.1133 2.3711 1.75 3.8438 1.75h73.238c1.4766 0 2.8789-0.63672 3.8516-1.7461 0.97266-1.1094 1.4219-2.5859 1.2266-4.0469-9.0195-68.184-15.82-149.3-19.305-195.03 4 2.9453 8.8945 4.7461 14.23 4.7461 13.309 0 24.133-10.824 24.133-24.133 0-2.3516-0.44531-4.5781-1.0742-6.7266 13.492 6.6992 25.406 16.852 35.648 30.473 17.461 23.219 23.352 48.258 23.406 48.512 0.44922 1.9492 1.9883 3.4609 3.9492 3.8672 0.34766 0.074219 0.69922 0.10938 1.0469 0.10938 1.6055 0 3.1406-0.75391 4.1172-2.0781 26.738-36.254 19.246-87.695-16.707-114.67-13.309-9.9883-28.957-15.484-45.188-16.125 21.469-5.1562 44.211-4.2852 68.102 2.7227 36.738 10.77 62.59 32.676 62.848 32.895 1.5156 1.3086 3.6641 1.6055 5.4688 0.76562 1.8203-0.83594 2.9844-2.6484 2.9844-4.6484 0-54.703-41.277-99.848-94.074-105.49zm-106.09 33.551c1.2734-30.328 18.543-58.012 45.066-72.242 19.984-10.723 42.914-12.984 64.578-6.3672 18.578 5.6758 34.324 17.285 45.203 33.145-22.105-1.8789-74.059-2.5234-113.83 26.285-0.14062 0.10156-0.21484 0.25781-0.34375 0.37109-17.629 10.754-31.855 26.535-40.754 45.406v-23.715c-0.003906-0.73047-0.066406-1.4453-0.089844-2.1719 0.046875-0.24609 0.16016-0.45703 0.17188-0.71094zm13.168 191.1h-36.727c1.5859-17.434 2.9805-33.848 4.168-48.441h28.395c1.1797 14.594 2.5742 31.008 4.1641 48.441zm-37.672 10.242h38.617c1.4648 15.691 3.0781 32.031 4.8242 48.441h-48.262c1.7422-16.414 3.3555-32.75 4.8203-48.441zm32.684-68.922h-26.75c2.4297-30.672 3.7734-51.062 3.8086-51.574 0.003906-0.082031-0.03125-0.15234-0.03125-0.23047 2.8516 0.14062 5.7344 0.34375 8.6719 0.6875 0.5 0.058593 0.99609 0.039062 1.4805-0.046876 0.48438 0.085938 0.98438 0.10547 1.4844 0.046876 2.5508-0.29688 5.0703-0.50781 7.5547-0.65234 0 0.066406-0.03125 0.12891-0.027343 0.19531 0.035156 0.51172 1.3789 20.898 3.8086 51.574zm-173.33-178.02c10.875-15.789 26.586-27.348 45.109-33.008 21.664-6.6133 44.598-4.3594 64.582 6.3672 27.602 14.809 44.898 43.629 45.141 75.164v23.512c-8.2969-17.531-21.176-32.422-37.164-43.008-0.070312-0.0625-0.10156-0.14844-0.17578-0.20703-40.363-32.047-94.621-31.004-117.49-28.82zm-33.461 106.59c5.2734-47.547 45.352-84.629 93.855-84.629 48.039 0 87.816 36.383 93.691 83.273-77.988-64.27-160.61-17.379-187.55 1.3555zm69.211 94.84c-16.281-30.777-8.2461-69.875 20.324-91.312 12.387-9.2969 27.094-14.176 42.258-14.176 3.4453 0 6.9141 0.25391 10.387 0.76172 14.844 2.1797 28.316 8.8633 38.914 19.141-10.516-0.24609-20.105 0.85156-28.891 2.9336-0.23438 0.046875-0.45703 0.10547-0.6875 0.15625-51.797 12.637-74.48 60.609-82.305 82.496zm87.586-45.094c-7.6602 0-13.891-6.2344-13.891-13.891 0-7.6602 6.2344-13.891 13.891-13.891 7.6602 0 13.891 6.2305 13.891 13.891s-6.2305 13.891-13.891 13.891zm5.832 196.07c1.9648-15.203 3.8164-30.973 5.5508-46.785h50.473c1.7344 15.812 3.5859 31.582 5.5508 46.785zm67.406-196.07c-7.6602 0-13.891-6.2344-13.891-13.891 0-7.6602 6.2305-13.891 13.891-13.891s13.891 6.2305 13.891 13.891-6.2305 13.891-13.891 13.891zm88.699 45.094c-9.0547-25.332-38.051-85.617-108.93-85.617-0.96875 0-1.9609 0.011718-2.9492 0.035156 10.602-10.281 24.074-16.961 38.914-19.141 18.746-2.75 37.441 2.0117 52.641 13.414 28.574 21.434 36.609 60.531 20.328 91.309zm-31.504-128.89c-27.781 0-58.203 8.4414-87.953 32.977 5.8789-47.203 45.91-83.836 94.258-83.836 48.809 0 89.137 37.336 94.414 85.191-16.789-11.688-55.211-34.332-100.72-34.332z" fill="#443f3c"/>
</svg>
