<?xml version="1.0" encoding="UTF-8"?>
<svg width="512pt" height="512pt" version="1.1" viewBox="0 0 512 512" xmlns="http://www.w3.org/2000/svg">
 <g fill="#443f3c">
  <path d="m360 472h48v-48h-48zm16-32h16v16h-16z"/>
  <path d="m424 472h48v-48h-48zm16-32h16v16h-16z"/>
  <path d="m104 472h48v-48h-48zm16-32h16v16h-16z"/>
  <path d="m40 472h48v-48h-48zm16-32h16v16h-16z"/>
  <path d="m72 248h16v32h-16z"/>
  <path d="m72 296h16v32h-16z"/>
  <path d="m472 232h13.77l21.336-64h-27.105v-32c0-26.473-21.527-48-48-48s-48 21.527-48 48v32h-27.105l21.336 64h13.77v160h-16v-32h-32v-56c0-18.77-5.9531-36.137-16-50.441v-85.559h12.945l19.055-38.113v-73.887h-48v-48h-112v48h-48v73.887l19.055 38.113h12.945v85.559c-10.047 14.297-16 31.672-16 50.441v56h-32v32h-16v-160h13.77l21.336-64h-27.105v-32c0-26.473-21.527-48-48-48s-48 21.527-48 48v32h-27.105l21.336 64h13.77v128h-32v144h496v-144h-32zm-40-128c17.648 0 32 14.352 32 32h-64c0-17.648 14.352-32 32-32zm-32 48h64v16h-64zm-10.23 64-10.664-32h105.8l-10.664 32zm18.23 16h48v160h-16v-32h-32zm-112 176v80h-80v-80h24v-16c0-8.8242 7.1758-16 16-16s16 7.1758 16 16v16zm-8-16c0-17.648-14.352-32-32-32s-32 14.352-32 32h-24v96h-16v-144h144v144h-16v-96zm-8-172.59c-7.6406-2.168-15.672-3.4062-24-3.4062s-16.359 1.2383-24 3.4062v-19.406h48zm-24 12.594c37 0 67.535 28.055 71.527 64h-143.05c3.9922-35.945 34.527-64 71.527-64zm88-112h-16v-16h-16v16h-16v-48h16v16h16v-16h16zm-144 0v-48h16v48zm32-48h16v48h-16zm32 0h16v48h-16zm32-16h-32v-32h32zm-80-32h32v32h-32zm-32 48v48h-16v-48zm-11.055 64h166.11l-8 16h-150.11zm139.05 32v68.168c-4.9023-4.0547-10.289-7.5273-16-10.457v-41.711h-80v41.711c-5.7109 2.9297-11.098 6.3984-16 10.457v-68.168zm-128 144h144v16h-144zm-104-208c17.648 0 32 14.352 32 32h-64c0-17.648 14.352-32 32-32zm-32 48h64v16h-64zm-10.23 64-10.664-32h105.8l-10.664 32zm18.23 16h48v128h-32v32h-16zm-32 144h16v32h48v-32h16v32h48v-32h16v112h-144zm464 112h-144v-112h16v32h48v-32h16v32h48v-32h16z"/>
  <path d="m424 248h16v32h-16z"/>
  <path d="m424 296h16v32h-16z"/>
 </g>
</svg>
