<?xml version="1.0" encoding="UTF-8"?>
<svg width="512pt" height="512pt" version="1.1" viewBox="0 0 512 512" xmlns="http://www.w3.org/2000/svg">
 <g fill="#443f3c">
  <path d="m168 96h16v56h-16z"/>
  <path d="m200 96h16v56h-16z"/>
  <path d="m232 96h16v56h-16z"/>
  <path d="m136 96h16v56h-16z"/>
  <path d="m112 8h-32c-4.4141 0-8 3.5742-8 8v96c0 1.5742 0.47266 3.1289 1.3438 4.4414l30.656 45.984v333.57c0 4.4258 3.5859 8 8 8h288c4.4141 0 8-3.5742 8-8v-333.57l30.656-45.984c0.87109-1.3125 1.3438-2.8672 1.3438-4.4414v-96c0-4.4258-3.5859-8-8-8h-32c-4.4141 0-8 3.5742-8 8v48h-16v-48c0-4.4258-3.5859-8-8-8h-32c-4.4141 0-8 3.5742-8 8v48h-16v-48c0-4.4258-3.5859-8-8-8h-32c-4.4141 0-8 3.5742-8 8v48h-16v-48c0-4.4258-3.5859-8-8-8h-32c-4.4141 0-8 3.5742-8 8v48h-16v-48c0-4.4258-3.5859-8-8-8h-32c-4.4141 0-8 3.5742-8 8v48h-16v-48c0-4.4258-3.5859-8-8-8zm32 72c4.4141 0 8-3.5742 8-8v-48h16v48c0 4.4258 3.5859 8 8 8h32c4.4141 0 8-3.5742 8-8v-48h16v48c0 4.4258 3.5859 8 8 8h32c4.4141 0 8-3.5742 8-8v-48h16v48c0 4.4258 3.5859 8 8 8h32c4.4141 0 8-3.5742 8-8v-48h16v48c0 4.4258 3.5859 8 8 8h32c4.4141 0 8-3.5742 8-8v-48h16v85.574l-30.656 45.984c-0.87109 1.3125-1.3438 2.8672-1.3438 4.4414v328h-272v-328c0-1.5742-0.47266-3.1289-1.3438-4.4414l-30.656-45.984v-85.574h16v48c0 4.4258 3.5859 8 8 8z"/>
  <path d="m328 96h16v56h-16z"/>
  <path d="m296 96h16v56h-16z"/>
  <path d="m264 96h16v56h-16z"/>
  <path d="m360 96h16v56h-16z"/>
  <path d="m272 328c-6.1445 0-11.754 2.3203-16 6.1289-4.2461-3.8086-9.8555-6.1289-16-6.1289-13.23 0-24 10.77-24 24v72c0 4.4258 3.5859 8 8 8h64c4.4141 0 8-3.5742 8-8v-72c0-13.23-10.77-24-24-24zm-24 88h-16v-64c0-4.4141 3.5938-8 8-8s8 3.5859 8 8zm32 0h-16v-64c0-4.4141 3.5938-8 8-8s8 3.5859 8 8z"/>
  <path d="m232 448h16v24h-16z"/>
  <path d="m264 448h16v24h-16z"/>
  <path d="m184 240c0 39.703 32.305 72 72 72s72-32.297 72-72-32.305-72-72-72-72 32.297-72 72zm72-56c30.879 0 56 25.129 56 56s-25.121 56-56 56-56-25.129-56-56 25.121-56 56-56z"/>
  <path d="m256 248h32v-16h-28.688l-21.656-21.656-11.312 11.312 24 24c1.4961 1.5039 3.5352 2.3438 5.6562 2.3438z"/>
 </g>
</svg>
