<?xml version="1.0" encoding="UTF-8"?>
<svg width="512pt" height="512pt" version="1.1" viewBox="0 0 512 512" xmlns="http://www.w3.org/2000/svg">
 <g fill="#443f3c">
  <path d="m464 111.84 24 0.16016v-48h-31.055l-200.95-48.223-200.95 48.223h-31.055v48h24v120h-32v16h32v32h-32v48h32v43.695c-7.7383-2.5625-15.852-3.8125-24-3.6953h-8v128h480v-128h-8c-8.1523-0.12109-16.262 1.1289-24 3.6953v-43.695h32v-48h-32v-32h32v-16h-32zm-424-31.84h16l200-47.777 198.14 47.555 17.863 0.22266v16h-15.047l-200.95-48.223-200.95 48.223h-15.047zm24 30.312 192-46.09 192 46.09v121.69h-144v-112h-96v112h-144zm64 137.69v32h-32v-32zm16 0h32v32h-32zm48 0h32v32h-32zm32-80h64v64h-64zm64-16h-64v-16h64zm-48 96h32v32h-32zm48 0h32v32h-32zm48 0h32v32h-32zm48 0h32v32h-32zm-320 0h16v32h-16zm0 80h16v60.273c-4.5781-1.9648-8.9766-4.332-13.137-7.0742l-2.8633-1.7578zm346.63 64c-12.363 0.29297-24.48-3.5039-34.465-10.801-2.5859-1.6016-5.2578-3.2461-8.168-4.8008v-48.398h48v63.801c-1.6953 0.12109-3.457 0.19922-5.3672 0.19922zm-58.633-21.84c-5.2461-1.2461-10.609-1.9336-16-2.0469v-40.113h16zm-32-1.1211c-10.629 1.8711-20.727 6.0195-29.602 12.16-9.9805 7.2969-22.094 11.094-34.453 10.801-12.359 0.29297-24.469-3.5039-34.449-10.801-8.8477-6.1172-18.906-10.258-29.496-12.137v-41.062h128zm-144-0.9375v0.003907c-5.3906 0.10938-10.754 0.79297-16 2.0312v-42.137h16zm-32 8.2227c-2.9453 1.6016-5.6562 3.2578-8.2656 4.8711v0.003907c-9.9648 7.2852-22.055 11.082-34.398 10.801-1.8789 0-3.6172-0.078125-5.2969-0.19922v-63.801h48zm336 103.68h-448v-95.586c9.5312 1.1992 18.609 4.7773 26.398 10.402 12.527 8.8555 27.559 13.477 42.898 13.184 15.332 0.28125 30.352-4.3438 42.871-13.199 9.9766-7.293 22.086-11.09 34.441-10.801 12.355-0.28906 24.465 3.5078 34.445 10.801 12.527 8.8555 27.551 13.48 42.891 13.199 15.332 0.28125 30.355-4.3438 42.879-13.199 10.113-7.0312 22.137-10.801 34.453-10.801s24.336 3.7695 34.449 10.801c12.656 8.6016 27.602 13.199 42.902 13.199 15.301 0 30.246-4.5977 42.898-13.199 7.8125-5.6289 16.918-9.1992 26.473-10.387zm-32-100.57c-0.98438 0.59375-1.9609 1.1914-2.9023 1.7773v-0.003906c-4.1523 2.7305-8.5352 5.0938-13.098 7.0586v-60.258h16zm32-83.426v16h-448v-16zm-32-16h-16v-32h16z"/>
  <path d="m80 120v96h112v-96zm48 80h-32v-64h32zm48 0h-32v-64h32z"/>
  <path d="m432 216v-96h-112v96zm-48-80h32v64h-32zm-48 64v-64h32v64z"/>
  <path d="m248 88h16v16h-16z"/>
  <path d="m280 88h16v16h-16z"/>
  <path d="m216 88h16v16h-16z"/>
  <path d="m280 432c-2.7656 0.078125-5.4609-0.86719-7.5664-2.6562-4.7812-3.4727-10.535-5.3438-16.441-5.3438s-11.664 1.8711-16.441 5.3438c-4.4102 3.543-10.691 3.543-15.102 0-4.7383-3.5547-10.527-5.4336-16.449-5.3438v16c2.7539-0.074219 5.4414 0.87109 7.543 2.6562 4.7773 3.4727 10.527 5.3438 16.434 5.3438 5.9023 0 11.656-1.8711 16.43-5.3438 4.418-3.543 10.703-3.543 15.121 0 4.7852 3.4727 10.543 5.3438 16.453 5.3438 5.9102 0 11.668-1.8711 16.453-5.3438 2.1055-1.7891 4.8008-2.7344 7.5664-2.6562v-16c-5.9219-0.082031-11.703 1.793-16.449 5.3359-2.1016 1.7891-4.793 2.7383-7.5508 2.6641z"/>
  <path d="m144 448c-2.7656 0.078125-5.4609-0.86719-7.5664-2.6562-4.7812-3.4688-10.539-5.3359-16.445-5.3359s-11.664 1.8672-16.445 5.3359c-4.4102 3.5391-10.688 3.5391-15.094 0-4.7383-3.5547-10.527-5.4336-16.449-5.3438v16c2.7539-0.074219 5.4414 0.87109 7.543 2.6562 4.7734 3.4727 10.527 5.3438 16.43 5.3438s11.652-1.8711 16.426-5.3438c4.4219-3.5469 10.711-3.5469 15.129 0 4.7812 3.4727 10.539 5.3398 16.449 5.3398 5.9102 0 11.664-1.8672 16.449-5.3398 2.1094-1.793 4.8086-2.7383 7.5742-2.6562v-16c-5.9258-0.085938-11.711 1.7969-16.457 5.3438-2.1016 1.7852-4.7891 2.7305-7.543 2.6562z"/>
  <path d="m416 448c-2.7656 0.078125-5.4609-0.86719-7.5664-2.6562-4.7812-3.4688-10.539-5.3359-16.445-5.3359s-11.664 1.8672-16.445 5.3359c-4.4102 3.5391-10.688 3.5391-15.094 0-4.7383-3.5547-10.527-5.4336-16.449-5.3438v16c2.7539-0.074219 5.4414 0.87109 7.543 2.6562 4.7734 3.4727 10.527 5.3438 16.43 5.3438s11.652-1.8711 16.426-5.3438c4.4219-3.5469 10.711-3.5469 15.129 0 4.7812 3.4727 10.539 5.3398 16.449 5.3398 5.9102 0 11.664-1.8672 16.449-5.3398 2.1094-1.793 4.8086-2.7383 7.5742-2.6562v-16c-5.9258-0.085938-11.711 1.7969-16.457 5.3438-2.1016 1.7852-4.7891 2.7305-7.543 2.6562z"/>
 </g>
</svg>
