<?xml version="1.0" encoding="UTF-8"?>
<svg width="512pt" height="512pt" version="1.1" viewBox="0 0 512 512" xmlns="http://www.w3.org/2000/svg">
 <g fill="#443f3c">
  <path d="m120.64 410.38h-33.539c-3.4688 0-6.8359-1.457-9.2344-3.9531-2.3984-2.5273-3.6602-5.9961-3.5-9.4609 1.3945-26.637-12.086-73.656-12.215-74.109-0.97266-3.4023 0.45312-7.0625 3.5312-8.8477 12.121-7.1289 16.301-22.066 17.66-33.344 0.90625-7.3867 0.58203-15.035-0.97266-22.75-5.7031-28.355-2.7852-50.973 8.6211-67.242 12.41-17.691 31.465-22.879 41.707-24.434 3.6289-0.55078 7.4219-0.67969 11.246-0.39062 22.066 1.6211 41.059 0.61719 56.449-3.0117 12.703-3.0117 20.188-7.1602 24.238-10.109 9.9141-7.2266 20.48-12.898 31.402-16.816 76.312-27.414 133.25 11.602 154.18 29.652 3.2422 2.8203 3.6289 7.7109 0.80859 10.953s-7.7109 3.6289-10.953 0.80859c-18.859-16.266-70.188-51.426-138.76-26.801-9.5273 3.4336-18.762 8.3945-27.512 14.746-5.2188 3.793-14.613 9.0742-29.812 12.672-16.914 3.9844-37.523 5.1523-61.18 3.4023-2.6914-0.19531-5.3125-0.097656-7.7773 0.25781-7.7773 1.168-22.199 5.0547-31.27 17.984-8.8789 12.637-10.922 31.238-6.0938 55.25 1.8789 9.3633 2.2695 18.699 1.168 27.707-2.2695 18.473-9.2031 32.664-20.188 41.414 3.5 13.125 11.859 47.117 11.406 70.902h24.918l-10.5-13.578c-1.7188-2.2344-2.6562-4.9922-2.6562-7.8086v-41.219c0-3.7578 2.7227-7 6.418-7.6484 0.45312-0.097657 46.953-8.75 69.574-39.598 9.3633-12.801 13.414-27.836 11.957-44.75-0.35547-4.2773 2.8203-8.0352 7.0977-8.3945 4.2773-0.35547 8.0352 2.8203 8.3945 7.0977 1.75 20.773-3.2734 39.371-14.938 55.281-10.984 14.973-28.227 27.641-49.84 36.586-9.4297 3.8867-17.758 6.3203-23.137 7.6797v34.023l13.414 17.336c3.0117 3.8867 3.5312 9.0078 1.3594 13.414-2.2148 4.3438-6.5859 7.0977-11.48 7.0977z"/>
  <path d="m358.4 410.38h-28.387c-6.4805 0-11.926-4.8594-12.672-11.309-1.8477-16.43-7-30.266-14.84-40.02-5.5742-6.9336-10.727-9.5586-11.246-9.8203-2.3672-0.97266-3.9219-2.9805-4.4727-5.4766-9.8828-45.434-36.746-61.246-37.008-61.406-3.7266-2.1406-5.0234-6.8711-2.8828-10.598s6.8711-5.0234 10.598-2.8828c1.3281 0.74609 31.758 18.664 43.715 68.18 8.0039 5.1211 26.379 20.641 31.305 57.777h20.48l-11.438-15.102c-0.19531-0.25781-0.39062-0.51953-0.55078-0.77734-0.35547-0.58203-0.67969-1.168-0.97266-1.7812-0.97266-2.2031-5.8672-13.707-9.1719-28.289-4.4062-19.379-4.3438-36.004 0.19531-49.352 9.1367-26.863-9.0742-63.773-9.2344-64.16-1.9102-3.8555-0.35547-8.5234 3.4688-10.434 3.8555-1.9102 8.5234-0.35547 10.434 3.4688 0.875 1.75 21.258 43.195 10.047 76.121-7.0625 20.773 1.8789 51.168 8.3945 66.074l14.648 19.348c2.9492 3.8867 3.4336 9.0391 1.2305 13.414-2.2109 4.3633-6.7461 7.0234-11.641 7.0234z"/>
  <path d="m270.97 325.38c-40.441 0-71.613-15.488-91.445-29.422-3.5-2.4609-4.375-7.3242-1.9102-10.824 2.4609-3.5 7.3242-4.375 10.824-1.9102 20.223 14.195 53.5 30.234 97.055 25.859 4.2773-0.42188 8.0703 2.6914 8.5234 6.9688 0.42188 4.2773-2.6914 8.1016-6.9688 8.5234-5.4844 0.54688-10.863 0.80469-16.078 0.80469z"/>
  <path d="m339.09 307.59c-2.918 0-5.7344-1.6523-7.0625-4.4727-1.8164-3.8867-0.12891-8.5234 3.7578-10.336 11.57-5.4102 28.031-15.621 40.895-33.734 2.4961-3.5 7.3555-4.3086 10.855-1.8477 3.5 2.4961 4.3086 7.3555 1.8477 10.855-14.84 20.867-33.734 32.633-46.988 38.82-1.0664 0.48828-2.2031 0.71484-3.3047 0.71484z"/>
  <path d="m365.24 244.66c3.207-1.7812 7.2578-1.0703 9.6562 1.7188 2.2031 2.5586 5.4102 5.7695 9.7852 8.9102 12.539 9.0078 28.129 13.223 46.309 12.477 7.7461-0.32422 15.262 0.19531 22.391 1.4922 6.4492 1.1992 11.926 2.5586 16.301 4.1172 2.9492 1.0352 6.1875 0.12891 8.0703-2.3008 1.3281-1.6836 2.625-3.5664 3.8867-5.5742 1.5547-2.4961 1.3945-5.7344-0.42188-8.1016-9.7852-12.672-15.941-23.105-18.34-30.98-0.12891-0.39062-0.19531-0.74609-0.25781-1.1328-0.03125-0.22656-3.9844-25.438-21.875-32.242-4.0195-1.5234-6.0273-6.0273-4.5039-10.047 1.5234-4.0195 6.0273-6.0273 10.047-4.5039 24.727 9.4297 30.785 38.855 31.629 43.875 1.9453 5.9297 7.4531 14.973 15.621 25.535 5.8008 7.5195 6.3203 17.922 1.2656 25.926-1.5547 2.4609-3.1758 4.7617-4.7969 6.8711-4.375 5.6055-11.02 8.6836-17.887 8.6836-2.5586 0-5.1211-0.42187-7.6484-1.3281-3.5977-1.2656-8.2617-2.4297-13.902-3.4688-5.9961-1.1016-12.348-1.5234-18.926-1.2656-27.609 1.1016-46.113-8.0703-56.805-15.941-5.1211-3.793-8.9766-7.582-11.73-10.789-3.2148-3.7656-2.1797-9.5352 2.1328-11.93z"/>
  <path d="m411.74 200.91c-2.9805 0-5.8008-1.7188-7.0977-4.6016-4.2461-9.4609-9.0391-23.719-7.7109-38.012 0.64844-6.8711 3.1094-12.77 7.1289-17.078 5.8008-6.2227 14-8.2969 20.48-9.3984 14.422-2.4609 24.109-5.8984 27.902-15.426 3.3359-8.3945 3.0469-18.504 2.4297-29.004-0.22656-3.7578 2.2695-7.1289 5.9297-8.0039 3.6602-0.875 7.4219 0.97266 8.9453 4.4062 4.375 9.8828 7.7109 20.707 9.625 31.367 1.0352 5.8672 2.2695 14.68 0.58203 23.492-1.9102 10.078-8.0703 17.5-17.824 21.484-3.793 1.5547-6.8711 3.5-9.1367 5.8008-5.3477 5.4102-4.1797 12.152-2.2695 16.852 1.6211 3.9844-0.29297 8.5234-4.2773 10.145-3.9844 1.6211-8.5234-0.29297-10.145-4.2773-5.0547-12.41-2.9805-25.016 5.6055-33.668 3.7578-3.8242 8.5859-6.9336 14.324-9.2695 4.8945-2.0078 7.4844-5.0859 8.4258-9.9805 0.55078-2.8828 0.67969-6.0586 0.45312-9.7539-3.4336 6.3203-8.75 11.277-15.879 14.809-7.0977 3.5-15.133 5.1836-22.102 6.3828-4.082 0.67969-9.0742 1.8477-11.699 4.668-1.6211 1.75-2.6914 4.5352-3.0117 7.9062-1.0039 10.922 2.918 22.457 6.418 30.203 1.75 3.9219 0 8.5234-3.9219 10.273-1.0039 0.45703-2.1055 0.68359-3.1758 0.68359z"/>
  <path d="m438.77 231.24c-2.2344 0-4.4414-0.94141-5.9609-2.7852-3.6289-4.375-7.9727-6.0273-8.0039-6.0273l0.097657 0.03125 5.1211-14.68c0.84375 0.29297 8.3594 3.0781 14.746 10.727 2.7539 3.3047 2.3008 8.1992-1.0039 10.953-1.4961 1.1992-3.2461 1.7812-4.9961 1.7812z"/>
  <path d="m38.207 319.48c-1.4258 0-2.8516-0.39062-4.1484-1.1992-3.5977-2.2695-4.6016-7.0977-2.3984-10.758 3.3711-5.6367 7.6797-17.078 9.1719-39.695 3.6914-55.477 51.848-79.848 53.887-80.852 1.0703-0.51953 2.2344-0.80859 3.4336-0.80859 4.3086 0 7.7773 3.4688 7.7773 7.7773 0 3.1094-1.8164 5.8008-4.4727 7.0312-1.2305 0.64844-11.34 6.0273-21.582 16.527-14.324 14.648-22.23 31.953-23.527 51.395-1.3945 20.836-5.25 36.586-11.504 46.891-1.4219 2.3633-4.0117 3.6914-6.6367 3.6914z"/>
  <path d="m8.3945 355.32c-1.75 0-3.4688-0.58203-4.8594-1.7188-1.6836-1.3594-2.7227-3.3359-2.8828-5.4766-0.066406-0.90625-1.5234-22.426 11.211-38.238 3.6953-4.6016 8.8125-7.7109 14.355-8.7188 5.8984-1.0703 11.828 0.35547 16.266 3.9531 8.9766 7.2266 9.8516 21.094 1.9453 30.945-12.734 15.848-34.023 19.055-34.934 19.184-0.39062 0.039062-0.74609 0.070312-1.1016 0.070312zm21.676-38.949c-0.39062 0-0.77734 0.03125-1.1016 0.097656-1.8477 0.32422-3.6953 1.4922-5.0234 3.1445-4.3086 5.3789-6.2852 12.055-7.1602 17.465 5.0859-2.0078 11.18-5.3789 15.488-10.789 2.4961-3.1094 2.6914-7.2578 0.42187-9.0742-0.80859-0.64844-1.7812-0.84375-2.625-0.84375z"/>
 </g>
</svg>
