<?xml version="1.0" encoding="UTF-8"?>
<svg width="512pt" height="512pt" version="1.1" viewBox="0 0 512 512" xmlns="http://www.w3.org/2000/svg">
 <g fill="#443f3c">
  <path d="m408 408h-16v-40h-16.008v-16h125.43l-168.65-312h-25.625l-91.969 176.27-34.719-56.266h-25.191l-144.78 264h45.504v24h-16v16h432v-16h-64zm-123.47 16h107.47v24h-121.87zm-33.055 24h-46.945l-14.398-24h75.742zm124.53-40h-64v-24h64zm-48-40v-24h31.992v24zm103.34-112h-23.336v16h31.984l8.6484 16h-40.633v16h49.281l17.297 32h-98.586v-8h-63.992v40h-3.1758l-36.113-58.512 16.441-77.488h30.848v-16h-27.457l3.3906-16h40.066v-16h-36.664l26.23-123.67zm-125.82-178.27-44.977 212.04-35.574-57.641zm-79.664 186.27h-33.848v16h43.719l14.809 24h-34.527v16h44.406l35.594 57.68v30.32h-128v-40h-16v-40h-6.3359l28.223-148.18zm-89.848 80v24h-32v-24zm16 40v24h-64v-24zm2.9297-190.11-25.555 134.11h-41.375v40h-16v40h-34.496zm-82.93 230.11h99.473l14.398 24h-113.87z"/>
  <path d="m8 448h16v16h-16z"/>
  <path d="m488 448h16v16h-16z"/>
 </g>
</svg>
