<?xml version="1.0" encoding="UTF-8"?>
<svg width="512pt" height="512pt" version="1.1" viewBox="0 0 512 512" xmlns="http://www.w3.org/2000/svg">
 <g fill="#443f3c">
  <path d="m213.33 298.67c28.293 0 55.422-11.238 75.426-31.242 20.004-20.004 31.242-47.137 31.242-75.426v-181.33c0-5.8906-4.7773-10.668-10.668-10.668s-10.664 4.7773-10.664 10.668v181.33c-0.058594 20.707-7.6406 40.684-21.336 56.215v-237.55c0-5.8906-4.7734-10.668-10.664-10.668s-10.668 4.7773-10.668 10.668v255.14c-6.6914 3.8477-13.867 6.7891-21.332 8.7461v-263.89c0-5.8906-4.7773-10.668-10.668-10.668s-10.668 4.7773-10.668 10.668v266.66c-22.629 0-44.336-8.9883-60.34-24.992-16-16.004-24.992-37.707-24.992-60.34v-53.332h7.2539c15.039-0.03125 29.457-6.0156 40.094-16.652 10.637-10.637 16.625-25.055 16.652-40.094v-17.922c0-2.8281-1.125-5.543-3.125-7.543s-4.7109-3.125-7.543-3.125c-20.266 0-35.199-1.8125-53.332 12.801v-55.465c0-5.8906-4.7773-10.668-10.668-10.668s-10.664 4.7773-10.664 10.668v181.33c0 28.289 11.238 55.422 31.242 75.426 20.004 20.004 47.133 31.242 75.422 31.242zm-49.918-224h7.2539v7.2539c0 9.3906-3.7305 18.398-10.375 25.039-6.6406 6.6406-15.648 10.371-25.039 10.371h-7.2539v-7.2539c0-9.3906 3.7305-18.398 10.371-25.039 6.6406-6.6406 15.648-10.371 25.043-10.371z"/>
  <path d="m512 10.668c0-5.8906-4.7773-10.668-10.668-10.668s-10.664 4.7773-10.664 10.668c0 315.62 4.2656 307.62-12.801 343.04l-18.453-10.668c13.227-28.48 9.918-13.973 9.918-332.37 0-5.8906-4.7734-10.668-10.664-10.668s-10.668 4.7773-10.668 10.668v183.46c-18.559-14.934-34.988-12.801-53.332-12.801-5.8906 0-10.668 4.7773-10.668 10.668v17.922c0.027344 15.039 6.0156 29.457 16.652 40.094 10.637 10.637 25.055 16.621 40.094 16.652h7.2539c0 32 1.6016 45.867-7.0391 65.922l-8.8516-5.0117-0.003906-0.003906c-8.125-4.1875-17.809-4.0117-25.777 0.46875-7.9688 4.4766-13.156 12.656-13.809 21.773-0.64844 9.1172 3.3203 17.953 10.574 23.516-6.3398 3.5156-13.121 6.168-20.16 7.8945-13.762-15.359-22.188-29.227-40.855-29.227-5.75-0.054688-11.414 1.4414-16.387 4.332-4.9766 2.8906-9.0781 7.0664-11.879 12.094-15.07-10.73-26.293-26.027-32-43.625 24.371-12.578 44.812-31.621 59.074-55.047 14.262-23.426 21.797-50.328 21.781-77.754v-74.668h7.2539c15.039-0.027343 29.457-6.0156 40.094-16.652 10.637-10.633 16.621-25.051 16.652-40.094v-17.918c0-2.832-1.125-5.543-3.125-7.543s-4.7148-3.125-7.543-3.125c-20.266 0-35.199-1.8125-53.332 12.801v-34.133c0-5.8906-4.7773-10.668-10.668-10.668s-10.668 4.7773-10.668 10.668v181.33c0 45.73-24.395 87.984-64 110.85-39.602 22.863-88.395 22.863-128 0-39.602-22.867-64-65.121-64-110.85v-181.33c0-5.8906-4.7734-10.668-10.664-10.668s-10.668 4.7773-10.668 10.668v12.797c-18.559-14.93-34.988-12.797-53.332-12.797-5.8906 0-10.668 4.7734-10.668 10.664v17.922c0.027344 15.039 6.0156 29.457 16.652 40.094 10.637 10.637 25.055 16.625 40.094 16.652h7.2539v405.33c0 5.8906 4.7773 10.668 10.668 10.668s10.664-4.7773 10.664-10.668v-232.85c5.9531 10.242 13.117 19.734 21.336 28.266-0.64062 3.1992 0-18.027 0 204.59 0 5.8906 4.7734 10.668 10.664 10.668s10.668-4.7773 10.668-10.668v-186.98c26.633 18.973 58.855 28.477 91.52 26.984 13.137 44.488 46.391 80.227 89.812 96.535v64c0 5.8906 4.7773 10.668 10.668 10.668s10.668-4.7773 10.668-10.668v-57.387c25.418 5.7031 51.902 4.4883 76.691-3.5195l6.8281 7.6797c8.0391 9.8516 20.727 14.664 33.277 12.625 12.551-2.0391 23.062-10.617 27.574-22.508 4.5078-11.887 2.3359-25.281-5.707-35.133 6.3867-6.5508 12.137-13.695 17.176-21.332 4.9219 2.0273 10.586 0.11719 13.273-4.4766 2.6836-4.5938 1.5742-10.469-2.6094-13.762 19.949-40.961 14.828-41.066 14.828-353.39zm-71.254 234.66c-9.3906 0-18.398-3.7305-25.039-10.371-6.6445-6.6406-10.375-15.648-10.375-25.039v-7.2539h7.2539c9.3945 0 18.402 3.7305 25.043 10.371 6.6406 6.6406 10.371 15.648 10.371 25.039v7.2539zm-42.668-192h7.2539v7.2539c0 9.3945-3.7305 18.402-10.371 25.043-6.6406 6.6406-15.648 10.371-25.039 10.371h-7.2539v-7.2539c0-9.3906 3.7305-18.398 10.371-25.039 6.6406-6.6445 15.648-10.375 25.039-10.375zm-341.33 21.332v0.003907c-9.3906 0-18.398-3.7305-25.039-10.375-6.6445-6.6406-10.375-15.648-10.375-25.039v-7.2539h7.2539c9.3945 0 18.402 3.7305 25.043 10.371s10.371 15.648 10.371 25.043v7.2539zm356.91 341.34-15.145-17.066c20.129-7.0352 37.625-20.062 50.133-37.332l18.668 10.668v-0.003906c-13.449 19.309-32.035 34.457-53.656 43.734zm1.0664-68.801c4.1602-4.1602 9.3867 0 15.359 3.8398-2.6445 3.668-5.7617 6.9688-9.2773 9.8125-5.7617-5.0117-7.7852-6.0781-7.7852-9.4922h-0.003906c-0.058594-1.5977 0.5625-3.1484 1.707-4.2656zm-64 29.973 5.7617 6.6133c-8.0547-0.63281-15.984-2.3555-23.574-5.1172 1.918-2.875 5.0312-4.7266 8.4727-5.0391 3.4375-0.3125 6.8359 0.95312 9.2344 3.4375zm-109.44-38.613c6.9258-1.2578 13.738-3.0781 20.371-5.4375 7.9023 23.059 23.465 42.719 44.094 55.699 20.629 12.984 45.086 18.512 69.293 15.66l16.641 18.773c-31.117 7.1875-63.797 2.4883-91.621-13.184-27.828-15.668-48.793-41.176-58.777-71.512zm188.91 96c-3.9453-4.4805-2.1328 1.8125 22.398-16.852 3.793 6.1875 2.2578 14.242-3.5391 18.605-5.8008 4.3633-13.965 3.6055-18.859-1.7539z"/>
 </g>
</svg>
