<?xml version="1.0" encoding="UTF-8"?>
<svg width="512pt" height="512pt" version="1.1" viewBox="0 0 512 512" xmlns="http://www.w3.org/2000/svg">
 <g fill="#443f3c">
  <path d="m312.5 99.137v-18.293h-12.902v-13.613h-11.699v-14.051h-11.301v-12.93h-11.191v-14.176h47.039c-0.019531 0.23047-0.0625 0.45703-0.0625 0.6875-0.003906 17.43-0.003906 34.855 0 52.285 0 0.34766 0.078126 0.69531 0.11328 0.98438h11.141v-17.172h11.309v-18.586h11.406c0.085938-0.24609 0.17578-0.375 0.17578-0.49609-0.015625-5.8984-0.035156-11.797-0.050782-17.695h13.004c-0.027344 0.59375-0.078125 1.1914-0.078125 1.7852-0.003906 23.074-0.003906 46.152-0.003906 69.234v1.9922h-46.941z"/>
  <path d="m116 26.082c0.035156 0.5 0.10156 1.0039 0.10156 1.5039 0.003907 23.23 0.003907 46.457 0.003907 69.688v1.6992h-46.844v-18.09h-12.93v-13.66h-11.684v-14.043h-11.285v-12.922h-11.16v-14.176h46.762c0.046875 0.59375 0.12891 1.1836 0.12891 1.7773 0.003906 16.824 0.003906 33.645 0.011719 50.469 0 0.57422 0.046875 1.1523 0.078125 1.7422h11.168v-17.184h11.383v-18.617h11.547v-18.188h12.719z"/>
  <path d="m159.44 26.082v146.19h-15.492v-146.19h15.492z"/>
  <path d="m181.57 26.082c-0.003907 38.594-0.003907 77.188-0.011719 115.79v28.773 1.6289h-15.484v-146.19c5.1641 0.003906 10.332 0.003906 15.496 0.003906z"/>
  <path d="m225.84 26.082c-0.011719 0.59766-0.03125 1.1992-0.03125 1.7969v142.48 1.9102h-15.438c-0.027344-0.46094-0.066406-0.91016-0.066406-1.3555-0.003906-47.906-0.003906-95.816 0-143.73 0-0.36719 0.027344-0.73828 0.039062-1.1055h15.496z"/>
  <path d="m401.81 26.082v146.19h-15.484v-1.7656-142.76c0-0.55469-0.003906-1.1055-0.011719-1.6602 5.1641-0.003907 10.328-0.003907 15.496-0.003907z"/>
  <path d="m423.95 26.082v146.19h-15.492v-146.19h15.492z"/>
  <path d="m446.36 26.082c-0.011719 0.59766-0.027344 1.1992-0.027344 1.7969v142.48 1.9102h-15.438c-0.027344-0.46094-0.066406-0.91016-0.066406-1.3555-0.003907-47.906-0.003907-95.816 0-143.73 0-0.36719 0.027343-0.73828 0.039062-1.1055h15.492z"/>
  <path d="m468.21 26.082c-0.003906 0.59766-0.019532 1.1992-0.019532 1.7969v142.48 1.9102h-15.418c-0.03125-0.41406-0.082032-0.8125-0.082032-1.2188-0.003906-48.094-0.003906-96.188 0-144.28 0-0.23047 0.015626-0.46094 0.027344-0.69141h15.492z"/>
  <path d="m490.62 26.082c-0.015625 0.59766-0.039062 1.1992-0.039062 1.7969v142.48 1.9062h-15.523v-1.4961c0-47.77 0-95.543 0.003906-143.31 0-0.46094 0.046875-0.91797 0.070313-1.3789h15.488z"/>
  <path d="m203.98 26.082c-0.015625 0.59766-0.035156 1.1992-0.035156 1.7969v142.48 1.9062h-15.445c-0.027344-0.46484-0.070312-0.91016-0.070312-1.3555-0.003906-47.906-0.003906-95.82 0-143.73 0-0.36719 0.039062-0.73047 0.0625-1.1016h15.488z"/>
  <path d="m248.25 26.082c-0.019531 0.59766-0.050781 1.1992-0.050781 1.793v142.35 2.043h-15.469c-0.027344-0.51172-0.066406-1.0039-0.066406-1.4961-0.003907-47.773-0.003907-95.543 0-143.32 0-0.45703 0.0625-0.91797 0.097656-1.3711 5.1562 0.003906 10.32 0.003906 15.488 0.003906z"/>
  <path d="m15.566 26.082c-0.003906 25.965-0.011718 51.922-0.011718 77.887v66.539 1.7656h-3.8008c-0.027344-0.41406-0.082031-0.81641-0.082031-1.2148-0.003906-48.145-0.003906-96.281 0-144.43 0-0.18359 0.011719-0.36719 0.019531-0.55469 1.293 0.003906 2.582 0.003906 3.875 0.003906z"/>
  <path d="m127.9 26.082v146.19h-3.875v-146.19h3.875z"/>
  <path d="m137.3 26.082c0.003906 48.375 0.003906 96.742 0.003906 145.12 0 0.32422-0.027344 0.64062-0.046875 1.0742h-3.8359v-146.19h3.8789z"/>
  <path d="m258.49 26.082c0.03125 0.54688 0.09375 1.1016 0.09375 1.6484 0.003907 47.617 0.003907 95.227 0.003907 142.84v1.7188h-3.9258v-1.8516-142.7c0-0.55469-0.027344-1.1055-0.039062-1.6602 1.2852 0.003906 2.5781 0.003906 3.8672 0.003906z"/>
  <path d="m379.67 26.082c0.003906 0.55469 0.019531 1.1055 0.019531 1.6602v142.63 1.9062h-3.8828v-1.7656-142.77c0-0.55469-0.011719-1.1055-0.015625-1.6602 1.3008-0.003907 2.5898-0.003907 3.8789-0.003907z"/>
  <path d="m370.27 26.082c0.003907 4.6602 0.015625 9.3125 0.015625 13.973v130.31 1.9062h-3.8828v-1.7656-142.77c0-0.55469-0.003906-1.1055-0.011719-1.6602h3.8789z"/>
  <path d="m500.86 26.082c0.039063 0.54688 0.12109 1.0938 0.12109 1.6367 0.003906 47.617 0.003906 95.23 0.003906 142.85v1.7188h-3.9492v-1.8477-142.57c0-0.59766-0.035156-1.1992-0.050781-1.793 1.293 0.007812 2.5859 0.007812 3.875 0.007812z"/>
  <path d="m299.53 394.96v-13.645h-11.652v-14.051h-11.32v-12.891h-11.027v-14.109h46.793v53.965h11.184v-17.117h11.387v-18.707h11.664v-18.156h12.742v72.805h-46.812v-18.094h-12.957z"/>
  <path d="m336.85 459.12h11.254v12.906h11.203v14.109h-46.785v-53.93h-11.289v17.105h-11.324v18.637h-11.684v18.16h-12.723v-72.871h1.5273c14.566 0 29.137 0.015625 43.703-0.03125 1.332-0.003906 1.7031 0.34766 1.6836 1.6797-0.078125 4.9766-0.03125 9.957-0.03125 14.934v1.6211h12.805v13.656h11.672c-0.011719 4.7227-0.011719 9.2773-0.011719 14.023z"/>
  <path d="m312.45 99.086v18.227h12.688v13.629h11.688v14.055h11.316v12.918h11.141v14.117h-46.781v-54h-11.332v17.172h-11.285v18.648h-11.68v18.172h-12.707v-72.887h46.996c0.003906 0-0.042969-0.050781-0.042969-0.050781z"/>
  <path d="m456.27 224.15v13.645h-12.77v18.129h-46.848v-72.766h12.586v18.074h11.645v18.691h11.359v17.188h11.289v-53.98h46.793c0.050781 0.36328 0.13281 0.71094 0.13672 1.0586 0.011718 3.918-0.027344 7.8398 0.027343 11.754 0.015625 1.0234-0.28516 1.3516-1.3242 1.3359-3.2266-0.0625-6.4531-0.019532-9.8398-0.019532v12.852h-11.316v14.027c-3.957 0.011719-7.7539 0.011719-11.738 0.011719z"/>
  <path d="m490.38 329.03h-12.699v-18.113h-11.68v-18.648h-11.27v-17.137h-11.273v53.883h-46.816v-14.043h11.008v-12.93h11.285v-13.945h11.648v-13.66h12.938v-18.156h46.859v72.75z"/>
  <path d="m22.293 413.32h46.785v18.121h12.836v13.633h11.637v13.988h11.324v13.004h11.156v14.039h-46.746v-53.895h-11.301v17.109h-11.391v18.664h-11.664v18.141h-12.637v-72.805z"/>
  <path d="m104.96 144.98v12.957h11.055v14.102h-46.77v-54.004h-11.285v17.156h-11.367v18.68h-11.645v18.156h-12.633v-72.828h46.734v18.113h12.906v13.625h11.566v14.035c3.832 0.007813 7.5352 0.007813 11.438 0.007813z"/>
  <path d="m153.39 183.13h12.656v18.094h11.582v18.738h11.402v17.164h11.254v-53.953h46.828v14.043h-10.992v12.871h-11.32v14.035h-11.688v13.656h-12.922v18.145h-46.797c-0.003906-24.227-0.003906-48.449-0.003906-72.793z"/>
  <path d="m103.27 340.22h12.734v72.828h-46.727v-18.113h-12.973v-13.59h-11.629v-14.09h-11.352v-12.875h-11.02v-14.117h46.766v53.977h11.191v-17.117h11.367v-18.688h11.645c-0.003907-6.1211-0.003907-12.09-0.003907-18.215z"/>
  <path d="m175.71 288h11.68v-13.629h12.883v-18.078h46.828v72.688h-12.645v-18.047h-11.664v-18.633h-11.258v-17.141h-11.359v53.848h-46.777v-14.004h10.992v-12.922h11.316c0.003906-4.707 0.003906-9.2852 0.003906-14.082z"/>
  <path d="m302.38 329.28h-15.57v-1.4805c0-47.723 0.003906-95.453-0.03125-143.18 0-1.2969 0.375-1.6211 1.6289-1.6016 4.2383 0.070313 8.4844 0.050781 12.727 0.011719 0.95703-0.011719 1.3789 0.28125 1.25 1.2539-0.035156 0.26953-0.003906 0.55469-0.003906 0.82812v142.21 1.957z"/>
  <path d="m22.168 183.05c4.9492 0 9.7891-0.015625 14.621 0.035157 0.27734 0.003906 0.64844 0.46484 0.79688 0.79297 0.13672 0.30859 0.03125 0.72656 0.03125 1.0938v142.48 1.7656h-15.453c0.003907-48.633 0.003907-97.297 0.003907-146.17z"/>
  <path d="m59.863 329.27h-15.445v-1.543c0-47.676 0.003906-95.355-0.03125-143.04 0-1.3359 0.35156-1.7031 1.6836-1.6836 4.5586 0.082032 9.1172 0.03125 13.789 0.03125 0.003906 48.785 0.003906 97.449 0.003906 146.23z"/>
  <path d="m81.863 329.28h-15.57v-1.4805c0-47.723 0.003906-95.453-0.03125-143.18 0-1.2969 0.375-1.6211 1.6289-1.6016 4.2383 0.070313 8.4844 0.050781 12.727 0.011719 0.96094-0.011719 1.3789 0.28125 1.25 1.2539-0.035157 0.26953-0.003907 0.55469-0.003907 0.82812v142.21 1.957z"/>
  <path d="m324.25 329.28h-15.473v-146.12c0.34766-0.039063 0.60938-0.097656 0.875-0.097656 4.4766-0.003907 8.9453 0.015624 13.418-0.019532 0.89062-0.003906 1.3008 0.25781 1.1875 1.1758-0.039063 0.31641-0.003907 0.64453-0.003907 0.96875v142.07c-0.003906 0.62891-0.003906 1.2695-0.003906 2.0273z"/>
  <path d="m166.18 340.19h15.27v146.19h-15.27v-146.19z"/>
  <path d="m423.82 486.43h-15.254v-146.18h15.254v146.18z"/>
  <path d="m430.93 340.2h15.289v146.19h-15.289v-146.19z"/>
  <path d="m452.79 340.23h15.305v146.12h-15.305v-146.12z"/>
  <path d="m475.16 340.23h15.32v146.11h-15.32v-146.11z"/>
  <path d="m386.44 340.2h15.273v146.19h-15.273v-146.19z"/>
  <path d="m144 486.37v-146.11h15.363v146.11h-15.363z"/>
  <path d="m188.54 340.2h15.293v146.19h-15.293v-146.19z"/>
  <path d="m210.38 486.34v-146.11h15.328v146.11h-15.328z"/>
  <path d="m232.77 340.23h15.324v146.11h-15.324v-146.11z"/>
  <path d="m88.746 183.13h15.344v146.09h-15.344v-146.09z"/>
  <path d="m279.93 183.12v146.14h-15.391c-0.027343-0.5-0.066406-0.98828-0.066406-1.4688-0.003906-47.719 0-95.441-0.03125-143.16 0-1.2539 0.3125-1.6484 1.6016-1.6211 4.1484 0.082031 8.3008 0.03125 12.445 0.035156 0.46094 0 0.90625 0.046875 1.4414 0.070313z"/>
  <path d="m346.45 329.27h-15.344v-146.08h15.344v146.08z"/>
  <path d="m353.25 183.13h15.34v146.14h-15.34v-146.14z"/>
  <path d="m110.88 183.13h15.324v146.14h-15.324v-146.14z"/>
  <path d="m15.473 486.4h-3.7227v-146.14h3.7227v146.14z"/>
  <path d="m15.453 329.27h-3.707v-146.14h3.707v146.14z"/>
  <path d="m127.8 486.4h-3.6797v-146.17h3.6797v146.17z"/>
  <path d="m137.24 486.39h-3.7266v-146.14h3.7266v146.14z"/>
  <path d="m142.37 329.26v-146.1h3.7422v146.1h-3.7422z"/>
  <path d="m136.68 329.27h-3.7109v-146.14h3.7109v146.14z"/>
  <path d="m258.5 486.39h-3.7578v-146.14h3.7578v146.14z"/>
  <path d="m366.52 340.2h3.6602v146.19h-3.6602v-146.19z"/>
  <path d="m375.92 340.2h3.6719v146.19h-3.6719v-146.19z"/>
  <path d="m257.83 329.27h-3.7031v-146.14h3.7031v146.14z"/>
  <path d="m497.15 340.22h3.7266v146.12h-3.7266v-146.12z"/>
  <path d="m379.07 329.27h-3.7188v-146.09h3.7188v146.09z"/>
  <path d="m384.79 183.13h3.7266v146.09h-3.7266v-146.09z"/>
  <path d="m497.15 183.13h3.7539v146.09h-3.7539v-146.09z"/>
 </g>
</svg>
