<?xml version="1.0" encoding="UTF-8"?>
<svg width="512pt" height="512pt" version="1.1" viewBox="0 0 512 512" xmlns="http://www.w3.org/2000/svg">
 <g fill="#443f3c">
  <path d="m414.51 226.44-11.438-12.688 11.676-13.527c4-4.625 6.1055-10.496 5.9336-16.535-1.4805-52.82-17.762-95.633-48.402-127.25-27.715-28.602-66.598-47.57-115.56-56.383-0.47656-0.085938-0.96484-0.085938-1.4414 0-48.957 8.8125-87.84 27.781-115.55 56.379-30.641 31.613-46.922 74.426-48.402 127.25-0.17187 6.0391 1.9375 11.914 5.9336 16.535l11.676 13.531-11.438 12.684c-4.0547 4.4961-6.2852 10.305-6.2852 16.355v265.14c0 2.2422 1.8203 4.0625 4.0625 4.0625h321.46c2.2422 0 4.0625-1.8203 4.0625-4.0625v-265.14c0-6.0508-2.2305-11.859-6.2852-16.352zm-182.12 252.25h-103.4v-15.543h103.39zm0-285.05c-14.027 8.6211-22.652 24.172-22.652 41.191 0 17.012 8.6289 32.559 22.652 41.188v179h-103.4v-208.15c0-3.4414 1.0742-6.75 3.0977-9.5508l15.219-21.008c1.0117-1.3984 1.0312-3.2812 0.046875-4.6992l-15.32-22.09c-2.0156-2.9023-3.043-6.3789-2.8945-9.793 2.6992-61.113 43.012-112.59 103.25-132.56zm19.555 285.05h-11.43v-433.98c3.7305-1.0352 7.5508-1.957 11.43-2.7461zm19.555 0h-11.43v-436.73c3.8789 0.78906 7.6953 1.7109 11.43 2.7461zm111.52 0h-103.4v-15.543h103.39zm0-23.672h-103.4v-179c14.027-8.6289 22.652-24.18 22.652-41.188 0-17.02-8.6289-32.57-22.652-41.191v-146.47c60.234 19.965 100.55 71.445 103.25 132.56 0.14844 3.4141-0.87891 6.8906-2.8945 9.7969l-15.32 22.086c-0.98438 1.418-0.96484 3.3008 0.046874 4.6992l15.215 21.004c2.0273 2.8086 3.1016 6.1133 3.1016 9.5586v208.15z"/>
  <path d="m185.13 362.22c-9.0625 0-16.438 7.3711-16.438 16.426 0 9.0586 7.375 16.426 16.438 16.426 9.0586 0 16.426-7.3711 16.426-16.426 0-9.0586-7.3672-16.426-16.426-16.426zm0 24.727c-4.582 0-8.3086-3.7227-8.3086-8.3008s3.7266-8.3008 8.3086-8.3008c4.5781 0 8.3008 3.7227 8.3008 8.3008s-3.7227 8.3008-8.3008 8.3008z"/>
  <path d="m178.29 312.61c0-9.0586-7.3711-16.426-16.426-16.426-9.0586 0-16.426 7.3711-16.426 16.426 0 9.0586 7.3711 16.426 16.426 16.426 9.0586 0 16.426-7.3711 16.426-16.426zm-16.426 8.2969c-4.5781 0-8.3008-3.7227-8.3008-8.3008 0-4.5781 3.7227-8.3008 8.3008-8.3008s8.3008 3.7227 8.3008 8.3008c0 4.5781-3.7227 8.3008-8.3008 8.3008z"/>
  <path d="m165.39 234.83c0 9.0586 7.375 16.426 16.438 16.426 9.0586 0 16.426-7.3711 16.426-16.426 0-9.0625-7.3711-16.438-16.426-16.438-9.0625 0-16.438 7.375-16.438 16.438zm16.438-8.3086c4.5781 0 8.3008 3.7266 8.3008 8.3086 0 4.5781-3.7227 8.3008-8.3008 8.3008-4.582 0-8.3086-3.7227-8.3086-8.3008-0.003907-4.582 3.7266-8.3086 8.3086-8.3086z"/>
  <path d="m145.43 164.9c0 9.0625 7.3711 16.438 16.426 16.438 9.0586 0 16.426-7.375 16.426-16.438 0-9.0586-7.3711-16.426-16.426-16.426-9.0586-0.003906-16.426 7.3672-16.426 16.426zm24.727 0c0 4.582-3.7227 8.3086-8.3008 8.3086s-8.3008-3.7266-8.3008-8.3086c0-4.5781 3.7227-8.3008 8.3008-8.3008s8.3008 3.7227 8.3008 8.3008z"/>
  <path d="m203.46 130.67c9.0586 0 16.426-7.3711 16.426-16.426 0-9.0625-7.3711-16.438-16.426-16.438-9.0586 0-16.426 7.375-16.426 16.438-0.003906 9.0547 7.3672 16.426 16.426 16.426zm0-24.738c4.5781 0 8.3008 3.7266 8.3008 8.3086 0 4.5781-3.7227 8.3008-8.3008 8.3008-4.5781 0-8.3008-3.7227-8.3008-8.3008 0-4.5781 3.7227-8.3086 8.3008-8.3086z"/>
  <path d="m326.87 362.22c-9.0586 0-16.426 7.3711-16.426 16.426 0 9.0586 7.3711 16.426 16.426 16.426 9.0625 0 16.438-7.3711 16.438-16.426 0-9.0586-7.375-16.426-16.438-16.426zm0 24.727c-4.5781 0-8.3008-3.7227-8.3008-8.3008s3.7227-8.3008 8.3008-8.3008c4.582 0 8.3086 3.7227 8.3086 8.3008s-3.7266 8.3008-8.3086 8.3008z"/>
  <path d="m350.14 296.18c-9.0586 0-16.426 7.3711-16.426 16.426 0 9.0586 7.3711 16.426 16.426 16.426 9.0586 0 16.426-7.3711 16.426-16.426 0-9.0586-7.3672-16.426-16.426-16.426zm0 24.723c-4.5781 0-8.3008-3.7227-8.3008-8.3008 0-4.5781 3.7227-8.3008 8.3008-8.3008s8.3008 3.7227 8.3008 8.3008c0 4.5781-3.7227 8.3008-8.3008 8.3008z"/>
  <path d="m313.74 234.83c0 9.0586 7.3711 16.426 16.426 16.426 9.0625 0 16.438-7.3711 16.438-16.426 0-9.0625-7.375-16.438-16.438-16.438-9.0547 0-16.426 7.375-16.426 16.438zm16.426-8.3086c4.582 0 8.3086 3.7266 8.3086 8.3086 0 4.5781-3.7266 8.3008-8.3086 8.3008-4.5781 0-8.3008-3.7227-8.3008-8.3008 0.003906-4.582 3.7266-8.3086 8.3008-8.3086z"/>
  <path d="m350.14 181.33c9.0586 0 16.426-7.375 16.426-16.438 0-9.0586-7.3711-16.426-16.426-16.426-9.0586 0-16.426 7.3711-16.426 16.426 0 9.0664 7.3672 16.438 16.426 16.438zm0-24.734c4.5781 0 8.3008 3.7227 8.3008 8.3008 0 4.582-3.7227 8.3086-8.3008 8.3086s-8.3008-3.7266-8.3008-8.3086c0-4.5781 3.7227-8.3008 8.3008-8.3008z"/>
  <path d="m324.97 114.25c0-9.0625-7.3711-16.438-16.426-16.438-9.0586 0-16.426 7.375-16.426 16.438 0 9.0586 7.3711 16.426 16.426 16.426 9.0547 0 16.426-7.3711 16.426-16.426zm-16.43 8.2969c-4.5781 0-8.3008-3.7227-8.3008-8.3008 0-4.582 3.7227-8.3086 8.3008-8.3086 4.5781 0 8.3008 3.7266 8.3008 8.3086 0 4.5781-3.7227 8.3008-8.3008 8.3008z"/>
 </g>
</svg>
