<?xml version="1.0" encoding="UTF-8"?>
<svg width="512pt" height="512pt" version="1.1" viewBox="0 0 512 512" xmlns="http://www.w3.org/2000/svg">
 <g fill="#443f3c">
  <path d="m96 360v-64h-48v64zm-32-48h16v32h-16z"/>
  <path d="m48 408v64h48v-64zm32 48h-16v-32h16z"/>
  <path d="m488 457.47v-9.4727c0-10.414-6.7109-19.215-16-22.527v-209.47h-16v-91.633l-132.99-116.37h-22.016l-132.99 116.37v91.633h-16v209.47c-9.2891 3.3125-16 12.113-16 22.527v9.4727c-0.48047 0.16797-0.99219 0.28125-1.457 0.48047l-14.926-305.95h-39.617v32h-16v-32h-39.617l-16.383 336v16h496v-24c0-10.414-6.7109-19.215-16-22.527zm-373.46-81.473h-85.062l4.6797-96h75.695zm-66.535-208v32h48v-32h8.3828l4.6875 96h-74.133l4.6797-96zm-23.992 320 4.6797-96h86.625l4.6875 96zm367.99-272v-80h48v80zm-48 0h-64v-48h64zm-80-64v64h-16v-80h128v80h-16v-64zm124.37-32-49.297-76.68 87.633 76.68zm-76.367-89.207 57.344 89.207h-114.69zm-76.367 89.207h-38.336l87.633-76.68zm-51.633 16h48v80h-48zm272 96v192h-96v-48c0-26.473-21.527-48-48-48s-48 21.527-48 48v48h-96v-192zm-112 192h-64v-48c0-17.648 14.352-32 32-32s32 14.352 32 32zm-184 16h304c4.4141 0 8 3.5859 8 8v8h-320v-8c0-4.4141 3.5859-8 8-8zm328 48h-352v-8c0-4.4141 3.5859-8 8-8h336c4.4141 0 8 3.5859 8 8z"/>
  <path d="m408 152h16v16h-16z"/>
  <path d="m408 184h16v16h-16z"/>
  <path d="m200 152h16v16h-16z"/>
  <path d="m200 184h16v16h-16z"/>
  <path d="m320 88h16v16h-16z"/>
  <path d="m288 88h16v16h-16z"/>
  <path d="m280 248h-96v64h96zm-16 48h-64v-32h64z"/>
  <path d="m440 248h-96v64h96zm-16 48h-64v-32h64z"/>
  <path d="m376 408h64v-80h-64zm16-64h32v48h-32z"/>
  <path d="m248 328h-64v80h64zm-16 64h-32v-48h32z"/>
 </g>
</svg>
