<?xml version="1.0" encoding="UTF-8"?>
<svg width="512pt" height="512pt" version="1.1" viewBox="0 0 512 512" xmlns="http://www.w3.org/2000/svg">
 <g fill="#443f3c">
  <path d="m441.27 116.12c-10.562-8.7539-25.473-16.539-44.312-23.141-37.766-13.238-87.828-20.527-140.96-20.527s-103.19 7.2891-140.96 20.527c-18.84 6.6016-33.75 14.391-44.312 23.141-12.051 9.9883-18.164 20.961-18.164 32.617v216.2l3.5781 2.2617c1.8203 1.1484 45.367 28.312 116.55 42.637 1.082 0.21875 2.168 0.42578 3.2539 0.63281 0.11328 0.023437 0.22656 0.046875 0.34375 0.066406 26.211 5.043 52.742 7.6367 79.312 7.7695 0.13281 0.007813 0.26563 0.015625 0.39844 0.015625 0.0625 0 0.125-0.007812 0.1875-0.011718 0.51172 0.003906 1.0273 0.007812 1.5391 0.007812 13.867 0 27.746-0.67188 41.582-2.0156 14.871-1.4453 29.711-3.6719 44.484-6.6758 0.24609-0.039063 0.49219-0.089844 0.73438-0.15234 23.73-4.8633 47.297-11.723 70.562-20.535 0.20703-0.070313 0.41406-0.14453 0.61719-0.23438 13.234-5.0352 26.375-10.699 39.391-16.992l4.3359-2.0977v-220.88c0-11.656-6.1133-22.629-18.164-32.617zm2.8047 148.55c-14.695 6.7852-29.039 12.672-43.016 17.754l43.016-96.219zm-18.539 74.289c-0.77734 15.375-9.1289 27.215-14.137 32.992-10.223-6.6719-16.004-14.695-17.625-24.406-3.0547-18.305 9.3867-38.289 16.961-48.449 10.496 13.281 15.469 26.66 14.801 39.863zm-46.922 11.059c1.8945 11.438 7.6875 21.309 17.27 29.48-11.188 3.8203-22.199 7.0898-33.008 9.8672 5.1094-8.4805 9.5156-19.469 9.4922-32.148-0.027344-15.465-6.5508-30.227-19.406-44.027 11.867-2.9219 23.773-6.3242 35.707-10.211 0.34375-0.085938 0.68359-0.19922 1.0078-0.33203 0.13281-0.042969 0.26562-0.085938 0.39453-0.13281-7.4414 12.867-14.32 30.215-11.457 47.504zm-202.09-28.199c9.9922 10.473 25.91 31.426 23.043 48.773-1.5234 9.2305-8.4805 17.035-20.699 23.242-8.7383-8.4883-23.043-26.238-21.77-43.43 0.78125-10.496 7.3086-20.094 19.426-28.586zm-7.5508-19.379c-16.508-3.625-31.254-8.1172-44.094-12.824l76.145-62.465 38.062 83.527c-26.93-0.59766-50.461-3.9219-70.113-8.2383zm47.332-78.805c12.934 0.91797 26.215 1.3867 39.691 1.3867 18.637 0 36.891-0.90234 54.375-2.6367l-57.766 80.918zm-102.9 55.535-32.207-90.34c9.2305 5.7578 20.555 11.008 33.844 15.664 20.25 7.0977 44.039 12.484 69.938 15.953zm-45.48-81.824 28.625 80.297c-14.336-6.9258-24.051-13.066-28.625-16.156zm22.586 124.34c1.2969-8.4961 5.3438-15.648 12.312-21.715 9.2812 11.492 23.195 33.332 19.844 50.922-1.6133 8.4648-7.0039 15.336-16.43 20.883-6.3945-9.457-18.695-30.652-15.727-50.09zm47.246 32.082c3.1914-16.766-3.9414-34.215-11.844-47.445 10.105 3.4688 21.234 6.7656 33.348 9.6523-10.691 9.7617-16.555 20.91-17.477 33.297-1.1641 15.68 6.0391 30.156 13.777 40.922-12.496-3.1719-23.914-6.6953-34.125-10.258 8.8867-7.1094 14.359-15.867 16.32-26.168zm76.969 19.324c3.0547-18.492-7.3555-37.195-17.117-50.09 13.109 1.7109 26.391 2.7539 39.809 3.1172-8.6016 10.207-17.906 25.355-17.41 42.773 0.34375 11.953 5.1602 23.098 14.352 33.316-12.398-0.67578-24.109-1.8711-35.039-3.4062 8.6055-7.1914 13.766-15.785 15.406-25.711zm61.418-0.10938c-1.9336 14.32-13.641 24.152-19.844 28.434-13.543-10.188-20.582-21.242-20.934-32.91-0.51563-16.996 12.84-32.242 20.352-39.441 15.359 15.809 22.227 30.562 20.426 43.918zm50.609-147.11 47.504 65.473c-39.48 11.93-75.621 17.473-107.79 18.98zm13.598-7.4141c20.746-3.4141 39.883-8.1055 56.609-13.969 10.367-3.6328 19.535-7.625 27.449-11.941l-39.215 87.715zm-2.6562 101.13c12.762 12.109 19.254 24.715 19.312 37.543 0.074219 16.348-10.312 29.645-15.918 35.625-13.695-7.2656-21.492-16.23-23.191-26.695-2.9336-18.094 11.844-37.523 19.797-46.473zm-217.57-212.13c36.18-12.676 84.434-19.66 135.88-19.66s99.699 6.9844 135.88 19.664c32.684 11.453 52.195 26.883 52.195 41.266 0 14.383-19.512 29.812-52.195 41.266-19.023 6.668-41.395 11.758-65.805 15.09-0.28125 0.023438-0.55469 0.0625-0.82812 0.11328-21.777 2.9258-45.16 4.457-69.246 4.457-17.492 0-34.613-0.80859-51.02-2.375-0.24219-0.035156-0.48438-0.058593-0.73047-0.070312-31.559-3.0547-60.438-8.9141-84.129-17.219-32.684-11.453-52.195-26.879-52.195-41.266 0-14.383 19.512-29.809 52.195-41.266zm-52.195 172.27c5.4609 3.2969 12.691 7.3438 21.609 11.66-7.8203 7.8945-12.59 17.281-14.219 28.035-2.4805 16.367 2.9492 32.848 9.1133 45.383-7.6055-3.6133-13.184-6.625-16.504-8.5039zm210.45 122.55c5.9648-6.7852 11.418-15.828 12.977-27.105 2.2188-16.043-3.8906-32.703-18.156-49.68 5.8086-0.35156 11.637-0.82031 17.48-1.418 8.8633-0.90625 17.77-2.1016 26.707-3.5781-8.7109 12.379-17.543 29.992-14.645 47.969 1.832 11.355 7.9492 21.215 18.246 29.469-14.73 2.2578-28.961 3.6523-42.609 4.3438zm156.24-38c3.2148-6.8516 5.75-15.039 6.2539-24.328 0.91406-16.859-4.9609-33.508-17.48-49.617 6.8945-2.7734 13.789-5.7031 20.688-8.793l0.003907 78.406c-3.168 1.4922-6.3203 2.9336-9.4648 4.332z"/>
  <path d="m170.82 184.95c22.871 8.0156 53.121 12.43 85.18 12.43s62.309-4.4141 85.18-12.43c32.539-11.402 39.371-25.984 39.371-36.211s-6.832-24.805-39.371-36.211c-22.871-8.0117-53.121-12.426-85.18-12.426s-62.309 4.4141-85.18 12.43c-32.539 11.402-39.371 25.988-39.371 36.211 0.003906 10.223 6.832 24.805 39.371 36.207zm5.082-57.926c21.277-7.457 49.723-11.562 80.098-11.562s58.82 4.1055 80.098 11.566c21.449 7.5156 29.09 16.145 29.09 21.715 0 5.5703-7.6406 14.199-29.09 21.715-21.277 7.457-49.723 11.562-80.098 11.562s-58.82-4.1055-80.098-11.566c-21.449-7.5156-29.09-16.145-29.09-21.715 0-5.5664 7.6406-14.195 29.09-21.715z"/>
  <path d="m256 175.25c29.574 0 61.402-8.2969 61.402-26.508 0-18.215-31.828-26.512-61.402-26.512s-61.402 8.2969-61.402 26.508c0 18.215 31.828 26.512 61.402 26.512zm-33.438-33.242c9.1211-2.8477 20.996-4.418 33.438-4.418s24.316 1.5703 33.441 4.418c8.6836 2.7109 11.871 5.6289 12.523 6.7305-0.65625 1.1016-3.8398 4.0195-12.523 6.7305-9.1211 2.8477-20.996 4.418-33.441 4.418-12.441 0-24.316-1.5703-33.438-4.418-8.6836-2.7109-11.871-5.6289-12.523-6.7305 0.65234-1.1016 3.8398-4.0156 12.523-6.7305z"/>
 </g>
</svg>
