<?xml version="1.0" encoding="UTF-8"?>
<svg width="512pt" height="512pt" version="1.1" viewBox="0 0 512 512" xmlns="http://www.w3.org/2000/svg">
 <g fill="#443f3c">
  <path d="m363.36 363.36h16.516v33.031h-16.516z"/>
  <path d="m412.9 363.36h16.516v33.031h-16.516z"/>
  <path d="m462.45 363.36h16.516v33.031h-16.516z"/>
  <path d="m33.031 363.36h16.516v33.031h-16.516z"/>
  <path d="m82.582 363.36h16.516v33.031h-16.516z"/>
  <path d="m132.13 363.36h16.516v33.031h-16.516z"/>
  <path d="m289.03 363.36h16.516v33.031h-16.516z"/>
  <path d="m206.45 363.36h16.516v33.031h-16.516z"/>
  <path d="m429.42 256c0 4.5625-3.6953 8.2578-8.2578 8.2578-4.5586 0-8.2578-3.6953-8.2578-8.2578s3.6992-8.2578 8.2578-8.2578c4.5625 0 8.2578 3.6953 8.2578 8.2578"/>
  <path d="m495.48 297.29h-16.516c-9.1055 0-16.516-7.4102-16.516-16.516v-24.773c0-19.941-14.207-36.625-33.031-40.461l-0.003906-33.863h-16.516v33.863c-18.824 3.8359-33.031 20.52-33.031 40.461v24.773c0 9.1055-7.4102 16.516-16.516 16.516h-16.516v-49.547h15.43l-38.934-58.398 2.8984-5.7891c2.6758-5.3516 4.0898-11.344 4.0898-17.332 0-19.023-13.617-35.098-32.383-38.227l-17.168-2.8633v-20.934l0.87109-0.4375c9.6523-4.8203 15.645-14.52 15.645-25.309s-5.9961-20.488-15.645-25.312l-17.387-8.6953v-11.414h16.516v-16.516h-16.516v-16.516h-16.516v16.516h-16.516v16.516h16.516v11.414l-17.387 8.6953c-9.6523 4.8242-15.645 14.523-15.645 25.312s5.9961 20.488 15.645 25.312l0.87109 0.4375v20.934l-17.164 2.8633c-18.766 3.1211-32.387 19.199-32.387 38.219 0 5.9844 1.4141 11.977 4.0898 17.332l2.8945 5.7891-38.93 58.402h15.43v49.547h-16.516c-9.1055 0-16.516-7.4102-16.516-16.516v-24.773c0-19.941-14.207-36.625-33.031-40.461v-33.863h-16.516v33.863c-18.824 3.8359-33.035 20.52-33.035 40.461v24.773c0 9.1055-7.4102 16.516-16.516 16.516h-16.516c-9.1055 0-16.516 7.4102-16.516 16.516v198.2h512v-198.2c0-9.1055-7.4102-16.516-16.516-16.516zm-16.516 16.516h16.516v16.516h-49.547v-33.031h4.4453c5.7188 9.8633 16.387 16.516 28.586 16.516zm-148.64 99.098v-66.066h165.16v66.066zm99.094 82.582h-33.031v-24.773h33.031zm-33.031-41.289c-9.1055 0-16.516 7.4102-16.516 16.516v24.773h-16.516v-24.773h-16.516v24.773h-16.516v-66.066h16.516v24.773h16.516v-24.773h41.289v24.773zm-132.13 41.289h-16.516v-33.031h16.516zm0-49.551h-16.516c-9.1055 0-16.516 7.4102-16.516 16.516v33.031h-33.031v-66.066h33.031c9.1055 0 16.516-7.4102 16.516-16.516v-8.2578c0-4.5547 3.7031-8.2578 8.2578-8.2578s8.2578 3.7031 8.2578 8.2578v8.2578c0 9.1055 7.4102 16.516 16.516 16.516h33.031v66.066h-33.031v-33.031c0-9.1055-7.4102-16.516-16.516-16.516zm-115.61 24.777v24.773h-16.516v-24.773c0-9.1055-7.4102-16.516-16.516-16.516h-8.2578v-24.773h41.289v24.773h16.516v-24.773h16.516v66.066h-16.516v-24.773zm-33.031 0v24.773h-33.031v-24.773zm-99.098-57.809v-66.066h165.16v66.066zm82.582-115.61v33.031l-16.516 0.003907v-33.031zm132.13 0h-16.516v-8.2578c0-4.5547 3.7031-8.2578 8.2578-8.2578s8.2578 3.7031 8.2578 8.2578zm66.062 0h-16.516v-8.2578c0-4.5547 3.7031-8.2578 8.2578-8.2578s8.2578 3.7031 8.2578 8.2578zm33.035 16.516v16.516h-41.289c0-6.0156-1.625-11.652-4.4453-16.516zm-66.066 67.488v-17.938h-16.516v17.938c-9.6133 3.4102-16.516 12.59-16.516 23.355v8.2578h-33.031v-66.066h115.61v66.066h-33.031v-8.2578c-0.003906-10.77-6.9062-19.949-16.52-23.355zm8.2578-50.969h-33.031c0-9.1055 7.4102-16.516 16.516-16.516 9.1055-0.003906 16.516 7.4062 16.516 16.516zm-45.105-16.52c-2.8203 4.8633-4.4453 10.504-4.4453 16.516h-41.289v-16.516zm202.01-16.516v33.031h-16.516v-33.031zm-33.031-41.289c0-13.66 11.113-24.773 24.773-24.773s24.773 11.113 24.773 24.773v24.773h-49.547zm-33.031 57.805c12.199 0 22.867-6.6523 28.59-16.516h4.4414v33.031h-49.547v-16.516zm-68.371-82.578-11.012-33.031h25.414l22.02 33.031zm-58.535-56.004c-3.3711-3.3711-5.2227-7.8477-5.2227-12.613 0-5.9766 2.9688-11.523 7.9414-14.84l11.074-7.3828h11.516l11.074 7.3828c4.9727 3.3164 7.9414 8.8633 7.9414 14.84 0 4.7656-1.8555 9.2422-5.2227 12.613l-6.4531 6.4531h-26.191zm27.809-51.352h-16.516v-16.516h16.516zm2.3047 74.324 11.012 33.031h-43.148l11.012-33.031zm47.242-31.977c0 3.4336-0.8125 6.875-2.3477 9.9453l-2.7578 5.5117h-17.18c3.75-5.5977 5.7656-12.176 5.7656-19.066 0-6.8477-2.0391-13.398-5.6953-18.93l3.6289 0.60547c10.773 1.793 18.586 11.02 18.586 21.934zm-76.062-98.309 18.258-9.1289 18.258 9.1289c4.0195 2.0117 6.5156 6.0508 6.5156 10.543s-2.4961 8.5312-6.5156 10.539l-3.6914 1.8477h-29.133l-3.6953-1.8477c-4.0156-2.0078-6.5117-6.0469-6.5117-10.539s2.4961-8.5312 6.5156-10.543zm-20.969 76.375 3.6289-0.60547c-3.6562 5.5312-5.6953 12.082-5.6953 18.93 0 6.8906 2.0156 13.469 5.7656 19.066h-17.18l-2.7578-5.5117c-1.5352-3.0703-2.3477-6.5117-2.3477-9.9453 0.007812-10.914 7.8203-20.141 18.586-21.934zm-14.16 53.91h25.414l-11.012 33.031h-36.426zm-20.938 49.547h148.64v49.547h-16.516v-8.2578c0-13.66-11.113-24.773-24.773-24.773s-24.773 11.113-24.773 24.773v8.2578h-16.516v-8.2578c0-13.66-11.113-24.773-24.773-24.773s-24.773 11.113-24.773 24.773v8.2578h-16.516zm-33.031 66.062h16.516v16.516h-49.547v-33.031h4.4453c5.7188 9.8633 16.387 16.516 28.586 16.516zm-82.578-57.805c0-13.66 11.113-24.773 24.773-24.773s24.773 11.113 24.773 24.773v24.773h-49.547zm-33.035 57.805c12.199 0 22.867-6.6523 28.59-16.516h4.4453v33.031l-49.551 0.003907v-16.516zm-16.516 115.61h16.516v24.773h16.516v-24.773h41.289v24.773h-8.2578c-9.1055 0-16.516 7.4102-16.516 16.516v24.773l-16.516 0.003906v-24.773h-16.516v24.773h-16.516zm462.45 66.066v-24.773h-16.516v24.773h-16.516v-24.773c0-9.1055-7.4102-16.516-16.516-16.516h-8.2578v-24.773h41.289v24.773h16.516v-24.773h16.516v66.066z"/>
  <path d="m99.098 256c0 4.5625-3.6992 8.2578-8.2578 8.2578-4.5625 0-8.2578-3.6953-8.2578-8.2578s3.6953-8.2578 8.2578-8.2578c4.5586 0 8.2578 3.6953 8.2578 8.2578"/>
 </g>
</svg>
