<?xml version="1.0" encoding="UTF-8"?>
<svg width="512pt" height="512pt" version="1.1" viewBox="0 0 512 512" xmlns="http://www.w3.org/2000/svg">
 <g fill="#443f3c">
  <path d="m392 373.6c0-70.398-20-138.4-58.398-197.6h22.398c11.199 0 20-8.8008 20-20s-8.8008-20-20-20h-52.801c-24-28-52-51.199-83.199-71.199l-1.6016-0.80078h-18.398v14.398c-6.3984-4.8008-12.801-8.8008-20-12.801l-1.6016-1.5977h-2.3984v-48h-16v144h-24v16h24v304h-144v16h480v-16h-104zm-192-77.602h109.6l-109.6 72.801zm0 96h118.4l-118.4 80.801zm18.398-16 110.4-73.602c4.8008 23.199 7.1992 47.199 7.1992 71.199l0.003906 2.4023zm-10.398-96 71.199-96.801c20 29.602 34.398 62.398 44 96.801zm56-104-64 87.199v-87.199zm-64-16v-61.602c23.199 17.602 44 38.398 62.398 61.602zm136 239.2v80.801h-118.4zm-42.398-223.2h20.801c12 17.602 23.199 36 31.199 56h-9.6016v16h16.801c4 10.398 7.1992 20.801 10.398 32h-11.199v16h15.199c3.1992 12.801 5.6016 26.398 6.3984 40h-13.598v16h15.199c0.80078 7.1992 0.80078 14.398 0.80078 21.602v2.3984h-16v16h16v40h-16v16h16v32h-24v-106.4c0-70.402-20-138.4-58.398-197.6zm62.398-24c2.3984 0 4 1.6016 4 4s-1.6016 4-4 4h-33.602c-1.6016-2.3984-4-5.6016-6.3984-8zm-142.4-72c31.199 19.199 58.398 44 82.398 72 2.3984 2.3984 4 5.6016 6.3984 8h-20c-22.398-30.398-49.602-57.602-80.801-80zm-37.602 1.6016c2.3984 1.6016 5.6016 3.1992 8 5.6016v72.797h-8zm0 94.398h8v304h-8z"/>
  <path d="m368 96h72c13.602 0 24-10.398 24-24s-10.398-24-24-24c-4.8008 0-8-3.1992-8-8 0-13.602-10.398-24-24-24h-8c-13.602 0-24 10.398-24 24 0 4.8008-3.1992 8-8 8-13.602 0-24 10.398-24 24s10.398 24 24 24zm0-32c13.602 0 24-10.398 24-24 0-4.8008 3.1992-8 8-8h8c4.8008 0 8 3.1992 8 8 0 13.602 10.398 24 24 24 4.8008 0 8 3.1992 8 8s-3.1992 8-8 8h-72c-4.8008 0-8-3.1992-8-8s3.1992-8 8-8z"/>
  <path d="m44 288h20v-16h-20c-6.3984 0-12-5.6016-12-12s5.6016-12 12-12h76v-16h-76c-15.199 0-28 12.801-28 28s12.801 28 28 28z"/>
  <path d="m40 128h72c13.602 0 24-10.398 24-24s-10.398-24-24-24c-4.8008 0-8-3.1992-8-8 0-13.602-10.398-24-24-24h-8c-13.602 0-24 10.398-24 24 0 4.8008-3.1992 8-8 8-13.602 0-24 10.398-24 24s10.398 24 24 24zm0-32c13.602 0 24-10.398 24-24 0-4.8008 3.1992-8 8-8h8c4.8008 0 8 3.1992 8 8 0 13.602 10.398 24 24 24 4.8008 0 8 3.1992 8 8s-3.1992 8-8 8h-72c-4.8008 0-8-3.1992-8-8s3.1992-8 8-8z"/>
  <path d="m412 192h52v-16h-52c-15.199 0-28 12.801-28 28s12.801 28 28 28h20v-16h-20c-6.3984 0-12-5.6016-12-12s5.6016-12 12-12z"/>
  <path d="m480 176h16v16h-16z"/>
  <path d="m48 208h72v16h-72z"/>
  <path d="m128 208h16v16h-16z"/>
 </g>
</svg>
