<?xml version="1.0" encoding="UTF-8"?>
<svg width="512pt" height="512pt" version="1.1" viewBox="0 0 512 512" xmlns="http://www.w3.org/2000/svg">
 <g fill="#443f3c">
  <path d="m8 424v16h496v-16z"/>
  <path d="m504 208h-120c4.4258 0 8-3.5859 8-8v-32c0-4.4141-3.5742-8-8-8h-80c-13.23 0-24 10.77-24 24s10.77 24 24 24 24 10.77 24 24v43.824c-11.449 7.6797-25.207 12.176-40 12.176-4.4258 0-8 3.5742-8 8v8h-48c-36.105 0-67.586-20.055-83.977-49.586 20.656-5.3594 35.977-24.102 35.977-46.414v-24c0-4.4141-3.5742-8-8-8h-40v-32c0-13.23 10.77-24 24-24h32c4.4258 0 8-3.5859 8-8v-8h32v-16h-32v-8c0-4.4141-3.5742-8-8-8h-40.609c-22.238 0-42.383 13.168-51.305 33.551l-8.5352 19.512c-13.152 30.059-22.551 61.152-28.414 92.953-5.832-6.1367-14.016-10.016-23.137-10.016h-24c-4.4258 0-8 3.5859-8 8v48c0 4.4258 3.5742 8 8 8h24c6.2734 0 12.078-1.8789 17.023-5.0078-0.42578 6.5195-0.67969 13.062-0.80859 19.633-28.336 12.328-48.215 40.559-48.215 73.375 0 4.4258 3.5742 8 8 8h8.5508c3.9609 31.52 30.871 56 63.449 56 32.574 0 59.488-24.48 63.449-56h8.5508c4.4258 0 8-3.5742 8-8 0-2.7031-0.14453-5.3672-0.40625-8h176.81c-0.25781 2.6328-0.40234 5.2969-0.40234 8 0 4.4258 3.5742 8 8 8h8.5508c3.9609 31.52 30.871 56 63.449 56 32.574 0 59.488-24.48 63.449-56h8.5508c4.4258 0 8-3.5742 8-8v-64c0-29.762-14.887-56.062-37.559-72h37.559zm-464 48h-16v-32h16c8.8242 0 16 7.1758 16 16s-7.1758 16-16 16zm256-72c0-4.4062 3.5859-8 8-8h72v16h-72c-4.4141 0-8-3.5938-8-8zm64 24v8c0 17.098-6.0156 32.793-16 45.152v-29.152c0-9.0391-3.1289-17.297-8.207-24zm-192-16v16c0 15.793-11.527 28.871-26.602 31.457-3.4375-9.8711-5.3984-20.434-5.3984-31.457v-16zm-80 104c32.574 0 59.551 24.48 63.504 56h-127.01c3.9531-31.52 30.93-56 63.504-56zm13.777 72c-2.7773 4.7617-7.8789 8-13.777 8-5.8945 0-11-3.2383-13.777-8zm-13.777 40c-23.734 0-43.449-17.336-47.281-40h16.414c3.5742 13.77 15.992 24 30.863 24s27.289-10.23 30.863-24h16.414c-3.8242 22.664-23.539 40-47.273 40zm0-128c-5.3594 0-10.594 0.55078-15.656 1.5586 1.6797-51.879 12.969-102.32 33.863-150.08l8.5352-19.512c6.3789-14.562 20.762-23.969 36.648-23.969h32.609v16h-24c-22.055 0-40 17.945-40 40v64c0 61.762 50.238 112 112 112h48v16h-115.69c-10.223-32.414-40.559-56-76.312-56zm272.5 72c3.9453-31.52 30.922-56 63.504-56 32.586 0 59.551 24.48 63.504 56zm77.281 16c-2.7773 4.7617-7.8789 8-13.777 8-5.8945 0-11-3.2383-13.777-8zm-13.777 40c-23.734 0-43.449-17.336-47.281-40h16.414c3.5742 13.77 15.992 24 30.863 24s27.289-10.23 30.863-24h16.414c-3.8242 22.664-23.539 40-47.273 40zm64-112v16.207c-14.602-19.504-37.816-32.207-64-32.207-35.754 0-66.09 23.586-76.312 56h-51.688v-32.359c42.152-3.8164 75.801-37.488 79.617-79.641h40.383c39.703 0 72 32.305 72 72z"/>
 </g>
</svg>
