<?xml version="1.0" encoding="UTF-8"?>
<svg width="512pt" height="512pt" version="1.1" viewBox="0 0 512 512" xmlns="http://www.w3.org/2000/svg">
 <g fill="#443f3c">
  <path d="m488 480v-115.2l-8-8v-20.801h8v-16h-8v-204.8l8-8v-27.199h-8v-24c0-10.398-6.3984-19.199-16-22.398v-17.602h-16v17.602c-9.6016 3.1992-16 12-16 22.398v24h-8v27.199l8 8v172.8h-16v-4.8008c4.8008-6.3984 8-14.398 8-22.398v-7.1992c0-11.199-5.6016-21.602-14.398-28l-17.602-13.602v-20h-16v20l-17.602 13.602c-8.7969 6.3984-14.398 16.797-14.398 28v7.1992c0 8 3.1992 16 8 22.398v4.8008h-8v-16h-16v16h-8v-37.602l4-6.3984c21.602-32.801 12.801-76.801-20-98.398-1.6016-0.80078-3.1992-2.3984-4.8008-3.1992l-35.199-19.203v-27.199h-16v27.199l-35.199 20c-34.398 19.199-46.398 62.398-27.199 96 0.80078 1.6016 1.6016 3.1992 3.1992 4.8008l4 6.3984v37.602h-8v-16h-16v16h-8v-4.8008c4.8008-6.3984 8-14.398 8-22.398v-7.1992c0-11.199-5.6016-21.602-14.398-28l-18.402-13.602v-20h-16v20l-17.602 13.602c-8.7969 6.3984-14.398 16.797-14.398 28v7.1992c0 8 3.1992 16 8 22.398v4.8008h-16v-172.8l8-8v-27.199h-8v-24c0-10.398-6.3984-19.199-16-22.398v-17.602h-16v17.602c-9.6016 3.1992-16 12-16 22.398v24h-8v27.199l8 8v204.8h-8v16h8v20.801l-8 8v115.2h-8v16h480v-16zm-44.801-112h25.602l3.1992 3.1992v108.8h-32v-108.8zm20.801-16h-16v-16h16zm-16-32v-200h16v200zm8-272c4.8008 0 8 3.1992 8 8v24h-16v-24c0-4.8008 3.1992-8 8-8zm-16 48h32v4.8008l-3.1992 3.1992h-25.602l-3.1992-3.1992zm-74.398 178.4c-4-4-5.6016-8.8008-5.6016-13.602v-7.1992c0-6.3984 3.1992-12 8-15.199l16-12 16 12c4.8008 4 8 9.6016 8 15.199v7.1992c0 4.8008-2.3984 10.398-5.6016 13.602l-2.3984 2.4023v11.199h-32v-11.199zm66.398 29.602v16h-8v16h8v20.801l-8 8v115.2h-8v-160h-72v-16zm-90.398 88.801c1.6016 1.6016 2.3984 3.1992 2.3984 5.6016v81.598h-32v-81.602c0-2.3984 0.80078-4 2.3984-5.6016l5.6016-5.6016v-11.195c0-4.8008 3.1992-8 8-8s8 3.1992 8 8v11.199zm11.199-11.199-0.80078-0.80078v-4.8008c0-13.602-10.398-24-24-24s-24 10.398-24 24v4.8008l-0.80078 0.80078c-4.8008 4.7969-7.1992 10.398-7.1992 16.797v81.602h-8v-81.602c0-6.3984-2.3984-12.801-7.1992-16.801l-0.80078-0.79688v-4.8008c0-13.602-10.398-24-24-24s-24 10.398-24 24v4.8008l-0.80078 0.80078c-4.8008 4.7969-7.1992 10.398-7.1992 16.797v81.602h-8v-81.602c0-6.3984-2.3984-12.801-7.1992-16.801l-0.80078-0.79688v-4.8008c0-13.602-10.398-24-24-24s-24 10.398-24 24v4.8008l-0.80078 0.80078c-4.8008 4.7969-7.1992 10.398-7.1992 16.797v81.602h-40v-144h288v144h-40v-81.602c0-6.3984-2.3984-12-7.1992-16.797zm-83.199 11.199c1.6016 1.6016 2.3984 3.1992 2.3984 5.6016v81.598h-32v-81.602c0-2.3984 0.80078-4 2.3984-5.6016l5.6016-5.6016v-11.195c0-4.8008 3.1992-8 8-8s8 3.1992 8 8v11.199zm-72 0c1.6016 1.6016 2.3984 3.1992 2.3984 5.6016v81.598h-32v-81.602c0-2.3984 0.80078-4 2.3984-5.6016l5.6016-5.6016v-11.195c0-4.8008 3.1992-8 8-8s8 3.1992 8 8v11.199zm22.398-236 36-20 36 20c26.398 14.398 36 48 21.602 74.398-0.80078 1.6016-1.6016 2.3984-2.3984 4l-3.2031 4.8008h-104l-3.1992-4.8008c-16.801-24.801-9.6016-59.199 15.199-76 1.6016-0.80078 3.1992-1.5977 4-2.3984zm-12 99.199h96v32h-96zm120 48v16h-144v-16zm-218.4-29.602c-4-4-5.6016-8.8008-5.6016-13.602v-7.1992c0-6.3984 3.1992-12 8-15.199l16-12 16 12c4.8008 4 8 9.6016 8 15.199v7.1992c0 4.8008-2.3984 10.398-5.6016 13.602l-2.3984 2.4023v11.199h-32v-11.199zm58.398 29.602v16h-72v160h-8v-115.2l-8-8v-20.801h8v-16h-8v-16zm-112-256c4.8008 0 8 3.1992 8 8v24h-16v-24c0-4.8008 3.1992-8 8-8zm-16 48h32v4.8008l-3.1992 3.1992h-25.602l-3.1992-3.1992zm8 24h16v200h-16zm16 216v16h-16v-16zm-24 35.199 3.1992-3.1992h25.602l3.1992 3.1992v108.8h-32z"/>
  <path d="m368 360h16v32h-16z"/>
  <path d="m368 408h16v64h-16z"/>
  <path d="m120 360h16v32h-16z"/>
  <path d="m120 408h16v64h-16z"/>
  <path d="m448 384h16v72h-16z"/>
  <path d="m48 384h16v72h-16z"/>
  <path d="m216 264h16v16h-16z"/>
  <path d="m248 264h16v16h-16z"/>
  <path d="m280 264h16v16h-16z"/>
 </g>
</svg>
