<?xml version="1.0" encoding="UTF-8"?>
<svg width="512pt" height="512pt" version="1.1" viewBox="0 0 512 512" xmlns="http://www.w3.org/2000/svg">
 <g fill="#443f3c">
  <path d="m390.61 96.512h-23.5v-20.273c0-5.6836-4.6094-10.238-10.238-10.238-5.6328 0-10.238 4.6094-10.238 10.238v20.273h-13.211v-20.273c0-5.6836-4.6094-10.238-10.238-10.238-5.6328 0-10.238 4.6094-10.238 10.238v20.273h-13.211v-20.273c0-5.6836-4.6094-10.238-10.238-10.238-5.6328 0-10.238 4.6094-10.238 10.238v20.273h-13.211v-20.273c0-5.6836-4.6094-10.238-10.238-10.238-5.6836 0-10.238 4.6094-10.238 10.238v20.273h-13.211v-20.273c0-5.6836-4.6094-10.238-10.238-10.238-5.6328 0-10.238 4.6094-10.238 10.238v20.273h-13.211v-20.273c0-5.6836-4.6094-10.238-10.238-10.238-5.6328 0-10.238 4.6094-10.238 10.238v20.273h-13.211v-20.273c0-5.6836-4.6094-10.238-10.238-10.238-5.6328 0-10.238 4.6094-10.238 10.238v20.273h-23.5c-5.8359 0-10.547 4.7109-10.547 10.547v42.547c0 5.8359 4.7109 10.547 10.547 10.547h23.5v13.16h-23.5c-5.8359 0-10.547 4.7109-10.547 10.547s4.7109 10.547 10.547 10.547h23.5v58.215c0 5.6836 4.6094 10.238 10.238 10.238 5.6328 0 10.238-4.6094 10.238-10.238l-0.015625-58.215h13.211v84.734c0 5.6836 4.6094 10.238 10.238 10.238 5.6328 0 10.238-4.6094 10.238-10.238l0.003906-84.734h13.211v75.93c-10.238 10.855-16.59 25.445-16.59 41.473 0 33.383 27.137 60.52 60.52 60.52s60.52-27.137 60.52-60.52c0-16.078-6.3477-30.668-16.59-41.473v-75.93h13.211v84.734c0 5.6836 4.6094 10.238 10.238 10.238 5.6328 0 10.238-4.6094 10.238-10.238v-84.734h13.211v58.215c0 5.6836 4.6094 10.238 10.238 10.238 5.6328 0 10.238-4.6094 10.238-10.238l0.003907-58.215h23.5c5.8359 0 10.547-4.7109 10.547-10.547s-4.7109-10.547-10.547-10.547h-23.5v-13.16h23.5c5.8359 0 10.547-4.7109 10.547-10.547v-42.547c0-5.8359-4.7109-10.547-10.547-10.547zm-44.031 21.094v21.453h-13.211v-21.453zm-33.691 0v21.453h-13.211v-21.453zm-33.688 0v21.453h-13.211v-21.453zm-13.16 42.547h13.211v13.16h-13.211zm-20.531 13.109h-13.211v-13.16h13.211zm0-55.656v21.453h-13.211v-21.453zm-33.691 0v21.453h-13.211v-21.453zm-33.688 0v21.453h-13.211v-21.453zm-46.645 21.402v-21.453h12.953v21.453zm33.434 34.254v-13.16h13.211v13.16zm33.691 0v-13.16h13.211v13.16zm46.898 21.145v57.855c-4.6094 0.76953-9.0117 2.0469-13.211 3.7891v-61.645zm10.238 156.77c-21.656 0-39.32-17.664-39.32-39.32 0-0.97266 0.050781-1.9453 0.15234-2.918 1.5859 1.0234 3.4805 1.6367 5.4766 1.6367 5.6836 0 10.238-4.6094 10.238-10.238v-19.969c3.8906-2.918 8.3438-5.1211 13.211-6.3984v52.07c0 5.6836 4.6094 10.238 10.238 10.238 5.6836 0 10.238-4.6094 10.238-10.238l0.007813-52.121c4.8125 1.332 9.2656 3.5312 13.211 6.3984v19.969c0 5.6836 4.6094 10.238 10.238 10.238 1.9961 0 3.8906-0.61328 5.4766-1.6367 0.050782 0.97266 0.15234 1.8945 0.15234 2.918 0.003906 21.707-17.609 39.371-39.32 39.371zm23.453-95.129c-4.1992-1.7422-8.6016-3.0195-13.211-3.7891v-57.855h13.211zm20.531-82.789v-13.16h13.211v13.16zm46.848 0h-13.211v-13.16h13.211zm33.484-34.254h-12.953v-21.453h12.953z"/>
  <path d="m431.26 35.891c-0.25781-5.6328-4.9141-10.086-10.598-10.086h-329.78c-5.6328 0-10.344 4.4531-10.598 10.086l-21.195 438.73c-0.15234 2.918 0.92187 5.7344 2.918 7.832 1.9961 2.0977 4.7617 3.2773 7.6797 3.2773h372.17c2.918 0 5.6836-1.1758 7.6797-3.2773 1.9961-2.0977 3.0703-4.9141 2.918-7.832zm-350.46 428.65 20.172-417.48h309.55l20.172 417.48z"/>
 </g>
</svg>
