<?xml version="1.0" encoding="UTF-8"?>
<svg width="512pt" height="512pt" version="1.1" viewBox="0 0 512 512" xmlns="http://www.w3.org/2000/svg">
 <path d="m359.04 414.08h-20.48v-21.117c-0.082032-4.3828-3.6172-7.9141-8-8h-18.238l-16-297.12c-0.027343-1.6562-0.65234-3.2461-1.7617-4.4805l-32-40.32c-1.4883-1.7148-3.6484-2.6992-5.918-2.6992-2.2734 0-4.4297 0.98438-5.9219 2.6992l-32 40.32c-1.1055 1.2344-1.7305 2.8242-1.7578 4.4805l-16 297.12h-19.52c-4.3828 0.085937-7.918 3.6172-8 8v21.121l-20.48-0.003906c-4.418 0-8 3.582-8 8v41.922c0 2.1211 0.84375 4.1562 2.3438 5.6562s3.5352 2.3438 5.6562 2.3438h206.08c2.1211 0 4.1562-0.84375 5.6562-2.3438s2.3438-3.5352 2.3438-5.6562v-41.922c0-2.1211-0.84375-4.1562-2.3438-5.6562s-3.5352-2.3438-5.6562-2.3438zm-128-322.72 16.801-20.801v137.44c0 4.418 3.582 8 8 8 4.418 0 8-3.582 8-8v-137.44l16.801 20.801 16 293.6h-80zm-41.598 309.6h133.12v13.121l-133.12-0.003906zm161.6 55.039h-190.08v-25.922h190.08zm-87.043-211.52v52c0 4.418-3.582 8-8 8s-8-3.582-8-8v-52c0-4.418 3.582-8 8-8s8 3.582 8 8z" fill="#443f3c"/>
</svg>
