<?xml version="1.0" encoding="UTF-8"?>
<svg width="512pt" height="512pt" version="1.1" viewBox="0 0 512 512" xmlns="http://www.w3.org/2000/svg">
 <path d="m92.723 93.391c-23.895 24.168-35.84 51.098-35.84 80.793-20.488 22.422-31.672 51.805-31.281 82.176-0.38672 30.527 10.934 60.043 31.641 82.48 0 29.695 12.051 56.508 36.148 80.434 24.098 23.926 51.031 35.875 80.793 35.84v0.003907c22.383 20.371 51.656 31.496 81.918 31.129 30.531 0.38672 60.047-10.938 82.484-31.641 29.695 0 56.508-12.051 80.434-36.148 23.926-24.098 35.875-51.031 35.84-80.793 20.547-22.344 31.82-51.668 31.539-82.023 0.38672-30.527-10.934-60.043-31.641-82.48 0-29.695-12.051-56.508-36.148-80.434-24.098-23.93-50.992-35.93-80.688-35.996-22.477-20.457-51.895-31.59-82.281-31.129-30.527-0.38672-60.043 10.934-82.48 31.641-29.699 0-56.508 12.047-80.438 36.148zm-35.48 162.61c-0.77344-24.891 9.3867-48.875 27.801-65.637 18.008-16.875 41.887-26.059 66.559-25.602 25.871-0.089844 50.375 11.613 66.562 31.797 5.9922 7.3359 10.969 15.445 14.797 24.113-16.461-8.0039-34.539-12.121-52.84-12.031-32.801-0.33984-64.293 12.867-87.039 36.504-12.992 12.875-22.898 28.523-28.98 45.773-4.4844-11.098-6.8125-22.949-6.8594-34.918zm87.91 160.87c-11.23-4.6133-21.418-11.438-29.953-20.07-17.055-17.254-26.621-40.535-26.621-64.793 0-24.262 9.5664-47.543 26.621-64.797 17.066-17.469 40.605-27.09 65.023-26.57 11.789-0.074219 23.473 2.1523 34.406 6.5547-24.051 8.4883-44.793 24.391-59.238 45.414-14.555 19.867-22.473 43.824-22.629 68.453-0.20703 19.309 4.0352 38.402 12.391 55.809zm110.85 37.887c-24.891 0.77344-48.875-9.3867-65.637-27.801-16.875-18.008-26.059-41.887-25.602-66.559-0.089844-25.871 11.613-50.375 31.797-66.562 7.3359-5.9922 15.445-10.969 24.113-14.797-11.023 22.965-14.594 48.801-10.203 73.891 4.3867 25.09 16.512 48.184 34.676 66.039 12.875 12.992 28.523 22.898 45.773 28.98-11.102 4.4648-22.953 6.7773-34.918 6.8086zm140.8-57.957c-17.254 17.055-40.535 26.621-64.793 26.621-24.262 0-47.543-9.5664-64.797-26.621-17.469-17.066-27.09-40.605-26.57-65.023-0.074219-11.789 2.1523-23.473 6.5547-34.406 8.4883 24.051 24.391 44.793 45.414 59.238 19.867 14.555 43.824 22.473 68.453 22.629 19.375 0.23828 38.543-4.0039 56.012-12.391-4.6719 11.246-11.566 21.438-20.273 29.953zm57.957-140.8c0.77344 24.891-9.3867 48.875-27.801 65.637-18.008 16.875-41.887 26.059-66.559 25.602-25.871 0.089844-50.375-11.613-66.562-31.797-5.9922-7.3359-10.969-15.445-14.797-24.113 22.965 11.023 48.801 14.594 73.891 10.203 25.09-4.3867 48.184-16.512 66.039-34.676 12.992-12.875 22.898-28.523 28.98-45.773 4.4648 11.102 6.7773 22.953 6.8086 34.918zm-87.91-160.87c11.23 4.6133 21.418 11.438 29.953 20.07 17.398 17.012 27.027 40.438 26.625 64.77 0.011719 24.285-9.6484 47.578-26.844 64.73-17.199 17.148-40.52 26.742-64.805 26.66-11.789 0.074219-23.473-2.1523-34.406-6.5547 24.051-8.4883 44.793-24.391 59.238-45.414 14.555-19.867 22.473-43.824 22.629-68.453 0.20703-19.309-4.0352-38.402-12.391-55.809zm-110.85-37.887c24.891-0.77344 48.875 9.3867 65.637 27.801 16.875 18.008 26.059 41.887 25.602 66.559 0.089844 25.871-11.613 50.375-31.797 66.562-7.3359 5.9922-15.445 10.969-24.113 14.797 8.0039-16.461 12.121-34.539 12.031-52.84 0.33984-32.801-12.867-64.293-36.504-87.039-12.875-12.992-28.523-22.898-45.773-28.98 11.098-4.4844 22.949-6.8125 34.918-6.8594zm-11.211 58.059c17.445 17.043 27.062 40.543 26.57 64.922 0.074219 11.789-2.1523 23.473-6.5547 34.406-8.4883-24.051-24.391-44.793-45.414-59.238-19.867-14.555-43.824-22.473-68.453-22.629-19.375-0.23828-38.543 4.0039-56.012 12.391 4.6719-11.246 11.566-21.438 20.273-29.953 17.012-17.398 40.438-27.027 64.77-26.625 24.367-0.42188 47.828 9.2539 64.82 26.727z" fill="#443f3c"/>
</svg>
