<?xml version="1.0" encoding="UTF-8"?>
<svg width="512pt" height="512pt" version="1.1" viewBox="0 0 512 512" xmlns="http://www.w3.org/2000/svg">
 <g fill="#443f3c">
  <path d="m128 264h16v16h-16z"/>
  <path d="m160 264h16v16h-16z"/>
  <path d="m192 264h80v16h-80z"/>
  <path d="m320 264h72v16h-72z"/>
  <path d="m488 256h-12l-19.883-26.512 13.957-16.281c1.8789-2.1914 2.4336-5.2266 1.4453-7.9414-0.98438-2.7109-3.3555-4.6836-6.2031-5.1602-18.582-3.1367-37.68 0.16016-54.137 9.3477-7.8906-10.367-19.949-16.73-32.965-17.398l13.066-28.746c1.125-2.4766 0.91406-5.3555-0.55859-7.6406-1.4727-2.2852-4.0039-3.668-6.7227-3.668h-40c-24.016 0.027344-46.445 12.004-59.824 31.945-14.449-59.574-68.227-103.95-132.18-103.95-2.4648 0-4.7891 1.1367-6.3047 3.0781-1.5156 1.9414-2.0547 4.4727-1.457 6.8633l12.574 50.301v-0.003907c-13.559-8.0508-29.043-12.277-44.812-12.238-2.3203 0-4.5234 1.0078-6.043 2.7578-1.5195 1.7539-2.2031 4.0781-1.875 6.375l6.3164 44.215c-14.785-13.73-34.219-21.359-54.398-21.348-2.6562 0-5.1367 1.3164-6.625 3.5156s-1.7891 4.9922-0.80469 7.457l21.215 53.027h-13.785c-4.418 0-8 3.582-8 8v16h-8c-4.418 0-8 3.582-8 8v32h-8c-4.418 0-8 3.582-8 8v32c0 2.1211 0.84375 4.1562 2.3438 5.6562s3.5352 2.3438 5.6562 2.3438h464c2.1211 0 4.1562-0.84375 5.6562-2.3438s2.3438-3.5352 2.3438-5.6562v-64c0-2.1211-0.84375-4.1562-2.3438-5.6562s-3.5352-2.3438-5.6562-2.3438zm-8 32h-56v-16h56zm-44.688-32 11.82-11.82 8.8672 11.82zm12.074-40.91-25.688 29.973-1.7891-14.301c-0.29688-2.375-0.78906-4.7227-1.4727-7.0195 8.8594-5.0586 18.766-8.0195 28.949-8.6523zm-43.355 17.656 2.1758 17.414-14.988-7.4922-5.4883-32.934c4.8672 1.7891 9.1445 4.8828 12.375 8.9414 3.2266 4.0586 5.2773 8.9258 5.9258 14.07zm-29.477 7.2539h-18.129l13.27-29.188zm-259.45-31.773 3.6328 18.191-3.1484-1.5742h-0.003907c-1.1133-0.55469-2.3398-0.84375-3.582-0.84375h-12.684zm66.652 31.773h-35.863l-4.3828-2.1914 31.762-31.762zm90.246-24v24h-43.117l43.102-25.855c0.003906 0.61719 0.015625 1.2344 0.015625 1.8555zm16 0 32 24h-32zm56-48h27.574l-30.738 67.629-47.457-35.594c4.5469-9.5781 11.719-17.668 20.676-23.34 8.9609-5.668 19.344-8.6836 29.945-8.6953zm-73.602 28.43-72.215 43.328-35.828-143.32c26.543 2.3438 51.555 13.434 71.113 31.531 19.555 18.098 32.547 42.176 36.93 68.457zm-107.33-31.164 5.668 22.68-34.492 34.492-6.3906-32-6.5508-45.844h0.003906c15.844 2.0195 30.551 9.2969 41.762 20.672zm-59.539 31.898-19.465 19.461-15.777-39.438c13.605 2.6602 25.973 9.6719 35.242 19.973zm6.5781 42.836 30.312 15.156c1.1094 0.55469 2.3359 0.84375 3.5781 0.84375h238.11l25.891 12.945v19.055h-296v-8c0-3.0312-1.7109-5.8008-4.4219-7.1562l-43.578-21.789v-11.055zm-62.109 24h6.1094l41.891 20.945v3.0547h-48zm432 56h-448v-16h448z"/>
  <path d="m48 352h80v16h-80z"/>
  <path d="m160 352h192v16h-192z"/>
  <path d="m384 352h72v16h-72z"/>
  <path d="m88 384h112v16h-112z"/>
  <path d="m232 384h136v16h-136z"/>
  <path d="m168 416h120v16h-120z"/>
  <path d="m320 416h104v16h-104z"/>
  <path d="m64 416h48v16h-48z"/>
 </g>
</svg>
