<?xml version="1.0" encoding="UTF-8"?>
<svg width="512pt" height="512pt" version="1.1" viewBox="0 0 512 512" xmlns="http://www.w3.org/2000/svg">
 <g fill="#443f3c">
  <path d="m422.51 283.35-39.207-54.891c-3.6133-12.102-30.344-92.461-103.3-92.461-31.762-1.1758-61.996 13.668-80.484 39.523 7.3125-26.191 17.164-51.602 29.418-75.875 12.176-26.312 19.066-41.684 19.066-51.648 0-30.055-20.934-48-56-48-14.84-0.066406-29.246 5.0117-40.766 14.363-11.523 9.3555-19.449 22.406-22.438 36.945-7.1797 5.3125-24.797 20.039-24.797 36.691 0 43.684 18.332 54.109 20.422 55.156 2.2305 1.1172 4.8516 1.1289 7.0938 0.03125 2.2383-1.0938 3.8398-3.1719 4.3281-5.6172l7.5273-37.625 17.781-17.785c5.3555 2.5117 11.07 4.168 16.938 4.9062-14.09 23.719-42.375 78.934-30.242 122.62 5.3438 19.234 18.805 35.184 36.863 43.684 2.5664 11.348 14.484 36.84 68.363 41.738l18.926 42.59v22.305h-56c-2.1211 0-4.1562 0.84375-5.6562 2.3438s-2.3438 3.5352-2.3438 5.6562v24c0 4.418 3.582 8 8 8s8-3.582 8-8v-16h48v120h-16c-4.418 0-8 3.582-8 8s3.582 8 8 8h24c2.1211 0 4.1562-0.84375 5.6562-2.3438s2.3438-3.5352 2.3438-5.6562v-128h56c2.7266 0 5.2695-1.3906 6.7383-3.6875 1.4727-2.2969 1.668-5.1875 0.52734-7.6641l-34.652-75.086c24.285-7.0938 45.453-22.207 60.047-42.875l22.773 31.883c-9.7461-1.332-19.312-3.7695-28.508-7.2656-4.1133-1.6172-8.7539 0.40625-10.371 4.5195-1.6172 4.1133 0.40625 8.7539 4.5195 10.371 16.305 6.1016 33.52 9.4141 50.926 9.8047 2.9961 0 5.7422-1.6719 7.1133-4.3359 1.3711-2.6641 1.1406-5.875-0.60156-8.3125zm-142.51-131.35c53.988 0 79.043 56.125 86.098 75.551-26.973 11.277-56.461 15.156-85.434 11.242-28.969-3.9141-56.375-15.477-79.391-33.5 5.6875-16.145 16.402-30.035 30.574-39.629 14.176-9.5938 31.055-14.383 48.152-13.664zm-149.66-61.656c-1.1172 1.1172-1.8789 2.5391-2.1875 4.0859l-4.3086 21.535c-2.7969-9.0508-4.0977-18.496-3.8477-27.965 0-7.2227 9.2461-16.59 16.262-22.211l11.184 7.457zm201.15 269.66h-43.496v-24c0-1.1211-0.23438-2.2266-0.6875-3.25l-16.344-36.777c0.35938 0 0.66797 0.027344 1.0312 0.027344 9.6562 0.035156 19.297-0.80078 28.805-2.4961zm-59.496-80c-69.629 0-71.93-30.551-72-32.125-0.046875-3.0938-1.875-5.8789-4.6914-7.1562-15.609-6.1094-27.465-19.168-32.039-35.297-13.586-48.832 34.836-120.18 35.324-120.89 1.6836-2.4492 1.8672-5.6289 0.48438-8.2539-1.3828-2.6289-4.1094-4.2773-7.0781-4.2773-9.6641 0.81641-19.336-1.5195-27.562-6.6562l-19.367-12.91c2.5234-10.5 8.543-19.828 17.074-26.449 8.5273-6.6211 19.059-10.145 29.855-9.9844 18.246 0 40 5.5508 40 32 0 6.9258-8.9414 26.246-17.586 44.93-18.414 39.793-41.332 89.316-29.844 118.04 0.48047 1.1172 1.2188 2.1094 2.1523 2.8906l-0.074218 0.082031c33.246 26.844 74.527 41.777 117.25 42.41 17.109-0.046875 34.121-2.6211 50.477-7.6367-13.898 14.391-39.32 31.281-82.379 31.281z"/>
  <path d="m176 32h16v16h-16z"/>
 </g>
</svg>
