<?xml version="1.0" encoding="UTF-8"?>
<svg width="512pt" height="512pt" version="1.1" viewBox="0 0 512 512" xmlns="http://www.w3.org/2000/svg">
 <path d="m279.2 110.91c-0.44922 0.019531-0.88672 0.16406-1.2617 0.42188l-6.4844 4.4648-11.16 2.0625c-1.1914 0.21875-2.0312 1.293-1.9609 2.5039l0.43359 7.1094-1.2305 8.5156-3.4844 9.3633-4.0742 2.5742h0.003906c-0.11719 0.074219-0.23047 0.16016-0.33203 0.25781l-9.0586 8.2812-7.0664-1.1211c-0.38281-0.0625-0.77734-0.03125-1.1445 0.09375l-8.0078 2.6953-5.5039-3.3281c-0.72656-0.4375-1.6289-0.46094-2.375-0.058593l-5.6055 3.0039c-0.69141 0.37109-1.1562 1.0586-1.25 1.8398l-0.23047 1.9648-5.9492 2.1016h0.003906c-0.48828 0.17578-0.90625 0.5-1.1953 0.92969l-3.2227 4.8125-9.5781 7.1094c-0.58203 0.42969-0.9375 1.1016-0.96875 1.8242l-0.33984 7.9844-2.5508 1.1406 0.003906 0.003906c-0.86328 0.38281-1.418 1.2422-1.4219 2.1875v8.0117l-1.2812 10.211c-0.11328 0.91797 0.30859 1.8164 1.0859 2.3164l24.461 15.746 2.9297 28.188-0.003907 0.003906c0.046876 0.44531 0.21875 0.86719 0.49219 1.2188l8.5156 10.98 0.88281 94.441-1.2031 1.4805c-0.41016 0.50781-0.59766 1.1602-0.51562 1.8086l0.82422 6.668-0.83594 10.52c-0.050781 0.625 0.14453 1.2422 0.54688 1.7227l4.1289 4.9922 5.9336 11.82c0.47656 0.95312 1.5273 1.4766 2.5742 1.2852l42.652-7.7617v0.003906c1.1641-0.21094 2-1.2383 1.9727-2.4219l-0.40234-16.258 1.293-18.863c0.003906-0.09375 0.007812-0.19141 0.003906-0.28516l-1.3008-25.031c-0.019531-0.36328-0.12109-0.71875-0.29687-1.0352l-2.1523-3.8984 3.6875-15.512c0.089844-0.37891 0.085937-0.76953-0.007813-1.1484l-1.6211-6.3594 1.207-6.8438c0.015625-0.10156 0.03125-0.20312 0.035156-0.30469l1.1953-24.188 13.426-1.1211c1.1328-0.09375 2.043-0.96875 2.1836-2.0977l1.707-13.77h-0.003906c0.046874-0.375 0.003906-0.75781-0.12891-1.1133l-0.75781-2.082 9.7773-10.586c0.3125-0.33594 0.51953-0.75391 0.60156-1.2031l0.57812-3.2461 6.7266-1.7617c0.75391-0.19922 1.3672-0.75391 1.6367-1.4883l5.6094-15.07v0.003907c0.28516-0.76953 0.16016-1.6328-0.33594-2.2852l-3.0547-4.0391 1.6367-3.7656 4.9414 1.2227v-0.003906c1.25 0.30859 2.5234-0.42578 2.8789-1.6641l2.5977-9.0195c0.082031-0.28125 0.11328-0.57422 0.089843-0.86719l-0.44531-5.2031h-0.003906c-0.046875-0.5625-0.29297-1.0898-0.69531-1.4883l-3.4961-3.5 0.33203-3.168c0.015625-0.16016 0.015625-0.32422 0-0.48438l-0.89844-9.0625c-0.046875-0.46484-0.22656-0.90625-0.51953-1.2695l-11.504-14.316 5.7734-11.543v0.003906c0.48047-0.96484 0.26172-2.1289-0.53906-2.8516l-9.0586-8.207c-0.26562-0.23828-0.57812-0.41797-0.91797-0.51953l-3.3828-1.0234-5.1328-9.0742c-0.15625-0.27734-0.36719-0.51953-0.61719-0.71484l-17.223-13.363c-0.44531-0.34766-1.0039-0.52734-1.5703-0.50781zm0.011719 5.3711 15.453 11.992 5.3711 9.4922 0.003907 0.003906c0.30469 0.53516 0.80469 0.9375 1.3945 1.1133l3.7852 1.1445 7.3125 6.6211-5.6445 11.289 0.003906 0.003906c-0.42188 0.83984-0.3125 1.8438 0.26953 2.5742l12.023 14.961 0.80469 8.1094-0.42188 4.0625c-0.074218 0.71875 0.17969 1.4336 0.69141 1.9453l3.6836 3.6875 0.33594 3.8867-1.8359 6.3711-4.6641-1.1523h-0.003906c-1.1367-0.28125-2.3125 0.30078-2.7773 1.375l-3.0039 6.9062c-0.34766 0.79297-0.23828 1.7148 0.28516 2.4062l3.1094 4.1055-4.7148 12.668-7 1.8359c-0.90234 0.23828-1.5898 0.98047-1.7539 1.9023l-0.72656 4.0625-10.289 11.145c-0.60938 0.66016-0.80078 1.6055-0.49219 2.4453l1.0586 2.9141-1.3945 11.262-13.578 1.1367v0.003906c-1.1992 0.10156-2.1367 1.0703-2.1953 2.2695l-1.2969 26.137-1.2734 7.207c-0.058594 0.33203-0.046875 0.67969 0.039063 1.0078l1.6055 6.2891-3.7656 15.84c-0.14062 0.58203-0.054687 1.1953 0.23438 1.7188l2.3359 4.2266 1.2617 24.332-1.293 18.828v-0.003906c-0.003906 0.074218-0.007813 0.14844-0.003906 0.22266l0.35156 14.32-38.867 7.0703-5.2461-10.457v-0.003906c-0.082031-0.16016-0.17969-0.3125-0.29297-0.45313l-3.6875-4.4531 0.77344-9.793c0.011718-0.16016 0.007812-0.32422-0.007813-0.48438l-0.72656-5.8945 1.1055-1.3633-0.003906 0.003907c0.35156-0.43359 0.54297-0.97656 0.53906-1.5391l-0.89844-96.117v0.003906c-0.007812-0.52734-0.18359-1.0352-0.50391-1.4492l-8.5938-11.074-2.9805-28.652c-0.074219-0.72656-0.47656-1.375-1.0859-1.7695l-24.16-15.555 1.1133-8.8633h-0.003906c0.015625-0.097656 0.019532-0.19922 0.019532-0.29687v-6.6094l2.4844-1.1133c0.82813-0.37109 1.375-1.1797 1.4141-2.0859l0.35547-8.3242 8.9922-6.6719h0.003907c0.21875-0.16406 0.41016-0.36328 0.5625-0.58984l3.0078-4.5 6.6055-2.3359v0.003906c0.86328-0.30469 1.4805-1.0742 1.5859-1.9844l0.25781-2.2109 3.2969-1.7656 5.2891 3.1953c0.60547 0.36328 1.3398 0.44531 2.0078 0.21875l8.5-2.8594 7.625 1.207c0.72266 0.11328 1.457-0.10547 1.9961-0.59766l9.7539-8.918 4.5781-2.8906c0.44141-0.28125 0.78125-0.69922 0.96094-1.1914l3.8555-10.359h0.003906c0.058594-0.16016 0.10156-0.32812 0.12891-0.49609l1.3008-9.0156h-0.003906c0.023437-0.16016 0.03125-0.32422 0.023437-0.48828l-0.32031-5.2344 9.5742-1.7656v-0.003906c0.33203-0.058594 0.64453-0.19141 0.92188-0.38281l5.4648-3.7578z" fill="#443f3c"/>
</svg>
