<?xml version="1.0" encoding="UTF-8"?>
<svg width="512pt" height="512pt" version="1.1" viewBox="0 0 512 512" xmlns="http://www.w3.org/2000/svg">
 <g fill="#443f3c">
  <path d="m496 288h-16v14.398l-136-28.801v-45.602l24-16v-11.996h88v-48h-16v14.398l-128-28.801v-22.398l16-16v-11.199h32v-48h-16v13.602l-80-20v-17.602h-16v17.602l-80 20v-13.602h-16v48h32v11.199l16 16v22.398l-128 28.801v-14.398h-16v48h88v12l24 16v45.602l-136 28.797v-14.398h-16v48h64v160h352v-160h64zm-312-56h144v40h-144zm-16-161.6 88-22.398 88 22.398v1.6016h-176zm144 17.602v4.8008l-11.199 11.199h-89.602l-11.199-11.199v-4.8008zm-16 48h-80v-16h80zm-224 46.398 136.8-30.398h94.398l136.8 30.398v1.6016h-368zm88 21.602v-4h192v4l-18.398 12h-155.2zm72 244h16v8h-16zm0-40h16v24h-16zm32 40h16v8h-16zm0-16v-24h16v24zm32-64h120v64h-120zm-16 24h-16v-24h16zm-32 0h-16v-24h16zm-32 40h-120v-64h120zm-120 48v-32h120v24h80v-24h120v32zm320-128h-320v-16h320zm-384-32v-1.6016l144.8-30.398h158.4l144.8 30.398v1.6016z"/>
  <path d="m200 240h16v24h-16z"/>
  <path d="m232 240h16v24h-16z"/>
  <path d="m264 240h16v24h-16z"/>
  <path d="m296 240h16v24h-16z"/>
  <path d="m128 424c13.602 0 24-10.398 24-24s-10.398-24-24-24-24 10.398-24 24 10.398 24 24 24zm0-32c4.8008 0 8 3.1992 8 8s-3.1992 8-8 8-8-3.1992-8-8 3.1992-8 8-8z"/>
  <path d="m184 424c13.602 0 24-10.398 24-24s-10.398-24-24-24-24 10.398-24 24 10.398 24 24 24zm0-32c4.8008 0 8 3.1992 8 8s-3.1992 8-8 8-8-3.1992-8-8 3.1992-8 8-8z"/>
  <path d="m328 376c-13.602 0-24 10.398-24 24s10.398 24 24 24 24-10.398 24-24-10.398-24-24-24zm0 32c-4.8008 0-8-3.1992-8-8s3.1992-8 8-8 8 3.1992 8 8-3.1992 8-8 8z"/>
  <path d="m384 376c-13.602 0-24 10.398-24 24s10.398 24 24 24 24-10.398 24-24-10.398-24-24-24zm0 32c-4.8008 0-8-3.1992-8-8s3.1992-8 8-8 8 3.1992 8 8-3.1992 8-8 8z"/>
 </g>
</svg>
