<?xml version="1.0" encoding="UTF-8"?>
<svg width="512pt" height="512pt" version="1.1" viewBox="0 0 512 512" xmlns="http://www.w3.org/2000/svg">
 <path d="m155.65 474.62h201.21c2.5586 0 5.1211-2.0469 5.1211-5.1211 0-3.0703-2.0469-5.1211-5.1211-5.1211h-61.438c-0.51172-2.5586-1.0234-5.6328-1.5352-8.1914h15.871v-28.16h-20.992c-9.2148-55.809-14.336-123.39-15.871-194.05h11.777c6.1445 0 10.754-5.1211 10.754-10.754v-5.6328c0-3.0703-1.0234-5.6328-3.0703-7.6797 2.0469-3.0703 3.0703-6.1445 3.0703-10.754 0-9.7266-6.1445-20.992-15.359-28.672v-18.945h-12.801l-0.003906-64.508h-6.1445v-44.543c0-2.5586-2.0469-5.1211-5.1211-5.1211-3.0703 0-5.1211 2.0469-5.1211 5.1211v44.543h-6.1445v65.535h-12.801v18.945c-9.2148 7.6797-15.359 18.434-15.359 28.672 0 4.0977 1.0234 7.6797 3.0703 10.754-2.0469 2.0469-3.0703 4.6094-3.0703 7.6797v5.6328c0 6.1445 5.1211 10.754 10.754 10.754h11.777c-1.0234 70.656-6.6562 138.24-15.871 194.05h-20.992v28.16h15.871c-0.51172 2.5586-1.0234 5.6328-1.5352 8.1914l-60.93-0.003906c-2.5586 0-5.1211 2.0469-5.1211 5.1211 0 3.0742 2.0469 4.0977 5.1211 4.0977zm71.168-11.266c0.51172-2.0469 1.0234-4.6094 1.5352-7.168h55.297c0.51172 2.5586 1.0234 4.6094 1.5352 7.168zm27.648-366.59h2.5586v55.297h-2.5586zm-12.801 65.535h28.668v6.6562h-28.672zm-3.0703 16.383h35.328c7.168 5.6328 11.777 14.336 11.777 20.992 0 1.5352 0 4.6094-3.0703 7.168h-53.25c-3.0703-2.5586-3.0703-5.6328-3.0703-7.168-0.003906-7.168 5.1172-15.359 12.285-20.992zm-11.266 45.57c-0.51172 0-1.0234-0.51172-1.0234-1.0234v-5.6328c0-0.51172 0.51172-1.0234 1.0234-1.0234h56.836c0.51172 0 1.0234 0.51172 1.0234 1.0234v5.6328c0 0.51172-0.51172 1.0234-1.0234 1.0234zm21.504 10.238h13.824c1.0234 70.145 6.6562 138.24 15.871 194.05h-45.055c8.7031-56.32 14.336-123.9 15.359-194.05zm-36.352 211.97v-8.1914h87.039v8.1914z" fill="#443f3c"/>
</svg>
