<?xml version="1.0" encoding="UTF-8"?>
<svg width="512pt" height="512pt" version="1.1" viewBox="0 0 512 512" xmlns="http://www.w3.org/2000/svg">
 <g fill="#443f3c">
  <path d="m461.64 187.36h-21.32c-7.2383 0-13.16 5.8789-13.16 13.16v6.8008h-19.281v-6.8008c0-7.2383-5.8789-13.16-13.16-13.16h-22.32c-6.5586 0-12 4.8789-12.961 11.199-25.078 0.12109-109.28-4.1602-135.48-65.961-1.0391-3.1602-3.9219-5.4805-7.3984-5.4805h-18.121v-20.039c0-6.1992-3.1602-12.121-8.4805-15.762-7.3984-5.1211-17.32-5.1211-24.68 0-5.3203 3.6797-8.4805 9.5586-8.4805 15.762v20.039h-10.238v-68.355h10.238v4.9219c0 7.1992 5.8398 13.039 13.039 13.039h15.602c7.1992 0 13.039-5.8398 13.039-13.039v-4.9219h10.238v49.52c0 4.3594 3.5195 7.8789 7.8789 7.8789s7.8789-3.5195 7.8789-7.8789l0.007813-57.402c0-4.3594-3.5195-7.8789-7.8789-7.8789h-20.879c-7.1992 0-13.039 5.8398-13.039 13.039v4.9219h-10.121v-4.9219c0-7.1992-5.8398-13.039-13.039-13.039h-20.879c-4.3594 0-7.8789 3.5195-7.8789 7.8789l-0.003906 83.922c-0.32031 5.1602-3.8008 76 48.719 127.44 34.602 33.879 84.922 50.961 149.96 50.961 7.0781 0 14.398-0.28125 21.879-0.67969-32.238 36.039-104.08 38.359-127.32 38.121v-24.602c0-7.1602-5.8398-13-13-13h-22.641c-7.1602 0-13 5.8398-13 13v17.199l-13.359-0.003907v-17.199c0-7.1602-5.8398-13-13-13h-23.719c-7.1602 0-13 5.8398-13 13v18.281h-13.359v-18.281c0-7.1602-5.8398-13-13-13h-20.48c-7.1602 0-13 5.8398-13 13v150.72c0 4.3594 3.5195 7.8789 7.8789 7.8789h155.84c0.51953 0 3.0781 0.078125 7 0.078125 3.5195 0 8.0391-0.039063 12.922-0.19922 4.3594-0.16016 7.7617-3.8008 7.6016-8.1602s-3.7617-7.7188-8.1602-7.6016c-4.2383 0.16016-8.2383 0.19922-11.48 0.19922v-57.84c42.121-0.35938 85.398-4.2383 126.2-15.16 40.238-10.801 74.32-29.84 104.88-57.879 1.5195 11.801-9.1992 30.52-15.238 40.719-7.0391 11.879-15.961 22.52-26.16 31.762-20.199 18.238-44.961 30.762-70.559 39.52-12.922 4.4414-26.16 7.9219-39.559 10.641-4.2812 0.87891-7 5.0391-6.1211 9.3203s5.0391 7.0391 9.3203 6.1211c76.68-15.762 168.04-58.48 168.04-172.52l-0.003906-103.12c-0.039063-7.2812-5.9609-13.16-13.199-13.16zm-289.08-80.281c0-1.0391 0.60156-2.0391 1.6797-2.8008 1.9219-1.3203 4.8398-1.3203 6.7617 0 1.0781 0.71875 1.6797 1.7617 1.6797 2.8008v20h-10.121zm202.48 96.043h17.121v6.8008c0 7.2383 5.8789 13.16 13.16 13.16h24.52c7.2383 0 13.16-5.8789 13.16-13.16v-6.8008h16.039v92.641h-17.762l0.003906-27.363c0-7.1602-3.6797-13.961-9.8398-18.199-8.6406-5.9609-20.199-5.9609-28.84 0-6.1602 4.2383-9.8008 11.078-9.8008 18.199v27.359h-17.762zm50.441 92.641h-16.922v-27.363c0-2 1.0781-3.9219 3-5.2383 3.1602-2.1992 7.7617-2.1992 10.922 0 1.9219 1.3203 3 3.2383 3 5.2383zm-234.84-44.684c-25.199-24.602-36.078-54.801-40.762-78.199 22.719 32.16 69.879 76.121 161 86.441 4.2812 0.51953 8.2383-2.6406 8.7188-6.9609 0.48047-4.3203-2.6406-8.2383-6.9609-8.7188-108.84-12.32-149.96-75.238-162.2-100.4h61c31.961 66.762 119.92 71.359 147.8 71.121v31.238c-2.8398 0.078126-5.6016 0.078126-8.3594 0.078126-4.3594 0-7.8789 3.5195-7.8789 7.8789s3.5195 7.8789 7.8789 7.8789c2.7188 0 5.6016-0.12109 8.3594-0.16016v34.922c-75.359 5.7617-132.04-9.4375-168.6-45.121zm73.84 143.28c-10.52 0.83984-21.922 1.1602-32.48 1.1211-1.2812 0-2.5195 0-3.8008-0.039063-1.1602-0.039062-2.6016 0.16016-3.7188-0.039062-0.60156-0.12109-0.48047-0.36328-0.48047-1.0039v-5.0391-15.52-7.4414c27.84 0.48047 115.8-2.6016 147.72-54.922h49.879 28.039c1.6406 0 4.3203-0.48047 4.3984 1.6797 0.078125 2.3203-6.3594 8.0781-7.9219 9.8008-5.6016 6.3203-11.762 12.121-18.32 17.48-21.68 17.68-47.441 29.922-74.16 37.879-19.441 5.8008-37.801 9.8789-57.922 12.398m-227.55-61.914h14.961v18.281c0 7.1602 5.8398 13 13 13h18.879c7.1602 0 13-5.8398 13-13v-18.281h18.199v17.199c0 7.1602 5.8398 13 13 13h18.879c7.1602 0 13-5.8398 13-13v-17.199h17.121v140.08h-36.879v-46.602c0-9.6406-4.9609-18.84-13.32-24.602-11.68-8.0781-28-8.0781-39.68 0-8.3203 5.7617-13.32 14.961-13.32 24.602v46.602h-36.922v-140.08zm52.68 140.08v-46.602c0-4.5195 2.3594-8.7617 6.5195-11.641 6.3984-4.4414 15.32-4.3984 21.719 0 4.1211 2.8789 6.5195 7.1211 6.5195 11.641v46.602z"/>
  <path d="m278.44 474.6c0 4.3711-3.5469 7.918-7.9219 7.918s-7.918-3.5469-7.918-7.918c0-4.375 3.543-7.9219 7.918-7.9219s7.9219 3.5469 7.9219 7.9219"/>
 </g>
</svg>
