<?xml version="1.0" encoding="UTF-8"?>
<svg width="512pt" height="512pt" version="1.1" viewBox="0 0 512 512" xmlns="http://www.w3.org/2000/svg">
 <path d="m488 88v-16c0-3.4453-2.2031-6.5-5.4688-7.5898l-24-8c-0.81641-0.26953-1.6719-0.41016-2.5312-0.41016h-400c-0.85938 0-1.7148 0.14062-2.5312 0.41016l-24 8c-3.2656 1.0898-5.4688 4.1445-5.4688 7.5898v16c-4.418 0-8 3.582-8 8v32c0 2.1211 0.84375 4.1562 2.3438 5.6562s3.5352 2.3438 5.6562 2.3438h16v208h-8c-4.418 0-8 3.582-8 8v32c0 2.1211 0.84375 4.1562 2.3438 5.6562s3.5352 2.3438 5.6562 2.3438h8v56c0 2.1211 0.84375 4.1562 2.3438 5.6562s3.5352 2.3438 5.6562 2.3438h32c2.1211 0 4.1562-0.84375 5.6562-2.3438s2.3438-3.5352 2.3438-5.6562v-56h8c2.1211 0 4.1562-0.84375 5.6562-2.3438s2.3438-3.5352 2.3438-5.6562v-8h304v8c0 2.1211 0.84375 4.1562 2.3438 5.6562s3.5352 2.3438 5.6562 2.3438h8v56c0 2.1211 0.84375 4.1562 2.3438 5.6562s3.5352 2.3438 5.6562 2.3438h32c2.1211 0 4.1562-0.84375 5.6562-2.3438s2.3438-3.5352 2.3438-5.6562v-56h8c2.1211 0 4.1562-0.84375 5.6562-2.3438s2.3438-3.5352 2.3438-5.6562v-32c0-2.1211-0.84375-4.1562-2.3438-5.6562s-3.5352-2.3438-5.6562-2.3438h-8v-208h16c2.1211 0 4.1562-0.84375 5.6562-2.3438s2.3438-3.5352 2.3438-5.6562v-32c0-2.1211-0.84375-4.1562-2.3438-5.6562s-3.5352-2.3438-5.6562-2.3438zm-16-10.234v10.234h-32v-16h14.699zm-48 10.234h-16v-16h16zm-304 0v-16h16v16zm32-16h16v16h-16zm32 0h16v16h-16zm32 0h16v16h-16zm32 0h16v16h-16zm32 0h16v16h-16zm32 0h16v16h-16zm32 0h16v16h-16zm32 0h16v16h-16zm-272 0v16h-16v-16zm-64 5.7656 17.301-5.7656h14.699v16h-32zm16 58.234h16v208h-16zm352 80h16v16h-16zm16-16h-16v-64h16zm-64 32h-16v-16h16zm16-96h16v176h-16zm-16 64h-16v-64h16zm-64 32h-16v-16h16zm16-96h16v160h-16zm-16 64h-16v-64h16zm-64 32h-16v-16h16zm16-96h16v144h-16zm-16 64h-16v-64h16zm-64 32h-16v-16h16zm16-96h16v128h-16zm-16 64h-16v-64h16zm-64 32h-16v-16h16zm16-96h16v112h-16zm-16 64h-16v-64h16zm-32 240h-16v-48h16zm16-64h-48v-16h48zm320-24v8h-304v-8c0-2.1211-0.84375-4.1562-2.3438-5.6562s-3.5352-2.3438-5.6562-2.3438h-8v-96h16v8c0 2.1211 0.84375 4.1562 2.3438 5.6562s3.5352 2.3438 5.6562 2.3438h32c2.1211 0 4.1562-0.84375 5.6562-2.3438s2.3438-3.5352 2.3438-5.6562v-8h16v24c0 2.1211 0.84375 4.1562 2.3438 5.6562s3.5352 2.3438 5.6562 2.3438h32c2.1211 0 4.1562-0.84375 5.6562-2.3438s2.3438-3.5352 2.3438-5.6562v-24h16v40c0 2.1211 0.84375 4.1562 2.3438 5.6562s3.5352 2.3438 5.6562 2.3438h32c2.1211 0 4.1562-0.84375 5.6562-2.3438s2.3438-3.5352 2.3438-5.6562v-40h16v56c0 2.1211 0.84375 4.1562 2.3438 5.6562s3.5352 2.3438 5.6562 2.3438h32c2.1211 0 4.1562-0.84375 5.6562-2.3438s2.3438-3.5352 2.3438-5.6562v-56h16v72c0 2.1211 0.84375 4.1562 2.3438 5.6562s3.5352 2.3438 5.6562 2.3438h32c2.1211 0 4.1562-0.84375 5.6562-2.3438s2.3438-3.5352 2.3438-5.6562v-72h16v96h-8c-4.418 0-8 3.582-8 8zm48 88h-16v-48h16zm16-64h-48v-16h48zm-16-32h-16v-208h16zm24-224h-448v-16h448z" fill="#443f3c"/>
</svg>
