<?xml version="1.0" encoding="UTF-8"?>
<svg width="512pt" height="512pt" version="1.1" viewBox="0 0 512 512" xmlns="http://www.w3.org/2000/svg">
 <g fill="#443f3c">
  <path d="m436 219.01c-4.4141-51.465-22.512-101.07-52.258-143.36-0.61719-0.97266-1.5898-1.5898-2.7383-1.9414-3.707-1.0586-24.895-7.5898-46.699-10.859l0.79297-1.2344c0.79297-1.2344 0.97266-2.7383 0.53125-4.1484-0.44141-1.4141-1.5-2.5586-2.8242-3.0898l-23.215-9.7109s-1.7656-0.97266-4.0625 0.089843c-32.84 15.449-66.297 15.273-99.223 0-0.26562-0.17578-2.1172-0.97266-4.0625-0.089843l-23.215 9.7109c-1.3242 0.61719-2.3828 1.6758-2.8242 3.0898-0.44141 1.4141-0.26562 2.9141 0.53125 4.1484l0.79297 1.2344c-13.77 1.1484-43.078 9.7109-46.785 10.77-1.1484 0.35156-2.0312 0.97266-2.7383 1.9414l-0.79297 1.1484c-28.602 41.578-46.168 90.129-50.672 140.54l-9.4453 104.87c-0.61719 7.3281 1.7656 14.652 6.7969 20.039 4.9453 5.3867 12.004 8.5625 19.332 8.5625h33.984v112.2c0 2.7383 2.207 5.0312 5.0312 5.0312h247.44c2.7383 0 5.0312-2.207 5.0312-5.0312l0.003906-112.2h34.074c7.3281 0 14.391-3.0898 19.332-8.4727 4.9453-5.3867 7.4141-12.711 6.7969-19.949zm-74.77-140.09c-16.949 50.141-12.535 99.312 13.418 146.27v115.46h-85.891v-27.188c7.9453-2.207 13.77-9.4453 13.77-18.008 0-8.6523-5.8281-15.801-13.77-18.008v-10.062c7.9453-2.207 13.77-9.4453 13.77-18.008 0-8.6523-5.8281-15.801-13.77-18.008v-10.062c7.9453-2.207 13.77-9.4453 13.77-18.008s-5.8281-15.801-13.77-18.008v-16.684c24.363-27.719 38.664-61.969 38.312-92.16 0-0.53125-0.17578-1.0586-0.35156-1.5898l1.7656-2.8242c10.941 1.6719 21.797 4.1445 32.746 6.8789zm-132.95 115.46c4.8555 0 8.8281 3.9727 8.8281 8.8281 0 4.8555-3.9727 8.8281-8.8281 8.8281s-8.8281-3.9727-8.8281-8.8281c0-4.8555 3.9727-8.8281 8.8281-8.8281zm0 46.168c4.8555 0 8.8281 3.9727 8.8281 8.8281 0 4.8555-3.9727 8.7383-8.8281 8.8281-4.8555 0-8.7383-3.9727-8.7383-8.7383-0.089844-5.0312 3.8828-8.918 8.7383-8.918zm0 46.168c4.8555 0 8.8281 3.9727 8.8281 8.8281s-3.9727 8.7383-8.8281 8.8281c-4.8555 0-8.7383-3.9727-8.7383-8.7383-0.089844-5.0312 3.8828-8.918 8.7383-8.918zm4.9453 26.75c7.9453-2.207 13.859-9.4453 13.859-18.008 0-8.6523-5.9141-15.801-13.859-18.008v-10.062c7.9453-2.207 13.859-9.4453 13.859-18.008 0-8.6523-5.9141-15.801-13.859-18.008v-10.062c7.9453-2.207 13.859-9.4453 13.859-18.008s-5.9141-15.801-13.859-18.008v-18.625c0-1.2344-0.44141-2.3828-1.3242-3.3555-18.98-21.188-31.781-47.141-35.574-71.062l21.805 34.25c0.79297 1.2344 2.0312 2.1172 3.5312 2.2969 1.2344 0.17578 3.0898-0.35156 3.9727-1.1484l25.336-21.891v53.762c0 2.7383 2.207 5.0312 5.0312 5.0312 2.7383 0 5.0312-2.207 5.0312-5.0312v-53.762l25.336 21.891c0.88281 0.79297 2.3828 1.4141 3.9727 1.1484 1.4141-0.17578 2.7383-1.0586 3.5312-2.2969l21.805-34.25c-3.9727 24.012-16.684 50.051-35.664 71.062-0.79297 0.88281-1.3242 2.1172-1.3242 3.3555v18.625c-7.9453 2.207-13.77 9.4453-13.77 18.008s5.8281 15.801 13.77 18.008v10.062c-7.9453 2.207-13.77 9.4453-13.77 18.008 0 8.6523 5.8281 15.801 13.77 18.008v10.062c-7.9453 2.207-13.77 9.4453-13.77 18.008 0 8.6523 5.8281 15.801 13.77 18.008v27.188h-45.551l-0.003906-27.188zm50.582-9.1836s-0.089844-0.085937 0 0c-0.089844-0.085937-0.089844 0 0 0-4.8555 0-8.8281-3.9727-8.8281-8.7383 0-4.8555 3.9727-8.8281 8.8281-8.8281 4.8555 0 8.8281 3.9727 8.8281 8.8281-0.089844 4.7695-4.0625 8.6523-8.8281 8.7383zm0-46.168s-0.089844 0 0 0c-0.089844 0-0.089844 0 0 0-4.8555 0-8.8281-3.9727-8.8281-8.7383 0-4.8555 3.9727-8.8281 8.8281-8.8281 4.8555 0 8.8281 3.9727 8.8281 8.8281-0.089844 4.7656-4.0625 8.7383-8.8281 8.7383zm-0.089844-46.168c-4.8555 0-8.8281-3.9727-8.8281-8.8281 0-4.8555 3.9727-8.8281 8.8281-8.8281s8.8281 3.9727 8.8281 8.8281c0 4.8555-3.9727 8.8281-8.8281 8.8281zm4.7656-95.867-24.895-21.539 45.02-39.637 14.832 6.2695zm-32.484-49.965c9.7109 0 19.422-1.3242 29.043-3.707l-29.043 25.602-29.043-25.512c9.6211 2.293 19.332 3.6172 29.043 3.6172zm-52.613-11.121 45.02 39.637-24.895 21.539-34.957-54.906zm-18.359 19.422c0 0.089843-0.089844 0.17578-0.089844 0.17578-0.97266 30.016 13.684 65.855 38.223 93.836v16.773c-7.9453 2.207-13.77 9.4453-13.77 18.008s5.8281 15.801 13.77 18.008v10.062c-7.9453 2.207-13.77 9.4453-13.77 18.008s5.8281 15.801 13.77 18.008v10.062c-7.9453 2.207-13.77 9.4453-13.77 18.008s5.8281 15.801 13.77 18.008v27.188h-85.98v-115.28c26.129-46.875 30.543-96.133 13.594-146.36 10.945-2.7383 21.891-5.1211 32.75-6.9727zm-91.809 266.24c-4.5898 0-8.8281-1.8555-12.004-5.2969-3.0898-3.4414-4.5898-7.7695-4.1484-12.359l9.4453-104.87c4.3242-48.465 21.273-95.25 48.816-135.33 1.8555-0.53125 3.7969-0.97266 5.7383-1.4141 14.391 42.02 13.328 82.008-3.7969 121.38v-21.629c0-2.7383-2.207-5.0312-5.0312-5.0312s-5.0312 2.207-5.0312 5.0312v159.6l-33.988 0.007813zm281.43 35.664v15.625h-237.38v-15.625zm-237.38 25.688h237.38v27.102h-237.38zm0 55.879v-18.715h237.38v18.715zm237.38-91.629h-237.38v-15.625h237.38zm56.055-30.809c-3.0898 3.3555-7.3281 5.207-11.918 5.207h-34.074v-159.6c0-2.7383-2.207-5.0312-5.0312-5.0312-2.7383 0-5.0312 2.207-5.0312 5.0312v21.449c-17.039-39.371-18.098-79.273-3.7969-121.2 1.8555 0.53125 3.7969 0.88281 5.6484 1.4141 28.16 40.52 45.195 87.922 49.434 137l8.9141 103.2c0.44531 4.7656-1.0547 9.0898-4.1445 12.535z"/>
  <path d="m343.04 217.25c2.7383 0 5.0312-2.207 5.0312-5.0312v-6.4453c0-2.7383-2.207-5.0312-5.0312-5.0312-2.7383 0-5.0312 2.207-5.0312 5.0312v6.4453c0.089844 2.8242 2.2969 5.0312 5.0312 5.0312z"/>
  <path d="m343.04 246.91c2.7383 0 5.0312-2.207 5.0312-5.0312v-6.4453c0-2.7383-2.207-5.0312-5.0312-5.0312-2.7383 0-5.0312 2.207-5.0312 5.0312v6.4453c0.089844 2.8242 2.2969 5.0312 5.0312 5.0312z"/>
  <path d="m343.04 276.66c2.7383 0 5.0312-2.207 5.0312-5.0312v-6.4453c0-2.7383-2.207-5.0312-5.0312-5.0312-2.7383 0-5.0312 2.207-5.0312 5.0312v6.4453c0.089844 2.7383 2.2969 5.0312 5.0312 5.0312z"/>
  <path d="m343.04 306.32c2.7383 0 5.0312-2.207 5.0312-5.0312v-6.4453c0-2.7383-2.207-5.0312-5.0312-5.0312-2.7383 0-5.0312 2.207-5.0312 5.0312v6.4453c0.089844 2.8242 2.2969 5.0312 5.0312 5.0312z"/>
  <path d="m168.96 217.25c2.7383 0 5.0312-2.207 5.0312-5.0312v-6.4453c0-2.7383-2.207-5.0312-5.0312-5.0312-2.7383 0-5.0312 2.207-5.0312 5.0312v6.4453c0 2.8242 2.207 5.0312 5.0312 5.0312z"/>
  <path d="m168.96 246.91c2.7383 0 5.0312-2.207 5.0312-5.0312v-6.4453c0-2.7383-2.207-5.0312-5.0312-5.0312-2.7383 0-5.0312 2.207-5.0312 5.0312v6.4453c0 2.8242 2.207 5.0312 5.0312 5.0312z"/>
  <path d="m168.96 276.66c2.7383 0 5.0312-2.207 5.0312-5.0312v-6.4453c0-2.7383-2.207-5.0312-5.0312-5.0312-2.7383 0-5.0312 2.207-5.0312 5.0312v6.4453c0 2.7383 2.207 5.0312 5.0312 5.0312z"/>
  <path d="m168.96 306.32c2.7383 0 5.0312-2.207 5.0312-5.0312v-6.4453c0-2.7383-2.207-5.0312-5.0312-5.0312-2.7383 0-5.0312 2.207-5.0312 5.0312v6.4453c0 2.8242 2.207 5.0312 5.0312 5.0312z"/>
 </g>
</svg>
