<?xml version="1.0" encoding="UTF-8"?>
<svg width="512pt" height="512pt" version="1.1" viewBox="0 0 512 512" xmlns="http://www.w3.org/2000/svg">
 <path d="m86.703 247.85c-1.25-2.418-0.48047-5.3906 1.7891-6.8945l8.8438-5.8672c0.875-0.58203 1.9023-0.89062 2.9492-0.89062h8.9727c2.0742 0 3.9648 1.207 4.8359 3.0898l8.5938 18.539c1.3281 2.8633-0.10547 6.2461-3.0898 7.2812l-17.562 6.0977c-1.3047 0.44922-2.7305 0.37891-3.9844-0.19922l-13.203-6.0938c-4.5859-2.1172-3.9375-8.8242 0.96484-10.023l3.1055-0.76172zm15.191-2.9844-3.5195 2.332 3.1289 6.0508c0.82812 1.5977 0.76172 3.3789 0.035156 4.8359l8.9922-3.1211-4.6797-10.098zm367.32 39.047c0.83203 0 1.6484 0.19531 2.3906 0.56641l36.93 18.492c1.8047 0.90234 2.9453 2.75 2.9453 4.7656v8.5039c0 2.4648-1.6914 4.6133-4.0938 5.1836l-23.004 5.4688-33.242 11.555c-1.0742 0.37109-2.2383 0.39453-3.3281 0.058593l-25.387-7.8555-39.461 7.9844-39.789 3.1094c-4.6758 0.35938-7.5039-5.0547-4.543-8.6875l11.887-14.57 0.81641-0.80859 14.469-11.477-3.457-7.25-31.789 3.1797c-1.375 0.13672-2.75-0.26562-3.832-1.1211l-21.855-17.23c-0.89844-0.70703-1.543-1.6836-1.8438-2.7852l-4.707-17.301h-20.383l-40.141-4.4922c-0.97656-0.10938-1.9023-0.48828-2.6758-1.0898l-16.684-12.961-25.426-2.6992h-13.617c-0.73047 0-1.4531-0.15234-2.1211-0.44141l-8.8516-3.832h-18.055c-1.2578 0-2.4727-0.44531-3.4336-1.2539l-13.863-11.672c-3.2852-2.7617-2.125-8.0742 2.0117-9.2188l12.629-3.4961h-40.301l-26.566 19.289c-0.91016 0.66406-2.0078 1.0195-3.1328 1.0195h-18.848l-2.9414 9.4297c-0.60938 1.9648-2.3008 3.4023-4.3398 3.6914l-25.137 3.5742c-2.1562 0.30859-4.1562-0.71484-5.2422-2.4023l-10.57 2.332c-1.7109 0.37891-3.4961-0.10938-4.7773-1.3008l-3.8477-3.5742c-2.9297-2.7266-1.9297-7.5859 1.8398-8.9297l21.43-7.6445v-8.9883c0-1.375 0.53125-2.6992 1.4844-3.6914l16.469-17.164c0.50781-0.53125 1.1172-0.94922 1.793-1.2305l35.387-14.777 27.844-5.7891 26.746-7.8594c0.80078-0.23438 1.6445-0.28125 2.4648-0.12891l42.062 7.707 26.594-3.5039c1.2891-0.16797 2.5938 0.13672 3.6719 0.86328l12.344 8.3008h16.258c1.4609 0 2.8633 0.60156 3.8672 1.6641l21.305 22.465h20.691c0.89844 0 1.7812 0.22656 2.5703 0.66016l4.4102 2.4258c-1.7578-2.5742-0.94531-6.3047 2.0586-7.7852l15.477-7.6289c1.9766-0.97656 4.3516-0.63281 5.9727 0.86328l31.41 28.961 41.109 29.98 32.238 12.77 7.457-3.6875c1.3281-0.65625 2.8711-0.73438 4.2578-0.20703l12.488 4.7422c2.4961 0.94922 3.9102 3.6016 3.2969 6.2031l-2.5117 10.727zm-1.2578 10.668h-30.191c-3.4375 0-5.9766-3.2031-5.1953-6.5508l2.9844-12.734-5.9492-2.2578-7.5 3.7109c-1.3516 0.66797-2.9258 0.73438-4.3281 0.17969l-35.07-13.895c-0.41797-0.16797-0.81641-0.38672-1.1797-0.65234l-41.902-30.559-29.418-27.078-4.7148 2.3242 12.312 9.957c3.0078 2.4297 2.5117 7.1484-0.93359 8.9023l-6.2812 3.1914c-1.5703 0.80078-3.4375 0.76953-4.9844-0.078125l-22.715-12.484h-21.617c-1.4609 0-2.8633-0.60156-3.8672-1.6641l-21.305-22.465h-15.59c-1.0625 0-2.0977-0.31641-2.9766-0.91016l-12.02-8.082-25.426 3.3477c-0.55078 0.074219-1.1094 0.058594-1.6602-0.039062l-41.641-7.6328-25.961 7.6094-26.785 5.4922-33.883 14.148-14.219 14.816v10.605c0 2.2539-1.418 4.2656-3.5391 5.0234l-2.332 0.82812c0.12891 0.18359 0.24609 0.37109 0.34766 0.57031l16.324-2.3242 3.1055-9.957c0.69531-2.2266 2.7578-3.7461 5.0898-3.7461h21.043l26.566-19.293c0.91016-0.66016 2.0078-1.0156 3.1328-1.0156h47.496c1.1211 0 2.2109 0.35156 3.1211 1.0078l5.6836 4.1055c2.7305 1.9766 2.9727 5.957 0.49609 8.2422l-5.6836 5.25c-0.625 0.57422-1.375 0.99609-2.1953 1.2227l-6.918 1.9141 4.6328 3.8984h17.215c0.73047 0 1.4492 0.15234 2.1211 0.44141l8.8477 3.832h12.797l27.781 2.9219c0.98438 0.10547 1.9258 0.48438 2.707 1.0898l16.699 12.973 37.758 4.2578h24.16c2.4062 0 4.5156 1.6133 5.1445 3.9336l5.3164 19.535 18.777 14.809 33.379-3.3398c2.2383-0.22266 4.375 0.98047 5.3438 3.0117l6.9023 14.465c1.0742 2.2461 0.44922 4.9336-1.4961 6.4766l-17.348 13.758-3.6523 4.4805 26.406-2.0391 40.469-8.1875c0.875-0.17969 1.7812-0.13281 2.6367 0.13281l25.02 7.7383 32.098-11.129 19.418-4.6406v-0.99609z" fill="#443f3c" fill-rule="evenodd"/>
</svg>
