<?xml version="1.0" encoding="UTF-8"?>
<svg width="512pt" height="512pt" version="1.1" viewBox="0 0 512 512" xmlns="http://www.w3.org/2000/svg">
 <g fill="#443f3c">
  <path d="m416 392h-1.4414l-9.9219-49.602h0.003906c-0.53906-2.5312-2.2656-4.6484-4.6406-5.6797v-16.719c0-2.1211-0.84375-4.1562-2.3438-5.6562s-3.5352-2.3438-5.6562-2.3438h-24c-4.418 0-8 3.582-8 8v16.719c-2.375 1.0312-4.1016 3.1484-4.6406 5.6797l-9.918 49.602h-2.1602l-23.281-232.8c-0.41406-4.1016-3.875-7.2188-8-7.1992h-16v-16c0-2.1211-0.84375-4.1562-2.3438-5.6562s-3.5352-2.3438-5.6562-2.3438v-16c0.011719-3.1914-1.875-6.082-4.8008-7.3594 3.1016-5 4.7617-10.758 4.8008-16.641 0-11.434-6.0977-21.996-16-27.711-9.9023-5.7188-22.098-5.7188-32 0-9.9023 5.7148-16 16.277-16 27.711 0.039062 5.8828 1.6992 11.641 4.8008 16.641-2.9258 1.2773-4.8125 4.168-4.8008 7.3594v16c-4.418 0-8 3.582-8 8v16h-16c-4.125-0.019531-7.5859 3.0977-8 7.1992l-23.281 232.8h-2.1602l-9.9219-49.602h0.003906c-0.53906-2.5312-2.2656-4.6484-4.6406-5.6797v-16.719c0-2.1211-0.84375-4.1562-2.3438-5.6562s-3.5352-2.3438-5.6562-2.3438h-24c-4.418 0-8 3.582-8 8v16.719c-2.375 1.0312-4.1016 3.1484-4.6406 5.6797l-9.918 49.602h-1.4414c-4.418 0-8 3.582-8 8v48c0 2.1211 0.84375 4.1562 2.3438 5.6562s3.5352 2.3438 5.6562 2.3438h320c2.1211 0 4.1562-0.84375 5.6562-2.3438s2.3438-3.5352 2.3438-5.6562v-48c0-2.1211-0.84375-4.1562-2.3438-5.6562s-3.5352-2.3438-5.6562-2.3438zm-40-64h8v8h-8zm-6.2383 24h20.48l8 40h-36.48zm-185.76 56h144v8h-144zm72-336c4.2422 0 8.3125 1.6875 11.312 4.6875s4.6875 7.0703 4.6875 11.312-1.6875 8.3125-4.6875 11.312-7.0703 4.6875-11.312 4.6875-8.3125-1.6875-11.312-4.6875-4.6875-7.0703-4.6875-11.312 1.6875-8.3125 4.6875-11.312 7.0703-4.6875 11.312-4.6875zm-16 48h32v8h-32zm-8 24h48v8h-48zm-24.801 24h97.602l22.398 224h-142.4zm-79.199 160h8v8h-8zm-6.2383 24h20.48l8 40h-36.48zm-17.762 56h64v32h-64zm80 24h144v8h-144zm224 8h-64v-32h64z"/>
  <path d="m272 208h-32c-4.418 0-8 3.582-8 8v104c0 2.1211 0.84375 4.1562 2.3438 5.6562s3.5352 2.3438 5.6562 2.3438h32c2.1211 0 4.1562-0.84375 5.6562-2.3438s2.3438-3.5352 2.3438-5.6562v-104c0-2.1211-0.84375-4.1562-2.3438-5.6562s-3.5352-2.3438-5.6562-2.3438zm-8 104h-16v-88h16z"/>
  <path d="m262.8 336h-13.602c-4.5547 0.019531-8.918 1.8398-12.137 5.0625-3.2227 3.2188-5.043 7.582-5.0625 12.137v13.602c0.019531 4.5547 1.8398 8.918 5.0625 12.137 3.2188 3.2227 7.582 5.043 12.137 5.0625h13.602c4.5547-0.019531 8.918-1.8398 12.137-5.0625 3.2227-3.2188 5.043-7.582 5.0625-12.137v-13.602c-0.019531-4.5547-1.8398-8.918-5.0625-12.137-3.2188-3.2227-7.582-5.043-12.137-5.0625zm1.1992 30.801c0 0.66016-0.53906 1.1992-1.1992 1.1992h-13.602c-0.66016 0-1.1992-0.53906-1.1992-1.1992v-13.602c0-0.66016 0.53906-1.1992 1.1992-1.1992h13.602c0.66016 0 1.1992 0.53906 1.1992 1.1992z"/>
  <path d="m264 192c0 4.418-3.582 8-8 8s-8-3.582-8-8 3.582-8 8-8 8 3.582 8 8"/>
 </g>
</svg>
