<?xml version="1.0" encoding="UTF-8"?>
<svg width="512pt" height="512pt" version="1.1" viewBox="0 0 512 512" xmlns="http://www.w3.org/2000/svg">
 <g fill="#443f3c">
  <path d="m270.63 33.664c1.8398 0.33594 3.6133 1.1719 5.4844 2.0586 2.5586 1.2109 5.4609 2.5859 8.8945 2.7109 1.707 0.09375 3.0469-1.2305 3.1094-2.8867 0.058594-1.6562-1.2305-3.0469-2.8867-3.1094-2.1992-0.078125-4.2109-1.0352-6.543-2.1406-2.1445-1.0156-4.3594-2.0625-6.9805-2.5391-12.461-2.2734-22.961-0.45312-32.305 5.6914-1.0234 0.67578-1.3555 0.80469-1.6836 0.82812-1.6484-0.089844-3.0586 1.1953-3.1406 2.8516-0.078125 1.6562 1.1953 3.0625 2.8516 3.1406 0.11719 0.003907 0.23047 0.007813 0.34375 0.007813 2.1758 0 3.7109-1.0117 5.1406-1.957 7.7734-5.1094 16.848-6.6367 27.715-4.6562z"/>
  <path d="m137.68 474.97c-1.7773 0.12109-3.4141 1.2148-4.8711 3.2539-2.5 3.5039-4.4609 10.172-3.3945 14.109 1.3281 4.9023 5.0039 7.668 10.93 7.668h0.25781c7.9102 0 15.824-0.36719 23.734-0.375 13.586-0.015625 27.629-0.16797 41.453-0.56641 27.871-0.80859 55.73-0.98828 81.684-0.98828l25.742-0.011719c5.4219 0.003906 10.852 0.15625 16.281 0.32422 5.5859 0.17188 11.164 0.33203 16.734 0.33203 5.0586 0 9.543-0.14844 13.711-0.44531 0.91016-0.0625 1.8945-0.085938 2.9141-0.085938l4.4297 0.03125c4.668 0 9.5352-0.31641 13.496-2.5742 0.80859-0.46094 1.3516-1.2695 1.4844-2.1914l0.054688-0.40625c0.77344-4.4727 0.73828-9.1133-0.15625-14.543 0.13672-0.89453-0.13281-1.8359-0.80469-2.5312-0.085937-0.09375-0.17969-0.17578-0.28125-0.26172-3.5234-2.8516-9.2695-3.8711-13.473-3.8711l-2.0078 0.050781c-2.6094 0.089844-5.2773 0.16797-7.9258 0.24609-0.10547-1.1797-0.19922-2.3828-0.24609-3.1094-0.89063-12.988-1.9844-14.156-14.637-15.598-0.035157-0.003907-0.074219-0.007813-0.11328-0.011719-1.4531-0.68359-2.9023-1.0977-4.3477-1.3516 0.019531-2.3633 0.015625-4.9297-0.28906-6.9141-0.36719-2.3828-1.3477-8.7227-9.5625-8.9453-1.332-0.035156-4.2773-0.37891-7.3906-0.73828-1.0703-0.125-2.0781-0.23828-3.0469-0.34766 0.52734-8.8164-0.69531-28.613-1.0977-32.574-0.74609-7.3164-3.6719-46.191-4.125-53.141-0.19922-3.0742-0.42187-6.1523-0.64062-9.2227-0.62891-8.7812-1.2773-17.859-1.4102-26.797-0.078125-5.4492-0.88281-19.328-1.0156-21.566 0.47656-3.6562 0.63672-7.2109 0.47266-10.578-0.48828-9.9492-1.0273-19.895-1.5664-29.84-0.43359-7.9727-0.86719-15.945-1.2734-23.914-0.18359-3.6719-1.2188-16.105-1.2656-16.629-4.0742-49.094-10.984-133.02-11.031-136.16 0.007812-2.6094-0.97266-7.1875-7.6172-8.5703-7.2148-1.5039-7.9258-2.3203-8.0312-9.4727 1.8789-0.96875 3.8203-1.8516 5.8789-2.7422 5.4492-2.3516 11.086-4.7891 15.562-9.7539 2.3594-2.6055 4.2578-6.7656-0.10156-11.777-10.078-11.605-24.121-18.793-38.523-19.719-13.148-0.84375-25.441 3.4883-35.613 12.535-0.73438 0.65625-1.5 1.2852-2.2695 1.9141-1.5234 1.2539-3.1016 2.5469-4.5391 4.0977-1.543 1.668-3.0977 3.7109-2.9102 6.2539 0.18359 2.5586 2.0352 4.3711 3.8203 5.8086 1.6797 1.3555 3.5117 2.3789 5.2812 3.3672 0.60156 0.33594 1.1992 0.67188 1.793 1.0195 1.2422 0.73047 2.5078 1.4297 3.7773 2.1289 2.6133 1.4414 5.0859 2.8008 7.3203 4.4453 0.51172 0.375 0.87109 0.80859 1.1094 1.3164 0.039062 0.12891 0.089844 0.24609 0.14844 0.36719 0.42578 1.2852 0.21875 3.043-0.22656 5.6406-0.22656 1.332-0.28906 1.6953-3.6953 1.6953-1.3359 0-2.5586-0.027343-3.6641-0.054687-4.5664-0.097656-7.8867-0.17969-10.258 2.2383-2.5 2.5508-2.7812 6.8672-2.4375 14.453 0.14453 3.1719-0.66797 10.805-1.3906 17.539-0.64453 6.0469-1.2031 11.273-1.1133 13.387 0 0.17578 0.14062 17.926-0.41016 24.09-0.007813 0.13672-0.16016 2.2266-0.40234 5.6523-0.73438 0.80859-1.1875 1.8906-1.1641 3.0195 0.015626 0.82422 0.33984 1.6211 0.78125 2.3359-1.7969 25.168-6.1172 85.207-6.7578 90.16-0.83203 6.4336-1.4648 12.969-2.0742 19.293l-1.2734 12.719c-1.5508 15.039-5.1836 50.262-5.7539 61.832l0.86719 1.3906c-0.43359 9-1.2031 28.93-1.2031 45.715v0.007812 0.007813c-4 11.406-1.8125 21.371-1.8281 25.414-0.015625 4.5117-0.91016 9.3477-1.3594 14.465-0.51172 5.8008-1.2344 11.738-1.1328 17.363-1.9297 0.058594-4.043 0.125-6.1367 0.19531-2.9414 0.097656-5.4922 0.17969-6.9375 0.21094-5.4961 0.11328-9.2695 1.5-11.473 4.2539-2.1836 2.7188-3.5547 6.5938-2.5039 11.832l-0.62891 1.0859v0.003907c-4 0.76172-8.7383 2.0898-13.496 3.875-4.2734 1.6016-3.9961 5.6641-4.0469 7.3945l0.15234 1.2773c-0.097656 2.3711-0.074219 5.1328 0.32031 7.7266-1.3086 0.30469-2.5469 0.62891-3.8203 0.96094-3.2539 0.85547-6.2773 1.6602-9.4258 1.8711zm168.48-40.508c-1.2734 0.21484-7.7109 0.39453-14.996 0.51562 0.11719-4.6016-0.03125-9.832-0.43359-13.707-1.3242-12.668-2.0625-25.262-2.2031-37.438 0-0.12891-0.011718-0.33203-0.023437-0.51953 0.49609 0.003906 0.97656 0.007813 1.4883 0.007813 2.7695 0 5.7617-0.054688 8.6914-0.11328 3.6641-0.070313 7.4023-0.13672 10.637-0.09375 0.70312 9.0195 1.3555 17.074 1.6562 20.023 0.80859 7.9609 1.4492 25.156 1.1797 31.375-2.7031-0.21094-4.7305-0.26172-5.9961-0.050781zm-37.68 0.66797c-3.9727-0.078124-10.629-0.16406-18.051-0.25781-5.2852-0.066406-10.996-0.14062-16.41-0.21875-0.050782-0.91016-0.11719-1.8594-0.18359-2.832-0.23047-3.2734-0.32422-6.9844 0-9.4922 0.53906-4.2461 2.1562-22.672 2.1562-44.246v-0.007813-0.007813c0-0.51953-0.12891-1.0312-0.10938-1.5547 0.13672-3.8633 0.19531-7.8086 0.33984-11.734 8.0078 0.09375 17.473-0.38672 25.879-0.24609l6.332-0.53516h0.42578c1.8125 0 3.8086 0.46875 5.7383 0.30078 2.1055-0.17969 4.2461-0.027343 6.168 0 0.33984 4.6602 0.84766 9.8633 1.2422 13.785 0.25391 2.5156 0.51562 5.1953 0.51953 5.7344 0.14453 12.363 0.89453 25.188 2.2344 38.031 0.38281 3.7227 0.51953 8.793 0.39844 13.195-7.1094 0.089844-13.926 0.13672-16.68 0.085937zm-62.219-103.53 0.066407-1.3945c0.29687-6.0273 1.4492-18.668 2.6953-31.465 1.1133 0.027344 2.2891 0.078125 3.4648 0.14062 2.2969 0.10938 4.6719 0.22656 6.6328 0.12891l1.4688-0.074219c3.9531-0.20703 9.5312-0.49609 13.809-0.14844-0.58984 8.0664-1.3711 16.172-2.1094 21.945-0.63281 4.957-1.3359 21.969-2.0391 40.98-0.16016 4.332-0.32031 8.7578-0.48047 13.176-3.8555-0.10938-8.1875-0.21875-12.551-0.32812-4.5-0.11328-8.9883-0.22266-12.973-0.33594 0.71094-16.051 1.5977-34.176 2.0156-42.625zm67.176-239.4c-0.57031-2.4258-0.29687-3.0312-0.30859-3.0312 0.019531-0.015625 0.51953-0.44922 3.0938-0.54297 1.5703-0.0625 3.3242-0.042968 5.1367-0.023437 2.9258 0.03125 5.9258 0.046875 8.7305-0.19922 0.16797 2.168 0.35938 4.5508 0.5625 7.1094-2.6367 0.39844-5.9453 0.58594-9.7773 0.52734-0.76172-0.007813-1.6289-0.10547-2.5352-0.19531-1.3906-0.14453-2.875-0.28906-4.3398-0.25391-0.12109-1.125-0.29687-2.2539-0.5625-3.3906zm27.957 135.57c0.40625 7.9805 0.83984 15.957 1.2734 23.938 0.53906 9.9336 1.0781 19.867 1.5664 29.805 0.14844 3.0938-0.007813 6.3828-0.46484 9.7852-0.023438 0.1875-0.03125 0.38281-0.019532 0.57422 0 0.027344 0.03125 0.55469 0.078126 1.3984-2.832 0.027344-6.5039-0.0625-7.8438-0.29688-3.1172-0.53906-7.7148-0.83984-11.871-0.5-0.23047-8.9102-0.45312-18.145-0.64844-26.281-0.28125-11.598-0.50781-21.219-0.65625-25.105-0.16797-4.5117-0.28125-13.82-0.34375-20.855 0.94141 0.10547 1.8906 0.21094 2.7891 0.21094 0.20703 0 0.41406-0.003906 0.61719-0.015625 3.0352-0.17188 10.316-0.42969 14.969-0.53516 0.24219 3.1641 0.48047 6.3555 0.55469 7.8789zm3.3789 85.691c0.13672 9.1055 0.79297 18.27 1.4258 27.137 0.21875 3.0586 0.44141 6.1211 0.63672 9.1836 0.23047 3.5625 1.1133 15.512 2.0195 27.324-3.1953-0.027344-6.7812 0.035156-10.285 0.10547-3.6602 0.066406-7.3984 0.13672-10.629 0.09375-0.64453-6.3711-1.6719-16.699-1.5508-21.797 0.19531-8.3555-0.35547-16.773-0.89063-24.906l-0.14844-2.2383c-0.34375-5.2773-0.71875-16.836-1.0742-29.848 3.5625-0.33594 7.7773-0.125 10.68 0.37891 1.6055 0.28125 4.9414 0.39062 7.8359 0.39062 0.47266 0 0.93359 0 1.3711-0.007813 0.26172 4.9258 0.55859 11.066 0.60938 14.184zm-82.707-165.59 15.801-0.67969c-0.24609 7.7891-0.47656 15.547-0.65234 22.703-3.7227-0.23828-7.8203-0.10547-11.82 0.03125-1.7031 0.054688-3.3438 0.10156-4.9258 0.125 0.61328-8.3984 1.168-16.133 1.5977-22.18zm1.3203-37.223c-0.054687-1.3516 0.27734-4.8984 0.6875-8.875 2.6758 0.15625 5.8555 0.19141 8.9922 0.21875 2.3242 0.019532 4.5273 0.046876 6.4336 0.11719-0.14844 3.707-0.32031 8.125-0.5 13.012-3.4922-0.125-8.0156 0.14453-12.156 0.38281-1.2383 0.070313-2.3945 0.14062-3.4336 0.19141-0.007813-2.7812-0.023438-4.7773-0.023438-5.0469zm54.34-8.8516c1.1016 0.11719 2.1562 0.21875 3.0742 0.23047 3.9922 0.042969 7.4297-0.14844 10.332-0.55469 0.34766 4.3594 0.73047 9.0977 1.1367 14.074-2.6992-0.019531-5.6484-0.019531-8.6094-0.011719-3.1719 0-6.3438 0.003907-9.1875-0.019531-0.058594-0.44922-0.11719-0.76953-0.16797-1.0312-0.47266-3.1719-0.33984-6.3242-0.19922-9.6562 0.042969-1.0664 0.085938-2.1484 0.10938-3.2344 1.1055-0.023437 2.3789 0.085937 3.5117 0.20312zm-33.793 43.766c0.69922-0.85547 1.125-1.9727 1.1016-3.0703-0.019531-0.93359-0.38672-1.7148-0.92578-2.3555 0.09375-2.8281 0.19141-5.6719 0.29297-8.5273 2.207-0.035156 4.9688-0.058594 6.2852 0.097656 3.2852 0.38281 6.6523 0.48438 10 0.48438 1.7656 0 3.5234-0.027343 5.2617-0.054687 1.3672-0.019532 2.7031-0.015625 4.0508-0.023438 0.59766 7.3398 1.2852 16.238 1.9453 24.93-4.5156-0.11328-10.324 0.03125-16 0.17188-4.5664 0.11719-8.9297 0.22266-12.371 0.19531 0.10547-3.8477 0.22656-7.8086 0.35938-11.848zm-0.91406 54.398c-0.32422-4.6367-0.10547-18.797 0.37891-36.559 0.40625 0.003906 0.79688 0.007812 1.2266 0.007812 3.3438 0 7.3281-0.10156 11.465-0.20703 5.8828-0.14844 11.902-0.29688 16.309-0.15625 0.050781 0.6875 0.10547 1.3828 0.15625 2.0625 1.125 14.801 2.0195 26.496 2.6875 34.531-2.1445-0.015625-4.375-0.023438-6.6758-0.019531-3.6055 0.003906-7.2305 0.007812-10.285-0.0625-2.3086-0.0625-4.7227 0.089843-7.0625 0.23438-2.7656 0.17188-5.5938 0.33984-8.1992 0.16797zm-2.6172 68.363c0-0.11328-0.003906-0.21875-0.011718-0.29297-1.2148-11.723 0.76562-37.094 1.9531-52.254 0.35938-4.5977 0.58984-7.6562 0.72656-9.8125 0.74609 0.039062 1.5 0.074219 2.2539 0.074219 2.0898 0 4.1953-0.13281 6.2695-0.25781 2.3164-0.14453 4.5-0.27734 6.543-0.22266 3.0977 0.070312 6.7656 0.074219 10.441 0.066406 2.4922 0.003906 4.9023 0.007813 7.1914 0.027344 0.26562 2.8789 0.47656 4.875 0.63281 5.8438 0.003906 0.71484 0.015625 2.7773 0.035156 5.5 0.054688 7.1133 0.17188 18.898 0.375 24.309 0.14844 3.8711 0.375 13.465 0.65234 25.023 0.054688 2.2578 0.11328 4.6094 0.16797 7.0039-5.5977-0.023437-11.848-0.003906-18.148 0.011719-6.3828 0.015625-12.723 0.035156-18.375 0.011719-0.13281-2.0898-0.35547-3.8398-0.70703-5.0312zm38.133-103.67c-0.58594-7.6758-1.0938-14.379-1.5469-20.227 1.6992 0.078126 3.4844 0.13281 5.3477 0.13281 4.1914 0 8.5781-0.1875 12.258-0.48438 0.8125 9.875 1.6289 19.82 2.3945 29.133-2.7266 0.11328-5.8125 0.25781-8.9102 0.40234-3.0781 0.14844-6.1445 0.29297-8.832 0.40234-0.23828-3.1289-0.47656-6.2734-0.71094-9.3594zm-2.0195-26.238c-0.57813-7.3398-1.0391-12.914-1.4062-16.895 2.6836 0.019532 5.6133 0.015626 8.5586 0.011719 3.1367-0.003906 6.2695-0.007812 9.0859 0.015625 0.4375 5.3477 0.89062 10.91 1.3516 16.551-5.3359 0.42969-12.246 0.62109-17.59 0.31641zm-7.7148-19.863c0.19141 1.8359 0.42578 4.4141 0.69141 7.5508-1.2148 0.011718-2.4141 0.003906-3.6445 0.023437-4.832 0.074219-9.8398 0.15234-14.469-0.39062-1.625-0.1875-4.3125-0.17188-6.7695-0.14062 0.078124-2.2422 0.16406-4.4805 0.24609-6.707 1.7578 0.039062 3.4805 0.066406 5.3398 0.15234 2.7656 0.12891 5.6719 0.26172 8.6016 0.26172 3.375 0.003907 6.7695-0.17578 10.004-0.75zm-43.195 57.375c3.9531-0.13281 7.9883-0.25391 11.48-0.011718-0.28125 13.395-0.31641 23.703 0.14062 26.203 0.066406 0.83203-0.22656 4.9141-0.58594 9.5586-2.3828-0.17187-5.0586-0.12109-7.707-0.046874-1.9453 0.054687-3.7656 0.10937-5.1094 0.027343-0.87891-0.050781-2.332-0.11719-3.875-0.17969-0.83594-0.035156-1.6914-0.070313-2.5-0.10938 0.80469-10.711 1.7305-23.395 2.5977-35.312 1.7734-0.019531 3.6211-0.066407 5.5586-0.12891zm12.633 145.55c0.54688-4.293 2.9844-27.246 3.0273-42.117 1.8359 0.007813 3.7227 0.011719 5.6875 0.011719 4.0391 0 8.293-0.011719 12.547-0.027344 6.3477-0.015625 12.652-0.03125 18.273-0.011719 0.48828 19.789 1.0625 41.477 1.5859 49.398l0.14844 2.2422c0.52734 8.0039 1.0703 16.281 0.87891 24.371-0.019531 0.94531 0 2.0625 0.035157 3.2461-2.0781-0.003906-4.2305 0.16016-6.3438 0.33984-2.0234 0.17188-3.9453 0.33203-5.5547 0.3125l-6.3633-0.10547c-8.3633-0.14062-17.812-0.29688-25.801-0.38672 0.64844-17.207 1.3164-32.848 1.8789-37.273zm47.293-107.05c-0.70312 0.042969-1.8125-0.085937-2.8789-0.20312-0.085937-0.007813-0.15625-0.007813-0.23438-0.015626-0.011719-1.7891-0.019531-2.9453-0.019531-2.9922 0-0.1875-0.019531-0.37891-0.054688-0.5625-0.37891-1.9219-1.4648-15.422-2.6367-30.652 2.6523-0.10938 5.6445-0.24609 8.6602-0.39062 3.1758-0.15234 6.3516-0.30078 9.1211-0.41406 1.0898 13.199 2.043 24.691 2.6602 32.141 0.003906 0.035156 0.089844 1.0547 0.21094 2.5625-4.7422 0.10938-11.832 0.35938-14.828 0.52734zm-17.453-101.83c-5.4141 1.0117-11.594 0.72656-17.598 0.45312-1.8477-0.085937-3.6406-0.15234-5.3906-0.19141 0.074219-2.0273 0.15625-4.0273 0.23047-6.0117 0.54297 0.023437 1.0352 0.042968 1.5977 0.066406 4.0469 0.18359 8.6055 0.39062 13.047 0.39062 2.793 0 5.5195-0.09375 8.0664-0.31641-0.054687 1.8359-0.082031 3.6953 0.046876 5.6094zm-28.145-21.258c-0.039062 0.95312-0.10938 2.5977-0.19531 4.7734-1.9961-0.070312-4.2461-0.10156-6.6172-0.12109-2.9609-0.027344-5.9531-0.0625-8.4102-0.19531 0.16797-1.6094 0.33203-3.1992 0.48828-4.7461 2.1758 0.070313 4.4023-0.20312 6.5938-0.51562 2.6445-0.375 5.1406-0.73047 7-0.32031 0.74219 0.16797 1.1328 0.34375 1.2695 0.41016-0.078124 0.23047-0.11719 0.47266-0.12891 0.71484zm-16.973 44.023c0.27344-3.043 0.38281-8.5898 0.42578-13.664 1.1445-0.050781 2.4375-0.12891 3.8125-0.20703 3.668-0.21875 8.3516-0.49609 11.578-0.38281-0.20312 5.5469-0.41406 11.504-0.625 17.605l-15.457 0.41406c0.14062-2.0312 0.23828-3.3711 0.26562-3.7656zm-10.902 133.31 1.2773-12.758c0.60938-6.2773 1.2344-12.766 2.0508-19.102 0.21875-1.6836 0.82422-9.2266 1.6055-19.473 0.87109 0.039063 1.7969 0.078125 2.7031 0.12109 1.5 0.0625 2.9102 0.12109 3.7617 0.17188 1.4844 0.09375 3.4844 0.042969 5.6445-0.019531 2.2969-0.0625 4.9453-0.125 7.0742 0.023437-1.2695 16.293-2.9688 39.285-1.7656 50.656-0.039063 0.46875 0.050781 1.2383 0.22656 1.6719 0.39844 0.98828 0.59375 3.2578 0.65625 6.2891 0 0.019531-0.011719 0.035156-0.011719 0.058594 0 0.027343 0.015626 0.054687 0.015626 0.085937 0.078124 4.293-0.12891 10.129-0.50391 16.398-4.6484-0.37109-10.199-0.11328-14.52 0.12109l-1.457 0.074219c-1.6602 0.085937-3.875-0.023437-6.0312-0.12891-1.0586-0.050781-2.1289-0.10156-3.168-0.13281 0.92188-9.3398 1.8398-18.223 2.4414-24.059zm22.43-224.16c-1.2148-0.66797-2.4336-1.3398-3.625-2.0391-0.62891-0.37109-1.2695-0.72656-1.9062-1.0859-1.625-0.91016-3.1562-1.7695-4.4492-2.8086-1.3281-1.0664-1.5859-1.5195-1.5977-1.5039 0.023437-0.09375 0.19531-0.58594 1.3242-1.8047 1.1641-1.2539 2.5156-2.3633 3.9531-3.543 0.82813-0.67969 1.6562-1.3594 2.4492-2.0664 8.9414-7.957 19.715-11.797 31.234-11.031 12.816 0.82422 25.344 7.2656 34.379 17.668 1.5703 1.8086 1.457 2.4023 0.17578 3.8203-3.6094 3.9961-8.4102 6.0703-13.492 8.2695-2.4141 1.043-4.9062 2.1211-7.3047 3.4258-0.30859-0.070312-0.61328-0.13672-0.89062-0.17188-5.0156-0.63281-10.234-0.94922-15.625-0.94922-4.7383 0-9.6094 0.24609-14.586 0.73437-0.53906-0.72656-1.2188-1.4141-2.0781-2.043-2.5352-1.8828-5.293-3.4023-7.9609-4.8711zm-7.8711 25.102c0.53906-0.55859 3.2305-0.50391 5.8281-0.4375 1.1289 0.023438 2.3711 0.054688 3.7344 0.054688 2.8125-0.039062 8.5312 0.007812 9.6758-6.6836 0.26172-1.5273 0.57812-3.375 0.52734-5.2773 9.4102-0.84375 18.426-0.74609 27.09 0.30859 0.30859 8.5117 2.207 12.191 12.777 14.398 2.6445 0.54688 2.8438 1.457 2.8398 2.6719 0 0.46484 0.19531 3.2734 0.53516 7.7656-2.5352 0.22266-5.4023 0.19922-8.2109 0.17578-1.9141-0.019531-3.7656-0.035156-5.4141 0.023437-2.7656 0.10547-5.832 0.52344-7.6289 2.8828-1.8125 2.375-1.4805 5.5547-0.89062 8.0586 0.42188 1.8047 0.50781 3.6406 0.50781 5.5195v0.015625c0 0.61328 0.11719 1.2344 0.10938 1.8594-6.293 0.62891-14.32 0.26172-20.973-0.039062-0.57812-0.023438-1.0508-0.042969-1.6055-0.070313 0.125-3.0625 0.26172-6.0547 0.37891-8.9297 0.46484-1.9414-0.027344-3.3789-0.54688-4.2695-0.94922-1.6172-2.7148-2.7227-5.2656-3.293-2.9375-0.65234-6.0938-0.19922-9.1523 0.23437-1.8008 0.25781-3.6172 0.49219-5.2148 0.47656 0.15625-2.2227 0.22656-4.125 0.16797-5.4766-0.097656-2.168-0.39844-8.8125 0.73047-9.9688zm-24.305 347.82c0.44531-5.0156 0.89844-10.203 0.91406-14.973 0.011719-3.6328 0.32812-12.18 0.75781-22.262 4.0156 0.11719 8.543 0.23047 13.086 0.34375 4.3359 0.10938 8.6484 0.21484 12.484 0.32422-0.67578 18.723-1.3555 36.902-1.8398 40.672-0.40234 3.1016-0.13281 6.957 0.13281 10.68 0.054687 0.79687 0.10938 1.5625 0.15625 2.3203-7.9805-0.13281-14.527-0.28125-16.742-0.45312-1.7227-0.13281-5.2695-0.10156-9.8203 0.007813-0.10156-5.2969 0.37109-11.047 0.87109-16.66zm-26.535 25.242c1.0117-1.2617 3.3281-1.9375 6.8828-2.0039 1.4648-0.027343 3.9883-0.21484 6.9609-0.3125 2.6562-0.089843 5.8086-0.38281 8.8828-0.38281h0.007812 0.19531 0.007812c5.2422 0 10.223-0.14453 12.078 0 4.3477 0.33203 23.051 0.62109 39.551 0.83203 7.4062 0.09375 14.047-0.3125 18.008-0.23438 2.6602 0.042969 11.156-0.59766 19.562-0.59766h0.14062c0.011719 0 0.019531 0.51172 0.035156 0.51172 8.6797-0.125 17.219-0.078125 19.07-0.39062 1.7422-0.30859 8.6641 0.64062 13.242 1.1719 3.3906 0.39062 6.3242 0.79688 7.9219 0.83984 2.6445 0.070313 3.3164 0.79297 3.7969 3.8906 0.22656 1.4766 0.23438 3.7422 0.22266 5.7578-1.2969 0.085938-2.5625 0.22266-3.7891 0.35938-1.9883 0.22266-3.8438 0.45703-5.6797 0.39453l-8.707-0.19141c-34.605-0.77734-70.383-1.5781-105.61-1.6367l-6.6094-0.03125c-8.6641-0.0625-17.609-0.097656-26.367 0.53125-0.015625-0.11328-0.039063-0.22656-0.054688-0.33594l-0.22266-1.2656c-0.67578-3.3477-0.51562-5.6719 0.47266-6.9062zm-18.98 21.965 0.050781-1.332c0.054687-1.7812 0.24609-1.8477 0.5625-1.9688 5.8828-2.2109 12.023-3.6641 17.297-4.0938 8.9258-0.71484 18.219-0.65625 27.199-0.59375l6.6367 0.03125c35.164 0.058594 70.91 0.85938 105.48 1.6367l8.707 0.19531c2.2031 0.039063 4.3828-1.0625 6.4805-1.2969 2.168-0.24219 4.1797-1.2461 6.0938-1.2461h0.011719 0.007813c1.8008 0 3.5078 1.2852 5.1484 2.1523 0.75781 0.42578 1.4844 0.86328 1.8984 0.83594 4.0977 0.46875 7.043 1.0352 7.7734 1.8164 0.76953 0.82422 0.98828 4.1211 1.293 8.5508 0.042969 0.66406 0.13281 1.8008 0.22266 2.9023-3.9062 0.10156-7.8242 0.21094-11.703 0.23438l-2.7422 0.019531c-6.0234 0-12.043-0.10547-18.062-0.21484l-6.0039-0.10547c-4.2422-0.070312-8.4961-0.078125-12.742-0.09375-10.027-0.027344-20.398-0.054688-30.465-0.89453-5.1172-0.42969-10.094-0.48828-14.711-0.48828l-7.9609 0.023437c-3.0078 0-6.0117-0.027344-9.0195-0.15234-2.8359-0.11719-5.6719-0.26172-8.5078-0.40234-9.9219-0.50391-20.711-0.42969-29.551 0.17578-14.449 0.98438-27.293 1.6445-40.066 1.6445h-0.45703c-0.93359 0-1.8438-0.43359-2.7539-0.34766-0.28906-2.043-0.20312-5.0195-0.12109-6.9883zm3.207 11.336h0.019531c12.941 0 25.953 0.33594 40.57-0.66016 8.543-0.57422 19.094 0.089844 28.84 0.57812 2.8555 0.14844 5.7148 0.41406 8.5703 0.53125 3.0938 0.125 6.1758 0.21875 9.2656 0.21875l7.9609 0.007812c4.4883 0 9.3164 0.070313 14.211 0.48438 10.309 0.85547 20.801 0.89453 30.949 0.92578 4.2227 0.011718 8.4453 0.027343 12.664 0.097656l5.9922 0.10938c6.0547 0.11328 12.117 0.22656 18.176 0.22656l2.7773-0.007812c4.9727-0.03125 9.9688-0.14844 14.945-0.29297 0.007813 0 0.015625 0.003906 0.027344 0.003906 0.058593 0 0.12109-0.007812 0.17969-0.011718 3.5742-0.10547 7.1484-0.21484 10.652-0.33203l1.8086-0.046875c2.8086 0 6.3516 0.57812 8.6641 1.8516 0.68359 4.043 0.78516 7.7422 0.29297 11.336-2.6211 1.0312-5.9844 1.1914-9.2773 1.1914l-4.4297-0.03125c-1.1719 0-2.2969 0.023437-3.3438 0.097656-8.5391 0.60938-19.395 0.40625-29.836 0.085937-5.4883-0.16797-10.98-0.33594-16.461-0.34375l-25.754-0.019531c-26 0-53.91 0.11328-81.855 0.92188-13.742 0.39453-27.742 0.41016-41.285 0.42578-7.9336 0.007813-16.035 0.015625-23.969 0.10156l-0.36719 3v-3c-4 0-4.457-1.0859-4.9648-2.9648-0.70312-2.5898 1.9102-8.7969 2.9648-9.5234 3.7188-0.25391 7.2578-1.6641 10.637-2.5469 3.7617-0.98437 7.3594-2.4141 11.375-2.4141z"/>
  <path d="m257.77 38.328-0.55469 0.097656-0.20313 0.51562c-0.16016 0.39844-1.5391 4-0.19531 5.9688 0.37891 0.5625 1.1367 1.2227 2.5781 1.2148 0.25781 0 0.54297-0.023438 0.85156-0.074219 2.8477-0.45312 4.1836-2.5273 4.0352-4.3477-0.17578-2.0547-2.207-4.1367-6.5117-3.375z"/>
 </g>
</svg>
