<?xml version="1.0" encoding="UTF-8"?>
<svg width="512pt" height="512pt" version="1.1" viewBox="0 0 512 512" xmlns="http://www.w3.org/2000/svg">
 <g fill="#443f3c">
  <path d="m355.67 256c79.699-37.621 135.72-118.95 138.82-214.06h-140.77v-0.003906l-97.73 97.73-97.734-97.73h-140.77c3.1133 95.105 59.137 176.44 138.84 214.06-79.707 37.637-135.73 118.96-138.84 214.06h140.77l97.734-97.73 97.73 97.73h140.77c-3.1094-95.105-59.133-176.43-138.83-214.06zm-99.672 87.629-106.13 106.14h-110.46c6.2266-50.434 28.832-96.953 64.855-132.74 22.852-22.719 49.758-39.715 78.973-50.305h0.003907c13.988-5.0781 28.504-8.6719 43.367-10.723-14.863-2.0547-29.379-5.6484-43.367-10.723-29.219-10.59-56.121-27.598-78.98-50.309-36.02-35.789-58.625-82.312-64.855-132.74l110.46 0.003906 106.14 106.14 106.13-106.13h110.47c-6.2461 50.426-28.848 96.953-64.867 132.74-22.844 22.719-49.758 39.715-78.973 50.309h-0.003907c-13.988 5.0742-28.496 8.668-43.371 10.723 14.859 2.0469 29.379 5.6406 43.371 10.723 29.219 10.59 56.129 27.602 78.98 50.309 36.02 35.789 58.617 82.309 64.859 132.74l-110.46-0.003906z"/>
  <path d="m311.2 240.28c33.301-9.375 63.961-27.234 89.395-52.504 31.785-31.586 52.469-71.289 60.227-115.39h-94.48l-110.34 110.34-110.34-110.34h-94.484c7.7578 44.098 28.441 83.805 60.238 115.39 25.422 25.273 56.094 43.133 89.391 52.504 17.781 5.0117 36.312 7.6094 55.195 7.6094 18.879 0 37.418-2.5977 55.195-7.6094zm-185.49-66.895c-22.844-22.719-39.465-50.27-48.828-80.723h60.375l118.74 118.75 118.74-118.74h60.371c-9.3477 30.449-25.969 58.008-48.82 80.719-35.191 34.953-81.449 54.207-130.29 54.207-48.836 0-95.105-19.254-130.29-54.211z"/>
  <path d="m400.59 324.22c-25.438-25.273-56.094-43.121-89.395-52.496-17.793-5.0117-36.32-7.6094-55.199-7.6094-18.883 0-37.418 2.5977-55.195 7.6094-33.297 9.375-63.969 27.223-89.391 52.496-31.797 31.602-52.48 71.297-60.238 115.41h94.488l110.34-110.35 110.34 110.35h94.48c-7.7578-44.113-28.441-83.809-60.227-115.41zm-144.59-23.633-118.74 118.74h-60.375c9.3633-30.445 25.984-58.004 48.828-80.723 35.184-34.945 81.453-54.199 130.29-54.199 48.84 0 95.098 19.258 130.29 54.211 22.852 22.711 39.469 50.262 48.82 80.727h-60.371z"/>
 </g>
</svg>
