<?xml version="1.0" encoding="UTF-8"?>
<svg width="512pt" height="512pt" version="1.1" viewBox="0 0 512 512" xmlns="http://www.w3.org/2000/svg">
 <path d="m348.6 49.062c-27.547-1.2461-50.453 15.223-50.453 44.77 0 18.391 10.438 36.793 31.301 42.723 5.6406 1.6094 12.027 2.3594 19.156 2.0312 21.426-25.887 21.426-63.641-0.007812-89.523zm-83.453 145.2c-32.469 95.559-96.086 177.31-180.69 232.24l54.02 1.5039 16.516-18.566c2.3203-2.6055 5.9336-3.3789 9.0156-2.2148 17.762 5.3633 36.133 7.6484 54.57 7.3477 65.812-30.598 104.12-100.52 94.496-172.46-1.0508-5.4805 3.6289-10.473 9.2422-9.6523 35.824 5.3086 69.422-18.754 75.863-54.371-5.7578-4.6445-12.281-9.1133-19.613-13.34-2.6172-1.5117-4.082-4.2617-4.082-7.0859l-0.011719-7.2188c-15.965 4.6367-33.297 6.4961-49.508 1.8789-28.82-8.1992-43.238-33.375-43.238-58.496 0-24.383 13.57-48.801 40.699-57.723l-2.2695-0.042968c-29.867 0-54.316 24.43-54.316 54.297v100.59c0 1.1719-0.24609 2.293-0.6875 3.3008zm-199.75 224.93c79.648-48.652 141.59-121.96 176.27-208.6-35.414 23.234-106.66 75.301-120.2 125.84-0.76953 2.9023-3.0117 5.0234-5.7148 5.7812-5.0938 1.9219-44.562 18.656-50.355 76.977zm394.76-332.16c4.7773 3.2305 4.7891 10.352 0.011719 13.594-25.871 21.418-48.984 35.527-69.297 43.992v8.3984c39.168 23.93 56.965 54.559 58.969 86.855 3.2188 52.098-34.504 100.77-73.168 131.63-27.219 21.727-60.109 39.289-95.051 49.535v54.891h56.645c10.793 0 10.793 16.418 0 16.418h-168.53c-10.793 0-10.793-16.418 0-16.418h25.473v-45.984c-10.57-1.0469-21.07-2.9453-31.391-5.7812l-15.625 17.566c-1.5586 1.7227-3.8398 2.8008-6.3438 2.7266l-85.375-2.3477c-4.5352 0-8.2109-3.6758-8.2109-8.2109 0-73.18 44.738-99.316 58.539-105.63 20.699-65.039 120.97-128.82 142.62-141.97v-95.941c0-38.922 31.797-70.723 70.719-70.723 15.625 0 30.969 5.3086 43.297 14.887 26.074 5.0391 58.375 20.75 96.727 52.504zm-28.332 15.008h-51.125c-1.0781 11.242-4.3555 22.328-9.8281 32.559 21.738-6.4414 42.938-19.352 60.949-32.559zm-51.125-16.426h51.125c-23.422-17.168-43.715-27.441-60.949-32.566 5.4805 10.23 8.75 21.316 9.8281 32.566zm-51.879-23.555c6.1992 0 11.223 5.0234 11.223 11.223s-5.0234 11.223-11.223 11.223c-6.1992 0-11.223-5.0234-11.223-11.223s5.0234-11.223 11.223-11.223zm-117.2 413.87h53.578v-50.656c-17.566 3.9141-35.57 5.9609-53.578 5.6172zm154.86-117.25c34.215-27.316 69.852-71.516 66.996-117.86-1.082-17.418-7.8672-34.391-21.648-49.828-11.152 35.516-44.266 59.344-81.504 58.562 5.0195 62.395-22.562 123.26-72.645 160.63 39.391-8.0781 77.508-26.523 108.8-51.512z" fill="#443f3c"/>
</svg>
