<?xml version="1.0" encoding="UTF-8"?>
<svg width="512pt" height="512pt" version="1.1" viewBox="0 0 512 512" xmlns="http://www.w3.org/2000/svg">
 <path d="m304 296h-96v16c0 4.4141-3.5859 8-8 8s-8-3.5859-8-8v-24c0-4.4141 3.5859-8 8-8h112c4.4141 0 8 3.5859 8 8v24c0 4.4141-3.5859 8-8 8s-8-3.5859-8-8zm112 64c0 4.4141-3.5859 8-8 8h-32c-4.4141 0-8-3.5859-8-8v-27.328c0-10.961 5.7266-20.785 14.594-25.039l5.9375-2.8477c2.1914-1.0547 4.7344-1.0547 6.9297 0l5.9375 2.8477c8.8633 4.2578 14.594 14.078 14.594 25.039v27.328zm-16-27.328c0-4.6875-2.2734-9.0547-5.5195-10.609l-2.4805-1.1836-2.4805 1.1836c-3.2461 1.5508-5.5195 5.9219-5.5195 10.609v19.328h16zm-256 27.328c0 4.4141-3.5859 8-8 8h-32c-4.4141 0-8-3.5859-8-8v-27.328c0-10.961 5.7266-20.785 14.594-25.039l5.9375-2.8477c2.1914-1.0547 4.7344-1.0547 6.9297 0l5.9375 2.8477c8.8633 4.2578 14.594 14.078 14.594 25.039v27.328zm-16-27.328c0-4.6875-2.2734-9.0547-5.5195-10.609l-2.4805-1.1836-2.4805 1.1836c-3.2461 1.5508-5.5195 5.9219-5.5195 10.609v19.328h16zm384-196.67v352c0 4.4141-3.5859 8-8 8h-496c-4.4141 0-8-3.5859-8-8v-352c0-10.434 6.6875-19.297 16-22.594v-9.4062c0-4.4141 3.5859-8 8-8s8 3.5859 8 8v9.4062c9.3125 3.3125 16 12.176 16 22.594v152l13.922-10.434c-2.8945-5.9219-6.0156-15.566-6.0156-29.742 0-24.77 26.367-43.344 43.809-55.633 4.6406-3.2656 10.273-7.2305 12.289-9.3438v-22.848c0-4.4141 3.5859-8 8-8 4.4141 0 8 3.5859 8 8v22.848c2.0156 2.0977 7.6484 6.0781 12.289 9.3438 2.2578 1.6016 4.6719 3.2969 7.168 5.1055-2.0312-8.6875-3.457-19.281-3.457-31.953 0-42.383 47.137-75.586 78.336-97.551 10.527-7.4062 23.535-16.594 25.664-20.48l-0.003906-23.312c0-4.4141 3.5859-8 8-8s8 3.5859 8 8v23.297c2.1289 3.8867 15.152 13.055 25.664 20.48 31.199 21.969 78.336 55.184 78.336 97.551 0 12.672-1.4062 23.266-3.457 31.953 2.4805-1.8086 4.8945-3.5039 7.168-5.1055 4.6406-3.2656 10.273-7.2305 12.289-9.3438v-22.848c0-4.4141 3.5859-8 8-8s8 3.5859 8 8v22.848c2.0156 2.0977 7.6484 6.0781 12.289 9.3438 17.441 12.289 43.809 30.863 43.809 55.633 0 14.176-3.1055 23.824-6.0156 29.742l13.922 10.434-0.003906-151.98c0-10.434 6.6875-19.297 16-22.594v-9.4062c0-4.4141 3.5859-8 8-8s8 3.5859 8 8v9.4062c9.3125 3.3125 16 12.176 16 22.594zm-16 72h-16v224h16zm0-56h-16v40h16zm-16-16h16c0-4.4141-3.5859-8-8-8s-8 3.5859-8 8zm-32 160v136h16v-124zm-48 116.67c0-4.6875-2.2734-9.0547-5.5195-10.609l-2.4805-1.1836-2.4805 1.1836c-3.2461 1.5508-5.5195 5.9219-5.5195 10.609v19.328h16zm16 0v19.328h16v-144h-80v144h16v-19.328c0-10.961 5.7266-20.785 14.594-25.039l5.9375-2.8477c2.1914-1.0547 4.7344-1.0547 6.9297 0l5.9375 2.8477c8.8633 4.2578 14.594 14.078 14.594 25.039zm-128-40.977c0-16.434-8.2891-31.441-20.609-37.359l-11.391-5.4727-11.391 5.4727c-12.32 5.9219-20.609 20.93-20.609 37.359v60.305h64zm16 0v60.305h32v-168h-160v168h32v-60.305c0-22.801 11.648-43.121 29.68-51.777l14.863-7.1367c2.1914-1.0547 4.7344-1.0547 6.9297 0l14.863 7.1367c18.031 8.6562 29.68 28.977 29.68 51.777zm-176 40.977c0-4.6875-2.2734-9.0547-5.5195-10.609l-2.4805-1.1836-2.4805 1.1836c-3.2461 1.5508-5.5195 5.9219-5.5195 10.609v19.328h16zm16 0v19.328h16v-144h-80v144h16v-19.328c0-10.961 5.7266-20.785 14.594-25.039l5.9375-2.8477c2.1914-1.0547 4.7344-1.0547 6.9297 0l5.9375 2.8477c8.8633 4.2578 14.594 14.078 14.594 25.039zm192-180.67h-160v16h160zm16-2.4648v41.922h83.215c1.9375-3.6172 4.8789-11.168 4.8789-23.648 0-16.465-22.289-32.16-37.023-42.559-4.4141-3.1211-8.1289-5.7266-11.07-8.1445-2.9297 2.4141-6.6406 5.0234-11.07 8.1445-9.1211 6.4141-21.105 14.863-28.93 24.273zm-192-64.207c0 29.199 8.207 44.977 11.953 50.672h168.06c3.7773-5.7617 11.984-21.617 11.984-50.672 0-34.078-43.055-64.414-71.535-84.48-10.703-7.5352-18.961-13.359-24.465-18.559-5.5039 5.2148-13.742 11.023-24.465 18.559-28.496 20.062-71.535 50.398-71.535 84.48zm-88.098 82.496c0 12.48 2.9453 20.031 4.8789 23.648h83.215v-41.922c-7.8242-9.4062-19.824-17.855-28.93-24.273-4.4141-3.1211-8.1289-5.7266-11.07-8.1445-2.9297 2.4141-6.6406 5.0234-11.07 8.1445-14.754 10.383-37.023 26.078-37.023 42.559zm-23.902 60.176v124h16v-136zm-16-156h-16v40h16zm-16 280h16v-224h-16zm0-296h16c0-4.4141-3.5859-8-8-8s-8 3.5859-8 8zm480 312h-480v32h480z" fill="#443f3c"/>
</svg>
