<?xml version="1.0" encoding="UTF-8"?>
<svg width="512pt" height="512pt" version="1.1" viewBox="0 0 512 512" xmlns="http://www.w3.org/2000/svg">
 <g fill="#443f3c">
  <path d="m504 462h-47.801l0.30078-6c4.1992-0.30078 7.5-3.6992 7.5-8v-40c0-4.3984-3.6016-8-8-8h-23l0.69922-8.1992c3.6016-0.80078 6.3008-4 6.3008-7.8008v-8c0-4.3984-3.6016-8-8-8h-17.199l-27.602-165.8c-6.1992-37.5-35-65.898-71.102-72.699l0.003906-25.5c0-4.3984-3.6016-8-8-8h-12.801l-4.6016-24.801c0-0.19922 0-0.30078-0.10156-0.5l-10.699-64c-0.60156-3.8984-4-6.6992-7.8984-6.6992h-32c-3.8984 0-7.1992 2.8008-7.8984 6.6992l-14.902 89.301h-13.199c-4.3984 0-8 3.6016-8 8v25.5c-36.102 6.6992-64.898 35.199-71.102 72.699l-24.699 148.5c-0.69922 4.3984 2.1992 8.5 6.6016 9.1992 0.39844 0.10156 0.89844 0.10156 1.3008 0.10156 3.8008 0 7.1992-2.8008 7.8984-6.6992l1.8008-10.5 17.5-17.5c3.1016-3.1016 3.1016-8.1992 0-11.301l-11-11 2.5-14.898 13.5 13.5c1.6016 1.6016 3.6016 2.3008 5.6992 2.3008 2.1016 0 4.1016-0.80078 5.6992-2.3008l16-16c3.1016-3.1016 3.1016-8.1992 0-11.301-3.1016-3.1016-8.1992-3.1016-11.301 0l-10.301 10.301-14.602-14.602 2.3008-13.602 12.398-12.398 25.898 25.898c3.1016 3.1016 8.1992 3.1016 11.301 0 3.1016-3.1016 3.1016-8.1992 0-11.301l-31.602-31.602c-3.1016-3.1016-8.1992-3.1016-11.301 0l-4 4 4.3984-26.301c5.8984-35.301 36.102-60.898 71.801-60.898 4.3984 0 8-3.6016 8-8s-3.6016-8-8-8h-0.5v-16h30.301c7.6992 4.8008 13 10.199 16.699 16l-19.191 0.003906c-4.3984 0-8 3.6016-8 8 0 4.3984 3.6016 8 8 8h34.699c13.301 7.3984 19.199 21.102 21.199 38.398l-5.6016 5.6016c-3.1016 3.1016-3.1016 8.1992 0 11.301 1.8008 1.8008 4.1992 2.5 6.5 2.3008 0 3.8008-0.19922 7.6016-0.39844 11.5l-10-10c-3.1016-3.1016-8.1992-3.1016-11.301 0-3.1016 3.1016-3.1016 8.1992 0 11.301l19.602 19.602c-0.69922 7.8008-1.6016 15.699-2.3984 23.699l-30.699-30.699c-3.1016-3.1016-8.1992-3.1016-11.301 0l-31.602 31.602c-1.5 1.5-2.3008 3.5-2.3008 5.6992s0.80078 4.1992 2.3008 5.6992l31.602 31.602c1.6016 1.6016 3.6016 2.3008 5.6992 2.3008 2.1016 0 4.1016-0.80078 5.6992-2.3008l29.301-29.301c-0.80078 9.3984-1.3984 18.801-1.6016 27.801l-14.199 14.199c-3.1016 3.1016-3.1016 8.1992 0 11.301l19.699 19.699c2.8008 8.5 6.8008 16.102 12.5 22.5l-203.4-0.003907h-24c-4.3984 0-8 3.6016-8 8v24h-16c-4.3984 0-8 3.6016-8 8v54h-8c-4.3984 0-8 3.6016-8 8 0 4.3984 3.6016 8 8 8h218.8c13.102 4.6992 22.602 10.5 27.898 17.5h-270.7v-25.102c0-4.3984-3.6016-8-8-8s-8 3.6016-8 8v33.5c0 4.3984 3.6016 8 8 8h496c4.3984 0 8-3.6016 8-8v-33.5c0-4.3984-3.6016-8-8-8zm-248-177.3-20.301-20.301 20.301-20.301 20.301 20.301zm109.5-53.5c1.1992-1.1992 3.1016-1.1992 4.1992 0l11.199 11.199c0.5 0.5 0.80078 1.1992 0.89844 1.8984-0.10156 0.69922-0.30078 1.3008-0.89844 1.8984-0.69922 0.69922-1.6016 1-2.5 0.80078l0.10156 0.5c-0.69922-0.10156-1.3008-0.30078-1.8008-0.80078l-9.1016-9.1016-16.801 16.801c-0.60156 0.60156-1.3984 0.89844-2.1016 0.89844-0.80078 0-1.5-0.30078-2.1016-0.89844-1.1992-1.1992-1.1992-3.1016 0-4.1992zm2.1016 68.301c-0.80078 0-1.5-0.30078-2.1016-0.89844l-31.602-31.602c-1.1992-1.1992-1.1992-3.1016 0-4.1992 1.1992-1.1992 3.1016-1.1992 4.1992 0l31.602 31.602c1.1992 1.1992 1.1992 3.1016 0 4.1992-0.59766 0.59766-1.3008 0.89844-2.0977 0.89844zm-31-98c1.1992-1.1992 3.1016-1.1992 4.1992 0l5.3008 5.3008c1.1992 1.1992 1.1992 3.1016 0 4.1992l-21 21c-0.60156 0.60156-1.3984 0.89844-2.1016 0.89844-0.69922 0-1.5-0.30078-2.1016-0.89844-1.1992-1.1992-1.1992-3.1016 0-4.1992l18.898-18.898-3.1992-3.1992c-1.1992-1.1016-1.1992-3.0039 0.003906-4.2031zm-1.9023-1.8984c-0.60156 0.60156-1.3984 0.89844-2.1016 0.89844-0.69922 0-1.5-0.30078-2.1016-0.89844l-20.102-20.102c-1.1992-1.1992-1.1992-3.1016 0-4.1992 1.1992-1.1992 3.1016-1.1992 4.1992 0l20.102 20.102c1.1055 1.0977 1.1055 2.9961 0.003907 4.1992zm-87.898-183.6h3.3008c1.8984 32 32.801 41.602 21 80h-7v-24c0-4.3984-3.6016-8-8-8-4.3984 0-8 3.6016-8 8v24h-14.602zm56.5 285.8c-1.1992 1.1992-3.1016 1.1992-4.1992 0-1.1992-1.1992-1.1992-3.1016 0-4.1992l11.199-11.199c1.1016-1.1016 3.1016-1.1016 4.1992 0l31.602 31.602c0.60156 0.60156 0.89844 1.3008 0.89844 2.1016s-0.30078 1.6016-0.89844 2.1016l-17.5 17.5c-0.60156 0.60156-1.3984 0.89844-2.1016 0.89844-0.80078 0-1.5-0.30078-2.1016-0.89844-1.1992-1.1992-1.1992-3.1016 0-4.1992l15.398-15.398-27.398-27.398zm-239.3 114.2h80c4.3984 0 8-3.6016 8-8s-3.6016-8-8-8h-56v-16h157.4c18.602 3.6016 34.602 8.8008 47.301 16h-76.699c-4.3984 0-8 3.6016-8 8s3.6016 8 8 8h81.801c-22.199 13.5-17.898 32.102-30.898 46h-202.9z"/>
  <path d="m176 400h-8c-4.3984 0-8 3.6016-8 8s3.6016 8 8 8h8c4.3984 0 8-3.6016 8-8s-3.6016-8-8-8z"/>
  <path d="m206.8 245.7 31.602-31.602c3.1016-3.1016 3.1016-8.1992 0-11.301l-31.602-31.602c-3.1016-3.1016-8.1992-3.1016-11.301 0l-31.602 31.602c-1.5 1.5-2.3008 3.5-2.3008 5.6992 0 2.1992 0.80078 4.1992 2.3008 5.6992l31.602 31.602c1.5 1.5 3.5 2.3008 5.6992 2.3008 2.1992 0.003906 4.1016-0.89844 5.6016-2.3984zm-26-37.301 20.301-20.301 20.301 20.301-20.301 20.301z"/>
  <path d="m163.9 325.3 14.5 14.5c3.1016 3.1016 8.1992 3.1016 11.301 0 3.1016-3.1016 3.1016-8.1992 0-11.301l-8.8008-8.8008 20.301-20.301 20.301 20.301-25.898 25.898c-3.1016 3.1016-3.1016 8.1992 0 11.301 1.6016 1.6016 3.6016 2.3008 5.6992 2.3008 2.1016 0 4.1016-0.80078 5.6992-2.3008l31.602-31.602c3.1016-3.1016 3.1016-8.1992 0-11.301l-31.602-31.602c-1.5-1.5-3.5-2.3008-5.6992-2.3008s-4.1992 0.80078-5.6992 2.3008l-31.602 31.602c-3.3008 3.1055-3.3008 8.1055-0.10156 11.305z"/>
 </g>
</svg>
