<?xml version="1.0" encoding="UTF-8"?>
<svg width="512pt" height="512pt" version="1.1" viewBox="0 0 512 512" xmlns="http://www.w3.org/2000/svg">
 <g fill="#443f3c">
  <path d="m485.6 480-109.6-273.6v-166.4h-52.801l-24.801-24.801-42.398 8.8008-42.398-8.8008-24.801 24.801h-52.801v166.4l-109.6 273.6h-10.398v16h480v-16zm-17.602 0h-22.398l-86.402-268 2.3984 1.6016zm-164-340v-96.801l8 8v112c-4.8008-6.3984-8-15.199-8-23.199zm24 36.801v-120.8h8v124.8zm10.398 24 90.402 279.2h-23.199l-74.398-283.2zm21.602-6.4023-8-4.8008v-133.6h8zm-72-160.8v105.6c0 18.398 8.8008 35.199 24 45.602l77.602 295.2h-30.398l-29.602-212.8c-1.6016-9.6016-5.6016-18.398-12-25.602l-61.602-69.598-61.602 69.602c-6.3984 7.1992-10.398 16-12 25.602l-29.598 212.8h-30.398l77.598-293.6c15.199-10.398 24-28 24-46.398v-106.4l32 6.3984zm-44.801 222.4 12.801-12.801 12.801 12.801-12.801 12.801zm4 26.398c-15.199 0.80078-29.602 5.6016-43.199 12.801l28-28zm32.801-15.199 28 28c-13.602-7.1992-28-11.199-43.199-12.801zm11.199-11.199 9.6016-9.6016 4.8008 5.6016c4 4.8008 7.1992 10.398 8 16.801l1.6016 10.398zm-11.199-11.199-12.801-12.801 11.199-11.199 12 13.602zm-24-24-11.199-11.199 11.199-12.801 11.199 12.801zm-22.398 0 11.199 11.199-12.801 12.801-10.398-10.398zm-27.203 31.199 4.8008-5.6016 9.6016 9.6016-24 24 1.6016-10.398c0.79688-6.4023 3.1992-12.801 7.9961-17.602zm-16 72.801c36.801-35.199 94.398-35.199 131.2 0l21.602 155.2h-174.4zm9.6016-273.6 8-8v96.801c0 8.8008-3.1992 17.602-8 24zm-16 125.6-8 4.8008v-125.6h8zm-4 20-74.398 283.2h-23.199l90.398-279.2zm-20-140.8v133.6l-8 4.8008v-138.4zm-9.6016 157.6 2.3984-1.6016-86.398 268h-22.398z"/>
  <path d="m232 48h16v40h-16z"/>
  <path d="m264 48h16v40h-16z"/>
  <path d="m232 96h16v16h-16z"/>
  <path d="m264 96h16v16h-16z"/>
 </g>
</svg>
