<?xml version="1.0" encoding="UTF-8"?>
<svg width="512pt" height="512pt" version="1.1" viewBox="0 0 512 512" xmlns="http://www.w3.org/2000/svg">
 <g fill="#443f3c">
  <path d="m64 48h16v16h-16z"/>
  <path d="m104 72h16v16h-16z"/>
  <path d="m483.6 187.2c7.6016-3.8008 12.5-11.602 12.398-20.102v-0.60156c0-12.398-10.102-22.5-22.5-22.5l-137.5 0.003906v40h-32v72h-33l-8.6016-40h-24.398l-32-112h-24l-16-56h-23.801l-8-32h-97.301c-11.5 0-20.898 9.3984-20.898 20.898v3.1016c0 7.8984 4.5 15.199 11.602 18.699l1.6992 0.80078c1.6992 0.80078 2.6992 2.5 2.6992 4.3984v83.102l-4.3984 2.1992c-10.301 5.1992-14.5 17.801-9.3984 28.102 2 4.1016 5.3008 7.3008 9.3984 9.3984l1.6992 0.80078c1.6992 0.80078 2.6992 2.5 2.6992 4.3984v67.102l-4.3984 2.1992c-10.301 5.1992-14.5 17.801-9.3984 28.102 2 4.1016 5.3008 7.3008 9.3984 9.3984l1.6992 0.80078c1.6992 0.80078 2.6992 2.5 2.6992 4.3984v67.102l-4.3984 2.1992c-10.301 5.1992-14.5 17.801-9.3984 28.102 2 4.1016 5.3008 7.3008 9.3984 9.3984l1.6992 0.80078c1.6992 0.80078 2.6992 2.5 2.6992 4.3984v64h-16v16h480v-16h-16v-64c0-1.8984 1.1016-3.6016 2.6992-4.3984l1.6992-0.80078c10.301-5.1992 14.5-17.801 9.3984-28.102-2-4.1016-5.3008-7.3008-9.3984-9.3984l-4.3984-2.1992v-67c0-1.8984 1.1016-3.6016 2.6992-4.3984l1.6992-0.80078c10.301-5.1992 14.5-17.801 9.3984-28.102-2-4.1016-5.3008-7.3008-9.3984-9.3984l-4.3984-2.1992v-66.102c0-2.5 1.3984-4.8008 3.6016-5.8008zm-451.6-150.3c0-2.6992 2.1992-4.8984 4.8984-4.8984h84.801l8 32h24.301l16 56h24l6.8984 24h-152.9v-80c0-7.8984-4.5-15.199-11.602-18.699l-1.6992-0.80078c-1.5977-0.89844-2.6992-2.6016-2.6992-4.5zm2.6992 126.7 7.1992-3.6016h163.5l20.602 72h23.602l5.1016 24h-78.703v-48c0-13.301-10.699-24-24-24s-24 10.699-24 24v48h-16v-48c0-13.301-10.699-24-24-24s-24 10.699-24 24v48h-16v-64c0-7.8984-4.5-15.199-11.602-18.699l-1.6992-0.80078c-2.3984-1.1992-3.3984-4.1992-2.1992-6.6016 0.5-1.0977 1.3008-1.7969 2.1992-2.2969zm125.3 44.398v48h-16v-48c0-4.3984 3.6016-8 8-8s8 3.6016 8 8zm-64 0v48h-16v-48c0-4.3984 3.6016-8 8-8s8 3.6016 8 8zm-61.301 67.602 7.1992-3.6016h216.2l15.398 72h24.301l6.3008 24h-64.098v-48c0-13.301-10.699-24-24-24s-24 10.699-24 24v48h-16v-48c0-13.301-10.699-24-24-24s-24 10.699-24 24v48h-16v-48c0-13.301-10.699-24-24-24s-24 10.699-24 24v48h-16v-64c0-7.8984-4.5-15.199-11.602-18.699l-1.6992-0.80078c-2.3984-1.1992-3.3984-4.1992-2.1992-6.6016 0.5-1.0977 1.3008-1.7969 2.1992-2.2969zm189.3 44.398v48h-16v-48c0-4.3984 3.6016-8 8-8s8 3.6016 8 8zm-64 0v48h-16v-48c0-4.3984 3.6016-8 8-8s8 3.6016 8 8zm-64 0v48h-16v-48c0-4.3984 3.6016-8 8-8s8 3.6016 8 8zm0 160h-16v-48c0-4.3984 3.6016-8 8-8s8 3.6016 8 8zm64 0h-16v-48c0-4.3984 3.6016-8 8-8s8 3.6016 8 8zm64 0h-16v-48c0-4.3984 3.6016-8 8-8s8 3.6016 8 8zm64 0h-16v-48c0-4.3984 3.6016-8 8-8s8 3.6016 8 8zm16 0v-48c0-13.301-10.699-24-24-24s-24 10.699-24 24v48h-16v-48c0-13.301-10.699-24-24-24s-24 10.699-24 24v48h-16v-48c0-13.301-10.699-24-24-24s-24 10.699-24 24v48h-16v-48c0-13.301-10.699-24-24-24s-24 10.699-24 24v48h-16v-64c0-7.8984-4.5-15.199-11.602-18.699l-1.6992-0.80078c-2.3984-1.1992-3.3984-4.1992-2.1992-6.6016 0.5-1 1.3008-1.6992 2.1992-2.1992l7.1992-3.6016h266.5l25.301 96-29.699 0.003906zm128 0h-16v-48c0-4.3984 3.6016-8 8-8s8 3.6016 8 8zm45.301-83.602-1.6992 0.80078c-7.1016 3.5-11.602 10.801-11.602 18.699v64h-16v-48c0-13.301-10.699-24-24-24s-24 10.699-24 24v48h-49.801l-25.301-96h145.2l7.1992 3.6016c2.3984 1.1992 3.3984 4.1992 2.1992 6.6016-0.49609 1.0977-1.2969 1.7969-2.1953 2.2969zm-125.3-28.398v-48c0-4.3984 3.6016-8 8-8s8 3.6016 8 8v48zm64 0v-48c0-4.3984 3.6016-8 8-8s8 3.6016 8 8v48zm61.301-83.602-1.6992 0.80078c-7.1016 3.5-11.602 10.801-11.602 18.699v64h-16v-48c0-13.301-10.699-24-24-24s-24 10.699-24 24v48h-16v-48c0-13.301-10.699-24-24-24s-24 10.699-24 24v48h-15.301l-10.5-40h-23.699l-12-56h195.6l7.1992 3.6016c2.3984 1.1992 3.3984 4.1992 2.1992 6.6016-0.5 1.0977-1.3008 1.7969-2.1992 2.2969zm-61.301-28.398v-48c0-4.3984 3.6016-8 8-8s8 3.6016 8 8v48zm60.398-83.199c-7.6016 3.8008-12.5 11.602-12.398 20.102v63.098h-16v-48c0-13.301-10.699-24-24-24s-24 10.699-24 24v48h-80v-56h32v-40h121.5c3.6016 0 6.5 2.8984 6.5 6.5v0.60156c0 2.3984-1.3984 4.6992-3.6016 5.6992z"/>
  <path d="m72 96h16v16h-16z"/>
  <path d="m120 112h16v16h-16z"/>
  <path d="m368 176h16v16h-16z"/>
  <path d="m352 224h16v16h-16z"/>
 </g>
</svg>
