<?xml version="1.0" encoding="UTF-8"?>
<svg width="512pt" height="512pt" version="1.1" viewBox="0 0 512 512" xmlns="http://www.w3.org/2000/svg">
 <g fill="#443f3c">
  <path d="m484.85 489.62h-457.7c-2.6328 0-4.7695-2.1328-4.7695-4.7695 0-2.6328 2.1328-4.7695 4.7695-4.7695h457.71c2.6328 0 4.7695 2.1328 4.7695 4.7695-0.003906 2.6367-2.1367 4.7695-4.7734 4.7695z"/>
  <path d="m465.78 489.62h-419.56c-2.6328 0-4.7695-2.1328-4.7695-4.7695v-19.07c0-2.6328 2.1328-4.7695 4.7695-4.7695h419.57c2.6328 0 4.7695 2.1328 4.7695 4.7695v19.07c-0.011719 2.6367-2.1484 4.7695-4.7812 4.7695zm-414.79-9.5352h410.02v-9.5352h-410.02z"/>
  <path d="m456.25 470.55h-400.49c-2.6328 0-4.7695-2.1328-4.7695-4.7695v-19.07c0-2.6328 2.1328-4.7695 4.7695-4.7695h400.5c2.6328 0 4.7695 2.1328 4.7695 4.7695v19.07c-0.011719 2.6328-2.1445 4.7695-4.7773 4.7695zm-395.72-9.5391h390.96v-9.5352h-390.96z"/>
  <path d="m93.898 432.41c-2.6328 0-4.7695-2.1328-4.7695-4.7695v-109.65h-9.5352v109.66c0 2.6328-2.1328 4.7695-4.7695 4.7695-2.6328 0-4.7695-2.1328-4.7695-4.7695l0.003906-114.43c0-2.6328 2.1328-4.7695 4.7695-4.7695h19.07c2.6328 0 4.7695 2.1328 4.7695 4.7695v114.43c0 2.625-2.1328 4.7578-4.7695 4.7578z"/>
  <path d="m151.11 432.41c-2.6328 0-4.7695-2.1328-4.7695-4.7695v-109.65h-9.5352v109.66c0 2.6328-2.1328 4.7695-4.7695 4.7695-2.6328 0-4.7695-2.1328-4.7695-4.7695l0.003906-114.43c0-2.6328 2.1328-4.7695 4.7695-4.7695h19.07c2.6328 0 4.7695 2.1328 4.7695 4.7695v114.43c-0.003906 2.625-2.1367 4.7578-4.7695 4.7578z"/>
  <path d="m379.97 432.41c-2.6328 0-4.7695-2.1328-4.7695-4.7695v-109.65h-9.5352v109.66c0 2.6328-2.1328 4.7695-4.7695 4.7695-2.6328 0-4.7695-2.1328-4.7695-4.7695l0.003906-114.43c0-2.6328 2.1328-4.7695 4.7695-4.7695h19.07c2.6328 0 4.7695 2.1328 4.7695 4.7695v114.43c-0.003906 2.625-2.1367 4.7578-4.7695 4.7578z"/>
  <path d="m103.43 317.98h-38.145c-2.6328 0-4.7695-2.1328-4.7695-4.7695v-19.07c0-2.6328 2.1328-4.7695 4.7695-4.7695h38.145c2.6328 0 4.7695 2.1328 4.7695 4.7695v19.07c-0.011719 2.6367-2.1328 4.7695-4.7695 4.7695zm-33.375-9.5352h28.609v-9.5352l-28.609-0.003906z"/>
  <path d="m160.64 317.98h-38.145c-2.6328 0-4.7695-2.1328-4.7695-4.7695v-19.07c0-2.6328 2.1328-4.7695 4.7695-4.7695h38.145c2.6328 0 4.7695 2.1328 4.7695 4.7695v19.07c-0.003906 2.6367-2.1367 4.7695-4.7695 4.7695zm-33.375-9.5352h28.609v-9.5352h-28.609z"/>
  <path d="m93.898 251.23c-2.6328 0-4.7695-2.1328-4.7695-4.7695v-90.594l-9.5352 0.003906v90.594c0 2.6328-2.1328 4.7695-4.7695 4.7695-2.6328 0-4.7695-2.1328-4.7695-4.7695v-95.359c0-2.6328 2.1328-4.7695 4.7695-4.7695h19.07c2.6328 0 4.7695 2.1328 4.7695 4.7695v95.359c0.003907 2.6328-2.1289 4.7656-4.7656 4.7656z"/>
  <path d="m217.86 432.41c-2.6328 0-4.7695-2.1328-4.7695-4.7695l0.003906-109.65h-9.5352v109.66c0 2.6328-2.1328 4.7695-4.7695 4.7695-2.6328 0-4.7695-2.1328-4.7695-4.7695v-114.43c0-2.6328 2.1328-4.7695 4.7695-4.7695h19.07c2.6328 0 4.7695 2.1328 4.7695 4.7695v114.43c0 2.625-2.1328 4.7578-4.7695 4.7578z"/>
  <path d="m322.75 432.41c-2.6328 0-4.7695-2.1328-4.7695-4.7695v-109.65h-9.5352v109.66c0 2.6328-2.1328 4.7695-4.7695 4.7695-2.6328 0-4.7695-2.1328-4.7695-4.7695v-114.43c0-2.6328 2.1328-4.7695 4.7695-4.7695h19.07c2.6328 0 4.7695 2.1328 4.7695 4.7695v114.43c0 2.625-2.1328 4.7578-4.7656 4.7578z"/>
  <path d="m227.39 317.98h-38.145c-2.6328 0-4.7695-2.1328-4.7695-4.7695v-19.07c0-2.6328 2.1328-4.7695 4.7695-4.7695h38.145c2.6328 0 4.7695 2.1328 4.7695 4.7695v19.07c0 2.6367-2.1328 4.7695-4.7695 4.7695zm-33.375-9.5352h28.609v-9.5352h-28.609z"/>
  <path d="m332.29 317.98h-38.145c-2.6328 0-4.7695-2.1328-4.7695-4.7695v-19.07c0-2.6328 2.1328-4.7695 4.7695-4.7695h38.145c2.6328 0 4.7695 2.1328 4.7695 4.7695v19.07c-0.003906 2.6367-2.1367 4.7695-4.7695 4.7695zm-33.379-9.5352h28.609v-9.5352h-28.609z"/>
  <path d="m389.5 317.98h-38.145c-2.6328 0-4.7695-2.1328-4.7695-4.7695v-19.07c0-2.6328 2.1328-4.7695 4.7695-4.7695h38.145c2.6328 0 4.7695 2.1328 4.7695 4.7695v19.07c0 2.6367-2.1367 4.7695-4.7695 4.7695zm-33.375-9.5352h28.609v-9.5352h-28.609z"/>
  <path d="m446.71 317.98h-38.145c-2.6328 0-4.7695-2.1328-4.7695-4.7695v-19.07c0-2.6328 2.1328-4.7695 4.7695-4.7695h38.145c2.6328 0 4.7695 2.1328 4.7695 4.7695v19.07c-0.003907 2.6367-2.1367 4.7695-4.7695 4.7695zm-33.379-9.5352h28.609v-9.5352l-28.609-0.003906z"/>
  <path d="m437.17 432.41c-2.6328 0-4.7695-2.1328-4.7695-4.7695l0.003906-109.65h-9.5352v109.66c0 2.6328-2.1328 4.7695-4.7695 4.7695-2.6328 0-4.7695-2.1328-4.7695-4.7695v-114.43c0-2.6328 2.1328-4.7695 4.7695-4.7695h19.07c2.6328 0 4.7695 2.1328 4.7695 4.7695v114.43c0 2.625-2.1328 4.7578-4.7695 4.7578z"/>
  <path d="m389.5 298.91h-267.01c-2.6328 0-4.7695-2.1328-4.7695-4.7695v-38.141c0-2.6328 2.1328-4.7695 4.7695-4.7695h267c2.6328 0 4.7695 2.1328 4.7695 4.7695v38.145c0.011719 2.6328-2.125 4.7656-4.7578 4.7656zm-262.24-9.5352h257.46v-28.609l-257.46 0.003906z"/>
  <path d="m122.5 298.91h-57.207c-2.6328 0-4.7695-2.1328-4.7695-4.7695v-28.609c0-2.6328 2.1328-4.7695 4.7695-4.7695h38.145c2.6328 0 4.7695 2.1328 4.7695 4.7695 0 2.6328-2.1328 4.7695-4.7695 4.7695l-33.375 0.003907v19.07h52.449c2.6328 0 4.7695 2.1328 4.7695 4.7695-0.011719 2.6328-2.1367 4.7656-4.7812 4.7656z"/>
  <path d="m446.71 298.91h-57.215c-2.6328 0-4.7695-2.1328-4.7695-4.7695 0-2.6328 2.1328-4.7695 4.7695-4.7695h52.449v-19.07h-33.375c-2.6328 0-4.7695-2.1328-4.7695-4.7695 0-2.6328 2.1328-4.7695 4.7695-4.7695h38.145c2.6328 0 4.7695 2.1328 4.7695 4.7695v28.609c-0.007813 2.6367-2.1406 4.7695-4.7734 4.7695z"/>
  <path d="m389.5 260.77h-267.01c-2.3164 0-4.2969-1.6641-4.6914-3.957-0.40625-2.2812 0.90625-4.5117 3.0938-5.3008l133.5-47.68c1.0234-0.375 2.1758-0.375 3.1992 0l133.5 47.68c2.1875 0.77734 3.4883 3.0195 3.0938 5.3008-0.39844 2.293-2.3789 3.957-4.6953 3.957zm-239.48-9.5391h211.95l-105.97-37.844z"/>
  <path d="m132.03 241.7c-2.6328 0-4.7695-2.1328-4.7695-4.7695v-85.824c0-2.6328 2.1328-4.7695 4.7695-4.7695h19.07c2.6328 0 4.7695 2.1328 4.7695 4.7695v76.289c0 2.6328-2.1328 4.7695-4.7695 4.7695-2.6328 0-4.7695-2.1328-4.7695-4.7695v-71.52h-9.5352v81.055c0.003906 2.6367-2.1289 4.7695-4.7656 4.7695z"/>
  <path d="m160.64 155.87h-95.359c-2.6328 0-4.7695-2.1328-4.7695-4.7695v-19.07c0-2.6328 2.1328-4.7695 4.7695-4.7695h95.359c2.6328 0 4.7695 2.1328 4.7695 4.7695v19.07c-0.003906 2.6367-2.1367 4.7695-4.7695 4.7695zm-90.582-9.5352h85.824v-9.5352h-85.824z"/>
  <path d="m160.64 136.8h-95.359c-2.6328 0-4.7695-2.1328-4.7695-4.7695v-28.598c0-1.9414 1.1836-3.7031 2.9961-4.4258l95.359-38.145c1.4492-0.60938 3.125-0.40625 4.4375 0.48047s2.0898 2.3672 2.0898 3.9453v66.754c0.011719 2.625-2.1211 4.7578-4.7539 4.7578zm-90.582-9.5352h85.824v-54.934l-85.824 34.324z"/>
  <path d="m65.289 127.27c-0.9375 0-1.8672-0.27734-2.6758-0.82031-1.3125-0.88672-2.0898-2.3672-2.0898-3.9453v-19.066c0-1.9414 1.1836-3.7031 2.9961-4.4258l95.359-38.145c1.4492-0.60938 3.125-0.40625 4.4375 0.48047s2.0898 2.3672 2.0898 3.9453v19.07c0 1.9414-1.1836 3.7031-2.9961 4.4258l-95.359 38.145c-0.56641 0.22656-1.1641 0.33594-1.7617 0.33594zm4.7695-20.609v8.8008l85.824-34.336v-8.7891z"/>
  <path d="m437.17 251.23c-2.6328 0-4.7695-2.1328-4.7695-4.7695v-90.594h-9.5352v90.594c0 2.6328-2.1328 4.7695-4.7695 4.7695-2.6328 0-4.7695-2.1328-4.7695-4.7695v-95.359c0-2.6328 2.1328-4.7695 4.7695-4.7695h19.07c2.6328 0 4.7695 2.1328 4.7695 4.7695v95.359c0.003906 2.6367-2.1289 4.7695-4.7656 4.7695z"/>
  <path d="m379.97 241.7c-2.6328 0-4.7695-2.1328-4.7695-4.7695v-81.055h-9.5352v71.52c0 2.6328-2.1328 4.7695-4.7695 4.7695-2.6328 0-4.7695-2.1328-4.7695-4.7695v-76.289c0-2.6328 2.1328-4.7695 4.7695-4.7695h19.07c2.6328 0 4.7695 2.1328 4.7695 4.7695v85.824c0 2.6367-2.1328 4.7695-4.7656 4.7695z"/>
  <path d="m446.71 155.87h-95.359c-2.6328 0-4.7695-2.1328-4.7695-4.7695v-19.07c0-2.6328 2.1328-4.7695 4.7695-4.7695h95.359c2.6328 0 4.7695 2.1328 4.7695 4.7695v19.07c-0.003907 2.6367-2.1367 4.7695-4.7695 4.7695zm-90.582-9.5352h85.824v-9.5352h-85.824z"/>
  <path d="m446.71 136.8h-95.359c-2.6328 0-4.7695-2.1328-4.7695-4.7695v-66.742c0-1.5781 0.77734-3.0625 2.0898-3.9453 1.3008-0.88672 2.9648-1.0664 4.4375-0.48047l95.359 38.145c1.8125 0.71484 2.9961 2.4766 2.9961 4.4258v28.609c0.011718 2.625-2.1211 4.7578-4.7539 4.7578zm-90.582-9.5352h85.824v-20.609l-85.824-34.336z"/>
  <path d="m446.71 127.27c-0.59766 0-1.207-0.10547-1.7695-0.33984l-95.359-38.145c-1.8125-0.71484-2.9961-2.4766-2.9961-4.4258l-0.003907-19.066c0-1.5781 0.77734-3.0625 2.0898-3.9453 1.3008-0.88672 2.9648-1.0664 4.4375-0.48047l95.359 38.145c1.8125 0.71484 2.9961 2.4766 2.9961 4.4258v19.07c0 1.5781-0.77734 3.0625-2.0898 3.9453-0.78906 0.53906-1.7148 0.81641-2.6641 0.81641zm-90.582-46.137 85.824 34.336v-8.8086l-85.824-34.336z"/>
  <path d="m208.32 213.09c-2.6328 0-4.7695-2.1328-4.7695-4.7695v-57.215c0-2.6328 2.1328-4.7695 4.7695-4.7695h19.07c2.6328 0 4.7695 2.1328 4.7695 4.7695v47.68c0 2.6328-2.1328 4.7695-4.7695 4.7695-2.6328 0-4.7695-2.1328-4.7695-4.7695v-42.91h-9.5352v52.449c0.003906 2.6289-2.1328 4.7656-4.7656 4.7656z"/>
  <path d="m303.68 213.09c-2.6328 0-4.7695-2.1328-4.7695-4.7695v-52.449h-9.5352v42.91c0 2.6328-2.1328 4.7695-4.7695 4.7695-2.6328 0-4.7695-2.1328-4.7695-4.7695v-47.68c0-2.6328 2.1328-4.7695 4.7695-4.7695h19.07c2.6328 0 4.7695 2.1328 4.7695 4.7695v57.215c0.003907 2.6367-2.1289 4.7734-4.7656 4.7734z"/>
  <path d="m303.68 127.27h-95.359c-18.398 0-33.375-14.977-33.375-33.375 0-2.6328 2.1328-4.7695 4.7695-4.7695h19.07c2.6328 0 4.7695 2.1328 4.7695 4.7695 0 2.625 2.1445 4.7695 4.7695 4.7695s4.7695-2.1445 4.7695-4.7695c0-2.6328 2.1328-4.7695 4.7695-4.7695h28.609c2.6328 0 4.7695 2.1328 4.7695 4.7695 0 2.625 2.1445 4.7695 4.7695 4.7695s4.7695-2.1445 4.7695-4.7695c0-2.6328 2.1328-4.7695 4.7695-4.7695h28.609c2.6328 0 4.7695 2.1328 4.7695 4.7695 0 2.625 2.1445 4.7695 4.7695 4.7695s4.7695-2.1445 4.7695-4.7695c0-2.6328 2.1328-4.7695 4.7695-4.7695h19.07c2.6328 0 4.7695 2.1328 4.7695 4.7695-0.023437 18.406-15 33.375-33.398 33.375zm-118.72-28.598c2.2188 10.871 11.852 19.07 23.359 19.07h95.359c11.508 0 21.152-8.2031 23.359-19.07h-9.8789c-1.9609 5.5469-7.2656 9.5352-13.484 9.5352s-11.52-3.9883-13.484-9.5352h-20.715c-1.957 5.5469-7.2578 9.5234-13.477 9.5234s-11.52-3.9766-13.484-9.5234h-20.715c-1.9609 5.5469-7.2656 9.5352-13.484 9.5352s-11.52-3.9883-13.484-9.5352z"/>
  <path d="m284.61 98.668c-1.5352 0-3.0391-0.74609-3.9688-2.1211l-19.07-28.609c-1.2578-1.8867-1.0117-4.4062 0.59766-6.0156l10.934-10.934h-34.199l10.934 10.934c1.6094 1.6094 1.8555 4.1289 0.59766 6.0156l-19.074 28.598c-1.4727 2.1875-4.4375 2.7617-6.6133 1.3242-2.1875-1.4609-2.7852-4.4258-1.3242-6.6133l16.906-25.355-16.309-16.309c-1.3555-1.3555-1.7695-3.4141-1.0352-5.1953s2.4766-2.9453 4.4062-2.9453h57.215c1.9297 0 3.668 1.1641 4.4062 2.9453 0.73438 1.7812 0.33203 3.8398-1.0352 5.1953l-16.309 16.309 16.906 25.355c1.4609 2.1875 0.86328 5.1523-1.3242 6.6133-0.80859 0.53906-1.7344 0.80859-2.6406 0.80859z"/>
  <path d="m317.98 155.87h-123.97c-10.516 0-19.07-8.5547-19.07-19.07s8.5547-19.07 19.07-19.07h123.97c10.516 0 19.07 8.5547 19.07 19.07s-8.5625 19.07-19.07 19.07zm-123.97-28.605c-5.2578 0-9.5352 4.2773-9.5352 9.5352 0 5.2578 4.2773 9.5352 9.5352 9.5352h123.97c5.2578 0 9.5352-4.2773 9.5352-9.5352 0-5.2578-4.2773-9.5352-9.5352-9.5352z"/>
  <path d="m256 155.87c-1.2148 0-2.4414-0.46875-3.3711-1.3984l-28.609-28.605c-1.3555-1.3555-1.7695-3.4141-1.0352-5.1953s2.4766-2.9453 4.4062-2.9453h57.215c1.9297 0 3.668 1.1641 4.4062 2.9453 0.73438 1.7812 0.33203 3.8398-1.0352 5.1953l-28.609 28.609c-0.92578 0.9375-2.1523 1.3945-3.3672 1.3945zm-17.098-28.605 17.098 17.098 17.098-17.098z"/>
  <path d="m246.46 50.988c-2.6328 0-4.7695-2.1328-4.7695-4.7695v-19.07c0-2.6328 2.1328-4.7695 4.7695-4.7695 2.6328 0 4.7695 2.1328 4.7695 4.7695v19.07c-0.003906 2.6328-2.1367 4.7695-4.7695 4.7695z"/>
  <path d="m265.54 50.988c-2.6328 0-4.7695-2.1328-4.7695-4.7695l0.003906-19.07c0-2.6328 2.1328-4.7695 4.7695-4.7695 2.6328 0 4.7695 2.1328 4.7695 4.7695v19.07c-0.003906 2.6328-2.1367 4.7695-4.7734 4.7695z"/>
  <path d="m275.07 70.059h-38.145c-2.6328 0-4.7695-2.1328-4.7695-4.7695 0-2.6328 2.1328-4.7695 4.7695-4.7695h38.145c2.6328 0 4.7695 2.1328 4.7695 4.7695 0 2.6367-2.1328 4.7695-4.7695 4.7695z"/>
  <path d="m265.54 216.5c-0.54297 0-1.0781-0.097656-1.6016-0.27734l-7.9336-2.8359-7.9375 2.8281c-1.4414 0.53516-3.0625 0.29688-4.3516-0.58594-1.2695-0.89453-2.0156-2.3477-2.0156-3.9023v-32.012c0-7.8828 6.4219-14.305 14.305-14.305s14.305 6.4219 14.305 14.305v32.012c0 1.5586-0.75781 3.0078-2.0156 3.9023-0.82422 0.57422-1.7812 0.87109-2.7539 0.87109zm-9.5352-12.949c0.54297 0 1.0898 0.097657 1.6016 0.27734l3.168 1.1289v-25.246c0-2.625-2.1445-4.7695-4.7695-4.7695s-4.7695 2.1445-4.7695 4.7695v25.246l3.168-1.1289c0.51172-0.17969 1.0586-0.27734 1.6016-0.27734z"/>
  <path d="m217.86 79.594h-57.215c-2.6328 0-4.7695-2.1328-4.7695-4.7695 0-2.6328 2.1328-4.7695 4.7695-4.7695h57.215c2.6328 0 4.7695 2.1328 4.7695 4.7695s-2.1328 4.7695-4.7695 4.7695z"/>
  <path d="m351.36 79.594h-57.215c-2.6328 0-4.7695-2.1328-4.7695-4.7695 0-2.6328 2.1328-4.7695 4.7695-4.7695h57.215c2.6328 0 4.7695 2.1328 4.7695 4.7695s-2.1328 4.7695-4.7695 4.7695z"/>
  <path d="m36.684 432.41c-2.6328 0-4.7695-2.1328-4.7695-4.7695v-228.85c0-1.2695 0.5-2.4766 1.3984-3.3711l8.1367-8.1367v-17.098c0-1.2695 0.5-2.4766 1.3984-3.3711l9.5352-9.5352c1.8672-1.8672 4.875-1.8672 6.7422 0 1.8672 1.8672 1.8672 4.875 0 6.7422l-8.1367 8.1328v17.098c0 1.2695-0.5 2.4766-1.3984 3.3711l-8.1367 8.1367v226.88c-0.003906 2.6406-2.1367 4.7734-4.7695 4.7734z"/>
  <path d="m475.32 432.41c-2.6328 0-4.7695-2.1328-4.7695-4.7695v-74.316l-8.1367-8.1367c-1.8672-1.8672-1.8672-4.875 0-6.7422l8.1367-8.1367 0.003906-110.48-17.676-17.676c-1.8672-1.8672-1.8672-4.875 0-6.7422 1.8672-1.8672 4.875-1.8672 6.7422 0l19.07 19.07c0.89453 0.89453 1.3984 2.1016 1.3984 3.3711v114.43c0 1.2695-0.5 2.4766-1.3984 3.3711l-6.1641 6.1641 6.1641 6.1641c0.89453 0.89453 1.3984 2.1016 1.3984 3.3711v76.289c0 2.6289-2.1328 4.7617-4.7695 4.7617z"/>
 </g>
</svg>
