<?xml version="1.0" encoding="UTF-8"?>
<svg width="512pt" height="512pt" version="1.1" viewBox="0 0 512 512" xmlns="http://www.w3.org/2000/svg">
 <g fill="#443f3c">
  <path d="m232 136h48v-56h-48zm16-40h16v24h-16z"/>
  <path d="m496 100.8v-36.801h-96v28l24 16v36h-48v-16h16v-16h-80v-45.602l-24-8v-2.3984h16v-40h-96v40h16v1.6016l-144 40v22.398h-24v24h-40v16h8v4.8008c0 4 1.6016 8 4.8008 11.199l3.1992 3.1992v185.6l-3.1992 3.1992c-3.1992 3.1992-4.8008 7.1992-4.8008 11.199v4.8008h-8v27.199l8 8v60.801h-8v16h480v-16h-8v-60.801l8-8v-27.199h-8v-4.8008c0-4-1.6016-8-4.8008-11.199l-3.1992-3.1992v-185.6l3.1992-3.1992c3.1992-3.1992 4.8008-7.1992 4.8008-11.199v-4.8008h8v-16h-16v-35.199zm-32 83.199v176h-16v-176zm-35.199-8 3.1992 3.1992v185.6l-3.1992 3.1992c-3.1992 3.1992-4.8008 7.1992-4.8008 11.199v4.8008h-8v-4.8008c0-4-1.6016-8-4.8008-11.199l-3.1992-3.1992v-185.6l3.1992-3.1992c3.1992-3.1992 4.8008-7.1992 4.8008-11.199v-4.8008h8v4.8008c0 4 1.6016 8 4.8008 11.199zm51.199 224v4.8008l-3.1992 3.1992h-441.6l-3.1992-3.1992v-4.8008zm-8 56h-432v-32h432zm-424-96v-176h16v176zm35.199 8-3.1992-3.1992v-185.6l3.1992-3.1992c3.1992-3.1992 4.8008-7.1992 4.8008-11.199v-4.8008h8v4.8008c0 4 1.6016 8 4.8008 11.199l3.1992 3.1992v185.6l-3.1992 3.1992c-3.1992 3.1992-4.8008 7.1992-4.8008 11.199v4.8008h-8v-4.8008c0-4-1.6016-8-4.8008-11.199zm284.8 16v-4.8008l3.1992-3.1992h25.602l3.1992 3.1992v4.8008zm24-200v176h-16v-176zm4.8008-16h-25.602l-3.1992-3.1992v-4.8008h32v4.8008zm-40 8 3.1992 3.1992v185.6l-3.1992 3.1992c-3.1992 3.1992-4.8008 7.1992-4.8008 11.199v4.8008h-8v-4.8008c0-4-1.6016-8-4.8008-11.199l-3.1992-3.1992v-185.6l3.1992-3.1992c3.1992-3.1992 4.8008-7.1992 4.8008-11.199v-4.8008h8v4.8008c0 4 1.6016 8 4.8008 11.199zm-36.801 8v176h-16v-176zm-20.801 192h25.602l3.1992 3.1992v4.8008h-32v-4.8008zm28.801-211.2-3.1992 3.1992h-25.602l-3.1992-3.1992v-4.8008h32zm-43.199 11.199 3.1992 3.1992v185.6l-3.1992 3.1992c-3.1992 3.1992-4.8008 7.1992-4.8008 11.199v4.8008h-48v-4.8008c0-4-1.6016-8-4.8008-11.199l-3.1992-3.1992v-185.6l3.1992-3.1992c3.1992-3.1992 4.8008-7.1992 4.8008-11.199v-4.8008h48v4.8008c0 4 1.6016 8 4.8008 11.199zm-76.801 8v176h-16v-176zm-20.801 192h25.602l3.1992 3.1992v4.8008h-32v-4.8008zm28.801-211.2-3.1992 3.1992h-25.602l-3.1992-3.1992v-4.8008h32zm-43.199 11.199 3.1992 3.1992v185.6l-3.1992 3.1992c-3.1992 3.1992-4.8008 7.1992-4.8008 11.199v4.8008h-8v-4.8008c0-4-1.6016-8-4.8008-11.199l-3.1992-3.1992v-185.6l3.1992-3.1992c3.1992-3.1992 4.8008-7.1992 4.8008-11.199v-4.8008h8v4.8008c0 4 1.6016 8 4.8008 11.199zm-36.801 8v176h-16v-176zm-20.801 192h25.602l3.1992 3.1992v4.8008h-32v-4.8008zm28.801-211.2-3.1992 3.1992h-25.602l-3.1992-3.1992v-4.8008h32zm80-132.8h64v8h-16v16h-32v-16h-16zm-152 104h24v-25.602l136.8-38.398h45.602l17.598 5.6016v50.398h64v16h-288zm0 24v4.8008l-3.1992 3.1992h-25.602l-3.1992-3.1992v-4.8008zm-32 219.2 3.1992-3.1992h25.602l3.1992 3.1992v4.8008h-32zm0 100.8v-8h432v8zm400-96v-4.8008l3.1992-3.1992h25.602l3.1992 3.1992v4.8008zm32-219.2-3.1992 3.1992h-25.602l-3.1992-3.1992v-4.8008h32zm-32-20.801v-44l-24-16v-4h64v11.199l-16 8v44.801z"/>
 </g>
</svg>
