<?xml version="1.0" encoding="UTF-8"?>
<svg width="512pt" height="512pt" version="1.1" viewBox="0 0 512 512" xmlns="http://www.w3.org/2000/svg">
 <path d="m63.777 59.316h84.738v21.309h242.62v35.516h18.73v-35.516h28.543v-14.203h56.195v20.449h-7.1367v251.29l14.273 14.207v65.656h7.1367v34.656h-159.67v-34.656h7.1367v-169.61l-15.145-15.074h15.117c-0.76953-42.668-17.301-68.031-37.48-82.602-20.836-15.051-45.934-18.855-62.625-17.707l-0.21484 0.011719-0.21484-0.011719c-16.691-1.1484-41.789 2.6562-62.625 17.707-20.18 14.57-36.711 39.934-37.48 82.602h15.117l-15.145 15.074v169.61h7.1367v34.656h-159.67v-34.656h7.1367v-65.656l14.273-14.207v-257.54h39.246zm6.2422 21.309h35.68v35.516h15.164v-35.516h21.41v-15.062h-72.254zm85.633 158.98 0.019531-0.019531h-0.019531zm200.7-0.019531h-0.019531l0.019531 0.019531zm124.88-152.72h-65.113v35.516h-31.223v-35.516h-257.78v35.516h-27.652v-35.516h-68.684v253.89l-14.273 14.207v69.305h-7.1328v22.168h147.18v-22.168h-7.1367v-187.8c0-46.363 17.652-74.574 40.098-90.785 22.188-16.027 48.699-20.066 66.496-18.891 17.797-1.1758 44.309 2.8633 66.496 18.891 22.445 16.211 40.098 44.422 40.098 90.785v187.8h-7.1367v22.168h147.18v-22.168h-7.1367v-69.305l-14.27-14.207zm-36.57-6.2461h43.707v-7.9609h-43.707zm-388.02 120.75h45.492v141.21h-45.492zm6.2461 6.2461v128.71h33v-128.71zm346.98-6.2461h45.492v141.21h-45.492zm6.2461 6.2461v128.71h33v-128.71z" fill="#443f3c" fill-rule="evenodd"/>
</svg>
