<?xml version="1.0" encoding="UTF-8"?>
<svg width="512pt" height="512pt" version="1.1" viewBox="0 0 512 512" xmlns="http://www.w3.org/2000/svg">
 <g fill="#443f3c">
  <path d="m196.91 143.96c-10.277-0.83203-19.977 0.35938-28.816 3.5391-2.1133 0.76172-3.207 3.0898-2.4453 5.1992 0.59766 1.6562 2.1602 2.6875 3.8242 2.6875 0.45703 0 0.92188-0.078125 1.375-0.24219 7.7422-2.7852 16.293-3.8281 25.41-3.0859 2.207 0.17969 4.1992-1.4844 4.3789-3.7227 0.17578-2.2305-1.4883-4.1914-3.7266-4.375z"/>
  <path d="m289.79 215.63-23.223-5.4102c-2.1797-0.51172-4.3711 0.84766-4.8789 3.0352-0.50781 2.1836 0.85156 4.3711 3.0352 4.8789l23.223 5.4102c0.30859 0.070312 0.62109 0.10547 0.92578 0.10547 1.8477 0 3.5156-1.2656 3.9531-3.1445 0.51172-2.1797-0.84766-4.3672-3.0352-4.875z"/>
  <path d="m287.67 234.84-17.812-3.5625c-2.2031-0.44531-4.3398 0.98828-4.7812 3.1875-0.44141 2.1992 0.98828 4.3398 3.1875 4.7812l17.812 3.5625c0.26953 0.054687 0.53516 0.082031 0.80078 0.082031 1.8984 0 3.5938-1.3359 3.9805-3.2695 0.44141-2.1992-0.98438-4.3398-3.1875-4.7812z"/>
  <path d="m507.94 474.5h-166.84v-9.293-0.003907-270.8c0-6.0703-1.6914-11.969-4.8945-17.059-5.9336-9.4297-9.332-17.172-9.332-21.234 0-2.1406 0.20703-3.9648 0.64844-5.5195 0.007813-0.035156 0.027344-0.070312 0.035157-0.10547 1.3242-4.5 4.6797-6.7031 10.965-7.6016 3.9258-0.56641 6.625 1.1016 10.035 3.207 3.9531 2.4375 8.8789 5.4727 16.16 4.5977 5.5195-0.66406 9.3086-2.2305 12.355-3.4883 3.7148-1.5352 5.5781-2.3086 8.9375-1.2109 3.1445 1.0234 4.7773 2.8633 6.8516 5.1875 2.3828 2.6797 5.082 5.7109 10.145 7.2812 7.4609 2.3125 26.062 4.4336 35.266-1.1523 7.1328-4.332 6.8789-12.133 6.6953-17.832-0.066406-2.043-0.12891-3.9688 0.14062-5.2891 0.57422-2.832 2.332-6.3672 3.7891-8.9258 0.95703 0.28906 1.9688 0.52344 3.043 0.67188 0.98438 0.14062 1.9297 0.20312 2.8398 0.20312 6.6797 0 11.336-3.4688 14.133-6.5078 3.332 2.9531 8.7461 6.5078 15.523 6.3438 9.0391-0.1875 15.973-3.8203 21.191-11.109 4.4453-6.207 7.5742-20.098 0.18359-30.199-3.6172-4.9414-9-7.8086-13.492-9.4375 1.9844-2.6367 3.6211-6.2773 3.6211-11.125 0-5.4648-2.4805-10.68-6.8008-14.309-4.5664-3.8359-10.746-5.5195-16.543-4.5039-6.3008 1.1055-11.051 4.5938-13.953 7.3633-4.168-4.0586-11.918-10.215-20.547-10.215-7.4805 0-13.668 4.2773-17.582 7.918-2.1914-3.3984-6.0273-7.1289-12.633-8.6797-8.4883-1.9961-15.402 1.7305-19.258 4.6484-3.0586-2.9062-8.3203-6.7773-15.074-7.4375-1.75-5.3867-6.5469-15.73-17.977-17.84-9.4922-1.7539-16.957 2.3906-21.223 5.75-2.6797-3.3008-7.3867-7.1758-14.996-7.8242-8.5273-0.72656-16.945 4.1719-21.652 7.5625-2.582-3.3086-7.1914-7.2734-14.625-7.7539-7.3516-0.48438-13.254 3.5117-16.922 6.9609-2.3672-3.2422-6.2734-6.7852-12.277-7.5352-6.5859-0.82422-12.605 2.6992-16.504 5.8203-2.082-3.2891-5.7188-6.9375-11.934-8.2852-7.9922-1.7344-15.297 2.8281-19.277 6.0586-3.2695-2.707-9.0273-5.9102-17.121-4.6328-7.9414 1.25-13.605 6.2891-16.738 9.8945-3.2852-2.1992-8.5781-4.3867-15.41-2.6562-6.6328 1.6797-10.453 6.1133-12.527 9.6719-4.2461-2.2969-11.074-4.6836-18.461-2.0625-7.4648 2.6523-10.996 8.4375-12.625 12.59-4.0039-1.0547-10.113-1.8242-15.867 0.80078-5.7656 2.6289-8.8945 7.4023-10.496 10.895-3.8906-0.95703-9.9102-1.543-15.785 1.5-5.2031 2.6914-8.7383 8.8789-9.0078 15.766-0.097656 2.5273 0.25781 4.957 1.0078 7.2031-3.1406-0.14062-6.543 0.21094-9.625 1.625-4.2969 1.9766-6.6641 5.3906-7.9648 8.5547-3.418-2.0625-7.7266-3.3242-12.168-1.7266-4.9102 1.7695-7.4375 5.7383-8.7344 9.1602-3.5742-1.3086-8.0195-1.6758-12.172 0.95703-5.1562 3.2812-6.0156 8.6836-5.5352 12.777-3.6641 2.3594-7.5625 6.7617-6.6953 13.289 0.375 2.8242 1.75 5.1797 3.9766 6.8125 1.7422 1.2812 3.8164 1.9609 5.8008 2.2969-1.0781 3.5078-1.0664 7.6562 1.8633 11.441 3.9336 5.082 10.535 4.8047 15.801 3.1836 1.4922 3.6602 4.6914 7.4844 10.836 8.8789 1.0781 0.24609 2.1328 0.35547 3.1602 0.35547 6.957 0 12.711-5.0742 15.707-8.3555 7.1914 3.3359 16.543 6.6719 26.914 7.8281 16.18 1.8047 25.977 0.22266 33.852-1.0508 3.7344-0.60156 6.9609-1.125 10.133-1.1328h0.09375c9.4609 0 16.078 4.1836 17.758 7.1719 0.55078 0.98047 0.25391 2.2773-0.5625 5-0.80469 2.6992-1.8086 6.0547-1.1719 9.9609 0.89453 5.4727 5.0195 9.0898 8.1133 11.09-1.9766 6.2305-2.0234 11.215-2.0234 11.613v273.54h-146.42c-2.2422 0-4.0625 1.8203-4.0625 4.0625 0 2.2422 1.8203 4.0625 4.0625 4.0625h149.09l15.746 12.258c1.0273 0.79688 2.375 1.0586 3.6211 0.69922 1.25-0.35938 2.25-1.293 2.6953-2.5156l2.8906-7.9336 14.621 11.125c0.73047 0.55469 1.5977 0.82812 2.4609 0.82812 1.0078 0 2.0078-0.37109 2.7891-1.1055l7.6836-7.2383 1.0977 3.9219c0.35547 1.2656 1.2969 2.2812 2.5312 2.7266 1.2344 0.44531 2.6094 0.26562 3.6914-0.48047l13.184-9.1133c0.10156 0.17578 0.20312 0.35156 0.30469 0.52734 2.8711 4.9414 4.1797 7.1953 7.5156 6.0859 0.39844-0.13281 0.60938-0.20312 15.5-8.1367l6.8086 7.4414c1.4102 1.543 3.7578 1.7617 5.4336 0.51172l10.082-7.543 1.9531 3.7695c0.50781 0.98047 1.3906 1.7109 2.4453 2.0273 1.0547 0.3125 2.1953 0.1875 3.1562-0.35547l16.996-9.5703 5.7148 5.9414c1.1641 1.207 2.9531 1.5781 4.5 0.92969l8.8008-3.6875 9.3164 8.0078c1.6094 1.3828 4.0078 1.293 5.5156-0.19922l8.5117-8.4609h169.21c2.2422 0 4.0625-1.8203 4.0625-4.0625 0-2.2422-1.8203-4.0625-4.0625-4.0625zm-122.88-420.07c0.73047 0.98437 1.8633 1.5859 3.0859 1.6367 1.25 0.054688 2.4062-0.44531 3.2188-1.3594 0.0625-0.070312 6.3906-7.0508 14.652-5.1172 7.8398 1.8438 9.2148 8.582 9.2617 8.8242 0.27344 1.6211 1.4961 2.9141 3.0977 3.2852 1.6055 0.36719 3.2656-0.26562 4.2188-1.6016 0.066406-0.09375 7.0312-9.5312 15.496-9.5312 7.2148 0 15.035 7.6914 17.438 10.652 0.80078 0.99609 1.9922 1.5391 3.3047 1.5117 1.2773-0.042969 2.4609-0.6875 3.1914-1.7383 0.042968-0.0625 4.6484-6.4141 11.973-7.6992 3.4531-0.60156 7.1562 0.41016 9.9102 2.7227 2.5156 2.1094 3.8984 4.9844 3.8984 8.0859 0 6.6797-5.5156 9.3203-5.7109 9.4102-1.6758 0.73828-2.6484 2.5078-2.3789 4.3203 0.26953 1.8125 1.7227 3.2227 3.543 3.4375 0.10938 0.011719 11.008 1.3789 15.988 8.1914 5.1406 7.0234 2.332 17.086-0.23438 20.672-3.7734 5.2695-8.1875 7.5781-14.75 7.7148-7.0391 0.16016-12.449-6.875-12.488-6.9336-0.83594-1.1289-2.2109-1.75-3.6016-1.6328-1.4023 0.11328-2.6445 0.94922-3.2852 2.1992-0.039063 0.074219-3.9336 7.5078-11.82 6.4062-8.0742-1.1328-10.922-9.8477-11.035-10.199-0.066406-0.21094-0.15234-0.41406-0.24609-0.60938-0.027344-0.058594-0.0625-0.11328-0.09375-0.17188-0.097656-0.17578-0.20703-0.34375-0.32812-0.50391-0.023437-0.027344-0.039062-0.058594-0.0625-0.089844-0.14844-0.18359-0.32031-0.35156-0.5-0.50781-0.023437-0.019532-0.039062-0.042969-0.0625-0.0625-0.023437-0.019532-0.050781-0.03125-0.074219-0.050782-0.1875-0.14844-0.38281-0.28516-0.59375-0.39844-0.03125-0.015625-0.0625-0.027344-0.089843-0.042969-0.17969-0.089844-0.36719-0.16797-0.5625-0.23047-0.066407-0.019531-0.12891-0.042969-0.19531-0.0625-0.042968-0.011719-0.082031-0.03125-0.12891-0.039062-0.17188-0.042969-0.34375-0.070313-0.51953-0.085938-0.039063-0.003906-0.078125-0.003906-0.11719-0.007812-0.10547-0.007813-0.21094-0.019531-0.31641-0.019531-0.058594 0-0.11719 0.015624-0.17578 0.015624-0.14453 0.007813-0.28906 0.019532-0.4375 0.042969-0.11719 0.019531-0.23047 0.039063-0.34766 0.066407-0.14453 0.035156-0.28516 0.082031-0.42578 0.13281-0.10938 0.039062-0.21484 0.082031-0.32031 0.12891-0.13672 0.0625-0.26562 0.13672-0.39453 0.21484-0.10156 0.0625-0.19922 0.125-0.29687 0.19531-0.11719 0.085938-0.23047 0.18359-0.33984 0.28516-0.058594 0.054687-0.12891 0.09375-0.18359 0.15625-0.054688 0.058593-5.5977 5.6758-11.059 2.4297-5.1641-3.0664-2.3242-10.676-2.207-10.98 0.66797-1.6953 0.12109-3.6211-1.332-4.7227-1.4492-1.1016-3.4648-1.0977-4.9141 0-0.066406 0.046875-6.5586 4.8789-12.566 2.6172-5.1836-1.9492-4.3672-10.242-4.3594-10.309 0.003906-0.03125 0-0.0625 0.003906-0.09375 0.007813-0.085937 0.007813-0.16797 0.007813-0.25 0.003906-0.16406 0.003906-0.32812-0.011719-0.48828-0.007812-0.089844-0.019531-0.17578-0.03125-0.26172-0.027344-0.16406-0.0625-0.32422-0.10938-0.48047-0.019531-0.074218-0.039063-0.14844-0.0625-0.21875-0.078125-0.21875-0.16797-0.42969-0.27734-0.63281-0.003906-0.007813-0.007812-0.015625-0.007812-0.019532-0.11719-0.20703-0.25391-0.40234-0.40625-0.58594-0.046875-0.058594-0.097657-0.10938-0.14844-0.16406-0.11328-0.12109-0.23047-0.23828-0.35547-0.34766-0.066406-0.058594-0.13672-0.10938-0.20703-0.16406-0.12891-0.097656-0.26953-0.1875-0.41016-0.26953-0.070313-0.042968-0.14062-0.085937-0.21875-0.12109-0.03125-0.015625-0.0625-0.039063-0.09375-0.054688-0.19531-0.089843-0.39453-0.16016-0.59375-0.21875h-0.003906c-0.24219-0.066406-0.48828-0.10938-0.73438-0.13281-0.082032-0.007813-0.16406-0.007813-0.24609-0.007813-0.16016-0.003906-0.31641-0.003906-0.47266 0.011719-0.09375 0.007813-0.1875 0.019531-0.28125 0.035156-0.15625 0.023438-0.30469 0.0625-0.45703 0.10156-0.082031 0.023437-0.16016 0.039062-0.23828 0.066406-0.21875 0.078125-0.4375 0.16797-0.64062 0.28125-0.035156 0.019531-0.066406 0.042969-0.097656 0.066406-0.17188 0.10156-0.33594 0.21094-0.48828 0.33984-0.070313 0.054688-0.12891 0.11719-0.19531 0.17969-0.070312 0.066406-0.14844 0.125-0.21875 0.19922-0.070312 0.074219-7.2344 7.5312-14.863 6.7031-0.33594-0.035156-0.64844-0.097656-0.96484-0.16406-0.11328-0.03125-0.23047-0.042969-0.34375-0.066407-6.0273-1.457-8.2461-7.957-8.3359-8.2305-0.38672-1.2188-1.3281-2.1875-2.5391-2.6094-1.207-0.42188-2.5469-0.24609-3.6094 0.46875-2.0234 1.3633-8.8672 4.8086-13.625 2.8477-4.7812-1.9727-4.3789-7.5508-4.3203-8.1484 0.023437-0.19141 0.027344-0.38281 0.019531-0.57422-0.003906-0.058594-0.007813-0.11328-0.011719-0.17188-0.015625-0.19922-0.042968-0.39844-0.085937-0.58984-0.015625-0.070312-0.035157-0.14453-0.054688-0.21484-0.046875-0.16016-0.10156-0.31641-0.16406-0.46875-0.035157-0.082031-0.066407-0.16016-0.10547-0.23828-0.085938-0.16797-0.17969-0.33203-0.28516-0.48828-0.050782-0.074219-0.10938-0.14453-0.16406-0.21875-0.089843-0.11719-0.19141-0.22656-0.29297-0.33594-0.25391-0.25781-0.53906-0.48047-0.85547-0.66406-0.066406-0.039063-0.13281-0.066406-0.19922-0.097656-0.19141-0.097657-0.39062-0.18359-0.59766-0.25-0.10156-0.03125-0.20312-0.058594-0.30469-0.082032-0.09375-0.023437-0.17969-0.058594-0.27734-0.074218-0.089844-0.015626-0.17969-0.007813-0.27344-0.015626-0.12109-0.011718-0.24219-0.019531-0.36719-0.023437-0.17187 0-0.33594 0.015625-0.50391 0.035156-0.09375 0.011719-0.19141 0.003907-0.28516 0.019531-0.0625 0.007813-6.4297 1.1641-9.375-2.4648-1.0625-1.3086-1.3867-2.8438-0.97266-4.5586 0.70312-2.9102 3.3672-5.6367 7.125-7.2852 5.8047-2.5508 14.785 1.0195 17.75 2.6094 0.94922 0.51172 2.0625 0.625 3.0977 0.31641 1.0352-0.3125 1.9023-1.0195 2.4141-1.9688 0.039063-0.074219 4.0352-7.332 12.293-7.9102 8.1641-0.55469 14.301 7.4258 14.352 7.4961zm9.7695 44.84c1.3789 1.5625 3.168 2.8711 5.457 3.7344 4.6211 1.7383 9.1172 1.2148 12.703 0.085938 0.17969 4.5039 1.9141 9.3398 7.0273 12.379 1.9219 1.1406 3.8477 1.7695 5.7227 2.0195l-7.0195 8.4766c-3.1953-3.7695-8.3164-9.0781-13.625-11.555-4.5742-2.1367-9.7969-2.9297-13.641-3.207zm-131.91-2.4922c7.832 0.55859 13.609-2.8984 17.062-5.875 2.8594 3.1055 7.6914 6.668 14.793 6.668 7.3633 0 12.082-4.4609 14.777-8.3086 3.875 3.2305 10.199 6.6016 18.125 4.0156 5.2227-1.7031 8.7461-5.332 11.094-9.0703 1.3789 1.6523 3.207 3.1016 5.6328 4.1016 6.2305 2.5703 12.992 0.50781 17.184-1.4023 1.7031 2.8242 4.582 6.3203 9.0664 8.2969-0.41016 1.7695-1.5547 4.1914-4.6523 6.1523-3.0859 1.9531-11.125 1.4805-18.219 1.0625-7.6172-0.44922-15.496-0.91406-22.074 0.69531-6.4414 1.5742-12.52 4.9922-17.883 8.0078-5.5625 3.125-10.801 6.0781-14.113 5.6289-3.1211-0.42578-4.8281-1.5664-6.9883-3.0039-2.6875-1.793-6.0312-4.0234-12.043-4.5469-4.1367-0.36328-7.5547 0.22656-10.297 0.69922-4.2773 0.73828-5.8672 0.89453-8.0195-1.0547-1.8398-1.6641-2.875-7.9609-3.1016-15.004 2.4531 1.4883 5.6094 2.6484 9.6562 2.9375zm-192.68-22.883c0.15234-3.8906 2.0547-7.5352 4.6211-8.8672 5.9531-3.0781 12.719 0.03125 12.766 0.050781 1.1172 0.53906 2.418 0.52734 3.5391-0.011719 1.1172-0.53906 1.9258-1.5703 2.1992-2.7812 0.015624-0.066406 1.5898-6.8164 7.418-9.4766 5.9844-2.7305 13.402 0.67578 13.461 0.70312 1.1641 0.55859 2.5234 0.51172 3.6641-0.09375s1.9258-1.7305 2.1133-3.0078c0.046874-0.33203 1.2773-8.1289 8.5977-10.73 7.457-2.6523 14.797 3.457 14.855 3.5078 1.0547 0.91016 2.5117 1.2031 3.8477 0.79297 1.332-0.40625 2.3711-1.4883 2.7344-2.8359 0.078125-0.28906 2.0117-7.1289 8.8242-8.8555 6.6367-1.6836 10.777 3.0586 10.926 3.2305 0.83984 1.0234 2.1172 1.5625 3.4453 1.4766 1.3203-0.097656 2.5078-0.83203 3.1875-1.9688 0.050782-0.085938 5.2812-8.4766 13.863-9.8281 7.9609-1.2578 12.25 4.3789 12.406 4.5898 0.71094 1 1.8359 1.625 3.0625 1.6992 1.2344 0.074219 2.418-0.40625 3.2461-1.3125 0.074219-0.082031 7.5898-8.0312 14.699-6.4883 6.7656 1.4648 8.2109 7.7891 8.2617 8.0195 0.30078 1.5195 1.4414 2.7344 2.9375 3.1367 1.5 0.40234 3.0938-0.085938 4.1172-1.25 1.9844-2.2656 8.3477-7.9883 13.836-7.3164 6.1797 0.77344 8.543 7.4883 8.6328 7.75 0.48438 1.4727 1.7617 2.543 3.2969 2.7617 1.5312 0.21875 3.0586-0.46094 3.9297-1.7422 0.058593-0.085937 6.0859-8.6602 13.828-8.1484 7.4648 0.48437 10.203 6.9219 10.301 7.1641 0.48828 1.25 1.5625 2.1797 2.8711 2.4805 1.3086 0.30469 2.6797-0.0625 3.668-0.96875 2.8047-2.582 11.746-9.1406 19.27-8.4922 8.1914 0.69922 10.969 7.2734 11.066 7.5156 0.51953 1.3477 1.7148 2.3164 3.1406 2.5469 1.4219 0.23438 2.8672-0.3125 3.7852-1.4258 0.070313-0.085938 7.207-8.5664 17.441-6.6719 6.2539 1.1562 9.5469 6.7812 11.113 10.703-5.6836 1.7227-9.5586 5.3945-11.754 8.0859-4.8125-1.957-13.965-4.7188-21.57-1.3711-6.1523 2.7031-10.434 7.375-11.75 12.812-1.0156 4.1875-0.10547 8.3008 2.5586 11.59 3.1016 3.8281 7.4414 5.1523 10.996 5.5195-1.4023 3.4414-3.9922 7.7031-8.5195 9.1797-7.4727 2.4336-12.969-5.1172-13.188-5.4219-0.86719-1.2422-2.3555-1.8906-3.8594-1.6953-1.5039 0.19531-2.7734 1.2188-3.2969 2.6406-0.125 0.33984-3.1445 8.3672-10.043 8.3672-7.2188 0-10.629-6.4219-10.758-6.668-0.63672-1.2773-1.9023-2.1133-3.3242-2.2266-1.4219-0.11719-2.8047 0.54297-3.6328 1.7031-0.20703 0.28516-5.1328 7.0391-13.562 6.418-7.8398-0.5625-9.9922-5.9609-10.191-6.5234 0-0.003906-0.003906-0.007812-0.003906-0.011718-0.007812-0.015626-0.015625-0.035157-0.019531-0.050782-0.070313-0.20703-0.16016-0.40234-0.26562-0.59375-0.027344-0.054687-0.058594-0.10547-0.089844-0.15625-0.11328-0.1875-0.23438-0.37109-0.375-0.53906-0.015625-0.015625-0.027344-0.035156-0.042968-0.050782-0.13672-0.16016-0.29297-0.30078-0.45313-0.4375-0.0625-0.050781-0.125-0.10156-0.1875-0.14844-0.13672-0.10156-0.27344-0.19141-0.42187-0.27344-0.089844-0.050782-0.18359-0.097657-0.27734-0.14453-0.14844-0.070312-0.30078-0.13281-0.46094-0.18359-0.09375-0.03125-0.18359-0.058593-0.28125-0.082031-0.042968-0.011719-0.082031-0.027343-0.125-0.035156-0.14062-0.03125-0.28125-0.046875-0.42188-0.0625-0.042969-0.003906-0.078125-0.019531-0.12109-0.023437-0.039063-0.003907-0.078126 0.003906-0.11328 0.003906-0.20703-0.011719-0.41016-0.003906-0.61328 0.015625-0.054687 0.007812-0.10938 0.011719-0.16406 0.019531-0.23828 0.035156-0.47656 0.085938-0.70703 0.16016-0.003906 0-0.007812 0.003906-0.011719 0.003906-0.22656 0.078126-0.44531 0.17578-0.66016 0.29297-0.027344 0.015625-0.054687 0.03125-0.082031 0.046875-0.35156 0.20312-0.68359 0.45703-0.96484 0.76562-0.074219 0.078125-7.5273 8.0312-16.055 7.5703-7.7617-0.44531-11.168-9.4492-11.195-9.5234-0.52734-1.4805-1.8633-2.5195-3.4258-2.6758-1.5586-0.16016-3.0742 0.60547-3.8828 1.9531-0.046876 0.078125-4.7344 7.7305-13.773 6.8555-8.1797-0.79297-9.7148-8.3477-9.8594-9.1797-0.26562-1.6797-1.5547-3.0039-3.2266-3.3398-1.6641-0.33203-3.3789 0.42187-4.2695 1.875-0.14453 0.23437-3.5742 5.6875-10.805 6.2891-6.9922 0.59375-11.453-5.4844-11.621-5.7266-0.88672-1.2773-2.4297-1.9297-3.9609-1.6914-1.5352 0.23828-2.8008 1.3359-3.2578 2.8203-0.023438 0.078125-2.6055 7.9062-9.1445 9.0859-6.5 1.1758-11.328-5.1211-11.363-5.168-0.77344-1.0469-2.0391-1.6797-3.3008-1.6445-1.3008 0.007813-2.5195 0.64453-3.2812 1.6992-0.054687 0.078125-5.4648 7.4922-12.805 7.4922h-0.19531c-7.4062-0.13281-11.547-6.1406-11.703-6.3711-0.62891-0.96094-1.6367-1.6094-2.7734-1.7891-1.1328-0.17969-2.293 0.13672-3.1875 0.85938-0.10547 0.085938-10.66 8.3477-18.215 3.6562-4.6719-2.9102-4.9922-7.8398-4.9141-9.8281zm148.49 46.785c-6.2305 0.66797-17.113 0.75-21.215-5.9414-4.7969-7.8281 1.1836-18.039 3.7305-21.762 5.9609-0.44141 10.406-3.2109 13.34-5.8398 1.4102 2.0234 3.3516 4.2305 5.9023 5.9844-1.6289 3.1523-3.5586 7.8555-3.9219 12.957-0.35938 5.0938 0.96094 10.715 2.1641 14.602zm-54.562-5.1289c-4.2656 3.2734-7.3281 2.2344-13.309-0.23047-2.9453-1.2148-6.2891-2.5898-10.059-3.0898-5.7031-0.75391-9.6367 0.12891-13.07 1.0273 0.64062-3.6914 0.94922-8.3672-0.26953-12.703-0.94531-3.3672-3.2461-5.9648-5.9141-7.9375 2.418-1.3633 4.418-3.0039 5.918-4.457 3.3164 2.8164 8.875 6.0781 15.941 4.8086 6.3477-1.1484 10.359-5.3789 12.703-9.0078 1.8828 1.4844 4.332 2.9727 7.293 3.8633 3.2852 10.023 5.4727 24.113 0.76562 27.727zm-123.86 34.543c-5.3711-1.2188-5.6328-5.6211-5.6289-6.4414 0.042968-1.4492-0.69141-2.8086-1.9258-3.5742-1.2344-0.76562-2.7812-0.8125-4.0625-0.12891-2.4766 1.3242-8.5352 3.4219-10.391 1.0273-2.457-3.1758 1.3789-7.5781 1.5273-7.7422 1.168-1.2852 1.3906-3.168 0.55469-4.6875-0.83594-1.5195-2.5469-2.3398-4.2539-2.0469-1.5156 0.26172-5.4062 0.41406-7.1094-0.83203-0.36719-0.26953-0.63281-0.60156-0.73047-1.3359-0.55078-4.1523 4.1289-6.0117 4.6367-6.1992 1.0195-0.35937 1.8477-1.125 2.3125-2.1016 0.46484-0.97656 0.51562-2.1133 0.15234-3.1328-0.17188-0.48438-1.5938-4.7695 1.4258-6.6875 3.3828-2.1484 7.9297 1.4258 7.9531 1.4453 1.1797 0.96484 2.8047 1.1914 4.2031 0.57812 1.3984-0.61328 2.3359-1.957 2.4297-3.4805 0.003906-0.0625 0.49219-6.3516 4.7227-7.875 4-1.4414 8.7148 4.0156 8.75 4.0547 1.0859 1.3203 2.8828 1.8164 4.4961 1.2461 1.6133-0.57031 2.6914-2.0898 2.707-3.8008 0-0.0625 0.17578-6.457 4.8203-8.5938 4.3242-1.9844 11.141-0.24609 13.82 0.72656 0.046875 0.03125 0.089844 0.0625 0.13672 0.09375 9.1211 5.668 19.273 1.1016 24.359-2 2.4531 2.4297 6.5664 5.5117 12.23 6.5234 0.011719 0.003906 0.019531 0.007813 0.03125 0.011719 3.4883 0.76172 11.047 3.6211 12.168 7.6094 1.1562 4.1172 0.23437 9.0664-0.53125 11.969-0.27344 0-0.54297 0-0.83203-0.011719-3.7461-0.14844-6.9258-1.8672-8.9297-3.2812-3.9375-2.7773-9.1484-2.9609-13.27-0.46094-3.5352 2.1406-5.7148 5.8867-5.8242 10.016-0.11328 4.1641 1.8828 8.0586 5.332 10.414 1.1211 0.76562 2.2422 1.4727 3.3672 2.125-12.934-0.22266-24.559-3.2109-35.164-9-4.6211-2.5195-10.426-1.9297-14.438 1.4727-3.2383 2.7422-4.9102 6.9023-4.4766 11.125 0.36719 3.5781 2.2227 6.7891 5.0469 8.9141-2.5859 2.4141-6.2266 4.832-9.6172 4.0625zm286.82 332.59-8.3711-7.1914c-1.168-1.0039-2.7969-1.2617-4.2188-0.66797l-8.5469 3.5781-5.9648-6.1992c-1.2852-1.332-3.3086-1.6328-4.9219-0.72266l-16.07 9.0508-2.2227-4.2891c-0.54688-1.0625-1.5352-1.8281-2.6992-2.0938-1.1641-0.26953-2.3867-0.007812-3.3438 0.70703l-10.973 8.2109-6.4492-7.0508c-1.2539-1.3711-3.2734-1.7148-4.9102-0.84375-4.3555 2.3203-10.625 5.6562-14.363 7.6289-0.91406-1.5508-2.0469-3.5273-3.0352-5.3008-0.55859-1-1.5117-1.7148-2.6289-1.9727-1.1172-0.25781-2.2891-0.035157-3.2305 0.61719l-12.145 8.3945-1.375-4.9023c-0.38281-1.3711-1.4531-2.4375-2.8242-2.8203s-2.8398-0.019531-3.875 0.95703l-10.062 9.4805-16.27-12.383c-1.0273-0.78516-2.3672-1.0312-3.6055-0.66406-1.2383 0.36328-2.2305 1.293-2.6758 2.5078l-2.8672 7.8711-10.875-8.4688v-17.504c3.207-1.6992 10.016-4.9766 17.852-6.7695 10.848-2.4844 26.172-1.4805 26.324-1.4688 2.2305 0.14844 4.1758-1.543 4.3281-3.7773 0.15234-2.2383-1.5391-4.1758-3.7773-4.3281-0.67578-0.046875-16.66-1.0977-28.691 1.6562-6.3359 1.4492-12.004 3.7344-16.039 5.6172v-13.457c9.3164-4.1094 19.922-6.3164 31.609-6.5156 2.2422-0.039062 4.0312-1.8867 3.9922-4.1328-0.039062-2.2188-1.8477-3.9961-4.0625-3.9961h-0.070312c-11.434 0.19531-21.988 2.1523-31.469 5.8203v-226.75c0-0.14844 0.22266-15.156 11.473-23.586 11.547-8.6523 25.098-7.1367 25.234-7.1211 2.2188 0.27344 4.2461-1.3008 4.5273-3.5195 0.28125-2.2266-1.293-4.2617-3.5195-4.543-0.68359-0.085937-16.867-1.9961-31.117 8.6836-4.2461 3.1797-7.2578 6.9961-9.4102 10.824-1.5195-1.1719-3.0625-2.8008-3.3828-4.7617-0.33594-2.0625 0.28125-4.1328 0.9375-6.3281 0.96094-3.2188 2.1562-7.2227-0.14453-11.312-3.7539-6.668-13.961-11.312-24.848-11.312h-0.11328c-3.8164 0.011718-7.5039 0.60938-11.406 1.2383-7.3867 1.1953-16.574 2.6797-31.652 0.99609-12.191-1.3594-22.945-6.1094-29.824-9.8516-1.375-0.74609-2.2539-2.0703-2.4141-3.6289-0.16016-1.5781 0.4375-3.0703 1.6484-4.0938 1.4688-1.25 3.5977-1.4609 5.2891-0.53906 18.145 9.9023 39.711 12.434 64.113 7.5156 2.0859-0.41797 3.4961-2.3789 3.2305-4.4922-0.26562-2.1133-2.1367-3.6758-4.2422-3.5469-8.7031 0.45312-15.535-1.4727-22.828-6.4492-1.1758-0.80469-1.8281-2.0742-1.7891-3.4805 0.035156-1.375 0.73437-2.5703 1.9141-3.2852 1.3555-0.82422 3.0703-0.76172 4.375 0.15234 4.1602 2.9336 8.7578 4.5781 13.285 4.7617 1.7461 0.066406 3.3203-0.015625 4.7656-0.19141 0.035157-0.003906 0.066407-0.007812 0.097657-0.015624 2.3516-0.29297 4.3633-0.81641 6.2188-1.3086 3.3086-0.875 6.1641-1.6328 10.707-1.0312 2.7188 0.35938 5.2969 1.4219 8.0273 2.5469 5.8711 2.418 13.184 5.4336 21.352-0.83984 9.0859-6.9727 5.6797-24.242 2.9727-33.598 4.625-0.68359 8.1758-2.6289 10.711-4.6406 1.9297 3.2188 5.0039 6.3984 9.5898 8.0703-3.6016 6.3906-7.8086 17.355-1.8047 27.156 5.0703 8.2734 15.086 10.125 23.035 10.125 6.1406 0 11.047-1.1055 11.5-1.207 1.1719-0.27344 2.1602-1.0469 2.7031-2.1172 0.54297-1.0703 0.58594-2.3281 0.11328-3.4336-1.043-2.4492-3.6641-10.043-3.2656-15.703 0.29297-4.1445 2.0977-8.1094 3.4062-10.508 0.59766 0.09375 1.2031 0.16797 1.8398 0.20703 5.9102 0.34375 11.18-1.8398 15.141-4.2695 0.050781 8.0859 1.1172 18.512 5.8516 22.797 5.1953 4.707 10.328 3.8203 14.855 3.0391 2.5156-0.43359 5.1172-0.88281 8.207-0.61328 3.9414 0.34375 5.8359 1.6094 8.2422 3.2148 2.5391 1.6953 5.4219 3.6133 10.395 4.2969 0.58594 0.082031 1.1719 0.11719 1.7656 0.11719 5.4883 0 11.305-3.2695 17.43-6.7148 5.1484-2.8945 10.473-5.8867 15.828-7.1953 5.3906-1.3164 12.648-0.89062 19.668-0.47656 9.1211 0.53906 17.742 1.0469 23.043-2.3086 5.4961-3.4766 7.543-8.0508 8.2656-11.496 3.3359-0.089843 6.4297-1.0156 9.125-2.2578l-5.5391 19.578c-0.35938 1.2656-0.082031 2.625 0.74219 3.6484 0.82422 1.0234 2.0938 1.5859 3.4023 1.5117 2.4375-0.14062 9.9336 0.046875 15.312 2.5586 5.332 2.4883 11.688 10.242 13.684 13.02 0.73438 1.0234 1.9023 1.6484 3.1602 1.6914 0.046875 0 0.09375 0.003907 0.14062 0.003907 1.207 0 2.3555-0.53906 3.1289-1.4727l15.539-18.762c1.1172 1.6914 2.5859 3.4883 4.4609 5.0898-1.6641 2.9258-3.832 7.2617-4.6367 11.227-0.45703 2.25-0.375 4.7539-0.29688 7.1719 0.17578 5.4453 0.078125 8.8789-2.7891 10.621-5.832 3.5391-21.156 2.6562-28.641 0.33594-2.9023-0.90234-4.4805-2.6758-6.4805-4.9219-2.3047-2.5898-5.168-5.8125-10.402-7.5156-6.2031-2.0156-10.449-0.26953-14.555 1.4297-2.8555 1.1797-5.8086 2.3984-10.227 2.9297-4.4609 0.53906-7.3125-1.2188-10.922-3.4453-4.0352-2.4922-8.6133-5.3125-15.453-4.3359-7.4141 1.0625-12.555 3.9453-15.535 8.7031-9.0156-5.2656-19.461-7.293-31.121-6.0234-2.2305 0.24219-3.8398 2.25-3.5977 4.4805 0.24219 2.2305 2.2617 3.832 4.4805 3.5977 10.617-1.1641 19.637 0.73828 27.484 5.7852-0.21875 1.4805-0.33984 3.0508-0.33984 4.7305 0 2.5703 0.70313 5.6953 2.0977 9.3516-10.289-3.1875-23.223-3.0156-31.684-1.9648-2.2266 0.27734-3.8086 2.3086-3.5312 4.5352 0.27734 2.2266 2.3203 3.8008 4.5352 3.5312 17.328-2.1602 33.863 1.1992 37.648 7.6406 0 0.003906 0.003906 0.003906 0.003906 0.007812 0.48828 0.80859 0.98828 1.625 1.5117 2.4609 2.3867 3.793 3.6484 8.1953 3.6484 12.73l0.007813 263.64c-8.8828-4.5391-18.637-6.5117-29.09-5.8711-2.2383 0.13672-3.9453 2.0664-3.8047 4.3047 0.13672 2.2383 2.0547 3.9453 4.3047 3.8047 10.59-0.66016 19.965 1.668 28.59 7.0898v9.5078z"/>
  <path d="m278.5 415.04c-13.238-6.4844-29.176-8.6836-47.352-6.5508-2.2305 0.26172-3.8242 2.2812-3.5625 4.5078 0.26172 2.2305 2.2773 3.8281 4.5078 3.5625 16.602-1.9531 31.012-0.007812 42.828 5.7773 0.57422 0.28125 1.1836 0.41406 1.7852 0.41406 1.5039 0 2.9453-0.83594 3.6523-2.2773 0.98828-2.0117 0.15625-4.4453-1.8594-5.4336z"/>
  <path d="m275.51 435c-9.1328-6.0039-19.277-8.8477-30.168-8.4453-2.2422 0.082031-3.9961 1.9688-3.9141 4.2109s1.9805 3.9766 4.2109 3.9141c9.1641-0.33203 17.711 2.0586 25.406 7.1172 0.6875 0.45312 1.4609 0.66797 2.2266 0.66797 1.3242 0 2.6172-0.64453 3.3984-1.832 1.2383-1.8789 0.71484-4.3984-1.1602-5.6328z"/>
  <path d="m249.08 274.25c2.207-0.41406 3.6562-2.5391 3.2422-4.7422-0.41406-2.2031-2.5391-3.6641-4.7422-3.2422-9.1602 1.7227-15.73 0.19141-20.086-4.6797-1.4961-1.6758-4.0664-1.8164-5.7383-0.32031s-1.8203 4.0625-0.32031 5.7383c4.7969 5.3711 11.312 8.0703 19.438 8.0703 2.5742-0.007813 5.3125-0.27734 8.207-0.82422z"/>
  <path d="m249.69 282.29-10.613 3.25c-2.1445 0.65625-3.3516 2.9297-2.6953 5.0742 0.53516 1.75 2.1445 2.875 3.8828 2.875 0.39453 0 0.79297-0.058594 1.1914-0.17969l10.613-3.25c2.1445-0.65625 3.3516-2.9297 2.6953-5.0742-0.65625-2.1484-2.9297-3.3516-5.0742-2.6953z"/>
 </g>
</svg>
