<?xml version="1.0" encoding="UTF-8"?>
<svg width="512pt" height="512pt" version="1.1" viewBox="0 0 512 512" xmlns="http://www.w3.org/2000/svg">
 <g fill="#443f3c">
  <path d="m374.4 459.2c-1.5117-2.0156-3.8789-3.1992-6.3984-3.1992v-48h16v-16h-48v-56h16v-16h-24v-72h16v-16h-32v-104h16v-16h-24v-48h8v-16h-16c0-22.055-17.945-40-40-40s-40 17.945-40 40h-16v16h8v48h-24v16h16v104h-32v16h16v72h-24v16h16v56h-48v16h16v48c-2.5195 0-4.8867 1.1836-6.3984 3.1992l-24 32c-1.8242 2.4258-2.1133 5.6641-0.76172 8.375 1.3516 2.7148 4.1289 4.4258 7.1602 4.4258h272c3.0312 0 5.8008-1.7109 7.1602-4.4258 1.3594-2.7109 1.0625-5.9531-0.76172-8.375zm-22.398-51.199v48h-16v-48zm-96-384c13.23 0 24 10.77 24 24h-48c0-13.23 10.77-24 24-24zm-32 40h64v48h-24v-32h-16v32h-24zm-8 64h80v104h-80zm-16 120h112v72h-24v-24c0-17.648-14.352-32-32-32s-32 14.352-32 32v24h-24zm72 72h-32v-24c0-8.8242 7.1758-16 16-16s16 7.1758 16 16zm48 16v120h-32v-32c0-4.4258-3.5859-8-8-8h-48c-4.4141 0-8 3.5742-8 8v32h-32v-120zm-48 120h-32v-24h32zm-112-48h16v48h-16zm-24 80 12-16h216l12 16z"/>
  <path d="m232 400h48c4.4141 0 8-3.5742 8-8v-8c0-17.648-14.352-32-32-32s-32 14.352-32 32v8c0 4.4258 3.5859 8 8 8zm24-32c8.8242 0 16 7.1758 16 16h-32c0-8.8242 7.1758-16 16-16z"/>
  <path d="m272 144h-32c-4.4141 0-8 3.5742-8 8v56c0 4.4258 3.5859 8 8 8h32c4.4141 0 8-3.5742 8-8v-56c0-4.4258-3.5859-8-8-8zm-8 56h-16v-40h16z"/>
 </g>
</svg>
