<?xml version="1.0" encoding="UTF-8"?>
<svg width="512pt" height="512pt" version="1.1" viewBox="0 0 512 512" xmlns="http://www.w3.org/2000/svg">
 <g fill="#443f3c">
  <path d="m472 312v24h-48c0-39.703-32.297-72-72-72s-72 32.297-72 72h-48c0-39.703-32.297-72-72-72s-72 32.297-72 72h-48v-24c0-13.23-10.77-24-24-24h-8v16h8c4.4141 0 8 3.5859 8 8v56h-8c-4.4258 0-8 3.5742-8 8v32c0 4.4258 3.5742 8 8 8h96c4.4258 0 8-3.5742 8-8v-32c0-4.4258-3.5742-8-8-8h-8v-32c0-30.871 25.129-56 56-56s56 25.129 56 56v32h-8c-4.4258 0-8 3.5742-8 8v32c0 4.4258 3.5742 8 8 8h96c4.4258 0 8-3.5742 8-8v-32c0-4.4258-3.5742-8-8-8h-8v-32c0-30.871 25.129-56 56-56s56 25.129 56 56v32h-8c-4.4258 0-8 3.5742-8 8v32c0 4.4258 3.5742 8 8 8h96c4.4258 0 8-3.5742 8-8v-32c0-4.4258-3.5742-8-8-8h-8v-56c0-4.4141 3.5859-8 8-8h8v-16h-8c-13.23 0-24 10.77-24 24zm-368 88h-80v-16h80zm-64-32v-16h48v16zm256 32h-80v-16h80zm-64-32v-16h48v16zm256 32h-80v-16h80zm-64-32v-16h48v16z"/>
  <path d="m312 224.98v-24.977c0-4.4258-3.5742-8-8-8h-16v-56c0-1.7344-0.55859-3.4141-1.6016-4.8008l-24-32c-3.0156-4.0312-9.7852-4.0312-12.801 0l-24 32c-1.0391 1.3867-1.5977 3.0664-1.5977 4.8008v56h-16c-4.4258 0-8 3.5742-8 8v24.977l-176.51 23.023h-15.488v16h16c0.34375 0 0.69531-0.023438 1.0312-0.070312l183.46-23.93h95.016l183.46 23.93c0.32813 0.046874 0.67969 0.070312 1.0234 0.070312h16v-16h-15.488zm-72-86.312 16-21.328 16 21.328v53.336h-32zm56 85.336h-80v-16h80z"/>
 </g>
</svg>
