<?xml version="1.0" encoding="UTF-8"?>
<svg width="512pt" height="512pt" version="1.1" viewBox="0 0 512 512" xmlns="http://www.w3.org/2000/svg">
 <path d="m405.33 448h-14.719l-79.359-158.61c24.617-8.4219 46.98-22.359 65.387-40.746 1.7227-1.832 2.7422-4.2109 2.8789-6.7188 0.64062-6.8281-1.6016-7.1484-25.812-31.359v-0.003906c20.832-24.547 31.648-56.043 30.293-88.211 0.31641-1.4062 0.31641-2.8633 0-4.2695-2.4023-31.547-16.402-61.086-39.301-82.918-22.895-21.836-53.07-34.414-84.695-35.312-31.625-0.89844-62.465 9.9492-86.562 30.445l-22.934-22.934c-2.0039-2.0195-4.7305-3.1562-7.5742-3.1562s-5.5703 1.1367-7.5742 3.1562c-27.359 27.438-44.57 63.363-48.801 101.88-4.2305 38.516 4.7695 77.324 25.523 110.05 20.75 32.719 52.02 57.402 88.664 69.996l-79.359 158.72h-14.719c-5.8906 0-10.668 4.7773-10.668 10.668v42.668-0.003907c0 2.832 1.125 5.543 3.125 7.543s4.7109 3.125 7.543 3.125h298.66c2.832 0 5.543-1.125 7.543-3.125s3.125-4.7109 3.125-7.543v-42.664c0-2.832-1.125-5.543-3.125-7.543s-4.7109-3.125-7.543-3.125zm-117.33-128h-64v-24.426c21.137 4.1055 42.863 4.1055 64 0zm-64 21.332h64v106.67h-64zm85.332-8.1055 57.387 114.77h-57.387zm-158.72-190.19c7.2656-2.2383 14.387-4.9102 21.332-8 15.086 34.473 42.629 61.977 77.121 77.016-3.1719 6.9219-5.8789 14.051-8.1055 21.332-22.863-3.1211-44.074-13.645-60.387-29.961-16.316-16.312-26.84-37.523-29.961-60.387zm92.266-106.67v0.003906c-10.453-2.8516-21.18-4.5664-32-5.1211 11.926-5.6562 24.809-9.0195 37.973-9.9219-1.707 5.2617-3.6992 10.426-5.9727 15.469zm109.12 137.18c-0.55469-10.82-2.2695-21.547-5.1211-32 5.1406-2.4258 10.41-4.5625 15.789-6.3984-1.0977 13.355-4.7188 26.387-10.668 38.398zm-170.67-105.28 21.336 21.336c-5.8945 5.1133-12.133 9.8164-18.668 14.078-2.5078-11.625-3.4023-23.543-2.668-35.414zm36.801 36.801 60.906 60.906c-7.5273 8.3906-14.207 17.5-19.945 27.199-30.66-13.039-55.062-37.477-68.055-68.16 9.6133-5.7695 18.648-12.449 26.988-19.945zm75.84 76.266 21.336 21.336c-12.035 0.74219-24.113-0.29688-35.844-3.0938 4.4414-6.3828 9.2891-12.477 14.508-18.242zm36.695 6.4023-21.336-21.336c5.8945-5.1133 12.133-9.8164 18.668-14.078 2.5078 11.625 3.4023 23.543 2.668 35.414zm-36.801-36.801-60.801-60.906c7.5273-8.3906 14.211-17.5 19.945-27.199 30.695 12.992 55.109 37.445 68.055 68.16-9.6484 5.7617-18.723 12.441-27.094 19.945zm-75.84-76.266-21.336-21.336c12.035-0.63672 24.098 0.40625 35.844 3.0938-4.4414 6.3828-9.2891 12.477-14.508 18.242zm-58.027 7.7852c0.55469 10.82 2.2695 21.547 5.1211 32-4.9062 2.2578-9.9258 4.25-15.043 5.9727 0.91797-13.164 4.2812-26.043 9.9219-37.973zm109.23 136.64c10.625 2.8867 21.535 4.6055 32.535 5.1211-12.113 5.7773-25.223 9.1797-38.613 10.023 1.7305-5.1602 3.7578-10.219 6.0781-15.145zm92.16-106.13c-7.2656 2.2383-14.387 4.9102-21.332 8-15.113-34.414-42.602-61.902-77.016-77.016 3.0898-6.9453 5.7617-14.066 8-21.332 22.863 3.1211 44.074 13.645 60.387 29.961 16.316 16.312 26.84 37.523 29.961 60.387zm-254.72 15.039c-0.070313-35.898 12.938-70.594 36.586-97.602l15.039 15.039v0.003906c-20.832 24.547-31.648 56.043-30.293 88.211-0.31641 1.4062-0.31641 2.8633 0 4.2695 2.4961 31.414 16.496 60.805 39.312 82.539 22.82 21.738 52.855 34.293 84.355 35.258 31.5 0.96875 62.25-9.7188 86.359-30.012l15.039 15.039c-95.254 83.52-246.4 15.254-246.4-112.75zm96 205.23v114.77h-57.387zm192 157.44h-277.34v-21.336h277.34z" fill="#443f3c"/>
</svg>
