<?xml version="1.0" encoding="UTF-8"?>
<svg width="512pt" height="512pt" version="1.1" viewBox="0 0 512 512" xmlns="http://www.w3.org/2000/svg">
 <g fill="#443f3c">
  <path d="m184 120c0 4.418-3.582 8-8 8s-8-3.582-8-8 3.582-8 8-8 8 3.582 8 8"/>
  <path d="m344 120c0 4.418-3.582 8-8 8s-8-3.582-8-8 3.582-8 8-8 8 3.582 8 8"/>
  <path d="m448.1 137.2c-20.898-13.102-47.199-21.898-72.801-24.398-2.8984-16-15.398-28.801-31.301-32v-24.801c0-22.102-17.898-40-40-40h-16c-13.199 0-24 10.801-24 24s10.801 24 24 24h6.6016c-3.3008 9.3008-12.199 16-22.602 16h-32c-10.398 0-19.301-6.6992-22.602-16h6.6016c13.199 0 24-10.801 24-24s-10.801-24-24-24h-16c-22.102 0-40 17.898-40 40v24.801c-15.898 3.1992-28.398 16-31.301 32-25.602 2.6016-51.898 11.301-72.801 24.398-31.398 19.801-47.898 47-47.898 78.801 0 4.3984 3.6016 8 8 8 34.699 0 60.398 6.8984 78.5 21.102 15.898 12.5 24.699 29.5 33.199 45.898 15 28.898 30.5 58.801 82.301 60.898l22.301 74.398c1 3.3984 4.1016 5.6992 7.6992 5.6992v24c0 13.199-10.801 24-24 24s-24-10.801-24-24c0-22.102-17.898-40-40-40h-48c-4.3984 0-8 3.6016-8 8 0 4.3984 3.6016 8 8 8h48c13.199 0 24 10.801 24 24 0 22.102 17.898 40 40 40s40-17.898 40-40v-24c3.5 0 6.6016-2.3008 7.6992-5.6992l22.301-74.398c51.801-2.1016 67.301-32 82.301-60.898 8.5-16.398 17.398-33.398 33.199-45.898 18.102-14.199 43.801-21.102 78.5-21.102 4.3984 0 8-3.6016 8-8 0-31.801-16.5-59-47.898-78.801zm-160.1-89.199c-4.3984 0-8-3.6016-8-8s3.6016-8 8-8h8v16zm-72-16h8c4.3984 0 8 3.6016 8 8s-3.6016 8-8 8h-8zm42 384h-4l-15.602-52.102c5.3984 2.6992 11.398 4.1016 17.699 4.1016 6.3008 0 12.301-1.3984 17.699-4.1016zm-2-64c-6.3984 0-12.398-2.5-17-7-1.5-1.5-2.8984-3.3008-4-5.1992l7.6992-15.301c1.3984-2.6992 4.1016-4.3984 7.1992-4.3984h12.199c3.1016 0 5.8008 1.6992 7.1992 4.3984l7.6992 15.301c-4.2969 7.5-12.195 12.199-20.996 12.199zm143.6-119.5c-18.602 14.602-28.301 33.199-37.602 51.102-14.699 28.199-26.301 50.699-69.199 52.301l-9.3008-18.602c-4.1016-8.1992-12.301-13.301-21.5-13.301h-12.199c-9.1016 0-17.398 5.1016-21.5 13.301l-9.3008 18.602c-42.801-1.6016-54.5-24.102-69.199-52.301-9.3008-17.898-18.898-36.5-37.602-51.102-19.398-15.301-45.699-23.301-79.898-24.398 3.1992-28.398 23-46.699 39.898-57.398 18.5-11.699 41.801-19.5 64.602-21.898 3.5 15.602 16.199 27.801 32.102 30.602l10.5 63.199c3.1992 19.398 19.801 33.398 39.5 33.398 4.3984 0 8-3.6016 8-8 0-4.3984-3.6016-8-8-8-11.801 0-21.699-8.3984-23.699-20.102l-11.5-69.301c-0.60156-3.8984-4-6.6992-7.8984-6.6992-13.199 0-24-10.801-24-24 0-13.199 10.801-24 24-24 4.3984 0 8-3.6016 8-8l-0.003907-31.902c0-10.398 6.6992-19.301 16-22.602v22.602c0 22.102 17.898 40 40 40h32c22.102 0 40-17.898 40-40v-22.602c9.3008 3.3008 16 12.199 16 22.602v32c0 4.3984 3.6016 8 8 8 13.199 0 24 10.801 24 24s-10.801 24-24 24c-3.8984 0-7.1992 2.8008-7.8984 6.6992l-11.5 69.301c-1.8984 11.602-11.898 20.102-23.699 20.102-4.3984 0-8 3.6016-8 8 0 4.3984 3.6016 8 8 8 19.602 0 36.199-14.102 39.5-33.398l10.5-63.199c15.898-2.8008 28.602-14.898 32.102-30.602 22.801 2.5 46.102 10.199 64.602 21.898 16.898 10.699 36.801 29 40 57.398-34.105 1-60.305 9-79.805 24.301z"/>
 </g>
</svg>
