<?xml version="1.0" encoding="UTF-8"?>
<svg width="512pt" height="512pt" version="1.1" viewBox="0 0 512 512" xmlns="http://www.w3.org/2000/svg">
 <g fill="#443f3c">
  <path d="m363.52 212.94v-40.961c-0.95312-9.8438-6.0781-18.812-14.078-24.625l11.52-34.715 7.9883-22.324 13.672-29.543h-0.003906c1.418-3.0508 0.66797-6.668-1.8438-8.9062-10.086-9.1797-24.105-12.68-37.324-9.3203-2.8125 0.59766-5.0625 2.7109-5.8359 5.4805l-8.6016 30.719-8.0898 22.426-10.238 30.719h-0.003906c-17.973-3.8164-36.305-5.6875-54.68-5.582-51.559 0-107.27 17.461-107.27 45.672v40.961c-36.711 32.82-40.961 86.168-40.961 123.9-0.25391 81.309 58.113 133.89 148.23 133.89s148.48-52.582 148.48-133.89c0-37.684-4.5586-91.082-40.961-123.9zm-12.188-156.16h0.003907c5.1836-0.60547 10.422 0.47266 14.949 3.0703l-7.2695 15.719c-3.8008-1.8086-7.9297-2.8203-12.137-2.9688zm-9.3164 31.18c3.6992-0.53125 7.4727 0.097656 10.805 1.793l-2.7656 7.5273c-3.4102-1.3633-7.0312-2.1094-10.699-2.2031zm-31.18 90.523 23.09-67.789c3.7109-0.62891 7.5273-0.20312 11.008 1.2266l-12.133 36.047-11.266 33.383c-10.238 4.5586-33.176 9.5742-65.434 9.5742-13.316 0.074219-26.617-0.90234-39.781-2.918 0.5625-0.41797 1.0938-0.88281 1.5859-1.3828l0.41016-0.51172c0.33203-0.37891 0.62109-0.79297 0.87109-1.2305 0.10156-0.21484 0.21875-0.42187 0.35938-0.61328 0.19922-0.46875 0.37109-0.94531 0.51172-1.4336 0.019531-0.20313 0.019531-0.41016 0-0.61328 0.20312-0.73438 0.30859-1.4922 0.30469-2.2539-0.36719-5.0859-4.6016-9.0234-9.6992-9.0234-5.1016 0-9.3359 3.9375-9.7031 9.0234 0.003906 0.86719 0.14062 1.7305 0.41016 2.5586v0.5625c0.25781 0.76953 0.59766 1.5117 1.0234 2.2031-6.4023-1.0625-12.469-3.6055-17.715-7.4258 4.0977-5.1211 30.719-16.129 71.066-16.129l-0.003906 0.003907c14.262 0.41797 28.422 2.5156 42.191 6.2461l-1.8945 5.4766c-1.3281 4.0273 0.8125 8.375 4.8125 9.7812 1.9531 0.74609 4.125 0.66016 6.0156-0.23828 1.8867-0.90234 3.3203-2.5352 3.9688-4.5234zm-146.74-6.5039c0-10.699 34.918-30.309 92.16-30.309 16.621-0.12109 33.215 1.4727 49.508 4.7617l-2.6094 7.168c-15.375-4.2695-31.207-6.6758-47.156-7.168-42.648 0-86.734 11.828-86.734 31.59 0 27.496 77.875 28.312 86.734 28.312s86.734-0.82031 86.734-28.312c0.023437-0.41016 0.023437-0.82031 0-1.2305-0.26953-1.8125-0.89453-3.5508-1.8438-5.1211l2.918-8.6016c2.3633 2.4297 3.8906 5.5508 4.3516 8.9102v39.629c-59.801 26.574-121.6 26.523-183.81 0zm91.902 283.39c-81.922 0-133.12-45.414-133.12-118.53 0-34.305 3.7891-82.535 34.816-111.36 31.301 13.852 65.102 21.152 99.328 21.453 33.574-0.17578 66.73-7.4688 97.281-21.402 30.926 28.93 34.816 77.059 34.816 111.31 0 73.113-51.199 118.53-133.12 118.53z"/>
  <path d="m153.6 322.82c-4.5898-24.422 0.55469-49.672 14.336-70.348 2.0234-3.5469 0.91406-8.0586-2.5195-10.266-3.4336-2.2109-7.9961-1.3438-10.383 1.9688-15.949 23.852-21.887 53.016-16.539 81.203 0.60156 3.6914 3.7891 6.3984 7.5273 6.4023h1.332c2.0195-0.35156 3.8203-1.4922 4.9922-3.1758 1.1719-1.6836 1.625-3.7695 1.2539-5.7852z"/>
  <path d="m250.42 164.3c-4.4219 0.027344-8.2734 3.0352-9.3672 7.3203-1.8203-2.082-4.4531-3.2773-7.2188-3.2773-3.7031-0.003906-7.082 2.1016-8.707 5.4219-1.6289 3.3242-1.2188 7.2812 1.0547 10.203 2.2734 2.918 6.0117 4.2852 9.6328 3.5234 3.6172-0.76563 6.4883-3.5273 7.3867-7.1133 2.1758 2.4648 5.457 3.6602 8.707 3.168 3.2539-0.49609 6.0312-2.6055 7.3789-5.6055s1.0781-6.4805-0.71484-9.2383c-1.793-2.7578-4.8633-4.4141-8.1523-4.4023z"/>
  <path d="m276.48 170.34c-3.9453-0.023438-7.5117 2.3398-9.0273 5.9805-1.5195 3.6406-0.69141 7.8359 2.0977 10.625 2.7891 2.7891 6.9844 3.6172 10.625 2.0977s6-5.082 5.9805-9.0273c-0.027344-5.332-4.3438-9.6484-9.6758-9.6758z"/>
  <path d="m184.93 419.33c-1.6914 1.9297-2.5547 4.4492-2.4062 7.0156 0.16406 2.5664 1.3438 4.9609 3.2773 6.6562 1.7656 1.5625 4.043 2.418 6.3984 2.4062h0.61719c3.2188-0.21484 6.1172-2.0234 7.7305-4.8164 1.6133-2.793 1.7305-6.2031 0.3125-9.1016-1.4219-2.8945-4.1914-4.8945-7.3906-5.3281-3.1953-0.43359-6.3984 0.75391-8.5391 3.168z"/>
  <path d="m188.67 396.85c-1.8828-1.793-4.418-2.7344-7.0156-2.6133-3.9258 0.21875-7.3359 2.793-8.6172 6.5117-1.2812 3.7227-0.17969 7.8477 2.7812 10.438 1.7812 1.5391 4.0469 2.3906 6.4023 2.4062 4.0391 0.027344 7.6719-2.457 9.1055-6.2344 1.4375-3.7773 0.37891-8.0469-2.6562-10.715z"/>
  <path d="m154.37 389.73c-2.4766 2.875-3.0547 6.9258-1.4805 10.379 1.5703 3.457 5.0078 5.6797 8.8047 5.6992h0.61328c2.5586-0.1875 4.9453-1.3633 6.6562-3.2773 1.6914-1.9336 2.5547-4.4531 2.4062-7.0156-0.23828-3.918-2.8164-7.3086-6.5352-8.5781-3.7148-1.2656-7.8281-0.16406-10.414 2.793z"/>
 </g>
</svg>
