<?xml version="1.0" encoding="UTF-8"?>
<svg width="512pt" height="512pt" version="1.1" viewBox="0 0 512 512" xmlns="http://www.w3.org/2000/svg">
 <g fill="#443f3c">
  <path d="m472 408v-176h30.793l-19.793-15.848c-18.902-15.113-32.414-35.238-39.449-58.328 2.7773-3.9141 4.4492-8.6719 4.4492-13.824 0-10.414-6.7109-19.215-16-22.527v-17.473h16v-16h-16v-16h-16v16h-16v16h16v17.473c-9.2891 3.3125-16 12.113-16 22.527 0 5.1523 1.6641 9.9023 4.4414 13.816-7.0156 23.09-20.535 43.215-39.441 58.336l-19.793 15.848h30.793v16h-32v-48h29.047l-49.922-44.359c-19.824-17.633-35.664-39.793-46.137-64.238 1.8594-3.4102 3.0117-7.2578 3.0117-11.402 0-10.414-6.7109-19.215-16-22.527v-17.473h16v-16h-16v-16h-16v16h-16v16h16v17.473c-9.2891 3.3125-16 12.113-16 22.527 0 4.1445 1.1523 7.9922 3.0078 11.398-10.473 24.457-26.312 46.609-46.137 64.238l-49.918 44.363h29.047v48h-32v-16h30.793l-19.793-15.848c-18.902-15.113-32.414-35.238-39.449-58.328 2.7773-3.9141 4.4492-8.6719 4.4492-13.824 0-10.414-6.7109-19.215-16-22.527v-17.473h16v-16h-16v-16h-16v16h-16v16h16v17.473c-9.2891 3.3125-16 12.113-16 22.527 0 5.1523 1.6719 9.9102 4.4492 13.824-7.0234 23.09-20.543 43.207-39.449 58.336l-19.793 15.84h30.793v176h-32v96h496v-96zm-48-272c4.4141 0 8 3.5859 8 8s-3.5859 8-8 8-8-3.5859-8-8 3.5859-8 8-8zm-5.7266 31.23c1.8398 0.45703 3.7422 0.76953 5.7266 0.76953s3.8789-0.3125 5.7266-0.76953c6.2969 18.305 16.289 34.832 29.504 48.77h-70.473c13.234-13.938 23.219-30.465 29.516-48.77zm37.727 64.77v176h-49.762l3.1992 16h-17.438v-48h16v16h32v-16h-28.895l-19.105-57.297v-86.703zm-356.64 208h313.28l3.1992 16h-319.68zm34.41-112h244.46l10.664 32h-265.79zm50.23-96h144v80h-16v-64h-48v64h-16v-64h-48v64h-16zm112 80h-16v-48h16zm-64 0h-16v-48h16zm-96 64h240v48h-32v-32h-48v32h-16v-32h-48v32h-16v-32h-48v32h-32zm192 48h-16v-16h16zm-64 0h-16v-16h16zm-64 0h-16v-16h16zm176-160v48h-32v-48zm-120-192c4.4141 0 8 3.5859 8 8s-3.5859 8-8 8-8-3.5859-8-8 3.5859-8 8-8zm-56.496 95.594c20.297-18.039 36.785-40.441 48.152-65.176 2.6094 0.97266 5.3984 1.582 8.3438 1.582s5.7344-0.60938 8.3516-1.5859c11.367 24.734 27.855 47.137 48.152 65.176l18.449 16.41h-149.91zm128.5 32.406v16h-144v-16zm-160 64v48h-32v-48zm-80-128c4.4141 0 8 3.5859 8 8s-3.5859 8-8 8-8-3.5859-8-8 3.5859-8 8-8zm-5.7266 31.23c1.8477 0.45703 3.7422 0.76953 5.7266 0.76953s3.8789-0.3125 5.7266-0.76953c6.2969 18.305 16.289 34.832 29.504 48.77h-70.461c13.223-13.938 23.207-30.465 29.504-48.77zm-26.273 64.77h64v86.703l-19.105 57.297h-28.895v16h32v-16h16v48h-17.441l3.1992-16h-49.758zm17.449 256h-49.449v-64h62.238zm16.312 0 3.1992-16h326.08l3.1992 16zm398.24 0h-49.449l-12.801-64h62.25z"/>
  <path d="m408 248h32v16h-32z"/>
  <path d="m408 280h32v16h-32z"/>
  <path d="m408 312h32v16h-32z"/>
  <path d="m408 344h32v16h-32z"/>
  <path d="m72 248h32v16h-32z"/>
  <path d="m72 280h32v16h-32z"/>
  <path d="m72 312h32v16h-32z"/>
  <path d="m72 344h32v16h-32z"/>
 </g>
</svg>
