<?xml version="1.0" encoding="UTF-8"?>
<svg width="512pt" height="512pt" version="1.1" viewBox="0 0 512 512" xmlns="http://www.w3.org/2000/svg">
 <g fill="#443f3c">
  <path d="m480 403.2v-19.199c10.398-7.1992 16-19.199 16-32v-10.398c0-10.398-4-20.801-12-28l-13.602-13.602c-4.8008-4.8008-8.8008-11.199-10.398-18.398l-4-16c9.6016-8.8008 9.6016-24 0.80078-33.602-2.3984-2.3984-5.6016-4.8008-9.6016-6.3984v-25.602h16v-16h-16v-16h-16v16h-15.199v16h16v25.602c-12.801 4-19.199 17.602-14.398 30.398 1.6016 3.1992 3.1992 7.1992 6.3984 9.6016l-4 16c-1.6016 7.1992-5.6016 13.602-10.398 18.398l-13.602 13.602c-7.1992 7.1992-12 17.602-12 28v10.398c0 12.801 5.6016 24 16 32v19.199l8 8v28.801h-24v24h-24v-22.398l8-5.6016v-12c10.398-7.1992 16-19.199 16-32v-10.398c0-10.398-4-20.801-12-28l-13.602-13.602c-4.8008-4.8008-8.8008-11.199-10.398-18.398l-4-16c9.6016-8.8008 9.6016-24 0.80078-33.602-2.3984-2.3984-5.6016-4.8008-9.6016-6.3984v-25.602h16v-16h-16v-16h-16v16h-15.199v16h16v24h-9.6016l-30.398-104.8v-26.398c9.6016-5.6016 16-16 16-28v-2.3984c0-12-7.1992-23.199-17.602-28.801l-14.398-6.4023v-19.199h16v-16h-16v-16h-16v16h-16v16h16v19.199l-14.398 7.1992c-10.402 5.6016-17.602 16-17.602 28.801v2.3984c0 11.199 6.3984 22.398 16 28v26.398l-30.398 104h-17.602v16h16l-8 139.2-16 8v16l8 8v12.801h-16v-52.801l8-8v-19.199c10.398-7.1992 16-19.199 16-32v-10.398c0-10.398-4-20.801-12-28l-13.602-13.602c-4.8008-4.8008-8.8008-11.199-10.398-18.398l-4-16c9.6016-8.8008 9.6016-24 0.80078-33.602-2.3984-2.3984-5.6016-4.8008-9.6016-6.3984v-25.602h16v-16h-16v-16h-16v16h-15.199v16h16v25.602c-12.801 4-19.199 17.602-14.398 30.398 1.6016 3.1992 3.1992 7.1992 6.3984 9.6016l-4 14.398-12.801-12.801c-4.8008-4.8008-8.8008-11.199-10.398-18.398l-4-16c9.6016-8.8008 9.6016-24 0.80078-33.602-2.3984-2.3984-5.6016-4.8008-9.6016-6.3984v-24.801h16v-16h-16v-16h-16v16h-15.199v16h15.199v25.602c-12.801 4-19.199 17.602-14.398 30.398 1.6016 3.1992 3.1992 7.1992 6.3984 9.6016l-4 16c-1.6016 7.1992-5.6016 13.602-10.398 18.398l-13.602 13.602c-8 7.1992-12 16.797-12 28v10.398c0 12.801 5.6016 24 16 32v19.199l8 8v116.8h16v-104h40v11.199l8 8v84.801h16v-72h32v72h16v-16h16v16h16v-40h96v40h16v-32h32v32h16v-16h24v16h19.199c6.3984 0 12-3.1992 14.398-8.8008l3.1992-7.1992h14.398l3.1992 7.1992c2.3984 5.6016 8 8.8008 14.398 8.8008h6.3984c6.3984 0 12-3.1992 14.398-8.8008l3.1992-7.1992h3.2109v16h16v-56h-24v-28.801zm-311.2-79.199c4.8008 4.8008 7.1992 10.398 7.1992 16.801v11.199c0 12-8.8008 21.602-20 23.199l2.3984-5.6016c6.3984-16.801 7.1992-35.199 2.3984-52.801l-0.79688-1.5977zm-88.801 17.602v2.3984h-24c-7.1992 0-14.398-3.1992-18.398-9.6016 32.801-5.6016 56.801-29.602 67.199-42.398 0.80078 0.80078 2.3984 2.3984 3.1992 4-0.80078 1.6016-2.3984 2.3984-3.1992 3.1992l-13.602 13.602c-7.1992 8-11.199 17.598-11.199 28.801zm-47.199-38.402c21.602-1.6016 41.602-12.801 54.398-30.398 1.6016 1.6016 3.1992 4 4.8008 5.6016l1.6016 1.6016c-8.8008 10.398-31.199 35.199-61.602 38.398v-10.398c0-0.80469 0-2.4023 0.80078-4.8047zm63.199 48.801v-10.398c0-6.3984 2.3984-12.801 7.1992-16.801l9.6016-9.6016-0.80078 2.3984c-4.8008 17.602-4 36 2.3984 52.801l2.3984 5.6016c-11.996-2.3984-20.797-12-20.797-24zm37.602 24-4.8008-12c-5.6016-13.602-6.3984-28-1.6016-42.398l8.8008-30.398 8.8008 30.398c4 13.602 3.1992 28.801-1.6016 42.398l-4.8008 12zm2.3984-136c4.8008 0 8 3.1992 8 8s-3.1992 8-8 8-8-3.1992-8-8 3.1992-8 8-8zm-64-32c4.8008 0 8 3.1992 8 8s-3.1992 8-8 8-8-3.1992-8-8 3.1992-8 8-8zm-20 71.199c7.1992-7.1992 12-16 14.398-26.398l4-12.801h3.1992l3.1992 12.801c0 1.6016 0.80078 3.1992 1.6016 4-7.1992 12-17.602 21.602-31.199 26.398zm-4 85.602v-5.6016c2.3984 0.80078 5.6016 0.80078 8 0.80078h24.801c1.6016 5.6016 4 11.199 7.1992 16h-32v-3.1992zm72 43.199v-3.1992l-8-8v-5.6016c2.3984 0.80078 5.6016 0.80078 8 0.80078h32c2.3984 0 5.6016 0 8-0.80078v5.6016l-8 8v3.1992zm209.6-96 3.1992 12.801c2.3984 9.6016 7.1992 19.199 14.398 26.398l13.602 13.602c4.8008 4.8008 7.1992 10.398 7.1992 16.801v10.398c0 13.602-10.398 24-24 24h-32c-13.602 0-24-10.398-24-24v-10.398c0-6.3984 2.3984-12.801 7.1992-16.801l13.602-13.602c7.1992-7.1992 12-16 14.398-26.398l3.1992-12.801zm-1.6016-16c-4.8008 0-8-3.1992-8-8s3.1992-8 8-8 8 3.1992 8 8-3.1992 8-8 8zm-16.801 9.6016-4 16c-0.80078 2.3984-1.6016 4.8008-2.3984 7.1992h-20c-6.3984 0-12 3.1992-14.398 8.8008l-3.2031 6.3984h-6.3984l-3.1992-7.1992c-2.3984-5.6016-8-8.8008-14.398-8.8008h-14.398c-6.3984 0-12 3.1992-14.398 8.8008l-2.3984 4.8008 0.80078-21.602h5.6016c6.3984 0 12-3.1992 14.398-8.8008l3.1992-7.1992h14.398l3.1992 7.1992c2.3984 5.6016 8 8.8008 14.398 8.8008h6.3984c6.3984 0 12-3.1992 14.398-8.8008l3.1992-7.1992h17.602c0.79688 0.80078 1.5977 0.80078 1.5977 1.6016zm-100 54.398c5.6016 0 11.199-3.1992 13.602-8.8008l3.1992-7.1992h14.398l3.1992 7.1992c2.3984 5.6016 8 8.8008 14.398 8.8008h6.3984c6.3984 0 12-3.1992 14.398-8.8008l3.1992-7.1992h8l-8.8008 8.8008c-7.1992 7.1992-12 17.602-12 28l0.007813 3.1992h-11.199l-3.1992-7.1992c-2.3984-5.6016-8-8.8008-14.398-8.8008h-14.398c-6.3984 0-12 3.1992-14.398 8.8008l-2.4062 7.1992h-0.80078zm-1.5977 40h1.6016c6.3984 0 12-3.1992 14.398-8.8008l3.1992-7.1992h14.398l3.1992 7.1992c2.3984 5.6016 8 8.8008 14.398 8.8008h12c1.6016 5.6016 4 11.199 7.1992 16h-72zm38.398-264h16v16h-16zm17.602 32 27.199 96h-28.801v-96zm-33.602-64.801c0-6.3984 3.1992-12 8.8008-14.398l15.199-7.1992 15.199 7.1992c5.6016 2.3984 8.8008 8 8.8008 14.398v2.3984c0 6.3984-3.1992 12-8.8008 14.398l-0.80078 0.003906h-28l-0.80078-0.80078c-5.6016-2.3984-8.8008-8-8.8008-14.398l0.003906-1.6016zm14.398 64.801h1.6016v96h-29.602zm59.203 112c-0.80078 2.3984-1.6016 5.6016-1.6016 8h-11.199c-6.3984 0-12 3.1992-14.398 8.8008l-3.2031 7.1992h-6.3984l-3.1992-7.1992c-2.3984-5.6016-8-8.8008-14.398-8.8008h-14.398c-6.3984 0-12 3.1992-14.398 8.8008l-3.207 7.1992h-4.8008l1.6016-24zm-104 152h86.398v4l5.6016 4h-98.402l-3.1992-3.1992zm110.4 16v-15.199l-1.6016-0.80078h1.6016 32 1.6016l-1.6016 0.80078v15.199zm128-208c4.8008 0 8 3.1992 8 8s-3.1992 8-8 8-8-3.1992-8-8 3.1992-8 8-8zm1.6016 32 3.1992 12.801c2.3984 9.6016 7.1992 19.199 14.398 26.398l13.602 13.602c4.8008 4.8008 7.1992 10.398 7.1992 16.801v10.398c0 1.6016 0 3.1992-0.80078 4l-52.801-52.801c4-5.6016 6.3984-12 8-18.398l3.1992-12.801zm-25.602 43.199 55.199 55.199c-3.1992 3.1992-8 4.8008-12.801 5.6016l-54.398-48c0.80078-1.6016 1.6016-2.3984 3.1992-4zm-16 36.801v-6.3984l34.398 30.398h-10.398c-13.602 0-24-10.398-24-24zm24 40h32c2.3984 0 5.6016 0 8-0.80078v5.6016l-8 8v3.1992h-32v-3.1992l-8-8v-5.6016c2.3984 0.80078 5.6016 0.80078 8 0.80078zm56 72h-3.1992c-6.3984 0-12 3.1992-14.398 8.8008l-3.2031 7.1992h-6.3984l-3.1992-7.1992c-2.3984-5.6016-8-8.8008-14.398-8.8008h-14.398c-6.3984 0-12 3.1992-14.398 8.8008l-3.207 7.1992h-3.1992v-24h80zm-56-24v-16h32v16z"/>
  <path d="m320 472h16v16h-16z"/>
  <path d="m306.42 362.26 15.84-15.84 11.312 11.312-15.84 15.84z"/>
  <path d="m330.42 378.26 15.84-15.84 11.312 11.312-15.84 15.84z"/>
  <path d="m338.42 402.26 15.84-15.84 11.312 11.312-15.84 15.84z"/>
  <path d="m306.42 402.26 15.84-15.84 11.312 11.312-15.84 15.84z"/>
  <path d="m290.42 386.26 15.84-15.84 11.312 11.312-15.84 15.84z"/>
  <path d="m128 456h16v40h-16z"/>
  <path d="m128 432h16v16h-16z"/>
  <path d="m208 464h16v32h-16z"/>
  <path d="m240 464h16v32h-16z"/>
  <path d="m272 464h16v32h-16z"/>
  <path d="m72 424h16v72h-16z"/>
  <path d="m72 400h16v16h-16z"/>
 </g>
</svg>
