<?xml version="1.0" encoding="UTF-8"?>
<svg width="512pt" height="512pt" version="1.1" viewBox="0 0 512 512" xmlns="http://www.w3.org/2000/svg">
 <path d="m413.59 337.92c0.97266-1.6914 1.9453-3.3789 2.8672-5.1211 0.125 0.22266 0.27734 0.42969 0.46094 0.61328 3.9688 3.2344 8.9102 5.0391 14.027 5.1211 1.918 0.09375 3.832-0.11328 5.6836-0.61328 18.023-5.5312 28.414-36.914 28.875-38.246l0.003907-0.003906c0.37109-1.1914 0.14453-2.4883-0.61719-3.4805-0.73828-1.0039-1.9258-1.5781-3.1719-1.5352-10.629 0.40625-21.117 2.5859-31.027 6.4492 1.3828-3.9414 2.5586-7.8867 3.5859-11.727l-0.003906 0.003906c2.375 0.82031 4.8633 1.2695 7.375 1.332 3.8086 0.023437 7.5391-1.1016 10.699-3.2266 15.719-10.496 16.742-43.52 16.793-44.902 0.070313-1.2539-0.50781-2.4531-1.5352-3.1758-0.99219-0.75781-2.3008-0.96875-3.4805-0.5625-8.2422 2.832-16.086 6.7031-23.348 11.52 2.0625-3.4844 2.9453-7.543 2.5078-11.57-0.15234-1.5156-0.47656-3.0117-0.97266-4.4531 0.45703 0.19531 0.94141 0.31641 1.4336 0.35547 7.2578 0.17969 14.102-3.375 18.125-9.418 10.238-15.922-2.2539-46.539-2.7656-47.82-0.45703-1.1797-1.4766-2.0469-2.7109-2.3047-1.2188-0.26953-2.4922 0.054688-3.4336 0.87109-7.9688 7.3672-14.648 16.023-19.762 25.598-1.7852-5.8438-4.0078-11.543-6.6562-17.051 4.3008-5.1211 5.832-12.02 4.0977-18.48-5.1211-18.176-36.352-29.184-37.684-29.645-1.1914-0.42969-2.5156-0.23828-3.5352 0.51172-0.98828 0.73437-1.5742 1.8906-1.5859 3.1211 0 1.4336 0.51172 34.457 16.078 45.16 3.1992 2.2656 7.0352 3.4648 10.957 3.4297 1.7188 0 3.4375-0.19141 5.1172-0.5625 4.1328 8.7578 7.2266 17.969 9.2188 27.441-5.3906-4.8242-11.238-9.1133-17.461-12.797-1.1016-0.59375-2.4297-0.59375-3.5312 0-1.1406 0.52344-1.9453 1.5781-2.1523 2.8125 0 1.3828-5.6328 33.945 7.7305 47.309 3.7969 3.7852 8.9805 5.8398 14.336 5.6836 1.2383-0.042969 2.4688-0.16406 3.6875-0.35547-2.5547 2.7383-4.4766 6.0078-5.6328 9.5742-0.50391 1.6602-0.79688 3.3828-0.86719 5.1172-3.0039-6.5273-6.6602-12.738-10.906-18.531-0.76172-0.98047-1.9492-1.5312-3.1914-1.4805-1.2383 0.050782-2.3789 0.69531-3.0547 1.7344-0.66406 0.97266-12.902 20.02-13.262 36.504v0.003906c-0.58984-0.15234-1.2031-0.15234-1.793 0-1.2539 0.10547-2.3711 0.83594-2.9688 1.9453-0.5625 1.0234-12.391 22.477-10.598 39.32 0-0.71875-0.46094-1.1758-0.51172-1.332-0.48047-1.1523-1.4961-1.9922-2.7148-2.2539-1.2188-0.27344-2.4922 0.046874-3.4297 0.87109-1.0234 0.97266-25.602 23.348-22.988 42.086 1.043 7.1055 5.6367 13.184 12.184 16.129 0.53516 0.23828 1.1055 0.37891 1.6914 0.41016-1.7422 0.14062-3.4609 0.48438-5.1211 1.0234-4.3047 1.543-7.9336 4.5508-10.242 8.5-0.48047-10.777-2.8008-21.391-6.8594-31.387-0.17578-0.33594-0.39844-0.64844-0.66406-0.92188 25.035-27.238 46.078-63.898 46.078-110.44 0-39.68-9.2148-68.25-27.391-84.891-9.9844-8.9805-22.504-14.648-35.84-16.23v-13.258l16.078-21.656-0.003906-0.003907c5.2344-5.7344 8.6914-12.863 9.957-20.523 1.2617-7.6641 0.27734-15.523-2.8398-22.637-8.3984-20.48-26.266-21.863-42.086-23.039-12.082-0.97266-23.5-1.9453-31.281-10.238v-5.375-0.003906c0.0625-4.6758-1.9219-9.1445-5.4297-12.238-3.457-2.6367-7.8281-3.7773-12.133-3.1719-4.0703-0.41406-8.1445 0.71875-11.418 3.1719-3.5078 3.0938-5.4883 7.5625-5.4258 12.238v5.375c-7.832 8.293-19.25 9.2656-31.336 10.238-15.82 1.1758-33.691 2.6094-42.086 23.039v0.003906c-3.1133 7.1133-4.1016 14.973-2.8359 22.637 1.2617 7.6602 4.7188 14.789 9.9531 20.523l16.078 21.656v12.906c-13.336 1.5781-25.859 7.2461-35.84 16.23-18.176 16.641-27.391 45.211-27.391 84.891 0 46.539 20.941 83.199 46.078 110.44-0.26953 0.26953-0.49219 0.58203-0.66797 0.91797-4.1758 9.9062-6.6328 20.453-7.2695 31.184-2.3086-3.9492-5.9336-6.957-10.238-8.5-1.6641-0.53906-3.3828-0.88281-5.1211-1.0234 0.58203-0.035156 1.1562-0.17188 1.6875-0.41016 6.5273-2.9609 11.102-9.0352 12.137-16.129 2.3555-18.738-21.965-40.961-22.988-42.086-0.9375-0.82422-2.2148-1.1484-3.4297-0.87109-1.2227 0.25781-2.2383 1.1016-2.7148 2.2539 0 0-0.25781 0.61328-0.51172 1.332 1.793-16.844-10.238-38.297-10.598-39.32v-0.003906c-0.60156-1.1055-1.7188-1.8359-2.9727-1.9453-0.58594-0.14844-1.2031-0.14844-1.7891 0-0.35938-16.488-12.594-35.531-13.262-36.504-0.64844-1.0781-1.8125-1.7422-3.0742-1.7422-1.2383-0.070312-2.4336 0.48828-3.1719 1.4844-4.2109 5.8867-7.8125 12.18-10.754 18.793-0.070312-1.7383-0.36328-3.457-0.87109-5.1211-1.1523-3.5664-3.0742-6.832-5.6289-9.5742 1.2188 0.19531 2.4492 0.3125 3.6836 0.35938 5.3594 0.15234 10.543-1.9023 14.336-5.6836 13.363-13.363 7.9375-46.078 7.7305-47.309h0.003907c-0.20703-1.2383-1.0117-2.293-2.1523-2.8164-1.1016-0.59375-2.4297-0.59375-3.5312 0-6.2969 3.707-12.199 8.0469-17.613 12.953 2.0039-9.3984 5.082-18.539 9.1641-27.238 1.6797 0.37109 3.3984 0.5625 5.1211 0.5625 3.9219 0.035156 7.7539-1.1641 10.957-3.4297 15.359-10.699 16.078-43.727 16.078-45.16h-0.003906c-0.011719-1.2305-0.59766-2.3867-1.5859-3.1211-1.0195-0.75-2.3438-0.94141-3.5312-0.51172-1.332 0.46094-32.461 11.469-37.684 29.645-1.7383 6.4609-0.20703 13.359 4.0938 18.484-2.6445 5.5039-4.8711 11.203-6.6562 17.047-5.1133-9.5742-11.793-18.227-19.762-25.598-0.94141-0.81641-2.2148-1.1406-3.4297-0.87109-1.2383 0.25781-2.2578 1.125-2.7148 2.3047-0.51172 1.2812-12.902 31.898-2.7656 47.82 4.0078 5.9766 10.777 9.5078 17.973 9.3672 0.49219-0.039063 0.97656-0.16016 1.4336-0.35547-0.49609 1.4414-0.82031 2.9375-0.97266 4.4531-0.4375 4.0273 0.44531 8.0859 2.5078 11.57-7.2617-4.8164-15.105-8.6875-23.348-11.52-1.1797-0.40625-2.4883-0.19531-3.4805 0.5625-1.0273 0.72266-1.6055 1.9219-1.5352 3.1758 0 1.3828 1.0742 34.406 16.793 44.902 3.1602 2.125 6.8906 3.25 10.699 3.2266 2.5117-0.0625 5-0.51172 7.375-1.332 1.0234 3.8398 2.2031 7.7812 3.5859 11.727l-0.003906-0.003906c-9.9102-3.8633-20.398-6.043-31.027-6.4492-1.2461-0.042969-2.4336 0.53125-3.1719 1.5352-0.76172 0.99219-0.98828 2.2891-0.61719 3.4805 0.46094 1.332 10.855 32.719 28.875 38.246l0.003907 0.003906c1.832 0.60156 3.75 0.91406 5.6836 0.91797 5.1172-0.082032 10.059-1.8828 14.027-5.1172 0.18359-0.18359 0.33594-0.39062 0.46094-0.61719 0.92188 1.6914 1.8945 3.3789 2.8672 5.1211 0.94531 2.8672 2.5586 5.4648 4.7109 7.5781l1.332 2.0469c-11.598 0.46484-22.996 3.1406-33.59 7.8867-1.1445 0.5-1.9727 1.5312-2.207 2.7617-0.23828 1.2266 0.14844 2.4922 1.0312 3.3828 0.92188 0.97266 21.453 21.965 39.426 21.965h-0.003906c1.1094 0.078125 2.2227 0.078125 3.3281 0 5.2734-0.87109 9.9688-3.8477 13.008-8.2461 3.9414 4.5039 8.1406 9.0117 12.543 13.516v0.003906c-10.883 2.6211-21.199 7.1836-30.465 13.465-1.0078 0.71875-1.6016 1.8867-1.5859 3.1211-0.019532 1.2656 0.62109 2.4492 1.6875 3.125 9.5078 6.4922 20.156 11.133 31.387 13.672-12.75 3.6367-16.027 7.168-16.793 8.4492v-0.003906c-0.40234 0.60938-0.61719 1.3203-0.61328 2.0508v14.438l-39.68 7.7305c-1.793 0.36328-3.0781 1.9375-3.0781 3.7617 0 1.8281 1.2852 3.4023 3.0781 3.7656l18.484 4.3516-17.766 16.539h-0.003906c-1.1602 1.0703-1.5391 2.7461-0.96484 4.2148 0.57812 1.4727 1.9961 2.4375 3.5742 2.4375h0.71875l59.801-10.805v0.003906c0.30859-0.074219 0.60156-0.19531 0.87109-0.35938h0.56641-0.003906c0.24609-0.16016 0.46875-0.34766 0.66797-0.5625l0.25781-0.30859h-0.003906c0.16797-0.21875 0.30469-0.46094 0.41016-0.71484v-0.35938c0.078125-0.39062 0.078125-0.78906 0-1.1758v-19.254c18.688-5.6836 51.918-12.082 107.52-12.082 55.602 0 88.73 6.3984 107.52 12.082v18.895c-0.078124 0.38672-0.078124 0.78906 0 1.1758v0.35937c0.10547 0.25391 0.24609 0.49609 0.41016 0.71484l0.25781 0.30859c0.19531 0.21484 0.41797 0.40234 0.66406 0.5625h0.30859c0.26953 0.16406 0.5625 0.28516 0.86719 0.35938l59.801 10.805h0.71875c1.582 0 3-0.96875 3.5742-2.4375 0.57812-1.4727 0.19531-3.1445-0.96094-4.2188l-17.766-16.539 18.484-4.3516h-0.003907c1.7891-0.36328 3.0781-1.9375 3.0781-3.7617 0-1.8281-1.2891-3.4023-3.0781-3.7656l-40.039-7.7305v-14.078c0.003906-0.73047-0.21094-1.4414-0.61328-2.0508-0.76953-1.2812-4.043-4.8125-16.793-8.4492v0.003906c11.23-2.5391 21.879-7.1797 31.387-13.672 1.0664-0.67578 1.707-1.8594 1.6875-3.125 0.011718-1.2344-0.57813-2.4023-1.5859-3.1211-9.1602-6.4805-19.41-11.27-30.262-14.133 4.4023-4.5039 8.6016-9.0117 12.543-13.516h0.003906c3.0625 4.4219 7.7969 7.3984 13.105 8.2422 1.1094 0.078124 2.2188 0.078124 3.3281 0 17.973 0 38.504-20.992 39.426-21.965 0.87891-0.88672 1.2656-2.1523 1.0312-3.3828-0.23438-1.2266-1.0625-2.2617-2.2109-2.7617-10.59-4.7422-21.992-7.418-33.586-7.8828l1.332-2.0469c2.1758-1.9922 3.8594-4.4648 4.9141-7.2188zm6.8086-157.75v-0.003906c-3.957 1.6992-8.4961 1.332-12.133-0.97266-8.3438-5.7344-11.52-22.578-12.441-33.125 9.6758 4.25 24.629 12.594 27.391 22.375 1.0039 4.1016-0.046875 8.4336-2.8164 11.621zm40.652 67.992c-1.0742 10.238-4.5039 27.289-12.953 32.922-3.6562 2.2617-8.1914 2.5859-12.133 0.86719-2.793-3.2773-3.7891-7.7227-2.6641-11.879 2.9688-9.8281 18.023-17.918 27.75-22.016zm-7.0625-62.363c3.2266 10.238 6.8594 26.777 1.3828 35.328h-0.003906c-2.4336 3.543-6.4492 5.668-10.75 5.6836-3.8711-1.8711-6.5703-5.5312-7.2188-9.7812-1.2305-10.086 9.3164-23.602 16.59-31.23zm-23.246 65.074c-4.1992 0.89453-8.5742-0.30859-11.727-3.2227-7.2188-7.168-7.2695-24.32-6.2969-34.816 8.7539 5.8867 21.965 16.793 22.938 26.879 0.31641 4.3047-1.5234 8.4883-4.9141 11.16zm-341.96-82.637c2.7656-9.7773 17.715-18.125 27.391-22.375-0.92188 10.547-4.043 27.34-12.441 33.125v0.003906c-3.6172 2.3398-8.1602 2.7422-12.133 1.0742-2.8398-3.2344-3.8906-7.6602-2.8164-11.828zm10.496 44.34c1.0234 10.238 0.92188 27.598-6.2969 34.766-3.1289 2.957-7.5156 4.1836-11.727 3.2773-3.4648-2.6289-5.3867-6.8203-5.1211-11.164 1.1797-10.086 14.391-20.992 23.145-26.879zm-31.898 14.234c-4.3008-0.015625-8.3164-2.1406-10.75-5.6836-5.4766-8.5508-1.8438-25.293 1.3828-35.328 7.2695 7.6289 17.816 21.145 16.59 31.23h-0.003906c-0.64844 4.25-3.3477 7.9102-7.2188 9.7812zm8.6523 55.039c-3.9414 1.7188-8.4766 1.3945-12.133-0.87109-8.4492-5.6328-11.879-22.426-12.953-32.922 9.7266 4.043 24.781 12.188 27.75 21.914 1.125 4.1562 0.12891 8.6016-2.6641 11.879zm41.73 19.559c4.4531 9.625 10.238 25.602 5.6836 34.918h-0.003906c-2.0039 3.8086-5.7188 6.4219-9.9805 7.0156-4.0859-1.4062-7.2109-4.7422-8.3477-8.9102-2.2539-9.8281 6.5547-24.523 12.648-33.023zm-28.414 26.523h-0.003906c-3.3242 2.7383-7.7734 3.6953-11.93 2.5586-9.4727-2.8164-17.562-18.176-21.555-27.852 10.496 1.125 27.238 4.6602 32.82 13.105 2.2695 3.6719 2.5977 8.2266 0.86719 12.188zm9.1094-5.3789c0.027344-0.13281 0.027344-0.27344 0-0.40625-0.027343-3.4883-1.0391-6.8945-2.918-9.832 0.76953 0.30859 1.4336 0.66406 2.2031 0.92188 0.39062 0.050781 0.78516 0.050781 1.1758 0 0.28906 0.050781 0.58203 0.050781 0.87109 0 0.87109 0 1.6367-0.51172 2.4062-0.76953-1.5508 3.2422-2.8008 6.6172-3.7383 10.086zm0.61328-16.742c-4.1602-1.1172-7.4961-4.2227-8.9062-8.293-3.125-9.6758 4.7109-24.883 10.238-33.793 5.1211 9.2656 11.727 25.035 7.9375 34.457-1.7344 3.8008-5.1797 6.5391-9.2695 7.375zm12.188 70.043c-10.238 1.6367-23.91-8.4492-31.848-15.359 9.9336-3.6367 26.523-7.832 35.277-2.6641 3.6484 2.2969 5.9258 6.2422 6.0938 10.547-1.8359 3.793-5.375 6.4766-9.5234 7.2188zm15.105-15.77c-1.5742-3.7422-4.3008-6.8828-7.7852-8.9609l-1.332-0.66406c5.125-1.2734 9.5391-4.5078 12.289-9.0117-1.7422 5.9883-2.8086 12.152-3.1719 18.379zm221.39 52.734h-0.003906c1.1797 2.1719 2.7617 4.1016 4.6602 5.6836l-9.8828-1.3828zm-80.488-333.46 1.0742-1.793v-0.35938l0.82031-1.4844v-0.41016l0.71875-1.332v-0.30859l0.66406-1.332c0.71875-1.332 1.125-2.2539 1.1758-2.3047v0.007813c0.23047-0.48438 0.37109-1.0039 0.41016-1.5391v-7.4766-0.51172-2.7148-1.0234-3.0195-0.76953c9.0117 5.9922 19.969 6.8594 30.719 7.6797 15.359 1.2305 28.93 2.2539 35.84 18.328v0.003906c2.3359 5.3398 3.2109 11.203 2.5234 16.992-0.68359 5.7852-2.8984 11.285-6.4141 15.93-1.8164-0.68359-3.7422-1.0312-5.6836-1.0234-0.57812-0.046876-1.1602-0.046876-1.7422 0 1.8438-3.9805 2.1562-8.5 0.87109-12.695-0.97266-1.6914-3.0703-5.1211-16.742 0.5625 2.918-11.93-0.41016-13.875-1.8438-14.746-1.4336-0.87109-4.6094-2.6094-17.152 6.0938 0.69922-4.5781-0.12891-9.2539-2.3516-13.312-1.2109-1.3984-2.9648-2.2031-4.8164-2.2031-5.1211 0-11.418 5.6836-16.281 10.699-0.51172-1.793-1.2305-3.7383-1.9961-5.6836zm-20.48-35.02c0-2.2539 0-4.5586 0.25781-6.7578h-0.003907c-0.10156-2.4648 0.82422-4.8555 2.5625-6.6055 1.7422-1.2227 3.875-1.7539 5.9883-1.4844h1.1797c2.125-0.27344 4.2812 0.25781 6.0391 1.4844 1.7422 1.7656 2.6719 4.1758 2.5625 6.6562 0 2.1523 0 4.4531 0.25781 6.707 0 9.9336 0 19.969-0.25781 22.836-0.41016 0.92188-1.2812 2.5586-2.3555 4.5039-1.3945-2.4492-3.9922-3.9609-6.8125-3.9609-2.8164 0-5.4141 1.5117-6.8086 3.9609-1.0742-1.9453-1.9453-3.5859-2.3555-4.5039-0.30469-2.8672-0.66406-12.902-0.46094-22.836zm-70.195 67.379c-3.5234-4.6445-5.7422-10.141-6.4336-15.926-0.69531-5.7852 0.16406-11.652 2.4883-16.996 6.6562-16.078 20.07-17.102 35.84-18.328 10.648-0.82031 21.605-1.6914 30.719-7.6797v0.82031 2.9688 1.0234 2.7148 0.51172 7.4766l0.003906-0.003907c0.039063 0.53125 0.17969 1.0547 0.41016 1.5352l1.0234 1.8438v0.51172l0.30859 0.51172 0.46094 0.97266 0.25781 0.46094 0.66406 1.2305 0.25781 0.46094 0.82031 1.4336 0.25781 0.41016 0.82031 1.4336 0.35938 0.5625c-0.76953 1.9453-1.4844 3.8906-1.9961 5.6836-5.1211-5.1211-11.367-10.699-16.281-10.699l-0.011718-0.003906c-1.8477 0-3.6055 0.80469-4.8125 2.2031-2.4219 3.9375-3.4805 8.5586-3.0195 13.156-12.543-8.7031-15.82-6.8594-17.203-6.043-1.3828 0.82031-4.7109 2.7656-1.793 14.695-13.672-5.8867-15.77-2.2539-16.742-0.51172v0.003906c-1.2773 4.1758-0.96875 8.6797 0.87109 12.645-2.4609-0.28516-4.957 0.03125-7.2695 0.92188zm5.1211 6.6562h2.6133l1.2812 0.35938h0.71875-0.007813c0.78516 0.23828 1.5547 0.52734 2.3047 0.86719 0.44531 0.22266 0.93359 0.34375 1.4336 0.35938h0.46094c0.28906 0.050781 0.58203 0.050781 0.87109 0h0.41016c0.41797-0.16016 0.80078-0.40234 1.125-0.71484 1.1562-1.1172 1.4844-2.8398 0.82031-4.3008-1.6836-3.7578-3.0039-7.668-3.9453-11.676 4.9688 1.5078 9.7734 3.5156 14.336 5.9922 1.3906 0.75781 3.1055 0.57422 4.3008-0.46094 1.1836-1.0469 1.6289-2.6992 1.1289-4.1992-1.5703-4.2344-2.6719-8.6328-3.2773-13.105 5.1172 2.7109 9.9688 5.8984 14.488 9.5234 1.2109 0.98438 2.9062 1.1289 4.2617 0.35938 1.3594-0.76953 2.1094-2.2969 1.8828-3.8438-0.8125-5.0117-0.70703-10.129 0.30859-15.102 5.5547 3.5117 10.457 7.9648 14.488 13.156 0.92578 1.1328 2.4219 1.6289 3.8398 1.2812 1.4336-0.35156 2.543-1.4805 2.8672-2.918v-0.35938c1.0273-4.3516 2.3945-8.6133 4.0977-12.75 0.73047-1.9102 1.8438-3.6523 3.2773-5.1172 0.75 0.72656 1.3711 1.5742 1.8398 2.5078 0.41016 0.71875 0.87109 1.5859 1.4336 2.7656 1.7773 4.2383 3.1797 8.625 4.1992 13.105 0.3125 1.4336 1.4141 2.5664 2.8438 2.918 1.4258 0.34766 2.9258-0.14844 3.8633-1.2812 4.0156-5.207 8.9219-9.6602 14.492-13.156 1.0156 4.9727 1.1211 10.094 0.30469 15.105-0.22266 1.543 0.52344 3.0703 1.8828 3.8398s3.0508 0.62891 4.2617-0.35938c4.5195-3.625 9.3711-6.8125 14.488-9.5234-0.60547 4.4766-1.7031 8.8711-3.2734 13.105-0.5 1.5-0.058593 3.1523 1.125 4.1992 1.1953 1.0391 2.9102 1.2227 4.3008 0.46094 4.5312-2.4688 9.3008-4.4727 14.234-5.9883-0.82031 4.0273-2.1094 7.9453-3.8398 11.672-0.66797 1.4609-0.33984 3.1875 0.81641 4.3008 1.1484 1.1094 2.8594 1.3945 4.3008 0.71484 0.75-0.33984 1.5195-0.62891 2.3047-0.86719h0.66406l1.2812-0.30859h2.6641l-11.059 15c-7.0156-6.8086-25.602-20.172-63.18-20.48-37.582 0.51172-56.32 13.875-63.078 20.48zm100.35 88.781c5.7852 4.7617 12.941 7.5586 20.426 7.9844 7.4844 0.42188 14.91-1.5508 21.199-5.6289 21.633 32.691 25.07 74.168 9.1133 109.98-2.1562 4.7578-4.5469 9.4062-7.168 13.926l-5.8906-82.535c-0.10547-2.0117-1.7734-3.5859-3.7852-3.582h-20.48c-1.9453 0.097656-3.5078 1.6406-3.6367 3.582l-5.6328 76.801-1.2812 0.61328h0.003907c-0.94531 0.42969-1.9219 0.78906-2.9219 1.0781-0.42187-0.50391-0.78125-1.0547-1.0742-1.6406-1.8594-3.3203-4.5625-6.0938-7.832-8.0391l-5.1211-81.922v0.003907c-0.10938-2.0312-1.8047-3.6133-3.8398-3.5859h-20.48c-2.0234-0.003906-3.7031 1.5664-3.8398 3.5859l-5.5273 87.859c-5.4258 0.51172-6.6055-0.41016-8.6523-2.0977l-0.003906-0.003906c-0.85156-0.72656-1.7383-1.4102-2.6602-2.0469l-4.9688-70.605c-0.15625-2.0078-1.8242-3.5625-3.8398-3.582h-20.48 0.003906c-2.0273-0.003906-3.707 1.5625-3.8438 3.582l-5.1211 74.293-2.0469 1.5352c-1.8438-3.6367-3.5859-7.3203-5.1211-11.367h0.003906c-13.859-34.895-9.7656-74.363 10.957-105.68 6.2891 4.082 13.711 6.0547 21.195 5.6289 7.4844-0.42188 14.641-3.2188 20.43-7.9844 8.0391-6.6055 11.008-20.84 6.9648-33.945h-0.003906c-0.50391-1.5859-1.1016-3.1445-1.7891-4.6602 6.1953-0.25781 13.105-0.46094 20.891-0.46094 7.7812 0 14.695 0 20.891 0.46094h-0.003906c-0.6875 1.5156-1.2891 3.0742-1.793 4.6602-4.2461 12.953-1.2773 27.188 6.7617 33.793zm-72.141 117.45c4.0938 0.41406 7.9609 2.0977 11.059 4.8125 3.5859 2.9688 6.6055 5.1211 16.23 3.6367v-0.003906c5.5508-0.53906 10.789-2.8359 14.949-6.5508 3.1758-2.5586 5.1211-3.9414 12.391-1.9453 4.3789 0.71875 8.168 3.4453 10.238 7.3711 2.457 4.043 5.375 7.4258 13.773 3.5312 1.5859-0.66406 3.0195-1.3828 4.3516-2.0469 8.8594-4.3008 12.902-6.2461 21.195-0.41016h0.003906c2.9258 2.0781 5.6055 4.4844 7.9844 7.168-17.691 25.559-40.133 47.477-66.098 64.562-31.949-22.426-55.398-46.336-69.785-71.32 5.8867-4.6602 15.051-10.344 23.707-8.8047zm-17-4.3516 4.6094-65.434h13.312l4.1953 63.18c-1.3125-0.38281-2.6445-0.69141-3.9922-0.92188-6.3086-0.9375-12.75 0.17578-18.383 3.1758zm49.406 3.5859 5.1211-81.613h13.262l4.7109 74.648v-0.003906c-3.0664-1.1289-6.3867-1.3867-9.5898-0.73438-3.1992 0.65234-6.1562 2.1836-8.5352 4.4219-1.5859 1.3242-3.3438 2.4258-5.2227 3.2773zm52.07 0.30859 4.8633-69.324 13.059-0.003906 5.1211 71.68c-3.2266-2.6328-7.1523-4.2578-11.297-4.6758-4.1406-0.42188-8.3125 0.38672-12 2.3203zm-38.398-163.74c-9.832 0-18.379 0.30859-25.602 0.71875v-0.003906c-4.0352-4.543-9.6602-7.3672-15.719-7.8828-6.0039-0.60156-12.043-0.78906-18.07-0.5625v-12.188l0.61328-0.66406 0.46094-0.46094 0.76953-0.71875 0.66406-0.61328 0.97266-0.87109 0.87109-0.66406c0.375-0.36328 0.78906-0.69141 1.2266-0.97266l0.97266-0.76953 1.5859-1.0234 1.0742-0.76953 2.2031-1.2812 0.92187-0.5625 3.5859-1.793 1.0234-0.46094 3.0195-1.332 1.6914-0.61328 2.918-1.0742 1.9961-0.66406c1.0234-0.30859 2.0469-0.61328 3.1758-0.87109l2.2539-0.61328 3.4297-0.76953 2.5078-0.51172 3.8906-0.61328 2.6094-0.35938c1.4844 0 3.0703-0.35937 4.7109-0.46094h2.3555c2.457 0 5.1211-0.30859 7.6797-0.35938 2.5586-0.050781 5.1211 0 7.6797 0.35938h2.4062c1.5859 0 3.1758 0.25781 4.7109 0.46094l2.5586 0.35938 3.9414 0.61328 2.457 0.51172 3.4805 0.76953 2.3047 0.61328 3.125 0.87109 1.9961 0.66406c1.0234 0.30859 1.9961 0.66406 2.918 1.0234l1.6914 0.66406 2.9688 1.2812 1.125 0.51172c1.2812 0.61328 2.457 1.1758 3.5312 1.793l1.0742 0.61328 2.0469 1.2305 1.1758 0.76953 1.4844 1.0234 1.0742 0.82031h0.011719c0.39844 0.26172 0.77344 0.55078 1.125 0.87109l0.97266 0.76953 0.87109 0.76953 0.76953 0.66406 1.6875 1.6875 0.41016 0.46094v11.879c-6.0273-0.22656-12.066-0.039063-18.07 0.5625-6.0586 0.51562-11.684 3.3398-15.719 7.8828-7.2227-0.40625-15.77-0.71484-25.602-0.71484zm-122.88 94.105c0-37.426 8.3438-64.102 24.883-79.258 12.094-10.312 27.641-15.672 43.52-15 5.1211 0 9.2656 0.35938 12.391 0.61328 3.7734 0.58984 7.2852 2.2969 10.086 4.8945 2.8008 2.6016 4.7617 5.9766 5.6328 9.6953 3.0195 9.8828 1.0742 21.195-4.5039 25.602h-0.003906c-5 3.9961-11.211 6.1719-17.613 6.1719-6.3984 0-12.609-2.1758-17.609-6.1719-0.78906-0.66406-1.8125-0.97656-2.8359-0.87109-1.0234 0.10547-1.957 0.625-2.5938 1.4336-24.184 33.828-29.527 77.625-14.18 116.28 2.2305 5.5742 4.793 11.012 7.6797 16.281 15.359 27.547 40.652 53.863 75.879 78.234l-0.003906-0.003907c1.3125 0.95703 3.0938 0.95703 4.4062 0 32.102-22.168 56.32-46.078 71.68-70.758 3.8789-6.1562 7.3008-12.59 10.238-19.25 17.465-39.59 12.715-85.457-12.492-120.63-0.63281-0.80469-1.5664-1.3242-2.5859-1.4375-1.0195-0.11719-2.043 0.17969-2.8398 0.82422-4.9961 4.0078-11.211 6.1875-17.613 6.1875-6.4062 0-12.617-2.1797-17.613-6.1875-5.582-4.5586-7.5273-15.871-4.5039-25.602v0.003906c0.86719-3.7227 2.8281-7.0977 5.6289-9.6953 2.8008-2.6016 6.3125-4.3047 10.086-4.8984 10.957-0.92188 36.66-3.1758 55.91 14.387 16.539 15.359 24.883 41.832 24.883 79.258-0.15234 103.12-108.95 156.01-123.03 162.41-14.078-6.3984-122.88-59.188-122.88-162.51zm204.8 155.09c-2.3984 3.5664-6.4062 5.7148-10.703 5.7344-3.8906-1.8594-6.6094-5.5195-7.2695-9.7812-1.2812-10.238 9.1641-23.602 16.434-31.281 3.125 10.086 6.6562 26.777 1.5391 35.328zm-25.602-3.0703v-0.003906c0.34766 2.7891 1.3086 5.4648 2.8164 7.8359-10.238-0.61328-21.812-1.125-34.969-1.3828 13.047-7.625 25.461-16.289 37.117-25.91-3.6406 5.832-5.375 12.648-4.9648 19.508zm-117.3-19.457v-0.003907c11.656 9.6211 24.07 18.285 37.121 25.91-13.16 0-24.781 0.76953-34.969 1.3828 1.3906-2.3828 2.25-5.0391 2.5078-7.7852 0.44531-6.8242-1.2344-13.625-4.8125-19.453zm-2.6641 18.484 0.003906-0.003906c-0.66016 4.2617-3.3828 7.9219-7.2695 9.7812-4.4062 0.082031-8.5547-2.0781-11.012-5.7344-5.4258-8.6016-1.7422-25.293 1.5352-35.328 7.4258 7.7305 17.871 21.297 16.59 31.332zm-27.957 6.9648 5.1211 4.3008-9.8828 1.3828 0.003906-0.003906c1.875-1.5742 3.4375-3.4844 4.6094-5.6328zm-27.695-38.25c-5.4258-8.6016-1.7422-25.344 1.5352-35.379 7.2695 7.7305 17.715 21.246 16.434 31.336l0.003906-0.003907c-0.66797 4.2578-3.3867 7.9141-7.2695 9.7812-4.2891-0.0625-8.2773-2.2031-10.703-5.7344zm-19.609 31.336c9.0117-5.4766 24.473-12.902 34.047-9.5742v-0.003906c4.0078 1.5469 7.0078 4.9453 8.0391 9.1133-0.84375 4.3008-3.7852 7.8945-7.832 9.5742-9.5234 3.2773-25.141-3.7891-34.254-9.1133zm-19.812 74.699 13.465-12.543v-0.003906c1.0547-0.94922 1.4922-2.4141 1.125-3.7891-0.38672-1.3711-1.4805-2.4258-2.8672-2.7617l-8.0391-1.8945 20.992-4.043v7.1172-0.003906c0.046875 0.39062 0.15234 0.76953 0.30859 1.125v0.41016c0.23828 0.39844 0.55078 0.74609 0.92188 1.0234l11.469 7.9375zm43.777-12.031-7.9375-5.582c1.9961-0.97266 4.6602-2.1523 8.0391-3.4297zm-11.574-12.598v-21.043c2.7148-1.8945 13.262-7.4258 48.59-11.008 6.9102 5.1211 14.184 10.598 21.914 15.871-40.191 3.9414-61.184 11.625-70.504 16.18zm175.05-16.895c-13.977-1.125-30.004-1.8438-48.539-1.8438s-34.559 0.71875-48.539 1.8438c0.61719-1.6289 0.046874-3.4648-1.3828-4.457-5.7344-3.8398-11.16-7.7305-16.488-11.672 14.848-1.1758 33.23-1.9453 56.062-2.1523 5.375 2.7656 8.6523 4.1484 8.8594 4.25h0.003906c0.94531 0.41016 2.0234 0.41016 2.9688 0 0 0 3.4805-1.4844 8.8594-4.25 22.836 0 41.266 0.97266 56.32 2.1523-5.2891 3.8906-10.82 7.7812-16.59 11.672-1.4844 0.94922-2.1211 2.793-1.5352 4.457zm106.65 20.48-8.0391 1.8945c-1.3867 0.33203-2.4805 1.3906-2.8672 2.7617-0.36328 1.375 0.070312 2.8398 1.125 3.7891l13.312 12.598-37.785-6.8594 11.469-7.9375c0.96875-0.72656 1.5352-1.8633 1.5352-3.0742 0-1.207-0.56641-2.3477-1.5352-3.0703l-6.7578-5.7344zm-40.09 8.9609v-13.312l8.8594 7.168zm11.418-33.637v11.367l-14.539-2.8164-0.003906-0.003906c-0.47266-0.078125-0.95703-0.078125-1.4336 0h-0.35937 0.003906c-0.17188-0.023438-0.34375-0.023438-0.51172 0l-0.61328 0.41016h-0.003906c-0.35938 0.3125-0.65625 0.69531-0.86719 1.125l-0.66797 0.76953c-0.20312 0.46875-0.30859 0.97266-0.30859 1.4844v1.6367c-16.754-4.5781-33.891-7.6289-51.199-9.1133 7.7305-5.1211 15-10.598 21.914-15.871 35.328 3.6328 45.875 9.1641 48.59 11.059zm12.391-29.031c-9.1133 5.1211-24.73 12.391-34.254 8.8594v-0.003907c-3.9805-1.6328-6.9102-5.1172-7.832-9.3203 1.0312-4.168 4.0312-7.5703 8.0391-9.1133 9.625-3.3281 25.035 4.1484 34.047 9.625zm-19.609-31.285c-2.4258 3.5312-6.4141 5.6719-10.703 5.7344-3.8828-1.8672-6.6016-5.5234-7.2695-9.7812-1.2812-10.238 9.1641-23.602 16.434-31.336 3.2773 10.039 6.9648 26.781 1.5391 35.383zm38.453-52.684-0.003906-0.003906c-0.015625 0.17187-0.015625 0.34375 0 0.51172-1.082-3.375-2.4727-6.6484-4.1445-9.7773 0.76953 0.25781 1.5352 0.5625 2.4062 0.76953 0.28516 0.050781 0.58203 0.050781 0.86719 0 0.39453 0.046875 0.78906 0.046875 1.1797 0 0.76953 0 1.4336-0.61328 2.2031-0.92188-1.6602 2.8594-2.5273 6.1133-2.5117 9.418zm42.395-18.945c-3.9961 9.6758-12.086 25.035-21.766 27.852-4.1562 1.1367-8.6016 0.17969-11.926-2.5586-1.7305-3.9609-1.4023-8.5156 0.86719-12.188 5.582-8.5508 22.121-11.98 32.82-13.105zm-61.906-1.2305c6.2969 8.5 15.359 23.141 12.699 33.023-1.1797 4.1602-4.3125 7.4883-8.3984 8.9102-4.3555-0.51562-8.1836-3.1367-10.238-7.0156-4.3008-9.1641 1.2812-25.344 5.9375-34.918zm-8.6016 58.418c-0.34375-6.3125-1.4102-12.562-3.1719-18.637 2.75 4.5039 7.1641 7.7422 12.289 9.0117-0.46094 0.19141-0.90625 0.41406-1.332 0.66797-3.4844 2.0781-6.2109 5.2188-7.7852 8.957zm46.949 0.30859c-7.8867 7.0156-21.762 17.051-31.848 15.359h0.003907c-4.2227-0.81641-7.7773-3.6484-9.5234-7.5781 0.18359-4.3008 2.4609-8.2383 6.0938-10.547 8.7539-5.0664 25.344-0.81641 35.277 2.7656zm-29.129-62.207c-3.7891-9.4219 2.918-25.191 7.9883-34.457 5.6836 8.8594 13.516 24.113 10.238 33.793v-0.003906c-1.4297 4.0625-4.7578 7.1602-8.9102 8.2969-4.1641-0.875-7.6406-3.7188-9.3164-7.6289z" fill="#443f3c"/>
</svg>
