<?xml version="1.0" encoding="UTF-8"?>
<svg width="512pt" height="512pt" version="1.1" viewBox="0 0 512 512" xmlns="http://www.w3.org/2000/svg">
 <g fill="#443f3c">
  <path d="m70.809 295.78v16.539c-3.5586 0.67578-6.7656 2.5859-9.0508 5.3984-2.2852 2.8086-3.5039 6.3398-3.4414 9.9609v15.871c-0.0625 3.625 1.1562 7.1523 3.4414 9.9609 2.2852 2.8125 5.4922 4.7227 9.0508 5.3984v37.172c0 1.6992 0.67578 3.3281 1.875 4.5273 1.1992 1.1992 2.8281 1.875 4.5273 1.875h105.16c1.6953 0 3.3242-0.67578 4.5234-1.875 1.2031-1.1992 1.875-2.8281 1.875-4.5273v-37.375c3.6445-0.57812 6.9609-2.4492 9.3359-5.2695 2.3789-2.8203 3.6641-6.4023 3.6172-10.09v-15.668c0.046876-3.6875-1.2383-7.2695-3.6172-10.09-2.375-2.8203-5.6914-4.6914-9.3359-5.2695v-16.18l20.48-26.316c7.332-9.3867 11.316-20.957 11.316-32.871v-39.219c-0.003906-0.67578-0.10547-1.3516-0.30859-1.9961-0.90234-7.2227-3.9336-14.012-8.7031-19.508v-35.84c0-6.6172-2.5586-12.977-7.1406-17.746-4.5859-4.7695-10.836-7.5781-17.445-7.8398-6.6094-0.26172-13.066 2.043-18.012 6.4375-4.4102-6.7734-11.762-11.066-19.824-11.582-8.0664-0.51172-15.902 2.8125-21.137 8.9688-4.2188-4.6875-10.02-7.6523-16.289-8.3281-6.2695-0.67578-12.566 0.98828-17.688 4.668-5.1211 3.6836-8.6992 9.125-10.055 15.285-5.1953-3.25-11.387-4.5234-17.441-3.5977-6.0586 0.92578-11.582 3.9961-15.566 8.6484-3.9883 4.6523-6.1719 10.582-6.1602 16.707v74.242c-0.046875 18.766 5.2812 37.156 15.359 52.992zm105.16 93.645h-92.16v-30.719h92.16zm12.957-61.746v15.871c0 1.4414-1.1719 2.6133-2.6133 2.6133h-112.64c-0.6875 0-1.3477-0.27734-1.8281-0.76953-0.48047-0.49219-0.74609-1.1562-0.73047-1.8438v-15.871c-0.015626-0.6875 0.25-1.3516 0.73047-1.8438 0.48047-0.49219 1.1406-0.76563 1.8281-0.76563h112.64c1.4414 0 2.6133 1.168 2.6133 2.6094zm-15.77-187.29c-0.46875-3.6758 0.66797-7.375 3.1172-10.152 2.4492-2.7812 5.9766-4.3711 9.6797-4.3711 3.707 0 7.2305 1.5898 9.6797 4.3711 2.4492 2.7773 3.5859 6.4766 3.1211 10.152v26.367l-22.785-10.238c-0.82031-0.36719-1.7109-0.5625-2.6094-0.5625h-0.35938zm-38.555-4.6602v-0.61328c-0.46484-3.6758 0.67188-7.375 3.1211-10.152 2.4492-2.7812 5.9727-4.3711 9.6797-4.3711 3.7031 0 7.2305 1.5898 9.6797 4.3711 2.4492 2.7773 3.5859 6.4766 3.1172 10.152v21.043h-25.602zm-38.504 16.281v-16.281c-0.32031-3.5938 0.88281-7.1562 3.3164-9.8164 2.4336-2.6641 5.875-4.1797 9.4844-4.1797s7.0508 1.5156 9.4844 4.1797c2.4336 2.6602 3.6367 6.2227 3.3164 9.8164v20.48h-7.8867c-2.6914 0.015624-5.0859 1.7148-5.9883 4.25-0.30859 0.71875-6.6055 18.637 3.5859 30.719h-0.003906c2.3516 2.7695 5.2891 4.9727 8.6016 6.4531-2.9453 4.9766-8.8516 7.3711-14.43 5.8555-5.582-1.5195-9.4609-6.5742-9.4805-12.359zm-38.555 34.098v-34.098c-0.46484-3.6758 0.67188-7.3711 3.1211-10.152 2.4492-2.7773 5.9766-4.3711 9.6797-4.3711 3.707 0 7.2305 1.5938 9.6797 4.3711 2.4492 2.7812 3.5859 6.4766 3.1211 10.152v48.641c-0.81641 6.4492-6.3008 11.281-12.801 11.281-6.4961 0-11.98-4.832-12.801-11.281zm0 36.609c3.8828 2.3398 8.3242 3.5781 12.852 3.5859 4.8711 0 9.6367-1.3867 13.746-3.9961 4.1055-2.6133 7.3867-6.3398 9.4492-10.75 5.1953 3.9883 11.734 5.8008 18.242 5.0547 6.5039-0.74609 12.465-3.9883 16.625-9.0469 2.5859 2.8906 5.7891 5.1641 9.3711 6.6562-2.2188 2.1289-4.1914 4.5-5.8906 7.0625-7.9375 12.238-8.7031 27.801-2.2031 46.336h0.003907c0.89062 2.5742 3.3164 4.3008 6.0391 4.3008 2.082 0.023437 4.0391-0.97266 5.2422-2.668 1.207-1.6953 1.5039-3.875 0.80078-5.8281-5.1211-14.594-4.8125-26.418 0.82031-35.125 9.7266-15.055 32.77-17.152 33.023-17.152 2.8438-0.25 5.1875-2.3281 5.7852-5.1211 0.51172-2.8633-0.95703-5.7148-3.5859-6.9609l-24.012-11.367c-1.1992-0.54688-2.5352-0.72656-3.8398-0.51172-14.539 2.457-24.473 1.0742-28.773-4.043v-0.003906c-2.75-4.1836-3.6211-9.3242-2.4062-14.18h53.352l21.555 9.5234c4.2227 1.8672 7.8125 4.9219 10.332 8.7969 2.5195 3.8711 3.8555 8.3945 3.8477 13.012v14.746c0.023437 1.2148 0.41406 2.3945 1.1289 3.3789l-1.125 0.71875v17.816h-0.003906c0 9.0547-3.0273 17.852-8.6016 24.984l-22.016 28.059c-0.86719 1.1328-1.3359 2.5195-1.332 3.9414v18.074h-92.16v-18.074c-0.003906-1.207-0.33984-2.3945-0.97266-3.4297l-11.621-18.176c-8.8047-13.754-13.477-29.746-13.465-46.078zm82.484-21.812v0.003906c3.4258-0.10547 6.8477-0.39453 10.242-0.87109l3.5312 1.6367c-1.8867 1.082-4.0195 1.6641-6.1953 1.6914-2.7266 0.019531-5.3828-0.83984-7.5781-2.457z"/>
  <path d="m441.6 126.67c-4.7852 0.027343-9.4688 1.3906-13.52 3.9414-1.3359-6.1758-4.9102-11.645-10.039-15.344-5.125-3.6992-11.441-5.3711-17.727-4.6914-6.2852 0.67578-12.098 3.6562-16.316 8.3633-5.2422-6.1523-13.082-9.4688-21.148-8.9453-8.0664 0.52344-15.41 4.8281-19.812 11.609-4.6562-4.1836-10.688-6.5156-16.945-6.5547-6.7891 0-13.301 2.6953-18.102 7.4961-4.8008 4.8008-7.5 11.312-7.5 18.102v35.844c-4.7812 5.5234-7.7969 12.352-8.6523 19.609-0.21094 0.64453-0.3125 1.3164-0.30859 1.9961v39.168c0 11.91 3.9844 23.48 11.316 32.871l20.48 26.367v16.488-0.003906c-3.1719 0.9375-5.957 2.875-7.9414 5.5234-1.9844 2.6484-3.0586 5.8633-3.0664 9.1719v16.18c0.007813 3.3359 1.0977 6.582 3.1133 9.2422 2.0117 2.6602 4.8398 4.5898 8.0469 5.5039v37.531-0.003907c0 1.6992 0.67578 3.3281 1.875 4.5273 1.1992 1.1992 2.8281 1.875 4.5273 1.875h104.91c1.6992 0 3.3281-0.67578 4.5273-1.875 1.1992-1.1992 1.875-2.8281 1.875-4.5273v-36.965c3.8828-0.27344 7.5195-2.0117 10.172-4.8633 2.6523-2.8516 4.1211-6.6016 4.1133-10.496v-16.129c0.007813-3.8945-1.4609-7.6445-4.1133-10.496-2.6523-2.8516-6.2891-4.5898-10.172-4.8633v-16.18l10.598-16.59c10.09-15.828 15.422-34.219 15.359-52.992v-74.238c0.015624-6.7891-2.6719-13.309-7.4609-18.117-4.793-4.8125-11.297-7.5195-18.086-7.5352zm-51.199 9.3711h-0.003906c-0.32031-3.5938 0.88281-7.1562 3.3164-9.8203 2.4375-2.6602 5.8789-4.1758 9.4844-4.1758 3.6094 0 7.0508 1.5156 9.4844 4.1758 2.4336 2.6641 3.6367 6.2266 3.3164 9.8203v55.398c-0.019531 5.7812-3.8984 10.84-9.4805 12.355-5.5781 1.5195-11.484-0.87891-14.43-5.8555 3.3086-1.4609 6.25-3.6484 8.6016-6.3984 10.238-12.188 3.8906-30.055 3.5859-30.719h-0.003906c-0.91797-2.5156-3.3086-4.1914-5.9883-4.1992h-8.0898zm-38.555 4.6602v-5.1211c0.81641-6.4492 6.3008-11.281 12.797-11.281 6.5 0 11.984 4.832 12.801 11.281v21.094h-25.602zm-38.555 0c0.81641-6.4492 6.3008-11.281 12.801-11.281 6.4961 0 11.98 4.832 12.801 11.281v15.82h-0.35938c-0.89844-0.015625-1.7852 0.16016-2.6133 0.51172l-22.785 10.238zm115.1 249.09h-92.16v-30.465h92.16zm14.285-62.105v16.18c0 1.4219-1.1367 2.582-2.5625 2.6094h-112.43c-1.4414 0-2.6094-1.168-2.6094-2.6094v-16.18c0-0.6875 0.27344-1.3477 0.76563-1.8281 0.49219-0.48047 1.1562-0.74609 1.8438-0.73047h112.64c1.332 0.10547 2.3594 1.2227 2.3555 2.5586zm11.777-101.17c0.011719 16.332-4.6641 32.324-13.469 46.082l-11.621 18.227c-0.62891 1.0352-0.96484 2.2188-0.97266 3.4297v18.074h-92.16v-18.074c0.003906-1.4258-0.46484-2.8125-1.332-3.9414l-22.016-28.059c-5.5781-7.1328-8.6094-15.93-8.6016-24.984v-17.766l-1.125-0.71875c0.70312-1.0078 1.0977-2.1992 1.125-3.4297v-14.746c-0.007812-4.6133 1.3281-9.1289 3.8477-12.996 2.5195-3.8633 6.1094-6.9102 10.336-8.7656l21.555-9.5234 53.145 0.003906c1.1875 4.8047 0.31641 9.8906-2.4062 14.027-4.3008 5.1211-14.285 6.5039-28.773 4.043-1.3086-0.19531-2.6445 0.003906-3.8398 0.56641l-24.012 11.367v-0.003907c-2.6719 1.1914-4.1836 4.0547-3.6602 6.9336 0.52344 2.875 2.9414 5.0234 5.8594 5.2031 0 0 23.141 1.9961 33.023 17.152 5.6328 8.7031 5.9375 20.48 0.82031 35.125v-0.003906c-1.1719 3.3359 0.58203 6.9922 3.918 8.168 3.3359 1.1719 6.9922-0.58203 8.1641-3.918 6.5039-18.535 5.7344-34.152-2.2031-46.336h0.003906c-1.6836-2.5742-3.6602-4.9453-5.8906-7.0664 3.582-1.4883 6.7852-3.7617 9.3711-6.6562 4.1719 5.0391 10.137 8.2656 16.641 9.0039 6.5 0.73438 13.035-1.0781 18.227-5.0586 2.0586 4.418 5.332 8.1562 9.4414 10.777 4.1094 2.6211 8.8789 4.0156 13.754 4.0195 4.5234-0.039062 8.957-1.2773 12.852-3.5859zm-82.484-25.242c-2.1836 1.5625-4.793 2.4023-7.4766 2.4062-2.1367-0.023437-4.2305-0.58594-6.0938-1.6367l3.5312-1.6914h0.003906c3.3242 0.51172 6.6719 0.82031 10.035 0.92188zm82.484-14.797v14.492c0.46484 3.6758-0.67188 7.3711-3.1211 10.152-2.4492 2.7773-5.9766 4.3711-9.6797 4.3711-3.707 0-7.2305-1.5938-9.6797-4.3711-2.4492-2.7812-3.5859-6.4766-3.1211-10.152v-48.641c0.81641-6.4492 6.3008-11.281 12.801-11.281 6.4961 0 11.98 4.832 12.801 11.281z"/>
  <path d="m256 307.2c1.6992 0 3.3242-0.67188 4.5273-1.875 1.1992-1.1992 1.8711-2.8281 1.8711-4.5234v-20.07c0-3.5352-2.8633-6.4023-6.3984-6.4023s-6.3984 2.8672-6.3984 6.4023v19.918-0.003907c-0.042968 1.7266 0.61328 3.3945 1.8164 4.6289 1.207 1.2305 2.8594 1.9258 4.582 1.9258z"/>
  <path d="m256 396.64c1.6992 0 3.3242-0.67188 4.5273-1.8711 1.1992-1.2031 1.8711-2.8281 1.8711-4.5273v-19.918c0-3.5312-2.8633-6.3984-6.3984-6.3984s-6.3984 2.8672-6.3984 6.3984v19.918c0 1.6992 0.67188 3.3242 1.8711 4.5273 1.2031 1.1992 2.8281 1.8711 4.5273 1.8711z"/>
  <path d="m280.63 317.44c1.6992 0 3.332-0.66406 4.5547-1.8438l14.027-14.078v-0.003906c2.2734-2.5234 2.1758-6.3828-0.21875-8.7891-2.3945-2.4102-6.2539-2.5273-8.7891-0.27344l-14.082 14.082c-1.8125 1.8281-2.3516 4.5664-1.3711 6.9492 0.98438 2.3789 3.3008 3.9414 5.8789 3.957z"/>
  <path d="m221.8 378.88 14.078-14.078h0.003906c1.2031-1.2031 1.8789-2.832 1.8789-4.5312s-0.67578-3.332-1.8789-4.5312c-2.5234-2.4531-6.5391-2.4531-9.0625 0l-14.027 13.926c-1.207 1.1992-1.8828 2.832-1.8828 4.5312 0 1.6992 0.67578 3.332 1.8828 4.5312 1.1836 1.2148 2.8086 1.8984 4.5039 1.8984 1.6953 0 3.3203-0.68359 4.5039-1.8984z"/>
  <path d="m212.79 292.25c-1.207 1.1992-1.8828 2.832-1.8828 4.5312s0.67578 3.3281 1.8828 4.5312l14.027 14.078c1.2227 1.1836 2.8555 1.8438 4.5547 1.8438 2.5781-0.015625 4.8945-1.5742 5.8789-3.957 0.98047-2.3789 0.44141-5.1172-1.3711-6.9492l-14.078-14.078h-0.003906c-1.1914-1.1992-2.8125-1.875-4.5039-1.875-1.6914 0-3.3125 0.67578-4.5039 1.875z"/>
  <path d="m290.2 378.88c1.1836 1.2148 2.8086 1.8984 4.5039 1.8984 1.6953 0 3.3203-0.68359 4.5039-1.8984 1.207-1.1992 1.8828-2.8281 1.8828-4.5312 0-1.6992-0.67578-3.3281-1.8828-4.5312l-14.027-14.23c-2.5234-2.4531-6.5391-2.4531-9.0625 0-1.2031 1.1992-1.8789 2.8281-1.8789 4.5273 0 1.7031 0.67578 3.332 1.8789 4.5312z"/>
 </g>
</svg>
