<?xml version="1.0" encoding="UTF-8"?>
<svg width="512pt" height="512pt" version="1.1" viewBox="0 0 512 512" xmlns="http://www.w3.org/2000/svg">
 <g fill="#443f3c">
  <path d="m411.8 263.2c-0.60156-4.6797-3.1602-9.0391-6.9609-11.879-23.84-17.922-47.16-6.3984-59.801 5.3594-8.4414-5.4414-17.078-7.3203-25.801-5.5586-1.5195 0.32031-2.9609 0.76172-4.3594 1.2812l8.1992-9.3594c2.3594-2.7188 3.5586-6.1602 3.3203-9.7617-0.23828-3.5586-1.8398-6.8398-4.5586-9.1992-2.8789-2.5195-8.6016-7.9219-14.879-15.762-8.4805-10.559-15.398-22.398-20.281-35.039-3-7.7617-5.1992-15.84-6.6016-24.078-1.4414-8.7188-2.7617-18.559-1.4414-27.359 0.80078-5.2383 2.6406-10.359 5.4414-14.84 3.7188-6 9.1211-10.922 15.398-14.121 1.3594-0.67969 4.7188 2.2383 5.9609 3 7.0781 4.3203 12.961 10.398 17 17.641l5.8789 10.559c1.3984 2.4805 4.0391 4.0391 6.8789 4.0391h13.281c3.7188 0 7.1211 2 8.9609 5.2383 3.3203 5.9219 2.4805 13.281-2.1602 18.281-0.71875 0.80078-1.7617 1.2383-2.8398 1.2383h-12.719c-10.801 0-19.602 8.8008-19.602 19.602s8.8008 19.602 19.602 19.602h3.6797c0.83984 0 1.6797-0.039062 2.5195-0.078125h0.16016c-0.32031 1.5195-0.83984 2.9219-1.4414 3.8789-0.87891 1.3594-2.1602 2.5195-3.6797 3.3594-2.5195 1.3984-5.7188 2.0391-8.8398 2.5195-4.3203 0.67969-7.2383 4.7188-6.5195 9.0391 0.71875 4.3203 4.7188 7.2383 9.0391 6.5195 4.2812-0.67969 9.2812-1.7188 13.922-4.2812 3.8008-2.0781 7.0391-5.0391 9.3203-8.5586 3.3203-5.0781 4.1211-10.922 4.3203-13.961 0.28125-4.4805-1.2812-8.5586-4.3203-11.199-2-1.7188-4.5195-2.7617-7.3594-3.0391-1.6797-0.16016-3.4414-0.12109-5.1602-0.039062l-5.5586 0.039062c-2.1211 0-3.8008-1.7188-3.8008-3.8008 0-2.1211 1.7188-3.8008 3.8008-3.8008h12.719c5.4805 0 10.719-2.3203 14.441-6.3203 9.2812-10.039 11-24.801 4.2812-36.68-4.6016-8.1992-13.32-13.281-22.719-13.281h-8.6797l-3.6406-6.5195c-5.3594-9.6016-13.16-17.68-22.559-23.398l-7.8398-4.8008c-5.3203-7.6406-30.121-39.641-72.719-39.641-0.71875 0.039063-79.281-2.1211-99.961 65.32-15.078 49.238-34.039 82.48-41.48 94.48-3.5586 5.7188-2.3594 13 2.8008 17.32 8.1992 6.8398 19.281 14.48 30.641 17.48-2.2383 4.8008-5.3594 11.039-9.4414 17.879-4.3594 7.3594-3.1602 15.121 3.0781 19.238 3.5586 2.3594 9.2383 5.8789 15.961 9.1211 9.1992 4.4414 17.68 7.0391 25.16 7.7188 0.39844 0.039063 0.76172 0.039063 1.1602 0.039063 4.5195 0 8.7617-2.3594 11.238-6.3984 0.16016-0.23828 0.28125-0.48047 0.39844-0.71875l7.6016-15.801c9.9219 5.5586 28.32 13.121 53.68 11.281 5.7188-0.39844 10.52-4.3984 12.039-9.9609 1.3203-5 3.6016-14.359 5.2383-25.16 7.3984 14.199 15.559 25.441 24.238 33.762-14.398 0.12109-25.961 4.5195-34.359 13.238-16.281 16.961-14.641 44.359-13.68 52.922-3.6016 7.9219-6.3203 16.84-5.2383 25.641 0.92188 7.4805 5 14.281 11.32 18.48 0.76172 0.51953 1.6016 1.0391 1.9219 1.9609 0.16016 0.48047 0.28125 1.0391 0.44141 1.5586 2.2383 6.7188 5.6016 13.281 10.199 18.719 5.6016 6.6797 13.281 11.762 21.961 13.32 7.1602 1.2812 14.719 0.12109 20.961-3.6797 7.9609-4.8789 16.801-15.32 14.719-37.52 0.55859-1.1602 1.1602-2.3984 1.6406-3.3984 1.1211-2.5195 2.0781-5.1211 2.4805-7.8398 0.44141-2.7188 0.55859-5.4805 1.5586-8.0781 0.32031-0.87891 0.76172-1.6797 1.4414-2.3594 0.67969-0.67969 1.5195-1.1211 2.4414-1.1602 1-0.039062 1.9609 0.48047 2.7188 1.1211 0.76172 0.64062 1.3984 1.4414 2.1211 2.1602 4.3203 4.3594 11.762 4.3984 15.359-0.87891 0.76172-1.1211 1.1602-2.3203 2.1211-3.3203 0.96094-1.0391 2.1992-1.8789 3.5195-2.4414 2.2812-0.96094 4.8008-1.1602 7.2383-0.92188 1.3594 0.16016 2.7188 0.44141 3.8398 1.1602 1.5195 0.96094 2.5195 2.5586 3.0391 4.2383 0.60156 1.8789 0.87891 4.0781 0.87891 6.0391-0.16016 14.719-3.2383 26.559-7.8789 42.922-7.9609 27.961-26.879 49.961-50.602 58.84-34.801 13.039-80.84 6.1211-107.08-16.078-15.84-13.398-27.68-34.238-35.199-61.922-5.5586-20.52-8.4805-43.039-8.9609-68.922-0.039062-2.2383-0.039062-4.4805-0.039062-6.7188 0.039062-4.3594-3.4414-7.9219-7.8008-7.9609-4.4805-0.23828-7.9219 3.4414-7.9609 7.8008-0.039062 2.3984 0 4.7617 0.039062 7.1992 0.51953 27.16 3.6406 50.961 9.5195 72.719 8.3594 30.801 21.879 54.32 40.199 69.84 20.281 17.16 49.641 26.441 78.879 26.441 15.078 0 30.16-2.4805 43.922-7.6406 28.441-10.641 50.961-36.559 60.281-69.32 4.8398-17.078 8.2812-30.441 8.4805-47.039 0.039063-3.8789-0.71875-7.6016-1.8789-11.039 6.5195-32.879 30-62.762 40.16-75.602 2.957-3.6406 4.2344-8.2812 3.6367-12.922zm-161.2-66.52c-0.039062-0.12109-0.078124-0.19922-0.078124-0.32031-0.60156-2.9219-6.5586-32.801-5.6797-55.121 0.16016-4.3594-3.1992-8-7.5586-8.1992-4.3594-0.19922-8.0391 3.1992-8.1992 7.5586-1 25.32 5.7617 57.922 6.0781 59.281 0.039063 0.078125 0.078126 0.16016 0.12109 0.28125 0.039063 0.078125 0 0.16016 0 0.23828 0 0.078124 0.078125 0.32031 0.19922 0.71875 2.1211 7.6406 2.3984 18.641 0.76172 31.84-1.3594 10.801-3.6016 20.641-5.0781 26.32-21.719 1.1602-36.719-5.6016-44-9.8789 15.121-31.961 27.801-74.359 28.359-76.281 1.2383-4.1602-1.1211-8.5586-5.3203-9.8008-4.1992-1.2383-8.5586 1.1211-9.8008 5.3203-0.16016 0.48047-14.602 48.84-30.48 80.039l-10.559 21.879c-5.1992-0.76172-11.199-2.7617-17.879-6-4.7617-2.2812-8.8789-4.7188-12-6.6797 8.4805-14.359 13.121-26.039 14.121-28.641 2.6797-4.8398 21.238-39.762 33.078-97.719 0.87891-4.2812-1.8789-8.4414-6.1602-9.3203-4.2812-0.87891-8.4414 1.8789-9.3203 6.1602-9.6406 47.078-24.078 78.719-29.48 89.52-6.9609-1-15.961-5.7188-25.68-13.559 8.3984-13.84 27.121-47.641 42.078-96.398 17.078-55.762 81.559-54.281 84.602-54.16 15.602 0 30.48 5.7617 42.762 15.16 2.0781 1.6016 4.0781 3.2812 6 5.0391 1.8008 1.6797 3.7188 3.1992 5.3203 5.0781 0.35938 0.44141 0.83984 0.96094 1.0391 1.5195 0.23828 0.71875-0.078125 0.76172-0.64062 1.1992-3.5195 2.6406-6.9609 5.1211-10 8.3594-3.0391 3.1992-5.6797 6.8008-7.8008 10.641-4.3984 7.8789-6.4414 16.84-6.8789 25.801-0.44141 9.1211 0.64062 18.281 2.2812 27.238 0 0.039062 0 0.078125 0.039062 0.12109 2.8398 15.441 8.3203 30.359 16.039 44 4 7.0781 8.6016 13.879 13.719 20.238 5.7617 7.1992 11.121 12.559 15.039 16.16l-24 27.281c-7.6406-7.4805-14.879-18-21.602-31.359-8.0039-15.875-12.562-30.594-13.441-33.555zm30.199 205.6c-3.4414 2.1211-8.1602 2.4805-12.602 0.96094-8.2812-2.8008-13.16-10.641-15.801-16.84 1.5195-0.92188 2.9219-2.0391 4.0781-3.5195 4.2812-5.5195 10.879-12.199 17.641-11.879 6.3594 0.16016 11.602 5.8008 13.922 8.7617 0.76172 8.2344-0.039062 18.113-7.2383 22.516zm115.04-135.88c-0.39844 0.67969-1.0781 1.3203-1.5586 1.8789-0.80078 1-1.5586 1.9609-2.3594 2.9609-1.5586 2-3.0781 4-4.5586 6.0391-3 4.0391-5.9219 8.1992-8.7188 12.398-1.9609 2.9609-4.1992 5.9609-5.8008 9.1602-2.1992 3.6797-4.2812 7.3984-6.2812 11.199-2.0391 3.9609-3.9609 8-5.7188 12.078-1 2.3594-1.9609 4.8008-2.8398 7.1992-0.87891 2.4414-2.6406 7.7188-2.6797 7.8008-0.12109 0.16016-0.28125 0.16016-0.44141 0.078125-0.67969-0.28125-1.3594-0.51953-2.0781-0.71875-0.64063-0.19922-1.3203-0.39844-1.9609-0.51953-2.3984-0.51953-4.8789-0.76172-7.3594-0.71875-4.6016 0.078125-9.2383 1.2812-13.281 3.5195-0.67969 0.35938-1.3203 0.76172-1.9609 1.1992-1.3984 0.92188-2.6797 2-3.8008 3.1602-4.8008-3.2383-10.199-4.3594-15.48-3.1211-9.2383 2.1992-15.199 10.199-16.359 21.961 0 0.039063-0.039062 0.078125-0.039062 0.12109-4.6406-3.6406-10.762-6.7617-18.078-6.9609-10.441-0.12109-20.48 5.4414-29.719 17-0.96094-0.39844-1.6406-1-2.3984-1.5195-0.48047-0.32031-1.1211-0.60156-1.5195-0.96094-1.0391-1-1.8398-2.1992-2.3594-3.5195-1.8008-4.7188-0.44141-12 3.8008-20.922 10-12.922 23.52-8.1992 25.121-7.6016 4.0391 1.6406 8.6016-0.28125 10.238-4.2812 1.6797-4.0391-0.23828-8.6406-4.2812-10.32-6.4805-2.6797-18.922-4.4414-30.641 1.5586 0.23828-0.12109 0.28125-3.2383 0.32031-3.6406 0.16016-1.3203 0.32031-2.6406 0.55859-3.9609 0.48047-2.7188 1.1602-5.3594 2.0781-7.9609 1.8398-5.1602 4.8008-10.121 9.2383-13.441 3.7617-2.8398 8.2383-4.5586 12.801-5.4414 5.9609-1.1211 12.121-0.83984 18.16-0.16016 1.0391 0.12109 1.1992 2.1211 1.4805 2.9609 0.39844 1.3203 0.83984 2.6406 1.3203 3.9219 0.92188 2.6406 1.9219 5.1992 2.9609 7.8008 1.4805 3.6016 3 7.1992 4.7188 10.84 1.3203 2.8789 4.1992 4.5586 7.1602 4.5586 1.1211 0 2.2383-0.23828 3.3203-0.71875 3.9609-1.8398 5.6797-6.5195 3.8398-10.48-3.3203-7.1211-7.9609-18.398-9.3203-24.16 2.8008-4.6406 10.559-16.121 20.84-18.199 3.9219-0.80078 7.9219 0.039062 12.078 2.2812-8.3984 13.48-8.8789 33.879-8.1992 49.32 0.039063 1 0.078125 1.7617 0.078125 2.2383-0.32031 4.1602 2.7188 7.8789 6.8789 8.3984 0.32031 0.039063 0.64063 0.078125 1 0.078125 3.9219 0 7.3203-2.9219 7.8008-6.9219 0.078125-0.55859 0.078125-2.1211 0-4.4805-0.35938-8.2812-0.35938-16.68 0.83984-24.879 0.67969-4.7188 1.7188-9.5586 3.9219-13.879 0.67969-1.3203 1.4414-2.6016 2.4414-3.7188 5.0781-5.8398 11.039-11.398 18.199-14.559 7.1602-3.1602 15.078-3.3984 22.238-0.039062 1.0781 0.51953 2.1211 1.0781 3.1602 1.7188 0.92188 0.55859 2 1.1992 2.8008 1.9609 0.39844 0.39844 0.76172 1.0391 0.64062 1.6406-0.003906 0.33594-0.082031 0.57422-0.24219 0.77344z"/>
  <path d="m208.48 309.48c-2.2383 1.8398-4.2383 2.6797-5.9219 2.3594-2.8008-0.44141-5.3984-3.6406-6.0391-4.6797-1.2812-2.1211-3.4805-3.5195-5.9609-3.7617-2.4414-0.23828-4.8789 0.67969-6.6016 2.4805-2.4414 2.6016-4.7617 3.8789-7.1602 3.9219h0.003906c-3.8789 0-7.8008-3.2383-9-4.4805-2.9219-3.1992-7.8789-3.3984-11.121-0.48047-3.1992 2.9219-3.4414 7.9219-0.51953 11.16 0.87891 0.96094 9.0391 9.5586 20.52 9.6016 3.2812 0 7.6016-0.67969 12.238-3.4805 2.7617 2.3203 6.3984 4.5195 10.922 5.2812 1 0.16016 2.1211 0.28125 3.3594 0.28125 4.1602 0 9.5195-1.2812 15.281-6 3.3594-2.7617 3.8398-7.7188 1.0781-11.121-2.7578-3.3633-7.7188-3.8438-11.078-1.082z"/>
  <path d="m216.12 384.2c3.2812-2.8398 3.6406-7.8398 0.80078-11.121s-7.8398-3.6406-11.121-0.80078c-3.3984 2.9609-7.8789 0-8.6406-0.60156-3.1211-2.3984-7.5195-2.1602-10.32 0.60156-5.1211 4.9609-9.2812 2.9609-11.84 0.39844-3.0391-3.1211-7.9609-3.1992-11.078-0.19922-3.1602 3-3.2812 8-0.28125 11.16 0.71875 0.76172 7.2383 7.3203 16.84 7.4805h0.39844c3.2383 0 7.6406-0.76172 12.281-3.7617 6.2383 2.5664 15.16 3.5664 22.961-3.1562z"/>
  <path d="m212.88 444.72c0.76172 0 1.5195-0.039062 2.2812-0.16016 2.3984-0.32031 5.4805-1.2812 8.5195-3.8008 5.9609 1.5586 13.238 0.80078 18.238-5.9609 2.6016-3.4805 1.7617-8.2812-1.7617-10.879-3.4805-2.6016-8.5586-1.7188-11.16 1.7617-0.51953 0.16016-2.1211-0.28125-3.1602-0.92188-1.7617-1.1602-3.9219-1.5586-5.9609-1.1211-2.0391 0.44141-3.8398 1.6797-5 3.4414-0.71875 1.0781-1.4414 1.8008-1.9219 1.8789-0.83984 0.16016-2.6797-0.76172-3.5586-1.5195-3.2812-2.8398-8.1992-2.5195-11.078 0.71875-2.8789 3.2812-2.6016 8.2383 0.67969 11.121 0.76562 0.60156 6.4453 5.4414 13.883 5.4414z"/>
 </g>
</svg>
