<?xml version="1.0" encoding="UTF-8"?>
<svg width="512pt" height="512pt" version="1.1" viewBox="0 0 512 512" xmlns="http://www.w3.org/2000/svg">
 <g fill="#443f3c">
  <path d="m512 306.42c-0.52344-4.1797-4.1797-6.793-8.3594-6.2695-4.1797 0.52344-6.793 4.1797-6.793 8.3594-30.824 32.391-129.04 41.273-130.09 41.273-0.52344 0-18.809 1.043-43.887 2.6133l2.0898-51.199c35.004 8.3594 66.875 19.852 79.414 33.438 1.043 1.043 2.6133 1.5664 3.6562 1.5664h1.5664c2.0898-0.52344 3.1328-2.6133 3.6562-4.1797l2.0898-26.121 12.539 13.062c1.043 1.043 2.0898 1.5664 3.6562 1.5664 1.043 0 2.6133-0.52344 3.6562-1.5664 2.0898-2.0898 2.0898-5.2227 0-7.3125l-24.555-25.602-79.93-122.26 0.52344-12.539c0-4.1797-3.1328-7.8359-7.3125-7.8359-3.6562 0-6.793 2.6133-7.8359 5.7461l-100.84-64.785-18.285-18.809c-2.0898-2.0898-5.2227-2.0898-7.3125 0s-2.0898 5.2227 0 7.3125l15.152 15.152c3.1328 36.57 5.7461 82.023 5.2227 118.6l-42.32-56.426c-1.5664-2.0898-4.7031-2.6133-7.3125-1.043-2.0898 1.5664-2.6133 4.7031-1.043 7.3125l9.4023 13.062v132.7c0 2.0898 1.043 4.1797 3.1328 4.7031l3.1328 1.043h-104.49c-4.1797 0-7.8359 3.6562-7.8359 7.8359v13.582c-20.375-6.793-36.051-13.062-40.23-14.629-5.7461-12.539-8.3594-22.465-8.3594-22.988-1.043-4.1797-5.2227-6.793-9.4023-5.7461-4.1797 1.043-6.793 5.2227-5.7461 9.4023 0.52344 2.0898 8.8828 34.48 30.301 58.516 0.52344 0.52344 0.52344 1.5664 1.043 2.0898l41.273 49.109c0 0.52344 0.52344 0.52344 1.043 1.043 30.824 27.168 71.055 41.797 112.33 41.797h145.76c15.672 0 30.824-4.7031 43.887-13.582l36.051-25.602 81.504-63.738c22.465-16.715 19.852-37.613 19.852-38.656zm-204.28 46.496c-19.852 1.043-42.32 2.0898-63.738 3.1328v-21.941l25.602 9.9258c0.52344 0 1.043 0.52344 2.0898 0.52344 1.043 0 1.5664 0 2.0898-0.52344 1.043-0.52344 2.0898-2.0898 2.6133-3.1328l5.7461-21.422 9.9258 13.582c1.043 1.5664 2.6133 2.0898 4.1797 2.0898 1.043 0 2.0898-0.52344 3.1328-1.043 2.0898-1.5664 2.6133-4.7031 1.043-7.3125l-27.168-36.57c12.016 2.0898 24.555 4.7031 37.617 7.3125zm-67.918-31.348 1.5664-55.902 31.871 42.84-6.2695 24.031zm166.14-24.555-2.0898 23.512c-16.719-12.539-47.02-22.465-78.367-30.301l3.1367-74.711 74.188 76.801zm-32.914-50.156-43.883-45.453 1.043-20.375zm-57.469-86.203-1.043 26.121-67.918-70.527zm-99.789-61.125 97.699 100.83-3.6562 86.727c-16.195-3.6562-32.391-6.793-47.02-8.8828l-21.422-28.211 1.043-37.617c0-4.1797-3.1328-7.8359-7.3125-7.8359-4.1797-0.52344-7.8359 3.1328-7.8359 7.3125l-0.52344 18.285-7.3125-9.9258c2.0898-41.273-1.5703-93.516-3.6602-120.68zm10.973 146.81-2.0898 69.484-45.453-17.762v-114.94zm-147.85 76.797h136.36l9.4023 3.6562-1.043 29.781c-22.465 0.52344-41.797 1.043-52.766 0.52344-20.898-1.043-59.559-12.016-91.949-22.988zm91.43 49.633h13.062c31.348 0 87.77-2.6133 130.09-5.2227 0.52344 0 1.043 0.52344 1.5664 0.52344h0.52344c1.043 0 2.0898 0 3.1328-0.52344 27.168-1.5664 47.543-2.6133 50.156-3.1328 3.1328-0.52344 63.738-5.7461 107.62-25.078l-22.988 17.762-68.441 21.422c-10.973 1.043-124.34 9.9258-212.64 7.8359-42.32-1.043-72.621-13.582-91.43-20.898-4.7031-2.0898-8.8828-3.6562-12.016-4.7031-13.582-4.7031-24.555-15.152-32.391-26.645 31.867 13.062 101.35 37.094 133.75 38.66zm231.96 24.035-36.051 25.078c-10.449 7.3125-22.465 10.973-35.004 10.973l-145.24-0.003906c-37.094 0-73.145-13.582-101.36-37.617l-13.062-15.672c1.043 0.52344 1.5664 0.52344 2.6133 1.043 19.332 7.8359 51.723 20.898 96.652 21.941 9.9258 0 19.852 0.52344 29.781 0.52344 87.25 0 184.43-8.3594 185.47-8.3594 0.52344 0 1.043 0 1.5664-0.52344l30.301-9.4023z"/>
  <path d="m201.14 348.21h13.582c1.043 0 2.0898-1.043 2.0898-2.0898v-13.582c0-1.043-1.043-2.0898-2.0898-2.0898h-13.582c-1.043 0-2.0898 1.043-2.0898 2.0898v13.582c0.51953 1.0469 1.043 2.0898 2.0898 2.0898z"/>
  <path d="m176.59 348.21h13.582c1.043 0 2.0898-1.043 2.0898-2.0898v-13.582c0-1.043-1.043-2.0898-2.0898-2.0898h-13.582c-1.043 0-2.0898 1.043-2.0898 2.0898v13.582c0 1.0469 1.0469 2.0898 2.0898 2.0898z"/>
  <path d="m164.57 330.45h-13.582c-1.043 0-2.0898 1.043-2.0898 2.0898v13.582c0 1.043 1.043 2.0898 2.0898 2.0898h13.582c1.043 0 2.0898-1.043 2.0898-2.0898v-13.582c0-1.0469-1.043-2.0898-2.0898-2.0898z"/>
 </g>
</svg>
