<?xml version="1.0" encoding="UTF-8"?>
<svg width="512pt" height="512pt" version="1.1" viewBox="0 0 512 512" xmlns="http://www.w3.org/2000/svg">
 <g fill="#443f3c">
  <path d="m231.23 338.58c0 4.5586-3.6992 8.2578-8.2578 8.2578-4.5625 0-8.2578-3.6992-8.2578-8.2578 0-4.5625 3.6953-8.2578 8.2578-8.2578 4.5586 0 8.2578 3.6953 8.2578 8.2578"/>
  <path d="m264.26 338.58c0 4.5586-3.6953 8.2578-8.2578 8.2578s-8.2578-3.6992-8.2578-8.2578c0-4.5625 3.6953-8.2578 8.2578-8.2578s8.2578 3.6953 8.2578 8.2578"/>
  <path d="m297.29 338.58c0 4.5586-3.6953 8.2578-8.2578 8.2578-4.5586 0-8.2578-3.6992-8.2578-8.2578 0-4.5625 3.6992-8.2578 8.2578-8.2578 4.5625 0 8.2578 3.6953 8.2578 8.2578"/>
  <path d="m363.36 470.71c0 4.5586-3.6992 8.2578-8.2578 8.2578-4.5625 0-8.2578-3.6992-8.2578-8.2578 0-4.5625 3.6953-8.2578 8.2578-8.2578 4.5586 0 8.2578 3.6953 8.2578 8.2578"/>
  <path d="m396.39 470.71c0 4.5586-3.6953 8.2578-8.2578 8.2578s-8.2578-3.6992-8.2578-8.2578c0-4.5625 3.6953-8.2578 8.2578-8.2578s8.2578 3.6953 8.2578 8.2578"/>
  <path d="m429.42 470.71c0 4.5586-3.6953 8.2578-8.2578 8.2578-4.5586 0-8.2578-3.6992-8.2578-8.2578 0-4.5625 3.6992-8.2578 8.2578-8.2578 4.5625 0 8.2578 3.6953 8.2578 8.2578"/>
  <path d="m487.96 344.15-33.027-33.027c4.5234-2.9492 7.5234-8.043 7.5234-13.832v-16.516c0-9.1055-7.4102-16.516-16.516-16.516h-19.066c-12.48-29.871-41.68-49.547-74.453-49.547h-7c0.91797-2.5859 1.4219-5.3633 1.4219-8.2578 0-13.66-11.113-24.773-24.773-24.773s-24.773 11.113-24.773 24.773c0 2.8945 0.50391 5.6719 1.4219 8.2578h-7c-2.9648 0-5.9023 0.17187-8.8008 0.48828-1.6211-3.1992-3.3047-6.3789-5.0352-9.4961l-41.363-74.453c6.5156-2.2148 11.227-8.3789 11.227-15.637v-16.516c0-9.1055-7.4102-16.516-16.516-16.516h-0.60156c-3.707-25.797-24.504-46.133-50.512-49.148 1.0078-2.6992 1.5625-5.6172 1.5625-8.6602 0-13.66-11.113-24.773-24.773-24.773s-24.773 11.113-24.773 24.773c0 3.043 0.55469 5.9609 1.5664 8.6562-26.012 3.0156-46.809 23.355-50.516 49.152h-0.59766c-9.1055 0-16.516 7.4102-16.516 16.516v16.516c0 7.2578 4.7109 13.422 11.23 15.633l-41.363 74.453c-23.508 42.312-35.934 90.262-35.934 138.66 0 51.738 14.07 102.54 40.691 146.9l5.2266 8.707c4.4492 7.418 12.59 12.027 21.238 12.027h348.21c5.6016 0 11.102-1.9258 15.477-5.4297l50.348-40.281c19.578-15.66 30.809-39.023 30.809-64.094 0-21.93-8.5391-42.543-24.043-58.047zm7.5273 58.047c0 3.625-0.30469 7.2031-0.87891 10.711h-49.762c-38.074 0-75.891-4.0859-112.82-12.055 18.504-7.1406 36.715-15.027 54.566-23.656 34.453 12.723 70.523 19.191 107.29 19.191h1.3359c0.16797 1.9219 0.26562 3.8555 0.26562 5.8086zm-317.43 55.043 87.277-15.867-22.16-11.078c-31.566-15.785-60.496-36.066-86.078-60.324 2.8945-5.1133 6.4844-9.8711 10.75-14.141l0.65234-0.65234c53.836 31.168 112.4 52.898 173.09 64.469-43.121 26.992-91.605 45.914-141.56 55.172zm-95.477-226.01h49.547v4.25c0 29.359-8.5312 57.133-24.773 80.965-16.242-23.832-24.773-51.605-24.773-80.965zm18.312 104.26 6.4609 8.1133 6.4609-8.1133c22.785-28.617 34.828-63.203 34.828-100.01v-4.25h16.516v4.25c0 47.391-18.457 91.949-51.969 125.46l-5.8359 5.8398-5.8398-5.8398c-33.512-33.512-51.969-78.07-51.969-125.46v-4.25h16.516v4.25c0.003906 36.809 12.047 71.395 34.832 100.01zm116.36-71.23h-4.3477c1.1953-9.5117 1.8008-19.156 1.8008-28.781v-4.25h28.059c-11.051 8.4219-19.945 19.711-25.512 33.031zm217 49.547 11.773 11.773c-44.859 27.984-92.836 50.906-142.79 68.23-9.3281-2.5586-18.586-5.3828-27.766-8.4492 53.137-14.52 102.66-38.316 147.55-70.961l0.82422-0.59766zm-186.68 61.379c-22.977-9.1133-45.363-19.824-66.98-32.102l29.273-29.273h184.93c-44.984 29.375-94.398 49.984-147.22 61.375zm-49.383-139.71c0 9.6797-0.66797 19.375-1.9688 28.91-8.1836 0.97656-14.551 7.9492-14.551 16.387v16.516c0 5.7891 3 10.883 7.5195 13.832l-33.027 33.027c-10.09 10.09-17.207 22.352-20.965 35.723h-17.59l7.2539-7.2539c36.637-36.633 56.809-85.336 56.809-137.14v-4.25h16.516zm-108.36 137.14 7.2578 7.2578h-23.191c-24.832-26.297-42.453-58.383-51.113-93.129 2.7266-12.43 6.332-24.66 10.789-36.59 3.4375 46.273 23.109 89.312 56.258 122.46zm-38 7.2578h-32.961c-1.5625-11.734-2.3594-23.594-2.3594-35.508 0-7.1914 0.29297-14.375 0.87109-21.527 8.5703 20.516 20.172 39.75 34.449 57.035zm-30.23 16.516h110.75c-0.13281 1.9258-0.22656 3.8594-0.22656 5.8047 0 3.6133 0.24219 7.1875 0.69922 10.711h-107.42c-1.4375-5.4609-2.7031-10.969-3.7969-16.516zm128.94-9.9492c19.719 18.051 41.25 33.895 64.32 47.324l-51.844 9.4258c-9.25-11.508-14.379-25.859-14.379-40.992 0-5.3828 0.64844-10.664 1.9023-15.758zm341.04-6.5938c-28.73-0.22266-57-4.6016-84.312-13.059 17.293-9.0508 34.215-18.816 50.723-29.238l18.277 18.277c6.9102 6.9141 12.082 15.098 15.312 24.02zm-45.645-82.555h-0.011718-247.74v-16.516h247.74zm-132.14-90.836c0-4.5547 3.7031-8.2578 8.2578-8.2578s8.2578 3.7031 8.2578 8.2578-3.7031 8.2578-8.2578 8.2578c-4.5508 0-8.2578-3.707-8.2578-8.2578zm38.613 24.773c23.656 0 44.965 12.895 56.125 33.031h-172.96c11.16-20.137 32.473-33.031 56.125-33.031zm-265.89-82.582 9.1758-16.516h122.41l9.1758 16.516h-29.09v16.516h38.266l9.1758 16.516h-177.46l9.1758-16.516h38.266v-16.516zm70.379-132.13c4.5547 0 8.2578 3.7031 8.2578 8.2578 0 4.5547-3.7031 8.2578-8.2578 8.2578-4.5547 0-8.2578-3.7031-8.2578-8.2578 0-4.5508 3.707-8.2578 8.2578-8.2578zm-16.516 33.031h33.031c19.941 0 36.625 14.211 40.461 33.031l-113.95 0.003906c3.832-18.824 20.516-33.035 40.457-33.035zm-57.805 49.551h148.64l0.011719 16.516h-0.011719-148.64zm-23.586 99.098h195.82l8.625 15.527c0.18359 0.32812 0.35938 0.66016 0.53906 0.98828h-214.14c0.17969-0.32813 0.35547-0.66016 0.53906-0.98828zm1.082 293.28-5.2266-8.707c-10.145-16.906-18.352-34.801-24.531-53.348h106.41c5.0156 14.32 13.98 27.098 26.203 36.875l36.488 29.191h-132.27c-2.8828 0-5.5938-1.5352-7.0781-4.0117zm410.8-38.078-50.348 40.281c-1.4609 1.168-3.2891 1.8086-5.1602 1.8086h-186.61c-1.8672 0-3.6992-0.64453-5.1602-1.8086l-6.7656-5.4141c53.02-11.699 104.04-33.836 148.71-64.598 26.176 3.8047 52.672 5.7539 79.293 5.7539h44.734c-4.2031 9.2148-10.531 17.441-18.703 23.977z"/>
  <path d="m132.13 148.64h16.516v16.516h-16.516z"/>
  <path d="m165.16 148.64h16.516v16.516h-16.516z"/>
 </g>
</svg>
