<?xml version="1.0" encoding="UTF-8"?>
<svg width="512pt" height="512pt" version="1.1" viewBox="0 0 512 512" xmlns="http://www.w3.org/2000/svg">
 <path d="m433.46 137.86 12.191-12.191c3.1211-3.1211 3.1211-8.1914 0-11.312l-16-16c-3.1211-3.1211-8.1914-3.1211-11.312 0l-16 16c-3.1211 3.1211-3.1211 8.1914 0 11.312l12.191 12.191c-7.2148 17.23-13.602 34.641-19.152 52.207l-22.098-30.383c-7.7617-39.969-19.727-79.344-35.84-117.82l12.191-12.191c3.1211-3.1211 3.1211-8.1914 0-11.312l-16-16c-3.1211-3.1211-8.1914-3.1211-11.312 0l-16 16c-3.1211 3.1211-3.1211 8.1914 0 11.312l12.191 12.191c-17.199 41.121-29.68 83.23-37.359 126l-17.359-81.008c-0.78516-3.6953-4.0469-6.3203-7.8242-6.3203s-7.0234 2.6406-7.8242 6.3203l-17.359 81.008c-7.6797-42.77-20.16-84.895-37.359-126l12.191-12.191c3.1211-3.1211 3.1211-8.1914 0-11.312l-15.949-16.016c-3.1211-3.1211-8.1914-3.1211-11.312 0l-16 16c-3.1211 3.1211-3.1211 8.1914 0 11.312l12.191 12.191c-16.113 38.496-28.078 77.871-35.84 117.82l-22.098 30.383c-5.5508-17.566-11.938-34.977-19.152-52.207l12.191-12.191c3.1211-3.1211 3.1211-8.1914 0-11.312l-16-16c-3.1211-3.1211-8.1914-3.1211-11.312 0l-16 16c-3.1211 3.1211-3.1211 8.1914 0 11.312l12.191 12.191c-30.879 73.809-46.543 150.83-46.543 229.07v137.07c0 4.4141 3.5859 8 8 8l432.02 0.003906c4.4141 0 8-3.5859 8-8v-137.07c0-78.238-15.664-155.28-46.543-229.07zm-9.457-22.543 4.6875 4.6875-4.6875 4.6875-4.6875-4.6875zm-34.336 94.062c-2.4492 8.7695-4.6875 17.566-6.7188 26.398-0.83203-13.742-2.1445-27.426-3.9375-41.055zm-61.664-190.06 4.6875 4.6875-4.6875 4.6875-4.6875-4.6875zm0 41.777c26.559 67.84 40 138.34 40 209.84v34.992l-37.617 58.93-42.352-95.887c0.23828-70.832 13.664-140.66 39.984-207.87zm-54.895 174.1-9.793-22.145c-1.0078-2.2734-2.9922-3.9023-5.3281-4.4961h17.359c-0.96094 8.8633-1.7109 17.742-2.2578 26.656zm-17.105-108.46 14.113 65.824h-28.207l14.113-65.824zm-1.9844 81.824c-2.3359 0.60938-4.3203 2.2227-5.3281 4.4961l-9.793 22.145c-0.54297-8.9102-1.2969-17.793-2.2578-26.656h17.359zm-70.016-189.23 4.6875 4.6875-4.6875 4.6875-4.6875-4.6875zm-40 251.62c0-71.504 13.441-142 40-209.84 26.305 67.215 39.727 137.04 39.984 207.87l-42.352 95.887-37.617-58.93v-34.992zm-10.992-76.207c-1.793 13.633-3.1055 27.328-3.9375 41.055-2.0312-8.832-4.2734-17.633-6.7188-26.398zm-45.008-79.406 4.6875 4.6875-4.6875 4.6875-4.6875-4.6875zm-40 251.61c0-71.504 13.441-142 40-209.84 16.945 43.281 28.527 87.648 34.703 132.66-0.75391 0.67188-1.3906 1.4727-1.8555 2.3984l-40.848 81.695v-29.84c0-4.4141-3.5859-8-8-8s-8 3.5859-8 8v61.84l-16 32zm112 129.07h-64v-17.664c0-25.266 10.754-50.367 32-74.734 21.246 24.352 32 49.457 32 74.734zm112 0h-32v-48.273c0-8.8164 7.1836-16 16-16s16 7.1836 16 16zm32 0h-16v-48.273c0-17.648-14.352-32-32-32s-32 14.352-32 32v48.273h-16v-38.367c0-39.953 16.145-79.488 48-117.65 31.855 38.16 48 77.695 48 117.65zm112 0h-64v-17.664c0-25.266 10.754-50.367 32-74.734 21.246 24.352 32 49.457 32 74.734zm48 0h-32v-17.664c0-31.711-14.207-62.703-42.207-92.113-1.5039-1.5859-3.6016-2.4805-5.793-2.4805s-4.2891 0.89453-5.793 2.4805c-28 29.406-42.207 60.398-42.207 92.113v17.664h-16v-38.367c0-46.414-19.52-91.902-58.016-135.21-1.5195-1.7109-3.6953-2.6875-5.9844-2.6875s-4.4648 0.97656-5.9844 2.6875c-38.496 43.312-58.016 88.801-58.016 135.21v38.367h-16v-17.664c0-31.711-14.207-62.703-42.207-92.113-1.5039-1.5859-3.6016-2.4805-5.793-2.4805s-4.2891 0.89453-5.793 2.4805c-28 29.406-42.207 60.398-42.207 92.113v17.664h-32v-22.383l80.848-161.7 47.312 74.113c1.5859 2.4805 4.4336 3.8867 7.3438 3.6641 2.9453-0.22266 5.5195-2.0469 6.7031-4.7344l65.777-148.89 65.777 148.89c1.1836 2.7031 3.7773 4.5117 6.7031 4.7344 2.9102 0.22266 5.7617-1.1836 7.3438-3.6641l47.328-74.113 80.848 161.7v22.383zm-16-90.16v-61.84c0-4.4141-3.5859-8-8-8s-8 3.5859-8 8v29.84l-40.848-81.695c-0.46484-0.92969-1.1055-1.7422-1.8555-2.4141 6.1758-45.008 17.762-89.375 34.703-132.66 26.559 67.84 40 138.34 40 209.84v70.91l-16-32zm-32-101.84c0 4.4141-3.5859 8-8 8s-8-3.5859-8-8 3.5859-8 8-8 8 3.5859 8 8zm32 8c0 4.4141-3.5859 8-8 8s-8-3.5859-8-8 3.5859-8 8-8 8 3.5859 8 8zm-32-40c0 4.4141-3.5859 8-8 8s-8-3.5859-8-8 3.5859-8 8-8 8 3.5859 8 8zm32 8c0 4.4141-3.5859 8-8 8s-8-3.5859-8-8 3.5859-8 8-8 8 3.5859 8 8zm-16-40c0 4.4141-3.5859 8-8 8s-8-3.5859-8-8 3.5859-8 8-8 8 3.5859 8 8zm-16-32c0-4.4141 3.5859-8 8-8s8 3.5859 8 8-3.5859 8-8 8-8-3.5859-8-8zm-96 0c0 4.4141-3.5859 8-8 8s-8-3.5859-8-8 3.5859-8 8-8 8 3.5859 8 8zm32 8c0 4.4141-3.5859 8-8 8s-8-3.5859-8-8 3.5859-8 8-8 8 3.5859 8 8zm-16-32c0-4.4141 3.5859-8 8-8s8 3.5859 8 8-3.5859 8-8 8-8-3.5859-8-8zm-16-8c0 4.4141-3.5859 8-8 8s-8-3.5859-8-8 3.5859-8 8-8 8 3.5859 8 8zm8-24c-4.4141 0-8-3.5859-8-8s3.5859-8 8-8 8 3.5859 8 8-3.5859 8-8 8zm-8-40c0-4.4141 3.5859-8 8-8s8 3.5859 8 8-3.5859 8-8 8-8-3.5859-8-8zm0 128v48c0 4.4141-3.5859 8-8 8s-8-3.5859-8-8v-48c0-4.4141 3.5859-8 8-8s8 3.5859 8 8zm32 8v48c0 4.4141-3.5859 8-8 8s-8-3.5859-8-8v-48c0-4.4141 3.5859-8 8-8s8 3.5859 8 8zm-240 56c0 4.4141-3.5859 8-8 8s-8-3.5859-8-8 3.5859-8 8-8 8 3.5859 8 8zm-48 8c0-4.4141 3.5859-8 8-8s8 3.5859 8 8-3.5859 8-8 8-8-3.5859-8-8zm32-40c0-4.4141 3.5859-8 8-8s8 3.5859 8 8-3.5859 8-8 8-8-3.5859-8-8zm-32 8c0-4.4141 3.5859-8 8-8s8 3.5859 8 8-3.5859 8-8 8-8-3.5859-8-8zm16-40c0-4.4141 3.5859-8 8-8s8 3.5859 8 8-3.5859 8-8 8-8-3.5859-8-8zm0-32c0-4.4141 3.5859-8 8-8s8 3.5859 8 8-3.5859 8-8 8-8-3.5859-8-8zm128 0c0 4.4141-3.5859 8-8 8s-8-3.5859-8-8 3.5859-8 8-8 8 3.5859 8 8zm-32 8c0 4.4141-3.5859 8-8 8s-8-3.5859-8-8 3.5859-8 8-8 8 3.5859 8 8zm0-32c0 4.4141-3.5859 8-8 8s-8-3.5859-8-8 3.5859-8 8-8 8 3.5859 8 8zm16-8c0-4.4141 3.5859-8 8-8s8 3.5859 8 8-3.5859 8-8 8-8-3.5859-8-8zm-8-24c-4.4141 0-8-3.5859-8-8s3.5859-8 8-8 8 3.5859 8 8-3.5859 8-8 8zm-8-40c0-4.4141 3.5859-8 8-8s8 3.5859 8 8-3.5859 8-8 8-8-3.5859-8-8zm32 128v48c0 4.4141-3.5859 8-8 8s-8-3.5859-8-8v-48c0-4.4141 3.5859-8 8-8s8 3.5859 8 8zm-32 8v48c0 4.4141-3.5859 8-8 8s-8-3.5859-8-8v-48c0-4.4141 3.5859-8 8-8s8 3.5859 8 8z" fill="#443f3c"/>
</svg>
