<?xml version="1.0" encoding="UTF-8"?>
<svg width="512pt" height="512pt" version="1.1" viewBox="0 0 512 512" xmlns="http://www.w3.org/2000/svg">
 <g fill="#443f3c">
  <path d="m488 480v-107.2c0-4.8008-1.6016-9.6016-4-13.602l-12-17.598c-1.6016-12.801-13.602-22.398-26.398-21.602-11.199 1.6016-20 10.398-21.602 21.602l-12 18.398c-2.3984 3.1992-4 8-4 12.801v19.199h-16v-12.801l8-8v-14.398l-8-8v-9.6016l8-8v-14.398l-8-8v-116.8h16v-20l-69.602-52h-8l-66.398-59.199v-28.801h-16v28.801l-67.199 59.199h-8l-68.801 52v20h16v116.8l-8 8v14.398l8 8v9.6016l-8 8v14.398l8 8v12.801h-16v-19.199c0-4.8008-1.6016-9.6016-4-13.602l-12-17.598c-1.6016-13.602-13.602-23.203-26.398-21.602-11.199 1.6016-20 10.398-21.602 21.602l-12 18.398c-2.3984 3.1992-4 8-4 12.801v107.2h-8v16h480v-16zm-16-64h-432v-8h432zm-48-43.199c0-1.6016 0.80078-3.1992 1.6016-4.8008l14.398-21.602v-2.3984c0-4.8008 3.1992-8 8-8s8 3.1992 8 8v2.3984l14.398 21.602c0.80078 1.6016 1.6016 3.1992 1.6016 4.8008v19.199h-48zm-72-84.801v-8h24v8zm-66.398-168-10.398-28.801 32 28.801zm-16.801 0h-24.801l12.801-33.602zm-42.402 0h-21.602l32-28.801zm48.801 16 22.398 40h-83.996l23.199-40zm68.801 56v12.801l-3.1992 3.1992h-20.801v-16zm32 72h-24v-44.801l8-8v-19.199h16zm-120-32c-17.602 0-32 14.398-32 32h-16v-40h96v40h-16c0-17.602-14.398-32-32-32zm16 32h-32c0-8.8008 7.1992-16 16-16s16 7.1992 16 16zm48-40h16v40h-16zm-16-32v16h-96v-16zm-112 16h-20.801l-3.1992-3.1992v-12.801h24zm-32 11.199v44.801h-24v-72h16v19.199zm16 4.8008h16v40h-16zm16 56v8h-16v-8zm16 0h16v8h-16zm32 0h32v8h-32zm48 0h16v8h-16zm32 0h16v8h-16zm13.602-144 53.602 40h-70.398l-23.199-40zm-155.2 0h39.199l-23.199 40h-70.398zm-42.398 144h24v8h-24zm-8 84.801v-1.6016l8-8v-22.398l-8-8v-1.6016l8-8v-11.199h240v11.199l8 8v1.6016l-8 8v22.398l8 8v1.6016l-8 8v19.199h-240v-19.199zm-88 8c0-1.6016 0.80078-3.1992 1.6016-4.8008l14.398-21.602v-2.3984c0-4.8008 3.1992-8 8-8s8 3.1992 8 8v2.3984l14.398 21.602c0.80078 1.6016 1.6016 3.1992 1.6016 4.8008v19.199h-48zm0 59.199h432v48h-432z"/>
  <path d="m280 344c0-13.602-10.398-24-24-24s-24 10.398-24 24v32h48zm-16 16h-16v-16c0-4.8008 3.1992-8 8-8s8 3.1992 8 8z"/>
  <path d="m296 320h72v16h-72z"/>
  <path d="m296 360h72v16h-72z"/>
  <path d="m144 320h72v16h-72z"/>
  <path d="m144 360h72v16h-72z"/>
  <path d="m440 360h16v24h-16z"/>
  <path d="m56 360h16v24h-16z"/>
  <path d="m56 440h16v32h-16z"/>
  <path d="m104 440h16v32h-16z"/>
  <path d="m152 440h16v32h-16z"/>
  <path d="m200 440h16v32h-16z"/>
  <path d="m248 440h16v32h-16z"/>
  <path d="m296 440h16v32h-16z"/>
  <path d="m344 440h16v32h-16z"/>
  <path d="m392 440h16v32h-16z"/>
  <path d="m440 440h16v32h-16z"/>
 </g>
</svg>
