<?xml version="1.0" encoding="UTF-8"?>
<svg width="512pt" height="512pt" version="1.1" viewBox="0 0 512 512" xmlns="http://www.w3.org/2000/svg">
 <g fill="#443f3c">
  <path d="m112 96h-16c-27.801 0-51.398 20.5-55.398 48h-24.602v352h176v-352h-24.602c-4-27.5-27.598-48-55.398-48zm-32 384h-16v-40c0-4.3984 3.6016-8 8-8s8 3.6016 8 8zm64 0h-16v-40c0-4.3984 3.6016-8 8-8s8 3.6016 8 8zm32 0h-16v-40c0-13.301-10.699-24-24-24s-24 10.699-24 24v40h-16v-40c0-13.301-10.699-24-24-24s-24 10.699-24 24v40h-16v-80h144zm0-96h-144v-176h144zm0-192h-144v-32h24v-8c0-22.102 17.898-40 40-40h16c22.102 0 40 17.898 40 40v8h24z"/>
  <path d="m80 144h16v32h-16z"/>
  <path d="m112 144h16v32h-16z"/>
  <path d="m56 224h16v32h-16z"/>
  <path d="m96 224h16v32h-16z"/>
  <path d="m136 224h16v32h-16z"/>
  <path d="m56 280h16v32h-16z"/>
  <path d="m96 280h16v32h-16z"/>
  <path d="m136 280h16v32h-16z"/>
  <path d="m56 336h16v32h-16z"/>
  <path d="m96 336h16v32h-16z"/>
  <path d="m136 336h16v32h-16z"/>
  <path d="m486.6 163.3-1.8984-1.8984c-3-3-4.6992-7.1016-4.6992-11.301l-0.003906-38.102h-16c0-17.699-14.301-32-32-32s-32 14.301-32 32h-16v38.102c0 4.1992-1.6992 8.3008-4.6992 11.301l-1.8984 1.8984c-5.6016 5.5-8.8984 12.898-9.3008 20.699l-3.3008-2.3984c-8-6.1016-12.801-15.5-12.801-25.602v-31.301l-11.301-11.301c-3-3-4.6992-7.1016-4.6992-11.301v-35l-7.1992-3.6016c-5.3984-2.6992-8.8984-8.1992-8.8008-14.301v-22.094l-24-12-24 12v22.102c0 6.1016-3.3984 11.602-8.8008 14.301l-7.1992 3.6016v35c0 4.1992-1.6992 8.3008-4.6992 11.301l-11.301 11.293v31.301c0 10.102-4.8008 19.5-12.801 25.602l-19.199 14.398v300h288v-310.1c0-8.5-3.3984-16.598-9.3984-22.598zm-214.6-61.199v-25.203c9.8984-5.6992 16-16.301 16-27.699v-12.301l8-4 8 4v12.199c0 11.398 6.1016 22 16 27.699v25.199c0 6.3984 1.8984 12.699 5.5 17.898h-59c3.6016-5.1953 5.5-11.395 5.5-17.793zm-16 53.898v-20h80v20c0 13.801 6 26.898 16.301 36h-112.6c10.301-9.1016 16.301-22.199 16.301-36zm16 324h-16v-64h16zm64 0h-16v-64h16zm32-256v256h-16v-80h-48v80h-16v-80h-48v80h-16v-272h144zm72 256h-16v-48h16zm40 0h-24v-64h-48v64h-24v-80h96zm0-288h-40v16h40v176h-96v-176h40v-16h-40v-6.1016c0-4.1992 1.6992-8.3008 4.6992-11.301l1.8984-1.8984c6-6 9.3984-14.102 9.3984-22.602l0.003906-22.098h16v-16c0-8.8008 7.1992-16 16-16s16 7.1992 16 16v16h16v22.102c0 8.5 3.3984 16.602 9.3984 22.602l1.8984 1.8984c3 3 4.6992 7.1016 4.6992 11.301z"/>
  <path d="m248 224h16v32h-16z"/>
  <path d="m288 224h16v32h-16z"/>
  <path d="m328 224h16v32h-16z"/>
  <path d="m248 280h16v32h-16z"/>
  <path d="m288 280h16v32h-16z"/>
  <path d="m328 280h16v32h-16z"/>
  <path d="m248 336h16v32h-16z"/>
  <path d="m288 336h16v32h-16z"/>
  <path d="m328 336h16v32h-16z"/>
  <path d="m272 152h16v24h-16z"/>
  <path d="m304 152h16v24h-16z"/>
  <path d="m288 80h16v24h-16z"/>
  <path d="m400 328h16v32h-16z"/>
  <path d="m448 328h16v32h-16z"/>
  <path d="m400 272h16v32h-16z"/>
  <path d="m448 272h16v32h-16z"/>
  <path d="m400 216h16v32h-16z"/>
  <path d="m448 216h16v32h-16z"/>
  <path d="m424 144h16v32h-16z"/>
 </g>
</svg>
