<?xml version="1.0" encoding="UTF-8"?>
<svg width="512pt" height="512pt" version="1.1" viewBox="0 0 512 512" xmlns="http://www.w3.org/2000/svg">
 <g fill="#443f3c">
  <path d="m307 319.39c-1.1328 0-2.2422-0.32031-3.1992-0.92188l-13.492-8.4727c-0.92969-0.58594-1.6836-1.418-2.1719-2.3984l-18.5-37.008c-0.49219-0.99219-0.70312-2.0977-0.61328-3.2031l2.3594-27.266-13.051-25.488v0.003906c-1.3945-2.9297-0.20703-6.4375 2.6836-7.918 2.8867-1.4805 6.4297-0.39453 7.9922 2.4492l13.84 27.023c0.51562 1 0.73438 2.1289 0.64062 3.25l-2.3594 27.297 16.992 34 12.078 7.6016v-0.003906c2.2656 1.4219 3.3164 4.1758 2.5742 6.7461-0.74609 2.5703-3.0977 4.3359-5.7734 4.3359z"/>
  <path d="m202 348.89c-2.2539 0-4.3203-1.2656-5.3438-3.2734-1.0234-2.0117-0.83203-4.4258 0.49219-6.25l15.691-21.645-0.70703-17.602v0.003906c-0.042968-1.0156 0.17578-2.0273 0.63281-2.9375l16.602-32.984h-0.003907c1.5352-2.8672 5.0781-3.9883 7.9883-2.5273 2.9062 1.4648 4.1172 4.9766 2.7266 7.9219l-15.898 31.602 0.73047 18.121v-0.003907c0.058594 1.3477-0.34375 2.6758-1.1328 3.7695l-16.922 23.332c-1.1289 1.5547-2.9336 2.4727-4.8555 2.4727z"/>
  <path d="m333.9 354.53-2.0273 37.02c-0.058594 1.0938 0.18359 2.1836 0.69531 3.1484l20.766 38.98c0.72656 1.4453 2.0039 2.5352 3.543 3.0273 1.5391 0.48828 3.2148 0.33594 4.6406-0.42188 1.4258-0.76172 2.4844-2.0664 2.9375-3.6172s0.26172-3.2188-0.53125-4.6289l-19.977-37.504 2.0469-37.312c0.066406-1.2695-0.27734-2.5312-0.97266-3.5977l-13-19.867c-0.85547-1.3672-2.2227-2.3359-3.8008-2.6797-1.5742-0.34766-3.2227-0.042969-4.5703 0.83984-1.3477 0.88281-2.2852 2.2695-2.6016 3.8516-0.3125 1.582 0.023437 3.2227 0.93359 4.5547z"/>
  <path d="m143.14 480.73c1.2812 0.94531 2.8906 1.3438 4.4648 1.1016 1.5781-0.24219 2.9922-1.1016 3.9336-2.3867l18.164-24.738v-0.003906c0.68359-0.93359 1.0859-2.043 1.1523-3.1992l2.3047-40.727 20.543-40.035v-0.003907c0.75781-1.418 0.91406-3.082 0.43359-4.6133-0.48047-1.5352-1.5586-2.8125-2.9883-3.5469-1.4297-0.73438-3.0977-0.86328-4.625-0.35938-1.5234 0.50781-2.7852 1.6016-3.4961 3.0469l-21.137 41.133c-0.38281 0.74609-0.60547 1.5664-0.65234 2.4023l-2.2773 40.223-17.109 23.309h0.003906c-0.94531 1.2852-1.3398 2.8906-1.1016 4.4648 0.24219 1.5781 1.1016 2.9922 2.3867 3.9336z"/>
  <path d="m504.83 495.89h-18.586v-5.8945h10.254c2.6641 0 5.1797-1.2148 6.8359-3.3008 1.6562-2.0859 2.2695-4.8125 1.6641-7.4062l-16.238-67.535c-0.66797-2.9102-2.7656-5.2773-5.5703-6.2852-2.8086-1.0039-5.9336-0.51172-8.2969 1.3086l-9.6016-30.398 0.003906-0.003906c-0.47266-1.4766-1.2773-2.8242-2.3516-3.9375l-65.746-67.82c-1.4023-1.457-3.2148-2.4531-5.1992-2.8516l-30.801-6.2578-31.543-24.359-9.5703-38.398c-0.33984-1.3477-0.95313-2.6094-1.8008-3.707l-29.723-38.324h-0.003906c-0.67188-0.87109-1.4805-1.625-2.3984-2.2305l-23.359-15.32c-3.6211-2.3945-8.3789-2.1719-11.758 0.55469l-18.801 15.105c-1.7109 1.3828-2.9219 3.2852-3.4492 5.4219l-7.8477 32.105-19.375 27.375-42.16 28.664c-1.2656 0.85937-2.3203 1.9922-3.0781 3.3203l-15.789 27.629-37.262 20.652c-1.75 0.96094-3.168 2.4219-4.082 4.1953l-31.699 62.281-10.848 5.707-4.8008-20.48c-0.94531-4.4453-4.8789-7.6172-9.4219-7.5977-4.5234-0.027344-8.4453 3.1172-9.4102 7.5352l-21.738 92.688c-0.62109 2.8516 0.082031 5.832 1.9141 8.1055 1.832 2.2695 4.5938 3.5938 7.5117 3.5898h15.734v5.8711h-29.273c-3.3125 0-6 2.6875-6 6 0 3.3164 2.6875 6 6 6h497.66c3.3125 0 6-2.6836 6-6 0-3.3125-2.6875-6-6-6zm-24.586-68.207 12.098 50.309h-24.188zm-437.8-29.625 18.762 79.961h-37.527zm6 91.961h15.727c2.9375 0 5.7109-1.3359 7.543-3.6289 1.832-2.2969 2.5156-5.3008 1.8633-8.1641l-14.074-60 14.176-7.4609v0.003907c1.8281-0.96094 3.3164-2.4648 4.25-4.3086l31.707-62.297 37.168-20.566c1.6133-0.88672 2.9492-2.2031 3.8633-3.8008l15.84-27.715 42.109-28.641c0.98438-0.67187 1.8398-1.5156 2.5273-2.4883l19.797-27.965c0.72656-1.0273 1.2539-2.1836 1.5547-3.4023l7.793-31.82 17.152-13.77 21.832 14.352 29.266 37.727 9.6328 38.645h-0.003907c0.54688 2.1875 1.8164 4.1289 3.6016 5.5078l32.461 25.062-0.003906 0.003906c1.2148 0.9375 2.625 1.582 4.125 1.8867l30.645 6.2266 65.008 67.055 14.363 45.398-12.875 53.555v0.003906c-0.55859 2.5742 0.074219 5.2656 1.7305 7.3203 1.6523 2.0547 4.1445 3.2539 6.7812 3.2578h10.246v5.8984h-50.363v-5.2344h14.18c2.8516-0.007812 5.5469-1.3086 7.3242-3.5391 1.7773-2.2266 2.4453-5.1445 1.8125-7.9258l-20.16-86c-0.96094-4.2773-4.7539-7.3203-9.1367-7.3281-4.3828-0.007813-8.1875 3.0195-9.168 7.293l-12.668 54-6.4648-26.301c-0.88672-3.8398-4.2969-6.5625-8.2383-6.5781-3.9375-0.011718-7.3711 2.6875-8.2852 6.5195l-14.859 60.305c-0.54297 2.5078 0.078125 5.125 1.6875 7.125s4.0391 3.1602 6.6055 3.1602h8.8086v4.5h-83.926v-4.5h8.8008c2.5664 0.003907 4.9961-1.1562 6.6055-3.1602 1.6406-2.0469 2.25-4.7383 1.6523-7.293l-14.801-60.074v-0.003907c-0.88281-3.8438-4.2969-6.5703-8.2383-6.5859-3.9414-0.015625-7.375 2.6914-8.2852 6.5273l-14.848 60.305c-0.54688 2.5078 0.074219 5.125 1.6836 7.125 1.6133 2 4.0391 3.1602 6.6055 3.1602h8.8242v4.5h-44.398v-7.8594h12.258c2.7617 0.003906 5.375-1.2578 7.0938-3.4219 1.7188-2.168 2.3555-4.9961 1.7266-7.6875l-18.238-75.879v-0.003906c-0.9375-4.1133-4.5938-7.0391-8.8125-7.0508-4.2227-0.011719-7.8906 2.8945-8.8516 7.0039l-18.281 76.047c-0.58203 2.6797 0.078125 5.4805 1.7969 7.6172 1.7188 2.1328 4.3125 3.375 7.0547 3.375h12.254v7.8594h-110.83v-7.8594h12.254c2.7617 0 5.375-1.2617 7.0938-3.4258s2.3555-4.9922 1.7305-7.6836l-18.227-75.801c-0.89844-4.1562-4.5625-7.125-8.8125-7.1445s-7.9414 2.918-8.8789 7.0625l-18.27 76c-0.58203 2.6797 0.078125 5.4805 1.7969 7.6172 1.7188 2.1328 4.3125 3.375 7.0547 3.375h12.258v7.8594h-51.727zm341.6-17.199-1.5078 6.4375v0.11719l-17.555-0.003906 10.336-41.941zm6.1016 18.551h-0.003906c1.1719-0.007812 2.3281-0.25781 3.3945-0.73438h12.348v5.2344h-24.562v-4.5zm4.8594-12.734 16.883-71.945 16.879 71.945zm-125.95 0.73438 10.336-41.941 10.34 41.941zm-60.566-3.3594 14.52-60.414 14.527 60.422zm-108.32-60.398 14.523 60.398h-29.055z"/>
 </g>
</svg>
