<?xml version="1.0" encoding="UTF-8"?>
<svg width="512pt" height="512pt" version="1.1" viewBox="0 0 512 512" xmlns="http://www.w3.org/2000/svg">
 <g fill="#443f3c">
  <path d="m292.28 327.06c16.234 0 29.441-13.203 29.441-29.441 0-16.234-13.203-29.441-29.441-29.441-16.234 0-29.441 13.203-29.441 29.441 0 16.238 13.203 29.441 29.441 29.441zm0-46.078c9.1758 0 16.641 7.4648 16.641 16.641 0 9.1758-7.4648 16.641-16.641 16.641s-16.641-7.4648-16.641-16.641c0-9.1758 7.4648-16.641 16.641-16.641z"/>
  <path d="m256 459.09c116.11 0 211.96-94.449 213.68-210.54l0.097656-6.4961-200.27-0.003906c-35.801 0-64.922-29.121-64.922-64.922 0-35.793 29.121-64.918 64.922-64.918h35.07c11.43 20.844 32.082 64.406 19.258 86.852l-6.2227 10.879 12.461-1.3398c0.58984-0.0625 56.457-6.7773 56.426-64.961 9.0312 1.1836 23.789 1.1523 38.586-7.5117 20.285-11.879 33.848-35.758 40.309-70.98l2.4531-13.43-11.898 6.707c-0.48047 0.27734-48.871 26.922-95.277 0.48828l-2.9062-1.5977-0.050781 0.019531c-31.129-16.859-66.219-25.758-101.71-25.758-117.87 0-213.76 95.891-213.76 213.77 0 21.898 3.3398 43.441 9.8359 64.129-12.391 12.34-20.074 29.402-20.074 48.23v6.3984h46.336c39.844 59.516 105.95 94.992 177.66 94.992zm13.559-13.316c100.07-45.902 111.68-162.32 112.98-190.93h28.453c-0.14453 27.188-8.1094 137.44-124.08 189-5.7109 0.89844-11.508 1.5234-17.359 1.9219zm68.605-17.277c77.672-59.09 85.074-148.54 85.551-173.65h32.961c-3.6367 77.18-51.531 143.29-118.51 173.65zm-283.12-183.16c0-110.81 90.148-200.96 200.96-200.96 34.395 0 68.387 8.8867 98.305 25.707l2.8984 1.5703 0.035156-0.015625c37.438 19.805 74.395 10.59 92.887 3.4609-6.293 24.539-16.809 41.293-31.34 49.891-18.152 10.723-36.812 4.6914-36.977 4.6406l-9.3047-3.1914 0.85547 9.8008c3.3164 37.977-19.645 51.984-33.914 56.992 5.8867-28.512-12.691-67.82-25.527-90.562l-1.8398-3.25h-42.566c-42.855 0-77.723 34.867-77.723 77.715 0 42.855 34.867 77.723 77.723 77.723h100.25c-1.3945 29.992-14.531 159.28-136.32 190.12-25.75-2.8789-50.375-10.598-72.711-22.625 55.48-11.672 80.086-53.773 88.043-71.352 46.762 28.09 81.582-9.2227 81.945-9.6211l-9.4727-8.6133c-1.2344 1.3633-30.766 32.977-71.73 3.3828l-7.1992-5.1797-2.6641 8.4648c-0.85156 2.7031-21.52 65.695-95.84 72.621-19.027-12.82-35.973-28.918-49.914-47.949h87.438l0.003907-74.508h-81.219c-13.773 0-26.59 4.1406-37.316 11.199-5.1445-17.961-7.7617-36.566-7.7617-55.453zm45.078 57.051h68.414v48.91l-123.36 0.003907c3.1836-27.5 26.613-48.914 54.949-48.914z"/>
  <path d="m38.398 465.5h98.137v12.801h-98.137z"/>
  <path d="m149.34 465.5h189.44v12.801h-189.44z"/>
  <path d="m353 465.5h23.328v12.801h-23.328z"/>
  <path d="m391.68 465.5h86.184v12.801h-86.184z"/>
  <path d="m209.79 92.957-4.8633-11.844c-79.734 32.785-83.215 126.36-83.324 130.33l12.793 0.35938c0.023437-0.88281 3.4531-89.266 75.395-118.84z"/>
 </g>
</svg>
