<?xml version="1.0" encoding="UTF-8"?>
<svg width="512pt" height="512pt" version="1.1" viewBox="0 0 512 512" xmlns="http://www.w3.org/2000/svg">
 <g fill="#443f3c">
  <path d="m488 384v-280c0-2.1211-0.84375-4.1562-2.3438-5.6562l-13.656-13.656v-12.688c0-4.418-3.582-8-8-8s-8 3.582-8 8v12.688l-13.602 13.602-7.1211-18.992v-0.003906c3.4336-1.5469 5.3242-5.2852 4.5352-8.9688-0.78906-3.6836-4.043-6.3203-7.8125-6.3242h-9.7539l-6.4844-25.941c-0.89062-3.5586-4.0898-6.0586-7.7617-6.0586v-8c0-4.418-3.582-8-8-8s-8 3.582-8 8v8c-3.6719 0-6.8711 2.5-7.7617 6.0586l-6.4844 25.941h-9.7539c-3.7656 0.003906-7.0195 2.6406-7.8086 6.3242-0.78906 3.6836 1.0977 7.418 4.5312 8.9688l-7.1211 18.992-13.602-13.598v-12.688c0-4.418-3.582-8-8-8s-8 3.582-8 8v12.688l-13.656 13.656c-1.5 1.5-2.3438 3.5352-2.3438 5.6562v56h-32v-8c0-2.1211-0.84375-4.1562-2.3438-5.6562s-3.5352-2.3438-5.6562-2.3438h-32c-4.418 0-8 3.582-8 8v8h-32v-56c0-2.1211-0.84375-4.1562-2.3438-5.6562l-13.656-13.656v-12.688c0-4.418-3.582-8-8-8s-8 3.582-8 8v12.688l-13.602 13.602-7.1211-18.992v-0.003906c3.4336-1.5469 5.3242-5.2852 4.5352-8.9688-0.78906-3.6836-4.043-6.3203-7.8125-6.3242h-9.7539l-6.4844-25.941c-0.89062-3.5586-4.0898-6.0586-7.7617-6.0586v-8c0-4.418-3.582-8-8-8s-8 3.582-8 8v8c-3.6719 0-6.8711 2.5-7.7617 6.0586l-6.4844 25.941h-9.7539c-3.7656 0.003906-7.0195 2.6406-7.8086 6.3242-0.78906 3.6836 1.0977 7.418 4.5312 8.9688l-7.1211 18.992-13.602-13.598v-12.688c0-4.418-3.582-8-8-8s-8 3.582-8 8v12.688l-13.656 13.656c-1.5 1.5-2.3438 3.5352-2.3438 5.6562v280c-4.418 0-8 3.582-8 8v96c0 2.1211 0.84375 4.1562 2.3438 5.6562s3.5352 2.3438 5.6562 2.3438h176c2.1211 0 4.1562-0.84375 5.6562-2.3438s2.3438-3.5352 2.3438-5.6562c-0.003906-6.3672 2.5273-12.473 7.0273-16.973s10.605-7.0312 16.973-7.0273h48c6.3633 0.007812 12.465 2.5391 16.961 7.0391 4.5 4.4961 7.0312 10.598 7.0391 16.961 0 2.1211 0.84375 4.1562 2.3438 5.6562s3.5352 2.3438 5.6562 2.3438h176c2.1211 0 4.1562-0.84375 5.6562-2.3438s2.3438-3.5352 2.3438-5.6562v-96c0-2.1211-0.84375-4.1562-2.3438-5.6562s-3.5352-2.3438-5.6562-2.3438zm-32 0v-64h16v64zm-48 0h-16v-32h16zm8-48h-32c-4.418 0-8 3.582-8 8v40h-16v-64h80v64h-16v-40c0-2.1211-0.84375-4.1562-2.3438-5.6562s-3.5352-2.3438-5.6562-2.3438zm-296 48h-16v-32h16zm8-48h-32c-4.418 0-8 3.582-8 8v40h-16v-64h80v64h-16v-40c0-2.1211-0.84375-4.1562-2.3438-5.6562s-3.5352-2.3438-5.6562-2.3438zm-88-48h144v16h-144zm32-150.55 21.543-57.449h36.91l21.547 57.449v22.551h-16v-24c0-2.1211-0.84375-4.1562-2.3438-5.6562l-16-16c-1.5-1.5-3.5352-2.3438-5.6562-2.3438s-4.1562 0.84375-5.6562 2.3438l-16 16c-1.5 1.5-2.3438 3.5352-2.3438 5.6562v24h-16zm48 22.551h-16v-20.688l8-8 8 8zm64 16v16h-144v-16zm128 32v16h-112v-16zm48-70.551 21.543-57.449h36.91l21.547 57.449v22.551h-16v-24c0-2.1211-0.84375-4.1562-2.3438-5.6562l-16-16c-1.5-1.5-3.5352-2.3438-5.6562-2.3438s-4.1562 0.84375-5.6562 2.3438l-16 16c-1.5 1.5-2.3438 3.5352-2.3438 5.6562v24h-16zm48 22.551h-16v-20.688l8-8 8 8zm64 16v16h-144v-16zm-144 128v-16h144v16zm-16 80h-112v-144h112zm-192-112h-16v-32h16zm8-48h-32c-4.418 0-8 3.582-8 8v40h-16v-64h80v64h-16v-40c0-2.1211-0.84375-4.1562-2.3438-5.6562s-3.5352-2.3438-5.6562-2.3438zm40-16h16v64h-16zm256 64v-40c0-2.1211-0.84375-4.1562-2.3438-5.6562s-3.5352-2.3438-5.6562-2.3438h-32c-4.418 0-8 3.582-8 8v40h-16v-64h80v64zm-16 0h-16v-32h16zm-64 0h-16v-64h16zm112-64h16v64h-16zm-400 64h-16v-64h16zm112 48h16v64h-16zm40 80h16v16h-16zm32 0h32v16h-32zm48 0h16v16h-16zm40-80h16v64h-16zm136-220.69 8 8v52.688h-16v-52.688zm-65.754-51.312h3.5078l4 16h-11.508zm-62.246 51.312 8 8v52.688h-16v-52.688zm-24 76.688v16h-32v-16zm-48-16v32h-16v-32zm-32 32h-32v-16h32zm-56-92.688 8 8v52.688h-16v-52.688zm-65.754-51.312h3.5078l4 16h-11.508zm-62.246 51.312 8 8v52.688h-16v-52.688zm-8 220.69h16v64h-16zm-8 80h160v80h-160zm248 48h-48c-8.6562-0.023438-17.086 2.7852-24 7.9922v-23.992h96v24.023c-6.9141-5.2148-15.34-8.0312-24-8.0234zm200 32h-160v-80h160z"/>
  <path d="m64 424c0 4.418-3.582 8-8 8s-8-3.582-8-8 3.582-8 8-8 8 3.582 8 8"/>
  <path d="m96 424c0 4.418-3.582 8-8 8s-8-3.582-8-8 3.582-8 8-8 8 3.582 8 8"/>
  <path d="m128 424c0 4.418-3.582 8-8 8s-8-3.582-8-8 3.582-8 8-8 8 3.582 8 8"/>
  <path d="m160 424c0 4.418-3.582 8-8 8s-8-3.582-8-8 3.582-8 8-8 8 3.582 8 8"/>
  <path d="m368 424c0 4.418-3.582 8-8 8s-8-3.582-8-8 3.582-8 8-8 8 3.582 8 8"/>
  <path d="m400 424c0 4.418-3.582 8-8 8s-8-3.582-8-8 3.582-8 8-8 8 3.582 8 8"/>
  <path d="m432 424c0 4.418-3.582 8-8 8s-8-3.582-8-8 3.582-8 8-8 8 3.582 8 8"/>
  <path d="m464 424c0 4.418-3.582 8-8 8s-8-3.582-8-8 3.582-8 8-8 8 3.582 8 8"/>
 </g>
</svg>
