<?xml version="1.0" encoding="UTF-8"?>
<svg width="512pt" height="512pt" version="1.1" viewBox="0 0 512 512" xmlns="http://www.w3.org/2000/svg">
 <g fill="#443f3c">
  <path d="m464.05 423.59h-25.219v-158.26c0-2.8281-2.2891-5.1211-5.1211-5.1211h-34.023v-33.703c0-2.8281-2.2891-5.1211-5.1211-5.1211h-1.1836v-15.82c0-11.898-6.9883-22.164-17.066-26.996v-17.93c0-2.8281-2.2891-5.1211-5.1211-5.1211h-2.6484v-14.289c0-2.8281-2.2891-5.1211-5.1211-5.1211-2.832 0-5.1211 2.293-5.1211 5.1211v14.289l-2.2656-0.003906c-2.832 0-5.1211 2.293-5.1211 5.1211v17.75c-10.277 4.75-17.434 15.129-17.434 27.172v15.832c-2.8125 0.019531-5.0859 2.3008-5.0859 5.1133v0.95703h-0.99219v-48.922c0-30.781-19.934-58.02-48.906-67.645v-29.43c0-2.8281-2.2891-5.1211-5.1211-5.1211h-2.7344l-9.6836-38.66c-0.57031-2.2773-2.6133-3.875-4.9648-3.875s-4.3945 1.5977-4.9648 3.875l-9.6758 38.656h-2.7383c-2.832 0-5.1211 2.293-5.1211 5.1211v29.43c-28.973 9.625-48.906 36.863-48.906 67.645v48.922h-0.99219v-0.95703c0-2.8281-2.2891-5.1211-5.1211-5.1211h-1.1875v-15.82c0-11.895-6.9883-22.164-17.059-26.992v-17.934c0-2.8281-2.2891-5.1211-5.1211-5.1211h-2.6523v-14.289c0-2.8281-2.2891-5.1211-5.1211-5.1211-2.832 0-5.1211 2.293-5.1211 5.1211v14.289h-2.2734c-2.832 0-5.1211 2.293-5.1211 5.1211v17.75c-10.277 4.75-17.434 15.129-17.434 27.172v15.832c-2.8125 0.027343-5.0781 2.3008-5.0781 5.1094v33.703h-34.027c-2.832 0-5.1211 2.293-5.1211 5.1211v158.26h-25.219c-2.832 0-5.1211 2.293-5.1211 5.1211s2.2891 5.1211 5.1211 5.1211h416.12c2.832 0 5.1211-2.293 5.1211-5.1211-0.011718-2.8281-2.3086-5.1094-5.1367-5.1094zm-102.89-257.84h4.9219v9.9883c-0.875-0.078126-1.75-0.13281-2.6484-0.13281-0.74609 0-1.5117 0.035156-2.2734 0.10156zm-3.9883 21.137c0.13281-0.03125 0.26562 0.015625 0.39844-0.027344 1.1016-0.34766 2.1094-0.60547 3.0781-0.77734 0.91797-0.13281 1.8398-0.23438 2.7891-0.23438 0.95703 0 1.8828 0.10938 2.8047 0.23438 0.96094 0.17578 1.9727 0.42969 3.0664 0.77734 0.21484 0.066407 0.44531 0.0625 0.66406 0.10156 6.082 2.1445 10.809 7.1953 12.496 13.473h-38.074c1.7227-6.3672 6.5664-11.457 12.777-13.547zm-13.445 23.789h39.418v10.699h-39.418zm-5.082 21.902v-0.95703h50.805v28.586h-4.0547l-17.418-17.422c-0.96094-0.96094-2.2578-1.5-3.6211-1.5s-2.6641 0.53906-3.6211 1.5l-17.422 17.422h-4.668zm-82.648-172.57 4.0898 16.332h-8.1836zm-12.266 26.578h24.531v23.234h-24.531zm-5.4258 33.461c0.10156 0.003906 0.19922 0.011719 0.30859 0.011719h34.77c0.10156 0 0.20312 0 0.30859-0.011719 24.043 7.2539 41.176 28.586 43.266 53.371h-121.91c2.0898-24.785 19.219-46.113 43.262-53.371zm-43.477 63.613h122.34v43.801h-7.3789v-26.305c0-2.8281-2.2891-5.1211-5.1211-5.1211h-18.621c-2.832 0-5.1211 2.293-5.1211 5.1211v26.305h-10.512v-26.305c0-2.8281-2.2891-5.1211-5.1211-5.1211h-18.609c-2.832 0-5.1211 2.293-5.1211 5.1211v26.305h-10.504v-26.305c0-2.8281-2.2891-5.1211-5.1211-5.1211h-18.617c-2.832 0-5.1211 2.293-5.1211 5.1211v26.305h-7.3789zm104.72 22.613v21.188h-8.375v-21.188zm-39.367 0v21.188h-8.3711v-21.188zm-39.359 0v21.188h-8.375v-21.188zm-37.23 31.426h144.8v22.508h-144.8zm-38.535-71.945h4.9258v9.9961c-0.875-0.078125-1.7578-0.13281-2.6523-0.13281-0.74609 0-1.5117 0.035156-2.2734 0.10156zm-3.9883 21.137c0.13281-0.03125 0.26563 0.015625 0.39844-0.027344 1.1055-0.34766 2.1133-0.60547 3.082-0.77734 0.91016-0.12891 1.8398-0.23438 2.7852-0.23438 0.96094 0 1.8984 0.10938 2.8203 0.24219 0.95703 0.17578 1.9609 0.42969 3.0508 0.77734 0.21484 0.066406 0.44141 0.0625 0.66016 0.10156 6.082 2.1445 10.809 7.1953 12.496 13.473h-38.074c1.7266-6.375 6.5703-11.465 12.781-13.555zm-13.445 23.789h39.418v10.699h-39.418zm-5.0781 20.945h50.805v28.586h-4.668l-17.422-17.422c-1.9219-1.9219-5.3203-1.9219-7.2383 0l-17.418 17.422h-4.0547zm-39.141 191.93v-110.27h11.367v109.97c0 0.10938 0.050781 0.19531 0.0625 0.29688zm47.512-2.9883h-8.375v-21.188h8.375zm10.242 2.9883v-29.297c0-2.8281-2.2891-5.1211-5.1211-5.1211h-18.617c-2.832 0-5.1211 2.293-5.1211 5.1211v29.297h-7.3594c0.003906-0.10156 0.0625-0.1875 0.0625-0.29688l0.003906-109.97h42.328v109.97c0 0.10938 0.050781 0.19531 0.0625 0.29688zm25.879-86.27v86.273h-9.5234c0.003906-0.10156 0.0625-0.1875 0.0625-0.29688v-109.98h9.4688v24zm-83.633-34.238v-32.594h45.316c1.3633 0 2.6641-0.53906 3.6211-1.5l15.297-15.305 15.305 15.305c0.96094 0.96094 2.2578 1.5 3.6211 1.5h85.082l-83.508 32.594zm173.48-23.648 60.438 23.586h-120.87zm-51.426 144.16h-8.375v-21.141h8.375zm17.895 0h-7.6523v-26.262c0-2.8281-2.2891-5.1211-5.1211-5.1211h-18.617c-2.832 0-5.1211 2.293-5.1211 5.1211v26.262h-9.5703v-81.152h9.5703v29.562c0 2.8281 2.2891 5.1211 5.1211 5.1211h18.617c2.832 0 5.1211-2.293 5.1211-5.1211v-29.562h7.6562zm-26.27-56.707v-21.188h8.375v21.188zm63.094 56.707h-8.3711v-21.141h8.3711zm18.855 0h-8.6172v-26.262c0-2.8281-2.2891-5.1211-5.1211-5.1211h-18.609c-2.832 0-5.1211 2.293-5.1211 5.1211v26.262h-7.9766v-81.152h7.9766v29.562c0 2.8281 2.2891 5.1211 5.1211 5.1211h18.609c2.832 0 5.1211-2.293 5.1211-5.1211v-29.562h8.6172zm-27.223-56.707v-21.188h8.3711v21.188zm63.094 56.707h-8.375v-21.141h8.375zm17.891 0h-7.6484v-26.262c0-2.8281-2.2891-5.1211-5.1211-5.1211l-18.617 0.003906c-2.832 0-5.1211 2.293-5.1211 5.1211v26.262l-7.0117-0.003907v-81.152h7.0156v29.562c0 2.8281 2.2891 5.1211 5.1211 5.1211h18.617c2.832 0 5.1211-2.293 5.1211-5.1211v-29.562h7.6445zm-26.266-56.707v-21.188h8.375v21.188zm26.266-34.684h-155.52v-18.879h155.52zm10.238 91.391v-110.27h10.137v109.97c0 0.10938 0.050781 0.19531 0.0625 0.29688zm46.289-2.9883h-8.375v-21.188h8.375zm10.242 2.9883v-29.297c0-2.8281-2.2891-5.1211-5.1211-5.1211h-18.617c-2.832 0-5.1211 2.293-5.1211 5.1211v29.297h-7.3594c0.003907-0.10156 0.0625-0.1875 0.0625-0.29688l0.003907-109.97h42.328v109.97c0 0.10938 0.050781 0.19531 0.0625 0.29688zm29.023 0h-12.672c0.003906-0.10156 0.0625-0.1875 0.0625-0.29688v-109.97h12.609zm0-120.51h-82.953l-83.508-32.594h83.305c1.3633 0 2.6641-0.53906 3.6211-1.5l15.305-15.305 15.297 15.305c0.96094 0.96094 2.2578 1.5 3.6211 1.5h45.316z"/>
  <path d="m406.94 458.98c2.832 0 5.1211-2.293 5.1211-5.1211s-2.2891-5.1211-5.1211-5.1211l-301.88 0.003907c-2.832 0-5.1211 2.293-5.1211 5.1211s2.2891 5.1211 5.1211 5.1211z"/>
  <path d="m373.49 54.656h0.066406c6.6133 0.019531 12.645 3.6758 15.734 9.5352 0.88672 1.6758 2.6211 2.7227 4.5117 2.7305l47.121 0.16406h0.019531c2.8203 0 5.1094-2.2773 5.1211-5.1055 0.011719-2.8281-2.2734-5.125-5.0977-5.1367l-44.254-0.15234c-5.1797-7.6094-13.777-12.242-23.121-12.273h-0.10938c-15.441 0-28.039 12.539-28.09 28 0 0.77734 0.070313 1.5508 0.13281 2.3242-9.3125 1.8125-17.504 8.2578-21.027 17.793-0.6875 1.8477-1.1719 3.7383-1.4531 5.6523l-16.621-0.054688h-0.019531c-2.8203 0-5.1094 2.2773-5.1211 5.1055-0.011718 2.8281 2.2734 5.125 5.0977 5.1367l21.484 0.078125h0.019531c1.3945 0 2.7305-0.56641 3.7031-1.582 0.96875-1.0156 1.4805-2.3789 1.4141-3.7773-0.10938-2.3711 0.25781-4.7266 1.0938-6.9922 3.4219-9.2305 13.723-13.961 22.938-10.547 6.2109 2.3008 10.613 7.7969 11.5 14.363 0.37891 2.7969 2.9336 4.7344 5.7617 4.3867 2.8047-0.37891 4.7656-2.9609 4.3867-5.7617-1.3945-10.32-8.3242-18.98-18.094-22.602-1.5508-0.57422-3.125-0.96875-4.6953-1.2578-0.09375-0.74219-0.26562-1.4727-0.26562-2.2266 0.046875-9.8359 8.043-17.801 17.863-17.801z"/>
  <path d="m136.04 335.42h-18.617c-2.832 0-5.1211 2.293-5.1211 5.1211v31.426c0 2.8281 2.2891 5.1211 5.1211 5.1211h18.617c2.832 0 5.1211-2.293 5.1211-5.1211v-31.426c0-2.8281-2.2891-5.1211-5.1211-5.1211zm-5.1211 31.426h-8.375v-21.188h8.375z"/>
  <path d="m394.45 335.42h-18.617c-2.832 0-5.1211 2.293-5.1211 5.1211v31.426c0 2.8281 2.2891 5.1211 5.1211 5.1211h18.617c2.832 0 5.1211-2.293 5.1211-5.1211v-31.426c0-2.8281-2.2891-5.1211-5.1211-5.1211zm-5.1211 31.426h-8.375v-21.188h8.375z"/>
 </g>
</svg>
