<?xml version="1.0" encoding="UTF-8"?>
<svg width="512pt" height="512pt" version="1.1" viewBox="0 0 512 512" xmlns="http://www.w3.org/2000/svg">
 <g fill="#e6e5e4">
  <path d="m429.75 263.7v41.5 62.699c0 6.9492 0.19922 13.898-0.69922 20.801 0.30078-2.1992 0.60156-4.4492 0.89844-6.6484-0.94922 6.6992-2.6992 13.148-5.3008 19.398 0.85156-2 1.6992-4 2.5-5.9492-2.6016 6.0508-5.8984 11.75-9.8984 16.949 1.3008-1.6992 2.6016-3.3516 3.8984-5.0508-4 5.1484-8.6484 9.8008-13.801 13.801 1.6992-1.3008 3.3516-2.6016 5.0508-3.8984-5.25 4-10.898 7.3516-16.949 9.8984 2-0.85156 4-1.6992 5.9492-2.5-6.1992 2.6016-12.699 4.3516-19.398 5.3008 2.1992-0.30078 4.4492-0.60156 6.6484-0.89844-10.449 1.3516-21.352 0.69922-31.852 0.69922h-59.801-73.398-62.602c-9.1016 0-18.199 0.050781-27.25 0-3.5 0-6.9492-0.25-10.398-0.69922 2.1992 0.30078 4.4492 0.60156 6.6484 0.89844-6.6992-0.94922-13.148-2.6992-19.398-5.3008 2 0.85156 4 1.6992 5.9492 2.5-6.0508-2.6016-11.75-5.8984-16.949-9.8984 1.6992 1.3008 3.3516 2.6016 5.0508 3.8984-5.1484-4-9.8008-8.6484-13.801-13.801 1.3008 1.6992 2.6016 3.3516 3.8984 5.0508-4-5.25-7.3516-10.898-9.8984-16.949 0.85156 2 1.6992 4 2.5 5.9492-2.6016-6.1992-4.3516-12.699-5.3008-19.398 0.30078 2.1992 0.60156 4.4492 0.89844 6.6484-1.3516-10.449-0.69922-21.352-0.69922-31.852v-59.801-73.398-62.602c0-9.1016-0.050782-18.199 0-27.25 0-3.5 0.25-6.9492 0.69922-10.398-0.30078 2.1992-0.60156 4.4492-0.89844 6.6484 0.94922-6.6992 2.6992-13.148 5.3008-19.398-0.85156 2-1.6992 4-2.5 5.9492 2.6016-6.0508 5.8984-11.75 9.8984-16.949-1.3008 1.6992-2.6016 3.3516-3.8984 5.0508 4-5.1484 8.6484-9.8008 13.801-13.801-1.6992 1.3008-3.3516 2.6016-5.0508 3.8984 5.25-4 10.898-7.3516 16.949-9.8984-2 0.85156-4 1.6992-5.9492 2.5 6.1992-2.6016 12.699-4.3516 19.398-5.3008-2.1992 0.30078-4.4492 0.60156-6.6484 0.89844 6.0508-0.80078 12.148-0.69922 18.25-0.69922h26.551 64.852 15.352c6.3984 0 13.148-2.8008 17.699-7.3008 4.3516-4.3516 7.6016-11.449 7.3008-17.699-0.30078-6.4492-2.3984-13.148-7.3008-17.699-4.8984-4.5-10.898-7.3008-17.699-7.3008h-37.898-61.352-14.898c-16.398 0-32.051 4-46.699 11.199-16.398 8.0508-30.25 21.449-39.949 36.801-10 15.801-15.148 34.801-15.199 53.449-0.050781 7 0 14 0 21.051v51.602 64.898 60.898 39.648 6.5c0.050781 17.648 4.6992 35.352 13.5 50.648 17.898 31.199 52.102 50.699 88 50.801 7.75 0.050781 15.5 0 23.25 0h52.801 65.102 60.148 37.949c2.1992 0 4.4492 0.050781 6.6484 0 18.648-0.35156 37.801-5.75 53.398-16.102 15.148-10.051 28.398-23.949 36.148-40.551 6.6992-14.449 10.5-29.398 10.5-45.398v-44.5-59.051-10.449c0-6.3984-2.8008-13.148-7.3008-17.699-4.3516-4.3516-11.449-7.6016-17.699-7.3008-6.4492 0.30078-13.148 2.3984-17.699 7.3008-4.5 4.8555-7.3516 10.855-7.3516 17.656z"/>
  <path d="m343.75 82.25h37.551 59.801 13.648c6.3984 0 13.148-2.8008 17.699-7.3008 4.3516-4.3516 7.6016-11.449 7.3008-17.699-0.30078-6.4492-2.3984-13.148-7.3008-17.699-4.8984-4.5-10.898-7.3008-17.699-7.3008h-37.551-59.801-13.648c-6.3984 0-13.148 2.8008-17.699 7.3008-4.3516 4.3516-7.6016 11.449-7.3008 17.699 0.30078 6.4492 2.3984 13.148 7.3008 17.699 4.8984 4.4492 10.949 7.3008 17.699 7.3008z"/>
  <path d="m479.75 168.25v-37.551-59.801-13.648c0-6.3984-2.8008-13.148-7.3008-17.699-4.3516-4.3516-11.449-7.6016-17.699-7.3008-6.4492 0.30078-13.148 2.3984-17.699 7.3008-4.5 4.8984-7.3008 10.898-7.3008 17.699v37.551 59.801 13.648c0 6.3984 2.8008 13.148 7.3008 17.699 4.3516 4.3516 11.449 7.6016 17.699 7.3008 6.4492-0.30078 13.148-2.3984 17.699-7.3008 4.4492-4.8984 7.3008-10.949 7.3008-17.699z"/>
  <path d="m274.1 273.25c6.6016-6.6016 13.25-13.25 19.852-19.852 15.75-15.75 31.551-31.551 47.301-47.301 19.051-19.051 38.102-38.102 57.199-57.199 16.551-16.551 33.051-33.051 49.602-49.602 8-8 16.148-15.949 24.051-24.051 0.10156-0.10156 0.19922-0.19922 0.35156-0.35156 4.5508-4.5508 7.3008-11.25 7.3008-17.699 0-6.1484-2.6992-13.449-7.3008-17.699-4.75-4.3516-11-7.6016-17.699-7.3008-6.6484 0.30078-12.898 2.5508-17.699 7.3008-6.6016 6.6016-13.25 13.25-19.852 19.852-15.75 15.75-31.551 31.551-47.301 47.301-19.051 19.051-38.102 38.102-57.199 57.199-16.551 16.551-33.051 33.051-49.602 49.602-8 8-16.148 15.949-24.051 24.051-0.10156 0.10156-0.19922 0.19922-0.35156 0.35156-4.5508 4.5508-7.3008 11.25-7.3008 17.699 0 6.1484 2.6992 13.449 7.3008 17.699 4.75 4.3516 11 7.6016 17.699 7.3008 6.6484-0.25 12.898-2.5 17.699-7.3008z"/>
 </g>
</svg>
