<svg width="429" height="360" viewBox="0 0 429 360" fill="none" xmlns="http://www.w3.org/2000/svg">
<g clip-path="url(#clip0_1_6)">
<path d="M426.35 0.0299372L374.46 8.73994C372.55 9.05994 371.82 11.4699 373.46 12.0499L396.04 20.2199C396.667 20.4234 397.209 20.8273 397.583 21.3695C397.957 21.9117 398.142 22.562 398.11 23.2199L397.54 47.2199C397.54 48.9499 400 49.1399 400.99 47.4799L427.91 2.26994C428.083 2.02648 428.177 1.7355 428.178 1.43679C428.18 1.13808 428.089 0.846204 427.918 0.601074C427.747 0.355944 427.505 0.169519 427.224 0.0672907C426.944 -0.0349377 426.638 -0.0479846 426.35 0.0299372Z" fill="#A8A29E"/>
<path d="M5.09 359.07C3.43949 358.715 1.99737 357.72 1.08047 356.302C0.163574 354.885 -0.153109 353.161 0.2 351.51C0.550757 349.867 1.53741 348.429 2.94451 347.511C4.35161 346.593 6.06481 346.269 7.71 346.61C8.52789 346.785 9.30334 347.119 9.99195 347.593C10.6806 348.068 11.2688 348.674 11.723 349.376C12.1772 350.078 12.4885 350.863 12.639 351.686C12.7894 352.508 12.7762 353.353 12.6 354.17C12.2784 355.626 11.4572 356.923 10.279 357.836C9.10078 358.75 7.6399 359.222 6.15 359.17C5.7944 359.168 5.43967 359.135 5.09 359.07ZM13.01 332.13C12.2389 331.805 11.5396 331.331 10.9518 330.735C10.3641 330.139 9.89957 329.433 9.58474 328.658C9.26992 327.882 9.11099 327.052 9.11704 326.215C9.12309 325.378 9.294 324.551 9.62 323.78C10.2812 322.226 11.5314 320.998 13.0966 320.365C14.6617 319.731 16.4142 319.744 17.97 320.4C18.7411 320.726 19.4404 321.2 20.0282 321.796C20.6159 322.391 21.0804 323.097 21.3953 323.873C21.7101 324.648 21.869 325.478 21.863 326.315C21.8569 327.152 21.686 327.979 21.36 328.75C20.8539 329.937 20.0003 330.943 18.9115 331.636C17.8226 332.328 16.5496 332.675 15.26 332.63C14.4692 332.605 13.6897 332.436 12.96 332.13H13.01ZM280.01 322.13C279.923 321.297 280.001 320.456 280.239 319.653C280.477 318.851 280.871 318.103 281.399 317.453C281.926 316.803 282.577 316.263 283.313 315.864C284.05 315.466 284.857 315.216 285.69 315.13C286.523 315.043 287.366 315.121 288.169 315.36C288.972 315.599 289.72 315.994 290.371 316.523C291.021 317.051 291.561 317.703 291.959 318.44C292.357 319.178 292.605 319.986 292.69 320.82C292.777 321.653 292.699 322.494 292.461 323.297C292.223 324.1 291.829 324.847 291.301 325.498C290.774 326.148 290.123 326.687 289.387 327.086C288.65 327.485 287.843 327.734 287.01 327.82C286.714 327.84 286.416 327.84 286.12 327.82C284.573 327.787 283.09 327.191 281.951 326.144C280.811 325.096 280.093 323.669 279.93 322.13H280.01ZM257.09 326.13C255.443 325.758 254.011 324.748 253.108 323.321C252.204 321.895 251.903 320.168 252.27 318.52C252.64 316.872 253.65 315.438 255.077 314.534C256.504 313.63 258.232 313.33 259.88 313.7C260.697 313.882 261.47 314.224 262.154 314.705C262.839 315.186 263.422 315.798 263.869 316.505C264.317 317.212 264.621 318 264.764 318.825C264.906 319.649 264.884 320.494 264.7 321.31C264.381 322.763 263.563 324.059 262.389 324.972C261.214 325.885 259.757 326.359 258.27 326.31C257.846 326.304 257.424 326.254 257.01 326.16L257.09 326.13ZM307.53 317.07C307.226 316.291 307.078 315.459 307.096 314.623C307.113 313.786 307.295 312.961 307.631 312.195C307.967 311.429 308.451 310.737 309.055 310.158C309.659 309.579 310.371 309.124 311.15 308.82C312.723 308.205 314.475 308.24 316.022 308.917C317.569 309.594 318.784 310.858 319.4 312.43C319.704 313.21 319.852 314.041 319.834 314.878C319.817 315.714 319.635 316.539 319.299 317.305C318.963 318.071 318.479 318.763 317.875 319.343C317.271 319.922 316.559 320.376 315.78 320.68C314.976 321.001 314.115 321.151 313.25 321.12C311.995 321.094 310.776 320.698 309.745 319.983C308.713 319.268 307.915 318.266 307.45 317.1L307.53 317.07ZM229.31 314.34C227.903 313.405 226.925 311.95 226.591 310.294C226.258 308.638 226.595 306.917 227.53 305.51C228.467 304.103 229.924 303.125 231.582 302.791C233.239 302.457 234.961 302.795 236.37 303.73C237.067 304.2 237.664 304.802 238.127 305.503C238.591 306.203 238.912 306.989 239.071 307.813C239.231 308.638 239.227 309.486 239.058 310.31C238.89 311.133 238.561 311.914 238.09 312.61C237.486 313.517 236.66 314.253 235.69 314.749C234.72 315.244 233.638 315.482 232.55 315.44C231.364 315.409 230.211 315.037 229.23 314.37L229.31 314.34ZM24.7 306.66C23.971 306.249 23.3301 305.699 22.8139 305.04C22.2977 304.381 21.9163 303.628 21.6916 302.822C21.4669 302.015 21.4032 301.173 21.5041 300.342C21.6051 299.512 21.8687 298.709 22.28 297.98C23.1163 296.517 24.4991 295.446 26.1246 295.001C27.7502 294.557 29.4857 294.776 30.95 295.61C32.422 296.44 33.5046 297.82 33.9602 299.448C34.4157 301.075 34.2071 302.816 33.38 304.29C32.8048 305.307 31.9618 306.147 30.9428 306.718C29.9237 307.289 28.7676 307.57 27.6 307.53C26.5775 307.477 25.5829 307.179 24.7 306.66ZM332.84 305.28C332.368 304.589 332.038 303.811 331.868 302.991C331.697 302.172 331.691 301.326 331.848 300.504C332.005 299.682 332.322 298.899 332.783 298.2C333.243 297.501 333.837 296.899 334.53 296.43C335.223 295.96 336.001 295.632 336.821 295.463C337.64 295.294 338.485 295.288 339.307 295.446C340.129 295.604 340.912 295.922 341.611 296.383C342.31 296.843 342.911 297.437 343.38 298.13C344.324 299.528 344.676 301.242 344.359 302.899C344.043 304.555 343.083 306.019 341.69 306.97C340.572 307.729 339.241 308.115 337.89 308.07C336.888 308.037 335.908 307.767 335.03 307.282C334.152 306.797 333.402 306.111 332.84 305.28ZM207.69 293.1C207.217 292.411 206.884 291.635 206.71 290.817C206.537 289.999 206.527 289.155 206.68 288.333C206.833 287.511 207.147 286.727 207.603 286.027C208.06 285.326 208.65 284.722 209.34 284.25C210.736 283.297 212.452 282.936 214.113 283.248C215.774 283.559 217.244 284.516 218.2 285.91C219.154 287.303 219.516 289.017 219.206 290.677C218.897 292.336 217.941 293.805 216.55 294.76C215.429 295.531 214.09 295.92 212.73 295.87C211.731 295.838 210.754 295.57 209.878 295.088C209.003 294.607 208.253 293.926 207.69 293.1ZM39.17 282.61C37.7933 281.629 36.8621 280.142 36.5808 278.475C36.2996 276.809 36.6913 275.098 37.67 273.72C38.6508 272.343 40.1379 271.412 41.8047 271.131C43.4715 270.85 45.1818 271.241 46.56 272.22C47.2518 272.702 47.8409 273.317 48.293 274.028C48.7452 274.74 49.0513 275.534 49.1937 276.365C49.336 277.196 49.3118 278.047 49.1223 278.868C48.9328 279.69 48.5819 280.465 48.09 281.15C47.4787 282.01 46.6635 282.705 45.7176 283.173C44.7717 283.641 43.7246 283.866 42.67 283.83C41.4085 283.778 40.1908 283.353 39.17 282.61ZM354.93 288.05C354.301 287.497 353.787 286.825 353.418 286.074C353.048 285.322 352.831 284.504 352.778 283.668C352.725 282.832 352.838 281.994 353.109 281.202C353.381 280.409 353.806 279.678 354.36 279.05C354.912 278.42 355.583 277.906 356.335 277.535C357.087 277.165 357.904 276.947 358.74 276.893C359.576 276.839 360.414 276.951 361.207 277.221C362 277.492 362.731 277.916 363.36 278.47C363.989 279.023 364.503 279.695 364.872 280.447C365.241 281.199 365.459 282.016 365.512 282.852C365.565 283.688 365.452 284.526 365.181 285.319C364.909 286.111 364.484 286.842 363.93 287.47C363.311 288.181 362.541 288.745 361.675 289.118C360.81 289.492 359.872 289.667 358.93 289.63C357.458 289.596 356.045 289.052 354.93 288.09V288.05ZM195.46 265.61C195.258 264.799 195.218 263.956 195.342 263.13C195.466 262.303 195.751 261.51 196.182 260.794C196.613 260.077 197.181 259.453 197.853 258.957C198.525 258.46 199.289 258.101 200.1 257.9C200.912 257.698 201.756 257.658 202.584 257.783C203.412 257.907 204.207 258.193 204.924 258.625C205.641 259.057 206.265 259.626 206.762 260.299C207.259 260.973 207.619 261.738 207.82 262.55C208.225 264.189 207.962 265.922 207.091 267.367C206.219 268.813 204.809 269.854 203.17 270.26C202.595 270.407 202.003 270.471 201.41 270.45C200.028 270.398 198.7 269.897 197.626 269.024C196.553 268.151 195.793 266.953 195.46 265.61ZM56.09 260.3C54.8231 259.18 54.0526 257.604 53.9476 255.916C53.8426 254.228 54.4117 252.568 55.53 251.3C56.083 250.671 56.7549 250.156 57.5072 249.787C58.2595 249.418 59.0773 249.201 59.9136 249.149C60.7499 249.097 61.5883 249.211 62.3805 249.484C63.1728 249.757 63.9032 250.184 64.53 250.74C65.1584 251.294 65.6715 251.966 66.0398 252.718C66.4082 253.471 66.6245 254.288 66.6766 255.124C66.7286 255.96 66.6152 256.798 66.343 257.59C66.0707 258.382 65.6449 259.113 65.09 259.74C64.4685 260.447 63.6973 261.007 62.8324 261.379C61.9676 261.751 61.0308 261.925 60.09 261.89C58.6126 261.84 57.1984 261.278 56.09 260.3ZM371.72 265.68C370.172 265.002 368.958 263.738 368.342 262.164C367.727 260.591 367.762 258.838 368.44 257.29C368.773 256.522 369.255 255.828 369.858 255.247C370.461 254.666 371.173 254.21 371.953 253.905C372.732 253.6 373.565 253.452 374.402 253.47C375.239 253.488 376.064 253.672 376.83 254.01C378.378 254.688 379.592 255.952 380.208 257.526C380.823 259.099 380.788 260.853 380.11 262.4C379.597 263.568 378.745 264.556 377.665 265.235C376.584 265.914 375.325 266.254 374.05 266.21C373.24 266.183 372.443 266.003 371.7 265.68H371.72ZM75.18 239.81C74.0395 238.566 73.4372 236.922 73.5047 235.236C73.5721 233.55 74.3038 231.959 75.54 230.81C76.7825 229.667 78.4274 229.063 80.1144 229.131C81.8013 229.198 83.3927 229.932 84.54 231.17C85.6855 232.411 86.2911 234.057 86.2236 235.745C86.1561 237.432 85.421 239.024 84.18 240.17C82.9484 241.309 81.316 241.913 79.64 241.85C78.7984 241.823 77.9705 241.629 77.2048 241.279C76.439 240.929 75.7507 240.429 75.18 239.81ZM198.82 242.61C197.135 242.515 195.557 241.754 194.432 240.496C193.307 239.238 192.727 237.585 192.82 235.9C192.918 234.216 193.679 232.639 194.937 231.515C196.194 230.391 197.846 229.81 199.53 229.9C200.365 229.946 201.182 230.156 201.936 230.518C202.689 230.881 203.364 231.388 203.921 232.011C204.478 232.634 204.907 233.361 205.183 234.15C205.46 234.94 205.577 235.775 205.53 236.61C205.437 238.272 204.696 239.832 203.465 240.954C202.235 242.076 200.614 242.67 198.95 242.61H198.82ZM380.4 239.1C379.564 239.065 378.743 238.866 377.984 238.514C377.225 238.162 376.543 237.664 375.977 237.049C375.41 236.433 374.971 235.712 374.683 234.926C374.395 234.141 374.265 233.306 374.3 232.47C374.373 230.784 375.112 229.195 376.355 228.053C377.598 226.911 379.244 226.31 380.93 226.38C381.765 226.414 382.585 226.611 383.344 226.963C384.102 227.314 384.784 227.811 385.349 228.426C385.915 229.041 386.354 229.762 386.641 230.546C386.927 231.331 387.056 232.165 387.02 233C386.952 234.681 386.222 236.267 384.99 237.412C383.757 238.556 382.121 239.167 380.44 239.11L380.4 239.1ZM96.27 221.36C95.7668 220.693 95.3999 219.933 95.1904 219.125C94.9809 218.316 94.9328 217.474 95.0488 216.646C95.1649 215.819 95.4429 215.022 95.8669 214.302C96.2909 213.582 96.8527 212.953 97.52 212.45C98.8675 211.432 100.564 210.991 102.237 211.224C103.909 211.456 105.421 212.343 106.44 213.69C107.457 215.039 107.896 216.736 107.662 218.409C107.428 220.082 106.538 221.593 105.19 222.61C104.042 223.482 102.63 223.934 101.19 223.89C100.232 223.868 99.2916 223.628 98.4395 223.19C97.5873 222.752 96.8456 222.126 96.27 221.36ZM202.27 214.83C201.467 214.595 200.718 214.203 200.067 213.678C199.415 213.153 198.874 212.504 198.473 211.77C198.073 211.035 197.821 210.228 197.733 209.396C197.645 208.564 197.722 207.722 197.96 206.92C198.437 205.3 199.539 203.935 201.022 203.127C202.506 202.319 204.25 202.133 205.87 202.61C207.489 203.09 208.852 204.192 209.659 205.675C210.467 207.157 210.655 208.9 210.18 210.52C209.781 211.876 208.943 213.061 207.797 213.889C206.651 214.716 205.263 215.139 203.85 215.09C203.311 215.073 202.776 214.985 202.26 214.83H202.27ZM119.09 205.08C118.209 203.64 117.934 201.91 118.326 200.268C118.717 198.627 119.744 197.207 121.18 196.32C122.62 195.436 124.353 195.159 125.997 195.551C127.642 195.943 129.063 196.971 129.95 198.41C130.83 199.851 131.104 201.582 130.71 203.224C130.317 204.866 129.288 206.285 127.85 207.17C126.785 207.826 125.55 208.153 124.3 208.11C123.249 208.075 122.223 207.78 121.313 207.251C120.404 206.723 119.64 205.977 119.09 205.08ZM370.18 207.61C369.561 206.039 369.592 204.286 370.265 202.737C370.938 201.188 372.199 199.97 373.77 199.35C375.341 198.731 377.094 198.762 378.643 199.435C380.192 200.108 381.41 201.369 382.03 202.94C382.646 204.513 382.615 206.266 381.942 207.816C381.269 209.366 380.01 210.586 378.44 211.21C377.627 211.523 376.76 211.669 375.89 211.64C374.649 211.598 373.447 211.194 372.433 210.478C371.418 209.762 370.635 208.765 370.18 207.61ZM143.28 191C142.908 190.251 142.686 189.436 142.629 188.601C142.572 187.766 142.68 186.929 142.946 186.136C143.213 185.343 143.633 184.61 144.182 183.979C144.732 183.349 145.401 182.832 146.15 182.46C147.663 181.711 149.412 181.592 151.013 182.13C152.614 182.668 153.936 183.819 154.69 185.33C155.062 186.079 155.284 186.894 155.341 187.729C155.398 188.564 155.29 189.402 155.024 190.195C154.757 190.988 154.337 191.72 153.788 192.351C153.238 192.982 152.569 193.498 151.82 193.87C150.888 194.33 149.859 194.557 148.82 194.53C147.665 194.503 146.539 194.163 145.563 193.544C144.587 192.926 143.797 192.053 143.28 191.02V191ZM211.56 188.41C210.049 187.657 208.898 186.334 208.362 184.732C207.826 183.131 207.947 181.382 208.7 179.87C209.073 179.12 209.59 178.452 210.222 177.902C210.854 177.353 211.588 176.933 212.382 176.667C213.176 176.402 214.015 176.295 214.85 176.354C215.685 176.413 216.501 176.636 217.25 177.01C218.003 177.386 218.675 177.907 219.226 178.544C219.777 179.18 220.197 179.919 220.461 180.719C220.725 181.518 220.828 182.362 220.764 183.201C220.701 184.041 220.471 184.86 220.09 185.61C219.542 186.703 218.692 187.615 217.641 188.239C216.59 188.863 215.382 189.172 214.16 189.13C213.254 189.082 212.368 188.843 211.56 188.43V188.41ZM168.64 179.14C168.332 178.362 168.18 177.531 168.193 176.694C168.206 175.857 168.384 175.031 168.716 174.263C169.049 173.495 169.529 172.8 170.131 172.218C170.732 171.636 171.442 171.178 172.22 170.87C173.792 170.25 175.545 170.279 177.095 170.95C178.645 171.621 179.866 172.88 180.49 174.45C181.11 176.022 181.081 177.775 180.41 179.325C179.739 180.876 178.48 182.096 176.91 182.72C176.093 183.042 175.218 183.192 174.34 183.16C173.104 183.119 171.907 182.718 170.895 182.008C169.883 181.298 169.099 180.308 168.64 179.16V179.14ZM356.28 186.61C355.088 185.416 354.419 183.797 354.419 182.11C354.419 180.423 355.088 178.804 356.28 177.61C357.476 176.421 359.093 175.753 360.78 175.753C362.467 175.753 364.084 176.421 365.28 177.61C366.472 178.804 367.141 180.423 367.141 182.11C367.141 183.797 366.472 185.416 365.28 186.61C364.664 187.228 363.926 187.712 363.114 188.03C362.302 188.348 361.432 188.495 360.56 188.46C358.949 188.415 357.417 187.752 356.28 186.61ZM194.92 169.41C194.665 168.61 194.571 167.767 194.644 166.93C194.717 166.093 194.955 165.279 195.345 164.535C195.735 163.791 196.268 163.132 196.914 162.596C197.561 162.059 198.307 161.656 199.11 161.41C199.91 161.158 200.753 161.066 201.589 161.14C202.424 161.214 203.237 161.453 203.981 161.842C204.724 162.232 205.383 162.764 205.92 163.409C206.457 164.054 206.862 164.799 207.11 165.6C207.362 166.401 207.453 167.244 207.379 168.08C207.304 168.917 207.064 169.73 206.674 170.474C206.284 171.217 205.75 171.876 205.104 172.413C204.458 172.949 203.712 173.353 202.91 173.6C202.231 173.813 201.521 173.911 200.81 173.89C199.484 173.85 198.204 173.396 197.148 172.593C196.092 171.79 195.313 170.677 194.92 169.41ZM335.2 171.79C334.446 171.425 333.772 170.915 333.216 170.289C332.66 169.663 332.232 168.933 331.958 168.142C331.684 167.35 331.569 166.513 331.619 165.677C331.669 164.841 331.884 164.023 332.25 163.27C332.615 162.518 333.125 161.845 333.75 161.29C334.376 160.734 335.105 160.308 335.895 160.035C336.686 159.762 337.522 159.647 338.357 159.698C339.192 159.749 340.008 159.964 340.76 160.33C341.513 160.694 342.187 161.204 342.743 161.829C343.3 162.454 343.727 163.182 344.001 163.973C344.275 164.763 344.39 165.6 344.34 166.436C344.29 167.271 344.076 168.088 343.71 168.84C343.165 169.955 342.308 170.887 341.243 171.523C340.177 172.158 338.95 172.47 337.71 172.42C336.839 172.386 335.984 172.172 335.2 171.79ZM249.35 156.35C249.255 155.519 249.325 154.677 249.556 153.873C249.787 153.069 250.174 152.318 250.695 151.663C251.216 151.008 251.86 150.463 252.592 150.057C253.324 149.652 254.129 149.395 254.96 149.3C255.791 149.204 256.632 149.273 257.436 149.502C258.241 149.732 258.992 150.118 259.646 150.638C260.301 151.158 260.847 151.802 261.253 152.534C261.658 153.265 261.916 154.069 262.01 154.9C262.201 156.577 261.719 158.262 260.669 159.584C259.619 160.906 258.087 161.757 256.41 161.95C256.077 161.977 255.743 161.977 255.41 161.95C253.901 161.884 252.464 161.284 251.355 160.259C250.246 159.234 249.535 157.849 249.35 156.35ZM310.18 163.48C309.361 163.312 308.583 162.984 307.891 162.515C307.198 162.046 306.605 161.445 306.145 160.747C305.686 160.048 305.368 159.266 305.211 158.445C305.054 157.623 305.06 156.779 305.23 155.96C305.398 155.141 305.726 154.363 306.195 153.671C306.664 152.978 307.265 152.385 307.963 151.926C308.662 151.466 309.444 151.148 310.266 150.991C311.087 150.834 311.931 150.841 312.75 151.01C313.569 151.178 314.347 151.506 315.039 151.975C315.732 152.444 316.325 153.045 316.785 153.744C317.244 154.442 317.562 155.224 317.719 156.046C317.876 156.867 317.87 157.711 317.7 158.53C317.4 160.003 316.588 161.322 315.406 162.253C314.225 163.183 312.752 163.664 311.25 163.61C310.89 163.601 310.532 163.557 310.18 163.48ZM277.28 154.1C277.298 153.265 277.481 152.441 277.817 151.677C278.154 150.912 278.638 150.221 279.241 149.643C279.845 149.066 280.556 148.613 281.335 148.31C282.114 148.008 282.945 147.862 283.78 147.88C284.617 147.897 285.442 148.079 286.208 148.414C286.974 148.75 287.667 149.234 288.247 149.837C288.826 150.441 289.281 151.153 289.585 151.932C289.889 152.712 290.037 153.544 290.02 154.38C290.002 155.217 289.819 156.041 289.482 156.807C289.145 157.573 288.66 158.265 288.056 158.844C287.451 159.422 286.739 159.876 285.959 160.179C285.179 160.482 284.347 160.629 283.51 160.61H283.43C281.755 160.55 280.172 159.834 279.021 158.615C277.87 157.397 277.245 155.775 277.28 154.1ZM241.58 141.28C240.941 140.737 240.415 140.073 240.034 139.326C239.652 138.579 239.421 137.764 239.355 136.928C239.289 136.091 239.389 135.25 239.649 134.453C239.909 133.655 240.324 132.917 240.87 132.28C241.414 131.642 242.079 131.117 242.826 130.736C243.573 130.355 244.388 130.126 245.225 130.061C246.061 129.996 246.902 130.096 247.699 130.357C248.496 130.618 249.234 131.033 249.87 131.58C250.509 132.123 251.035 132.788 251.416 133.534C251.798 134.281 252.029 135.096 252.095 135.933C252.161 136.769 252.061 137.61 251.801 138.407C251.541 139.205 251.126 139.943 250.58 140.58C249.957 141.309 249.177 141.888 248.3 142.274C247.422 142.66 246.468 142.843 245.51 142.81C244.063 142.765 242.676 142.225 241.58 141.28ZM260.3 120.45C259.714 119.854 259.251 119.149 258.938 118.374C258.624 117.599 258.467 116.769 258.474 115.934C258.482 115.098 258.654 114.271 258.981 113.502C259.308 112.733 259.783 112.036 260.38 111.45C261.583 110.268 263.206 109.611 264.892 109.623C266.579 109.634 268.192 110.313 269.38 111.51C270.559 112.716 271.212 114.34 271.197 116.027C271.182 117.713 270.5 119.325 269.3 120.51C268.685 121.119 267.951 121.596 267.144 121.911C266.338 122.225 265.475 122.371 264.61 122.34C262.985 122.28 261.444 121.605 260.3 120.45ZM280.68 101.22C280.135 100.583 279.72 99.8438 279.461 99.0459C279.202 98.248 279.103 97.4068 279.17 96.5705C279.237 95.7342 279.468 94.9194 279.851 94.1729C280.234 93.4263 280.76 92.7627 281.4 92.2201C282.037 91.6747 282.776 91.2605 283.574 91.0014C284.372 90.7423 285.213 90.6433 286.05 90.7102C286.886 90.7771 287.701 91.0085 288.447 91.3912C289.194 91.7739 289.857 92.3003 290.4 92.9401C291.497 94.2297 292.037 95.9017 291.902 97.589C291.767 99.2764 290.968 100.841 289.68 101.94C288.467 102.972 286.912 103.515 285.32 103.46C284.433 103.433 283.561 103.219 282.762 102.834C281.962 102.448 281.253 101.898 280.68 101.22ZM302.31 83.4201C301.297 82.0692 300.86 80.3718 301.097 78.6997C301.333 77.0277 302.222 75.5175 303.57 74.5001C304.919 73.4833 306.616 73.0437 308.289 73.2781C309.962 73.5125 311.473 74.4017 312.49 75.7501C313.504 77.1026 313.94 78.8016 313.704 80.4753C313.468 82.149 312.578 83.6609 311.23 84.6801C310.067 85.5598 308.637 86.0118 307.18 85.9601C306.23 85.9261 305.3 85.6805 304.458 85.241C303.615 84.8016 302.881 84.1794 302.31 83.4201ZM324.93 66.8901C324.461 66.1971 324.134 65.4184 323.967 64.5987C323.8 63.779 323.796 62.9344 323.956 62.1132C324.116 61.2921 324.436 60.5105 324.898 59.8133C325.36 59.1161 325.956 58.5169 326.65 58.0501C328.049 57.1055 329.766 56.755 331.424 57.0756C333.081 57.3963 334.544 58.3618 335.49 59.7601C336.435 61.1594 336.785 62.8764 336.464 64.534C336.144 66.1916 335.178 67.654 333.78 68.6001C332.666 69.361 331.338 69.7432 329.99 69.6901C328.986 69.6541 328.004 69.3818 327.125 68.8953C326.246 68.4088 325.494 67.7218 324.93 66.8901ZM348.34 51.4901C347.457 50.05 347.182 48.318 347.576 46.6752C347.97 45.0324 349 43.6133 350.44 42.7301C351.88 41.847 353.612 41.5721 355.255 41.9659C356.898 42.3598 358.317 43.39 359.2 44.8301C359.639 45.545 359.932 46.3393 360.063 47.1676C360.195 47.996 360.161 48.8421 359.965 49.6576C359.77 50.4731 359.415 51.2419 358.921 51.9201C358.428 52.5983 357.806 53.1726 357.09 53.6101C356.025 54.2657 354.79 54.5927 353.54 54.5501C352.487 54.5122 351.461 54.2126 350.553 53.6783C349.645 53.1441 348.884 52.392 348.34 51.4901ZM372.34 37.1101C371.516 35.6347 371.311 33.8931 371.768 32.2664C372.225 30.6397 373.308 29.2603 374.78 28.4301C376.254 27.607 377.994 27.4016 379.619 27.859C381.244 28.3163 382.622 29.3991 383.45 30.8701C383.86 31.6001 384.123 32.4038 384.222 33.2353C384.322 34.0669 384.257 34.9099 384.03 35.7161C383.803 36.5223 383.42 37.2759 382.902 37.9338C382.384 38.5917 381.741 39.1409 381.01 39.5501C379.996 40.1217 378.843 40.402 377.68 40.3601C376.593 40.3144 375.536 39.9919 374.608 39.4231C373.681 38.8544 372.914 38.0582 372.38 37.1101H372.34Z" fill="#A8A29E"/>
<path d="M225.09 164.4C223.559 163.701 222.368 162.422 221.779 160.845C221.19 159.268 221.252 157.522 221.95 155.99C222.296 155.232 222.788 154.549 223.399 153.981C224.009 153.414 224.725 152.972 225.506 152.681C226.287 152.39 227.118 152.257 227.951 152.287C228.784 152.318 229.602 152.513 230.36 152.86C231.889 153.561 233.078 154.841 233.665 156.417C234.252 157.994 234.189 159.739 233.49 161.27C232.983 162.376 232.169 163.314 231.144 163.97C230.119 164.626 228.927 164.973 227.71 164.97C226.806 164.97 225.912 164.776 225.09 164.4Z" fill="#A8A29E"/>
</g>
<defs>
<clipPath id="clip0_1_6">
<rect width="428.17" height="359.21" fill="white"/>
</clipPath>
</defs>
</svg>
