<?xml version="1.0" encoding="UTF-8"?>
<svg width="1200pt" height="1200pt" version="1.1" viewBox="0 0 1200 1200" xmlns="http://www.w3.org/2000/svg">
 <g fill="#d6d2d0">
  <path d="m600 350c27.613 0 50 22.387 50 50v250c0 27.613-22.387 50-50 50s-50-22.387-50-50v-250c0-27.613 22.387-50 50-50z"/>
  <path d="m600 850c27.613 0 50-22.387 50-50s-22.387-50-50-50-50 22.387-50 50 22.387 50 50 50z"/>
  <path d="m100 600c0-276.14 223.86-500 500-500 276.14 0 500 223.86 500 500s-223.86 500-500 500c-276.14 0-500-223.86-500-500zm500-400c-220.91 0-400 179.09-400 400s179.09 400 400 400 400-179.09 400-400-179.09-400-400-400z" fill-rule="evenodd"/>
 </g>
</svg>
