<?xml version="1.0" encoding="UTF-8"?>
<svg width="1200pt" height="1200pt" version="1.1" viewBox="0 0 1200 1200" xmlns="http://www.w3.org/2000/svg">
 <g fill="#a8a29d">
  <path d="m193.91 98.359h89.93v-50.586c0-25.293 22.484-47.773 47.773-47.773h61.828c25.293 0 47.773 22.484 47.773 47.773v50.586h317.56v-50.586c0-25.293 22.484-47.773 47.773-47.773h61.828c28.102 0 47.773 22.484 47.773 47.773v50.586h89.93c78.688 0 143.32 64.637 143.32 146.14v719.44c0 11.242-2.8086 22.484-11.242 30.914l-191.1 191.1c-8.4297 8.4297-19.672 14.051-33.723 14.051h-817.8c-25.293 0-44.965-22.484-44.965-47.773v-907.73c0-81.5 64.637-146.14 143.32-146.14zm564.87 56.207h-317.56v50.586c0 25.293-19.672 44.965-47.773 44.965h-61.828c-25.293 0-47.773-19.672-47.773-44.965v-50.586h-89.93c-47.773 0-87.121 39.344-87.121 89.93v92.738h986.42v-92.738c0-50.586-39.344-89.93-87.121-89.93h-89.93v50.586c0 25.293-19.672 44.965-47.773 44.965h-61.828c-25.293 0-47.773-19.672-47.773-44.965v-50.586zm101.17-98.359h-44.965v137.7h44.965zm-474.94 0h-44.965v137.7h44.965zm-278.22 337.24v750.35h786.89v-103.98c0-53.395 42.156-95.551 95.551-95.551l103.98-2.8086v-548.01h-986.42zm843.09 708.2 103.98-103.98h-64.637c-22.484 2.8086-39.344 19.672-39.344 42.156v61.828z"/>
  <path d="m441.22 739.11c-11.242-11.242-11.242-30.914 0-39.344 11.242-11.242 28.102-11.242 39.344 0l73.066 70.258 165.81-163c11.242-11.242 28.102-11.242 39.344 0 11.242 11.242 11.242 28.102 0 39.344l-185.48 185.48c-11.242 8.4297-28.102 8.4297-39.344 0l-92.738-92.738z"/>
 </g>
</svg>
