<?xml version="1.0" encoding="UTF-8"?>
<svg width="1200pt" height="1200pt" version="1.1" viewBox="0 0 1200 1200" xmlns="http://www.w3.org/2000/svg">
 <g fill="#443f3c">
  <path d="m474 357.6v-27.602c-36-6-63.602-37.199-63.602-75.602 0-43.199 34.801-78 78-78 38.398 0 69.602 27.602 75.602 63.602h27.602c-6-51.602-50.398-91.199-103.2-91.199-57.602 0-104.4 46.801-104.4 104.4-0.003906 55.199 40.797 98.402 89.996 104.4z"/>
  <path d="m877.2 357.6v-27.602c-36-6-63.602-37.199-63.602-75.602 0-43.199 34.801-78 78-78 38.398 0 69.602 27.602 75.602 63.602h27.602c-6-51.602-50.398-91.199-103.2-91.199-57.602 0-104.4 46.801-104.4 104.4-1.2031 54 38.398 98.402 89.996 104.4z"/>
  <path d="m826.8 969.6h-528c7.1992 45.602 45.602 81.602 93.602 81.602h592.8c51.602 0 94.801-42 94.801-94.801l-0.003906-435.6-171.6 394.8c-14.398 32.398-45.598 54-81.598 54z"/>
  <path d="m883.2 904.8 188.4-434.4h-780l-168 385.2c-8.3984 19.199-6 40.801 4.8008 58.801 10.801 16.801 31.199 27.602 51.602 27.602h645.6c26.398-0.003906 48-14.402 57.598-37.203z"/>
  <path d="m985.2 268.8h-142.8c6 20.398 25.199 36 48 36 3.6016 0 7.1992 1.1992 9.6016 3.6016 2.3984 2.3984 4.8008 6 4.8008 9.6016v53.996c0 7.1992-6 13.199-13.199 13.199-67.199 0-123.6-51.602-129.6-117.6l-321.6 0.003906c6 20.398 25.199 36 48 36 3.6016 0 7.1992 1.1992 9.6016 3.6016 2.3984 2.3984 4.8008 6 4.8008 9.6016v55.195c0 7.1992-6 13.199-13.199 13.199-64.801 0-118.8-48-129.6-110.4-36 13.199-61.199 48-61.199 86.398v80.398l781.2 0.003906v-80.398c0-50.402-43.199-92.402-94.801-92.402z"/>
 </g>
</svg>
