<?xml version="1.0" encoding="UTF-8"?>
<svg width="1200pt" height="1200pt" version="1.1" viewBox="0 0 1200 1200" xmlns="http://www.w3.org/2000/svg">
 <g fill="#d6d2d0">
  <path d="m984 512.4-86.398-31.199-60-24c-12-4.8008-26.398 1.1992-31.199 13.199-4.8008 12 1.1992 26.398 13.199 31.199l60 24h1.1992l87.602 31.199c39.602 14.398 64.801 39.602 64.801 66v391.2l-73.203 30.004v-324c0-8.3984-4.8008-16.801-13.199-21.602-7.1992-3.6016-16.801-3.6016-25.199 1.1992l-324 216c-10.801 7.1992-14.398 22.801-7.1992 33.602 7.1992 10.801 21.602 14.398 33.602 7.1992l288-192v339.6c0 13.199 10.801 24 24 24s24-10.801 24-24v-7.1992l104.4-42c9.6016-3.6016 15.602-12 15.602-22.801v-408c0-48-36-88.801-96-111.6z"/>
  <path d="m552 216h26.398c-1.1992 8.3984-2.3984 15.602-2.3984 24 0 92.398 75.602 168 168 168s168-75.602 168-168c0-12-1.1992-24-3.6016-34.801 2.3984-3.6016 3.6016-8.3984 3.6016-13.199v-96c0-13.199-10.801-24-24-24h-312c-7.1992 0-14.398 3.6016-19.199 9.6016s-6 13.199-4.8008 20.398l16.801 66h-16.801c-13.199 0-24 10.801-24 24s10.801 24 24 24zm192 144c-66 0-120-54-120-120 0-8.3984 1.1992-16.801 2.3984-24h235.2c1.1992 7.1992 2.3984 15.602 2.3984 24 0.003906 66-53.996 120-120 120zm120-240v48h-244.8l-12-48z"/>
  <path d="m901.2 619.2c10.801-7.1992 13.199-22.801 6-33.602-7.1992-10.801-22.801-13.199-33.602-6l-300 206.4c1.1992-6 1.1992-12 1.1992-19.199v-48c0-13.199-10.801-24-24-24s-24 10.801-24 24v48c0 52.801-43.199 96-96 96l-190.8 0.003906c-20.398 0-36-15.602-36-36 0-20.398 15.602-36 36-36h132c38.398 0 73.199-26.398 84-63.602 8.3984-32.398 20.398-73.199 26.398-98.398 1.1992-6 2.3984-10.801 3.6016-15.602 7.1992-32.398 10.801-45.602 37.199-55.199 22.801-8.3984 68.398-30 73.199-32.398l60-24c12-4.8008 18-19.199 13.199-31.199-4.8008-12-19.199-18-31.199-13.199l-60 24h-1.1992-1.1992s-48 22.801-69.602 31.199c-52.801 19.199-61.199 57.602-68.398 90-1.1992 4.8008-2.3984 9.6016-3.6016 14.398-6 25.199-18 66-26.398 97.199-2.3984 18-18 30-36 30h-132c-46.801 0-84 37.199-84 84s37.199 84 84 84h192c37.199 0 70.801-14.398 96-37.199v229.2c0 13.199 10.801 24 24 24s24-10.801 24-24v-259.2z"/>
  <path d="m360 648v-264c0-13.199-10.801-24-24-24h-192c-13.199 0-24 10.801-24 24v264c0 13.199 10.801 24 24 24h192c13.199 0 24-10.801 24-24zm-48-24h-144v-216h144z"/>
 </g>
</svg>
