<?xml version="1.0" encoding="UTF-8"?>
<svg width="1200pt" height="1200pt" version="1.1" viewBox="0 0 1200 1200" xmlns="http://www.w3.org/2000/svg">
 <g fill="#d6d2d0">
  <path d="m1149 697.3c-17.129-7.5859-31.227-17.223-43.098-29.465-20.109-20.738-49.66-37.211-73.836-50.531-2.9453-5.2969-7.332-10.727-11.727-16.078-3.8242-4.6484-7.7734-9.4688-9.7227-13.078-0.10156-0.19531-0.28125-0.30078-0.39453-0.47656-0.375-0.67578-0.75-1.1914-0.99219-1.4805-8.5391-23.223-29.617-38.324-41.156-45.16-0.84375-6.1953-4.2656-11.934-11.633-17.617-6.7422-5.2031-12.684-10.941-18.977-17.016-2.1289-2.0625-4.2656-4.1172-6.4219-6.1602-2.6172-2.4648-5.3164-4.8555-8.0156-7.2383-7.3789-6.5078-14.344-12.676-19.387-20.363-4.4922-6.8711-10.969-9.5703-15.711-11.539-19.434-8.043-39.93-12.543-59.746-16.902l-3.1875-0.69531c-15.945-3.5156-29.934 3.8164-38.352 20.137-4.3125 8.3906-4.9492 16.988-5.1953 24.383-0.14844 4.2383-2.2305 11.008-5.0703 16.621l-13.219-21.535c-3.7891-6.1797-10.039-13.191-17.242-16.707-1.0508-4.6484-3.1953-9.3555-6.5625-14.129-7.4531-10.555-17.539-21.469-35.805-22.34-9.1797-0.44922-17.691 1.3867-25.902 3.1602-5.3633 1.1523-10.434 2.2422-15.555 2.6992l-3.8711 0.33594c-21.422 1.8945-41.645 3.6953-62.25 1.293-4.9023-0.5625-11.559-0.36719-17.617 1.3789-0.95703-0.75-1.9609-1.4453-2.9922-2.082-9.4492-5.7266-47.652-13.875-55.941-11.867-11.383 2.6992-22.266-0.55469-33.777-3.9922-7.1172-2.1289-14.477-4.3203-22.266-5.2031-32.551-3.6758-58.199 6.4492-78.336 30.797-3.9844 4.8203-6.2891 10.668-8.5312 16.32-0.84375 2.1484-1.6875 4.1523-2.5508 6.0547-17.008-2.6445-33.938-7.1914-50.352-11.691-11.859-3.2539-24.113-6.6094-36.43-9.2344-1.8281-0.39453-3.6562-1.3789-5.7852-2.5391-1.8203-0.98438-3.6289-1.9492-5.5039-2.6797l-2.8672-1.1641c-7.3047-2.9531-15.59-6.3672-25.133-5.25-15.488 1.7617-15.488 1.7422-23.371-12.395-1.293-2.2969-2.6914-4.5469-4.0781-6.7969-2.082-3.3477-4.0508-6.5156-5.5977-9.7969-5.7734-12.18-17.336-11.176-21.664-10.781-11.418 1.0039-23.09 3.75-37.836 8.8984-5.8867 2.0625-10.105 5.9062-12.883 11.758-8.8203 18.637-16.715 35.484-24.086 53.008-4.8828 11.617-5.793 23.652-6.6562 35.316-0.28906 3.8438-0.57031 7.6875-1.0117 11.512-2.7383 23.926-4.4531 48.262-6.1016 71.805-1.8203 25.914-3.7031 52.688-6.957 78.836-2.3711 18.957-3.0273 38.316-3.6758 57.02l-0.26172 7.668c-0.23438 6.6016-0.88281 13.773-1.5273 21.094-0.92969 10.527-1.8359 21.301-1.7734 31.461-21.703-0.019531-38.633 0.26172-43.875 1.0977l-1.3672-0.046875c-4.1055 0.16016-6.6641 3.1016-6.7031 6.9844-0.027344 3.8906 3.4766 7.0781 7.3594 7.1055 0.96484 0.066406 2.2969 0.12109 3.8242-0.13281 4.6484-0.77734 23.137-0.98437 46.855-0.91016 0.38281 0.066406 0.74219 0.21484 1.1445 0.21484 0.16016 0 0.32812-0.007812 0.48828-0.019531 0.25391-0.019531 0.46094-0.14844 0.71094-0.19531 48.348 0.20703 116.83 1.6133 136.24 2.1289 5.1367 0.14063 16.695-0.49609 30.066-1.1992 17.297-0.92969 46.246-2.4844 50.773-1.3672 5.3242 1.9141 14.523 2.6328 27.215 2.6328 1.6602 0 3.5547-2.1836 5.3242-2.2031 0.019531 0 0.039062-2.1289 0.066406-2.1289h0.34766c0.054688 0 0.11328 2.1172 0.16797 2.1094 12.629-0.1875 27.984 0.1875 46.152-0.77734 20.242-1.0508 39.348-1.5273 48.824-0.85156 11.719 0.82422 23.445 0.84375 33.73 0.46094 2.6992-0.09375 7.4453-0.19531 11.832-1.7812 3.6758 0.36719 9.6836 0.58984 19.164 0.79688 6.5547 0.14062 13.875 0.32031 20.559 0.60938 7.1055 0.30859 13.492 0.79688 17.438 1.5742 14.258 2.832 97.977 2.3633 123.05 1.1719 18.008-0.85156 36.422-0.74219 54.207-0.62891 13.012 0.054688 26.016 0.14062 39.027-0.13281 16.238-0.39453 32.953 2.1641 49.105 3.3672 13.629 1.0391 27.746 3.4961 41.754 3.4961h3.0859c17.531 0 35.176-2.4922 52.266-3.6484 10.547-0.71094 21.086-2.0703 31.633-2.5234 14.297-0.60156 164.14-2.6797 194.83 0.24219 1.875 0.17969 3.75 0.074219 5.6328 0.13281 3.8711 0.10156 7.2188 0.11328 9.9922 1.4258 0.27344 0.13281 0.5625 0.074219 0.83594 0.16797 0.26172 0.085937 0.46875 0.23438 0.74219 0.28906 0.30078 0.066406 0.60156 1.9609 0.91016 1.9766 0.12109 0 0.23438 1.9219 0.35547 1.9219h0.16797c0.78906 0 1.5547-2.0352 2.2773-2.2773 0.09375-0.039062 0.16797-1.0234 0.26172-1.0586 0.73047-0.28125 1.3984-1.1641 1.9883-1.6602 0.19531-0.1875 0.34766-0.63672 0.53516-0.83594 0.41406-0.44141 0.77734-1.0117 1.0703-1.5664 0.054687-0.10156 0.16016-0.23438 0.21484-0.34766 0.10156-0.20703 0.085938-0.46875 0.16797-0.68359 0.11328-0.30859 0.28906-0.58984 0.36719-0.92969 0-0.039062 0.027343-0.44922 0.039062-0.74219 0.027344-0.27344 0.046875-0.54297 0.039063-0.81641 0.49609-11.762 2.5586-91.434-12.309-98.012zm-208.71 88.086c-10.66 0.44922-21.32 1.1641-31.988 1.8828-17.84 1.2109-36.395 2.4375-54.289 2.3047-13.547-0.11328-27.43-1.1328-40.867-2.1289-16.48-1.2188-33.449-2.4648-50.438-2.1094-12.883 0.26172-25.762 0.1875-38.645 0.13281-17.973-0.11328-36.555-0.20703-54.945 0.65625-25.586 1.1992-107.81 1.4453-119.66-0.91016-3.5898-0.71094-8.5039-1.1797-14.035-1.5273-1.125-9.6836 0.65625-20.242 2.5703-30.562 1.0508-5.6523 2.1289-11.492 2.6992-17.148 0.39453-3.8633-2.4297-7.3047-6.2891-7.6953-3.7773-0.40234-7.3047 2.418-7.6953 6.2891-0.51562 5.0703-1.5 10.367-2.5391 15.984-1.9766 10.668-3.9648 21.609-3.0938 32.531-4.0391-0.11328-8.1094-0.19531-12.055-0.27344-3.2266-0.066406-6.4883-0.14062-9.4141-0.21484 0-0.046874 0.019532-0.085937 0.019532-0.13281 0.42969-16.312 2.9805-32.82 5.4453-48.789 1.5938-10.32 3.2422-20.98 4.332-31.633 0.39453-3.8633-2.4102-7.3125-6.2734-7.707-3.7891-0.42188-7.3125 2.4102-7.7148 6.2812-1.0586 10.293-2.6719 20.773-4.2461 30.918-2.5312 16.398-5.1484 33.355-5.6641 51.207-1.0312 1.0039-6.1133 1.1914-8.6719 1.2852-9.5547 0.34766-20.793 0.61719-31.848-0.17969-10.332-0.71094-29.887 0.28906-50.57 1.3672-11.879 0.62891-25.668 1.3594-38.211 1.707 0.75-15.758 1.5-31.988 2.2422-48.336 0.87109-18.93 1.7344-37.848 2.5977-55.836 0.1875-3.8828-2.8047-7.1797-6.6836-7.3594-3.8359-0.34766-7.1797 2.8047-7.3594 6.6836-0.86328 18.008-1.7344 36.938-2.5977 55.875-0.76953 16.633-1.5273 33.168-2.2891 49.172-8.2227-0.019531-15.066-0.34766-19.219-1.1992-0.52344-11.711-0.13281-24.609 1.2656-37.773 1.6484-15.461 1.2734-31.18 0.89844-46.379l-0.20703-9.582c-0.046875-2.5312 0.44141-5.2891 0.95703-8.2227 1.0508-5.9727 2.25-12.723-0.55469-20.035-1.3867-3.6367-5.4648-5.457-9.0859-4.0508-3.6289 1.3867-5.4375 5.457-4.0508 9.0859 1.4062 3.6641 0.67578 7.7812-0.16797 12.555-0.60938 3.4609-1.2461 7.0391-1.1719 10.93l0.21484 9.6562c0.35547 14.746 0.73047 30-0.82422 44.551-1.3789 12.977-1.8359 25.754-1.4453 37.539-8.7461-0.054688-22.566 0.55469-44.391 1.707-4.125 0.21484-8.1562 0.44141-11.898 0.62891 1.7812-24.93 3.4688-50.512 3.375-76.012-0.066406-18.148 1.1172-31.547 17.055-38.766 7.7734-3.5234 10.895-12.113 13.461-19.191 1.0312-2.8516 1.9219-5.7578 2.8125-8.6719 1.7812-5.832 3.4688-11.352 6.3203-16.258 6.6094-11.391 7.1445-11.598 18.918-7.7539 14.773 4.8203 29.129 10.152 41.23 14.746 16.66 6.3008 34.828 11.785 54.965 9.5898l4.3047-0.51562c6.4492-0.79688 12.535-1.5547 18.816-0.71094 16.855 2.1953 33.852 5.7461 50.289 9.1797l8.6523 1.8008c5.457 1.125 10.93 2.1641 16.414 3.207 18.582 3.5234 37.801 7.1719 55.34 14.598 3.5547 1.5391 7.707-0.16016 9.2148-3.7227 1.5195-3.582-0.16016-7.707-3.7305-9.2148-18.918-8.0156-38.887-11.805-58.199-15.461-5.3984-1.0234-10.801-2.043-16.18-3.1602l-8.625-1.7891c-16.695-3.4883-33.957-7.1055-51.336-9.3672-8.0547-1.0703-15.336-0.16797-22.359 0.70312l-4.1445 0.49609c-17.164 1.875-33.43-3.1016-48.441-8.7734-12.254-4.6484-26.805-10.07-41.852-14.973-19.473-6.375-26.203-1.8359-35.438 14.055-3.6758 6.3203-5.6719 12.883-7.6133 19.219-0.81641 2.6914-1.6406 5.3711-2.6445 8.1484-1.6016 4.4258-3.6094 9.9375-5.9922 11.008-25.461 11.539-25.379 35.672-25.312 51.637 0.09375 25.539-1.6406 51.355-3.4492 76.52-1.1328 0.007813-2.1641 0.019532-2.9336-0.007812-0.62891-0.019531-25.211-0.60156-56.504-1.1641 0.40234-3.8984 0.5625-6.9297 0.25391-8.9336-1.9492-12.656-0.44141-25.211 1.1523-38.492 0.64844-5.3828 1.2852-10.754 1.6953-16.145 1.4727-18.945 3.2266-37.883 4.9766-56.832l2.2031-24.039c0.34766-3.8711-2.5117-7.2852-6.375-7.6328-3.8711-0.375-7.2852 2.5039-7.6328 6.375l-2.1445 23.988c-1.7617 19.012-3.5156 38.023-4.9961 57.047-0.40234 5.1953-1.0234 10.359-1.6406 15.543-1.6406 13.641-3.3281 27.758-1.0977 42.262 0.074219 0.64844 0.027344 2.3164-0.44922 6.6094-7.4141-0.13281-15.039-0.23438-22.68-0.34766 0.039062-0.89844 0.085937-1.7812 0.14062-2.5508l1.4336-22.211c1.3672-21.441 2.7852-43.613 4.7734-65.324l1.2461-13.527c3.2148-34.68 6.543-70.547 7.4258-106.14 0.23438-9.4023 1.7891-19.152 3.4297-29.41 1.3672-8.625 3.0391-17.195 4.7148-25.762l2.1484-11.129c0.72266-3.8164-1.7891-7.4922-5.6055-8.2109-3.7969-0.70312-7.4922 1.7891-8.2031 5.6172l-2.1367 11.035c-1.707 8.7383-3.4023 17.465-4.9219 27.066-1.5742 9.8906-3.207 20.109-3.4766 30.449-0.87109 35.117-4.1719 70.742-7.3594 105.2l-1.2578 13.547c-2.0078 21.898-3.4219 44.176-4.8008 65.711l-1.4336 22.152c-0.039062 0.51562-0.12109 1.7812-0.1875 3.3281-8.0547-0.09375-15.992-0.16797-23.578-0.19531-0.066406-9.5625 0.80469-20.043 1.7148-30.281 0.66406-7.5859 1.3203-15 1.5664-21.816l0.27344-7.6953c0.62891-18.402 1.2852-37.426 3.5703-55.762 3.3086-26.523 5.2031-53.504 7.0312-79.586 1.6406-23.391 3.3359-47.57 6.0469-71.195 0.46094-4.0039 0.75781-8.0234 1.0586-12.055 0.82422-11.016 1.6016-21.414 5.6055-30.91 7.2578-17.27 15.086-33.965 23.832-52.445 1.1719-2.4648 2.4766-3.6953 4.8086-4.5 13.602-4.7539 24.227-7.2656 34.434-8.1641 5.8516-0.48828 6.6484 0.55469 7.7266 2.8047 1.8945 3.9922 4.1641 7.6406 6.3555 11.184 1.2852 2.0703 2.5703 4.1328 3.75 6.2422 11.156 20.016 14.992 22.012 37.227 19.5 6.0195-0.69531 11.953 1.7539 18.262 4.3047l3.0273 1.2266c1.3594 0.52344 2.6328 1.2383 3.9297 1.9414 2.6992 1.4609 5.7461 3.1211 9.5625 3.9375 11.926 2.5391 23.98 5.8516 35.645 9.0547 18.367 5.0234 37.352 10.227 56.812 12.816h0.007813c0.054687 0.007813 0.10156 0.019532 0.16016 0.027344 1.5469 0.20703 1.707 0.33594 2.0625 0.65625 6.4023 5.4922 13.539 9.3828 20.445 13.145 2.8398 1.5469 5.6719 3.0859 8.4375 4.7422 38.691 23.148 78.121 43.293 108.14 58.266 3.4688 1.7422 7.6875 0.32031 9.4297-3.1484 1.7344-3.4766 0.32031-7.6953-3.1602-9.4297-29.793-14.859-68.906-34.855-107.2-57.75-2.9258-1.7539-5.9258-3.3828-8.9258-5.0234-6.5547-3.5703-12.742-6.9375-18.02-11.477-0.20703-0.1875-0.42188-0.28125-0.62891-0.44922 0.74219-1.7148 1.4531-3.4414 2.1289-5.1484 1.9219-4.8477 3.7227-9.4297 6.2891-12.523 17.117-20.699 38.09-28.875 65.934-25.789 6.5352 0.74219 12.984 2.6641 19.809 4.707 4.4141 1.3203 8.8867 2.6328 13.453 3.6758-2.4766 12.91-3.918 27.242-3.9102 40.547 0 3.8828 3.1484 7.0312 7.0312 7.0312 3.8828 0 7.0312-3.1484 7.0312-7.0312-0.007813-12.742 1.4062-26.445 3.8047-38.68 4.332 0.12109 8.7656-0.19531 13.367-1.293 1.7422-0.19531 6.2734 0.33594 11.859 1.2734-4.0703 24.77-7.5273 51.008-9.543 73.152-0.35547 3.8711 2.5039 7.2852 6.3672 7.6406 0.21484 0.019532 0.42969 0.027344 0.64844 0.027344 3.5898 0 6.6562-2.7461 6.9922-6.3945 1.9688-21.684 5.3516-47.398 9.3477-71.699 8.6797 1.9492 16.914 4.2734 20.008 6.1484 0.83594 0.51562 1.3789 0.89062 1.7266 1.1445-0.066407 0.21484-0.16016 0.51562-0.28906 0.87109-3.6641 9.8242-4.2852 19.789-4.8828 29.43-0.28125 4.5664-0.5625 9.1406-1.1914 13.648-2.1016 14.914-3.2266 30.094-4.3203 44.773-0.46094 6.1797-0.91797 12.355-1.4531 18.523-0.33594 3.8711 2.5312 7.2734 6.4023 7.6133 0.20703 0.019531 0.41406 0.027344 0.60938 0.027344 3.6094 0 6.6758-2.7656 6.9922-6.4297 0.53516-6.2148 1.0039-12.449 1.4609-18.676 1.0781-14.465 2.1953-29.418 4.2266-43.875 0.68359-4.875 0.99219-9.8047 1.3047-14.727 0.5625-9.0195 1.0859-17.523 4.0312-25.398 0.48828-1.3203 0.82422-2.5508 1.0391-3.7109 3.2344-0.71094 7.0859-0.96484 10.633-0.57031 22.051 2.5508 43.949 0.61719 65.117-1.2578l3.8633-0.33594c5.9922-0.53516 11.727-1.7617 17.27-2.9531 7.6797-1.6484 14.934-3.2266 22.285-2.8672 9.9766 0.47656 16.977 5.082 24.977 16.406 6.1133 8.6523 6.375 14.906 0.91016 22.32-1.1992 1.6484-3.2734 5.043-3.5898 9.1797-0.79688 10.633-2.1367 21.477-3.4297 31.969-2.5781 20.945-5.2578 40.426-4.0117 62.316 0.19922 3.7344 3.3047 4.4297 7.0078 4.4297h0.40234c3.8828 0 6.8438-1.3594 6.6289-5.2227-1.1719-20.652 1.4141-40.586 3.918-60.918 1.3125-10.66 2.6719-21.121 3.4961-32.07 0.027343-0.27344 0.32812-0.86328 0.91797-1.6797 2.043-2.7734 3.5352-5.4453 4.6211-8.2969 2.3047 2.1484 4.5859 4.9609 6.4297 7.9688l20.898 34.07c0.76953 1.2461 1.8945 2.2305 3.2422 2.8125 6.4492 2.7383 11.164 8.7188 14.559 13.613 8.7109 12.602 20.102 21.871 31.125 30.863 7.7539 6.3008 15.066 12.273 21.488 19.273 13.648 14.926 28.555 28.969 42.965 42.555 4.7422 4.4727 9.4766 8.9336 14.176 13.434 6.1953 5.9453 13.312 11.523 23.383 12.242 0.16797 0.007813 0.33594 0.019531 0.50781 0.019531 3.6562 0 6.7422-2.832 7.0039-6.5352 0.27344-3.8711-2.6445-7.2266-6.5156-7.5078-5.3164-0.375-9.543-3.4766-14.645-8.3711-4.7266-4.5195-9.4883-9.0195-14.258-13.5-14.23-13.414-28.941-27.281-42.242-41.82-7.1055-7.7617-15.18-14.324-22.977-20.68-10.727-8.7461-20.859-16.988-28.434-27.945-3.7109-5.3516-8.8516-11.617-16.023-16.004 5.8047-8.5234 9.8164-20.539 10.086-28.398 0.20703-6.1406 0.65625-12.637 3.6484-18.43 5.4922-10.641 13.172-14.934 22.828-12.844l3.1875 0.70312c19.219 4.2188 39.094 8.5781 57.375 16.152 4.4805 1.8672 7.3516 3.2148 9.3359 6.2539 6.0859 9.2812 14.102 16.359 21.852 23.211 2.5781 2.2773 5.1641 4.5547 7.6797 6.9297 2.1289 1.9961 4.2109 4.0234 6.3008 6.0391 0.83594 0.80469 1.7344 1.6328 2.5781 2.4453-9.1211 18.008-13.5 39.336-13.379 64.133 0 3.8398 3.1484 7.5039 7.0117 7.5039h0.039063c3.8828 0 7.0117-3.7227 6.9922-7.6133-0.11328-21.148 3.2891-38.492 10.293-53.766 2.1641 1.8672 4.2852 3.6641 6.6094 5.4453 7.5 5.7852 8.1016 9.2266 3.582 20.859-6.5078 16.773-6.543 33.57-6.5625 48.242 0 3.8828 3.1328 5.5859 7.0234 5.5859h0.007812c3.8828 0 7.0312-1.7266 7.0312-5.6055 0.019532-14.203 0.046875-29.57 5.6172-43.914 0.5625-1.4258 1.0234-2.4648 1.4727-3.8359 14.457 9.7031 25.426 22.406 30.02 34.895 0.23438 0.61719 0.50781 1.2461 0.78906 1.7422-8.1172 16.961-11.184 35.035-14.156 52.492-1.3398 7.875-2.7266 16.039-4.5469 23.805-1.8477 7.8203-2.0547 15.309-2.2578 22.539l-0.039062 2.9141c-0.11328 3.8828 2.9336 8.7266 6.8242 8.7266h0.20703c3.7891 0 6.9102-4.4922 7.0234-8.3164l0.039063-2.1758c0.19531-6.8242 0.375-13.641 1.8945-20.07 1.9297-8.2031 3.3477-16.754 4.7266-24.824 2.457-14.418 4.9414-28.238 9.8906-41.211 0.99219 1.2266 2.0078 2.4297 3.0469 3.6953 4.2734 5.2109 12.242 14.879 12.141 17.645-6.1328 9.0859-7.8555 19.332-9.5156 29.242-0.61719 3.7031-1.2383 7.3984-2.1094 10.996-6.0469 24.883-13.098 54.367-19.613 84.414-1.5664 7.2266-2.2422 14.539-2.8984 21.617-0.28906 3.1328-0.57031 6.2617-0.9375 9.375-0.046875 0.42187 0.074218 0.79687 0.10156 1.2109-24.57 0.21484-43.086 0.51562-46.375 0.65625zm196.74 0.61719c-15.695-1.4922-60.055-1.7734-102.74-1.6406 0-0.039063 0.019532-0.066407 0.019532-0.10156-0.49609-14.242 3.1602-28.586 6.6953-42.461l0.39453-1.5547c1.3867-5.4766 2.5312-11.016 3.6758-16.555 2.2422-10.875 4.3594-21.148 8.3164-30.965 1.2461-3.1016 1.0039-6.1016 0.79688-8.5117-0.054688-0.64844-0.11328-1.4141-0.11328-2.043 0.007813-3.8828-3.1211-7.1797-7.0117-7.1797h-0.019532c-3.8711 0-7.0234 3.2539-7.0312 7.125 0 1.0234 0.074219 2.1484 0.16797 3.207 0.066407 0.76953 0.16797 1.9766 0.16797 2.1289-4.4258 10.996-6.7695 22.387-9.0469 33.395-1.0977 5.3242-2.1953 10.668-3.5352 15.938l-0.39453 1.5469c-3.75 14.738-7.6133 29.98-7.1172 46.105-6.7422 0.039063-13.34 0.085938-19.707 0.14062 0.35547-3.0469 0.64844-6.1016 0.92969-9.168 0.63672-6.957 1.2461-13.539 2.6328-19.922 6.4766-29.898 13.508-59.289 19.539-84.094 0.95703-3.918 1.6328-7.9492 2.3047-11.98 1.4805-8.8203 2.8789-17.156 7.3047-23.719 0.28125-0.42188 0.375-0.87109 0.60156-1.293 21.461 11.961 45.508 26.297 61.93 43.238 12.863 13.246 27.984 23.711 46.219 31.949 4.4258 9.1797 6.207 57.637 5.832 77.023-2.1172-0.21484-4.1797-0.32031-6.1328-0.375-1.543-0.046876-3.1172-0.09375-4.6758-0.23438z"/>
  <path d="m792.65 585.96c-3.8242-0.58203-7.3984 2.1367-7.9492 5.9727-0.75 5.3164-1.4258 10.641-2.1016 15.965-1.5664 12.395-3.1953 25.199-5.8047 37.434-1.875 8.7578-2.0078 17.164-2.1367 25.305l-0.10156 5.9141c-0.10547 3.8828 2.9609 7.8281 6.8438 7.8281h0.1875c3.7969 0 6.9297-3.6484 7.0234-7.4609l0.11328-5.7578c0.12109-7.8008 0.24219-15.328 1.8281-22.742 2.7383-12.805 4.3984-25.996 6.0078-38.68 0.66406-5.2578 1.332-10.555 2.0703-15.797 0.54297-3.8477-2.1367-7.4375-5.9805-7.9805z"/>
  <path d="m199.71 540.66c-3.8047-0.67578-7.4727 1.875-8.1484 5.6992l-8.5508 48.684c-0.66406 3.8242 1.8828 7.4727 5.7109 8.1367 0.41406 0.074219 0.81641 0.11328 1.2188 0.11328 3.3477 0 6.3203-2.3984 6.918-5.8125l8.5508-48.684c0.6875-3.8242-1.875-7.4727-5.6992-8.1367z"/>
 </g>
</svg>
