<?xml version="1.0" encoding="UTF-8"?>
<svg width="3600pt" height="3600pt" version="1.1" viewBox="0 0 3600 3600" xmlns="http://www.w3.org/2000/svg">
 <g>
  <path d="m3600 1800c0 643.08-343.08 1237.3-900 1558.8-556.92 321.54-1243.1 321.54-1800 0-556.92-321.54-900-915.77-900-1558.8s343.08-1237.3 900-1558.8c556.92-321.54 1243.1-321.54 1800 0 556.92 321.54 900 915.77 900 1558.8" fill="#a8a29d"/>
  <path d="m2164 1773.5c-7.2266-1.0977-13.977 4.0391-15.02 11.281-1.418 10.043-2.6914 20.102-3.9688 30.164-2.957 23.414-6.0391 47.609-10.965 70.723-3.543 16.543-3.7891 32.43-4.0391 47.805l-0.19531 11.176c-0.19141 7.3359 5.6016 14.793 12.934 14.793h0.35547c7.1719 0 13.09-6.8906 13.266-14.098l0.21094-10.875c0.23047-14.738 0.46094-28.961 3.4531-42.969 5.1719-24.195 8.3086-49.117 11.352-73.078 1.2578-9.9375 2.5156-19.945 3.9141-29.844 1.0312-7.2656-4.0352-14.051-11.297-15.078z" fill="#443f3c"/>
  <path d="m2230.5 2158.2c33.812 0.24609 68.863-2.0742 102.57-4.3555 20.137-1.3633 40.277-2.7109 60.434-3.5586 6.2344-0.28516 41.199-0.85156 87.586-1.3125-0.054687-0.78125-0.28516-1.4883-0.19531-2.2852 0.69141-5.8789 1.2227-11.797 1.7695-17.711 1.2383-13.371 2.5156-27.188 5.4727-40.844 12.293-56.766 25.629-112.47 37.055-159.48 1.6484-6.8008 2.8164-13.781 3.9844-20.777 3.1367-18.738 6.3945-38.082 17.977-55.242 0.17578-5.2266-14.859-23.484-22.938-33.336-1.9648-2.3906-3.8789-4.6602-5.7578-6.9805-9.3516 24.531-14.047 50.621-18.688 77.863-2.5859 15.25-5.2773 31.402-8.9258 46.902-2.8711 12.152-3.207 25.027-3.5781 37.922l-0.070312 4.1094c-0.22656 7.2461-6.1211 15.727-13.277 15.727h-0.39062c-7.332 0-13.105-9.1562-12.895-16.488l0.070312-5.5078c0.39062-13.656 0.78125-27.809 4.2695-42.578 3.4375-14.664 6.0586-30.094 8.5898-44.973 5.6133-32.961 11.406-67.129 26.746-99.168-0.55078-0.9375-1.0625-2.1094-1.4883-3.293-8.6797-23.594-29.402-47.594-56.715-65.926-0.85156 2.5859-1.7344 4.5508-2.7812 7.2461-10.504 27.082-10.555 56.129-10.609 82.965 0 7.332-5.9531 10.594-13.285 10.594h-0.019531c-7.332 0-13.266-3.2227-13.266-10.555 0.035157-27.703 0.10547-59.441 12.398-91.145 8.5391-21.965 7.3867-28.465-6.7656-39.41-4.3945-3.3672-8.3789-6.7656-12.488-10.289-13.23 28.852-19.645 61.621-19.449 101.58 0.058594 7.375-5.8555 14.406-13.191 14.406h-0.070313c-7.3164 0-13.25-6.9258-13.285-14.242-0.24609-46.848 8.043-87.145 25.273-121.17-1.5938-1.5391-3.293-3.0977-4.8711-4.6211-3.9492-3.8086-7.8828-7.6328-11.902-11.406-4.7461-4.4805-9.6367-8.7852-14.508-13.09-14.648-12.93-29.773-26.301-41.285-43.855-3.7539-5.7383-9.1758-8.2891-17.641-11.812-34.539-14.312-72.09-22.531-108.4-30.52l-6.0234-1.3281c-18.242-3.9492-32.75 4.1641-43.129 24.266-5.6328 10.945-6.5 23.219-6.8906 34.82-0.51172 14.844-8.0938 37.551-19.059 53.648 13.551 8.2891 23.258 20.121 30.27 30.234 14.312 20.707 33.457 36.293 53.719 52.801 14.754 12.008 29.988 24.406 43.414 39.074 25.117 27.473 52.922 53.668 79.809 79.012 9.0156 8.4844 18.012 16.969 26.941 25.504 9.6367 9.2266 17.625 15.109 27.668 15.816 7.332 0.51172 12.84 6.8711 12.309 14.188-0.49609 7.0156-6.3242 12.344-13.23 12.344-0.32031 0-0.63672-0.019531-0.95703-0.035156-19.023-1.3477-32.465-11.902-44.176-23.133-8.875-8.4844-17.816-16.934-26.781-25.383-27.242-25.664-55.387-52.199-81.176-80.395-12.113-13.23-25.949-24.512-40.598-36.414-20.828-16.984-42.348-34.504-58.805-58.309-6.4102-9.2461-15.32-20.547-27.508-25.719-2.5508-1.0977-4.6758-2.957-6.1289-5.3125l-39.48-64.367c-3.4883-5.668-7.793-11-12.152-15.055-2.0547 5.3828-4.8711 10.434-8.7305 15.676-1.0977 1.5391-1.6836 2.6406-1.7344 3.1719-1.5586 20.688-4.125 40.453-6.6055 60.594-4.7305 38.418-9.6172 76.074-7.4023 115.09 0.45312 7.3555-5.1602 9.9219-12.477 9.9219h-0.76172c-6.9961 0-12.859-1.3125-13.266-8.3945-2.3398-41.375 2.7109-78.164 7.582-117.73 2.4453-19.82 4.9609-40.312 6.4844-60.398 0.60156-7.8125 4.5-14.242 6.7852-17.34 10.324-14.012 9.832-25.824-1.7188-42.172-15.109-21.395-28.34-30.094-47.184-30.996-13.887-0.67187-27.594 2.3008-42.102 5.418-10.469 2.25-21.309 4.5859-32.625 5.5781l-7.2969 0.63672c-39.992 3.543-81.371 7.1914-123.03 2.375-6.6953-0.74219-13.977-0.28516-20.086 1.082-0.39062 2.1797-1.0469 4.5156-1.9648 7.0156-5.543 14.879-6.5547 30.941-7.6172 47.98-0.58594 9.2969-1.168 18.633-2.4609 27.824-3.8438 27.312-5.9336 55.562-7.9883 82.891-0.86719 11.762-1.7539 23.539-2.7617 35.281-0.60156 6.9258-6.3945 12.152-13.215 12.152-0.37109 0-0.76172-0.019532-1.1523-0.054688-7.3164-0.62109-12.719-7.0508-12.098-14.383 1.0078-11.637 1.8594-23.309 2.7461-35 2.0742-27.738 4.1992-56.43 8.1641-84.594 1.2031-8.5195 1.7188-17.164 2.25-25.789 1.1328-18.191 2.3008-37.035 9.2266-55.598 0.24609-0.67188 0.42578-1.2227 0.55078-1.6484-0.65625-0.47656-1.6641-1.1875-3.2578-2.1602-5.8438-3.543-21.395-7.9336-37.797-11.617-7.5273 45.926-13.922 94.492-17.66 135.46-0.63672 6.8906-6.4297 12.078-13.215 12.078-0.40625 0-0.81641-0.019531-1.2227-0.054688-7.3164-0.67187-12.699-7.1211-12.027-14.434 3.8086-41.816 10.344-91.41 18.031-138.21-10.555-1.7695-19.109-2.7617-22.406-2.4102-8.6953 2.0742-17.074 2.6562-25.258 2.4453-4.5352 23.113-7.207 49.008-7.1914 73.078 0 7.332-5.9336 13.285-13.285 13.285-7.332 0-13.285-5.9531-13.285-13.285-0.019531-25.133 2.7109-52.215 7.3867-76.605-8.625-1.9492-17.074-4.4453-25.418-6.9414-12.895-3.8594-25.082-7.4922-37.426-8.8906-52.605-5.8281-92.227 9.6172-124.57 48.727-4.8359 5.8438-8.2539 14.508-11.887 23.664-1.2734 3.2227-2.6211 6.4844-4.0195 9.7227 0.39062 0.32031 0.79687 0.49609 1.1875 0.85156 9.9531 8.5547 21.66 14.93 34.043 21.68 5.668 3.0977 11.336 6.1992 16.863 9.4922 72.336 43.254 146.23 81.031 202.52 109.11 6.5703 3.2773 9.2266 11.246 5.9688 17.816-3.293 6.5547-11.266 9.2266-17.816 5.9531-56.715-28.285-131.19-66.348-204.31-110.08-5.2266-3.1367-10.594-6.0391-15.941-8.9609-13.055-7.1016-26.551-14.453-38.629-24.832-0.69141-0.60156-0.97266-0.85156-3.8984-1.2383-0.10547-0.019531-0.19531-0.035156-0.30078-0.054687h-0.019532c-36.77-4.8867-72.637-14.719-107.34-24.211-22.035-6.0586-44.812-12.293-67.34-17.109-7.207-1.5391-12.965-4.6758-18.066-7.4375-2.4453-1.3281-4.8516-2.6758-7.4219-3.668l-5.7227-2.3203c-11.922-4.8164-23.133-9.4414-34.504-8.1289-42.012 4.7461-49.238 0.97266-70.336-36.84-2.2305-3.9844-4.6758-7.8828-7.0859-11.797-4.1445-6.6953-8.4492-13.602-12.008-21.129-2.0195-4.25-3.543-6.2188-14.594-5.2969-19.289 1.6992-39.375 6.4453-65.055 15.426-4.4102 1.5391-6.8711 3.8594-9.0859 8.5-16.523 34.91-31.316 66.457-45.023 99.082-7.5625 17.941-9.0312 37.586-10.594 58.398-0.56641 7.6172-1.1328 15.215-2 22.777-5.1172 44.633-8.3242 90.312-11.426 134.5-3.4727 49.273-7.0508 100.25-13.285 150.36-4.3203 34.645-5.5625 70.582-6.75 105.35l-0.51172 14.543c-0.46094 12.895-1.6992 26.906-2.957 41.215-1.6992 19.359-3.3672 39.16-3.2422 57.211 14.328 0.070313 29.312 0.21094 44.547 0.37109 0.125-2.9219 0.28516-5.332 0.35547-6.2891l2.7109-41.855c2.5859-40.684 5.2773-82.77 9.0703-124.14l2.375-25.594c6.0234-65.09 12.258-132.4 13.902-198.75 0.49609-19.555 3.5781-38.844 6.5703-57.527 2.8711-18.121 6.0938-34.629 9.2969-51.133l4.0391-20.848c1.3633-7.207 8.3438-11.938 15.496-10.609 7.207 1.3633 11.957 8.3086 10.594 15.516l-4.0547 21.023c-3.1719 16.188-6.3242 32.379-8.9102 48.672-3.082 19.379-6.0391 37.797-6.4844 55.562-1.6641 67.254-7.9531 135.02-14.027 200.54l-2.3555 25.559c-3.7539 41.004-6.4297 82.91-9.0156 123.42l-2.7109 41.961c-0.10547 1.4531-0.19531 3.1367-0.26562 4.8164 14.434 0.21094 28.836 0.40625 42.844 0.65625 0.92188-8.1133 0.99219-11.266 0.85156-12.488-4.2148-27.402-1.0273-54.074 2.0742-79.848 1.168-9.793 2.3398-19.555 3.0977-29.367 2.7812-35.938 6.1094-71.859 9.4414-107.78l4.1445-45.379c0.65625-7.3164 7.1016-12.754 14.418-12.043 7.3164 0.65625 12.699 7.1016 12.043 14.418l-4.1641 45.414c-3.3125 35.797-6.625 71.574-9.4062 107.37-0.78125 10.168-1.9844 20.316-3.207 30.5-3.0117 25.098-5.8633 48.832-2.1797 72.727 0.58594 3.7891 0.30078 9.5117-0.47656 16.879 59.121 1.0625 105.56 2.1602 106.75 2.1953 1.4531 0.054687 3.4023 0.035156 5.543 0.019531 3.418-47.559 6.6758-96.316 6.5195-144.57-0.10547-30.164-0.28516-75.738 47.824-97.559 4.5-2.0195 8.2734-12.434 11.316-20.793 1.8945-5.2422 3.4375-10.309 4.9961-15.391 3.668-11.973 7.4375-24.371 14.383-36.309 17.43-30.023 30.164-38.594 66.953-26.551 28.43 9.2461 55.918 19.5 79.066 28.285 28.34 10.699 59.086 20.121 91.52 16.578l7.8281-0.9375c13.285-1.6484 27.027-3.3477 42.242-1.3281 32.84 4.2695 65.445 11.105 96.992 17.695l16.297 3.3828c10.168 2.1094 20.367 4.0391 30.57 5.9688 36.488 6.9258 74.215 14.062 109.96 29.207 6.75 2.8516 9.918 10.664 7.0508 17.41-2.8516 6.75-10.699 9.9531-17.41 7.0312-33.141-14.027-69.43-20.918-104.55-27.578-10.363-1.9492-20.707-3.9336-31.016-6.0586l-16.348-3.4023c-31.051-6.4844-63.16-13.195-95.008-17.34-11.867-1.5938-23.363-0.16016-35.547 1.3477l-8.1289 0.97266c-38.047 4.125-72.371-6.2344-103.85-18.121-22.867-8.6797-49.984-18.773-77.898-27.859-22.246-7.2617-23.238-6.8711-35.742 14.648-5.3828 9.2617-8.5742 19.695-11.938 30.711-1.6836 5.5078-3.3672 11-5.3125 16.383-4.8516 13.371-10.75 29.598-25.434 36.258-30.109 13.637-32.344 38.949-32.219 73.238 0.17578 48.195-2.9922 96.512-6.375 143.61 7.0664-0.37109 14.664-0.78125 22.477-1.1875 41.234-2.1797 67.34-3.3281 83.867-3.2227-0.74219-22.266 0.10547-46.406 2.7266-70.918 2.9414-27.488 2.2305-56.305 1.5586-84.168l-0.40625-18.242c-0.14062-7.3516 1.0625-14.117 2.2148-20.652 1.5938-9.0156 2.957-16.793 0.32031-23.715-2.6211-6.8555 0.79688-14.523 7.6523-17.164 6.8359-2.6562 14.523 0.78125 17.164 7.6523 5.2969 13.797 3.0273 26.566 1.0469 37.852-0.97266 5.5273-1.8945 10.75-1.8047 15.535l0.39062 18.102c0.70703 28.711 1.418 58.414-1.6992 87.621-2.6406 24.867-3.3828 49.238-2.3906 71.363 7.8477 1.6133 20.777 2.2305 36.309 2.2656 1.4336-30.234 2.8711-61.48 4.3203-92.898 1.6289-35.777 3.2773-71.539 4.9062-105.56 0.35547-7.332 6.6602-13.285 13.902-12.629 7.332 0.35547 12.984 6.5703 12.629 13.902-1.6289 33.988-3.2773 69.75-4.9062 105.49-1.418 30.891-2.832 61.566-4.2344 91.324 23.699-0.65625 49.754-2.0195 72.195-3.2227 39.09-2.0195 76.02-3.9336 95.539-2.5859 20.883 1.5039 42.121 0.99219 60.168 0.33594 4.8359-0.17578 14.434-0.51172 16.383-2.4258 0.95703-33.723 5.8984-65.766 10.699-96.742 2.957-19.164 6.0234-38.965 8.0234-58.414 0.74219-7.3164 7.4023-12.664 14.578-11.867 7.2969 0.74219 12.609 7.2617 11.848 14.559-2.0742 20.121-5.1719 40.258-8.1836 59.762-4.6602 30.164-9.4766 61.355-10.289 92.172 0 0.089844-0.035156 0.16016-0.035156 0.24609 5.5273 0.16016 11.691 0.30078 17.781 0.40625 7.457 0.16016 15.145 0.32031 22.777 0.51172-1.6484-20.633 2.1094-41.305 5.8438-61.461 1.9648-10.609 3.8242-20.617 4.8008-30.199 0.74219-7.3164 7.4023-12.645 14.543-11.887 7.2969 0.74219 12.609 7.2461 11.887 14.543-1.082 10.699-3.1172 21.734-5.1016 32.395-3.6328 19.5-6.9805 39.445-4.8516 57.742 10.449 0.65625 19.73 1.5391 26.516 2.8867 22.371 4.4453 177.72 3.9844 226.08 1.7188 34.75-1.6484 69.855-1.4531 103.81-1.2383 24.355 0.10547 48.672 0.26562 73.008-0.24609 32.094-0.67188 64.152 1.6836 95.289 3.9844 25.336 1.9844 51.586 3.918 77.18 4.1289z" fill="#443f3c"/>
  <path d="m2774 2151.9c3.6836 0.10547 7.582 0.30078 11.582 0.70703 0.70703-36.609-2.6562-128.18-11.016-145.52-34.449-15.57-63.039-35.336-87.32-60.363-31.016-32.023-76.465-59.086-117-81.688-0.42578 0.79688-0.60156 1.6484-1.1328 2.4453-8.3594 12.398-11 28.145-13.797 44.812-1.2734 7.6328-2.5664 15.23-4.3555 22.637-11.391 46.867-24.672 102.38-36.91 158.88-2.6211 12.062-3.7539 24.496-4.9766 37.637-0.53125 5.7734-1.082 11.547-1.7539 17.324 12.008-0.10547 24.477-0.19531 37.23-0.26562-0.95703-30.465 6.3594-59.266 13.445-87.109l0.74219-2.9219c2.5312-9.9531 4.6055-20.051 6.6758-30.109 4.3047-20.793 8.7305-42.312 17.094-63.09 0-0.28516-0.19531-2.5664-0.32031-4.0195-0.16016-2-0.32031-4.1094-0.32031-6.0586 0.019531-7.3164 5.9688-13.461 13.285-13.461h0.035156c7.3516 0 13.266 6.2344 13.25 13.566 0 1.168 0.10547 2.6211 0.21094 3.8594 0.39062 4.5508 0.85156 10.219-1.5039 16.082-7.4727 18.543-11.477 37.957-15.711 58.504-2.1602 10.469-4.3203 20.938-6.9414 31.281l-0.74219 2.9414c-6.6758 26.215-13.586 53.332-12.645 80.219 0 0.070312-0.035156 0.125-0.035156 0.19531 80.645-0.26562 164.46 0.28516 194.11 3.0977 2.8789 0.26172 5.8516 0.35156 8.8281 0.42187z" fill="#443f3c"/>
 </g>
</svg>
