<?xml version="1.0" encoding="UTF-8"?>
<svg width="1200pt" height="1200pt" version="1.1" viewBox="0 0 1200 1200" xmlns="http://www.w3.org/2000/svg">
 <path d="m100 300c0-27.613 22.387-50 50-50h900c27.613 0 50 22.387 50 50s-22.387 50-50 50h-900c-27.613 0-50-22.387-50-50zm0 300c0-27.613 22.387-50 50-50h900c27.613 0 50 22.387 50 50s-22.387 50-50 50h-900c-27.613 0-50-22.387-50-50zm0 300c0-27.613 22.387-50 50-50h600c27.613 0 50 22.387 50 50s-22.387 50-50 50h-600c-27.613 0-50-22.387-50-50z" fill="#d6d2d0" fill-rule="evenodd"/>
</svg>
