<?xml version="1.0" encoding="UTF-8"?>
<svg width="512pt" height="512pt" version="1.1" viewBox="0 0 512 512" xmlns="http://www.w3.org/2000/svg">
 <path d="m505.91 431.2-6.8828-8.9883c-0.75781-0.99219-2.168-3.6406-3.3242-5.7891-2.875-5.3242-6.1289-11.367-11.207-16.195-1.3789-1.2852-2.75-2.4805-4.5625-4.0664-4.7656-4.1211-5.0977-4.6328-5.4414-6.6719-0.0625-0.58203-0.046876-1.2695-0.0625-2.6719-0.09375-5.8125-0.22656-14.605-5.8438-21.668-3.168-4.082-7.5547-6.7266-12.625-7.7109 0.023437-0.15625 0.054687-0.30859 0.085937-0.46484 0.37891-1.8047 0.80469-3.4727 1.2305-5.1523 2.3164-9.1367 5.7969-22.953-6.293-37.723-0.74219-0.91406-1.9219-2.7734-3.8281-5.6641-12.66-19.109-21.102-30.832-35.156-30.832h-0.03125l-1.418 0.09375c-1.9844 0-7.4609-4.8203-11.098-8.043-2.9219-2.5742-6.5547-5.7891-10.477-8.4688-3.2227-2.207-8.2695-5.6562-14.691-7.7578-3.1133-19.762-28.703-37.504-28.98-37.691-1.6133-1.0859-3.4102-2.7891-5.293-4.6641 0.10938-0.32422 0.20312-0.64453 0.30859-0.97656 1.125-3.6719 1.4961-6.9727 1.3867-9.9336 3.7109-1.9922 6.2227-5.9062 6.2227-10.414 0-1.418-0.24609-2.7734-0.69922-4.0234l-1.0156-5.4648c-0.30078-1.5977-0.71875-3.0547-1.1641-4.3789 0.92969-0.95312 1.8359-2.0469 2.6562-3.3008 4.7734-1.2773 7.9727-3.7734 10.004-6.0039 2.9141-3.2227 6.2148-8.9414 5.3711-17.902-0.62891-6.4102-3.457-11.422-6.3789-15.406 3.625-2.8828 7.1445-7.2383 8.6953-13.918l2.2773-10.059c0.91406-4.0469-0.36328-8.2852-3.3711-11.16-3.0078-2.875-7.3086-3.9531-11.305-2.8359l-9.4062 2.5977c-0.57422 0.0625-2.1836 0.20312-5.1602 0.20312-4.7578 0-8.4844-0.33203-10.398-0.58203-0.45703-0.35547-0.96875-0.80469-1.6055-1.3633-1.7812-1.5352-4.2852-3.7031-7.7031-5.4805-3.2227-8.4062-9.7031-14.484-13.957-18.488-0.78125-0.72656-1.543-1.418-2.2148-2.0859-0.42578-2.4023-1.0703-6.0117-3.0078-9.9102-2.2617-4.5781-5.4883-7.4141-8.207-9.1836-0.023438-0.09375-0.046875-0.1875-0.0625-0.28516-1.4492-6.2695-5.8359-25.355-26.371-26.098-3.2461 0-6.1367 0.59766-8.6953 1.5195-5.7969-7.9023-14.422-9.0508-18.914-9.0508-1.6445 0-3.4883 0.14844-5.5312 0.51172-4.7188 0.85156-8.2539 2.5898-10.609 3.8516-0.98438-0.31641-1.9922-0.68359-3.0469-1.0625-2.1172-0.75-4.2383-1.4883-6.3477-2.0703-4.2227-1.1875-18.582-4.0312-29.09-4.0312-4.0312 0-16.305 0-22.473 10.602-0.72656 1.2539-1.3164 2.457-1.7969 3.5664-8.0977 2.3086-13.5 8.2852-14.699 16.488-1.5312 2.3203-6.4492 6.8086-8.1484 8.3633-1.1406 1.0391-2.207 2.0156-2.582 2.4727-0.62109 0.32422-2.6797 0.8125-4.1836 1.1641-5.3477 1.2617-13.438 3.168-20.07 10.066-11.941 12.414-11.895 32.359 0.078125 54.832 0.16406 2.5977-1.1719 9.0508-1.8438 12.273-1.2227 5.8828-2.4883 11.965-2.3398 17.914 0.070313 3.332 0.35547 6.5547 0.64453 9.7031 0.78125 8.5234 0.76563 10.785-1.1875 13.461-1.8438 2.5352-5.6875 5.1133-9.75 7.8359-3.0078 2.0156-6.0039 4.0391-8.7734 6.2617-22.156 17.715-46.922 30.562-70.371 41.805l-4.7969 2.3008c-5.293 2.5352-7.918 8.5703-6.168 14.18l1.582 5.0742c3.1445 10.082 6.8516 19.875 10.508 29.555l2.5586 6.7656c0.33203 0.89844 0.68359 1.7578 1.0703 2.6328-1.7578 6.3086-0.61328 13.051 3.293 18.305 0.023438 0.039062 0.054688 0.078125 0.078125 0.11719-2.3867 2.875-3.3008 6.75-2.3633 10.445 1.1016 4.3555 4.5781 7.7109 8.9648 8.6562l12.129 2.6133c7.8281 1.6953 15.934 2.5195 23.176 3.2617 13.438 1.3789 25.039 2.5586 33.879 7.9961 5.082 3.1211 10.004 6.3008 14.996 9.5156 13.965 9.0039 28.402 18.297 45.215 25.555 16.668 7.168 31.809 20.023 46.512 32.5l4.6797 3.9453c8.7578 7.4062 17.855 14.367 27.191 21.52 8.4453 6.4414 18.953 14.477 28.262 22.48 1.7031 1.4648 3.3633 2.9375 5.0078 4.3945l1.4258 1.2617c15.102 13.414 30.711 27.277 56.66 29.223 5.5312 0.41797 11.281 1.0391 17.824 1.75 11.664 1.2617 23.734 2.5586 35.516 2.5586 1.4414 0 2.8516-0.015625 4.1758-0.070313 30.27-0.84375 39.141-29.145 43.906-44.371 1.2773-4.082 2.4805-7.957 3.75-10.848 0.32422-0.0625 0.80469-0.11719 1.4648-0.11719h0.35547c0.84375 0.16406 2.0547 0.48828 3.3477 0.80469 7.0898 1.8125 12.594 2.4492 17.055 1.9219 11.043 4.1602 24.781 6.0664 27.938 6.0664 0.28516 0 0.57422-0.007813 0.85937-0.03125l12.168-0.89063c4.332-0.31641 8.1367-2.9844 9.918-6.9492 1.7656-3.9414 1.2383-8.5586-1.4023-12.016zm-43.465-9.2344c-2.8281-1.3164-6.0664-1.457-8.9648-0.39453 0-0.007812-0.03125-0.007812-0.078125-0.007812-0.59766-0.015625-3.0469-0.046875-8.7266-1.4805-3.5117-0.86719-5.3711-1.2852-7.5859-1.3945l-1.2695-0.015625c-14.414 0-20.379 8.082-22.652 12.91-2.0938 4.4336-3.6406 9.3984-5.2695 14.637-5.9375 18.961-10.531 27.477-22.109 27.797-11.586 0.41016-24.07-1.0391-37.148-2.457-6.0586-0.65234-12.043-1.293-17.84-1.7422-18-1.3477-28.926-11.035-42.844-23.41l-1.3477-1.1875c-1.7266-1.5273-3.4648-3.0781-5.2617-4.6172-9.8398-8.4609-20.645-16.723-29.863-23.766-8.5703-6.5625-17.43-13.344-25.766-20.395l-4.6953-3.9609c-15.973-13.555-32.484-27.57-52.391-36.133-15.004-6.4766-28.617-15.242-41.859-23.781-5.0352-3.2461-10.098-6.5-15.328-9.7188-13.445-8.2617-28.902-9.8398-43.938-11.375-4.4258-0.45703-8.957-0.91406-13.367-1.5664 0.085937-1.1172 0.007813-2.2539-0.22656-3.3789-0.90625-4.207-4.0234-7.5938-8.1523-8.8281-1.1875-0.35547-1.9375-0.63672-2.4023-0.82812 1.2617-2.5586 1.5508-5.5078 0.80469-8.3008-0.30078-1.1094-1.0859-3.0625-1.9297-4.9297-0.41797-0.92188-0.86719-1.8984-1.2695-2.9844l-2.6562-7.043c-2.8906-7.6406-5.8672-15.5-8.4844-23.371 23.387-11.352 47.883-24.457 70.461-42.504 2.2617-1.8047 4.7109-3.4414 7.1602-5.082 5.6094-3.7578 11.406-7.6406 15.73-13.578 7.3711-10.152 6.4766-19.992 5.6016-29.5-0.23438-2.6211-0.48828-5.3164-0.55078-8.1289-0.078124-3.2539 0.85938-7.7578 1.8516-12.562 1.9375-9.2695 4.1211-19.785-0.085937-27.531-5.1992-9.5469-9.4297-22.605-4.2461-27.988 1.7188-1.7891 4.332-2.4727 8.4609-3.4492 4.4805-1.0547 10.066-2.3711 14.582-6.6953 0.79688-0.76562 1.7109-1.5977 2.6953-2.4961 7.2227-6.5938 13.391-12.707 15.148-19.777 0.88281-0.09375 1.9375-0.26172 2.9922-0.58203 6.4688-1.9141 8.4688-7.3086 9.6719-10.555 0.20312-0.55078 0.41016-1.1484 0.66797-1.7656 0.55078-0.070313 1.4023-0.14062 2.6875-0.14062 7.918 0 20.086 2.418 22.742 3.1602 1.6211 0.44922 3.207 1.0156 4.7812 1.5742 2.4414 0.875 5.207 1.8594 8.043 2.4414 6.0586 1.332 10.578-0.89062 13.438-2.4648 1.5273-0.83594 2.7422-1.4883 4.2852-1.7734 0.41797-0.078125 0.78906-0.13281 1.5742-0.09375 0.33203 0.79688 0.59766 2.2617 0.79688 4.3711 0.007812 0.070312 0.085938 0.83594 0.09375 0.90625 0.48828 4.3477 3.332 8.0742 7.3945 9.6797 4.0547 1.6055 8.6953 0.84375 12.02-2 0.73438-0.62891 1.5195-1.3789 2.4102-2.2383 2.3086-2.2305 3.5195-3.2305 4.2148-3.2383 1.0234 0.039062 1.9922 0.070312 3.7656 7.75 1.1406 5.0195 2 7.8359 3.8047 10.281 1.4414 1.9531 3.4414 3.4023 5.7188 4.1758 0.32422 0.14062 0.58984 0.28516 0.60547 0.23438 0.45703 0.89844 0.68359 2.1992 0.92188 3.5586 0.44922 2.6055 1.0547 6.1836 3.6094 9.3359 1.6367 2.0391 3.7109 3.9766 5.7031 5.8516 3.4258 3.2148 8.1055 7.6094 8.4297 11.234 0.48047 5.2617 4.3867 9.5625 9.5781 10.547 1.3242 0.25391 2.4648 1.1875 4.332 2.8047 1.5898 1.3867 3.7734 3.293 6.7812 4.9531 0.40234 0.22656 0.82031 0.42578 1.2539 0.60547 2.7891 1.1406 7.7188 1.6875 11.98 1.9375-0.37891 0.49609-0.72656 1.0312-1.0391 1.6211-4.75 8.75 1.3008 16.148 5.3086 21.047 1.4648 1.7891 3.1992 3.9141 3.9531 5.5547-5.7578 0.070313-10.664 4.3242-11.523 10.043-0.33984 0.22656-0.79688 0.48828-1.0781 0.65234-1.5039 0.84375-2.9688 1.7109-4.293 3.0547-1.8203 1.8594-2.9844 4.2695-3.3086 6.8516-0.35547 2.9219 0.33203 5.457 1.2617 7.7344-2.9375 1.0391-5.418 3.3008-6.8516 6.3242-2.0859 4.4258-1.0156 9.7812 2.293 13.312 2.7891 3.1016 2.7812 3.1289 2.0547 5.5156-0.41797 1.3633-1.1328 2.4492-1.8828 3.5938-3.293 4.7969-2.6055 11.391 1.7891 15.398 1.457 1.3242 2.8438 2.7266 4.2461 4.1367 3.1133 3.1211 6.3164 6.3555 9.8945 8.7422 9.5625 7.0586 19.25 18.219 19.371 21.613-2.0859 3.543-1.7891 8.6406 0.16406 12.266 0.55078 1.0391 1.2539 1.9922 2.0781 2.8125 2.4102 2.4258 6.3867 3.6406 9.7812 3.4414 3.75 0 7.4141 2.0078 12.492 5.4727 2.7031 1.8438 5.5938 4.4102 8.5547 7.0273 7.2383 6.3789 15.438 13.609 26.355 13.609 0.55078 0 1.1016-0.015625 1.4805-0.039063 3.6719 2.4648 12.152 15.273 15.809 20.797 2.0547 3.1133 3.7422 5.6094 4.7969 6.9141 4.4336 5.4102 3.7734 8.9258 1.7344 17-0.49609 1.9297-1.0156 3.9844-1.4727 6.1758-0.86719 4.168-2.3008 16.512 1.4805 23.418 2.4961 4.5781 7.7188 6.9727 12.816 5.875 0.49609-0.10156 1.1406-0.25391 1.6602-0.38672 0.45703-0.10156 0.99219-0.21875 1.4961-0.31641 0.36328 1.7031 0.41016 4.7656 0.44141 7.0039 0.023437 2.1328 0.11719 4.1055 0.37891 5.6016 1.8125 10.734 7.6562 15.785 13.715 21.039 1.125 0.97656 2.2773 1.9688 3.3711 2.9922 1.875 1.7891 3.6953 4.8438 5.5 8.1367-3.9375-0.90625-8.168-2.1094-11.312-3.5703z" fill="#443f3c"/>
</svg>
