<?xml version="1.0" encoding="UTF-8"?>
<svg width="512pt" height="512pt" version="1.1" viewBox="0 0 512 512" xmlns="http://www.w3.org/2000/svg">
 <g fill="#d6d2d0">
  <path d="m81.004 478.26c-12.613-7.6523-24.629-16.277-36-25.707-2.8555-2.3711-5.6602-4.7969-8.4609-7.2773-3.6094-3.2344-7.1133-5.5508-12.125-3.3398-4.9062 2.1562-9.4844 8.625-6.5742 13.957 1.2344 2.2109 3.3906 3.2891 5.8711 3.125 0.32422 0 0.64844-0.16016 0.96875-0.21484 0.53906 0.48437 1.1328 1.0234 1.7266 1.5078 1.9922 1.7266 3.9883 3.4492 5.9805 5.1211 4.043 3.3398 8.1914 6.6289 12.395 9.8086 8.625 6.4688 17.625 12.449 26.895 18.055 1.457 0.91797 4.2031 0.16016 5.6055-0.42969 1.9922-0.91797 4.0977-2.75 5.1758-4.6367 2.0469-3.6094 2.3711-7.6523-1.457-9.9688z"/>
  <path d="m174.73 462.25c-42.848-24.574-82.836-53.625-119.38-86.879-4.6875-4.2578-12.344-4.3125-17.57-0.96875-4.582 2.9102-7.2773 9.4297-2.5859 13.688 37.887 34.438 79.441 64.727 123.85 90.164 5.3906 3.0703 13.367 1.8867 17.676-2.5312 4.0938-4.3086 3.1797-10.508-1.9961-13.473z"/>
  <path d="m305.1 472.33c-86.285-54.973-168.91-115.55-247.27-181.3-3.0703-2.5859-7.8672-3.5586-11.48-1.5078-3.125 1.7773-4.0977 5.875-1.0781 8.3555 79.332 66.559 162.98 127.95 250.29 183.62 7.0078 4.4688 18.539-3.3984 9.5391-9.168z"/>
  <path d="m411.27 473.46c-94.586-63.109-184.16-133.66-267.53-211-23.391-21.664-46.242-43.926-68.66-66.613-3.8281-3.8789-10.941-4.3125-15.844-2.4258-3.9336 1.5625-7.9219 5.875-4.043 9.8086 80.355 81.488 167.18 156.51 259.45 224.26 26.355 19.348 53.195 38.105 80.41 56.266 4.418 2.9648 11.965 2.8008 16.332-0.16016 4.2539-2.9141 4.1445-7.2812-0.11328-10.137z"/>
  <path d="m440.91 393.7c-94.75-68.445-185.34-142.55-271.14-221.99-24.414-22.637-48.453-45.648-72.109-69.094-5.3906-5.3359-18.164 4.8516-12.988 9.9688 83.699 82.996 172.41 160.93 265.54 233.2 26.301 20.426 52.98 40.367 79.926 59.879 5.7109 4.0977 17.406-7.168 10.777-11.965z"/>
  <path d="m453.36 298.14c-13.367-18.918-31.258-33.09-49.098-47.645-19.617-16.062-39.02-32.391-58.152-48.992-38.266-33.254-75.508-67.691-111.72-103.21-20.48-20.102-40.637-40.637-60.469-61.441-5.9805-6.3047-25.168 0.32422-17.301 8.5703 69.039 72.543 142.34 140.99 219.51 204.75 19.941 16.492 42.309 32.012 57.453 53.355 2.9102 4.1484 8.4609 5.0664 13.203 3.7188 3.2305-0.85938 9.5391-4.9023 6.5742-9.1055z"/>
  <path d="m455.2 204.42c-62.57-52.062-119.75-110.38-170.63-173.86-5.2812-6.5742-24.035-0.86328-17.086 7.8672 50.875 63.488 108.11 121.8 170.63 173.86 3.8281 3.1797 9.4844 3.7188 13.957 1.6172 3.293-1.5625 6.957-6.25 3.1328-9.4844z"/>
  <path d="m458.91 136.09-93.777-100.57c-5.3359-5.7109-21.559-1.7773-14.066 6.25 34.492 36.973 68.984 73.945 103.48 110.91 3.6094 3.8789 14.281 4.957 15.898-1.5078 0.64844-2.5859 1.293-5.1758 1.9414-7.7617 1.4023-5.8164-7.707-9.1602-13.473-7.3242z"/>
  <path d="m506.88 91.027c-27.109-21.934-51.039-47.59-71.086-76.098-3.125-4.4727-10.941-1.457-13.957 1.457-3.7734 3.5586-6.3594 9-3.0703 13.688 20.051 28.562 43.977 54.219 71.086 76.098 4.2578 3.4492 10.078 2.2109 13.957-1.457 2.8008-2.6367 7.4922-10.074 3.0703-13.688z"/>
 </g>
</svg>
