<?xml version="1.0" encoding="UTF-8"?>
<svg width="1200pt" height="1200pt" version="1.1" viewBox="0 0 1200 1200" xmlns="http://www.w3.org/2000/svg">
 <g fill="#443f3c">
  <path d="m1036.1 220.41c0-47.855-38.797-86.711-86.676-86.711-47.914 0-86.746 38.844-86.746 86.711 0 47.93 38.82 86.723 86.746 86.723 47.871 0.003906 86.676-38.793 86.676-86.723z"/>
  <path d="m370.3 276.32c0-47.914-38.797-86.711-86.723-86.711-47.879 0-86.734 38.785-86.734 86.711 0 47.867 38.844 86.746 86.734 86.746 47.926 0.015626 86.723-38.867 86.723-86.746z"/>
  <path d="m936.1 1043.4v-336.86c0-8.1719 6.5898-14.746 14.676-14.746h3.4062c8.1016 0 14.676 6.5742 14.676 14.746v336.86c0 20.23 16.391 36.59 36.625 36.59 20.242 0 36.602-16.355 36.602-36.59l-0.003906-527.68c0-5.4492 3.0859-10.477 7.9062-13.008 7.2109-3.7422 16.078-0.97266 19.848 6.2539l24.133 46.402c2.9141 5.543 4.4766 11.785 4.4766 18.133v72.602c0 20.172 16.367 36.59 36.613 36.59 20.23 0 36.613-16.414 36.613-36.59v-90.551c0-6.3359-1.5117-12.516-4.4414-18.133l-91.355-175.44c-6.9102-13.246-20.652-21.602-35.629-21.602h-152.71c-9.8867 0-19.441 3.7188-26.711 10.414l-238.77 221.08c-14.867 13.766-15.742 36.91-2.0156 51.781 13.715 14.809 36.898 15.695 51.742 1.9805l166.42-154.04c2.6875-2.5312 6.2539-3.9258 9.9492-3.9258 8.1602 0 14.734 6.5742 14.734 14.723v561.01c0 20.23 16.367 36.59 36.602 36.59 20.23 0.003906 36.613-16.363 36.613-36.598z"/>
  <path d="m33.875 682.75h547.13v63.828h-547.13z"/>
  <path d="m599.9 397.23c5.4727 1.5586 10.535 4.3555 14.773 8.2578 14.93 13.586 15.996 36.742 2.3867 51.707l-122.45 134.21c-1.8477 2.0156-3.9492 3.8398-6.1445 5.4492-17.988 13.008-43.105 8.9883-56.125-9.0117l-39.73-54.938c-4.7773-6.5898-13.934-8.0391-20.52-3.3125-3.793 2.7617-6.0977 7.2227-6.0977 11.902v124.98h-196.32l232.6-245.21 55.031 76.105c4.7383 6.5898 13.957 8.0508 20.531 3.2656 0.78125-0.58984 1.5586-1.2852 2.2422-2.0156l60.348-66.156h-27.648l0.003906-142.43h87.121z"/>
  <path d="m129.91 666.48 24.48-51.59 203.38-214.4h-157.95c-15.156 0-29.004 8.7461-35.484 22.488l-115.49 243.5z"/>
 </g>
</svg>
