<?xml version="1.0" encoding="UTF-8"?>
<svg width="1200pt" height="1200pt" version="1.1" viewBox="0 0 1200 1200" xmlns="http://www.w3.org/2000/svg">
 <g fill="#a8a29d">
  <path d="m647.95 386.45c27.113 0 53.828-4.5664 79.09-13.203-17.762-73.25-49.555-118.43-79.09-118.43-29.531 0-61.324 45.184-79.086 118.43 25.258 8.6406 51.973 13.203 79.086 13.203z"/>
  <path d="m525.95 396.13c-25.586-12.254-49.367-28.332-70.375-47.844-29.289 37.113-48.09 82.867-51.883 132.75h113.89c0.85156-29.449 3.6758-58.043 8.3711-84.906z"/>
  <path d="m551.55 305.98c6.3008-14.844 13.273-27.934 20.809-39.215-34.41 11.191-65.496 29.801-91.371 53.941 16.027 14.91 33.918 27.516 53.102 37.578 4.8477-18.762 10.684-36.328 17.461-52.305z"/>
  <path d="m734.39 410.32c-27.715 8.9336-56.871 13.633-86.438 13.633s-58.727-4.6992-86.438-13.633c-3.4453 21.867-5.6992 45.547-6.4531 70.715h185.79c-0.75781-25.168-3.0156-48.848-6.4609-70.715z"/>
  <path d="m561.52 589.25c27.715-8.9336 56.871-13.633 86.438-13.633s58.727 4.6992 86.438 13.633c3.4453-21.871 5.6992-45.551 6.457-70.719h-185.79c0.75391 25.172 3.0117 48.852 6.457 70.719z"/>
  <path d="m119.42 75v1040.6c0 41.355 33.645 75 75 75h23.359v-1190.6h-23.359c-41.355 0-75 33.645-75 75z"/>
  <path d="m761.82 358.29c19.184-10.066 37.07-22.672 53.098-37.578-25.875-24.141-56.961-42.75-91.371-53.938 7.5312 11.277 14.508 24.371 20.809 39.215 6.7812 15.973 12.617 33.539 17.465 52.301z"/>
  <path d="m647.95 613.12c-27.113 0-53.828 4.5664-79.086 13.203 17.762 73.25 49.555 118.43 79.086 118.43 29.535 0 61.324-45.184 79.09-118.43-25.262-8.6406-51.977-13.203-79.09-13.203z"/>
  <path d="m769.96 603.45c25.586 12.25 49.363 28.332 70.371 47.84 29.289-37.113 48.09-82.867 51.887-132.75h-113.89c-0.85156 29.453-3.6758 58.047-8.3711 84.91z"/>
  <path d="m769.96 396.13c4.6953 26.863 7.5195 55.457 8.3711 84.906h113.89c-3.793-49.883-22.594-95.637-51.883-132.75-21.012 19.512-44.789 35.594-70.375 47.844z"/>
  <path d="m517.58 518.54h-113.89c3.793 49.883 22.594 95.637 51.887 132.75 21.008-19.512 44.789-35.59 70.375-47.844-4.6992-26.859-7.5234-55.453-8.375-84.906z"/>
  <path d="m534.09 641.29c-19.184 10.062-37.074 22.672-53.102 37.578 25.875 24.141 56.961 42.75 91.371 53.941-7.5312-11.281-14.508-24.371-20.809-39.215-6.7773-15.977-12.613-33.543-17.461-52.305z"/>
  <path d="m1021.9 0h-766.59v1190.6h766.59c31.016 0 56.25-25.234 56.25-56.25v-1078.1c0-31.016-25.234-56.25-56.25-56.25zm-274.95 973.31h-197.94c-10.355 0-18.75-8.3945-18.75-18.75s8.3945-18.75 18.75-18.75h197.94c10.355 0 18.75 8.3945 18.75 18.75 0 10.352-8.3945 18.75-18.75 18.75zm94.551-109.66h-387.04c-10.355 0-18.75-8.3945-18.75-18.75 0-10.355 8.3945-18.75 18.75-18.75h387.04c10.355 0 18.75 8.3945 18.75 18.75 0 10.355-8.3945 18.75-18.75 18.75zm15.148-173.68c-0.70312 0.96094-1.5 1.875-2.4062 2.7148-0.17969 0.16406-0.36719 0.30859-0.55078 0.46484-51.555 54.816-124.7 89.105-205.71 89.105-81.016 0-154.16-34.297-205.72-89.117-0.17969-0.15234-0.36719-0.28906-0.53906-0.45312-0.90625-0.83984-1.7031-1.7539-2.4062-2.7148-45.82-50.23-73.801-117-73.801-190.19 0-73.191 27.984-139.96 73.809-190.2 0.70312-0.96094 1.4961-1.8711 2.4023-2.707 0.17188-0.16016 0.35938-0.29687 0.53516-0.44922 51.559-54.824 124.71-89.121 205.73-89.121s154.17 34.297 205.73 89.121c0.17578 0.15234 0.36328 0.28906 0.53516 0.44922 0.90625 0.83594 1.7031 1.75 2.4023 2.707 45.824 50.23 73.809 117 73.809 190.19-0.003907 73.191-27.988 139.96-73.809 190.19z"/>
  <path d="m744.36 693.59c-6.3008 14.844-13.273 27.934-20.809 39.215 34.41-11.191 65.496-29.801 91.371-53.938-16.027-14.906-33.918-27.512-53.102-37.578-4.8438 18.758-10.68 36.324-17.461 52.301z"/>
 </g>
</svg>
