<?xml version="1.0" encoding="UTF-8"?>
<svg width="1200pt" height="1200pt" version="1.1" viewBox="0 0 1200 1200" xmlns="http://www.w3.org/2000/svg">
 <path d="m981.48 60h-762.96c-19.852 0-36 16.148-36 36v1008c0 19.852 16.148 36 36 36h762.96c19.852 0 36-16.148 36-36v-1008c0-19.852-16.148-36-36-36zm12 1044c0 6.6211-5.3789 12-12 12h-762.96c-6.6133 0-12-5.3789-12-12v-1008c0-6.6133 5.3867-12 12-12h762.96c6.6211 0 12 5.3867 12 12zm-584.34-607.01c-79.887 0-144.88 64.992-144.88 144.88 0 79.887 64.992 144.88 144.88 144.88 79.883 0 144.87-64.992 144.87-144.88 0.003907-79.887-64.992-144.88-144.87-144.88zm0 265.76c-66.648 0-120.88-54.223-120.88-120.88s54.23-120.88 120.88-120.88c66.648 0 120.87 54.223 120.87 120.88 0.003907 66.656-54.219 120.88-120.87 120.88zm0-226.79c-58.406 0-105.92 47.508-105.92 105.91s47.516 105.91 105.92 105.91c58.398 0 105.91-47.508 105.91-105.91s-47.512-105.91-105.91-105.91zm0 199.83c-51.785 0-93.922-42.129-93.922-93.914s42.137-93.914 93.922-93.914c51.785 0 93.914 42.129 93.914 93.914s-42.129 93.914-93.914 93.914zm117.59 90.199h-235.17c-13.234 0-24 10.77-24 24v191.36c0 13.23 10.766 24 24 24h235.17c13.234 0 24-10.77 24-24v-191.36c0-13.23-10.766-24-24-24zm0 215.36h-235.17l-0.007812-92.438h235.18zm0-116.44h-235.18v-18.984h235.18zm0-42.984h-235.19l-0.003906-31.934h235.19zm-226.52-440.66 68.41 23.473c13.066 4.4766 26.801 6.7148 40.535 6.7148 13.73 0 27.461-2.2383 40.527-6.7148h0.007813l68.391-23.473c15.879-5.4609 26.543-20.824 26.543-38.238v-124.86c0-17.426-10.672-32.785-26.543-38.227l-96.828-33.238c-7.7969-2.6523-16.383-2.6719-24.203 0.007812l-96.832 33.234c-15.879 5.4453-26.547 20.801-26.547 38.227v124.86c-0.003906 17.406 10.66 32.77 26.539 38.23zm-2.543-163.09c0-7.168 4.1523-13.406 10.336-15.527l96.832-33.23c1.3945-0.48047 2.8594-0.72266 4.3203-0.72266 1.4648 0 2.9219 0.23828 4.3125 0.71484l96.828 33.234c6.1758 2.1211 10.328 8.3594 10.328 15.527v124.86c0 7.1719-4.1523 13.406-10.336 15.527l-68.387 23.473c-21.121 7.2422-44.387 7.2422-65.496 0l-68.402-23.473c-6.1797-2.1211-10.336-8.3555-10.336-15.527zm181.1 111.86c0 6.6289-5.3711 12.008-12 12.008h-115.24c-6.6289 0-12-5.3789-12-12.008s5.3711-12 12-12h115.24c6.6289 0 12 5.375 12 12zm-149.86-49.434c0-6.6289 5.3711-12 12-12h136.47c6.6289 0 12 5.3711 12 12s-5.3711 12-12 12h-136.47c-6.6289 0-12-5.3711-12-12zm0-49.441c0-6.6289 5.3711-12 12-12h136.47c6.6289 0 12 5.3711 12 12s-5.3711 12-12 12h-136.47c-6.6289 0-12-5.375-12-12zm606.13 51.367c-2.0391-8.9727-8.1094-15.516-12.996-20.777-2.7539-2.9727-5.3555-5.7773-6.4922-8.1289-1.1836-2.4609-1.7812-6.3242-2.4023-10.406-1.1367-7.3789-2.4141-15.754-8.0508-22.812-5.6602-7.082-13.547-10.191-20.52-12.93-3.8203-1.5117-7.4414-2.9336-9.5391-4.6094-2.0859-1.6641-4.2539-4.8594-6.5625-8.2383-4.2305-6.2031-9.0234-13.242-17.238-17.215-8.0977-3.8945-16.512-3.293-23.953-2.7461-4.1484 0.29688-8.0625 0.57812-10.805-0.035156-2.4844-0.5625-5.7656-2.4609-9.2461-4.4648-6.2344-3.5977-13.98-8.0703-23.238-8.0703s-17.004 4.4727-23.227 8.0625c-3.4805 2.0117-6.7734 3.9023-9.2695 4.4727-2.7188 0.61328-6.6328 0.32422-10.793 0.027344-7.4531-0.53906-15.867-1.1406-23.941 2.7539-8.2148 3.9609-13.008 10.992-17.238 17.203-2.3086 3.375-4.4766 6.5703-6.5625 8.2266-2.1094 1.6797-5.7188 3.1055-9.5391 4.6172-6.9727 2.7422-14.871 5.8555-20.52 12.93-5.6367 7.0547-6.9258 15.434-8.0625 22.828-0.63281 4.082-1.2188 7.9414-2.4023 10.398-1.1367 2.3555-3.75 5.168-6.5039 8.1406-4.875 5.2578-10.945 11.801-12.996 20.766-1.9688 8.6719 0.49219 16.703 2.6602 23.785 1.2422 4.0234 2.4023 7.8242 2.4023 10.68 0 2.8594-1.1602 6.6562-2.3906 10.68-2.1797 7.0781-4.6406 15.105-2.6602 23.801 2.0391 8.9531 8.1094 15.492 12.984 20.754 2.7656 2.9648 5.3672 5.7773 6.5039 8.1211 1.1836 2.4609 1.7695 6.3164 2.3906 10.406 1.1367 7.3945 2.4141 15.762 8.0508 22.816 5.6602 7.0781 13.547 10.195 20.52 12.938 3.8203 1.5117 7.4414 2.9297 9.5508 4.6172 2.0859 1.6641 4.2539 4.8516 6.5625 8.2383 4.2305 6.1992 9.0234 13.242 17.238 17.203 8.1094 3.9141 16.535 3.3047 23.965 2.7539 4.1367-0.31641 8.0742-0.59766 10.781 0.035156 2.4961 0.5625 5.7773 2.4609 9.2695 4.4648 6.2227 3.5977 13.969 8.0742 23.227 8.0742s17.004-4.4766 23.227-8.0742c3.4805-2.0039 6.7617-3.9023 9.2461-4.4648 2.707-0.62109 6.6328-0.35156 10.793-0.035156 7.4297 0.55078 15.855 1.1602 23.965-2.7539 8.2031-3.9609 12.996-10.992 17.227-17.191 2.3086-3.3867 4.4766-6.5742 6.5625-8.2383 2.1094-1.6875 5.7305-3.1055 9.5508-4.6172 6.9727-2.7305 14.859-5.8477 20.52-12.926 5.6367-7.0547 6.9141-15.434 8.0508-22.828 0.63281-4.0781 1.2188-7.9453 2.4023-10.395 1.1367-2.3555 3.7383-5.1562 6.4922-8.1328 4.8867-5.2617 10.969-11.812 12.996-20.766 1.9805-8.6836-0.48047-16.723-2.6484-23.812-1.2305-4.0195-2.3906-7.8164-2.3906-10.672 0-2.8555 1.1602-6.6445 2.3906-10.664 2.168-7.0859 4.6289-15.121 2.6602-23.789zm-25.605 52.152c1.3594 4.4219 2.7539 9.0078 2.1914 11.465-0.60938 2.6719-3.9492 6.2812-7.1836 9.7617-3.6562 3.9492-7.8047 8.4141-10.512 14.016-2.7539 5.707-3.6914 11.812-4.5117 17.203-0.71484 4.6406-1.4531 9.4336-3.082 11.484-1.6523 2.0742-6.1758 3.8555-10.559 5.5781-5.0625 1.9922-10.805 4.2539-15.738 8.1914-4.8984 3.9141-8.3672 8.9883-11.414 13.477-2.6602 3.8906-5.4023 7.9219-7.8281 9.0938-2.3203 1.125-7.1367 0.76172-11.801 0.42188-5.4492-0.38672-11.625-0.84375-17.836 0.5625-6.0352 1.3711-11.297 4.418-15.949 7.1016-4.125 2.3906-8.3906 4.8516-11.215 4.8516s-7.1016-2.4727-11.227-4.8516c-4.6523-2.6836-9.9258-5.7305-15.961-7.1016-3.1992-0.72656-6.3867-0.94922-9.4805-0.94922-2.8945 0-5.707 0.19922-8.3438 0.38672-4.6523 0.33984-9.4688 0.70312-11.801-0.42188-2.4258-1.1719-5.1797-5.2148-7.8398-9.1172-3.0469-4.4766-6.5156-9.5508-11.414-13.465-4.9336-3.9375-10.664-6.1992-15.738-8.1914-4.3711-1.7344-8.8945-3.5156-10.559-5.5898-1.6289-2.0391-2.3672-6.832-3.0703-11.461-0.82031-5.3906-1.7578-11.508-4.5117-17.215-2.707-5.6016-6.8555-10.078-10.523-14.027-3.2227-3.4805-6.5625-7.0781-7.1719-9.75-0.5625-2.4375 0.84375-7.0195 2.2031-11.445 1.6172-5.2734 3.4453-11.258 3.4453-17.707 0-6.4492-1.8281-12.434-3.4453-17.711-1.3594-4.4219-2.7656-8.9922-2.2148-11.426 0.62109-2.6836 3.9609-6.2891 7.1836-9.7656 3.668-3.9492 7.8281-8.4258 10.523-14.035 2.7539-5.7031 3.6914-11.801 4.5117-17.184 0.71484-4.6406 1.4531-9.4336 3.1055-11.496 1.6523-2.0742 6.1758-3.8555 10.547-5.5781 5.0625-1.9961 10.793-4.2539 15.727-8.1836 4.8984-3.9141 8.3672-8.9922 11.414-13.473 2.6602-3.9023 5.4141-7.9336 7.8398-9.1094 2.2969-1.1094 7.1133-0.76172 11.777-0.42578 5.4492 0.39844 11.625 0.84375 17.848-0.5625 6.0234-1.3633 11.297-4.4062 15.938-7.082 4.1367-2.3867 8.4141-4.8516 11.238-4.8516 2.8359 0 7.1016 2.4648 11.238 4.8516 4.6406 2.6758 9.9023 5.7188 15.926 7.082 6.2227 1.418 12.422 0.97266 17.859 0.57031 4.6641-0.32812 9.457-0.69141 11.789 0.42578 2.4258 1.1719 5.1797 5.2148 7.8398 9.1172 3.0469 4.4766 6.5039 9.5508 11.402 13.465 4.9336 3.9375 10.676 6.1992 15.738 8.1992 4.3711 1.7227 8.8945 3.5039 10.559 5.5742 1.6289 2.0547 2.3672 6.8516 3.082 11.484 0.82031 5.3867 1.7578 11.496 4.5117 17.199 2.6953 5.6016 6.8438 10.074 10.512 14.02 3.2344 3.4805 6.5625 7.0781 7.1836 9.7773 0.55078 2.4375-0.84375 7.0078-2.2031 11.438-1.6172 5.2656-3.4453 11.242-3.4453 17.691 0 6.4375 1.8281 12.41 3.4453 17.688zm-125.44-127.31c-60.445 0-109.62 49.172-109.62 109.61s49.172 109.61 109.62 109.61c60.434 0 109.61-49.172 109.61-109.61s-49.172-109.61-109.61-109.61zm0 207.22c-53.824 0-97.617-43.793-97.617-97.609 0-53.824 43.793-97.609 97.617-97.609s97.605 43.789 97.605 97.609c0 53.816-43.781 97.609-97.605 97.609zm99 153.9h-198.01c-19.852 0-36 16.148-36 36v347.46c0 19.852 16.148 36 36 36h198.01c19.852 0 36-16.148 36-36v-347.46c0-19.852-16.148-36-36-36zm-51.891 395.46h-146.12c-6.6211 0-12-5.3789-12-12v-347.46c0-6.6211 5.3789-12 12-12h146.12zm63.891-12c0 6.6211-5.3789 12-12 12h-27.891v-371.46h27.891c6.6211 0 12 5.3789 12 12zm-185.88-69.41v-208.64c0-6.6328 5.3672-12 12-12 6.6328 0 12 5.3672 12 12v208.64c0 6.6328-5.3672 12-12 12-6.6328 0-12-5.3672-12-12zm47.461 0v-208.64c0-6.6328 5.3672-12 12-12s12 5.3672 12 12v208.64c0 6.6328-5.3672 12-12 12s-12-5.3672-12-12zm-338.2-795.87c0-6.6289 5.3711-12 12-12h339.28c6.6328 0 12 5.3711 12 12 0 6.6289-5.3672 12-12 12h-339.28c-6.625 0-12-5.375-12-12z" fill="#443f3c"/>
</svg>
