<?xml version="1.0" encoding="UTF-8"?>
<svg width="512pt" height="512pt" version="1.1" viewBox="0 0 512 512" xmlns="http://www.w3.org/2000/svg">
 <path d="m188.79 152.02c-0.94922 0.050781-1.6992 0.82031-1.7266 1.7695v6.3906c-3.9492 0.86328-6.7656 4.3555-6.7734 8.3984v89.848l-54.879-0.003906v-30.32c0.007813-4.0508-2.8125-7.5586-6.7695-8.4219v-6.3633c-0.078125-0.94922-0.87109-1.6836-1.8242-1.6836s-1.7461 0.73438-1.8242 1.6836v6.3633c-3.9609 0.85937-6.7891 4.3672-6.7812 8.4219v129.69c0 1.207 0.97656 2.1875 2.1836 2.1914h291.18c0.58594 0.003906 1.1484-0.22656 1.5625-0.63672s0.64844-0.96875 0.64844-1.5547v-129.69c0.007813-4.0508-2.8125-7.5586-6.7734-8.4219v-6.3633c0-1.0117-0.81641-1.832-1.8281-1.832s-1.832 0.82031-1.832 1.832v6.3633c-3.9609 0.85937-6.7852 4.3672-6.7812 8.4219v30.32h-54.867v-89.848 0.003906c-0.007812-4.0469-2.8281-7.5391-6.7852-8.3984v-6.3906c-0.074219-0.94922-0.86719-1.6836-1.8203-1.6836-0.95703 0-1.75 0.73438-1.8242 1.6836v6.3906c-3.9531 0.85937-6.7773 4.3516-6.7852 8.3984v44.281h-116.96v-44.281c-0.007813-4.0469-2.8281-7.5391-6.7812-8.3984v-6.3906c-0.015625-0.49219-0.22656-0.95703-0.58984-1.293-0.36328-0.33203-0.84766-0.50391-1.3398-0.47656zm0 11.652v-0.003906c1.3359-0.046875 2.6367 0.44531 3.6016 1.3711 0.96875 0.92188 1.5195 2.1992 1.5273 3.5391v16.938h-9.9062v-16.938c0.023437-2.6523 2.1289-4.8164 4.7773-4.9102zm134.1 0.074219c0.16797-0.007813 0.33984-0.007813 0.50781 0 2.5938 0.125 4.6484 2.2305 4.7109 4.8281v16.938h-9.8906v-16.938c0.058594-2.5859 2.0977-4.6914 4.6836-4.8281zm-138.88 25.441h9.9062v167.15h-9.9062zm134.19 0h9.8945v167.15h-9.8945zm-120.64 27.328h116.98v15.73h-116.98zm-80.832 6.6406v-0.003906c1.3359-0.035156 2.6289 0.46875 3.5859 1.3984 0.96094 0.93359 1.5 2.2109 1.5039 3.5469v16.938l-9.8945 0.003906v-16.941c0.003906-2.6719 2.1289-4.8633 4.8047-4.9453zm278.3 0.074219c1.3359-0.054688 2.6367 0.4375 3.6055 1.3594s1.5234 2.1953 1.5391 3.5352v16.938h-9.8906v-16.938h-0.003906c0.03125-2.6367 2.1172-4.7891 4.7539-4.8945zm-197.47 12.699h116.98v120.43h-15.273v-50.934c-0.19922-15.305-8.4805-29.363-21.77-36.961-13.289-7.5938-29.605-7.5938-42.898 0-13.289 7.5977-21.57 21.656-21.77 36.961v50.934h-15.27zm-85.633 12.777h9.8906v107.65l-9.8945 0.003906zm278.36 0h9.8906v107.65l-9.8945 0.003906zm-264.8 13.398h54.867v15.965h-54.867zm206.27 0h54.867v15.965h-54.867zm-77.031 3.9492c10.691-0.35938 21.07 3.6211 28.773 11.039 7.707 7.418 12.078 17.637 12.125 28.332v50.934h-21.953v-35.449c-0.078125-6.2422-3.4531-11.977-8.875-15.074-5.418-3.0977-12.07-3.0977-17.488 0-5.418 3.0977-8.793 8.832-8.875 15.074v35.449h-21.938v-50.934c0.046875-10.23 4.0508-20.051 11.18-27.391 7.1289-7.3438 16.824-11.637 27.051-11.98zm-129.25 15.68h54.867v74.625h-9.3789v-33.969c-0.042969-6.418-3.4922-12.332-9.0547-15.527-5.5664-3.1953-12.414-3.1953-17.977 0-5.5664 3.1953-9.0156 9.1094-9.0586 15.527v33.969h-9.3945zm206.27 0h54.867v74.625h-9.3945v-33.969h0.003907c-0.019531-6.4336-3.4609-12.371-9.0391-15.582-5.5742-3.2148-12.438-3.2148-18.012 0-5.5781 3.2109-9.0195 9.1484-9.0391 15.582v33.969h-9.3828zm-76.238 25.348 0.003906-0.003906c3.7695-0.14062 7.4375 1.2461 10.172 3.8516 2.7305 2.6055 4.2891 6.2031 4.3242 9.9805v35.449h-27.922v-35.449c0.066406-7.4531 5.9766-13.543 13.426-13.832zm-103.02 0.93359v-0.003906c3.8906-0.11328 7.6562 1.3516 10.445 4.0586 2.793 2.707 4.3672 6.4336 4.3672 10.32v33.969h-28.77v-33.969c0-3.7422 1.457-7.3359 4.0625-10.02 2.6094-2.6836 6.1562-4.2461 9.8945-4.3594zm206.13 0.15234 0.003906-0.003907c3.8828-0.14844 7.6641 1.2773 10.477 3.9609 2.8164 2.6797 4.4258 6.3867 4.4648 10.273v33.969h-28.773v-33.969c0.039063-3.6953 1.4922-7.2344 4.0703-9.8828 2.5742-2.6484 6.0664-4.207 9.7617-4.3516z" fill="#443f3c"/>
</svg>
