<?xml version="1.0" encoding="UTF-8"?>
<svg width="512pt" height="512pt" version="1.1" viewBox="0 0 512 512" xmlns="http://www.w3.org/2000/svg">
 <g fill="#443f3c">
  <path d="m56 208h16v32h-16z"/>
  <path d="m496 219.3v-35.301h-16v-89.5l-32-85.301-32 85.301v89.5h-16v35.301l16 16v147.7l-8 32v65h-16v-113.9l-24-48v-62.102h16v-16h-8.6016c-20.801 0-39.602-12.301-48.102-31.199-11-24.801-35.602-40.699-62.699-40.801h-0.59766v-32h-16v32h-0.60156c-27.102 0-51.699 16-62.699 40.801-8.5 19-27.301 31.199-48.102 31.199h-8.5977v16h16v62.102l-24 48v113.9h-16v-208h8v-16h-8v-64h8v-16h-8v-24h8v-16h-10.801l-37.199-83.699-37.199 83.699h-10.801v16h8v24h-8v16h8v64h-8v16h8v208h-8v16h480v-16h-8v-65l-8-32v-147.7zm-432-127.6 19.699 44.301h-39.398zm-24 60.301h16v24h-16zm48 328h-48v-208h48zm0-224h-48v-64h48zm0-80h-16v-24h16zm264 80v24h-48v-24zm-152.7-40.801c8.5-19 27.301-31.199 48.102-31.199h17.199c20.801 0 39.602 12.301 48.102 31.199 4.3008 9.6016 10.602 18 18.699 24.801h-150.8c8.0977-6.6992 14.5-15.199 18.699-24.801zm88.699 40.801v24h-64v-24zm-128 0h48v24h-48zm0 40h192v16h-192zm-3.1016 32h198.1l16 32h-230.1zm43.102 152h-32v-56c0-8.8008 7.1992-16 16-16s16 7.1992 16 16zm64 0h-16v-40c0-4.3984 3.6016-8 8-8s8 3.6016 8 8zm80 0h-32v-56c0-8.8008 7.1992-16 16-16s16 7.1992 16 16zm32 0h-16v-56c0-17.699-14.301-32-32-32s-32 14.301-32 32v56h-16v-40c0-13.301-10.699-24-24-24s-24 10.699-24 24v40h-16v-56c0-17.699-14.301-32-32-32s-32 14.301-32 32v56h-16v-104h240zm72-425.2 12.5 33.199h-24.898zm-16 49.199h32v80h-32zm40 376h-48v-56h48zm-6.1992-88 4 16h-43.5l4-16zm-33.801-16v-136h32v136zm36.699-152h-41.398l-11.301-11.301v-12.699h64v12.699z"/>
 </g>
</svg>
