<?xml version="1.0" encoding="UTF-8"?>
<svg width="512pt" height="512pt" version="1.1" viewBox="0 0 512 512" xmlns="http://www.w3.org/2000/svg">
 <path d="m100.34 451.89-28.461-6.8594-16.855-9.2148-7.0156-59.484-9.8086-10.496h-18.711l-18.18-11.797 21.898-16.344 27.785-3.5391 31.695-23.312-20.32-45.953-9.5273-5.0938-39.254 18.348 12.258-54.207 25.262-11.672v-5.6016l-15.012-4.2461-6.5312-27.375 18.738-16.41 3.5859-15.004 10.324-3.9883 10.727 4.5156 21.012-16.867-10.645-33.574 11.484-13.449v-21.727l29.734-5.4648 7.5 14.145h18.715l11.504-9.5547h13.621l16.664-8.332 19.355 4.6914 18.625 11.496 7.918 19.293 15.352 5.6914 8.5234 10.602 6.7656-3.5664 26.086 4.6367 11.832-9.5508 25.754 10.754 9.3867 10.637 22.699-10.242 23.871 4.8438 20.582 14.438 7.9336-3.9648 10.711 1.625 11.777-6.1562 5.1367 20.562-15.34 19.133v12.973l16.793 1.8867 13.086 10.367 20.461 3.25 18.547-4.3867 9.5742 21.418-26.078 21.066h-18.453l-19.645 12.836-5.3594 24.23v17.301l-13.617 23.191 4.6914 3.9336v25.395l-31.523 27.59-20.625-12.852-27.355 4.8516-6.8242 20.684 3.5195 12.102-12.66 11.457h-24.473l-11.266 8.2656h-30.406l-7.875-7.2383-12.254 5.9336-16.035 32.602-14.902-22.465-3.5117 0.47656-1.3867 22.23-6.8125 4.2383-1.6836 18.555h-37.895l-15.219 8.7852-22.613-8.8633zm-24.656-16.688 25.902 6.3047 28.48 2.2656 19.371 7.5938 13.293-7.6719h31.148l1.2891-14.23 6.6562-4.1406 1.5859-25.406 18.492-2.5078 8.4688 12.766 9.5938-19.508 21.887-10.594 10.105 9.2891h22.91l11.266-8.2656h23.871l4.8242-4.3672-2.5977-8.9375 9.793-29.688 37.445-6.6406 17.453 10.875 22.125-19.367v-15.781l-7.7227-6.4805 16.648-28.355v-15.031l6.5273-30.078 25.812-16.867h17.875l16.949-13.691-2.7656-6.1836-12.141 2.8672-25.199-4.0039-12.883-10.203-23.102-2.5938v-25.988l14.395-17.957-0.66406-2.6562-3.043 1.5898-10.816-1.6406-10.539 5.2695-23.898-16.766-18.43-3.7383-26.656 12.027-12.902-14.617-17.789-7.4258-10.695 8.6289-27.238-4.8438-11.211 5.9141-12.117-15.066-16.941-6.2852-8.3672-20.387-14.324-8.8398-14.027-3.3984-15.453 7.7227h-12.312l-11.504 9.5547h-28.773l-6.8594-12.93-13.641 2.5039v16.879l-10.219 11.969 11.055 34.867-31.449 25.246-12.582-5.2969-4.3516 13.395-16.5 14.449 3.6445 15.281 16.719 4.7305v20.184l-26.652 12.32-6.418 28.383 24.668-11.535 17.316 9.2578 25.168 56.922-40.637 29.883-27.746 3.5391-7.6719 5.7266 3 1.9453h20.152l15.25 16.316 6.7852 57.531z" fill="#443f3c" fill-rule="evenodd"/>
</svg>
