<?xml version="1.0" encoding="UTF-8"?>
<svg width="512pt" height="512pt" version="1.1" viewBox="0 0 512 512" xmlns="http://www.w3.org/2000/svg">
 <g fill="#443f3c">
  <path d="m85.332 106.67c0.54688 1.3867 1.7734 2.3906 3.2422 2.6445h0.72656c1.2461 0 2.4336-0.54688 3.2422-1.4922l6.0156-6.9531v-0.003907c0.58984-0.78516 0.89453-1.75 0.85547-2.7305v-8.918l14.719-20.949c0.73828-1.0391 0.97266-2.3516 0.64063-3.582-0.33984-1.2109-1.1992-2.2109-2.3477-2.7305l-9.4727-4.2656v-0.003906c-1.5664-0.73047-3.418-0.44531-4.6914 0.72656l-21.332 19.586c-1.3047 1.1836-1.7461 3.0469-1.1094 4.6914zm16.77-40.105 2.3047 1.0664-12.758 17.703c-0.50781 0.72656-0.77344 1.5898-0.76953 2.4766v8.5352l-0.33984 0.42578-5.8438-14.719z"/>
  <path d="m92.969 113.28c-1.8906 1.1289-2.6133 3.5156-1.6602 5.5039l27.137 56.832 1.0234 12.801-11.309 7.8477c-1.8281 1.3047-2.332 3.8047-1.1523 5.7188l25.812 42.41-4.2656 46.934-24.02 21.633c-0.69141 0.62891-1.1562 1.4688-1.3242 2.3867l-6.7852 36.824-8.0625 27.863-8.5352 14.078c-0.42578 0.66016-0.64844 1.4297-0.64062 2.2188v44.84c0 1.4766 0.75781 2.8477 2.0078 3.6289 1.3203 0.76172 2.9453 0.76172 4.2656 0l10.668-5.207 18.773 1.1953c0.85938 0.070313 1.7227-0.12109 2.4727-0.55469l11.477-6.8281 17.961 12.801h0.003906c1.543 1.2031 3.707 1.2031 5.2461 0l7.0391-5.9297h112.64l10.926 7.7227c0.59375 0.40625 1.2852 0.65625 2.0039 0.72656l69.461 6.1836h1.1094l50.09-8.8711c1.4883-0.25781 2.7266-1.2812 3.2617-2.6953 0.53516-1.4102 0.28516-2.9961-0.65625-4.1758l-29.867-38.016v-90.965h54.527c1.1328 0 2.2148-0.44922 3.0156-1.25s1.25-1.8867 1.25-3.0156v-58.754c0.011719-1.2344-0.51172-2.4141-1.4375-3.2305-0.92578-0.82031-2.1602-1.1953-3.3828-1.0352l-38.398 5.0781c-0.53906 0.078125-1.0586 0.25-1.5391 0.51172l-9.4727 5.418-1.5352-2.1758 2.9023-4.2656v-0.003906c0.51562-0.70312 0.78516-1.5586 0.76953-2.4297v-21.887c0.011719-1.0117-0.33594-1.9961-0.98438-2.7734l-12.801-15.23 0.003906-64.812c0-1.1328-0.44922-2.2188-1.25-3.0195s-1.8867-1.25-3.0195-1.25h-28.586v-5.2031c-0.003906-1.1836-0.49609-2.3125-1.3633-3.1172-0.86328-0.80859-2.0195-1.2266-3.2031-1.1484l-26.539 1.9219 0.003906-0.003906c-1.6406 0.11719-3.0664 1.1602-3.6719 2.6875l-9.3867 23.68-46.508 7.8945-29.867-59.734h0.003906c-0.72266-1.4336-2.1914-2.3398-3.8008-2.3477h-98.133c-0.74609-0.003906-1.4805 0.1875-2.1328 0.55469zm23.852-4.0547h94.211l29.867 60.203h-0.003907c0.84375 1.6953 2.7031 2.6328 4.5664 2.3047l52.352-8.875c1.4688-0.25391 2.6992-1.2578 3.2422-2.6445l9.1289-23.383 19.285-1.4062v4.9062h0.003906c0 1.1289 0.44922 2.2148 1.25 3.0156 0.80078 0.80078 1.8828 1.25 3.0156 1.25h28.586v62.121c0.011719 1.0039 0.375 1.9688 1.0234 2.7305l12.801 15.23v19.242l-3.625 5.207c-0.85938 1.2695-0.97266 2.8945-0.30078 4.2695l4.2656 8.1914h0.003907c0.54687 1.0195 1.4844 1.7773 2.6016 2.0898 1.1016 0.32031 2.2852 0.17969 3.2852-0.38281l12.543-7.168 32.895-4.2656 0.003906 49.789h-54.273c-2.3555 0-4.2656 1.9102-4.2656 4.2695v96.723c0.003906 0.96484 0.33594 1.8945 0.9375 2.6445l26.582 33.582-42.324 7.5078-67.883-6.1875-11.094-7.5938c-0.70703-0.47656-1.5391-0.72656-2.3906-0.72656h-115.71c-0.99609 0-1.9648 0.34766-2.7305 0.98047l-5.6758 4.8203-17.535-12.801v0.003906c-1.4141-0.91797-3.2383-0.91797-4.6523 0l-12.801 7.5508-18.602-1.1953c-0.73438-0.027344-1.4648 0.12109-2.1328 0.42969l-5.5469 2.6875v-36.824l8.2344-13.523c0.17969-0.32422 0.32031-0.66797 0.42578-1.0234l8.3203-28.844 6.6992-35.883 24.191-21.801c0.80078-0.71484 1.3047-1.707 1.4102-2.7734l4.2656-49.922c0.085938-0.91016-0.125-1.8203-0.59766-2.6016l-24.492-40.234 10.027-7.168c1.2383-0.87109 1.918-2.332 1.793-3.8398l-1.2812-15.785v-0.003906c-0.039062-0.51562-0.17188-1.0195-0.38281-1.4922l-25.602-53.973z"/>
  <path d="m366.93 433.41c1.4609 1.8516 4.1445 2.168 5.9961 0.70703 1.8477-1.4609 2.1641-4.1445 0.70312-5.9961l-14.379-18.516v-60.418c0-2.3555-1.9102-4.2656-4.2656-4.2656-2.3594 0-4.2695 1.9102-4.2695 4.2656v61.996c-0.003906 0.95703 0.30859 1.8867 0.89844 2.6445z"/>
  <path d="m354.99 340.35c1.1289 0 2.2148-0.44922 3.0156-1.25 0.80078-0.80078 1.25-1.8828 1.25-3.0156v-21.633c0-2.3555-1.9102-4.2656-4.2656-4.2656-2.3594 0-4.2695 1.9102-4.2695 4.2656v21.633c0 2.3555 1.9102 4.2656 4.2695 4.2656z"/>
 </g>
</svg>
