<?xml version="1.0" encoding="UTF-8"?>
<svg width="512pt" height="512pt" version="1.1" viewBox="0 0 512 512" xmlns="http://www.w3.org/2000/svg">
 <path d="m499.08 315.72c0.19922-0.76172 0.28125-1.5586 0.23828-2.3984 0-0.078124-0.039062-0.12109-0.039062-0.19922-0.078125-0.76172-0.28125-1.4805-0.55859-2.1992-0.078125-0.23828-0.19922-0.44141-0.32031-0.64062-0.28125-0.55859-0.64063-1.0781-1.0781-1.5586-0.078124-0.12109-0.16016-0.23828-0.23828-0.35938-0.039062-0.039062-0.12109-0.078125-0.19922-0.12109-0.55859-0.55859-1.1992-1.0391-1.9609-1.3984 0 0-0.12109-0.039062-0.12109-0.078125h-0.039062c-2.1602-1.0391-29.441-13.078-72.641 10.68-3.0391 1.6797-6.1211 3.5195-9.1992 5.4805-0.96094 0.60156-1.9219 1.3203-2.8398 1.9219-2.1211 1.4414-4.2812 2.8398-6.3984 4.3984-1.1602 0.83984-2.2812 1.7617-3.4414 2.6016-1.9609 1.4805-3.9219 2.9609-5.8789 4.5586-1.2383 1-2.4414 2.0781-3.6797 3.1211-1.8789 1.6016-3.8008 3.1992-5.6797 4.9219-0.35938 0.32031-0.71875 0.60156-1.0781 0.96094 16.078-31.879 38.68-70.602 62.961-93l-13.398 32.719c-1.6406 4.0391 0.28125 8.6406 4.3203 10.281 4 1.6406 8.6406-0.28125 10.281-4.3203l23.48-57.359c0.078126-0.19922 0.078126-0.44141 0.16016-0.64062 0.12109-0.35938 0.19922-0.71875 0.28125-1.0781 0.078125-0.44141 0.078125-0.83984 0.078125-1.2812 0-0.19922 0.078125-0.39844 0.039062-0.60156 0-0.16016-0.078125-0.28125-0.12109-0.44141-0.078124-0.44141-0.16016-0.83984-0.32031-1.2383-0.12109-0.35938-0.23828-0.71875-0.39844-1.0391-0.16016-0.35938-0.39844-0.67969-0.60156-1-0.23828-0.32031-0.44141-0.64062-0.71875-0.96094-0.12109-0.12109-0.16016-0.23828-0.28125-0.35938-0.16016-0.16016-0.39844-0.28125-0.60156-0.39844-0.32031-0.23828-0.64063-0.48047-1-0.67969-0.35938-0.19922-0.71875-0.35938-1.0781-0.48047-0.23828-0.078125-0.44141-0.23828-0.67969-0.32031-1.3594-0.35938-34.078-8.9219-79.52 9.3203-5.0781 2.0391-10.121 4.3594-15.078 6.9219-1.6016 0.83984-3.1992 1.8008-4.8008 2.6797-3.3594 1.8398-6.6797 3.6406-10 5.7188-1.9219 1.1992-3.7617 2.5195-5.6797 3.7617-2.9609 1.9609-5.8789 3.9219-8.8008 6.0781-2 1.4805-4 3.0781-6 4.6797-2.7188 2.1211-5.4414 4.3203-8.1211 6.6016-0.67969 0.55859-1.3594 1.0781-2 1.6406 4.5195-6.6406 9.1211-12.961 13.762-18.961 0.12109-0.16016 0.28125-0.35938 0.39844-0.51953 6.1211-7.8398 12.238-15.16 18.199-21.84 0.19922-0.23828 0.39844-0.48047 0.64062-0.71875 5.8398-6.5195 11.52-12.441 16.879-17.801 0.48047-0.48047 1-0.96094 1.4805-1.4805 2.8789-2.8398 5.6797-5.5195 8.3594-8 0.60156-0.55859 1.2383-1.1602 1.8398-1.7188 1.3594-1.2383 2.6406-2.4414 3.9219-3.5586 0.87891-0.76172 1.7188-1.5195 2.5195-2.2383 0.87891-0.80078 1.8008-1.6016 2.6406-2.3203l-3.9609 12.359c-1.3203 4.1602 0.96094 8.6016 5.1211 9.9219 4.1602 1.3594 8.6016-0.96094 9.9219-5.1211l11.879-37.238c0.12109-0.35938 0.12109-0.71875 0.16016-1.0781 0.078125-0.44141 0.19922-0.83984 0.19922-1.2812 0-0.64062-0.12109-1.2812-0.28125-1.8789-0.039062-0.16016-0.039062-0.35938-0.078124-0.51953v-0.039063c-0.23828-0.80078-0.64063-1.5195-1.1211-2.1992-0.28125-0.35937-0.64062-0.64062-0.96094-0.96094-0.23828-0.23828-0.44141-0.55859-0.76172-0.76172-0.64063-0.48047-1.3984-0.87891-2.1602-1.1211-0.19922-0.078124-0.39844-0.039062-0.60156-0.12109-0.60156-0.16016-1.1992-0.28125-1.8398-0.28125h-0.078125c-155.12 0-207.92 109.72-225.6 175.16-1.0391 3.8008-1.9219 7.4805-2.7617 11.078-0.078125 0.35938-0.16016 0.71875-0.23828 1.0781-0.76172 3.3984-1.4414 6.6406-2.0781 9.7617-0.078124 0.48047-0.19922 0.96094-0.28125 1.3984-0.60156 3.0391-1.0781 5.9219-1.5586 8.6406-0.078125 0.48047-0.16016 0.96094-0.23828 1.4414-0.39844 2.6016-0.80078 5.0781-1.0781 7.3984-0.039062 0.19922-0.078124 0.44141-0.078124 0.64062-0.64063-0.83984-1.2812-1.6016-1.9219-2.3984-2.9219-3.8398-5.8398-7.5586-8.8008-11.121-0.87891-1.0781-1.7617-2.1992-2.6797-3.2383-3.7188-4.3984-7.4805-8.6016-11.238-12.602-0.80078-0.87891-1.6406-1.6797-2.4414-2.5195-3.0391-3.1992-6.0781-6.2383-9.1211-9.1602-1.0781-1.0391-2.1992-2.1211-3.2812-3.1211-3.2812-3.0781-6.5586-6.0781-9.8008-8.8789-0.44141-0.35937-0.87891-0.76172-1.2812-1.1602-3.6406-3.1211-7.1602-6-10.641-8.7617-1-0.80078-2-1.5586-3-2.3203-2.6016-2-5.1211-3.8789-7.5586-5.6797-0.92187-0.67969-1.8398-1.3594-2.7617-2-3.0781-2.1992-6.0781-4.2383-8.9219-6.1211-0.76172-0.48047-1.3984-0.92188-2.1211-1.3594-2.1602-1.3984-4.1992-2.7188-6.1602-3.9219-0.39844-0.23828-0.92188-0.60156-1.3203-0.83984 35-3.1602 62.879 4.8789 83.199 24.078 3.1602 3 8.1602 2.8398 11.16-0.32031 3-3.1602 2.8398-8.1602-0.32031-11.16-19.641-18.52-56.398-37.762-119.96-24.602h-0.039062-0.039063c-0.28125 0.039062-0.48047 0.19922-0.71875 0.28125-0.51953 0.16016-1.0781 0.32031-1.5586 0.60156-0.51953 0.32031-0.96094 0.71875-1.3984 1.1211-0.16016 0.16016-0.35938 0.23828-0.51953 0.39844-0.19922 0.19922-0.28125 0.44141-0.44141 0.67969-0.32031 0.44141-0.67969 0.87891-0.92188 1.3984-0.19922 0.44141-0.28125 0.96094-0.39844 1.4414-0.078125 0.32031-0.19922 0.60156-0.23828 0.92188v0.039062c-0.039063 0.48047 0.039062 0.96094 0.078125 1.4414 0.039062 0.35938 0 0.71875 0.078125 1.0391s0.23828 0.60156 0.32031 0.87891c0.16016 0.48047 0.32031 1 0.60156 1.4414 0 0.039062 0.039062 0.078124 0.039062 0.12109 0.19922 0.32031 14.238 23.398 29.039 50.68-28.039-18.121-52.762-17.16-54.441-17.039-3.3203 0.19922-6.1602 2.4414-7.1211 5.6406-0.92188 3.1992 0.23828 6.6406 2.9219 8.6016 18.039 13.199 23.441 41.922 25.078 58.68 0 0.16016-0.078125 0.28125-0.078125 0.48047v51.52c0 4.3594 3.3594 7.8789 7.5586 7.8789h404.76c4.1602 0 7.5586-3.5195 7.5586-7.8789v-50.52c17.801-55.078 26.48-78.52 28.398-81.68 0.078126-0.12109 0.12109-0.28125 0.19922-0.39844 0.35938-0.51953 0.60156-1.1211 0.80078-1.7188-0.11719-0.41797-0.039062-0.61719 0.039063-0.85938zm-25.84 3.043-0.60156 0.60156c-1.7617 1.7188-3.4805 3.5195-5.1602 5.3594-0.48047 0.51953-0.96094 1.0781-1.4414 1.6016-1.5586 1.7617-3.0781 3.5195-4.5586 5.3203-0.28125 0.32031-0.51953 0.64062-0.80078 0.96094-1.7188 2.1602-3.3984 4.3203-5 6.5195-0.32031 0.44141-0.64062 0.92188-1 1.3594-1.3203 1.8008-2.5586 3.6016-3.8008 5.3984-0.35938 0.51953-0.71875 1.0391-1.0781 1.6016-2.9609 4.3984-5.6406 8.8008-8.1211 13.039-0.28125 0.51953-0.55859 1-0.83984 1.4805-1 1.7617-1.9609 3.4805-2.9219 5.1992-0.19922 0.35938-0.39844 0.67969-0.55859 1.0391-1.0781 2-2.0781 3.9609-3.0391 5.8008-0.16016 0.32031-0.32031 0.64062-0.48047 0.96094-0.76172 1.5195-1.4805 3-2.1992 4.3984-0.23828 0.44141-0.44141 0.92188-0.64062 1.3594-0.67969 1.4414-1.3203 2.8008-1.9219 4.0781-0.078125 0.16016-0.16016 0.35938-0.23828 0.51953-0.64063 1.3594-1.1602 2.6016-1.6797 3.7617-0.23828 0.51953-0.44141 1-0.64062 1.4805-0.12109 0.23828-0.23828 0.55859-0.32031 0.76172l-63.477-0.003906c0.12109-0.32031 0.28125-0.64062 0.39844-0.96094 1.6406-2 3.2812-3.8789 4.9219-5.8008 1.0391-1.2383 2.1211-2.5195 3.1602-3.7188 1.6406-1.8398 3.2383-3.5586 4.8789-5.3594 1.1992-1.3203 2.3984-2.6797 3.6406-3.9609 1.5586-1.6406 3.0781-3.1602 4.6406-4.6797 1.2812-1.2812 2.5586-2.6406 3.8398-3.8398 1.5586-1.5195 3.1211-2.9219 4.7188-4.3594 1.2383-1.1211 2.4805-2.3203 3.6797-3.4414 1.7617-1.5586 3.5195-3 5.2812-4.4805 1.0391-0.83984 2.0391-1.7617 3.0781-2.6016 2.1211-1.7188 4.1992-3.2812 6.3203-4.8398 0.67969-0.48047 1.3203-1.0391 2-1.5195 5.5195-4 11.039-7.5195 16.48-10.48 19-10.441 33.961-12.84 43.801-12.762-0.11719 0.046874-0.19922 0.125-0.32031 0.20703zm-17.477 72.52h-12.199c0.35938-0.76172 0.71875-1.5586 1.1211-2.3594 0.23828-0.51953 0.48047-1.0391 0.76172-1.6016 0.55859-1.1602 1.1602-2.3984 1.8008-3.6406 0.28125-0.55859 0.51953-1.0781 0.83984-1.6797 0.71875-1.3984 1.4805-2.8789 2.2812-4.3984 0.23828-0.48047 0.48047-0.92187 0.76172-1.4414 2.1602-4 4.5586-8.2812 7.2383-12.68 0.32031-0.51953 0.67969-1.0781 1.0391-1.6406 1-1.6406 2.0391-3.2812 3.1211-4.9219 0.48047-0.76172 1-1.4805 1.5195-2.2383 1-1.4414 1.9609-2.9219 3-4.3594 0.55859-0.80078 1.1992-1.6016 1.7617-2.3984 0.80078-1.0781 1.6016-2.1211 2.3984-3.1992-3.9258 11.477-8.9688 26.516-15.445 46.559zm-18.84-150.92c-1.3203 1.1992-2.6797 2.3594-4 3.6797-1.6406 1.6406-3.2812 3.3984-4.8789 5.1211-1.2383 1.3203-2.4805 2.5586-3.6797 3.9219-1.8008 2-3.5195 4.1602-5.2812 6.2812-1 1.2383-2.0391 2.3984-3.0391 3.6797-2.1992 2.7617-4.3203 5.6406-6.4414 8.5195-0.51953 0.71875-1.0391 1.3594-1.5586 2.0781-31.441 43.762-55.441 100.36-62.398 117.64h-71.406c0.12109-0.55859 0.19922-1.1211 0.32031-1.6797 0.76172-3.7617 1.6016-7.4805 2.5195-11.238 0.23828-0.96094 0.44141-1.9219 0.67969-2.8398 1.1992-4.6406 2.4805-9.2383 3.9219-13.879 0.44141-1.4414 0.92187-2.8008 1.3594-4.2383 1-3.0781 2.0391-6.1992 3.1602-9.2812 0.71875-2 1.4414-4 2.1992-5.9609 0.87891-2.3594 1.8398-4.6797 2.8008-7.0391 0.67969-1.6406 1.3203-3.2383 2.0391-4.8398 2.2812-3.0781 4.6016-5.9609 6.9219-8.9219 1.3984-1.7617 2.7617-3.6406 4.1602-5.3594 2.3203-2.8008 4.6797-5.4414 7.0391-8.0781 1.6016-1.8398 3.1992-3.7617 4.8398-5.5195 2.2812-2.4805 4.6016-4.7188 6.8789-7.0391 1.7617-1.7617 3.4805-3.6406 5.2383-5.3203 2.3203-2.2383 4.6797-4.2383 7.0391-6.3203 1.8008-1.6016 3.5586-3.2812 5.3594-4.8008 2.4414-2.0391 4.9609-3.9219 7.4414-5.8008 1.7188-1.3203 3.4414-2.8008 5.1992-4.0391 2.6797-1.9609 5.4414-3.6797 8.1602-5.4414 1.6016-1.0391 3.1602-2.1992 4.7617-3.1602 3-1.8398 6-3.4414 9.0391-5.0391 1.3594-0.71875 2.7188-1.6016 4.1211-2.2812 4.3984-2.2383 8.8789-4.2383 13.359-6.0781 19.359-7.7617 36.121-10.121 48.32-10.441-1.4766 1.1562-2.8359 2.4766-4.1953 3.7148zm-48.602-62.719c-30 25.441-86.68 81.68-116.24 163l-1.0781 3c-1.6406 4.6797-3.1992 9.3984-4.6797 14.238-0.64062 2.1602-1.2383 4.3203-1.8789 6.4805-1.0391 3.7188-2.0391 7.4805-2.9609 11.281-0.80078 3.2383-1.4805 6.4805-2.1211 9.7617-0.39844 2-0.92188 3.9219-1.2812 5.9219l-65.281-0.003907c0.039063-0.32031 0.039063-0.64062 0.078125-1 0.039063-0.64062 0.12109-1.3203 0.19922-2.0391 0.039063-0.60156 0.12109-1.1602 0.19922-1.8008 0.12109-1.1602 0.28125-2.4414 0.44141-3.7188 0.039062-0.39844 0.078125-0.80078 0.16016-1.1992 0.16016-1.3594 0.35938-2.8008 0.55859-4.2812 0.078125-0.60156 0.16016-1.2383 0.28125-1.8398 0.19922-1.2812 0.39844-2.5586 0.60156-3.9219 0.12109-0.64062 0.19922-1.2812 0.32031-1.9219 0.32031-1.9609 0.67969-4 1.0781-6.1211 0-0.078124 0.039062-0.12109 0.039062-0.19922 0.39844-2.0781 0.83984-4.1992 1.2812-6.3984 0.12109-0.64062 0.28125-1.3203 0.44141-2 0.35938-1.7188 0.76172-3.4414 1.1992-5.2383 0.16016-0.71875 0.32031-1.3984 0.51953-2.1211 0.60156-2.4414 1.1992-4.8789 1.8789-7.3984 18.883-70 66.641-152.72 186.24-162.48zm-260.44 213.64c-3.3203-5.6797-6.7617-10.879-10.32-15.602-0.039063-0.078126-0.039063-0.19922-0.078125-0.28125-10.48-22.559-24.52-47.961-35.039-66.281 0.44141 0.28125 0.92188 0.60156 1.3984 0.87891 1.8789 1.2383 3.8789 2.5195 5.8789 3.9219 0.87891 0.60156 1.7188 1.1602 2.6406 1.8008 2.8008 1.9609 5.6797 4 8.6406 6.2383 0.12109 0.078125 0.19922 0.16016 0.32031 0.23828 3.0391 2.2812 6.1992 4.8008 9.4414 7.3984 0.96094 0.76172 1.9219 1.5586 2.8398 2.3594 2.4414 2.0391 4.9219 4.1602 7.4414 6.3984 1 0.87891 2 1.7617 3.0391 2.6797 3.3984 3.0781 6.8008 6.2812 10.281 9.7188 0.039063 0.039062 0.078125 0.039062 0.078125 0.078125 3.4414 3.4414 6.9219 7.1211 10.398 10.879 1 1.0781 1.9609 2.1992 2.9609 3.3203 2.6016 2.9219 5.1992 5.9609 7.8008 9.1211 1 1.2383 2.0391 2.4414 3.0391 3.6797 3.3984 4.2383 6.8008 8.6406 10.121 13.238 0.039062 0.078125 0.078125 0.12109 0.16016 0.19922zm-18.398 0h-44.719c-2-15.238-6.2812-32.641-15.16-46.801 16.238 4.6797 39.68 16.598 59.879 46.801zm344.88 51.52h-389.64v-35.719h389.64z" fill="#443f3c"/>
</svg>
