<?xml version="1.0" encoding="UTF-8"?>
<svg width="512pt" height="512pt" version="1.1" viewBox="0 0 512 512" xmlns="http://www.w3.org/2000/svg">
 <path d="m480.9 293-7.6016-49.602c-5.8984-38.801-3.3984-78.398 7.3008-116.1l18.004-63.297h-50.602c-35.301 0-64 28.699-64 64v7.1992c0 30.699-7.8008 60.801-22.5 87.699l-7.5 13.699c-0.60156 1.1016-1.1992 2.3008-1.8008 3.3984l-0.19922 0.003906v0.19922c-7 12.898-13.301 26.199-19.102 39.699l-27.102-135.6c-1.1016-5.5-1-11.102 0.19922-16.5l5.6016-25.301c5.6992-25.5-4.3984-51.898-25.699-67l-30-21.398-30 21.398c-21.199 15.102-31.398 41.5-25.699 67l5.6016 25.301c1.1992 5.3984 1.3008 11.102 0.19922 16.5l-27.102 135.6c-5.6992-13.5-12.102-26.801-19.102-39.699l0.003906-0.19922h-0.10156c-0.60156-1.1016-1.1992-2.3008-1.8008-3.3984l-7.5-13.699c-14.801-26.898-22.5-57-22.5-87.699v-7.2031c0-35.301-28.699-64-64-64h-50.5l18.102 63.301c10.699 37.699 13.199 77.301 7.3008 116.1l-7.6992 49.598c-9.6016 62.199-7.3984 125.7 6.6992 187h-21.801v16h480v-16h-21.898c14.098-61.301 16.398-124.8 6.7969-187zm-351.6-77c2.1992 5 4.6016 9.8008 7.1992 14.602l5.1992 9.3984h-28.699l-2.1992-0.5-9.3984-23.5zm-17.301-88v7.1992c0 22.102 3.6992 44 10.898 64.801h-25.598l-2.1016-0.69922c-4.8008-14.898-7.1992-30.5-7.1992-46.102v-25.199c0-18.398-7.8984-35.801-21.699-47.898 25.598 1.1992 45.699 22.297 45.699 47.898zm-20.301 106.7-34.801-8.6992c0.60156-7.3984 0.89844-14.801 1-22.301l24.801 8.3008c0.5 1.1992 0.89844 2.3984 1.3984 3.6016zm-56.699-153.4c21.699 5.1016 37 24.398 37 46.699v25.199c0 13.5 1.6016 26.898 4.8008 40l-19.398-6.5c-1.1016-21.602-4.6992-43-10.602-63.801zm101 398.7h-81.699c-14.402-60.5-16.902-123.2-7.3008-184.6l7.6016-49.602c0.19922-1.3008 0.39844-2.5 0.5-3.8008l43.898 11.004 9 22.5c18.602 46.301 28.102 95.699 28 145.6zm16 0v-59c0-51.898-9.8984-103.3-29.199-151.5l-5.3984-13.5h32.801c8.8008 17.199 16.5 34.898 23 53l-0.89844 4.5c-8.3008 41.301-8 83.801 0.89844 124.9l8.8984 41.602zm96 0h-49.5l-9.6016-44.898c-8.3984-39-8.6992-79.301-0.80078-118.4l26.301-131.5 33.699 5.6016 0.003906 289.2zm0-305.4-30.5-5.1016 4.3984-22c0.10156-0.69922 0.30078-1.3984 0.39844-2.1016l25.801 5.1992 0.003906 24.004zm0-40.402-25.602-5.1016c-0.19922-1.6016-0.5-3.1992-0.80078-4.8008l-5.5977-25.195c-4.3008-19.199 3.3008-39.102 19.398-50.5l12.699-9 0.003906 94.598zm229-52.898-11.898 41.602c-5.8984 20.801-9.5 42.199-10.602 63.801l-19.398 6.5c3.1992-13.102 4.8008-26.5 4.8008-40l-0.003906-25.203c0.10156-22.301 15.5-41.602 37.102-46.699zm-21.898 144.7-34.801 8.6992 7.6016-19.102c0.5-1.1992 0.89844-2.3984 1.3984-3.6016l24.801-8.3008c0.097657 7.5039 0.39844 14.906 1 22.305zm-55.102-90.801v-7.1992c0-25.602 20.102-46.699 45.699-47.898-13.801 12.098-21.699 29.5-21.699 47.898v25.199c0 15.602-2.3984 31.199-7.1992 46.102l-2.1016 0.69922h-25.602c7.2031-20.801 10.902-42.699 10.902-64.801zm-24.5 95.402c2.6016-4.8008 5-9.6992 7.1992-14.602h27.898l-9.3984 23.5-2.1992 0.5h-28.699zm-111.5-191.1 12.699 9c16 11.398 23.602 31.301 19.398 50.5l-5.6016 25.301c-0.39844 1.6016-0.60156 3.1992-0.80078 4.8008l-25.602 5.1016 0.007812-94.703zm0 111.1 25.801-5.1992c0.10156 0.69922 0.19922 1.3984 0.39844 2.1016l4.3984 22-30.5 5.1016 0.003906-24.004zm59.199 284.5-9.6016 44.898h-49.598v-289.2l33.699-5.6016 26.301 131.4c7.8008 39.199 7.6016 79.5-0.80078 118.5zm36.801 44.898h-30.102l8.8984-41.602c8.8984-41.102 9.1992-83.699 0.89844-124.9l-0.89844-4.5c6.5-18.102 14.199-35.801 23-53h32.801l-5.3984 13.5c-19.301 48.199-29.199 99.602-29.199 151.5zm97.699 0h-81.699v-59c0-49.898 9.5-99.301 28-145.6l9-22.5 43.898-11c0.19922 1.3008 0.30078 2.5 0.5 3.8008l7.6016 49.602c9.6016 61.5 7.1016 124.2-7.3008 184.7z" fill="#443f3c"/>
</svg>
