<?xml version="1.0" encoding="UTF-8"?>
<svg width="512pt" height="512pt" version="1.1" viewBox="0 0 512 512" xmlns="http://www.w3.org/2000/svg">
 <path d="m250.43 41.758c-16.258 44.133-33.27 75.699-51.129 95.164-7.5625 8.2188-7.75 7.9375 3.1172 5.4766 5.293-1.2305 13.988-2.457 19.375-2.8359l9.6406-0.56641v176.06l-2.0781 0.47656c-1.2305 0.28125-12.379 1.9805-24.852 3.7773-20.133 3.0195-22.773 3.2109-23.723 1.8906-0.56641-0.75781-1.3242-5.1055-1.7031-9.6406-0.85156-12.191-4.9102-39.031-8.2227-54.91-7.4648-36.289-21.641-84.957-29.105-100.36-5.3867-10.961-6.332-15.309-3.5938-15.879 0.94531-0.1875 5.9531 1.0391 11.152 2.7461 5.1055 1.6992 9.6367 2.8359 9.9219 2.5508 0.28125-0.28125-1.9883-2.8359-5.0117-5.7656-23.906-22.68-57.078-39.691-90.441-46.402-9.1641-1.875-10.012-1.875-10.012-0.078125 0 0.75391 4.8164 9.168 10.68 18.617 44.605 71.914 70.125 139.49 78.629 208.38 1.2305 9.543 3.2109 39.41 3.3086 47.914v2.7383l8.3164-0.5625c4.5352-0.28516 19.754-2.457 33.742-4.8164 14.078-2.3672 28.539-4.5352 32.129-4.8164 3.6875-0.37891 7.5625-0.75391 8.793-1.0391l2.0781-0.375-0.007812 62.359v62.379h49.141v-124.38l8.6016 0.75391c4.7266 0.47656 19.941 2.6523 33.832 5.0117 26.84 4.4375 41.488 6.2344 42.238 5.0117 0.28516-0.37891 0.85547-9.0742 1.418-19.375 2.4531-50.656 12.094-94.027 32.035-143.93 13.047-32.793 28.164-61.992 50.848-98.566 4.8203-7.6562 8.6953-14.559 8.6953-15.309 0-1.7969-0.85156-1.7969-11.902 0.47266-25.805 5.293-57.363 20.133-77.59 36.48-7.75 6.2344-16.539 14.648-15.883 15.309 0.28516 0.28516 4.6328-0.85156 9.7344-2.5508 15.121-5.1055 16.066-3.7773 8.1289 12.191-3.6875 7.6562-7.1836 16.918-11.434 31.188-14.367 47.914-22.398 85.336-25.898 121.25-0.66016 6.7109-1.6992 12.754-2.2695 13.512-0.85156 1.2305-4.0586 0.94531-23.625-1.9805-12.477-1.8008-23.723-3.5938-25.047-3.875l-2.3594-0.37891 0.28125-87.891 0.1875-87.891h5.9531c6.332 0 19.754 1.9883 27.785 4.0586 4.4375 1.2305 4.8164 1.1367 4.0586-0.1875-0.375-0.85547-1.8906-2.5547-3.3086-3.875-4.2539-3.875-14.176-17.016-20.695-27.406-10.871-17.105-25.801-49.992-36.102-79.195-0.93359-2.6484-1.875-4.918-2.1562-4.918-0.37891 0-2.8359 6.3359-5.6719 13.988z" fill="#443f3c"/>
</svg>
