<?xml version="1.0" encoding="UTF-8"?>
<svg width="512pt" height="512pt" version="1.1" viewBox="0 0 512 512" xmlns="http://www.w3.org/2000/svg">
 <path d="m512 99.098c0-9.1055-7.4102-16.516-16.516-16.516h-0.96875l-6.3281-50.637c-1.1016-8.7969-8.6133-15.43-17.477-15.43-8.8633 0-16.379 6.6328-17.477 15.43l-6.332 50.637h-0.96875c-9.1055 0-16.516 7.4102-16.516 16.516 0 12.246 6.2578 23.34 16.516 29.695v19.852h-16.516v-16.516h-16.516v16.516h-16.516v-16.516h-16.516v16.516h-16.516v-16.516h-16.516v16.516h-33.031v-8.2578c0-6.3398-2.3984-12.129-6.3281-16.516 3.9336-4.3867 6.3281-10.176 6.3281-16.516 0-11.41-7.7539-21.035-18.27-23.902 1.125-2.8281 1.75-5.9062 1.75-9.1289 0-10.766-6.9062-19.945-16.516-23.355v-17.938c0-9.1055-7.4102-16.516-16.516-16.516v-16.516h-16.516v16.516c-9.1055 0-16.516 7.4102-16.516 16.516v17.938c-9.6133 3.4102-16.516 12.59-16.516 23.355 0 3.2227 0.625 6.3047 1.75 9.1328-10.512 2.8633-18.266 12.488-18.266 23.898 0 6.3398 2.3984 12.129 6.3281 16.516-3.9336 4.3867-6.3281 10.176-6.3281 16.516v8.2578h-33.031v-16.516h-16.516v16.516h-16.516v-16.516h-16.516v16.516h-16.52v-16.516h-16.516v16.516h-16.516v-19.855c10.258-6.3516 16.516-17.449 16.516-29.695 0-9.1055-7.4102-16.516-16.516-16.516h-0.96875l-6.3281-50.637c-1.1016-8.793-8.6133-15.426-17.48-15.426-8.8633 0-16.379 6.6328-17.477 15.43l-6.3281 50.637h-0.96875c-9.1055 0-16.516 7.4062-16.516 16.516 0 12.246 6.2578 23.34 16.516 29.695v383.21h478.97v-383.21c10.258-6.3516 16.516-17.445 16.516-29.691zm-42.379-65.105c0.066406-0.54688 0.53516-0.96094 1.0898-0.96094 0.55078 0 1.0195 0.41016 1.0898 0.96094l6.0703 48.59h-14.324zm-23.688 362.39h-16.516v-24.773c0-4.5547 3.7031-8.2578 8.2578-8.2578 4.5547 0 8.2578 3.7031 8.2578 8.2578zm-165.16 99.098h-49.547v-24.773c0-13.66 11.113-24.773 24.773-24.773s24.773 11.113 24.773 24.773zm-24.773-66.066c-22.766 0-41.289 18.523-41.289 41.289v24.773h-16.516v-82.582h115.61v82.582h-16.516v-24.773c-0.003907-22.766-18.527-41.289-41.293-41.289zm8.2578-33.031h-16.516v-24.773c0-4.5547 3.7031-8.2578 8.2578-8.2578s8.2578 3.7031 8.2578 8.2578zm16.516 0v-24.773c0-13.66-11.113-24.773-24.773-24.773s-24.773 11.113-24.773 24.773v24.773h-33.031v-66.066h115.61v66.066zm-231.23-264.26v66.066h-16.516v-66.066zm173.42 0h9.6797c-0.91797 2.5859-1.4219 5.3633-1.4219 8.2578v24.773h-1.4219c-2.4922-7.0273-8.0703-12.602-15.098-15.098l0.003907-9.6758c0-4.5547 3.7031-8.2578 8.2578-8.2578zm74.32 8.2578v9.6797c-7.0273 2.4922-12.602 8.0703-15.098 15.098l-1.418-0.003906v-24.773c0-2.8945-0.50391-5.6719-1.4219-8.2578h9.6797c4.5547 0 8.2578 3.7031 8.2578 8.2578zm181.68 173.42h-16.516v-24.773c0-13.66-11.113-24.773-24.773-24.773-6.3398 0-12.129 2.3984-16.516 6.3281-4.3867-3.9336-10.176-6.3281-16.516-6.3281-6.3398 0-12.129 2.3984-16.516 6.3281-4.3867-3.9336-10.176-6.3281-16.516-6.3281-13.66 0-24.773 11.113-24.773 24.773v24.773h-16.516v-66.066h148.64zm-99.098 0h-16.516v-24.773c0-4.5547 3.7031-8.2578 8.2578-8.2578 4.5547 0 8.2578 3.7031 8.2578 8.2578zm16.516-24.773c0-4.5547 3.7031-8.2578 8.2578-8.2578 4.5547 0 8.2578 3.7031 8.2578 8.2578v24.773h-16.516zm33.031 0c0-4.5547 3.7031-8.2578 8.2578-8.2578 4.5547 0 8.2578 3.7031 8.2578 8.2578v24.773h-16.516zm-346.84 24.773h-16.516v-24.773c0-4.5547 3.7031-8.2578 8.2578-8.2578 4.5547 0 8.2578 3.7031 8.2578 8.2578zm16.516-24.773c0-4.5547 3.7031-8.2578 8.2578-8.2578 4.5547 0 8.2578 3.7031 8.2578 8.2578v24.773h-16.516zm33.031 0c0-4.5547 3.7031-8.2578 8.2578-8.2578 4.5547 0 8.2578 3.7031 8.2578 8.2578v24.773h-16.516zm8.2578-24.773c-6.3398 0-12.129 2.3984-16.516 6.3281-4.3867-3.9336-10.176-6.3281-16.516-6.3281-6.3398 0-12.129 2.3984-16.516 6.3281-4.3867-3.9297-10.176-6.3281-16.516-6.3281-13.66 0-24.773 11.113-24.773 24.773v24.773h-16.52v-66.066h148.64v66.066h-16.516v-24.773c0-13.66-11.113-24.773-24.773-24.773zm-107.36-49.547h16.516v16.516h-16.516zm247.74-33.035v33.031h-49.547v-33.031zm115.61 49.551v-16.516h16.516v16.516zm-82.582 33.031h-33.031v-33.031h33.031zm-181.68-33.031v-16.516h16.516v16.516zm33.031-16.516h16.516v16.516h-16.516zm33.035 16.516h33.031v33.031h-33.031zm66.062 0v33.031h-16.516v-33.031zm66.066-16.516h16.516v16.516h-16.516zm33.031 0h16.516v16.516h-16.516zm-25.859-16.516 17.602-26.406 17.602 26.406zm-23.691 16.516h-16.516v-16.516h16.516zm-99.094 0h-16.516v-16.516h16.516zm-75.41-16.516 17.602-26.406 17.602 26.406zm-23.688 33.031h-16.516v-16.516h16.516zm-33.031 0h-16.516v-16.516h16.516zm115.61 49.547h16.516v33.031h-16.516zm33.031 0h16.516v33.031h-16.516zm33.031 0h16.516v33.031h-16.516zm33.031 0h16.516v33.031h-16.516zm181.68-49.547h-16.516v-16.516h16.516zm-33.035 0h-16.516v-16.516h16.516zm-42.375-33.031 17.602-26.406 17.602 26.406zm-15.43-6.6328-17.602-26.402h35.203zm-57.805-12.387v-5.7578c0-2.8945-0.50391-5.6719-1.4219-8.2578h10.766zm-16.52-5.7578v8.2578h-16.516v-8.2578c0-4.5547 3.7031-8.2578 8.2578-8.2578s8.2578 3.707 8.2578 8.2578zm-49.547-33.031v24.773h-16.516v-24.773c0-4.5547 3.7031-8.2578 8.2578-8.2578s8.2578 3.7031 8.2578 8.2578zm-49.547 33.031v8.2578h-16.516v-8.2578c0-4.5547 3.7031-8.2578 8.2578-8.2578 4.5508 0 8.2578 3.707 8.2578 8.2578zm-33.035 0v5.7578l-9.3438-14.016h10.766c-0.91797 2.5859-1.4219 5.3633-1.4219 8.2578zm-57.805 18.145-17.602-26.402h35.203zm-15.43 6.6328h-35.203l17.602-26.406zm-75.41 132.13h148.64v17.938c-2.5859-0.91797-5.3633-1.4219-8.2578-1.4219-6.3398 0-12.129 2.3984-16.516 6.3281-4.3867-3.9336-10.176-6.3281-16.516-6.3281-6.3398 0-12.129 2.3984-16.516 6.3281-4.3867-3.9336-10.176-6.3281-16.516-6.3281-6.3398 0-12.129 2.3984-16.516 6.3281-4.3867-3.9336-10.176-6.3281-16.516-6.3281-6.3398 0-12.129 2.3984-16.516 6.3281-4.3906-3.9336-10.18-6.3281-16.52-6.3281-2.8945 0-5.6719 0.50391-8.2578 1.4219zm41.293 33.031c4.5547 0 8.2578 3.7031 8.2578 8.2578v24.773h-16.516v-24.773c0-4.5547 3.7031-8.2578 8.2578-8.2578zm24.773 8.2578c0-4.5547 3.7031-8.2578 8.2578-8.2578 4.5547 0 8.2578 3.7031 8.2578 8.2578v24.773h-16.516zm33.031 0c0-4.5547 3.7031-8.2578 8.2578-8.2578 4.5547 0 8.2578 3.7031 8.2578 8.2578v24.773h-16.516zm33.031 0c0-4.5547 3.7031-8.2578 8.2578-8.2578 4.5547 0 8.2578 3.7031 8.2578 8.2578v24.773h-16.516zm165.16 0c0-4.5547 3.7031-8.2578 8.2578-8.2578 4.5547 0 8.2578 3.7031 8.2578 8.2578v24.773h-16.516zm33.031 0c0-4.5547 3.7031-8.2578 8.2578-8.2578 4.5547 0 8.2578 3.7031 8.2578 8.2578v24.773h-16.516zm33.031 0c0-4.5547 3.7031-8.2578 8.2578-8.2578 4.5547 0 8.2578 3.7031 8.2578 8.2578v24.773h-16.516zm57.809-18.445c-4.3867-3.9336-10.176-6.3281-16.516-6.3281-6.3398 0-12.129 2.3984-16.516 6.3281-4.3867-3.9336-10.176-6.3281-16.516-6.3281-6.3398 0-12.129 2.3984-16.516 6.3281-4.3867-3.9336-10.176-6.3281-16.516-6.3281-6.3398 0-12.129 2.3984-16.516 6.3281-4.3867-3.9336-10.176-6.3281-16.516-6.3281-2.8945 0-5.6719 0.50391-8.2578 1.4219l-0.003906-17.938h148.64v17.938c-2.5859-0.91797-5.3633-1.4219-8.2578-1.4219-6.3398 0-12.129 2.3945-16.516 6.3281zm24.773-154.97h-16.516v-66.066h16.516zm-33.035-19.02-9.3438-14.016h9.3438zm-181.68-146.14v16.516h-16.516v-16.516zm-24.773 33.035h33.031c4.5547 0 8.2578 3.7031 8.2578 8.2578 0 4.5547-3.7031 8.2578-8.2578 8.2578h-33.031c-4.5547 0-8.2578-3.7031-8.2578-8.2578 0-4.5547 3.7031-8.2578 8.2578-8.2578zm-16.516 33.031h66.066c4.5547 0 8.2578 3.7031 8.2578 8.2578 0 4.5547-3.7031 8.2578-8.2578 8.2578h-66.066c-4.5547 0-8.2578-3.7031-8.2578-8.2578 0-4.5547 3.7031-8.2578 8.2578-8.2578zm-147.56 66.062-9.3438 14.016v-14.016zm-35.207-131.17c0.066406-0.54688 0.53516-0.96094 1.0859-0.96094 0.55078 0 1.0195 0.41016 1.0898 0.96094l6.0742 48.59h-14.324zm25.863 65.105c0 7.0391-3.9102 13.367-10.207 16.516h-29.137c-6.2969-3.1484-10.207-9.4766-10.207-16.516zm-24.777 264.26c4.5547 0 8.2578 3.7031 8.2578 8.2578v24.773h-16.516v-24.773c0-4.5547 3.707-8.2578 8.2578-8.2578zm-8.2578 49.547h148.64v82.582h-16.516v-41.289c0-13.66-11.113-24.773-24.773-24.773-13.66 0-24.773 11.113-24.773 24.773v41.289h-16.516v-41.289c0-13.66-11.113-24.773-24.773-24.773-13.66 0-24.773 11.113-24.773 24.773v41.289h-16.52zm115.61 82.582h-16.516v-41.289c0-4.5547 3.7031-8.2578 8.2578-8.2578 4.5547 0 8.2578 3.7031 8.2578 8.2578zm-66.062 0h-16.516v-41.289c0-4.5547 3.7031-8.2578 8.2578-8.2578 4.5547 0 8.2578 3.7031 8.2578 8.2578zm297.29 0h-16.516v-41.289c0-4.5547 3.7031-8.2578 8.2578-8.2578 4.5547 0 8.2578 3.7031 8.2578 8.2578zm66.062 0h-16.516v-41.289c0-4.5547 3.7031-8.2578 8.2578-8.2578 4.5547 0 8.2578 3.7031 8.2578 8.2578zm16.52 0v-41.289c0-13.66-11.113-24.773-24.773-24.773-13.66 0-24.773 11.113-24.773 24.773v41.289h-16.516v-41.289c0-13.66-11.113-24.773-24.773-24.773-13.66 0-24.773 11.113-24.773 24.773v41.289h-16.516v-82.582h148.64v82.582zm16.516-99.098h-16.516v-24.773c0-4.5547 3.7031-8.2578 8.2578-8.2578 4.5547 0 8.2578 3.7031 8.2578 8.2578zm16.516-297.29c0 7.0391-3.9102 13.367-10.207 16.516h-29.133c-6.2969-3.1484-10.207-9.4766-10.207-16.516l49.547-0.011718v0.011718z" fill="#443f3c"/>
</svg>
