<?xml version="1.0" encoding="UTF-8"?>
<svg width="512pt" height="512pt" version="1.1" viewBox="0 0 512 512" xmlns="http://www.w3.org/2000/svg">
 <path d="m120.37 271.05c1.7422 0.1875 3.4609-0.52734 4.5586-1.8945 1.0859-1.3555 1.4141-3.168 0.86719-4.8164-1.0234-3.125-2.0469-6.8086-2.9688-10.648 1.0234 1.793 2.0977 3.5312 3.125 5.1211 6.2148 8.9062 10.312 19.117 11.98 29.848 3.6875 30.055-9.2148 62.055-11.777 66.559-10.805 19.762-12.289 37.938-4.3008 52.43 9.7266 17.766 11.727 63.438 11.727 74.699v0.003907c0.007813 1.7109 0.87109 3.3086 2.3047 4.25 4.4141 3.3867 7.2891 8.4023 7.9844 13.926 0.23828 2.6445 2.4648 4.6719 5.1211 4.6602h39.73c2.0586-0.007812 3.9102-1.25 4.7031-3.1484 0.79297-1.8984 0.37109-4.0859-1.0664-5.5547l-24.934-25.602c-7.0156-29.336-14.184-78.746-4.5586-91.496 35.328-32.973 46.078-62.824 49.461-80.027 12.082 16.23 36.402 42.906 66.559 45.211 29.441 2.2539 30.719 6.707 33.074 14.133 0.71094 2.5 1.6016 4.9492 2.6641 7.3203 9.5234 31.027 6.2461 65.793 4.0977 88.781-1.7422 18.895-2.5586 27.547 2.5586 31.336 4.3828 4.2383 7.4258 9.668 8.7539 15.617 0.59766 2.3203 2.7266 3.9141 5.1211 3.8398h41.371-0.003906c2.1875-0.007812 4.125-1.4023 4.832-3.4688 0.70312-2.0703 0.019531-4.3594-1.707-5.6992l-28.109-21.605c0.92188-13.824 5.1211-76.492 8.3984-98.098 1.793-11.98 5.7344-15.82 15.359-25.035v-0.003906c12.68-12.262 24.168-25.703 34.305-40.141 31.488-43.52 11.777-179.66 6.8086-210.33 12.492-0.35938 37.375-2.457 44.902-13.211 2.6289-3.7461 3.1523-8.5781 1.3828-12.801-7.0156-18.891-44.801-32.102-57.293-35.992-0.16797-8.7227 1.8008-17.352 5.7344-25.141 0.91406-1.582 0.91406-3.5352 0-5.1172-1.0508-1.5742-2.8828-2.4414-4.7617-2.2539-12.109 1.8438-22.551 9.4922-27.957 20.48-4.7891-0.56641-9.6172 0.69531-13.516 3.5312-13.723 10.238-15.359 37.684-15.359 40.961l-3.4297 115.2c-15-1.5352-59.137-6.3984-109.67-14.848-60.672-10.238-95.59 10.238-105.93 17.613-7.9492-5.1445-18.016-5.75-26.52-1.5859-13.52 6.5-22.066 23.297-22.066 42.699 0 28.57 25.086 38.863 38.449 40.297zm-11.93-73.832c3.0859-1.4961 6.5508-2.0352 9.9492-1.543 3.3945 0.49609 6.5625 1.9961 9.0977 4.3086 1.8984 1.582 4.6562 1.582 6.5547 0 1.332-1.1758 33.535-28.875 100.71-17.715 62.414 10.238 115.3 15.359 115.81 15.359 1.418 0.13281 2.8281-0.33203 3.8906-1.2812 1.0664-0.93359 1.6953-2.2695 1.7422-3.6875l3.6875-120.98c0-6.6055 2.7656-26.777 11.109-32.973 0.61719-0.45703 1.2852-0.83203 1.9961-1.125-1.4492 3.6602-2.6133 7.4258-3.4805 11.262-0.58203 2.8281 1.2422 5.5898 4.0703 6.1719 2.8281 0.57812 5.5898-1.2422 6.168-4.0703 1.3047-5.5 3.2461-10.824 5.7852-15.875l0.30859-0.5625c2.7461-5.7539 6.9023-10.719 12.082-14.438-2.1914 7.6641-2.9883 15.656-2.3555 23.602 0.23438 2.0664 1.6914 3.7852 3.6875 4.3555 18.379 5.1211 49.305 18.227 54.016 30.719 0.64062 1.0156 0.64062 2.3125 0 3.3281-4.3516 6.2461-26.266 8.9102-40.961 8.9102h-1.332v-0.003906c-1.5195-0.019531-2.9766 0.63672-3.9648 1.793-0.98828 1.1602-1.4141 2.6992-1.1523 4.1992 0.30859 1.6367 28.262 163.84-4.043 208.49h-0.003906c-9.875 13.914-21.051 26.859-33.383 38.652-9.8828 9.6758-15.82 15.359-18.125 30.719-3.6875 24.629-8.5 98.559-8.7031 101.68v0.003906c-0.375 1.7266 0.16797 3.5273 1.4336 4.7617l18.328 14.078h-22.578c-2.0703-6.2617-5.7383-11.875-10.648-16.281-0.44922-7.5547-0.125-15.141 0.97266-22.629 2.2539-23.91 5.6328-60.059-4.6094-93.133-0.066406-0.23047-0.15234-0.45312-0.25391-0.66797-0.90625-2.0195-1.6602-4.1094-2.2539-6.2461-3.8398-12.645-9.2656-18.84-42.086-21.352-37.531-2.8672-66.559-51.918-66.969-52.43v0.003906c-1.207-2.0703-3.6875-3.0234-5.9727-2.3008-2.2812 0.72266-3.7578 2.9336-3.5508 5.3203 0 0.41016 2.5586 40.398-47.77 87.039l-0.51172 0.51172c-16.539 20.48 0.71875 93.695 2.7148 101.99h-0.003906c0.22656 0.89062 0.6875 1.7031 1.332 2.3555l17.355 17.664h-23.395c-1.4961-5.9531-4.7617-11.309-9.3711-15.359-0.25781-11.367-2.0469-57.191-12.953-76.801-6.1953-11.316-4.7109-26.062 4.3516-42.648 10.504-22.754 14.965-47.828 12.953-72.809-1.8164-12.168-6.3867-23.758-13.363-33.895-6.1953-10.238-10.699-17.613-7.7812-29.031 0.42578-1.7148-0.058593-3.5273-1.2891-4.7969-1.2266-1.2734-3.0234-1.8203-4.7539-1.4492-3.4062 0.74219-6.3242 2.9297-7.9883 5.9922-4.8125 8.4492-1.9453 24.422 0.66406 34.664l0.003906-0.003907c-6.2188-1.6523-11.707-5.3359-15.594-10.465-3.8867-5.1328-5.9492-11.41-5.8594-17.848 0-15.719 6.2969-28.672 16.281-33.535z" fill="#443f3c"/>
</svg>
