<?xml version="1.0" encoding="UTF-8"?>
<svg width="512pt" height="512pt" version="1.1" viewBox="0 0 512 512" xmlns="http://www.w3.org/2000/svg">
 <path d="m448 232c4.4258 0 8-3.5742 8-8v-40h16v-16h-68.688l-24.754-24.754 19.84-26.445c1.8242-2.4258 2.1133-5.6641 0.76172-8.375-1.3594-2.7148-4.1289-4.4258-7.1602-4.4258h-32.406c-4.1133-53.609-48.953-96-103.59-96s-99.48 42.391-103.59 96h-32.406c-3.0312 0-5.8008 1.7109-7.1602 4.4258-1.3516 2.7109-1.0625 5.9531 0.76172 8.375l19.832 26.457-24.746 24.742h-68.688v16h16v40c0 4.4258 3.5742 8 8 8h64v176h-16c-4.4258 0-8 3.5742-8 8v40h-16c-4.4258 0-8 3.5742-8 8v32c0 4.4258 3.5742 8 8 8h336c4.4258 0 8-3.5742 8-8v-32c0-4.4258-3.5742-8-8-8h-16v-40c0-4.4258-3.5742-8-8-8h-16v-176zm-192-208c45.824 0 83.535 35.215 87.594 80h-175.19c4.0586-44.785 41.77-80 87.594-80zm120 96-12 16h-216l-12-16zm-228.69 32h217.38l16 16h-249.38zm-75.312 64v-32h368v32zm296 160h-64v-144h64zm-224-144h64v144h-64zm80 0h64v144h-64zm-128 240h120v16h-120zm184 16h-48v-32h48zm136 0h-120v-16h120zm-24-32h-96v-8c0-4.4258-3.5742-8-8-8h-64c-4.4258 0-8 3.5742-8 8v8h-96v-32h272zm-248-48v-16h224v16z" fill="#443f3c"/>
</svg>
