<?xml version="1.0" encoding="UTF-8"?>
<svg width="512pt" height="512pt" version="1.1" viewBox="0 0 512 512" xmlns="http://www.w3.org/2000/svg">
 <path d="m498.69 173.57c-1.0234-1.5352-2.0469-3.0703-4.0977-3.5859l-36.352-10.754 6.1445-12.289c1.0234-1.5352 1.0234-4.0977 0-5.6328-1.0234-2.0469-2.5586-3.0703-4.6094-3.5859l-164.35-37.887 0.003906-43.512c0-22.527-18.434-40.961-40.961-40.961s-40.961 18.434-40.961 40.961v44.547l-163.84 37.371c-2.0469 0.51172-3.5859 1.5352-4.6094 3.5859-1.0234 2.0469-1.0234 4.0977 0 5.6328l6.6562 12.801-34.816 10.238c-1.5352 0.51172-3.0703 1.5352-4.0977 3.5859-1.0234 2.0469-1.0234 3.5859 0 5.1211l8.7031 20.48c1.0234 2.5586 3.5859 4.0977 6.1445 4.0977h1.5352l38.91-11.266 13.824 27.137c1.0234 2.0469 3.5859 3.5859 5.6328 3.5859h1.5352l44.031-9.2148 58.879 59.391v211.46l-73.207-0.007813c-3.5859 0-6.6562 3.0703-6.6562 6.6562 0 3.5859 3.0703 6.6562 6.6562 6.6562h79.871 0.51172 119.81 0.51172 79.871c3.5859 0 6.6562-3.0703 6.6562-6.6562 0-3.5859-3.0703-6.6562-6.6562-6.6562h-74.238v-239.1l45.055-34.816c0.51172 0.51172 1.5352 1.0234 2.5586 1.0234l47.617 9.7266h1.5352c2.5586 0 4.6094-1.5352 5.6328-3.5859l14.336-27.648 40.449 11.777h1.5352c2.5586 0 5.1211-1.5352 6.1445-4.0977l8.7031-20.48c0.51172-0.50781 0.51172-2.5547 0-4.0938zm-466.95 15.363-3.5859-8.1914 29.695-8.7031 3.5859 8.1914zm223.23-160.77c14.848 0 26.625 11.266 27.648 25.602-9.2148-5.1211-19.969-7.6797-30.719-7.6797-8.7031 0-16.895 1.5352-24.574 5.1211 2.5547-12.805 13.82-23.043 27.645-23.043zm-13.824 31.742c3.5859-1.0234 7.168-1.0234 11.266-1.0234 5.6328 0 11.266 1.0234 16.383 2.5586v28.672c0 7.6797-6.1445 13.824-13.824 13.824-7.6797 0-13.824-6.1445-13.824-13.824zm-35.84 225.28 16.383 16.895v181.76h-16.383zm46.59 46.594v152.06h-16.895v-168.96zm30.723 152.06h-18.434v-139.27l18.434 18.434v0.51172zm13.312 0v-108.03l16.383 16.383v91.648zm122.37-275.46-35.328-7.168 45.566-35.328c2.5586-2.0469 3.0703-6.1445 1.0234-9.2148-2.0469-2.5586-6.1445-3.0703-9.2148-1.0234l-95.23 73.727v-68.605c0-3.5859-3.0703-6.6562-6.6562-6.6562-3.5859 0-6.1445 3.0703-6.1445 6.6562v213.5l-79.359-79.875-29.695-29.695-61.953-61.949c-0.51172-1.0234-1.5352-2.0469-2.5586-2.5586l-44.031-44.031c-2.5586-2.5586-6.6562-2.5586-9.2148 0-2.5586 2.5586-2.5586 6.6562 0 9.2148l36.863 36.863-31.23 6.1445-30.719-59.391 161.28-36.863c0.51172 0 1.0234-0.51172 1.5352-0.51172 0 0 0.51172 0 0.51172-0.51172 0.51172-0.51172 1.0234-1.0234 1.5352-1.5352 0 0 0.51172-0.51172 0.51172-1.0234s0.51172-1.0234 0.51172-1.0234v-0.51172-0.51172-39.938c0.51172 0 1.0234-0.51172 1.5352-0.51172v25.602c0 14.336 11.777 26.625 26.625 26.625 14.336 0 26.625-11.777 26.625-26.625v-22.016c0.51172 0.51172 1.0234 0.51172 1.5352 1.0234v36.352 1.0234 0.51172 1.0234s0 0.51172 0.51172 0.51172v0.51172s0 0.51172 0.51172 0.51172c0 0 0 0.51172 0.51172 0.51172l0.51172 0.51172s0.51172 0 0.51172 0.51172c0 0 0.51172 0 0.51172 0.51172 0.51172 0 1.0234 0.51172 1.0234 0.51172h0.51172l161.28 36.863zm61.953-19.453-29.699-8.707 3.5859-8.1914 29.695 8.7031z" fill="#443f3c"/>
</svg>
