<?xml version="1.0" encoding="UTF-8"?>
<svg width="512pt" height="512pt" version="1.1" viewBox="0 0 512 512" xmlns="http://www.w3.org/2000/svg">
 <g fill="#443f3c">
  <path d="m124.05 398.14h-15.199c-3.3125 0-6-2.6875-6-6v-45.223c0-3.3125 2.6875-6 6-6h15.199c3.3164 0 6 2.6875 6 6v45.223c0 3.3125-2.6836 6-6 6zm-9.1992-12h3.1992v-33.223h-3.1992z"/>
  <path d="m124.05 470.67h-15.199c-3.3125 0-6-2.6875-6-6v-28.078c0-3.3164 2.6875-6 6-6h15.199c3.3164 0 6 2.6836 6 6v28.078c0 3.3125-2.6836 6-6 6zm-9.1992-12h3.1992v-16.078h-3.1992z"/>
  <path d="m403.02 398.14h-15.199c-3.3125 0-6-2.6875-6-6v-45.223c0-3.3125 2.6875-6 6-6h15.199c3.3125 0 6 2.6875 6 6v45.223c0 3.3125-2.6875 6-6 6zm-9.1992-12h3.1992v-33.223h-3.1992z"/>
  <path d="m403.02 470.67h-15.199c-3.3125 0-6-2.6875-6-6v-28.078c0-3.3164 2.6875-6 6-6h15.199c3.3125 0 6 2.6836 6 6v28.078c0 3.3125-2.6875 6-6 6zm-9.1992-12h3.1992v-16.078h-3.1992z"/>
  <path d="m55.91 185.24c-3.3125 0-6-2.6836-6-6v-4.3984c0-3.3125 2.6875-6 6-6 3.3164 0 6 2.6875 6 6v4.3984c0 3.3164-2.6836 6-6 6z"/>
  <path d="m124.05 398.14h-15.199c-3.3125 0-6-2.6875-6-6v-45.223c0-3.3125 2.6875-6 6-6h15.199c3.3164 0 6 2.6875 6 6v45.223c0 3.3125-2.6836 6-6 6zm-9.1992-12h3.1992v-33.223h-3.1992z"/>
  <path d="m124.05 470.67h-15.199c-3.3125 0-6-2.6875-6-6v-28.078c0-3.3164 2.6875-6 6-6h15.199c3.3164 0 6 2.6836 6 6v28.078c0 3.3125-2.6836 6-6 6zm-9.1992-12h3.1992v-16.078h-3.1992z"/>
  <path d="m455.96 185.24c-3.3164 0-6-2.6836-6-6v-4.3984c0-3.3125 2.6836-6 6-6 3.3125 0 6 2.6875 6 6v4.3984c0 3.3164-2.6875 6-6 6z"/>
  <path d="m403.02 398.14h-15.199c-3.3125 0-6-2.6875-6-6v-45.223c0-3.3125 2.6875-6 6-6h15.199c3.3125 0 6 2.6875 6 6v45.223c0 3.3125-2.6875 6-6 6zm-9.1992-12h3.1992v-33.223h-3.1992z"/>
  <path d="m403.02 470.67h-15.199c-3.3125 0-6-2.6875-6-6v-28.078c0-3.3164 2.6875-6 6-6h15.199c3.3125 0 6 2.6836 6 6v28.078c0 3.3125-2.6875 6-6 6zm-9.1992-12h3.1992v-16.078h-3.1992z"/>
  <path d="m502.46 496.11h-9.9297v-207.88h1.6875c3.3164 0 6-2.6836 6-6 0-3.3125-2.6836-6-6-6l-10.801-0.070313-2.3984-51.152c2.25-1 3.6602-3.2773 3.543-5.7383-0.11328-2.4609-1.7266-4.5977-4.0625-5.3828l-2.3984-51.035h3.2617-0.003906c2.9023-0.039062 5.3633-2.1484 5.8398-5.0117 0.47656-2.8633-1.1641-5.6562-3.8945-6.6367 5.3789-21.562-8.5391-33.348-17.266-40.68l-1.2852-1.0859 0.003906 0.003906c-1.7852-1.5195-2.8086-3.7461-2.8008-6.0898v-5.3516c0-3.3125-2.6875-6-6-6-3.3164 0-6 2.6875-6 6v5.3438c0.007813 2.3438-1.0156 4.5703-2.8008 6.0898l-1.2812 1.0781c-8.7227 7.332-22.645 19.121-17.27 40.684h0.003906c-2.7344 0.98047-4.375 3.7734-3.8945 6.6406 0.47656 2.8633 2.9375 4.9727 5.8398 5.0078h3.2578l-2.3984 51.434h-0.003906c-1.8594 0.98828-3.0625 2.8828-3.1602 4.9883s0.92188 4.1094 2.6836 5.2656l-2.3984 51.621h-8.3438l-4.8711-56.82h4.9062c2.9023-0.039062 5.3633-2.1484 5.8398-5.0117 0.47656-2.8633-1.1602-5.6562-3.8945-6.6367 5.3789-21.57-8.543-33.352-17.27-40.688l-1.2773-1.0742h0.003906c-1.7852-1.5195-2.8086-3.7461-2.8008-6.0898v-5.3477c0-3.3125-2.6875-6-6-6s-6 2.6875-6 6v5.3477c0.007813 2.3438-1.0156 4.5703-2.8008 6.0938l-1.2773 1.0703c-8.75 7.3359-22.652 19.117-17.273 40.688-2.7344 0.98047-4.375 3.7734-3.8945 6.6367 0.47656 2.8633 2.9375 4.9727 5.8398 5.0117h4.9062l-4.8555 56.828h-22.199c-1.457-5.7773-2.3477-11.684-2.6602-17.637-0.23438-3.4766 0.28906-6.9688 1.5352-10.223 10.715-28.719 10.727-55.086-0.027344-78.441-16.547-35.945-54.801-55.637-76.676-64.32-4.5547-1.8203-7.5312-6.2383-7.5078-11.141v-9.1992c0-3.3125-2.6875-6-6-6-3.3164 0-6 2.6875-6 6v9.1992c0.015625 4.8984-2.9609 9.3086-7.5039 11.125-21.863 8.6836-60.129 28.375-76.68 64.32-10.754 23.355-10.738 49.719-0.027344 78.441h-0.003906c1.25 3.2539 1.7773 6.7422 1.543 10.223-0.31641 5.9492-1.207 11.855-2.6602 17.637h-22.207l-4.8516-56.812h4.9102c2.9023-0.039062 5.3594-2.1484 5.8359-5.0117 0.48047-2.8633-1.1602-5.6562-3.8945-6.6367 5.3789-21.57-8.543-33.352-17.27-40.688l-1.2773-1.0703h0.003907c-1.7812-1.5234-2.8086-3.75-2.8008-6.0938v-5.3477c0-3.3125-2.6836-6-6-6-3.3125 0-6 2.6875-6 6v5.3477c0.011718 2.3438-1.0156 4.5703-2.7969 6.0898l-1.2773 1.0742c-8.7266 7.3359-22.648 19.117-17.27 40.688-2.7305 0.98047-4.3711 3.7734-3.8945 6.6367 0.48047 2.8633 2.9375 4.9727 5.8398 5.0117h4.9062l-4.8633 56.859h-8.3438l-2.3984-51.414c2.0156-1.0938 3.2266-3.2422 3.1172-5.5312-0.10547-2.2891-1.5156-4.3164-3.6211-5.2148l-2.3984-51.199h3.2617-0.003906c2.9023-0.035156 5.3633-2.1445 5.8398-5.0117 0.48047-2.8633-1.1602-5.6562-3.8906-6.6367 5.3789-21.543-8.543-33.332-17.262-40.664l-1.2812-1.0781c-1.7812-1.5195-2.8086-3.7461-2.7969-6.0898v-5.3516c0-3.3125-2.6875-6-6-6-3.3164 0-6 2.6875-6 6v5.3438c0.003906 2.3438-1.0195 4.5703-2.8008 6.0898l-1.2852 1.0859c-8.7344 7.3359-22.637 19.121-17.277 40.68-2.7305 0.98047-4.3711 3.7773-3.8945 6.6406 0.48047 2.8633 2.9414 4.9727 5.8438 5.0078h3.2617l-2.3984 51.199h-0.003906c-2.0977 0.90234-3.5 2.9258-3.6055 5.207-0.10938 2.2812 1.0977 4.4258 3.1016 5.5234l-2.3984 51.453h-10.801v-0.003907c-3.3125 0-6 2.6875-6 6 0 3.3164 2.6875 6 6 6h1.6875v207.88l-9.9375 0.003907c-3.3125 0-6 2.6836-6 6 0 3.3125 2.6875 6 6 6h493.05c3.3125 0 6-2.6875 6-6 0-3.3164-2.6875-6-6-6zm-448.91-376.4c0.80078-0.68359 1.6016-1.3516 2.3633-2 0.75781 0.65625 1.5469 1.3203 2.3633 2 8.8242 7.4141 17.934 15.07 12.652 31.145h-30.031c-5.293-16.051 3.8242-23.723 12.652-31.145zm15.426 105.84 2.3711 50.656-30.859 0.019531 2.3672-50.676zm-25.559-12 2.3672-50.691h20.266l2.3516 50.691zm6.0586 282.56-18.129 0.003906v-182.17h18.129zm31.012 0-19.012 0.003906v-182.17h19.012zm0-194.17-49.141 0.003906v-13.711l49.141-0.070313zm34.207-125.76c0.80078-0.68359 1.6016-1.3516 2.3594-2 0.75781 0.65234 1.543 1.3164 2.3594 2 8.8281 7.4141 17.938 15.07 12.656 31.148l-30.031 0.003906c-5.2773-16.074 3.8281-23.73 12.656-31.148zm15.645 100.06-26.57 0.003906 4.8359-56.914h16.898zm11.199 219.86-49.051 0.007813v-73.812h49.059zm0-85.812-49.051 0.007813v-84.754h49.059zm0-96.754-7.3203 0.007813v-7.6016 0.003906c0-3.3164-2.6836-6-6-6-3.3125 0-6 2.6836-6 6v7.6016l-11.535-0.003906v-7.6016 0.003906c0-3.3164-2.6875-6-6-6s-6 2.6836-6 6v7.6016l-6.1953-0.003906v-25.383h49.059zm35.117-138.66c17.465-37.926 63.035-56.078 79.285-61.512 16.254 5.4141 61.824 23.602 79.289 61.512 9.6016 20.855 9.1992 44.801-1.0742 71.199h-156.43c-10.293-26.398-10.676-50.344-1.0742-71.199zm13.09 93.707-0.003907 0.003906c3.3164 0 6-2.6875 6-6v-4.4961h4.5469v4.4961h0.003906c0 3.3125 2.6836 6 6 6 3.3125 0 6-2.6875 6-6v-4.4961h4.5469v4.4961c0 3.3125 2.6875 6 6 6s6-2.6875 6-6v-4.4961h4.5508v4.4961c0 3.3125 2.6875 6 6 6 3.3164 0 6-2.6875 6-6v-4.4961h4.5469v4.4961h0.003906c0 3.3125 2.6836 6 6 6 3.3125 0 6-2.6875 6-6v-4.4961h4.5508v4.4961c0 3.3125 2.6875 6 6 6s6-2.6875 6-6v-4.4961h4.5469v4.4961c0 3.3125 2.6875 6 6 6 3.3164 0 6-2.6875 6-6v-4.4961h4.5664v4.4961c0 3.3125 2.6836 6 6 6 3.3125 0 6-2.6875 6-6v-4.4961h4.5508v4.4961c0 3.3125 2.6875 6 6 6s6-2.6875 6-6v-4.4961h4.3594c0.17969 6.0742 0.90625 12.121 2.1719 18.066h-157.48c1.2656-5.9453 1.9922-11.992 2.1719-18.066h4.3594v4.4961c0 1.5898 0.63672 3.1172 1.7617 4.2422s2.6562 1.7578 4.2461 1.7578zm19.16 227.48h-23.777v-73.766h23.777zm82.074 0h-70.078v-76.613c0-27.199 11.785-47.379 35.035-60.051 23.254 12.668 35.039 32.859 35.039 60.051zm35.773 0h-23.773v-73.766h23.773zm0-85.77-24.219 0.003906c-2.5312-28.086-16.879-49.098-42.852-62.5-2.3477-1.2148-5.1328-1.2148-7.4805 0-25.977 13.402-40.332 34.422-42.855 62.504h-24.219v-73.645h141.62zm31.504 85.812-19.508 0.003906v-165.45c0-3.3125-2.6836-6-6-6h-9.6875v-7.582c0-3.3125-2.6836-6-6-6-3.3125 0-6 2.6875-6 6v7.5781l-18.375 0.003906v-7.582c0-3.3125-2.6875-6-6-6s-6 2.6875-6 6v7.5781l-18.621 0.003906v-7.582c0-3.3125-2.6836-6-6-6-3.3125 0-6 2.6875-6 6v7.5781l-18.625 0.003906v-7.582c0-3.3125-2.6875-6-6-6-3.3164 0-6 2.6875-6 6v7.5781l-18.637 0.003906v-7.582c0-3.3125-2.6875-6-6-6-3.3164 0-6 2.6875-6 6v7.5781l-9.6758 0.003906c-3.3164 0-6 2.6875-6 6v165.45h-19.504v-207.95h204.63zm34.211-319.93c0.80078-0.68359 1.6016-1.3516 2.3594-2 0.75391 0.65234 1.543 1.3164 2.3594 2 8.8281 7.4141 17.938 15.07 12.656 31.148l-30.031 0.003906c-5.2812-16.074 3.8281-23.73 12.656-31.148zm15.602 99.977-26.465 0.003906 4.7773-56.828h16.898zm11.344 219.95-49.078 0.003906v-73.812h49.059zm0-85.812-49.078 0.003906v-84.754h49.059zm0-96.754-6.2109 0.003907v-7.6016 0.003906c0-3.3164-2.6836-6-6-6-3.3125 0-6 2.6836-6 6v7.6016l-11.539-0.003906v-7.6016 0.003906c0-3.3164-2.6875-6-6-6s-6 2.6836-6 6v7.6016l-7.3281-0.003906v-25.383h49.059zm23.508-88h26.125l2.3633 50.617h-30.852zm25.562-12h-25.004l2.3711-50.691h20.262zm-14.879-93.832c0.80078-0.6875 1.6016-1.3516 2.3633-2 0.75781 0.65625 1.5469 1.3242 2.3633 2 8.8281 7.4219 17.934 15.07 12.652 31.145h-30.035c-5.2773-16.051 3.8281-23.727 12.656-31.145zm-3.1992 376.4h-19.012l-0.003906-182.16h19.012zm30.129 0-18.133 0.003906v-182.17h18.129zm0-194.17-49.141 0.003906v-13.781l49.141 0.070313z"/>
 </g>
</svg>
