<?xml version="1.0" encoding="UTF-8"?>
<svg width="512pt" height="512pt" version="1.1" viewBox="0 0 512 512" xmlns="http://www.w3.org/2000/svg">
 <g fill="#443f3c">
  <path d="m368.24 308.68c-0.36328-0.5625-9.3125-16.68-22.984-12.68h-0.027344c-11.348 0-16.52 9.6406-17.586 14.367-0.75391 2.1953-1.0898 4.0938-1.2109 6.4258-0.035157 0.19531-0.10938 0.19531-0.10156 0.40234 0 0.085938 0.042969 0.054688 0.050781 0.13281-0.066406 3.4258 0.45703 6.957 1.7266 10.773 2.2695 7.2969 8.3438 11.684 17.113 11.684 0.92188 0 1.8633 0.21484 2.8164 0.21484h0.14062c0.042969 0 0.074219-0.42188 0.12109-0.42188 5.8594-0.625 11.887-3.0703 14.137-5.6836 2.6875-3.125 5.7852-7.6445 5.8242-14.145 0.007813-1.1055 0.17188-2.2461 0.32813-3.3438 0.31641-2.207 0.66797-4.3594 0.0625-7.1016-0.082032-0.34766-0.21875-0.32813-0.41016-0.625zm-5.3555 2.0547c0.070313 0.46875 0.039063 0.95703 0.035157 1.4375-3.1562-0.14062-7.8477 0.035156-13.484 0.37891-0.32812-4.6445-0.625-8.9258-0.82031-11.828 7.457 1.2305 12.941 8.1641 14.27 10.012zm-20.258-9.707c0.19531 2.9219 0.49609 7.2344 0.82422 11.914-1.8516 0.13281-3.7422 0.26953-5.6992 0.41406-1.8438 0.13672-3.5156 0.26172-4.9414 0.35938 0.16797-0.82031 0.32422-1.6445 0.59766-2.457 0.019531-0.085937 1.9414-8.0508 9.2188-10.23zm-8.8047 25.191c-0.75391-2.2695-1.1562-4.3984-1.3359-6.4648 1.5938-0.10547 3.5195-0.24609 5.707-0.41016 1.707-0.125 3.6445-0.26953 5.6758-0.41406 0.39453 5.6445 0.77344 11.059 0.99219 14.402-5.8594-0.10156-9.5898-2.4531-11.039-7.1133zm24.062 3.5664c-0.60937 0.70703-3.3906 2.0977-7.0508 2.9219-0.22266-3.3867-0.58984-8.6562-0.97656-14.172 4.875-0.29688 9.5781-0.5 12.488-0.40625-0.039062 0.48828-0.085938 0.97266-0.089844 1.4844-0.023437 3.6445-1.2891 6.5898-4.3711 10.172z"/>
  <path d="m89.984 338.59c-6.6484 0.64453-13.457 3.0547-19.84 7.8438-3.957 2.9727-7.6953 6.7109-11.121 11.113-2.0977 2.707-3.293 6.2578-3.8359 9.3633-8.0977 0.085938-16.852 0.30469-26.629 0.69141-3.6484 0.12891-7.1445-0.15625-10.859-0.46875l-2.3672-0.19922c-1.293-0.066407-2.5586 0.67578-3.0391 1.9141-0.47656 1.2422-0.078125 2.6523 0.98047 3.457 4.4258 3.3789 12.004 9.4844 13.52 11.488 5.8359 7.7383 8.2852 17.113 7.4766 28.672-0.09375 1.3242-0.26953 2.6953-0.44531 4.0859-0.68359 5.375-1.4531 11.438 1.8906 16.922l-0.90234 47.664c-7.3398 0.15625-12.48 0.31641-13.992 0.47266-1.6484 0.17188-2.8438 1.6484-2.6719 3.293 0.17187 1.6484 1.6445 2.8516 3.2969 2.6758 4.4023-0.45703 47.766-1 64.09-1.207l7.0508-0.089844c8.2188-0.125 30.758-0.17969 34.672-0.1875 12.332 0.011718 24.824 0.40234 36.934 0.8125 11.816 0.40625 23.941 0.82031 36.043 0.82031 3.5273 0 7.0547-0.039062 10.57-0.11719 1.6758-0.039063 4.3086-0.30078 7.0938-0.57422 2.5703-0.25391 6.4688-0.57031 7.0195-0.61719 0.30469 0.097657 0.64062 0.085938 0.9375 0.14453 0.37109-0.003906 4.1016 0.69922 8.8906 0.63672 0.11328 0.015626 0.20312 0.80078 0.32031 0.80078h0.097656c0.15625 0 0.29297-0.78906 0.44141-0.8125 7.2188-0.10156 16.473-0.64453 20.609-0.95703 19.711-1.4922 99.734-3.3008 114.34-2.793 3.4453 0.125 6.9062 0.35938 10.348 0.35938 0.011718 0 0.019531 0.20312 0.03125 0.20312h0.14844c3.8047 0 7.5859-0.32812 11.301-0.38281 6.7109-0.085937 13.656-0.32812 20.445-0.10547 4.9414 0.16406 9.875-0.28125 14.652-0.63672 5.2383-0.38672 10.664-0.83594 15.945-0.5 4.6523 0.27344 17.824-0.31641 28.406-0.78906 6.5195-0.29297 12.16-0.59375 13.961-0.52344 1.4922 0.12891 3.0234-1.293 3.0508-2.9531 0.027344-1.6562-1.293-3.0234-2.9492-3.0508-1.9922-0.011719-7.293 0.19922-14.039 0.5-0.32812-8.5-1.5469-32.633-5.1094-45.66 3.5312-4.6719 6.8906-9.4805 7.0625-13.055 0.72266-14.641 3.3594-26.012 13.863-33.922 4.7812-3.5977 8.668-8.2969 11.879-14.359 0.55469-1.0469 0.44141-2.3203-0.28906-3.2539-0.72656-0.93359-1.9375-1.3633-3.0898-1.0625l-0.34375 0.085937c-6.0195-1.0078-28.906-0.98047-43.246-0.76562-0.16016-8.1797-4.8633-14.086-14.465-17.938-6.4688-2.5977-12.734-3.3945-18.488-2.5352-0.0625-2-0.14844-4.0938-0.24609-6.3125-0.3125-6.8555-0.65625-14.578-0.042968-20.129 5.4219-4.2148 14.379-14.672 15.469-15.949 1-1.1797 0.94531-2.9219-0.13281-4.0352-1.0742-1.1094-2.8203-1.2188-4.0234-0.25391-3.6992 2.9492-5.7188 2.4922-7.7852 0.78125-0.56641-0.46875-1.1406-0.80469-1.707-1.0703 0.14453-1.3477 0.24609-2.7344 0.074219-4.0273-0.28125-2.1172-0.24219-4.332-0.20312-6.6797 0.078125-4.5625 0.12891-9.6836-2.4336-14.508 1.2656-2.6367 1.8789-7.1445-0.63672-9.6523-5.9883-5.957-13.312-12.711-22.258-17.625-1.4453-0.79297-2.9766-0.61719-4.0859-0.5-2.5039 0.27734-4.7031 0.085938-7.0352 0.10547-4.5391 0.039063-9.2344 0.078125-13.82-0.085937l-7.5039-0.23047c-8.9805-0.26562-19.898-0.59375-27.781-1.125-0.042968-1.4531-0.085937-2.6641-0.11719-3.3047-0.42969-8.0117-1.0703-16.906-1.6953-25.578-0.29297-4.0352-0.57031-7.9688-0.83203-11.793 4.1367-0.085938 6.707-0.14844 7.4141-0.21484 1.6523-0.14844 2.8672-1.6055 2.7227-3.2539-0.14453-1.6484-1.6367-2.8594-3.2539-2.7227-0.78906 0.070313-6.5586 0.18359-11.652 0.28516-2.168 0.042968-4.2734 0.085937-6.1953 0.12891 0-2.8867 0-6.207-0.015626-8.5117-0.019531-3.8281-0.007812-7.6523 0-11.48 0.023438-9.7852 0.050782-19.906-0.44531-29.895-0.14062-2.7773-1.0703-4.8125-2.4297-7.0117-2.1055-3.4102-5.3203-4.5859-7.9023-5.5312-1.1836-0.43359-2.3047-0.83984-3.1875-1.4023-0.50781-0.32422-1.0938-0.57422-1.668-0.84375-0.52734-9.3945-4.1953-18.668-10.293-25.707-7.8594-9.0664-18.473-13.629-26.836-16.59-0.60938-0.21484-1.1992-0.45313-1.7852-0.6875-0.78906-0.31641-1.6094-0.64063-2.4648-0.92188-0.125-1.5977-0.24609-3.3242-0.31641-4.6719-0.1875-3.875-2.3242-7.2812-5.707-9.1094-3.2734-1.7695-7.1445-1.7031-10.352 0.17578-3.9922 2.3359-4.1055 6.332-4.1758 8.9805-0.019531 0.73438-0.03125 1.4648-0.14844 2.1602 0 0.015625-0.12891 0.86328-0.17578 1.9375-3 0.89453-6.0859 1.668-9.1055 2.3906-7.6328 1.8281-15.523 3.7188-22.703 8.1562-10.477 6.4805-19.285 20.02-22.301 34-3.8047 2.4336-8.2461 5.8711-10 7.8945-5.9492 6.8945-5.5039 15.723-5.1797 22.164 0.29688 5.9023 0.28516 11.934 0.27344 17.77-0.003907 4.1094-0.011719 8.2188 0.078125 12.328 0.027344 1.2461-0.11719 2.9414-0.24609 4.6055-0.042969 0.5625-0.085938 1.0977-0.12109 1.6406-3.6914 0.13672-7.5469 0.33594-10.691 0.50391-2.3164 0.12109-4.168 0.22266-5.125 0.24609-1.6562 0.046874-2.9648 1.457-2.9141 3.1133 0.050781 1.6367 1.3828 2.957 3.0039 2.957h0.085937c0.98828 0 2.8945-0.16016 5.2812-0.28516 0.64453-0.035156 1.3594-0.085938 2.0859-0.125 0.019531 2.7344 0.085937 5.5352 0.17578 8.5039 0.23438 7.457 0.48047 15.16-0.41406 21.57-0.14063 0.99609-0.20313 1.9453-0.23047 2.8906-9.2695-0.66406-19.516 0.67969-28.555 2.0508-4.4336 0.66797-9.1211 0.79688-13.652 0.91406-1.3711 0.039063-2.7422 0.074219-4.1094 0.12891-3.8711 0.14062-7.8359 0.89844-10.609 5.4102-1.7891 2.9062-4.4336 5.543-6.9883 7.9961-3.0508 2.9336-5.5 6.1992-7.3906 9.7422-0.046875 0.070313-0.11719 0.11328-0.16016 0.19141-0.050781 0.097657-0.046875 0.20312-0.089844 0.30078-2.625 5.0898-4.1016 10.754-4.332 16.992-0.089844 2.4219-0.41016 5.125-0.72266 7.7383-0.14453 1.2031-0.24609 2.3555-0.37109 3.5273-1.3359 0.43359-2.957 1.1875-5.0078 2.5508-1.4062 0.93359-2.5703 0.31641-2.7891 0.18359-2.6875-1.6484-5.5039-2.2461-7.9883-2.7734-0.66797-0.14453-1.3398-0.28516-2.0117-0.44922-1.457-0.34766-2.9609 0.42578-3.5078 1.8281-0.54297 1.4023 0.03125 2.9922 1.3516 3.7148l18.852 10.332c1.2031 0.85547 2.043 1.8398 2.5664 3.0859 0.007812 0.027344 0.015625 0.054688 0.027344 0.085938 0.039062 0.11719 0.085937 0.23047 0.13672 0.33984 0.42969 1.2305 0.57812 2.7031 0.49609 4.5117l-0.45703 10.098c-0.21875 4.7031-0.4375 9.7305-0.62109 13.531zm-16.238 12.641c6.0742-4.5586 12.598-6.8203 18.855-7.0234 0.027344 0 0.054688-0.20312 0.085938-0.20312h0.16016c0.054688 0 0.10547 0.19531 0.16016 0.19141 9.5117-0.19922 18.379 3.9492 24.039 10.027 1.5781 1.7031 2.9102 6.5469 3.9805 10.395 0.3125 1.125 0.62109 2.2305 0.93359 3.2656-14.488-0.15625-29.805-0.43359-46.438-0.86328-4.5391-0.10938-9.2578-0.15234-14.188-0.14844 0.50781-2.207 1.3555-4.2578 2.4336-5.6484 3.0859-3.9766 6.4453-7.3398 9.9766-9.9922zm-4.793 83.539 0.63281 0.035156c0.023437 2.4414-0.10156 6.0625-0.30469 10.176-4.4805 0.035157-10.59-0.007812-16.562-0.050781-4.1055-0.03125-8.0586-0.0625-11.207-0.0625l0.17969-9.6289c8.707-1.3359 18.496-0.92188 27.262-0.46875zm228.07-45.039c-5.7734 4.668-11.629 9.5039-16.543 14.93-0.14844 0.16016-0.53516 0.59766-1.5469-0.11328-1.7891-1.2422-3.6406-2.0586-5.5156-2.6133 0.33594-3.375 0.097657-7.293-0.14453-11.121-0.13281-2.0742-0.24219-4.0469-0.26562-5.7852 7.8945-0.25781 15.918 1.293 24.016 4.7031zm162.64 37.508c0.3125 0.53125 0.61328 1.3555 0.90625 2.3047 0.023438 0.20313 0.11719 0.39063 0.18359 0.58594 0.54688 1.9141 1.0664 4.4688 1.5547 7.4297-4.4375 0.5625-8.7773 0.54297-13.32 0.48828-3.0586-0.046875-6.2227-0.015625-9.457 0.14453-0.12109-2.7461-0.55859-5.668-1.2695-8.4648 0.92188-0.19531 1.8242-0.39062 2.5039-0.55469 2.5703-0.60938 5.2578-0.66016 8.1016-0.71875 3.4805-0.066407 7.0703-0.13672 10.797-1.2148zm-20.367 16.973c3.2539-0.1875 6.4844-0.21094 9.6211-0.16406 4.6133 0.054687 9.3477 0.070312 14.266-0.55469 0.53125 4.0664 1 8.4922 1.3984 12.906-2.2461 0-4.4766 0.003907-6.8008-0.011719-6.4492-0.054687-13.051-0.085937-19.328 0.29297 0.28516-5.1797 0.61719-9.8477 0.84375-12.469zm9.457-21.754c-3.0352 0.058594-6.1758 0.12109-9.375 0.87891-0.80469 0.19141-1.9141 0.42578-3 0.65625-1.0391-2.7148-2.1602-5.2461-3.3516-7.5859 4.332-2.4062 9.1602-4.7695 13.887-7.0703 1.6016-0.77734 3.1562-1.5391 4.6758-2.2891 2.8555 4.5625 4.3711 9.7227 5.543 14.609-2.6992 0.65234-5.4727 0.74219-8.3789 0.80078zm-4.4609-18.512c-4.8281 2.3477-9.7656 4.7656-14.246 7.2617-0.16016-0.24609-0.30859-0.52344-0.47266-0.76172-1.1289-1.6719-2.4375-3-3.8359-4.1289 1.1484-2.1992 2.5703-4.2734 3.8984-5.6211l1.4805-1.4648c2.9609-2.9062 5.7344-5.7539 7.5547-8.4375 4.8594 3.5391 7.7773 7.8945 9.7344 11.141-1.3477 0.66406-2.7148 1.332-4.1133 2.0117zm-17.383-9-1.5508 1.5391c-1.8711 1.8945-3.4844 4.3789-4.7148 6.6758-1.4141-0.68359-2.832-1.2812-4.1992-1.8438-1.1055-0.45312-2.207-0.90625-3.2891-1.4023-1.0547-0.48828-2.3047-0.77344-3.6133-0.97266-0.26172-2.8164-0.14844-6.2227-0.019531-9.5664 0.0625-1.6602 0.10937-3.2383 0.125-4.7539 1.0742 0.054687 2.1992 0.10547 3.5469 0.125 8.6523-0.66406 15.211 0.71484 20.281 3.0391-1.75 2.4336-4.7461 5.375-6.5664 7.1602zm-23.266-10.566c-0.007812 1.4961-0.046875 3.0781-0.11328 4.7695-0.125 3.3125-0.24219 6.6953-0.015625 9.7539-2.3438 0.28125-4.6797 0.86328-6.8125 1.7227-0.19141-0.22656-0.37891-0.45703-0.57422-0.68359-0.99219-1.1562-1.9844-2.3047-2.8398-3.5547-1.6133-2.3594-2.8789-4.1758-4.1055-5.5703 1.0273-0.73828 2.0156-1.3672 2.9883-1.9727 1.0195-0.64062 1.9883-1.2461 2.9023-1.9141 2.75-2.0312 5.3711-2.5312 8.5703-2.5508zm-20.09 9.3203c0.80859 0.24609 2.9141 3.3398 4.7812 6.0664 0.98047 1.4375 2.0859 2.7266 3.1523 3.9727-0.089843 0.085937-0.20312 0.14453-0.28906 0.22656-0.5 0.48437-0.98047 1.0039-1.457 1.5234-1.0664 1.1641-1.8555 1.9141-2.7148 2.332-0.19531-0.027344-0.39453-0.011718-0.59375-0.007812-2.9336-2.543-7.0977-6.5-9.9727-9.2695 0.14453-0.14844 0.28906-0.29687 0.42969-0.44922 0.1875-0.20703 0.36719-0.42578 0.57812-0.58594 2.3594-1.707 5.3281-3.8945 6.0859-3.8086zm-11.051 54.305-0.51562-3.8359 2.6797-0.11719c-0.09375 1.4766-0.17188 2.8203-0.23047 3.9531zm2.6172-9.9727-5.3281 0.22266c-0.078125-0.22266-0.16016-0.44531-0.23438-0.66797-0.76562-2.1562-1.4883-4.1914-1.5273-6.3516-0.011719-0.83594-0.10156-1.625-0.23047-2.3945 2.4727-0.84375 5.5977-1.293 8.4648-1.2227-0.48438 3.4023-0.85938 7.0234-1.1445 10.414zm-3.1211 38.492c-0.36328-6.4336-0.78125-14.105-0.11328-20.52h4.3711c1.0156 5.7109 1.1914 10.492 1.3555 16.176 0.046875 1.6445 0.10938 3.3906 0.17969 5.1953-1.9219-0.019532-3.8438-0.03125-5.7578-0.089844zm9.3828-65.168c-0.27734 0.46484-0.51953 0.92188-0.73828 1.3711-0.23438 0.48438-0.51562 1.0781-0.98438 1.8477-0.94141 1.3906-1.7227 3.957-2.3789 7.0898-3.8789-0.23047-8.1016 0.33594-11.57 1.5547-1.3867-2.3984-3.2227-4.4727-5.0977-6.3711 1.9922-2.4062 4.0234-4.875 6.0742-7.3789 1.8555-2.2656 3.6992-4.5039 5.5117-6.6992 2.5703 2.4766 6.2031 5.9336 9.1836 8.5859zm-19.336-5.6914c-1.9961 2.4336-3.9727 4.8398-5.9102 7.1836-1.0078-0.60547-2.0898-1.0859-3.1562-1.5273-0.90234-0.37891-1.7148-0.76562-2.4492-1.1836 0.51562-4.1719 1.7383-8.5039 2.9688-12.719 0.47656-1.6289 0.89844-3.2422 1.332-4.8555 2.3242 0.12891 4.0898 0.33984 4.7578 0.57422 3.0781 1.8047 5.7852 3.5625 8.1797 5.5742-1.8789 2.2734-3.7891 4.5977-5.7227 6.9531zm-14.305-9.9258c-1.2773 4.3711-2.5898 8.8672-3.1758 13.422-1.2227 0.11719-1.7891-0.49219-2.6016-1.9141-1.9531-3.4297-4.7305-7.0273-7.4141-10.512-0.45703-0.58984-0.85156-1.125-1.2891-1.6992 2.6289-1.8398 9.3516-2.5039 15.387-2.5898-0.30859 1.0977-0.58594 2.1875-0.90625 3.293zm-21.016 2.8984c0.49219-0.13281 0.9375-0.30469 1.3711-0.47656 0.56641 0.74609 1.0977 1.4609 1.6953 2.2383 2.4805 3.2148 5.0195 6.5273 6.7656 9.5156-1.9688 0.83594-3.7266 1.9375-5.1836 3.043-0.78125-1.1875-1.7773-2.3047-2.8047-3.3711-1.8281-1.8945-4.0547-4.293-6.0977-6.4805l-0.56641-0.60937c0.92969-1.4492 2.4844-3.2383 4.8203-3.8594zm-20.141 55.266c0.23437-0.042969 0.47266-0.039063 0.70312-0.11719 0.95313-0.32812 2.2812-0.34766 3.5742-0.36719 0.25391-0.003906 0.48438-0.046874 0.72656-0.074218 0.074218 3.6055 0.16016 7.5156 0.24609 11.449 0.10156 4.5352 0.19922 9.0469 0.28125 13.078-1.625 0.035156-3.2422 0.074218-4.8594 0.11328-0.46875-7.3555-0.82422-16.5-0.67187-24.082zm5.8789-7.4297c-0.085938 0.078125-0.15625 0.16016-0.23047 0.24609-0.48438 0.44922-0.97266 0.69141-1.4727 0.69922-1.5625 0.023438-3.3203 0.050782-5.0469 0.57031-1.0703-0.76172-2.3086-3.3594-3.4414-6.4453 4.0859-0.73828 8.8242-0.99219 12.938-0.69922-0.87891 2.7461-1.7969 4.6016-2.7461 5.6289zm4.7734-13.195c-0.12109 0.3125-0.28516 0.93359-0.46094 1.668-5.1367-0.48828-11.23-0.17969-16.359 0.83594-0.91406-3.2188-1.5625-6.1211-1.6523-7.3164 0.011719-0.19922-0.015625-0.37891-0.007813-0.57813 2.4805-0.64062 5.3125-0.89062 8.0859-1.1211 2.0742-0.17578 4.1055-0.34766 5.9688-0.66406 2.1992-0.36328 5.0156-0.023437 7.3242 0.76172-1.5508 3.1992-2.875 6.3594-2.8984 6.4141zm0.47266-26.488 0.375 0.40625c2.0625 2.2148 4.3203 4.6367 6.168 6.5547 2.4219 2.5117 2.5898 3.2734 2.5859 3.4453-0.007813 0.22656-0.30859 1.0039-2.9062 3.3281-0.25781 0.23047-0.55078 0.59375-0.85938 1.0352-3.4492-1.4023-7.6914-1.9805-11.262-1.3711-1.707 0.28906-3.5625 0.4375-5.4648 0.59766-2.8828 0.24219-5.8359 0.5-8.6562 1.1758-0.71484-1.7852-1.7031-3.375-2.7852-4.8086 2.1016-1.4141 4.3555-2.7578 6.8008-4.1016 2.8164-1.5508 5.7188-3.1484 8.293-5.0039 0.085938 0.015625 0.16797 0.035156 0.24219 0.050781 2.7148 0.51953 5.2656 0.035156 7.4688-1.3086zm-18.895 1.0039c-2.6797 1.4766-5.3555 3.0664-7.8711 4.8242-1.3242-1.3203-3.0938-2.7969-5.4531-4.5117 4.6289-4.9922 10.203-9.5938 15.711-14.043 2.2812 2.8477 4.2891 5.8398 5.0664 9.2227-2.2383 1.5898-4.7578 3.0234-7.4531 4.5078zm-31.812-22.211c0.035156 1.7617 0.14844 3.6445 0.26953 5.6094 0.20703 3.3203 0.43359 6.9688 0.1875 9.8398-3.1445-0.10938-6.2695 0.23438-9.2148 0.58594-1.1094 0.13281-2.1875 0.25781-3.2383 0.35938-0.19141-0.60938-0.46875-1.2461-0.875-1.9414-1.4492-2.4375-3.0703-5.8086-4.4727-8.7695 0.88281-0.4375 1.7656-0.875 2.668-1.2891 4.8242-2.2266 9.7227-3.6406 14.676-4.3945zm-23.48 8.4453c0.23437-0.085938 0.44531-0.19141 0.67187-0.28125 1.4688 3.1016 3.1758 6.6641 4.7773 9.3516 0.19531 0.32812 0.28906 0.53906 0.33984 0.60156-0.066406 0.074219-0.17969 0.19531-0.375 0.36328-3.1875 1.3398-5.7812 3.2461-7.9648 5.4961-1.0078-0.69531-1.9375-1.3828-2.6914-2.332-1.6094-2.0039-3.6094-3.0781-5.3828-4.0234 2.8203-4.4688 6.3477-7.6094 10.625-9.1758zm-12.637 44.305c-1.0195 0-2.0781-0.007813-3.168-0.015625-4.1523-0.035156-8.707-0.054688-12.707 0.24219-0.12109-1.4219-0.25391-2.9141-0.40234-4.4961-0.050781-0.53516-0.10156-1.043-0.14453-1.5156 3.3203-0.98438 9.0664-1.4297 17.16-1.3164-0.36328 2.4141-0.59766 4.7969-0.73828 7.1016zm-15.512 6.2188c3.7695-0.28906 8.2305-0.27344 12.297-0.23438 1.0352 0.007812 2.0391 0.011719 3.0117 0.015625-0.015625 2.7344 0.046875 5.2031 0.10938 7.2305-2.6836-0.18359-5.2812-0.011719-8.3438 0.87891-2.1523 0.63672-4.1758 0.33594-5.5273-0.78906-1.2148-1.0117-1.7852-2.5977-1.5977-4.4727 0.066406-0.69141 0.074219-1.6016 0.050781-2.6289zm10.211 13.387c2.1328-0.47266 2.4141-0.52344 6.4141-0.29297v0.007813c0 0.32422 0.066406 0.82031 0.097656 0.82031-0.63281 4.0859-0.42969 10.094-0.10938 15.902 0.12109 2.1992 0.16797 4.2852 0.21875 6.1289-2.8984 0.035156-5.0273 0.050781-5.8594 0.058594zm7.2383-32.68c-9.668-0.17969-16.395 0.35547-20.328 1.668-0.19922-0.070313-0.69141-0.49609-1.293-1.0039-0.47266-0.40234-0.91406-1.0391-1.0586-1.5234-0.66406-2.2734-1.7734-4.1055-3.0273-5.7539 1.3516-0.96094 3.0898-1.8477 4.4102-2.5039l0.55859-0.27734c1.3086-0.65625 2.7383-1.1758 4.2617-1.7305 3.8281-1.3867 8.1367-2.9492 11.094-7.1641 0.83203 0.55859 1.7148 1.0352 2.6055 1.5078 1.457 0.77734 2.7148 1.4492 3.5586 2.5 1.1602 1.4531 2.4492 2.4844 3.6797 3.3477-2.043 3.3281-3.4727 7.0664-4.4609 10.934zm-18.523-16.762c-1.6172 0.58594-3.2891 1.1914-4.9023 2.0039l-0.53516 0.26562c-1.7969 0.89062-4.0039 2.0352-5.875 3.5-0.67578-0.58984-1.3555-1.1758-2.0195-1.7266-1.0547-0.875-2.1172-1.7539-3.125-2.6953-0.42578-0.39844-0.85547-0.67969-1.2852-1.0312 0.32812-0.78516 0.76172-1.6172 1.1562-2.3516l0.53516-1.0039c0.95703-1.8711 2.4141-3.8945 3.9648-6.0391 1.5938-2.2031 3.1992-4.4688 4.4609-6.8047 1.0469 0.57031 2.1016 1.1562 3.1641 1.7539l1.8398 1.0312c2.6211 1.457 5.3555 4.5352 8 7.5117 0.57422 0.64844 1.1406 1.2812 1.6992 1.8945-1.8438 1.7539-4.3047 2.6836-7.0781 3.6914zm-16.953-12.59c-1.6133 2.2344-3.2812 4.5391-4.4414 6.8125l-0.48047 0.89844c-0.33203 0.61719-0.68359 1.3008-1.0195 2.0117-0.53906-0.22656-1.0859-0.40234-1.625-0.57422-0.058594-4.7344-1.5977-9.9688-2.9961-14.68-0.14844-0.49219-0.28516-0.96094-0.42578-1.4414 5.3086-1.8125 10.156-0.95703 14.91 1.0469-1.0625 1.9375-2.4961 3.9531-3.9219 5.9258zm-17.035-6.3047c0.22656 0.80078 0.47656 1.6289 0.72656 2.4805 1.1758 3.9609 2.4336 8.3125 2.6836 12-2.1133-0.027344-4.1641 0.19531-6.0977 0.57812-0.20312-0.72656-0.42578-1.5195-0.66797-2.3867-1.2383-4.4492-2.3242-8.2539-3.2344-10.945 2.2227-0.77344 4.3945-1.457 6.5898-1.7266zm-12.238 3.7305c0.97266 2.9102 2.2461 7.4766 3.1055 10.551 0.21875 0.79297 0.42578 1.5156 0.61719 2.1992-0.26172 0.058594-0.51172 0.14453-0.78125 0.19141-2.9883 0.51172-5.2852 1.7891-7.1914 3.3867-2.4023-3.457-4.8164-6.8516-6.6367-9.1758 3.543-3.457 6.9727-5.7148 10.887-7.1523zm-15.223 11.328c2.1211 2.7656 5.043 6.9727 6.7891 9.4922-0.28125 0.35937-0.5625 0.72266-0.83594 1.0742-0.74219 0.96484-1.4961 1.9414-2.3008 2.8555-0.85547 0.97656-1.5938 2.1602-2.2461 3.457-2.6914-0.55469-5.5-0.27344-7.8867-0.007812-1.0859 0.12109-2.1328 0.24609-3.0859 0.26172-1.1953 0.019532-2.5352-0.023437-3.9297-0.070312-2.5078-0.085938-5.2344-0.16016-7.7969 0.089844-0.0625-0.29297-0.10938-0.56641-0.18359-0.87109-0.1875-0.74609-0.4375-1.4062-0.65625-2.1094 4.4805-2.5859 10.676-8.1289 12.512-10.703 0.14453-0.050781 0.36328-0.125 0.58984-0.125h0.070313 0.097656 0.046875c3.7891 0 6.5859-1.4883 8.8164-3.3438zm-2.9609 38.09c0.16406 1.2109-0.30078 2.4609-1.2656 3.4219-0.94531 0.94141-2.1953 1.3945-3.3789 1.2461-2.5273-0.34375-4.7539-0.57812-6.6016 0.19141-2.0664-0.79688-4.168-1.4883-6.5234-1.7539-0.59375-0.066406-0.875-0.26562-0.85547-0.38672 0.13281-0.64844 0.21094-1.2852 0.28906-1.9258 2.6523-0.066406 5.4688-0.37891 8.2422-0.71875 3.4883-0.42187 7.0469-0.84766 10.09-0.71484-0.007813 0.30859-0.007813 0.55469 0.003906 0.64062zm-9.0391 13.238 0.070313-0.78125c0.10938-1.1797 0.21875-1.8086 0.30859-2.1367 0.56641 0.011719 1.543 0.10547 2.3398 0.19141 0.28516 2.9844 0.10938 6.168-0.097656 9.5117-0.20312 3.3125-0.41406 6.7344-0.12109 10.02 0.17578 1.9844 0.26563 4.5 0.35156 6.8672 0.007813 0.22656 0.015625 0.4375 0.023437 0.66406-1.3711-0.03125-2.7617-0.03125-4.1367-0.058593-0.17969-7.8047 0.55859-16.48 1.2617-24.277zm-1.6953-28.27c1.5078 0.050781 2.9453 0.097656 4.2461 0.074218 1.125-0.023437 2.3555-0.15234 3.6367-0.29687 1.7539-0.19141 3.5156-0.35156 5.0586-0.21094-0.85547 3.0391-1.4023 6.1797-1.7344 8.8438-3.5898-0.18359-7.4922 0.27734-11.301 0.74609-2.6133 0.32031-5.1055 0.61328-7.3438 0.69141-0.007812-0.35156-0.015625-0.70703-0.027344-1.0547-0.078125-2.375-0.15625-4.6172 0.17969-6.7461 0.10547-0.68359 0.17188-1.3398 0.21484-1.9883 2.1836-0.21875 4.7383-0.14063 7.0703-0.058594zm-0.78906-23.082c-1.2188 2-6.832 6.6289-9.9414 8.6562-1.5781-2.832-3.5977-5.043-6.0117-6.7227 1.4414-3.4961 3.3789-7.3594 5.2695-10.895 4.5547 2.2031 8.8047 4.4336 11.633 7.9062-0.35938 0.30859-0.69141 0.64844-0.94922 1.0547zm-21.367-0.66797c-1.7344-0.53906-3.5703-0.94922-5.6055-1.1133-2.1094-0.16797-4.1094-0.19141-6.0586-0.14844-0.26172-3.4336-0.46875-8.7656 0.21094-13.305 5.4922 0.43359 11.094 1.5039 16.672 3.7734-1.8516 3.4766-3.7383 7.2578-5.2188 10.793zm-17.641-0.73828c-3.7891 0.58594-7.2812 1.6484-10.512 3.2266-0.46094-0.85938-0.93359-1.7539-1.4102-2.6641-1.7695-3.3555-3.7188-7.0352-5.8594-10.129 3.7695-2.8086 8.375-4.4062 13.543-4.5039 1.4609-0.03125 2.9414-0.03125 4.4297-0.015625-0.66406 4.9531-0.48047 10.359-0.19141 14.086zm-22.605-5.9961c1.8906 2.7656 3.7188 6.207 5.375 9.3516 0.53516 1.0156 1.0547 2.0039 1.5703 2.9531-1.3633 0.98438-2.6992 2.0391-3.9805 3.2422-0.82812 0.78125-1.5391 1.5977-2.168 2.4336-1.4062-1.1992-3.0273-2.2852-4.7773-2.4805-2.4141-0.27734-5.0352-1.9688-7.5703-3.6055-0.30469-0.19531-0.58594-0.35156-0.88281-0.53906 2.1641-3.0508 6.3281-6.8516 12.434-11.355zm-35.367 53.633c3.1562 0 7.1367 0.03125 11.281 0.0625 4.4375 0.03125 8.9648 0.066407 12.855 0.066407 1.2109 0 2.3516-0.003907 3.4219-0.011719-0.19141 3.2695-0.40625 6.5938-0.61719 9.6953-3.3125 0.20703-6.9023 0.28906-10.414 0.35938-3.7539 0.078125-7.4727 0.15625-10.84 0.38672-1.8438 0.12109-4.1094 0.085937-5.8789-0.21094zm17.734-33.562c0.77734-1.1172 1.543-2.2734 2.2695-3.4727 0.1875 0.12109 0.36328 0.21484 0.55469 0.33984 2.9688 1.9141 6.332 4.0898 10.125 4.5195 0.55859 0.125 1.5859 1.0234 2.4336 1.832-0.31641 0.69922-0.62109 1.3906-0.90234 2.0586-0.78906 1.8438-1.5312 3.5859-2.5703 5.1719-0.29297 0.44531-0.65625 1.0039-0.95703 1.0664l-0.80859-0.042968c-4.9648-0.25781-10.262-0.52734-15.566-0.48438 0.40625-2.0586 1.6016-4.5117 2.4336-6.1953 0.78125-1.6094 1.8516-3.1562 2.9883-4.793zm-18.043 49.957c1.3867 0.17578 2.7656 0.23047 3.9141 0.23047 1.1016 0 1.9922-0.046875 2.4883-0.085937 3.2773-0.22266 6.8984-0.29688 10.555-0.37109 3.3203-0.070312 6.6602-0.17969 9.8789-0.35938-0.019531 0.28516-0.039062 0.59375-0.058593 0.87109-0.375 5.4336-0.69531 10.031-0.84766 13.066-9.5859 0.12891-18.641 0.26562-26.195 0.40625zm86 12.836c-3.7578 0.007812-26.344 0.066406-34.586 0.1875l-7.0352 0.089844c-4.1484 0.050781-8.3164 0.10547-12.434 0.16016 0.16016-2.9922 0.47266-7.5234 0.82422-12.566 1.3867-20.035 2.0234-31.375 1.5742-36.047 0.22266-0.30859 0.45312-0.62109 0.65234-0.92578 1.3047-1.9883 2.1836-4.0547 3.0391-6.0547 1.2305-2.8828 2.3945-5.6094 4.7148-7.793 7.1055-6.6836 15.465-9.2422 27.086-8.3086 8.0273 0.64453 12.406 4.7031 14.645 13.574 0.625 2.4648 0.72656 4.2031 0.38281 6.4219-0.42578 2.6914-0.33594 5.3281-0.24609 7.8789 0.089844 2.6562 0.17188 5.1641-0.3125 7.5703-0.35156 1.7461-0.003906 3.4492 0.97266 4.7969 1.1016 1.5156 2.9062 2.4883 5.0898 2.7383 1.2695 0.14453 2.4961 0.5 3.7344 0.92969-0.10156 0.62109-0.17188 1.2617-0.23047 1.9141l-0.070313 0.78125c-0.71484 7.8867-1.457 16.66-1.2852 24.742-2.1797-0.023438-4.3359-0.089844-6.5156-0.089844zm90.227 0.96875c-2.5664 0.25391-5.1289 0.51172-6.6406 0.54688-15.41 0.35938-31.102-0.17969-46.273-0.69922-4.8164-0.16406-9.7305-0.30859-14.652-0.44531-0.011719-0.34375-0.027343-0.67578-0.039062-1.0273-0.089844-2.4766-0.1875-5.1016-0.37109-7.1836-0.25391-2.832-0.066406-5.8828 0.13281-9.1172 0.21484-3.4688 0.41016-7.0234 0.074218-10.516 1.2031-0.51562 2.3438-1.2227 3.3281-2.2031 2.3008-2.2969 3.3828-5.3789 2.9922-8.3008-0.070313-1.9453 1.1289-15.5 5.1562-20.078 0.89062-1.0117 1.7148-2.0859 2.5391-3.1406 2.6172-3.3867 4.6836-6.0625 8.4844-6.7148 1.043-0.18359 2.0312-0.45703 3.0195-0.73438l1.2461-0.34375c6.6484-1.7305 12.152-1.8555 17.43 3.1016 1.0977 1.0312 2.2539 1.9922 3.4023 2.9492 3.293 2.7266 6.1328 5.0859 7.2461 8.9141 0.46875 1.6133 1.5742 3.2695 3.2148 4.6562 0.21094 0.17969 0.46875 0.39063 0.74219 0.60938 0.070312 0.89453 0.17187 2.0117 0.29297 3.2852 0.36719 3.9141 0.92578 9.832 0.71484 11.969-0.37891 3.8594 0.98438 7.3828 3.7305 9.6719 1.7578 1.4609 3.9297 2.2578 6.2695 2.4297l0.83984 22.098c-0.84375 0.078126-1.7773 0.16406-2.8789 0.27344zm38.453-1.1797c-3.4805 0.26563-10.984 0.43359-17.617 0.53906-0.050781-1.9531-0.16797-4.1133-0.29297-6.3828-0.28906-5.2461-0.62109-11.191-0.085937-14.645 0.24609-1.5586-0.30469-2.9414-0.70312-3.957-0.070313-0.17969-0.13672-0.36328-0.19922-0.54297 0-0.88672-0.027344-1.9414-0.066406-3.2266-0.32422-10.738-1.0859-35.887 14.805-42.219 0.26953-0.10547 0.51562-0.24609 0.74219-0.42578 0.26953-0.21094 0.66797-0.53516 1.0781-0.94531 1.8438-0.10547 3.707-0.29297 5.5273-0.51172 6.0703-0.71484 11.801-1.3945 16.547 1.9062 0.96875 0.66797 2.1211 1.0625 3.3086 1.2656 1.9492 1.3125 6.3047 4.3008 8.4609 6.6641 3.3906 3.7227 5.7734 6.6641 5.5117 10.668-0.11328 1.707 2.9531 17.074 7.8828 23.188-0.30078 8.1289 0.066406 18.59 0.58984 26.871-19.508 0.50781-37.465 1.1484-45.488 1.7539zm62.359-2.1484c-0.078126-4.0312-0.17969-8.543-0.28125-13.078-0.11719-5.2383-0.23047-10.445-0.31641-14.906 2.8438-3.6953 4.1445-9.3125 4.9062-12.648 0.17578-0.76172 0.30078-1.3555 0.40625-1.6562 0.77734-2.0039 2.6016-5.8672 3.8789-8.3242 0 0 0.003906-0.003906 0.007812-0.007813 0.003906-0.007812 0.003906-0.019531 0.011719-0.027343 0.53516-1.0273 0.98438-1.8281 1.1992-2.0938 1.4648-1.3086 2.8477-2.7188 3.7891-4.2812 0.25391-0.28516 4.832-5.3047 9.8125-6.0312 0.90625 0.33984 1.8203 0.48437 2.7109 0.48437 0.84766 0 1.6641-0.13672 2.4453-0.31641 1.3008 0.87109 2.7031 1.4648 3.9844 2.0039 1.2344 0.51563 2.5117 1.0508 3.1094 1.6484l1.1289 1.1211c3.625 3.5859 7.0469 6.9688 7.1289 11.715 0.054688 3.1367 0.98047 5.7383 1.8711 8.2539 0.074219 0.21484 0.14453 0.4375 0.21875 0.65234-0.33203 0.6875-0.53906 1.4375-0.43359 2.2461l1.3555 10.043c0.10938 0.78906 0.48438 1.457 0.96875 2.0234-0.83984 7.0977-0.39453 15.383-0.003906 22.297l0.015625 0.3125c-9.7695-0.085937-28.414 0.15625-47.914 0.57031zm108.91-0.91016c-4.832 0.35938-9.3828 0.71484-14.012 0.54297-6.9336-0.22656-13.945-0.12891-20.719-0.035157-2.8008 0.039063-5.6523 0.0625-8.5 0.078125-0.078125-1.8867-0.14062-3.7031-0.1875-5.4062-0.17578-6.1133-0.40234-11.605-1.7148-18.355 0.21484-0.48047 0.34766-1.0039 0.35937-1.5625 0.16797-7.9023 2.0273-29.695 3.8086-32.746 0.12891-0.15234 0.24219-0.3125 0.34766-0.48438 0.6875-1.1172 1.1016-1.9609 1.4336-2.6523 0.39844-0.82422 0.39844-0.82422 0.84766-1.1211 0.80078-0.52344 1.293-1.3047 1.5625-2.1445 1.6445-0.96094 2.8867-2.2891 3.9023-3.3984 0.39844-0.42969 0.79297-0.86328 1.207-1.2695 3.1211-3.0273 11.547-4.6367 15.273-2.9102 1.1562 0.53125 2.3359 1.0156 3.5156 1.5039 4.2773 1.7578 7.9688 3.2773 10.434 6.9297 2.6484 3.9297 5.0234 8.8594 7.0625 14.656 1.5078 4.2852 2.2422 9.7148 1.8242 13.504-0.21484 1.9766-0.76953 9.2227-1.1602 17.004-0.125 0.37891-0.18359 0.78516-0.14453 1.207 0.007813 0.09375 0.054687 0.16797 0.074219 0.25781-0.27734 5.9023-0.44531 11.91-0.28906 16.062-1.6484 0.10156-3.2969 0.21875-4.9258 0.33984zm16.762-0.47656c-1.957-0.11719-3.9023-0.125-5.8359-0.09375-0.12891-3.4023-0.015625-8.3867 0.20312-13.547 6.2695-0.40625 13.004-0.38281 19.574-0.32422 2.4961 0.015626 4.9453 0.027344 7.3477 0.023438 0.37891 4.9883 0.65234 9.668 0.79297 13.414-9.0586 0.40234-18.512 0.76563-22.082 0.52734zm47.988-106.45c-2.2383 3.3125-4.7891 6.0312-7.7148 8.2344-13.098 9.8633-15.547 24.293-16.246 38.422-0.054687 1.0898-1.3047 3.3711-3.6914 6.7617-0.20312-0.3125-0.41406-0.58984-0.63672-0.83203-1.4453-6.2852-3.3203-13.895-7.9805-20.406-0.32812-0.46094-0.70703-1.1133-1.1719-1.9062-4.1602-7.0352-13.891-23.555-41.305-21.414-1.5664-0.03125-3.0391-0.11719-4.4375-0.19922-5.8477-0.33594-11.379-0.65625-17.074 3.5312-0.79688 0.58594-1.6406 1.1094-2.5273 1.6641-1.6562 1.0352-3.5078 2.2227-5.5469 3.9609-2.7383 0.066406-5.4062 1.9805-9.5039 4.9492-0.53516 0.39062-1.0117 0.87891-1.4727 1.3789l-0.42969 0.33984c-2.8398-2.4492-5.957-4.3906-9.4141-6.4141-3.3242-1.9453-26.027-2.6758-32.879 2.207l-0.77344 0.55859c-1.332 0.96875-2.3789 1.7344-3.7891 2.1133-3.4062 0.90625-6.332 3.1992-8.4609 6.6289-1.6094 2.5898-3.3945 2.9023-4.5117 2.8398-1.2148-5.7969-4.2148-10.305-8.2148-14.332v-0.003907c0-0.007812-0.027344-0.007812-0.03125-0.011718-0.19531-0.23047-0.40234-0.46875-0.59766-0.69531l-1.3711-1.6133c-0.29297-0.35156-0.66797-0.62891-1.0859-0.81641-7.8008-3.4922-18.41-6.5508-30.523-5.6758-0.011719 0-0.027344-0.011718-0.039063-0.011718-0.14844-0.011719-0.28125 0.039062-0.42578 0.046875-6.3594 0.51172-13.121 2.0977-20.113 5.3164-0.99609 0.45703-1.9688 0.94141-2.9453 1.4258-1.832 0.91016-3.5625 1.7656-5.4141 2.4531-5.7578 2.1094-10.629 6.3984-14.211 12.434-0.41406-0.003906-0.83203 0.027344-1.2266 0.10156-0.011719 0.003906-0.019531 0.011718-0.035156 0.015624-0.59766-0.65234-1.1992-1.3281-1.8203-2.0234-2.9805-3.3516-6.0586-6.8164-9.5703-8.7695l-1.8164-1.0195c-8.3828-4.707-17.863-10.035-29.246-5.6289-0.16406-0.007812-0.3125 0.019532-0.47266 0.011719-0.125-0.019531-0.25781 0.015625-0.38672 0.011719-4.4961-0.070313-8.4453 1.2461-12.246 2.5898-0.99609 0.35156-2 0.70703-3.0156 1.0352-7.8242 2.5039-12.926 7.2461-16.496 11.098-2.0078 2.168-3.625 3.2422-5.4609 3.6133-3.8516-6.1055-10.363-9.293-16.195-12.102l-1.5352-0.74219c-11.277-5.4844-22.859-6.0195-32.711-5.8633-7.3477 0.14062-13.926 2.6328-18.941 7.1445-0.14844 0.11328-0.46094 0.33594-0.90234 0.65234-6.2031 4.4336-14.691 11.008-17.52 17.184-0.007812 0.019531-0.027343 0.027343-0.035156 0.046875-0.007813 0.019531-0.007813 0.039062-0.015625 0.058594-0.027344 0.058593-0.074219 0.12109-0.10156 0.18359-0.79297 1.8398-2.0078 3.5977-3.3008 5.4609-1.2109 1.7461-2.4609 3.5508-3.5859 5.832-1.1523 2.332-2.7109 5.5352-3.0039 8.793-2.4727 0.15625-4.9102 0.41406-7.3008 0.80078-1.5977-3.5078-1.0781-7.6523-0.52344-12.008 0.19141-1.5039 0.375-2.9883 0.47656-4.4219 0.91406-13.062-1.9258-23.762-8.6719-32.707-1.1641-1.543-4.0781-4.125-7.0352-6.5742 1.3984 0.042969 2.8203 0.050782 4.2539-0.011718 18.375-0.71484 33.172-0.89844 46.57-0.55859 18.344 0.47266 35.051 0.76562 50.855 0.91406 0.011719 0 0.023438 0.007813 0.035157 0.007813s0.023437-0.007813 0.039062-0.007813c3.3516 0.027344 6.7148 0.0625 9.9922 0.078126 2.7578-0.039063 5.1055-0.26172 7.5234-0.52734 0.21484-0.023438 0.42188-0.039063 0.63672-0.0625 0.125 0.019531 0.24219 0.070312 0.36719 0.070312 0.18359 0 0.37109-0.019531 0.55469-0.058594 0.12109-0.023437 0.21094-0.09375 0.32422-0.13281 2.0469-0.20312 4.0586-0.36719 6.0898-0.30078 8.8047 0.35547 24.441-0.22656 38.234-0.72656 10.293-0.36719 21.953-0.79297 23.703-0.47266 0.17188 0.03125 0.35156 0.046875 0.52734 0.046875 0 0 18.273 0.039063 19.625 0.039063 6.9961 0 14.16 0.28125 21.078 0.58594 9.4219 0.41406 19.168 0.84375 28.82 0.41406 0.45703-0.015626 1.4219-0.11328 2.6328-0.23828 2.2578-0.23438 6.9453-0.72656 8.4258-0.51562 2.9844 0.43359 10.992 0.24609 21.516-0.13281 2.3125-0.085938 4.7031-0.17578 7.2383-0.27344 6.332-0.24609 12.301-0.50391 14.848-0.44531 5.707 0.089843 11.484-0.18359 17.062-0.43359 3.5664-0.16406 7.1367-0.32812 10.707-0.40234 0.88281-0.019531 4.3672-0.12891 8.9531-0.26562 2.2578-0.070312 4.9492-0.15234 7.7812-0.23828 3.3633 0.27734 6.7969 0.25391 10.238-0.3125 6.6094-0.19531 12.211-0.33984 13.125-0.30078l7.9453 0.21875c9.4766 0.27734 19.277 0.55859 28.949 0.21875 13.992-0.50391 39.453-0.45703 48.582 0.11719zm-343.56-2.8008c0.0625-0.31641 0.11719-0.60156 0.14062-0.77734 2.2461-16.289 16.684-22.973 29.012-22.367 12.273 0.64062 20.531 7.875 25.258 21.906-3.5391 0.10547-7.7969 0.25391-12.82 0.43359-13.691 0.49609-29.227 1.0469-37.793 0.73047-1.3047-0.054687-2.5547 0.003907-3.7969 0.074219zm88.344-67.285c0.20703 4.9805 0.46875 14.754-0.31641 21.137-0.50391 0.039063-1.0039 0.054688-1.5312 0.17188-0.54688 0.11328-1.7656-0.089844-2.9727-0.70313-4.6641-2.375-6.3438-6.2812-5-11.613 1.4375-5.7344 4.668-8.668 9.8203-8.9922zm37.242 23.227c-0.023438-0.085937-0.039063-0.17578-0.0625-0.25781-1.5-5.3945-1.0625-11.453-0.64062-17.309l0.21875-3.2422c0.050781-0.83594-0.074219-1.6523-0.19922-2.4375-0.054688-0.34766-0.125-0.87109-0.09375-1.3281l2.6211 0.87109c3.8086 1.2969 8.0156 9.3555 7.1875 13.504-1.7617 6.6211-5.9961 9.1953-9.0312 10.199zm-30.617 1.0039c-0.33594-0.34375-0.69922-1-1.0898-1.2734 0.94531-6.8555 0.69141-17.375 0.47266-22.73 3.6484 0.066406 7.3164-0.011718 10.902-0.039062 4.4961-0.039063 9.1211-0.11719 13.613 0.042968 0.035156 0.26953 0.070312 0.49219 0.10938 0.70313 0.058593 0.375 0.14844 0.92969 0.13672 1.125l-0.21875 3.1758c-0.44141 6.1094-0.83984 12.422 0.69531 18.574-2.1016-0.070313-4.2461 0.44922-6.5 0.23828-2.8281-0.26562-5.7539 0.14453-8.6133 0.14453h-0.23047c-3.75 0-6.7852-0.42188-9.2773 0.039062zm25.156-30c-4.9492-0.20703-10.008-0.17187-14.914-0.12891-3.5586 0.027344-7.1758 0.023438-10.758-0.042968 0.32031-1.5586 0.88281-3.1367 1.5-4.7734l0.40234-1.0859c1.6719-4.5352 4.2109-7.3398 7.3477-8.1094 3.2695-0.79297 7.2461 0.57422 10.652 3.668 3.0312 2.7578 4.9453 6.0742 6.0469 10.207-0.082031 0.09375-0.19922 0.17187-0.27734 0.26562zm-15.852 34.586c2.7305 0.039062 5.3672 0.24219 8.2539 0.51562 2.668 0.25391 5.3984 0.49219 8.0625 0.52344 0.007812 1.2812-0.14062 2.4961-0.49609 3.7812-0.68359 2.4609-1.7227 4.7617-3.2734 7.2422-0.29297 0.46875-2.0195 1.5938-4.8711 2.1953-2.6562 0.55469-4.2852 0.24219-4.4688 0.18359-0.058594-0.097656-0.13281-0.17969-0.19531-0.27344v-0.003907c-1.2383-1.9141-2.6719-3.6328-4.0742-5.2812-2.3008-2.7031-4.4258-5.3008-5.4219-8.5156 1.8242-0.22266 3.9648-0.35547 6.4844-0.36719zm0.61719 19.117c1.0586 0.49219 2.4297 0.25781 4.3242 0.25781h0.035156c2 0 4.6875 0.14062 7.1445-0.78906 2.0742 1.3984 4.5781 2.8516 7.0352 3.9648 1.8594 0.84375 3.6211 1.7891 4.8906 2.5742 6 3.6875 9.8008 7.9883 11.422 12.652-0.71094 0.070312-1.4141 0.17578-2.168 0.25391-1.0391 0.10938-1.8633 0.21875-2.2656 0.23438-9.3906 0.42188-19.004 0.003906-28.301-0.40625-6.9922-0.30859-14.227-0.58594-21.355-0.58984-0.36328 0-2.0039-0.003906-4.1719-0.007812 1.7617-4.4297 5.6172-8.1953 8.0977-10.262 2.1016-1.7539 4.9141-3.1016 7.9023-4.2188 2.5-0.9375 5.0625-2.2188 7.4102-3.6641zm66.902 18.137c0.60547-2.2578 1.5039-4.457 2.4961-5.5039 7.9727-8.4219 17.152-11.742 28.102-10.102 11.723 1.7422 18.02 5.9727 20.969 14.027-2.8281 0.085938-4.8633 0.14453-5.5 0.16016-3.6172 0.078124-7.2344 0.24219-10.848 0.40625-5.4883 0.24609-11.152 0.52734-16.707 0.42969-2.6953-0.054687-8.4727 0.19141-15.164 0.45312-1.0781 0.042969-2.2031 0.085938-3.3477 0.12891zm115.87-14.68c7.2617 2.9141 10.586 6.8125 10.719 12.48-1.4102 0.035156-2.6758 0.066406-3.625 0.10156-9.4766 0.34375-19.176 0.054688-28.555-0.21484l-7.9766-0.22266c-0.51953-0.003906-2.1172 0.027344-4.4648 0.085938 3.8672-7.4141 9.2891-12.117 15.781-13.902 0.058594-0.023438 0.125-0.035156 0.17969-0.058594 5.3594-1.4297 11.426-0.88281 17.941 1.7305zm-39.715 10.371c-0.5 1.0117-1.207 1.6406-2.1055 1.8633-0.49219 0.12109-0.99219 0.15625-1.4883 0.24609-2.9141 0.085937-6.1367 0.17187-9.5469 0.27344-1.6211-0.14453-3.2461-0.33203-4.8945-0.55469-0.50781-0.074219-0.53125-0.14063-0.64062-0.46094-4.6562-13.754-16.34-17.164-26-18.602-12.832-1.9141-24.051 2.1016-33.34 11.914-2.3281 2.457-3.6875 6.6367-4.3555 9.8555-7.957 0.27344-15.703 0.45312-18.105 0.10547-0.4375-0.0625-0.97656-0.085938-1.5469-0.097657-1.7383-6.6602-6.5859-12.48-14.457-17.32-1.5938-0.98828-3.5234-1.8594-5.5664-2.7852-1.4141-0.64062-2.8477-1.2969-4.1367-1.9727 0.042969-0.0625 0.10547-0.11328 0.14453-0.17578 1.8594-2.9766 3.1211-5.7773 3.9648-8.8086 0.60938-2.1914 0.75781-4.1719 0.6875-6.0312 5.0547-1.4336 11.422-5.5039 13.898-14.82 1.3477-6.707-3.8906-18.094-11.105-20.551l-2.9805-0.99219c-1.3711-5.4531-3.9922-9.8906-7.9844-13.523-4.8828-4.4414-10.91-6.3281-16.113-5.0586-3.6016 0.88281-8.5273 3.6562-11.551 11.867l-0.38672 1.043c-0.77734 2.0625-1.6172 4.3359-1.9727 6.8438-8.0391 0.31641-13.535 5.043-15.66 13.508-2.0312 8.0547 0.91406 14.77 8.0898 18.422 1.1367 0.57813 4.0859 1.8477 6.9844 1.2188 0.77734-0.17578 3.1328-0.6875 3.832 2.4023 1.1562 5.1172 4.2734 8.7812 7.0195 12.016 0.70312 0.82812 1.3828 1.6328 2.0234 2.4414-1.6094 0.84375-3.4023 1.543-5.2891 2.2461-3.3242 1.2422-6.7578 2.5273-9.6406 4.9297-4.0547 3.375-8.9219 8.543-10.605 14.863-4.0469-0.007812-7.9219-0.019531-8.8633-0.019531-1.0273-0.13281-2.9141-0.17188-5.6133-0.14062-5.3906-17.562-15.832-26.961-31.188-27.762-18.332-0.99219-32.895 10.367-35.27 27.543-0.023437 0.17969-0.089844 0.49219-0.16406 0.86328-0.089844 0.44922-0.16797 0.85547-0.23828 1.2461-1.9336 0.17969-3.832 0.30859-5.6953 0.41016-2.6367-0.011719-5.3555-0.042969-8.043-0.0625-0.48828-1.3945-0.98438-3.1523-1.4688-4.8984-1.3711-4.9414-2.793-10.051-5.3672-12.816-6.1133-6.5664-15.352-11.141-25.441-11.77 0.17969-3.7578 0.39453-8.6094 0.59375-13.156l0.45312-10.074c0.074219-1.5508 0-2.9883-0.22656-4.3242 0.035156-0.015624 0.066406-0.03125 0.10156-0.046874 1.168-0.53516 2.625-1.2031 3.3867-1.2578 18.602-1.3281 32.824-8.7969 43.484-22.824 7.6992-10.129 15.855-11.977 29.074-6.5781 8.2891 3.3828 15.152 5.1484 21.598 5.5508 12.449 0.79297 23.316-4.625 32.238-16.078l1.0234-1.3164c4.6719-6.0273 9.0898-11.723 16.023-13.625 13.91-3.8281 25.809-1.5078 35.34 6.8672 10.895 9.5664 22.016 16.914 34 22.477 9.6836 4.4961 21.074 8.7734 33.781 2.625 4.8477-2.3398 9.5039-0.37109 15.008 3.3203 5.8047 3.9023 11.211 8.6055 15.277 12.266 5.125 4.6133 11.23 7.9883 19.223 10.617 2.7695 0.91406 5.5781 1.4531 8.2969 1.9766 3.0469 0.58594 5.9453 1.168 8.6367 2.2031-0.51563 5.8828-0.22266 13.281 0.085937 19.957 0.125 2.7109 0.22266 5.2344 0.27734 7.5781-7.2422 2.7656-13.336 8.5117-17.496 16.945zm17.039-87.453c0.0625 0.015624 0.15625 0.03125 0.24219 0.046874 1.6211 3.3672 1.6523 7.1484 1.5859 11.156-0.042968 2.4609-0.085937 5.0039 0.25781 7.5703 0.10938 0.80469-0.007813 1.9727-0.14453 3.1211-0.90625 0.32422-1.6562 0.70703-2.0938 0.94141l-0.71094 0.39844c-0.56641 0.32031-1.1562 0.65625-1.457 0.65625-10.93-0.019531-19.258-1.7969-24.703-11.004-0.72266-1.2188-1.3984-2.5195-2.0859-3.8203-1.1172-2.1289-2.2812-4.2734-3.6406-6.2344 4.0898-1.5625 8.5508-1.6367 13.238-1.6953 2.1406-0.023437 4.2773-0.050781 6.3867-0.21484 1.5273-0.12109 3.0547-0.37891 4.5859-0.63672 2.9922-0.50391 5.8086-0.98047 8.5391-0.28516zm-50.121-25.191 7.4805 0.23047c4.7109 0.15625 9.4727 0.11719 14.07 0.085938 2.5234-0.023438 4.9453 0.14844 7.6406-0.14063 0.30469-0.03125 0.76562-0.085937 0.54688-0.20312 8.2891 4.5508 15.219 10.953 20.797 16.477 0.22266 0.46484 0.054688 1.7852-0.26953 2.6484-3.4766-0.58594-6.7461-0.03125-9.6797 0.46875-1.3555 0.22656-2.7031 0.46094-4.0508 0.56641-1.9805 0.15625-3.9844 0.17578-5.9922 0.19922-5.7852 0.070313-11.754 0.17969-17.5 3.0703-10.617-8.9219-23.086-11.16-36.18-6.3359-9.0586 3.3281-18.293 2.9492-26.707-1.0977l-0.96875-0.46094c-4.7734-2.2656-8.0195-4.1289-8.8438-7.9961 3.0703-0.28516 6.7031-0.50391 7.5039-0.42578 3.832 0.40625 7.4492 0.24609 10.949 0.10547 3.5859-0.16016 6.9688-0.30469 10.508 0.12891 0.87109 0.097656 1.7266-0.16797 2.375-0.75391 0.64453-0.58594 1.0039-1.4141 0.98828-2.2891 0 0-0.050781-2.4492-0.11719-5.375 7.9531 0.51953 18.641 0.83594 27.449 1.0977zm-54.059-110.37c2.3828 0.87109 3.8945 1.4844 4.8555 3.043 0.94141 1.5273 1.4688 2.6406 1.543 4.1602 0.48828 9.832 0.46094 19.871 0.4375 29.586-0.011719 3.8438-0.019532 7.6836 0 11.531 0.015624 2.3359 0.015624 5.7227 0.015624 8.6289-0.78906 0.027344-1.4062 0.054688-1.7656 0.078125-1.1328 0.074219-2.7305 0.089844-4.5508 0.074219-0.82031-3.2031-0.90234-6.7148-0.94141-10.422-0.023438-2.3945-0.050781-4.8672-0.30859-7.2539-0.21484-1.9961-0.34766-3.9961-0.48438-5.9961-0.27344-4.0586-0.55469-8.2578-1.5039-12.473-1.0312-4.5547-4.2031-7.6602-8.2773-8.1055-3.8555-0.42578-6.5273 2.1094-7.8633 7.5469-1.1289 4.5898-1.7539 9.0469-1.8594 13.246-0.11719 4.6133-0.10938 10.621-0.10156 16.281 0.003907 2.5078 0 4.8711-0.003906 7.0859-2.3164 0.32812-6.5273 0.61719-12.008 0.86328-0.31641-8.7227 0-18.129 0.34375-27.301 0.28516-7.543 0.57422-15.348 0.48047-22.547-0.015624-1.3672 0.125-2.0742 0.4375-2.4609 0.003907-0.007813 0.015626-0.007813 0.019532-0.015625 0.007812-0.007813 0.011718-0.023438 0.019531-0.03125 0.32031-0.35938 0.80469-0.42188 1.4688-0.49609 4.5391-0.53516 8.0664-2.4258 11.109-5.9531 2.793-3.2383 10.297-3.7812 14.598-1.0391 1.4297 0.90234 2.9102 1.4453 4.3398 1.9688zm-14.809 49.914c-0.007812-5.6055-0.015625-11.555 0.10156-16.121 0.09375-3.7695 0.66406-7.7969 1.6875-11.969 0.63672-2.5977 1.1758-2.9922 1.3789-3.0156 2.0469 0.22656 2.8086 2.2734 3.0781 3.4688 0.84766 3.7578 1.1016 7.543 1.3711 11.551 0.14062 2.0859 0.28125 4.1602 0.50391 6.2383 0.22656 2.0977 0.24609 4.3164 0.27344 6.668 0.03125 3.375 0.097656 6.8242 0.73828 10.207-3.4375-0.12109-6.8477-0.28906-9.1445-0.41016 0.011718-2.0898 0.011718-4.2891 0.011718-6.6172zm-47.625 8.7578c-0.63281-8.0156-0.03125-17.996 0.21094-24.848 0.13672-3.8867 0.76172-8.3398 3.4102-11.914 1.0586-1.4297 2-1.9336 2.4258-1.9336 0.35156 0 1.0469 0.38672 1.8516 1.4766 1.6875 2.2891 2.0078 5.3125 2 9.2344-0.007813 6.4453-0.49609 13.824-0.49609 20.879v6.9102c-4 0.074219-6.0234 0.13672-9.4023 0.19531zm17.402-0.34375v-6.7656c0-7.0469-0.49609-14.422-0.48438-20.859 0.007813-5.2578-1.4375-9.7148-3.9141-13.078-2.3867-3.2344-5.168-4.1797-6.8828-4.1797h-0.003906c-1.8047 0-4.5078 1.0234-7.1797 4.625-3.6523 4.9219-4.3008 10.883-4.4609 15.41-0.24219 6.8789-0.59766 16.922 0.023437 25.219-2.4883 0.035156-4.9805 0.097656-7.4648 0.12891-0.83984-11.016-1.7656-25.711-1.8633-38.227-0.039062-4.5977-0.52344-9.8125-0.99609-14.863-0.097657-1.043-0.17969-2.0156-0.27344-3.0156 0.54297-0.36719 1.0898-0.77734 1.6367-1.293 7.0781-6.6562 15.762-8.9219 25.125-6.5078 5.4883 1.4062 10.152 5.0703 14.375 9.0781-0.39844 1.1758-0.61719 2.5234-0.59766 4.1016 0.09375 7.0508-0.18359 14.43-0.47656 22.246-0.34766 9.2812-0.18359 18.816 0.14062 27.758-2.2773 0.078125-6.7031 0.15234-6.7031 0.22266zm-13.699-114.58c0.070313-2.6055 0.23047-3.3945 1.2109-3.9688 1.4023-0.8125 3.0312-0.84766 4.4688-0.074219 1.5234 0.82422 2.4844 2.3672 2.5703 4.1328 0.054688 1.0977 0.14844 2.4453 0.24219 3.7734-0.76562 0.12109-1.5508 0.29297-2.3867 0.60156-1.7969 0.66406-4.1719 0.43359-6.0508-0.58594-0.11719-0.0625-0.23828-0.09375-0.35547-0.14844 0.019531-0.29297 0.046875-0.57031 0.078125-0.76562 0.15625-0.94141 0.19531-1.9492 0.22266-2.9648zm-34.973 19.582c6.3594-3.9258 13.445-5.625 20.945-7.4219 3.6328-0.87109 7.3867-1.7695 11.234-2.9961 3.3711 1.8203 7.5742 2.1758 10.965 0.93359 2.2344-0.81641 3.8086-0.26562 6.625 0.85938 0.66016 0.26172 1.3242 0.52734 2.0078 0.76953 8.1484 2.8828 17.402 6.9062 24.305 14.863 4.8125 5.5508 7.8711 12.727 8.6953 20.121-5.3711-0.5625-11.219 0.80859-14.562 4.6914-2.0781 2.4141-4.1836 3.5469-7.2578 3.9062-0.93359 0.10938-1.7422 0.33594-2.5 0.62109-4.8281-4.5898-10.258-8.832-17.043-10.57-11.281-2.8945-22.191-0.070312-30.723 7.957-1.6211 1.5234-3.1289 1.7305-5.2109 2.0156-0.89844 0.125-1.8047 0.24609-2.7148 0.46484-2.3906 0.57031-4.8789-0.35547-5.8125-1.5312-4.4219-5.6016-10.148-8.3555-17.516-8.5508 3.3555-10.879 10.523-21.16 18.562-26.133zm-34.367 76.734c0.011718-5.9102 0.019531-12.02-0.28125-18.078-0.35156-7.0391-0.31641-13.246 3.7305-17.941 2.5859-2.9883 9.8008-7.5898 11.832-8.6289 5.7891 0.03125 9.9141 1.9922 13.332 6.3203 2.4961 3.1445 7.4961 4.6914 11.898 3.6484 0.72266-0.16797 1.4414-0.26172 2.1523-0.35938 0.33594-0.046875 0.6875-0.097656 1.043-0.15234 0.042969 0.48828 0.085937 0.93359 0.12891 1.4297 0.46094 4.9258 0.93359 10.02 0.97266 14.359 0.10156 12.527 1.0117 27.184 1.8516 38.246-3.457 0.027344-6.8516 0.050781-10.125 0.0625-0.09375-1.2344-0.18359-2.5977-0.22266-3.3086-0.17578-3.0117-0.33594-6.0195-0.49609-9.0312-0.32031-6.0625-0.64453-12.125-1.1016-18.18-0.23047-3-1.1445-5.5547-2.0078-8.0039-1.668-4.6719-5.1094-7.0039-9.4453-7.0039h-0.023437c-6.2852 0-7.8359 5.4492-8.5859 8.2383-0.63281 2.3789-0.27344 4.4414-0.28125 6.668l0.66797 24.484v6.0664c-4-0.0625-8.1484-0.15625-9.4492-0.28516-1.2461-0.12109-3.4219-0.15234-5.5195-0.13672 0.023438-0.33984-0.12109-0.66406-0.09375-1.0117 0.15234-1.8828 0.21094-3.7969 0.18359-5.2148-0.089844-4.0625-0.16406-8.125-0.16016-12.188zm19.039 18.895v-6.125l0.33594-24.645c0.003906-1.7227 0.40625-3.4102 0.91406-5.3047 1.0508-3.9375 1.8281-4.1367 2.875-4.1367 0.63281-0.035157 2.6484-0.003907 3.8398 3.3594 0.73047 2.0742 1.5234 4.5039 1.6992 6.8047 0.45703 6.0078 0.78516 12.023 1.1055 18.039 0.16016 3.0234 0.32422 6.0469 0.5 9.0547 0.015625 0.30078-0.22656 1.6055-0.12891 2.9844-3.9102 0-7.1406-0.007813-11.141-0.03125zm-14.695 5.625c0.18359 0.019531 4.6445 0.085937 11.633 0.13672 0.23828 0.058594 0.46875 0.14453 0.72266 0.14453 0.23828 0 0.45312-0.085937 0.67188-0.13672 4.5469 0.03125 10.023 0.058594 16.043 0.070313 0.12891 0.015625 0.24609 0.066406 0.375 0.066406 0.16016 0 0.32422-0.011719 0.48828-0.039063 0.023438-0.003906 0.042969-0.023437 0.070313-0.027343 4.8047 0.007812 9.9141 0 15.152-0.023438 0.13281 0.019531 0.24609 0.074219 0.38672 0.074219 0.078125 0 0.16016-0.003906 0.23828-0.007812 0.089843-0.007813 0.16016-0.054688 0.24219-0.070313 4.2695-0.019531 8.5938-0.054687 12.883-0.10156 0.054687 0.003907 0.10547 0.03125 0.16406 0.03125 0.11719 0 0.23438-0.007812 0.35156-0.019531 0.019532-0.003906 0.035157 0.50391 0.054688 0.49609 5.2188-0.054687 10.355 0.26562 15.23 0.26562h0.019531 0.023438 13.23 0.019532 0.16797c0.011719 0 0.023438-0.73438 0.035156-0.73438 8.5742-0.35938 15.168-1.2383 18.004-1.957 2.9258 0.17188 17.484 0.82422 23.012 0.43359 1.2969-0.089844 6.9297-0.30078 12.305-0.40625 0.26953 3.9141 0.55469 7.9141 0.85547 12.062 0.625 8.6328 1.2656 17.465 1.6875 25.441 0.09375 1.7148 0.22656 7.4531 0.30859 11.18-2.7695-0.11328-5.4531-0.007812-8.0625 0.10156-3.4258 0.14844-6.6641 0.28906-10.043-0.078125-0.66016-0.058594-8.8438 0.17969-13.055 0.99219l-3.9609-2.5938c-6.4883-6.4414-14.754-11.348-24.566-14.586-13.297-4.3945-27.047-2.6992-42.043 5.168-5.7656 3.0312-10.793 7-15.57 11.078-2.1719-0.65625-4.7148-0.85937-6.168-0.85937l-7.5352-0.023438c-7.5625-0.027344-15.125-0.0625-22.695 0.070312-3.3516 0.066407-3.3633-0.41406-3.4297-2.1914-0.050781-1.5-0.19141-2.9766-0.33594-4.4531-0.26953-2.7656-0.52344-5.375-0.13672-8.1523 0.96484-6.9141 0.71094-14.891 0.47266-22.598-0.097656-3.0195-0.16406-5.8633-0.17578-8.6094 5.1875-0.22656 10.496-0.37891 12.93-0.14453zm-79.148 54.242c2.832-2.7188 5.7812-5.668 7.9414-9.1797 1.1562-1.8828 2.3867-2.4336 5.7188-2.5586 1.3438-0.046875 2.6953-0.085937 4.0469-0.12109 4.7109-0.12891 9.5859-0.26172 14.383-0.98828 8.9609-1.3555 19.117-2.6719 27.941-1.9297 0.019531 0.20703 0.035156 0.41406 0.054688 0.62109 0.13281 1.3555 0.26562 2.7031 0.31641 4.0859 0.29297 8.1484 7.2578 8.0273 9.5273 7.9805 7.5234-0.13281 15.043-0.10156 22.57-0.070313l7.5547 0.023438c0.6875 0 1.4375 0.070312 2.168 0.16406-3.0312 8.8789-12.996 11.52-21.578 10.938-4.9609-0.34375-9.1367-1.5352-12.773-3.6484-9.9961-5.8047-20.734-6.168-32.824-1.1055-2.7344 1.1406-5.707 2.5742-8.6328 4.6523-7.457-2.9648-16.391-4.0117-24.844-2.8125-1.9258 0.26172-4.1367 0.03125-6.207-0.54297 1.3164-1.9453 2.8438-3.7812 4.6367-5.5078zm-10.895 31.352c0.32422-2.7344 0.66406-5.5586 0.76172-8.2227 0.16797-4.4648 1.0312-8.5156 2.5742-12.219 3.2188 1.1094 6.8164 1.5312 9.9727 1.0742 6.2617-0.88281 12.984-0.29688 18.84 1.4648-0.42578 0.46484-0.84766 0.92578-1.2578 1.4336-6.4141 7.9453-13.797 15.668-24.285 18.359-0.78516 0.20312-1.543 0.45312-2.2969 0.69922-2.0352 0.66797-3.3008 1.0039-4.6562 0.66406 0.11328-1.082 0.21484-2.1445 0.34766-3.2539zm-4.2578 13.129-4.3633-2.3984c0.19922-0.11328 0.39844-0.23438 0.59766-0.36328 2.0977-1.3906 3.5703-1.9336 4.1328-2.0312 4.043 1.9414 7.3789 0.83984 10.074-0.046874 0.63281-0.20703 1.2695-0.41406 1.9219-0.58594 12.176-3.1289 20.391-11.656 27.457-20.406 3.8516-4.7773 8.375-7.1016 12.695-8.9062 10.246-4.2852 19.238-4.043 27.5 0.75781 4.4492 2.5859 9.4766 4.0391 15.371 4.4453 14.176 0.99609 25.254-5.4336 28.309-16.332 0.19531-0.15234 0.39062-0.30078 0.55859-0.44922 4.6523-4.0391 9.7422-8.1953 15.488-11.211 13.668-7.168 25.543-8.6875 37.375-4.7852 9.0234 2.9805 16.566 7.4688 22.414 13.348 0.14844 0.14453 0.30859 0.27734 0.48438 0.39062l6.4727 4.2422c1.4219 7.1914 7.6133 10.133 12.211 12.316l0.94141 0.44922c9.9102 4.7695 20.766 5.2266 31.379 1.3242 11.594-4.2773 22.168-2.1758 31.43 6.2344 2.0781 1.8867 3.6641 4.9141 5.3398 8.1133 0.73047 1.3945 1.4609 2.7812 2.2305 4.0898 7.3281 12.387 19.199 13.969 29.898 13.949 1.8633-0.011718 3.2617-0.80078 4.3789-1.4375l0.59375-0.32812c2.2188-1.1992 2.6953-0.80078 3.1523-0.42578 1.4727 1.2188 2.9883 2.0352 4.543 2.4453-2.6914 2.8828-5.543 5.7656-7.5938 7.4141-3.3555-1.3672-6.8242-2.0312-10.188-2.6758-2.6484-0.50781-5.1484-0.98828-7.5469-1.7812-7.1719-2.3594-12.605-5.3398-17.086-9.3789-4.2109-3.793-9.8281-8.6719-15.945-12.785-4.1602-2.7891-8.8945-5.3711-14.062-5.3711-2.2266 0-4.5352 0.48047-6.9062 1.6328-9.332 4.5156-17.879 2.3203-28.641-2.6719-11.461-5.3125-22.113-12.359-32.566-21.539-11.148-9.793-24.914-12.531-40.891-8.1484-8.8594 2.4336-14.34 9.5-19.176 15.738l-1.0156 1.3047c-7.7344 9.9336-16.586 14.371-27.133 13.781-5.7773-0.36328-12.039-1.9922-19.703-5.1211-15.652-6.3984-26.797-3.7734-36.121 8.5-9.5547 12.578-22.355 19.273-39.137 20.473-1.793 0.12891-3.6523 0.96094-5.3047 1.7148-0.92188-1.3008-2.1055-2.457-3.5703-3.4844z"/>
  <path d="m270.6 51.508c0.16797 0.027344 0.33203 0.039063 0.49609 0.039063 1.4414 0 2.7109-1.0391 2.957-2.5078 0.27344-1.6328-0.83203-3.1797-2.4688-3.4531-5.0586-0.84375-10.098-0.86719-15.031-0.73828-0.03125-1.6836-0.027343-3.3828-0.015625-5.1289 0.019532-2.2969 0.035156-4.5898-0.050781-6.8789-0.0625-1.6562-1.4453-2.9883-3.1133-2.8828-1.6562 0.0625-2.9453 1.4531-2.8828 3.1094 0.085938 2.1992 0.0625 4.4023 0.046875 6.6016-0.011718 1.7617-0.015625 3.5508 0.019532 5.3555-3.1602 0.10156-6.3594 0.17578-9.4922 0.011718-0.57422-0.027344-1.1602-0.003906-1.7461 0.023438-1.2031 0.066406-1.6172 0.042968-1.8516-0.18359-1.1914-1.1445-3.0938-1.1055-4.2422 0.085938-1.1484 1.1953-1.1133 3.0938 0.085938 4.2422 2.1445 2.0547 4.6445 1.9453 6.3125 1.8477 0.38672-0.015625 0.77344-0.035156 1.1445-0.023437 3.4219 0.17188 6.832 0.09375 10.184-0.011719 0.078125 0.68359 0.14062 1.3633 0.25391 2.0508 0.33984 2.1094 0.32031 4.3477 0.29297 6.7188-0.011719 1.1406-0.023438 3.2188 0.003906 4.3555 0.039062 1.6289 1.375 3.8594 3 3.8594h0.074219c1.6602 0 2.9688-2.3516 2.9297-4.0078-0.027344-1.0664-0.015625-2.6094-0.003906-3.6797 0.027344-2.5156 0.054688-5.3555-0.37109-7.9688-0.066406-0.42188-0.10156-0.96484-0.15625-1.3906 4.6406-0.11719 9.1367-0.19531 13.625 0.55469z"/>
  <path d="m184.7 311.01c-0.011719-0.0625-0.054688-0.10937-0.070313-0.17187-0.69922-7.5781-4.9141-12.594-6.5977-14.305-2.9961-3.0312-6.9844-7.043-13.633-8.3672-0.0625-0.011718-0.125-0.023437-0.19141-0.027343-0.79297-0.15234-1.6016-0.28516-2.4688-0.35547-0.17188-0.007812-0.34375-0.007812-0.51953 0.003906-4.6523 0.44531-9.6094 5.0781-12.441 8.9102-3.7695 5.1016-5.4102 10.559-4.5039 14.941 0.027343 0.1875 0.046874 0.47266 0.074218 0.83594 0.30859 3.8047 1.2422 15.379 12.656 19.086 0.42188 0.13672 0.93359 0.40625 2.1719 0.40625 0.17578 0 1.3008 0.039062 2.9453 0.039062h0.015625c0.015625 0 0.027343-0.19141 0.042969-0.19141 5.4961-0.45703 16.949-2.4258 21.039-10.184 0.085938-0.15625 0.14844-0.35938 0.20312-0.52344 1.1211-3.4648 1.4375-6.6406 1.2734-9.4648 0.003907-0.20703 0.046876-0.42578 0.003907-0.63281zm-10.938-10.262c1.3164 1.3359 3.5039 4.1055 4.4805 8.1211-3.3242-0.48438-7.168-0.70703-11.605-0.64844 0.42188-3.4141 0.90625-8.4297 0.8125-12.641 2.5625 1.3906 4.5156 3.3477 6.3125 5.168zm-20.152-0.48438c2.6445-3.5859 5.8672-5.9336 7.7539-6.3906 0.32812 3.6797-0.1875 9.8516-0.80078 14.578-3.2188 0.19141-6.7031 0.50391-10.441 0.92578-0.10156-2.5977 1.1016-5.8867 3.4883-9.1133zm-2.8398 15.078c3.3555-0.38281 6.4805-0.66797 9.3789-0.85938 0.003906 0.35938 0.003906 0.70703 0.007812 1.0742 0.039062 3.2734 0.054688 7.1484-0.46484 10.203-0.16406 0.003907-0.35547 0.019532-0.51172 0.019532-0.23047 0-0.42188 0-0.5625-0.007813-5.1797-1.793-7.0703-6.1094-7.8477-10.43zm15.074 9.7617c0.35156-3.125 0.34766-6.5 0.3125-9.6211-0.003906-0.45312 0-0.83203-0.003906-1.2695 4.9141-0.089844 9.0469 0.16406 12.453 0.77344-0.14062 1.2539-0.37109 2.5625-0.80859 3.9609-1.9258 3.332-7.0508 5.2422-11.953 6.1562z"/>
  <path d="m276.52 25.301c-1.0898-1.2461-2.9844-1.3828-4.2344-0.28516l-6.5 5.6797c-1.2461 1.0898-1.375 2.9844-0.28516 4.2305 0.59375 0.67969 1.4258 1.0273 2.2617 1.0273 0.69922 0 1.4023-0.24219 1.9727-0.74219l6.5-5.6797c1.25-1.0898 1.3789-2.9844 0.28516-4.2305z"/>
  <path d="m239.26 35.953c0.70312 0 1.4102-0.24609 1.9805-0.75391 1.2422-1.0938 1.3633-2.9883 0.26953-4.2305l-5-5.6797c-1.0977-1.2461-2.9883-1.3711-4.2344-0.26953-1.2422 1.0938-1.3633 2.9883-0.26953 4.2305l5 5.6797c0.59375 0.67969 1.4219 1.0234 2.2539 1.0234z"/>
  <path d="m238.89 58.672-5.375 4.25c-1.3008 1.0273-1.5195 2.9141-0.49219 4.2109 0.59375 0.75391 1.4688 1.1406 2.3555 1.1406 0.65234 0 1.3086-0.21094 1.8594-0.64844l5.375-4.2461c1.3008-1.0273 1.5195-2.9141 0.49219-4.2109-1.0234-1.3047-2.918-1.5312-4.2148-0.49609z"/>
  <path d="m272.37 67.605c0.55469 0.44922 1.2227 0.66797 1.8828 0.66797 0.875 0 1.7383-0.37891 2.332-1.1133 1.043-1.2852 0.84375-3.1758-0.44531-4.2188l-5.2461-4.2461c-1.2891-1.043-3.1758-0.84766-4.2188 0.44531-1.043 1.2852-0.84375 3.1758 0.44531 4.2188z"/>
 </g>
</svg>
