<?xml version="1.0" encoding="UTF-8"?>
<svg width="512pt" height="512pt" version="1.1" viewBox="0 0 512 512" xmlns="http://www.w3.org/2000/svg">
 <path d="m418.13 141.61c-7.8945-27.266-14.422-27.266-19.328-27.266v0.003906c-3.0703-0.074218-6.0742 0.88672-8.5312 2.7305-39.188-27.906-86.172-42.746-134.27-42.41-47.25-0.30859-93.445 13.98-132.27 40.918-1.8555-0.82813-3.8594-1.25-5.8906-1.2383-7.5938 0-14.508 5.0781-21.332 24.449v-0.003906c-31.277 31.043-49.086 73.145-49.578 117.21 0 53.676 27.051 101.97 69.973 135.21 1.082 1.668 2.7109 2.9062 4.6094 3.5 39.191 28.07 86.277 42.996 134.48 42.621 115.2 0 209.07-81.367 209.07-181.33-0.4375-42.18-16.789-82.641-45.781-113.28-0.34375-0.41016-0.73047-0.78125-1.1523-1.1094zm8.5352 39.082c1.1094 1.793 2.1328 3.5859 3.1133 5.418v0.003906c-0.69922-0.62891-1.5117-1.1211-2.3906-1.4531-0.25391-1.1953-0.46875-2.6445-0.72266-3.9688zm-46.039-49.578c-5.1523 13.25-8.9414 26.988-11.305 41.004-5.7188-12.801-11.137-14.594-16.34-14.594-8.5352 0-14.422 6.9102-19.797 23.637-7.4258-23.637-14.379-23.637-19.328-23.637-7.3398 0-15.02 3.8828-22.785 34.516l-65.582 0.003907c-7.7656-30.633-15.445-34.516-22.785-34.516-4.7344 0-11.82 0-19.414 23.383-5.332-16.555-11.434-23.383-19.711-23.383-5.2461 0-10.711 1.793-16.426 14.207-2.3945-14.805-6.5508-29.273-12.371-43.094 35.711-24.344 77.996-37.215 121.21-36.906 44.66-0.375 88.293 13.414 124.63 39.379zm-24.406 127.19h14.977c0.68359 4.7773 1.3672 9.7266 2.0469 14.762-1.9023 1.8672-2.8242 4.5195-2.4883 7.1641 0.33203 2.6484 1.8867 4.9844 4.1953 6.3203 1.0664 8.5352 2.0898 17.75 3.0703 26.965h0.003906c-1.8789 1.6289-2.957 3.9961-2.9453 6.4844 0.019531 3.0312 1.6445 5.8242 4.2656 7.3398l0.76953 8.2344h-12.117c-4.7109 0-8.5352 3.8203-8.5352 8.5312 0 4.7148 3.8242 8.5352 8.5352 8.5352h13.566c0.64062 7.7227 1.1953 15.574 1.75 23.426v-0.003906c0.066406 0.85156 0.26953 1.6875 0.59766 2.4766-8.0859 6.1406-16.648 11.633-25.598 16.426-0.25781-3.8828-0.46875-7.6797-0.72656-11.434 2.0508-1.6016 3.2617-4.0547 3.2852-6.6562-0.019531-3.0312-1.6445-5.8242-4.2656-7.3398-0.8125-12.414-1.6211-24.062-2.4766-35.113 4.0938-0.98047 6.8633-4.7969 6.5234-8.9922-0.33984-4.1953-3.6914-7.5156-7.8867-7.8203-1.0234-12.117-2.0625-23.352-3.1133-33.707h2.6016c4.7109 0 8.5312-3.8203 8.5312-8.5312 0-4.7148-3.8203-8.5352-8.5312-8.5352h-4.2656c-2.0898-18.645-4.2656-34.133-6.3984-46.934 4.7344-26.625 8.875-37.93 11.266-42.668l-0.007813 0.003906c4.6797 10.844 8.0195 22.223 9.9414 33.875-0.042969 1.3867 0.25 2.7656 0.85547 4.0117 1.5781 7.8945 3.1562 16.684 4.6914 26.238l-12.117 0.003907c-4.7109 0-8.5312 3.8203-8.5312 8.5312 0 4.7148 3.8203 8.5352 8.5312 8.5352zm-69.461 99.625h25.133c4.7109 0 8.5312-3.8203 8.5312-8.5312 0-4.7148-3.8203-8.5352-8.5312-8.5352h-23.766c0.98047-11.477 2.0039-22.742 3.1133-33.664h20.652c4.7109 0 8.5312-3.8203 8.5312-8.5312 0-4.7148-3.8203-8.5352-8.5312-8.5352h-18.859c1.2812-11.82 2.6016-23.082 3.9688-33.664h14.891c4.7109 0 8.5312-3.8203 8.5312-8.5312 0-4.7148-3.8203-8.5352-8.5312-8.5352h-12.504c1.9609-13.523 4.0117-25.602 6.1016-35.371 0.47656-1.0625 0.73828-2.207 0.76953-3.3711 1.4883-8.1875 3.9961-16.156 7.4648-23.723 5.0352 9.4297 11.223 37.289 17.066 89.602h-16.168c-4.7148 0-8.5352 3.8203-8.5352 8.5312 0 4.7148 3.8203 8.5352 8.5352 8.5352h18.176c1.0664 10.41 2.1328 21.59 3.1562 33.664h-21.332c-4.7148 0-8.5352 3.8203-8.5352 8.5312 0 4.7148 3.8203 8.5352 8.5352 8.5352h22.656c0.8125 10.625 1.6641 21.844 2.4336 33.707h-25.09c-4.7148 0-8.5352 3.8203-8.5352 8.5312 0 4.7148 3.8203 8.5352 8.5352 8.5352h26.199c0.33984 5.7617 0.72656 11.605 1.0664 17.621h-0.003906c-18.883 8.0703-38.824 13.387-59.219 15.785 1.1523-20.094 2.5156-40.531 4.0938-60.586zm-85.633-101.46h18.434c1.3672 10.582 2.6875 21.844 3.9688 33.664h-22.402c-4.7109 0-8.5312 3.8203-8.5312 8.5352 0 4.7109 3.8203 8.5312 8.5312 8.5312h24.191c1.1094 10.922 2.1328 22.188 3.1133 33.664h-27.309 0.003906c-4.7109 0-8.5312 3.8203-8.5312 8.5352 0 4.7109 3.8203 8.5312 8.5312 8.5312h28.672c1.5781 20.18 2.9883 40.832 4.2656 61.227h0.003906c-20.504-1.9805-40.617-6.8789-59.734-14.547 0.38281-6.6133 0.72656-13.055 1.1094-19.371h23.039c4.7148 0 8.5352-3.8203 8.5352-8.5352 0-4.7109-3.8203-8.5312-8.5352-8.5312h-22.016c0.76953-11.777 1.5781-23.012 2.4336-33.707h19.496c4.7148 0 8.5352-3.8203 8.5352-8.5352 0-4.7109-3.8203-8.5312-8.5352-8.5312h-18.09c1.0234-12.004 2.0898-23.227 3.1992-33.664h14.891c4.7148 0 8.5352-3.8203 8.5352-8.5352 0-4.7109-3.8203-8.5312-8.5352-8.5312h-12.801c5.8008-50.391 12.117-80.129 17.367-89.602 3.4375 7.4727 5.8867 15.363 7.2969 23.469 0.007812 1.2383 0.28125 2.4609 0.80859 3.582 2.0898 9.8555 4.2656 21.801 6.1016 35.242h-16.043c-4.7109 0-8.5312 3.8203-8.5312 8.5352 0 4.7109 3.8203 8.5312 8.5312 8.5312zm-56.062 78.934h-8.5312c0.42578-4.6094 0.85156-9.1719 1.2812-13.695h-0.003906c0.066406-0.625 0.066406-1.2539 0-1.8789 1.3242-13.398 2.7734-26.367 4.2656-38.656v-0.98047c0.9375-7.5078 1.8789-14.762 2.9023-21.719h11.52v0.003906c4.7148 0 8.5352-3.8242 8.5352-8.5352 0-4.7148-3.8203-8.5352-8.5352-8.5352h-8.9609c1.5352-9.6836 3.1133-18.645 4.7344-26.582l0.003906 0.003906c0.88672-1.4023 1.3477-3.0352 1.3242-4.6953 1.9023-11.438 5.2422-22.594 9.9414-33.195 2.3477 4.4805 6.4414 15.402 11.137 41.344h-0.003907c-0.023437 0.097656-0.023437 0.20312 0 0.30078-2.3008 13.055-4.5625 28.883-6.7383 48.086h-7.4688c-4.7109 0-8.5312 3.8203-8.5312 8.5312 0 4.7148 3.8203 8.5352 8.5312 8.5352h5.6328c-1.0234 10.367-2.0469 21.332-3.0703 33.664h-2.5625c-4.7109 0-8.5312 3.8203-8.5312 8.5312 0 4.7148 3.8203 8.5352 8.5312 8.5352h1.1953c-0.79687 10.609-1.5781 21.875-2.3477 33.793-3.9609 0.61328-6.9609 3.9062-7.207 7.9062s2.3281 7.6367 6.1836 8.7305c-0.25781 3.9688-0.46875 7.9805-0.72656 12.074-8.5938-4.4062-16.848-9.4375-24.703-15.059 0.59766-9.8984 1.3242-19.754 2.1328-29.441h10.07c4.7148 0 8.5352-3.8203 8.5352-8.5312 0-4.7148-3.8203-8.5352-8.5352-8.5352zm-58.922-155.9c-0.33984 1.7344-0.68359 3.5273-1.0234 5.375-3.0117 1.3945-4.9414 4.4062-4.9492 7.7227-0.003906 2.2734 0.90234 4.4531 2.5156 6.0586-1.8359 11.008-3.625 22.996-5.2891 35.711h-1.1094c-4.7148-0.29297-8.7734 3.2891-9.0664 8-0.29688 4.7148 3.2852 8.7734 8 9.0664-1.793 14.891-3.457 30.508-4.9062 46.422-4.1914-13.555-6.3203-27.664-6.3164-41.855 0.13281-27.062 7.8008-53.551 22.145-76.5zm-1.5352 150.4c0.089844-0.37891 0.16016-0.76563 0.21094-1.1523 2.1328-28.289 4.7344-54.188 7.5508-77.312h13.699c4.7109 0 8.5312-3.8203 8.5312-8.5312 0-4.7148-3.8203-8.5352-8.5312-8.5352h-11.52c1.6211-11.988 3.2852-23.125 4.9922-33.238h16.555c4.7109 0 8.5312-3.8203 8.5312-8.5312 0-4.7148-3.8203-8.5352-8.5312-8.5352h-13.484c5.2891-27.348 10.625-45.184 15.105-51.199 3.2422 4.7773 10.324 21.332 18.477 76.801 0 0.8125-0.33984 1.6211-0.46875 2.4766l-25.051-0.003906c-4.7109 0-8.5312 3.8242-8.5312 8.5352 0 4.7148 3.8203 8.5352 8.5312 8.5352h21.844c-0.64062 3.8398-1.3242 7.8945-1.9609 12.203h-3.0312l0.003906-0.003906c-4.7148 0-8.5352 3.8203-8.5352 8.5352 0 4.7109 3.8203 8.5352 8.5352 8.5352h0.46875c-0.55469 4.2656-1.1094 8.1914-1.6641 12.332l-15.66-0.003906c-4.7109 0-8.5312 3.8203-8.5312 8.5352 0 4.7109 3.8203 8.5312 8.5312 8.5312h13.609c-0.89453 7.8945-1.793 15.785-2.6016 23.594h-19.285c-4.7109 0-8.5312 3.8242-8.5312 8.5352s3.8203 8.5352 8.5312 8.5352h17.621l-0.55469 6.8672h-3.457 0.003907c-4.7148 0-8.5352 3.8203-8.5352 8.5352 0 4.7109 3.8203 8.5312 8.5352 8.5312h1.9609c-0.42578 5.6758-0.85156 11.137-1.2383 16.34v0.003906c-12.613-11.273-23.445-24.395-32.125-38.914zm166.4 90.238c-0.59766-10.625-2.0469-34.133-4.2656-63.148v0.003907c2.8516-1.457 4.6484-4.3906 4.6484-7.5938-0.027344-3.6875-2.418-6.9414-5.9297-8.0664-0.9375-11.051-1.9609-22.527-3.1133-34.133h0.51172c4.7109 0 8.5312-3.8203 8.5312-8.5312 0-4.7148-3.8203-8.5352-8.5312-8.5352h-2.2188c-1.3242-12.332-2.6445-23.508-3.9258-33.664h6.1445c4.7109 0 8.5312-3.8203 8.5312-8.5312 0-4.7148-3.8203-8.5352-8.5312-8.5352h-8.5352c-1.707-11.691-3.3711-21.719-5.0781-30.293h58.027c-1.707 8.5352-3.3711 18.602-5.0781 30.293h-12.031c-4.7109 0-8.5312 3.8203-8.5312 8.5352 0 4.7109 3.8203 8.5312 8.5312 8.5312h9.6836c-1.2812 10.156-2.6016 21.332-3.9258 33.664h-5.7578c-4.7109 0-8.5312 3.8203-8.5312 8.5352 0 4.7109 3.8203 8.5312 8.5312 8.5312h4.0547c-1.1523 11.434-2.1328 22.785-3.0703 33.664h-0.98438c-4.7109-0.10547-8.6172 3.6289-8.7227 8.3438-0.10938 4.7109 3.6289 8.6172 8.3398 8.7227-2.2188 28.332-3.668 51.586-4.2656 62.164h-9.5156c-1.6641 0.17188-3.2852 0.085938-4.9492 0.042969zm148.57-55.465c-0.29688-4.0117-0.59766-8.1914-0.98047-12.543 4.7109-0.40234 8.207-4.5469 7.8047-9.2578-0.39844-4.7148-4.543-8.2109-9.2578-7.8086 0-2.3477-0.42578-4.6523-0.64062-7.0391h14.078l0.003906-0.003907c4.7109 0 8.5312-3.8203 8.5312-8.5312 0-4.7148-3.8203-8.5352-8.5312-8.5352h-15.785c-0.85156-7.7656-1.707-15.66-2.6445-23.594h10.199-0.003906c4.7109 0 8.5312-3.8203 8.5312-8.5312 0-4.7148-3.8203-8.5352-8.5312-8.5352h-12.289c-0.59766-4.2656-1.1523-8.5352-1.75-12.801 3.832-1.375 6.1562-5.2656 5.5547-9.293-0.60156-4.0234-3.9609-7.0664-8.0273-7.2617v-0.76953c-0.64063-4.0117-1.2812-7.8086-1.9219-11.434h18.602c4.7148 0 8.5352-3.8203 8.5352-8.5312 0-4.7148-3.8203-8.5352-8.5352-8.5352h-21.762l-0.38281-1.75c7.5078-51.199 14.121-69.418 17.664-75.863 3.0312 7.8125 7.2969 24.238 11.82 50.008h-13.055c-4.7148 0-8.5352 3.8203-8.5352 8.5352 0 4.7109 3.8203 8.5312 8.5352 8.5312h15.742c1.5352 10.027 3.1133 21.078 4.7344 33.238h-10.324c-4.7109 0-8.5312 3.8203-8.5312 8.5352 0 4.7109 3.8203 8.5312 8.5312 8.5312h12.801c2.8438 22.555 5.6875 48.371 8.5352 77.441-7.8516 13.258-17.5 25.359-28.672 35.969zm42.367-67.969c-1.75-16.598-3.4141-31.742-5.0781-45.484v0.003906c4.7148 0 8.5352-3.8203 8.5352-8.5352 0-4.7109-3.8203-8.5312-8.5352-8.5312h-1.9609c-1.707-13.086-3.3867-24.816-5.0352-35.199v-0.003906c1.9805-1.6055 3.1406-4.0156 3.1562-6.5703v-0.8125 0.003907c9.9414 20.016 15.07 42.078 14.977 64.426 0.003906 13.848-2.0234 27.617-6.0156 40.875z" fill="#443f3c"/>
</svg>
