<?xml version="1.0" encoding="UTF-8"?>
<svg width="512pt" height="512pt" version="1.1" viewBox="0 0 512 512" xmlns="http://www.w3.org/2000/svg">
 <g fill="#443f3c">
  <path d="m490.4 297.74c-6.5508-32-23.664-55.441-48.16-66.055l-0.19141-0.097656c-0.12891-0.054688-0.23047-0.12891-0.35938-0.18359-19.359-7.6719-40.953-7.4609-60.16 0.59375 12.309-24.863 18.633-52.258 18.473-80 0-74.688-42.727-135.46-95.367-135.95h-0.24609-0.38281c-52.941-0.046875-96.004 60.961-96.004 135.95 0 1.9844 0.12109 4 0.18359 5.9766-48.664-32.215-102.74-34.68-133.54-4.5039-0.17578 0.14453-0.32812 0.28125-0.48828 0.43359l-0.12109 0.10547v-0.003907c-14.598 15.191-22.426 35.641-21.711 56.695 0 33.785 16.648 71.199 44.656 101.6-47.375 14.848-80.57 48.23-80.93 87.062v0.23047 0.39062c0 52.938 61.008 96 136 96 63.832 0 117.38-31.238 131.95-73.168 6.5664 32 23.648 55.344 48.113 65.961l0.15234 0.070312c0.14453 0.0625 0.28125 0.15234 0.43359 0.21484l-0.003907 0.003906c8.9375 3.75 18.535 5.6562 28.227 5.6016 44.215 0 92.527-37.754 117.19-96 14.062-31.668 18.34-66.812 12.285-100.93zm-106.4-145.74c0 38.703-12.672 75.336-33.879 97.938-0.16016 0.16797-0.32812 0.30469-0.48828 0.46484-3.8555 3-7.6094 6.2891-11.281 9.7773-0.23828 0.16797-0.45703 0.375-0.69531 0.54297-0.13672 0.089844-0.25781 0.18359-0.38281 0.28906v-0.003907c-5.7266 3.9961-12.09 6.9961-18.816 8.8711 17.996-39.168 15.258-84.734-7.3047-121.46-18.023-36.406-18.777-78.973-2.0547-116 41.734 3.9453 74.902 56 74.902 119.59zm-92.945-118.28c-15.211 39.898-12.977 84.352 6.1602 122.52 10.691 17.27 16.551 37.094 16.965 57.398 0.41016 20.309-4.6328 40.352-14.613 58.043-4.6992-0.38672-9.3281-1.3906-13.766-2.9844-6.9883-32.898-23.605-62.973-47.738-86.398-4.4414-4.4414-8.7344-8.2656-13.031-11.793-0.66016-6.1445-1.0039-12.324-1.0312-18.504 0-59.543 29.09-108.95 67.055-118.28zm-78.629 147.08c5.0273 3.9727 9.8086 8.2461 14.316 12.801 23.023 22.062 38.477 50.848 44.145 82.23 3 16.207 0.49219 32.953-7.1172 47.574-14.957-40.461-49.133-70.777-91.09-80.797-38.508-13.008-69.152-42.602-83.496-80.633 28.418-23.367 80.137-15.887 123.24 18.824zm-98.824 125.94c-28.359-28.359-45.289-64.258-45.266-96-0.25781-12.301 2.8672-24.438 9.0312-35.086 17.449 38.988 50.473 68.855 91.008 82.32 38.871 9.1367 70.082 38.027 82.184 76.078-28.844-20.191-63.352-30.715-98.559-30.055-12.547 0.007812-25.059 1.2734-37.352 3.7695-0.35938-0.34375-0.71875-0.67188-1.0469-1.0273zm38.398 13.258c58.77 0 107.71 28.328 117.95 65.602-39.18-18.023-84.77-15.297-121.52 7.2695-36.41 18.027-78.98 18.781-116 2.0586 3.9336-41.762 55.988-74.93 119.57-74.93zm0 160c-59.543 0-108.95-29.09-118.28-67.055 17.254 6.6211 35.578 10.023 54.059 10.031 23.77-0.003906 47.211-5.5469 68.461-16.191 17.266-10.699 37.082-16.562 57.387-16.984 20.301-0.42188 40.348 4.6133 58.039 14.582-3.4805 42.09-55.734 75.617-119.66 75.617zm130.4-107.09c-4.0742-9.5469-9.8359-18.289-17.008-25.797 0.0625-0.046875 0.097656-0.12109 0.16016-0.16797 0.23828-0.23047 0.51172-0.40625 0.75391-0.64844 15.352-16.16 23.164-38.047 21.52-60.273 5.2969 1.293 10.727 1.9531 16.176 1.9766 3.8281-0.007812 7.6484-0.33203 11.426-0.97656-17.688 25.594-29.008 55.039-33.027 85.887zm17.207 46.625h0.003906c-5.3945-30.969-1.418-62.844 11.422-91.535 8.4375-20.281 20.695-38.746 36.105-54.398h0.0625c5.2539-3.7344 10.129-7.9727 14.555-12.656 14.574-11.707 32.52-18.438 51.199-19.203 3.3477 0.015624 6.6914 0.3125 9.9922 0.89062-30.676 31.727-46.547 74.918-43.715 118.96 3.2188 20.75 0.79688 41.984-7.0078 61.48-7.8047 19.496-20.703 36.535-37.352 49.332-17.625-9.293-30.137-27.773-35.262-52.871zm163.72-27.055c-23.754 56.121-70.695 91.297-110.4 85.648 33.039-29.887 48.895-74.352 42.215-118.4-2.5352-41.941 13.879-82.809 44.727-111.34 17.434 9.2969 29.77 27.672 34.863 52.559v0.003906c5.4023 30.965 1.4297 62.84-11.406 91.535z"/>
  <path d="m490.4 297.74c-6.5508-32-23.664-55.441-48.16-66.055l-0.19141-0.097656c-0.12891-0.054688-0.23047-0.12891-0.35938-0.18359-19.359-7.6719-40.953-7.4609-60.16 0.59375 12.309-24.863 18.633-52.258 18.473-80 0-74.688-42.727-135.46-95.367-135.95h-0.24609-0.38281c-52.941-0.046875-96.004 60.961-96.004 135.95 0 1.9844 0.12109 4 0.18359 5.9766-48.664-32.215-102.74-34.68-133.54-4.5039-0.17578 0.14453-0.32812 0.28125-0.48828 0.43359l-0.12109 0.10547v-0.003907c-14.598 15.191-22.426 35.641-21.711 56.695 0 33.785 16.648 71.199 44.656 101.6-47.375 14.848-80.57 48.23-80.93 87.062v0.23047 0.39062c0 52.938 61.008 96 136 96 63.832 0 117.38-31.238 131.95-73.168 6.5664 32 23.648 55.344 48.113 65.961l0.15234 0.070312c0.14453 0.0625 0.28125 0.15234 0.43359 0.21484l-0.003907 0.003906c8.9375 3.75 18.535 5.6562 28.227 5.6016 44.215 0 92.527-37.754 117.19-96 14.062-31.668 18.34-66.812 12.285-100.93zm-106.4-145.74c0 38.703-12.672 75.336-33.879 97.938-0.16016 0.16797-0.32812 0.30469-0.48828 0.46484-3.8555 3-7.6094 6.2891-11.281 9.7773-0.23828 0.16797-0.45703 0.375-0.69531 0.54297-0.13672 0.089844-0.25781 0.18359-0.38281 0.28906v-0.003907c-5.7266 3.9961-12.09 6.9961-18.816 8.8711 17.996-39.168 15.258-84.734-7.3047-121.46-18.023-36.406-18.777-78.973-2.0547-116 41.734 3.9453 74.902 56 74.902 119.59zm-92.945-118.28c-15.211 39.898-12.977 84.352 6.1602 122.52 10.691 17.27 16.551 37.094 16.965 57.398 0.41016 20.309-4.6328 40.352-14.613 58.043-4.6992-0.38672-9.3281-1.3906-13.766-2.9844-6.9883-32.898-23.605-62.973-47.738-86.398-4.4414-4.4414-8.7344-8.2656-13.031-11.793-0.66016-6.1445-1.0039-12.324-1.0312-18.504 0-59.543 29.09-108.95 67.055-118.28zm-78.629 147.08c5.0273 3.9727 9.8086 8.2461 14.316 12.801 23.023 22.062 38.477 50.848 44.145 82.23 3 16.207 0.49219 32.953-7.1172 47.574-14.957-40.461-49.133-70.777-91.09-80.797-38.508-13.008-69.152-42.602-83.496-80.633 28.418-23.367 80.137-15.887 123.24 18.824zm-98.824 125.94c-28.359-28.359-45.289-64.258-45.266-96-0.25781-12.301 2.8672-24.438 9.0312-35.086 17.449 38.988 50.473 68.855 91.008 82.32 38.871 9.1367 70.082 38.027 82.184 76.078-28.844-20.191-63.352-30.715-98.559-30.055-12.547 0.007812-25.059 1.2734-37.352 3.7695-0.35938-0.34375-0.71875-0.67188-1.0469-1.0273zm38.398 13.258c58.77 0 107.71 28.328 117.95 65.602-39.18-18.023-84.77-15.297-121.52 7.2695-36.41 18.027-78.98 18.781-116 2.0586 3.9336-41.762 55.988-74.93 119.57-74.93zm0 160c-59.543 0-108.95-29.09-118.28-67.055 17.254 6.6211 35.578 10.023 54.059 10.031 23.77-0.003906 47.211-5.5469 68.461-16.191 17.266-10.699 37.082-16.562 57.387-16.984 20.301-0.42188 40.348 4.6133 58.039 14.582-3.4805 42.09-55.734 75.617-119.66 75.617zm130.4-107.09c-4.0742-9.5469-9.8359-18.289-17.008-25.797 0.0625-0.046875 0.097656-0.12109 0.16016-0.16797 0.23828-0.23047 0.51172-0.40625 0.75391-0.64844 15.352-16.16 23.164-38.047 21.52-60.273 5.2969 1.293 10.727 1.9531 16.176 1.9766 3.8281-0.007812 7.6484-0.33203 11.426-0.97656-17.688 25.594-29.008 55.039-33.027 85.887zm17.207 46.625h0.003906c-5.3945-30.969-1.418-62.844 11.422-91.535 8.4375-20.281 20.695-38.746 36.105-54.398h0.0625c5.2539-3.7344 10.129-7.9727 14.555-12.656 14.574-11.707 32.52-18.438 51.199-19.203 3.3477 0.015624 6.6914 0.3125 9.9922 0.89062-30.676 31.727-46.547 74.918-43.715 118.96 3.2188 20.75 0.79688 41.984-7.0078 61.48-7.8047 19.496-20.703 36.535-37.352 49.332-17.625-9.293-30.137-27.773-35.262-52.871zm163.72-27.055c-23.754 56.121-70.695 91.297-110.4 85.648 33.039-29.887 48.895-74.352 42.215-118.4-2.5352-41.941 13.879-82.809 44.727-111.34 17.434 9.2969 29.77 27.672 34.863 52.559v0.003906c5.4023 30.965 1.4297 62.84-11.406 91.535z"/>
 </g>
</svg>
