<?xml version="1.0" encoding="UTF-8"?>
<svg width="512pt" height="512pt" version="1.1" viewBox="0 0 512 512" xmlns="http://www.w3.org/2000/svg">
 <g fill="#443f3c">
  <path d="m269.66 242.34c-3.1289-3.1289-8.1836-3.1289-11.312 0l-10.344 10.344-10.344-10.344c-3.1289-3.1289-8.1836-3.1289-11.312 0l-10.344 10.344-10.344-10.344c-3.1289-3.1289-8.1836-3.1289-11.312 0l-16 16c-1.5039 1.4961-2.3438 3.5273-2.3438 5.6562v64c0 4.4258 3.5859 8 8 8h96c4.4141 0 8-3.5742 8-8v-64c0-2.1289-0.83984-4.1602-2.3438-5.6562zm-61.656 77.656h-16v-52.688l8-8 8 8zm16 0v-52.688l8-8 8 8v52.688zm48 0h-16v-52.688l8-8 8 8z"/>
  <path d="m360 288h16v24h-16z"/>
  <path d="m360 328h16v24h-16z"/>
  <path d="m360 368h16v24h-16z"/>
  <path d="m360 408h16v24h-16z"/>
  <path d="m360 448h16v24h-16z"/>
  <path d="m375.76 54.062c-0.89062-3.5664-4.0898-6.0625-7.7617-6.0625s-6.8711 2.4961-7.7617 6.0625l-16.922 67.688-7.6016-27.855c-0.94531-3.4805-4.1055-5.8945-7.7148-5.8945s-6.7695 2.4141-7.7188 5.8945l-22.395 82.105h-3.1133l-22.773-136.66v-31.344h-16v24h-48v-24h-16v31.344l-22.777 136.66h-3.1133l-22.391-82.105c-0.94922-3.4805-4.1094-5.8945-7.7188-5.8945s-6.7695 2.4141-7.7188 5.8945l-24 88c-0.18359 0.67969-0.28125 1.3945-0.28125 2.1055v32c0 4.4258 3.5859 8 8 8h8v272c0 4.4258 3.5859 8 8 8h48c4.4141 0 8-3.5742 8-8v-19.07c0-32.648 18.727-62.168 48-76.152 29.273 13.977 48 43.504 48 76.152v19.07c0 4.4258 3.5859 8 8 8h112c4.4141 0 8-3.5742 8-8v-312c0-0.65625-0.078125-1.3047-0.23828-1.9375zm-7.7617 34.922 21.754 87.016h-31.648l-6.1914-22.695zm-248 119.02v-16h224v16zm208-81.594 13.527 49.594h-27.055zm-121.22-78.406h50.449l21.336 128h-93.121zm-70.777 78.406 13.527 49.594h-27.055zm99.152 258.24c-2.0156-0.85547-4.2891-0.85547-6.3047 0-36.969 15.848-60.848 52.062-60.848 92.281v11.07h-32v-264h192v264h-32v-11.07c0-40.219-23.879-76.434-60.848-92.281zm108.85 103.35v-264h8c4.4141 0 8-3.5742 8-8v-24h32v296z"/>
  <path d="m360 248h16v24h-16z"/>
 </g>
</svg>
