<?xml version="1.0" encoding="UTF-8"?>
<svg width="512pt" height="512pt" version="1.1" viewBox="0 0 512 512" xmlns="http://www.w3.org/2000/svg">
 <g fill="#443f3c">
  <path d="m420.57 141.01-8.2344-28.797c-0.13672-0.53125-0.38672-1.0234-0.72656-1.4531l-41.602-54.398c-1.1602-1.5078-3.1797-2.0664-4.9492-1.3672l-51.199 20.566c-0.84766 0.33594-1.5664 0.93359-2.0469 1.707l-17.41 27.434c-0.64063 1.0156-0.82813 2.2539-0.51172 3.4141l3.1133 11.094-22.871 10.156-29.867-27.391 0.003906-0.003906c-0.46094-0.37891-0.97656-0.67969-1.5352-0.89453l-16.598-5.4609c-1.8008-0.60547-3.7852 0.058593-4.8633 1.6211l-106.84 155.65-29.441 19.199c-0.99609 0.64844-1.6758 1.6836-1.8789 2.8594l-7.7656 45.055c-0.0625 0.45312-0.0625 0.91406 0 1.3672l4.5234 30.676-4.5664 84.137h0.003906c-0.074219 1.9727 1.2148 3.7383 3.1133 4.2695l31.062 8.5352 4.6523 6.1875-0.003907-0.003906c0.80469 1.0742 2.0703 1.707 3.4141 1.707 0.48047-0.003906 0.95703-0.09375 1.4062-0.25781l41.047-14.422 57.047-4.5234v0.003906c0.46875-0.042969 0.92969-0.16016 1.3633-0.34375l41.855-17.832 31.574 4.7344v8.2344c0.007812 1.7227 1.0508 3.2695 2.6445 3.9258 19.5 8.1055 21.332 8.1055 22.188 8.1055 0.85156 0 2.5586 0 15.105-4.2656 0.89453-0.3125 1.6602-0.91016 2.1758-1.707l67.797-103.38c1.0703-1.6484 0.875-3.8164-0.46875-5.25l-26.965-28.801c-0.80469-0.86719-1.9336-1.3594-3.1172-1.3633h-71.297c-0.63672-0.011719-1.2656 0.13672-1.832 0.42578l-17.066 8.0195 18.047-32.812 22.828-9.4297 30.594-4.8203-0.003906 0.003906c0.89062-0.14062 1.7109-0.55859 2.3477-1.1953l31.488-31.488 31.828-5.25c1.3555-0.23047 2.5156-1.1055 3.1133-2.3438l15.105-31.105c0.42578-1.0391 0.42578-2.2031 0-3.2422zm-6.0586 74.113-30.762 5.1211h-0.003906c-0.87109 0.14844-1.6758 0.56641-2.3008 1.1953l-31.574 31.488-29.867 4.6523v-0.003906c-0.33594 0.046875-0.66406 0.13281-0.98047 0.25781l-24.66 10.238h-0.003906c-0.90234 0.36328-1.6562 1.0273-2.1328 1.8789l-24.875 45.781c-0.91406 1.6484-0.63672 3.7031 0.68359 5.0508 1.3164 1.3477 3.3672 1.6719 5.0352 0.79297l27.902-13.312h68.398l23.383 25.004-64.984 99.285c-4.2656 1.5352-9.4297 3.0703-10.754 3.3711-2.0898-0.55469-9.5156-3.457-16.512-6.3164v-9.043c0.023438-2.1289-1.5234-3.9492-3.625-4.2695l-36.609-5.418c-0.79297-0.12109-1.6055-0.019531-2.3438 0.30078l-42.668 18.477-56.875 4.2656c-0.37891 0.042969-0.75 0.12891-1.1094 0.25391l-38.23 13.824-3.625-4.8203c-0.56641-0.74609-1.3594-1.2852-2.2617-1.5352l-29.141-8.1914 4.2656-81.066v-0.003907c0.042968-0.28125 0.042968-0.57031 0-0.85156l-4.2656-30.379 7.3398-42.668 28.586-18.645c0.46875-0.30078 0.875-0.69141 1.1914-1.1523l105.6-153.6 12.543 4.2656 31.359 28.672v0.003906c1.2578 1.1328 3.0664 1.418 4.6094 0.72656l28.801-12.801c1.918-0.87109 2.9141-3.0078 2.3477-5.0352l-3.5859-12.801 15.617-24.66 46.805-19.457 39.125 51.199 8.0625 28.246 15.449 44.289z"/>
  <path d="m139.14 251.01-11.137 16.469c-1.332 1.9453-0.83594 4.6016 1.1094 5.9297 0.71875 0.48438 1.5664 0.73828 2.4336 0.72656 1.3945 0 2.7031-0.6875 3.4961-1.8359l11.137-16.297c0.69531-0.94531 0.96875-2.1367 0.75781-3.2891-0.20703-1.1562-0.88281-2.1719-1.8672-2.8125-1.9453-1.332-4.5977-0.83594-5.9297 1.1094z"/>
  <path d="m227.8 121.98-79.02 115.2c-1.3281 1.9453-0.83203 4.5977 1.1094 5.9297 0.70703 0.47656 1.5391 0.73047 2.3906 0.72656 1.4102 0.011718 2.7383-0.67578 3.543-1.8359l78.848-115.2c0.65625-0.93359 0.91016-2.0898 0.70703-3.2109-0.20312-1.125-0.84766-2.1172-1.7891-2.7617-0.94141-0.64453-2.1016-0.88672-3.2188-0.66797-1.1211 0.21484-2.1094 0.87109-2.7422 1.8203z"/>
 </g>
</svg>
