<?xml version="1.0" encoding="UTF-8"?>
<svg width="512pt" height="512pt" version="1.1" viewBox="0 0 512 512" xmlns="http://www.w3.org/2000/svg">
 <g fill="#443f3c">
  <path d="m364.47 95.113c8.457 0.16406 15.449-6.5547 15.613-15.016 0.16406-8.457-6.5586-15.449-15.016-15.613-8.457-0.16406-15.449 6.5586-15.613 15.016s6.5586 15.449 15.016 15.613z"/>
  <path d="m475.8 257.98c-7.2578-17.266-20.941-26.852-32.102-22.219l-114.09 47.902c-8.0234-4.707-16.426-7.7734-24.629-9.8906 11.148-11.219 18.902-24.848 24.363-35.57 4.9922-9.7148 9.2656-19.863 12.707-30.176 1.2891-3.8398 2.4297-7.7266 3.5742-11.621l2.4844-8.2773c0.66406-2.0703 1.3633-4.2188 2.2656-5.6836 1.9883-2.9844 14.824-12.367 19.062-15.453 1.9727-1.4531 3.5742-2.625 4.6211-3.4531 10.875-9 22.965-16.695 28.629-18.543 0.75 2.2031 1.4805 4.4141 1.7773 7.0234l1.1406 9.4492c0.3125 2.4023 2.0625 4.3555 4.1602 5.5234 1.0664 0.57812 2.3008 0.85547 3.5742 0.85547 1.2539 0 2.5039-0.27734 3.6094-0.78125 0.40625-0.19141 1.8242-0.96875 2.1914-1.2344 12.34-8.8047 20.535-17.891 25.82-28.609 4.6406-9.4766 6.5742-19.551 5.7109-29.91-0.45703-5.7227-2.125-11.531-4.3906-17.555-0.027344-0.18359 0.03125-0.35937-0.011718-0.54687l-4.0703-18.242c-2.4844-9.457-16.445-29.605-38.859-35.582-16.098-4.3086-35.344-8.0312-56.043-3.3438-15.34 3.5078-28.914 10.379-40.312 20.426l-2.8711 2.5508c-7.6055 6.75-25.453 22.562-31.668 27.285-6.5938 5-13.25 9.9062-19.918 14.816l-11.172 8.25c-0.91016 0.67969-1.9414 1.5703-3.4023 2.8555-14.285 8.8711-30.469 19.277-42.941 29.641-13.934 11.586-24.566 21.887-33.25 32.176-53.316 57.613-133.26 250.38-129.42 262.09 0.84766 2.5977 3.0469 4.5312 5.7383 5.0469 0.48047 0.09375 0.95703 0.14844 1.4453 0.14844 2.1992 0 4.3203-0.97656 5.7734-2.6875 3.8945-4.6055 13.934-16.262 21.098-24.551 5.0547-5.8555 10.277-11.398 15.82-16.777 5.8008-5.6367 12.945-12.543 16.324-15.637 2.4609-2.2539 5.0781-4.4961 7.6328-6.7422l-63.539 98.734c-1.4844 2.3008-1.6016 5.2305-0.3125 7.6445 1.2891 2.4141 3.7734 3.9414 6.5117 3.9961l41.859 0.82812h0.14844c2.7266 0 5.2383-1.4727 6.5742-3.8672l18.887-33.652 142.72-59.922c-0.98047 4.4805-2.1797 9.0547-3.7891 13.68-0.97656 2.8164-0.21094 5.9297 1.9414 7.9727 1.4258 1.3438 3.2969 2.0625 5.1836 2.0625 0.96875 0 1.9414-0.18359 2.8711-0.57031 11.746-4.8398 25.57-22.328 31.344-38.91l39.422-16.551c0.48438 1.1523 1.0469 2.1953 1.5039 3.3789 1.0664 2.7812 3.6641 4.6602 6.6133 4.8242 0.14844 0 0.29687 0.019531 0.42578 0.019531 2.8008 0 5.3945-1.5664 6.7031-4.0703 1.6484-3.1758 2.6445-7.3711 3.2773-11.926l114.68-48.148c0.98828-0.41797 1.8281-1.0312 2.5234-1.7656 2.5977-1.793 4.8242-4.1445 6.1719-7.4609 3.1484-7.6797 2.3594-18.609-2.0977-29.246zm-13.926 5.8555c4.4336 10.527 2.6406 17.816 1.5352 18.68-0.007812 0.003906-0.015625 0-0.023437 0.003906-1.7305-0.070312-7.9102-3.5547-12.355-14.137-4.4336-10.57-2.6172-17.859-1.5312-18.695l0.015625-0.007812c0.035156-0.007813 0.082031-0.007813 0.13281-0.007813 1.6953 0.003906 7.8984 3.8711 12.227 14.164zm-267.73 53.152c5.9961 0 12.191-0.074219 15.84-0.3125 4.9688-0.32031 9.9102-1.1406 14.855-1.8867 0.035156 0.046876 0.039062 0.10938 0.078125 0.15625 2.5898 3.2734 4.6953 6.5664 6.6523 9.8828l-62.832 26.379 19.219-34.242c1.9688 0.011718 4.0391 0.023437 6.1875 0.023437zm77.66-17.988c5.3477-3.082 11.996-7.3008 19.176-12.879 13.609 2.543 27.672 6.3945 39.363 16.336 4.6211 3.9414 7.8086 13.848 9.1172 23.832-9.7969-15.156-22.672-26.41-36.539-23.941-2.043 0.38672-3.8477 1.6016-4.9727 3.3516-0.9375 1.4531-1.3242 3.1875-1.1406 4.8789-8.2109-5.6328-16.77-9.207-25.004-11.578zm71.297-4.6211 90.074-37.836c0.10547 5.4688 1.3516 11.516 3.9297 17.688 2.6172 6.2188 6.1641 11.188 10.035 15.102l-92.324 38.762c-1.1172-12.785-5.1055-25.75-11.715-33.715zm88.332-163.81c-2.8555 5.8008-6.9414 11.078-12.504 16.141-0.79297-4.332-2.1328-8.3125-3.9531-11.965-0.30469-0.70313-0.79687-1.3164-1.3203-1.9141-1.5352-2.6797-3.1172-5.332-5.2422-7.5938-2.2266-2.3867-2.9453-4.7031-2.4844-8.0195 1.4922-10.367 4.9727-17.719 10.957-23.133 4.2344-3.832 8.3594-5.5703 12.543-5.9688 3.7188 7.5781 5.7109 14.062 6.2266 20.434 0.64062 7.7266-0.76172 14.926-4.2227 22.02zm-149.86-36.246c6.668-5.0664 24.145-20.562 32.543-28.012l2.8555-2.5156c9.4844-8.3711 20.828-14.098 33.684-17.035 17.461-3.9688 34.477-0.61719 48.785 3.2031 15.707 4.1836 25.723 18.152 27.684 23.723-7.3984 0.33594-14.16 3.5898-20.371 9.207-8.6172 7.7891-13.758 18.316-15.746 32.184-0.89453 6.2578 0.37109 11.871 3.6055 16.809-7.0469 2.9805-16.648 8.8516-30.016 19.914l-4.0703 3.0117c-12.781 9.3477-20.238 15.25-22.984 19.688-1.8789 3.0469-2.9453 6.3633-3.8125 9.0508-0.90234 2.8633-1.7305 5.7461-2.5781 8.6172-1.0859 3.7031-2.1719 7.4141-3.3906 11.066-3.2227 9.5938-7.1992 19.043-11.844 28.094-5.4336 10.645-12.32 22.848-22.375 32.652-15.285 14.938-32.137 23.758-36.934 26.113-0.71094 0.35156-1.2969 0.73828-1.8047 1.1406l-0.12891-0.16406c-0.91016 0.48047-1.8125 0.95703-2.7812 1.3633-6.9141 2.9297-14.484 5.1016-23.133 6.668-6.5273 1.1602-13.141 2.082-19.754 2.5039-1.4531 0.09375-3.4258 0.16406-5.6641 0.20313 12.578-8.1602 23.996-16.539 34.641-25.398 9.8086-8.1484 34.484-30.441 51.98-61.348 6.8867-13.48 11.473-26.465 14.016-39.688 2.6719-13.832 2.8555-26.086 0.58984-37.477-2.6875-13.406-7.8828-22.902-16.371-29.883-4.5508-3.7383-9.6484-6.1719-15.211-7.2578 2.8789-2.125 5.7344-4.2695 8.5859-6.4336zm-193.22 272.23c-3.4531 3.168-10.746 10.184-16.656 15.93-3.7305 3.6289-7.3281 7.3281-10.828 11.125 22.992-58.512 70.195-168.17 112.2-213.57 8.3242-9.8516 18.363-19.559 31.602-30.562 11.406-9.4844 26.984-19.535 39.816-27.523 1.4062-0.40625 2.5859-0.91797 3.2383-1.2891 6.8789-3.8672 12.902-5.7539 18.832-5.4609 4.5859 0.10938 8.5352 1.5742 12.07 4.4844 5.6523 4.6406 9.1914 11.371 11.141 21.18 1.8984 9.4375 1.6953 19.797-0.58984 31.668-2.2656 11.805-6.4102 23.473-12.488 35.387-16.125 28.465-39.184 49.281-48.352 56.906-13.617 11.336-28.621 21.871-45.867 32.258-2.1641 1.3086-4.2266 2.8164-6.2344 4.2891l-2.1367 1.5469c-7.9258 4.0391-16.887 9.457-24.762 15.012-5.3984 3.8164-10.57 7.5938-15.621 11.355-0.046875 0.03125-0.09375 0.070312-0.14062 0.10156-16.723 12.477-31.656 24.723-45.219 37.164zm-1.8789 100.41-23.84-0.48047 80.844-125.63c4.7227-3.5078 9.5352-7.0273 14.574-10.586 2.5508-1.8047 5.3633-3.5547 8.1289-5.3086zm70.234-94.332 81.273-34.117c2.6406 8.0781 3.6094 16.496 3.0039 25.535-0.25 3.6094 2.0898 6.8672 5.5703 7.8086 1.7695 0.44922 3.5508 0.26563 5.0898-0.43359l-123.32 51.773zm94.961-1.2188c1.5352-0.70312 2.8281-1.918 3.6172-3.5352l5.3516-10.922c0.58594 2.9258 0.71484 6.5391 0.61719 10.434zm24.141 5.7305c2.3008-17.902-0.16406-34.863-12.43-41.859-1.8125-0.99609-3.9414-1.2539-5.957-0.66406-1.6406 0.51562-3.0469 1.5664-4.0078 2.9453-2.4453-8.9531-6.9414-17.461-12.613-25.781 2.2852-0.57422 4.5859-1.1641 6.7539-1.8398 5.543 0.52734 10.621 1.4023 15.422 2.5195 0.23828 0.45703 0.38672 0.94922 0.72656 1.3633 9.1367 11.066 17.93 23.48 20.523 39.266 0.97266 5.9844-2.9844 15.578-8.418 24.051zm23.309-25.652c-0.03125-0.26172 0.03125-0.57031-0.011719-0.82812-1.6055-9.8164-5.1367-18.488-9.5195-26.242 5.4805 4.0078 10.551 8.5586 14.844 14.383 2.1562 2.9102 6.0391 3.9023 9.3008 2.3398 3.2617-1.5273 4.9727-5.1562 4.0898-8.6562l-3.0195-11.934c4.7227 3.668 9.7891 10.242 14.465 18.281z"/>
 </g>
</svg>
