<?xml version="1.0" encoding="UTF-8"?>
<svg width="512pt" height="512pt" version="1.1" viewBox="0 0 512 512" xmlns="http://www.w3.org/2000/svg">
 <g fill="#443f3c">
  <path d="m352.38 432.38h-185.41c-3.2344 0-5.8555-2.625-5.8555-5.8633 0-3.2305 2.6211-5.8516 5.8555-5.8516h185.41c3.2344 0 5.8555 2.6211 5.8555 5.8516 0 3.2422-2.6211 5.8633-5.8555 5.8633z"/>
  <path d="m275.98 119.45c-3.082 0-5.5742-2.5-5.5742-5.5703v-5.1133h-21.477v5.1133c0 3.0781-2.4922 5.5703-5.5703 5.5703-3.082 0-5.5742-2.5-5.5742-5.5703v-10.684c0-3.082 2.4922-5.5703 5.5742-5.5703h32.621c3.082 0 5.5703 2.4922 5.5703 5.5703v10.684c0 3.0703-2.4883 5.5703-5.5703 5.5703z"/>
  <path d="m286.25 142.36c-3.0781 0-5.5742-2.4922-5.5742-5.5742v-11.137h-42.02v11.137c0 3.082-2.4922 5.5742-5.5742 5.5742-3.0781 0-5.5742-2.4922-5.5742-5.5742v-16.711c0-3.0781 2.5-5.5703 5.5742-5.5703h53.172c3.0781 0 5.5703 2.5 5.5703 5.5703v16.711c-0.003906 3.0781-2.4961 5.5742-5.5742 5.5742z"/>
  <path d="m286.53 143.64h-53.328c-3.0781 0-5.5703-2.4922-5.5703-5.5742 0-3.0781 2.4922-5.5742 5.5703-5.5742h53.324c3.082 0 5.5742 2.5 5.5742 5.5742 0.003906 3.0781-2.4961 5.5742-5.5703 5.5742z"/>
  <path d="m244.25 258.64c-3.082 0-5.5703-2.4922-5.5703-5.5703v-113.35c0-3.0781 2.4883-5.5742 5.5703-5.5742 3.082 0 5.5742 2.5 5.5742 5.5742v113.34c0.003906 3.0859-2.4922 5.5781-5.5742 5.5781z"/>
  <path d="m275.08 258.64c-3.082 0-5.5703-2.4922-5.5703-5.5703v-113.35c0-3.0781 2.4883-5.5742 5.5703-5.5742s5.5742 2.5 5.5742 5.5742v113.34c-0.003906 3.0859-2.4961 5.5781-5.5742 5.5781z"/>
  <path d="m283.17 269.18c-3.0859 0-5.5742-2.4922-5.5742-5.5742v-3.3125h-35.852v3.3125c0 3.082-2.4922 5.5742-5.5742 5.5742-3.0781 0-5.5703-2.4922-5.5703-5.5742v-8.8906c0-3.0781 2.4922-5.5703 5.5703-5.5703h47c3.0781 0 5.5703 2.5 5.5703 5.5703v8.8867c0 3.0859-2.5 5.5781-5.5703 5.5781z"/>
  <path d="m296.71 302.28c-3.082 0-5.5742-2.4883-5.5742-5.5703v-14.875h-62.941v14.875c0 3.082-2.4922 5.5703-5.5742 5.5703s-5.5742-2.4883-5.5742-5.5703v-20.449c0-3.0781 2.4922-5.5703 5.5742-5.5703h74.09c3.0781 0 5.5742 2.4922 5.5742 5.5703v20.449c0 3.082-2.4961 5.5703-5.5742 5.5703z"/>
  <path d="m326.57 311.57c-3.082 0-5.5742-2.4922-5.5742-5.5742v-1.4609h-122.65v1.1328c0 3.082-2.4922 5.5703-5.5742 5.5703-3.0781 0-5.5742-2.4883-5.5742-5.5703v-6.7109c0-3.0703 2.5-5.5703 5.5742-5.5703h133.8c3.0781 0 5.5742 2.5 5.5742 5.5703v7.0391c0 3.0781-2.5 5.5742-5.5742 5.5742z"/>
  <path d="m326.29 326.69h-133.24c-3.082 0-5.5742-2.4922-5.5742-5.5742 0-3.0781 2.4922-5.5703 5.5742-5.5703h133.24c3.082 0 5.5742 2.4922 5.5742 5.5703 0 3.0742-2.4922 5.5742-5.5703 5.5742z"/>
  <path d="m202.3 425.06c-3.082 0-5.5742-2.4922-5.5742-5.5742v-95.609c0-3.0781 2.4922-5.5742 5.5742-5.5742 3.0781 0 5.5703 2.5 5.5703 5.5742v95.605c0 3.0781-2.4961 5.5781-5.5703 5.5781z"/>
  <path d="m320.33 425.06c-3.0781 0-5.5703-2.4922-5.5703-5.5742v-95.609c0-3.0781 2.4922-5.5742 5.5703-5.5742 3.082 0 5.582 2.5 5.582 5.5742v95.605c0 3.0781-2.5 5.5781-5.582 5.5781z"/>
  <path d="m251.93 423.95c-3.082 0-5.5703-2.5-5.5703-5.5742v-16.582c0-3.6289-2.9609-6.5859-6.5898-6.5859s-6.5898 2.9531-6.5898 6.5859v16.582c0 3.0781-2.4922 5.5742-5.5742 5.5742-3.082 0-5.5742-2.5-5.5742-5.5742v-16.582c0-9.7773 7.9609-17.73 17.742-17.73 9.7773 0 17.734 7.9531 17.734 17.73v16.582c-0.003906 3.0703-2.4961 5.5742-5.5781 5.5742z"/>
  <path d="m289.92 423.95c-3.0781 0-5.5703-2.5-5.5703-5.5742v-16.582c0-3.6289-2.9609-6.5859-6.5898-6.5859-3.6289 0-6.5859 2.9531-6.5859 6.5859v16.582c0 3.0781-2.5 5.5742-5.5742 5.5742-3.082 0-5.5742-2.5-5.5742-5.5742v-16.582c0-9.7773 7.957-17.73 17.734-17.73 9.7773 0 17.742 7.9531 17.742 17.73v16.582c-0.003906 3.0703-2.5 5.5742-5.582 5.5742z"/>
  <path d="m225.96 376.56c-3.0781 0-5.5742-2.4922-5.5742-5.5703l-0.003906-7.1133c0-3.082 2.5-5.5703 5.5742-5.5703 3.082 0 5.5742 2.4883 5.5742 5.5703v7.1133c0.003906 3.0742-2.4961 5.5703-5.5703 5.5703z"/>
  <path d="m225.96 352.73c-3.0781 0-5.5742-2.4922-5.5742-5.5703v-9.3594c0-3.082 2.5-5.5703 5.5742-5.5703 3.082 0 5.5742 2.4883 5.5742 5.5703v9.3594c0 3.0742-2.5 5.5703-5.5742 5.5703z"/>
  <path d="m249.32 376.56c-3.0781 0-5.5742-2.4922-5.5742-5.5703v-33.188c0-3.082 2.5-5.5703 5.5742-5.5703 3.082 0 5.5742 2.4883 5.5742 5.5703v33.188c0 3.0742-2.4922 5.5703-5.5742 5.5703z"/>
  <path d="m274.68 376.56c-3.082 0-5.5742-2.4922-5.5742-5.5703v-33.188c0-3.082 2.4922-5.5703 5.5742-5.5703 3.0781 0 5.5703 2.4883 5.5703 5.5703v33.188c0 3.0742-2.4961 5.5703-5.5703 5.5703z"/>
  <path d="m295.06 376.56c-3.0781 0-5.5742-2.4922-5.5742-5.5703v-7.3594c0-3.082 2.5-5.5742 5.5742-5.5742 3.082 0 5.5703 2.4922 5.5703 5.5742v7.3594c0.003906 3.0742-2.4922 5.5703-5.5703 5.5703z"/>
  <path d="m295.06 352.49c-3.0781 0-5.5742-2.5-5.5742-5.5742v-9.1133c0-3.082 2.5-5.5703 5.5742-5.5703 3.082 0 5.5703 2.4883 5.5703 5.5703v9.1133c0.003906 3.0703-2.4922 5.5742-5.5703 5.5742z"/>
  <path d="m259.84 104.46c-1.543 0-2.7852-1.25-2.7852-2.7852v-18.949c0-1.543 1.2461-2.7891 2.7852-2.7891 1.543 0 2.7852 1.25 2.7852 2.7891v18.949c0 1.543-1.2422 2.7852-2.7852 2.7852z"/>
  <path d="m268.4 90.891h-17.113c-1.5352 0-2.7852-1.2461-2.7852-2.7852v-5.7031c0-1.543 1.25-2.7852 2.7852-2.7852 1.5469 0 2.7852 1.25 2.7852 2.7852v2.918h11.539v-2.918c0-1.543 1.2461-2.7852 2.7852-2.7852 1.543 0 2.7852 1.25 2.7852 2.7852v5.7031c0.003906 1.5391-1.2422 2.7852-2.7812 2.7852z"/>
  <path d="m244.75 172.32c-0.80859 0-1.6211-0.35937-2.1758-1.043-0.96094-1.2031-0.76172-2.9531 0.43359-3.918l20.023-16.02c1.2031-0.96094 2.9531-0.76172 3.9219 0.43359 0.96094 1.2031 0.75781 2.9531-0.43359 3.918l-20.023 16.02c-0.51563 0.41406-1.1328 0.60937-1.7461 0.60937z"/>
  <path d="m245.39 191.42c-0.82031 0-1.6289-0.35938-2.1875-1.043-0.96094-1.2031-0.76172-2.9648 0.44141-3.9219l30.184-24.078c1.2031-0.96094 2.9609-0.75781 3.918 0.44141 0.96094 1.2031 0.76172 2.9609-0.43359 3.918l-30.188 24.078c-0.51562 0.41016-1.1289 0.60547-1.7344 0.60547z"/>
  <path d="m258.4 198.14c-0.87109 0-1.7305-0.41016-2.2734-1.1719-0.89062-1.2578-0.58984-2.9961 0.66406-3.8867l16.531-11.695c1.2461-0.88672 2.9844-0.58984 3.8828 0.67188 0.89062 1.2539 0.58984 2.9883-0.66406 3.8828l-16.531 11.688c-0.48828 0.34766-1.0508 0.51172-1.6094 0.51172z"/>
  <path d="m244.43 229.64c-0.8125 0-1.6328-0.35938-2.1875-1.0547-0.96094-1.1992-0.75781-2.9531 0.44141-3.9102l30.184-24.078c1.207-0.96094 2.9648-0.76172 3.9219 0.43359 0.96094 1.2031 0.76172 2.9609-0.44141 3.918l-30.184 24.078c-0.51172 0.41406-1.1328 0.61328-1.7344 0.61328z"/>
  <path d="m245.07 248.73c-0.82422 0-1.6328-0.35938-2.1914-1.043-0.95703-1.207-0.75781-2.9648 0.44141-3.9219l30.184-24.074c1.207-0.96094 2.9648-0.76172 3.9219 0.43359 0.96094 1.207 0.76172 2.9648-0.43359 3.9219l-30.188 24.074c-0.51562 0.41406-1.1289 0.60938-1.7344 0.60938z"/>
 </g>
</svg>
