<?xml version="1.0" encoding="UTF-8"?>
<svg width="512pt" height="512pt" version="1.1" viewBox="0 0 512 512" xmlns="http://www.w3.org/2000/svg">
 <g fill="#443f3c">
  <path d="m504 408v-16h-19.238l-201.91-372.47c-3.6953-7.1133-10.984-11.527-18.992-11.527-7.7344 0-14.895 4.1914-18.68 10.945l-65.543 117.05h-67.488c-22.785 0-43.113 13.609-51.793 34.672l-44.352 107.74v12.895l32.969 32.969c3.7188 3.7188 5.9766 8.4727 6.7031 13.602-19.121 9.2656-31.672 28.68-31.672 50.289v60.039c-9.6562 7.3047-16 18.777-16 31.793v24h96v-16h8c13.23 0 24-10.77 24-24v-8h32v8c0 13.23 10.77 24 24 24h8v16h96v-24c0-13.016-6.3438-24.488-16-31.793v-40.207zm-244.86-381.23c1.9609-3.4805 7.625-3.5039 9.5938 0.26562l59.062 108.96h-55.84v16h64.512l60.711 112h-60.535v16h69.215l26.016 48h-111.87v16h120.54l26.016 48h-186.56v-3.832c0-17.566-8.2812-33.742-21.641-44.168h29.641v-16h-36.008c0.87891-1.3203 1.8945-2.5664 3.0391-3.7188l32.969-32.969v-12.895l-25.695-62.418h33.938v-16h-40.527l-12.07-29.328c-7.9219-19.23-25.586-32.113-45.922-34.238l27.125-48.434h47.152v-16h-38.191zm-59.137 303.21-16-1.3359v-9.3047c6.0234-3.4961 11.426-7.9531 16-13.152zm-80-1.3359-16 1.3359v-23.785c4.5742 5.1992 9.9766 9.6484 16 13.152zm-16-80.641v-8c0-13.23 10.77-24 24-24h48c13.23 0 24 10.77 24 24v24c0 26.473-21.527 48-48 48s-48-21.527-48-48zm87.848-96c16.039 0 30.344 9.4727 36.68 24.152l-30.512 30.512c-6.3203-4.1914-13.879-6.6641-22.016-6.6641h-16v-48zm-55.848 173.89c5.1289 1.3281 10.465 2.1055 16 2.1055s10.871-0.77734 16-2.1055v10.105c0 8.8242-7.1758 16-16 16s-16-7.1758-16-16zm80-61.895v-24c0-8.1367-2.4727-15.695-6.6641-22.023l25.84-25.84 32.879 79.863h-36.055v16h36.688l-24.969 24.969c-7.5508 7.5508-11.719 17.598-11.719 28.289v33.375c-9.3125-3.3047-16-12.199-16-22.633zm-103.85-112h31.848v48h-16c-8.168 0-15.754 2.4805-22.09 6.6953l-30.68-30.09c6.2422-14.949 20.707-24.605 36.922-24.605zm-76.84 136h36.688v-16h-36.055l32.703-79.441 25.977 25.48c-4.1602 6.3125-6.625 13.848-6.625 21.961v112c0 10.434-6.6875 19.328-16 22.633v-33.375c0-10.688-4.168-20.734-11.719-28.289zm52.688 200h-64v-8c0-13.23 10.77-24 24-24v16h16v-16c13.23 0 24 10.77 24 24zm192 0h-64v-8c0-13.23 10.77-24 24-24v16h16v-16c13.23 0 24 10.77 24 24zm-24-48h-16c-19.312 0-35.473 13.77-39.191 32h-8.8086c-4.4141 0-8-3.5859-8-8v-24h-64v24c0 4.4141-3.5859 8-8 8h-8.8086c-3.7188-18.23-19.871-32-39.191-32h-16c-2.7344 0-5.4141 0.28125-8 0.80859v-52.648c0-12.793 6.1289-24.551 16-31.977v35.816h8c22.055 0 40-17.945 40-40v-5.9766l17.32-1.4414c3.7773 13.465 16.023 23.418 30.68 23.418s26.902-9.9531 30.68-23.414l17.32 1.4375v5.9766c0 22.055 17.945 40 40 40h8v-35.809c9.8711 7.4258 16 19.184 16 31.977v52.648c-2.5859-0.53516-5.2656-0.81641-8-0.81641z"/>
  <path d="m296 232h48v16h-48z"/>
  <path d="m312 296h48v16h-48z"/>
  <path d="m288 168h16v16h-16z"/>
  <path d="m320 168h16v16h-16z"/>
  <path d="m232 104h16v16h-16z"/>
  <path d="m264 104h16v16h-16z"/>
  <path d="m408 360h16v16h-16z"/>
  <path d="m376 360h16v16h-16z"/>
  <path d="m344 360h16v16h-16z"/>
 </g>
</svg>
