<?xml version="1.0" encoding="UTF-8"?>
<svg width="512pt" height="512pt" version="1.1" viewBox="0 0 512 512" xmlns="http://www.w3.org/2000/svg">
 <g fill="#443f3c">
  <path d="m310.82 80.445c-0.40234 0.93359-0.50391 1.1758-0.30469 0.72266h-7.7734c12.438 17.766 24.879 35.531 37.316 53.297 10.82 15.453 21.641 30.91 32.461 46.363 1.4023 2.0039 3.9102 2.9297 6.1562 1.6133 1.9844-1.1641 3.0234-4.1445 1.6133-6.1562-12.645-18.059-25.285-36.117-37.93-54.172-10.617-15.16-21.23-30.324-31.848-45.488-1.7148-2.4492-6.2852-3.3711-7.7734 0-0.20703 0.46875-0.46484 0.94531-0.60156 1.4258-1.6172 5.5859 7.0703 7.957 8.6836 2.3945z"/>
  <path d="m439.44 276.41c14.301 20.426 28.598 40.848 42.898 61.273 2.1758 3.1055 4.3516 6.2148 6.5273 9.3203 1.2969-2.2578 2.5898-4.5156 3.8867-6.7734h-45.266c-5.8047 0-5.8047 9 0 9h45.266c3.1992 0 5.8906-3.9062 3.8867-6.7734-14.301-20.426-28.598-40.848-42.898-61.273-2.1758-3.1055-4.3516-6.2148-6.5273-9.3203-1.4023-2.0039-3.9102-2.9297-6.1562-1.6133-1.9883 1.168-3.0273 4.1484-1.6172 6.1602z"/>
  <path d="m217.87 194.3c15.414-18.789 30.828-37.574 46.242-56.363 13.402-16.336 26.801-32.668 40.207-49 1.3594-1.6562 2.7188-3.3125 4.0781-4.9688 1.1523-1.4062 2.5898-2.8047 2.5898-4.7461-0.44141 1.0586-0.87891 2.1211-1.3164 3.1836 0.046875-0.054687 0.097656-0.11328 0.14453-0.16797-2.3555-1.8164-4.7109-3.6367-7.0664-5.4531-7.4141 17.172-14.824 34.344-22.238 51.516-11.52 26.684-23.039 53.367-34.555 80.051-2.3438 5.4297-4.6875 10.859-7.0312 16.289h7.7734c-0.015624-0.019531-0.027343-0.039062-0.042968-0.058593-1.4648-1.9609-3.8594-2.9609-6.1562-1.6133-1.9375 1.1328-3.0859 4.1875-1.6133 6.1562 0.015626 0.019532 0.027344 0.039063 0.042969 0.058594 1.7578 2.3516 6.2812 3.457 7.7734 0 9.4414-21.871 18.883-43.738 28.32-65.609 7.7969-18.055 15.59-36.113 23.383-54.168 4.0391-9.3594 8.082-18.719 12.121-28.078 0.81641-1.8906 0.85547-3.8945-0.70313-5.4531-1.6367-1.6367-4.7656-1.8633-6.3633 0-0.85938 1.0039-1.4648 1.9922-1.4648 3.3633 0.44141-1.0586 0.87891-2.1211 1.3164-3.1836-11.98 14.598-23.957 29.195-35.934 43.793-17.871 21.781-35.742 43.566-53.609 65.348-0.75 0.91406-1.5 1.8281-2.25 2.7422-1.5547 1.8945-1.8594 4.5039 0 6.3633 1.5938 1.6055 4.7969 1.8984 6.3516 0z"/>
  <path d="m272.21 326.48c8.3203-11.551 4.0352-27.852-0.74609-39.914-3.3477-8.4492-7.5234-16.766-12.59-24.328v4.543c2.6211-4.0273 5.2461-8.0508 7.8672-12.078 1.1953-1.832 0.51562-3.8984-0.70313-5.4531-3.4453-4.3867-6.8906-8.7695-10.336-13.152-2.3086-2.9375-4.6172-5.875-6.9258-8.8125-0.69922-0.88672-1.3945-1.7773-2.0938-2.6641-0.18359-0.23438-0.36719-0.46875-0.55078-0.69922-0.78125-0.99219 2.0703 2.6289-0.19922-0.25781-7.7578-9.8711-15.516-19.746-23.27-29.617-10.988-13.988-21.977-27.977-32.965-41.965-1.7266-2.1992-5.8984-1.5156-7.0664 0.91016-0.046874 0.097656-0.09375 0.19141-0.14062 0.28906-2.1211 4.3984 3.3906 9.3906 7.0664 5.4531 0.046875-0.050781 0.09375-0.097656 0.14062-0.14844-2.3555-1.8164-4.7109-3.6367-7.0664-5.4531-6.8477 14.137-13.695 28.27-20.539 42.406-13.887 28.664-27.77 57.328-41.656 85.996-10.941 22.586-21.879 45.168-32.82 67.754-1.3164 2.7188-2.6328 5.4336-3.9492 8.1484-1.4531 3 0.27344 6.7734 3.8867 6.7734h58.695 90.48 17.031c5.8047 0 5.8047-9 0-9h-58.695-90.48-17.031c1.2969 2.2578 2.5898 4.5156 3.8867 6.7734 6.8477-14.137 13.695-28.27 20.539-42.406 13.887-28.664 27.77-57.328 41.656-85.992 10.941-22.586 21.879-45.168 32.82-67.754 1.3164-2.7148 2.6328-5.4336 3.9492-8.1484 2.1328-4.4023-3.3945-9.3867-7.0664-5.4531-0.046875 0.050781-0.09375 0.097656-0.14062 0.14844 2.3555 1.8164 4.7109 3.6367 7.0664 5.4531 0.046875-0.097657 0.09375-0.19141 0.14062-0.28906-2.3555 0.30469-4.7109 0.60547-7.0664 0.91016 13.504 17.191 27.012 34.387 40.52 51.578 4.0195 5.1172 8.0391 10.234 12.062 15.352 1.0781 1.3711 2.1562 2.7461 3.2344 4.1172 1.2734 1.6211-1.5469-1.9688 0.46875 0.60156 0.23438 0.29688 0.46875 0.59375 0.69922 0.89453 6.4492 8.2109 12.902 16.422 19.352 24.633-0.23438-1.8164-0.46875-3.6367-0.70312-5.4531-2.6211 4.0273-5.2461 8.0508-7.8672 12.078-0.82812 1.2695-0.84766 3.2773 0 4.543 4.4141 6.5859 8.3438 14.094 11.273 21.16 2.4102 5.8203 4.5977 12.566 5.2383 18.418 0.65234 5.9648 0.14062 10.977-3.1719 15.578-1.4375 1.9922-0.35156 5.0078 1.6133 6.1562 2.2617 1.3164 4.7227 0.35547 6.1523-1.6289z"/>
  <path d="m182.63 153.13c-6.8477 14.137-13.695 28.27-20.539 42.406-13.887 28.664-27.77 57.328-41.656 85.996-10.941 22.586-21.879 45.168-32.82 67.754-1.3164 2.7188-2.6328 5.4336-3.9492 8.1484 1.2969-0.74219 2.5898-1.4844 3.8867-2.2266h-0.066407c1.2969 2.2578 2.5898 4.5156 3.8867 6.7734 6.8594-14.16 13.719-28.324 20.578-42.484 13.898-28.691 27.797-57.387 41.695-86.078 10.918-22.539 21.836-45.078 32.754-67.617 0.96094-1.9844 1.9219-3.9648 2.8828-5.9492 0.24609-0.50391 0.48828-1.0078 0.73438-1.5117 0.41406-0.85156 0.24219-0.35156-0.3125 0.24219 3.9531-4.2383-2.3984-10.613-6.3633-6.3633-1.0234 1.0977-1.543 2.5078-2.1914 3.8438-1.3672 2.8203-2.7344 5.6406-4.0977 8.4648-4.8633 10.039-9.7266 20.082-14.59 30.121-13.867 28.629-27.734 57.254-41.602 85.883-11.035 22.785-22.074 45.566-33.109 68.352-1.3828 2.8516-2.7617 5.6992-4.1406 8.5508-1.4531 3 0.27344 6.7734 3.8867 6.7734h0.066406c1.4883 0 3.2109-0.83594 3.8867-2.2266 6.8477-14.137 13.695-28.27 20.539-42.406 13.887-28.664 27.77-57.328 41.656-85.992 10.941-22.586 21.879-45.168 32.82-67.754 1.3164-2.7148 2.6328-5.4336 3.9492-8.1484 2.5039-5.2109-5.2578-9.7734-7.7852-4.5508z"/>
  <path d="m83.672 357.43c-0.023437 0.046875-0.046875 0.089844-0.066406 0.13672 1.6953-0.6875 3.3867-1.3789 5.082-2.0664-22.262-8.3242-44.523-16.648-66.785-24.973-0.48438-0.17969-0.96875-0.36328-1.4531-0.54297 0.66016 2.5078 1.3242 5.0156 1.9844 7.5234 10.129-10.836 20.262-21.672 30.391-32.508 21.41-22.902 42.82-45.805 64.23-68.707 19.223-20.559 38.441-41.121 57.664-61.684 4.9961-5.3438 9.9922-10.68 14.984-16.027 3.9531-4.2383-2.3984-10.613-6.3633-6.3633-9.9883 10.703-19.992 21.387-29.992 32.078-21.363 22.852-42.727 45.703-64.094 68.559-19.309 20.656-38.621 41.309-57.93 61.965-5.0859 5.4414-10.172 10.879-15.254 16.316-2.4492 2.6211-1.1875 6.3359 1.9844 7.5234 22.262 8.3242 44.523 16.648 66.785 24.973 0.48438 0.17969 0.96875 0.36328 1.4531 0.54297 1.7812 0.66406 4.2422-0.39453 5.082-2.0664 0.023438-0.046875 0.046875-0.089843 0.066406-0.13672 2.5938-5.1719-5.168-9.7305-7.7695-4.543z"/>
  <path d="m142.69 328.74h69.059 0.375c5.8047 0 5.8047-9 0-9h-69.059-0.375c-5.8047 0-5.8047 9 0 9z"/>
  <path d="m224.3 288.64h-20.094c-5.8047 0-5.8047 9 0 9h20.094c5.8047 0 5.8047-9 0-9z"/>
  <path d="m166.8 266.54h30.859c5.8047 0 5.8047-9 0-9h-30.859c-5.8047 0-5.8047 9 0 9z"/>
  <path d="m342.7 127.78c-5.2695 2.082-10.539 4.1641-15.805 6.2422h2.3906c-13.602-4.875-27.207-9.75-40.812-14.625-5.4766-1.9609-7.8125 6.7344-2.3906 8.6797 10.703 3.8359 21.41 7.6719 32.113 11.508 2.3398 0.83984 4.6797 1.6758 7.0195 2.5156 1.5117 0.54297 2.8477 1.0859 4.4961 0.43359 5.1289-2.0234 10.254-4.0508 15.379-6.0742 2.2812-0.90234 3.8477-2.9766 3.1445-5.5352-0.59766-2.1719-3.25-4.0469-5.5352-3.1445z"/>
  <path d="m394.69 189.31c13.594 20.855 27.188 41.711 40.781 62.566 3.2305 4.957 6.4609 9.9102 9.6914 14.867v-4.543c-6.4375 9.6289-11.703 20.516-15.148 31.574-1.9219 6.1641-3.1562 12.789-2.6992 19.262 0.20703 2.9453 0.78906 5.8633 1.9062 8.5977 1.3594 3.3242 3.4961 6 5.5273 8.9297 2.3555-1.8164 4.7109-3.6367 7.0664-5.4531-13.477-10.617-29.34-15.805-45.641-20.285-0.38281-0.10547-0.76562-0.21484-1.1484-0.32812-0.16016-0.046875-0.32422-0.097656-0.48438-0.14844-0.80078-0.25391 0.91016 0.48047-0.14844-0.058594-0.22266-0.12109-0.44141-0.25391-0.64844-0.39844 0.38281 0.31641 0.37109 0.30469-0.027344-0.039063-0.54688-0.46875-1.0195-1.0234-1.4766-1.5742 0.37891 0.46094-0.56641-0.875-0.66016-1.0234-0.45703-0.71484-0.85938-1.4609-1.25-2.2148-0.81641-1.5625-1.3008-2.7695-1.9023-4.3867-1.7461-4.6875-3.0234-9.6016-3.9375-14.52-0.44922-2.4141-3.3242-3.75-5.5352-3.1445-2.5117 0.69141-3.5898 3.125-3.1445 5.5352 0.91406 4.9258 2.2266 9.8086 3.9375 14.52 2.2617 6.2266 5.5781 13.75 12.402 15.977 5.8164 1.8984 11.809 3.1758 17.613 5.1562 9.0977 3.1094 18.102 7.3164 25.688 13.293 1.6133 1.2695 3.5508 1.8164 5.4531 0.70312 1.9922-1.168 3.0156-4.1367 1.6133-6.1562-1.6602-2.3945-3.5469-4.6523-4.8203-7.2852-1.0312-2.1328-1.3477-4.6797-1.4609-7.0156-0.28516-5.7773 1.1484-11.5 2.9023-16.953 3.1562-9.8281 8.0664-19.445 13.797-28.02 0.84766-1.2656 0.82812-3.2734 0-4.543-13.594-20.855-27.188-41.711-40.781-62.566-3.2305-4.957-6.4609-9.9102-9.6914-14.867-3.1602-4.8398-10.953-0.33594-7.7734 4.543z"/>
  <path d="m258.87 266.79c13.102-20.109 26.203-40.223 39.309-60.332 3.8125-5.8516 7.6289-11.707 11.441-17.559 3.1797-4.8789-4.6172-9.3828-7.7734-4.543-13.398 20.562-26.793 41.125-40.191 61.684-3.5195 5.4023-7.0391 10.805-10.559 16.207-3.1758 4.8789 4.6211 9.3867 7.7734 4.543z"/>
  <path d="m339.89 180.76c7.5352-1.0312 17.148-0.92578 25.324 0.17188 2.4375 0.32812 4.5-2.293 4.5-4.5 0-2.6992-2.0703-4.1758-4.5-4.5-9.1641-1.2305-18.566-1.1016-27.715 0.15234-2.4336 0.33203-3.7266 3.4102-3.1445 5.5352 0.71484 2.5938 3.1055 3.4727 5.5352 3.1406z"/>
  <path d="m375.8 282.52c1.3438 7.2227 3.4336 14.484 6.7461 21.055 1.9531 3.875 4.8359 7.6992 9.0352 9.2461 3.043 1.1211 6.2969 1.7578 9.4141 2.6328 11.352 3.1875 22.375 7.5156 32.102 14.281 2.7617 1.9219 4.2148 4.6328 5.8945 7.5117 1.5117 2.582 2.8594 5.2695 3.918 8.0703 2.4609 6.5078 2.9375 13.27 3.0156 20.164 0.058593 5.2227 0.007812 10.449 0.011718 15.668l4.5-4.5h-35.328-19.473c-7.4102 0-14.297 1.6211-19.48 7.4062-4.7656 5.3203-5.5898 11.711-5.5898 18.512 0 5.0078-0.23828 10.074 0.050782 15.078l4.5-4.5h-46.586l4.5 4.5c0.35547-6.1289 0.050782-12.34 0.050782-18.477 0-11.461-8.5117-21.289-20.027-22.402-4.1094-0.39844-8.3438-0.11719-12.461-0.11719h-23.504-23.512l4.5 4.5c0-12.129-1.1055-24.91 3.2656-36.457 0.98828-2.6055 2.3359-5.0781 3.7148-7.4922 0.85547-1.4961 1.7773-2.9492 2.7148-4.3945 1.0781-1.6641 2.3086-2.5273 3.9336-3.6484 5.2734-3.6484 11.078-6.5742 17.023-8.9531 4.9766-1.9922 10.102-3.5977 15.266-5.0352 4.2969-1.1953 8.75-1.8711 12.324-4.6914 3.4961-2.7617 5.4609-7.4023 7.1172-11.391 1.625-3.9023 2.7891-8 3.7773-12.105 0.35547-1.4766 0.67969-2.9648 0.95703-4.457 0.44922-2.4102-0.62891-4.8438-3.1445-5.5352-2.2109-0.60938-5.0859 0.73047-5.5352 3.1445-1.2656 6.8047-3.1133 13.898-6.3281 19.816-1.0117 1.8633-1.4688 2.5703-2.9023 3.8984-0.94141 0.875 0.67578-0.42187-0.35156 0.24609-0.18359 0.12109-1.2578 0.54297-0.25781 0.17578-1.2734 0.46875-2.6289 0.76172-3.9414 1.1094-4.5039 1.1992-8.9844 2.4609-13.402 3.9492-6.0156 2.0312-11.91 4.5039-17.527 7.4648-2.8672 1.5117-5.6289 3.2148-8.293 5.0586-1.4453 1-2.832 2.082-4.2148 3.1641-1.5273 1.1992-2.6758 3.8477-3.7031 5.4844-3.5273 5.6523-6.3594 11.797-7.8945 18.293-1.4258 6.0273-1.5938 12.316-1.5977 18.484-0.003906 4.6211-0.003906 9.2461-0.003906 13.867 0 2.4531 2.0469 4.5 4.5 4.5h35.383 19.27c1.3828 0 2.7695-0.027344 4.1484 0.050781 4.9102 0.28516 8.8203 3.9062 10.805 8.1562 1.5859 3.3945 0.89844 8.2969 0.89844 11.93 0 3.9414 0.17578 7.9219-0.050781 11.859-0.14062 2.4492 2.1562 4.5 4.5 4.5h46.586c2.3438 0 4.6406-2.0508 4.5-4.5-0.35547-6.1289-0.050782-12.34-0.050782-18.477 0-7.6641 5.8633-13.52 13.523-13.52h39.18 18.172c2.4531 0 4.5-2.0469 4.5-4.5-0.007812-11.918 0.92969-24.441-2.5781-35.98-1.9141-6.293-5.1875-12.137-8.7969-17.594-3.6758-5.5664-11.008-9.1289-16.863-12.055-9.3984-4.6953-19.418-7.7148-29.527-10.426-0.63281-0.17188-1.2656-0.34375-1.8945-0.52734-0.25-0.070312-0.5-0.14844-0.74609-0.22656-0.80078-0.25391 0.91016 0.48047-0.14844-0.058594-0.89844-0.45703-1.9844-1.7383-2.8125-3.0352-2.3281-3.6367-3.5859-7.5117-4.8203-11.691-0.91406-3.0977-1.6797-6.25-2.2695-9.4258-0.44922-2.4141-3.3242-3.75-5.5352-3.1445-2.5117 0.69531-3.5898 3.1289-3.1445 5.5391z"/>
  <path d="m324.09 398.73v17.41c0 7.7812-6.2734 13.242-13.812 13.242h-39.516-18.973-3.043c-4.9688 0-9.2148-2.7695-11.613-7.043-1.5859-2.8281-1.4688-5.9492-1.4688-9.0703v-11.512c0-3.1719-0.03125-6.1484 1.4688-9.0703 2.25-4.3789 6.7578-6.9492 11.613-7.043 11.449-0.21875 22.926 0 34.375 0h21.543c4.7109 0 9.2852-0.45312 13.5 2.1211 3.7773 2.3125 5.8398 6.6406 5.9258 10.965 0.11328 5.7969 9.1133 5.8086 9 0-0.23047-12.023-9.9023-22.082-22.098-22.082h-11.746-44.773c-5.7188 0-11-0.03125-16.309 2.6992-5.2773 2.7109-9.0547 7.9102-10.711 13.512-0.96875 3.2773-0.78906 6.7617-0.78906 10.137 0 7.7695-0.97656 16.09 2.4023 23.312 3.7852 8.0938 12.422 12.078 20.969 12.078h40.867 17.934c1.8516 0 3.6289-0.027344 5.4805-0.28516 6.1953-0.86328 11.301-4.4258 14.949-9.3867 3.6328-4.9414 3.8281-10.836 3.8281-16.672v-13.309c-0.003906-5.8086-9.0039-5.8086-9.0039-0.003906z"/>
  <path d="m468 398.73v17.41c0 7.6953-6.1992 13.242-13.699 13.242h-39.152-19.219-3.2695c-4.9023 0-9.1289-2.7031-11.535-6.9023-1.6484-2.8711-1.543-6.0312-1.543-9.2109v-11.512c0-3.1719-0.03125-6.1484 1.4688-9.0703 2.2461-4.3789 6.7539-6.9492 11.609-7.043 11.449-0.21875 22.926 0 34.375 0h21.543c4.7148 0 9.2852-0.45312 13.504 2.1211 3.7734 2.3125 5.8359 6.6406 5.918 10.965 0.11328 5.7969 9.1133 5.8086 9 0-0.23047-12.027-9.9062-22.082-22.102-22.082h-11.746-44.773c-5.7188 0-10.996-0.03125-16.305 2.6992-5.2773 2.7109-9.0547 7.9102-10.711 13.512-0.96875 3.2773-0.78906 6.7617-0.78906 10.137 0 7.8125-0.98828 16.195 2.4648 23.441 3.8633 8.1055 12.496 11.949 21.062 11.949h41.176 17.66c8.3047 0 15.41-2.9375 20.359-9.8438 3.5234-4.9219 3.707-10.727 3.707-16.5v-13.309c-0.003906-5.8086-9.0039-5.8086-9.0039-0.003906z"/>
  <path d="m364.55 180.81c10.664 1.5469 21.102 4.6953 30.996 8.9375-0.53906-0.53906-1.0742-1.0781-1.6133-1.6133 0.25781 0.38672 0.50781 0.78125 0.76172 1.1719-0.20312-0.75781-0.41016-1.5156-0.61328-2.2695-1.1133 18.113-2.375 36.223-4.0508 54.297-0.69922 7.5312-1.4492 15.121-2.5156 22.574-0.38672 2.6953-0.82031 5.3828-1.3945 8.043-0.21094 0.98047-0.45313 1.9531-0.75 2.9102-0.097657 0.32031-0.21484 0.63672-0.33594 0.94922 0.54297-1.3984 0.17188-0.42188-0.050781-0.085938 0.53906-0.53906 1.0742-1.0742 1.6133-1.6133-2.375 1.2109-4.9062 2.0234-7.6445 2.8789 1.8438 1.0469 3.6914 2.0938 5.5352 3.1445-0.011719-0.066407-0.027344-0.13281-0.039063-0.19922-0.28125-1.4414-1.7227-2.8398-3.1445-3.1445-2.5078-0.53516-4.4492 0.070312-6.8594 0.70312-2.7148 0.71484-5.4648 1.2773-8.2266 1.7539-6.4297 1.1133-13 1.3984-19.512 1.168-6.1172-0.21875-12.234-1.0352-18.168-2.5547-2.8789-0.73828-5.707-1.6641-8.4766-2.7383-0.92578-0.35938-1.0625-0.38672-2.2891-1.0117l1.6133 1.6133c-0.125-0.1875-0.23047-0.37891-0.32812-0.58203 0.070312 0.14062 0.36719 1.0039-0.003907-0.11328-0.32422-0.96875-0.55859-1.9688-0.78125-2.9648-0.66016-2.9531-1.1094-5.9531-1.5352-8.9492-1.0508-7.3789-1.9844-17.016-2.7344-25.312-1.5352-17.039-2.7227-34.109-3.7734-51.18-0.20312 0.75781-0.41016 1.5156-0.61328 2.2695 0.16406-0.25 0.32812-0.49609 0.48828-0.74609l-1.6133 1.6133c10.027-4.2852 20.586-7.4727 31.395-9.0039-1.8984-1.4453-3.7969-2.8945-5.6953-4.3398v17.008c0 5.2617 3.0781 9.6758 8.2266 11.09 2.9258 0.80469 6.5547 0.30469 9.5312 0.30469 2.9102 0 5.9805 0.27344 8.8711-0.19922 5.3789-0.875 8.8906-5.7266 8.8906-11.012v-17.184c0-5.8047-9-5.8047-9 0v15.324c0 1.5352 0.41406 3.9531-1.7695 4.0703-2.3164 0.125-4.6719 0-6.9922 0h-6.9688c-2.0977 0-1.793-2.3008-1.793-3.7305v-15.672c0-3.207-2.8555-4.7422-5.6953-4.3398-6.1953 0.875-12.277 2.3125-18.25 4.1602-3.0508 0.94141-6.0547 2.0156-9.0312 3.1641-3.1094 1.1992-6.4766 2.0586-8.3633 4.9453-1.0508 1.6094-0.5 4.1133-0.38672 5.9375 0.11719 1.8828 0.23828 3.7656 0.36328 5.6484 0.28516 4.3438 0.58203 8.6914 0.89063 13.035 1.3633 19.16 2.7266 38.398 5.4727 57.418 0.55078 3.8008 1.0469 7.7734 2.3203 11.418 0.62891 1.7969 1.418 3.4648 3.2344 4.3242 3.168 1.5039 6.4961 2.6797 9.8477 3.6953 18.105 5.4727 38.574 4.7695 56.609-0.59375h-2.3906c0.36719 0.078125 0.73437 0.15625 1.1055 0.23828l-3.1445-3.1445c0.011719 0.066406 0.027344 0.13281 0.039063 0.19922 0.46094 2.3516 3.3242 3.832 5.5352 3.1445 2.8633-0.89453 5.6523-1.9375 8.4062-3.1367 1.4375-0.625 2.6133-1.375 3.3398-2.8633 1.3906-2.8633 1.9141-6.0977 2.4492-9.2031 1.9258-11.152 2.9062-22.496 3.9102-33.762 1.1953-13.426 2.1602-26.867 3.0391-40.316 0.19141-2.9141 0.375-5.8281 0.55469-8.7422 0.19531-3.1797-2.082-5.3047-4.7734-6.4375-5.2031-2.1914-10.504-4.1133-15.922-5.7148-5.0469-1.4883-10.199-2.6055-15.406-3.3594-2.4258-0.35156-4.8242 0.55859-5.5352 3.1445-0.58594 2.1406 0.71484 5.1836 3.1445 5.5352z"/>
 </g>
</svg>
