<?xml version="1.0" encoding="UTF-8"?>
<svg width="512pt" height="512pt" version="1.1" viewBox="0 0 512 512" xmlns="http://www.w3.org/2000/svg">
 <path d="m98.148 119.98c-8.3516 0-15.145 6.793-15.145 15.145 0 8.3516 6.793 15.145 15.145 15.145 8.3516 0 15.145-6.793 15.145-15.145-0.003907-8.3477-6.793-15.145-15.145-15.145zm0 22.16c-3.8711 0-7.0156-3.1484-7.0156-7.0156 0-3.8672 3.1484-7.0156 7.0156-7.0156 3.8672 0 7.0156 3.1484 7.0156 7.0156 0 3.8711-3.1484 7.0156-7.0156 7.0156zm-51.98-4.9102c0.96094 2.0273 0.09375 4.4492-1.9336 5.4102l-9.6875 4.5898c-0.5625 0.26563-1.1523 0.39063-1.7344 0.39063-1.5234 0-2.9805-0.85938-3.6758-2.3242-0.96094-2.0273-0.09375-4.4492 1.9336-5.4102l9.6875-4.5898c2.0273-0.96094 4.4492-0.097657 5.4102 1.9336zm445.73 210.93c-11.305-6.7852-24.734-12.719-33.031-15.594-3.9648-1.375-10.168-2.5859-19.16-4.043 0.46875-1.0586 0.88281-2.1367 1.2305-3.2383 3.1016-9.7773 2.1602-19.902-1.4531-29.922 7.957-7.7734 11.895-17.301 11.691-28.371-0.027343-1.5234-0.90234-2.8984-2.2656-3.5703-9.0977-4.4844-17.699-6.4922-25.691-6.0195 3.0625-6.207 4.1445-12.953 3.2031-20.156-0.21875-1.6797-1.4609-3.0508-3.1133-3.4336-8.0664-1.8672-15.379-1.6094-21.867 0.71875 1.7773-7.4102 1.9297-14.652 0.4375-21.625-0.38672-1.8008-1.9297-3.1133-3.7695-3.207-7.793-0.39453-14.918 1.0234-21.305 4.207 1.0859-7.9062-0.32031-15.828-4.2344-23.676-0.68359-1.3672-2.0742-2.2383-3.6016-2.25-8.4922-0.078124-15.707 1.8125-21.562 5.6172 0.21484-8.2891-1.6172-16.293-5.5-23.906-0.82812-1.6289-2.6406-2.5-4.4297-2.1367-7.3359 1.4961-13.559 4.668-18.621 9.4609-0.64453-7.1055-2.7344-14.062-6.2617-20.805-0.95312-1.8203-3.1133-2.6484-5.0391-1.9141-7.9219 3-14.625 7.9961-20.039 14.902-1.2305-8.3594-3.6719-15.914-7.3203-22.562-1.0625-1.9336-3.4766-2.668-5.4336-1.6523-7.5977 3.9414-13.961 9.3711-19.039 16.207-0.77344-7.543-2.7852-14.957-6.0391-22.172-0.84766-1.8828-2.9766-2.8281-4.9414-2.1992-8.0859 2.5859-15.434 6.9805-21.957 13.121 0.96094-8.9727 0.31641-17.973-1.9414-26.895-0.49609-1.9648-2.3711-3.2578-4.3789-3.043-7.0234 0.76562-13.594 2.6094-19.652 5.4609 1.7773-7.4297 2.5781-15.488 2.3516-24.102-0.035156-1.2539-0.64453-2.418-1.6523-3.1641-1.0078-0.74219-2.3047-0.98047-3.5117-0.64062-8.6055 2.418-16.441 7.0234-23.426 13.715 0.027343-6.168-1.1758-12.336-3.6211-18.457-0.83203-2.082-3.1914-3.0938-5.2773-2.2695-9.5664 3.8047-17.645 10.195-24.062 19.02-1.1211-1.043-2.2344-2.1328-3.3633-3.25-6.9727-6.875-14.875-14.664-29.695-14.664-21.5 0-89.617 28.195-99.312 43.66-9.3906 14.996-5.8711 33.453 8.1875 42.949 8.5703 5.7852 23.316 6.1641 37.582 6.5273 0.65234 0.015625 1.293 0.035156 1.9375 0.050782 15.469 11.328 28.215 29.547 39.484 45.676 12.574 17.996 23.43 33.539 36.215 38.094 15.984 5.6953 32.496 2.4336 42.223-0.60938-2.0273 3.668-5.4219 8.0117-11.023 11.461-4.9844 3.0703-16.918 2.4648-27.449 1.9297-16.836-0.85156-32.746-1.6641-35.199 9.7578-0.71094 3.3086 0.054687 6.4141 2.2148 8.9805 2.1602 2.5703 5.7031 4.3984 9.8203 5.6992-7.8359 2.5312-12.77 6.2852-12.77 12.508 0 3.6484 1.4961 6.7773 4.3281 9.0469 4.8047 3.8477 13.281 4.6758 21.34 4.3789-9.375 6.3945-19.309 14.898-20.867 23.023-0.72656 3.7773 0.25391 7.3164 2.8281 10.23 2.3867 2.7031 5.7109 4.0547 10.012 4.0547 4.3633 0 9.7344-1.3984 16.145-4.1914 33.379 10.625 76.344 16.16 122.16 16.16 22.953 0 46.625-1.3906 70.152-4.2188 25.586-3.0781 63.023-9.6055 89.227-22.922 13.836 2.8398 22.418 5.625 25.484 8.2812 6.7031 5.8047 6.3359 19.625 6.0117 31.82-0.35938 13.383-0.69531 26.023 9.4219 27.605 0.60547 0.09375 1.207 0.14063 1.7969 0.14063 2.6055 0 5.0625-0.91016 7.1914-2.6758 5.8281-4.8281 8.4453-15.895 9.6172-24.277 7.3633 8.4414 18.422 18.379 26.348 13.293 1.9727-1.2656 3.2266-3.2344 3.625-5.6914 1.0391-6.3984-4.5586-16.543-9.75-24.309 5.3555 1.1758 11.27 1.6445 15.332-0.44531 2.5859-1.3281 4.2891-3.5273 4.9219-6.3594 1.5039-6.7305-4.8164-14.078-19.887-23.121zm-48.887-78.535c-0.35156 6.707-2.6758 12.52-7.0312 17.609-3.6797-7.3633-8.6172-14.602-14.266-21.531 6.4727-0.8125 13.602 0.49609 21.297 3.9219zm-24.402-28.461c0.21484 5.7305-1.2734 10.949-4.5 15.816-4.2891-4.625-8.8047-9.0586-13.355-13.246 5.1133-2.8281 11.008-3.6797 17.855-2.5703zm-26.141-4.7578c-0.21094-0.17969-0.42188-0.36328-0.63281-0.53906-5.082-4.3047-10.254-8.4258-15.402-12.328 5.3008-3.6836 11.258-5.5859 18.047-5.7656 0.77344 6.0156 0.09375 12.172-2.0117 18.633zm-26.105-40.246c3 7.0742 3.4883 14.016 1.4727 21.047-6.918-4.957-13.676-9.4766-20.012-13.48 4.5703-4.6953 10.684-7.1914 18.539-7.5664zm-30.336-19.871c2.9961 7.0352 3.9453 14.277 2.8711 21.949-7.3008-4.3477-13.707-7.8203-18.727-10.285 3.9805-5.8164 9.207-9.668 15.855-11.664zm-29.004-12.91c2.957 6.7422 4.2344 13.547 3.875 20.605-5.9766-2.0508-12.938-3.668-20.27-5.0156 4.3008-7.1445 9.7109-12.293 16.395-15.59zm-32.109-9.1211c3 6.7031 4.75 14.406 5.2461 22.977-5.8047-0.875-11.652-1.6445-17.25-2.3789-1.8906-0.24609-3.7617-0.49219-5.6016-0.73828 4.2422-8.5625 10.047-15.117 17.605-19.859zm-31.18-8.4219c3.4219 8.8125 4.7617 17.688 4.0664 26.938-6.4648-0.98828-12.023-2.0508-15.734-3.332-3.4297-1.1875-7.1719-3.1523-10.906-5.4961 6.4414-8.5273 14.012-14.605 22.574-18.109zm-30.668 12.5c-5.1602-3.8906-9.8086-7.9453-13.012-10.992-1.5469-4.5664-3.2188-8.5703-4.957-11.734 5.6641-3.543 11.82-5.8594 18.668-7.0234 1.9688 9.875 1.7266 19.848-0.69922 29.75zm-22.035-51.148c-0.21875 7.3516-1.2969 14.176-3.1953 20.414-4.207-2.418-10.086-3.9141-16.484-5.2656 5.875-7.0938 12.375-12.098 19.68-15.148zm-30.223-7.3203c2.0273 6.8398 2.1992 13.574 0.53516 20.406-6.1289-1.3047-12.004-2.793-16.152-5.0039-0.39453-0.21094-0.78125-0.44141-1.1641-0.67188 4.6406-6.4453 10.258-11.387 16.781-14.73zm-55.184 195.02c-0.53516-0.63672-0.66797-1.1914-0.48438-2.0391 1-4.6562 15.938-3.9023 26.844-3.3477 12.848 0.65234 24.988 1.2695 32.121-3.125 8.5898-5.2891 13.086-12.328 15.387-17.539 4.0547 4.0156 10.531 9.8164 18.922 15.414-4.6406 2.5703-9.9414 5.2969-15.965 8.168-9.3242 4.4414-25.359 6.25-40.871 8-0.87891 0.097656-1.75 0.19531-2.6172 0.29688-11.496 0.42969-29.348-1.082-33.336-5.8281zm4.5508 64.738c-0.90625-1.0273-1.1875-2.0156-0.9375-3.3164 1.6133-8.4062 21.574-21.328 33.777-27.496 1.8281-0.92578 2.6836-3.0664 1.9922-4.9961-0.69141-1.9297-2.7109-3.0391-4.7109-2.5977-11.109 2.4766-29.137 4.0586-34.43-0.1875-0.91016-0.73047-1.2812-1.5156-1.2812-2.707 0-1.9102 3.5234-3.9336 9.6719-5.543 7.4102-1.9414 17.523-3.082 28.23-4.2891 16.176-1.8242 32.902-3.7109 43.457-8.7383 32.254-15.371 48.609-28.535 48.609-39.125 0-12.203-16.176-20.172-18.02-21.039-2.0312-0.95312-4.4453-0.085938-5.4023 1.9414-0.95703 2.0273-0.089843 4.4492 1.9336 5.4102 3.4648 1.6445 13.359 7.6836 13.359 13.688 0 3.4922-5.6445 10.086-20.137 19.023-15.594-9.6328-25.328-21.09-25.426-21.207-1.1914-1.4219-3.1953-1.8516-4.8672-1.0547-0.23438 0.10938-23.586 11.051-44.621 3.5586-10.34-3.6836-20.996-18.941-32.281-35.094-9.5078-13.609-20.039-28.664-32.605-40.332 1.3906 0.13672 2.7188 0.30469 3.9609 0.50781 7.4141 1.2344 14.672 5.1719 21.688 8.9727 7.3828 4.0039 14.355 7.7812 21.48 8.5391 13.664 1.4531 26.27-3.2812 26.797-3.4844 2.0938-0.80078 3.1445-3.1445 2.3477-5.2383-0.79688-2.0977-3.1406-3.1445-5.2383-2.3555-0.11328 0.042968-11.367 4.2383-23.047 2.9961-5.5234-0.58594-11.809-3.9961-18.465-7.6055-7.6055-4.125-15.469-8.3867-24.227-9.8438-5.8828-0.98047-13.012-1.1641-20.562-1.3555-12.484-0.32031-26.637-0.68359-33.242-5.1406-0.99609-0.67188-1.8984-1.418-2.75-2.1992 28.027-4.4531 56.383-1.8477 84.383 7.7969 0.4375 0.14844 0.88672 0.22266 1.3242 0.22266 1.6875 0 3.2617-1.0586 3.8438-2.7422 0.73047-2.1211-0.39844-4.4336-2.5195-5.1641-30.617-10.539-61.66-13.023-92.32-7.4375-2.9961-6.8008-2.418-15.004 2.1914-22.359 7.4688-11.918 72.254-39.848 92.426-39.848 11.488 0 17.281 5.7109 23.988 12.324 3.8008 3.7461 7.7344 7.625 12.824 10.332 6.375 3.3945 15.145 5.1641 23.625 6.8789 8.1914 1.6523 17.473 3.5273 20.492 6.5469 5.8789 5.875 14.883 36.172 14.883 62.402 0 17.332-6.9258 34.836-11.059 43.73-0.94531 2.0352-0.0625 4.4531 1.9727 5.3984 0.55469 0.25781 1.1367 0.37891 1.707 0.37891 1.5312 0 3-0.87109 3.6875-2.3516 4.4141-9.5 11.812-28.258 11.812-47.152 0-11.602-1.75-24.844-4.4648-36.688 7.043 5.6992 16.629 12.508 25.375 15.535 7.1758 2.4844 18.891 4.0156 32.445 5.793 16.445 2.1523 35.082 4.5938 47.715 9.2109 11.398 4.168 46.879 24.418 77.012 49.945 25.969 22.004 55.141 53.879 46.617 80.762-5.0273 15.855-29.742 29.473-68.43 38.5-0.67188-9.3164-4.0664-17.336-10.133-23.957 8.2305-2.4961 15.098-5.2031 19.77-8.1055 18.098-11.254 14.953-28.031 10.762-35.328-1.1133-1.9375-3.5781-2.6016-5.5234-1.5039-1.9453 1.1016-2.6289 3.5781-1.5391 5.5273 0.66797 1.1953 5.2266 10.07-1.3086 18.555-4.6953-1.2969-9.7227-3.6367-11.215-6.332-5.8438-10.578 6.6602-34.801 11.969-43.246 1.1953-1.8984 0.625-4.4062-1.2734-5.6055-1.8984-1.1953-4.4062-0.625-5.6055 1.2734-2.2188 3.5195-21.398 34.867-12.207 51.504 2.2695 4.1055 6.9414 6.8203 11.152 8.5312-6 3.5781-16.5 7.0703-30.211 10.379-18.547-3.9102-24.281-7.1484-25.816-9.1836-8.3438-11.066-3.6953-53.832-1.1992-69.379 0.35547-2.2148-1.1523-4.3008-3.3672-4.6562-2.2148-0.35156-4.3008 1.1523-4.6562 3.3672-0.51172 3.1836-3.0078 19.449-3.5547 36.484-5.0234 1.0859-15.945 3.1641-29.117 3.9648 11.148-8.6367 19.039-18.457 19.039-29.418 0-32.262-58.613-52.195-61.109-53.027-2.1367-0.71484-4.4297 0.44141-5.1406 2.5664-0.71094 2.1289 0.4375 4.4297 2.5664 5.1406 15.453 5.168 55.559 23.383 55.559 45.316 0 19.824-39.77 38.289-63.527 49.324-8.4375 3.918-15.098 7.0117-18.406 9.3984-10.734 7.7461-18.617 24.66-21.305 31.023-3.1133 0.21094-6.2227 0.41406-9.3164 0.60547l6.5977-20.723c0.54297-1.7109-0.097656-3.5781-1.582-4.5938-1.4844-1.0078-3.457-0.92969-4.8516 0.20703-24.363 19.82-54.309 36.672-60.035 30.184zm176.68-8.5938c5.4922 5.4766 8.332 12.141 8.6211 20.246-4.5352 0.33984-9.0664 0.625-13.582 0.85938-0.73438-7.1562-3.4648-13.605-8.1562-19.281 0.75-0.10156 1.5156-0.19922 2.2617-0.29688 3.5273-0.48047 7.1602-0.98828 10.855-1.5273zm-98.285 2.2695c3.293-7.0391 9.4453-18.434 16.859-23.781 2.6797-1.9336 9.3516-5.0312 17.074-8.6172 11.191-5.1953 24.734-11.488 36.797-18.836 0.63672 0.007813 1.2734 0.019532 1.9062 0.019532 17.094 0 32.023-2.543 39.512-4.0859 0.14453 12.629 1.7305 24.57 6.3828 30.742 2.3555 3.1211 6.8477 5.7031 14.484 8.1484-35.742 6.9883-84.832 12.848-133.02 16.41zm51.461 19.473c-4.7695-0.10547-9.4961-0.27734-14.18-0.50781-0.34375-4.8516-1.6602-9.3867-3.9297-13.566 4.4258-0.41797 8.8281-0.85156 13.203-1.3047 3.3945 4.4844 5.0156 9.5547 4.9062 15.379zm105.54-32.875c7.082 6.082 10.738 13.707 11.137 23.184-5.6641 1.1719-11.578 2.2578-17.758 3.2383-0.82031-8.4297-3.9492-16.031-9.332-22.719 5.5586-1.1641 10.922-2.3984 15.953-3.7031zm-184.21 15.172c-4.7891 0.26953-9.543 0.51172-14.242 0.72656 6.6484-4.1094 12.93-8.4961 17.871-12.113zm51.477 4.457c2.7305 3.7188 4.3125 7.7773 4.8008 12.27-21.84-1.4258-42.496-4.2148-61.098-8.3164 18.539-0.95703 37.547-2.3008 56.297-3.9531zm35.312 13.359c0.10547-5.9922-1.2188-11.5-3.9688-16.457 6.6133-0.72656 13.137-1.4844 19.535-2.2852 5.8945 5.2734 9.1992 11.312 10.031 18.352-8.6094 0.32422-17.156 0.45312-25.598 0.39062zm73.426-4.1484c-5.9961 0.72266-11.996 1.3438-17.996 1.875-0.35547-7.9883-2.793-15.012-7.2539-21.008 8.0039-1.25 16.145-2.6328 24.062-4.1484 6.3359 6.3594 9.793 13.621 10.508 22.062-3.0547 0.42578-6.1523 0.83984-9.3203 1.2188zm182.27 0.76562c-0.10547 0.46875-0.26953 0.68359-0.70312 0.90625-3.6367 1.875-14.512-1.1367-20.707-3.7578-1.7188-0.73047-3.707-0.19531-4.8281 1.2891-1.125 1.4844-1.0938 3.5469 0.074219 5 0.046875 0.0625 4.9414 6.1602 9.2578 13.09 7.0312 11.281 6.3945 14.805 6.2695 15.242-2.4961 1.4062-12.68-6.8359-21.754-19.332-1.0195-1.4062-2.8203-2.0039-4.4805-1.5-1.6602 0.50781-2.8125 2.0156-2.8711 3.75-0.29297 8.8711-2.6172 24.488-7.6055 28.617-0.82422 0.68359-1.5898 0.91016-2.5508 0.76172-3.0586-0.47656-2.7656-11.391-2.5547-19.359 0.37109-14 0.79687-29.863-8.8164-38.184-3.4375-2.9766-9.9219-5.5742-20.488-8.1602 5.2305-3.543 9.6836-7.4766 13.074-11.84 8.2539 1.2969 16.848 2.7656 21.039 4.2188 7.8984 2.7344 20.703 8.3984 31.508 14.883 13.93 8.3555 16.379 13.301 16.137 14.375z" fill="#443f3c"/>
</svg>
