<?xml version="1.0" encoding="UTF-8"?>
<svg width="512pt" height="512pt" version="1.1" viewBox="0 0 512 512" xmlns="http://www.w3.org/2000/svg">
 <g fill="#443f3c">
  <path d="m503.94 324.3c-2.1094-3.2461-5.875-3.6172-9.1992-3.9453-1.2852-0.13281-3.6953-0.37109-4.1602-0.58203-3.4414-3.4258-3.4023-5.5156-3.3164-9.6797 0.046875-2.6406 0.11719-5.9219-1.0234-9.8711-1.2227-3.6797-5.4102-6.7031-16.18-13.793-2.7109-1.7891-6.293-4.1445-7.7734-5.3398-2.207-3.9844-2.5273-5.4414-2.6641-5.4414l-0.007812 0.007812c0.15625-0.27734 0.37109-0.51953 0.58203-0.8125 1.6797-2.207 4.4727-5.8984 4.4727-14.188 0-12.824-7.2773-25.27-14.305-37.297-5.5781-9.5391-10.848-18.559-12.195-26.547-0.50391-5.6406 3.6641-10.918 8.0742-16.504 2.9922-3.7891 6.0898-7.7109 7.6953-11.98 0.21875-0.58984 0.34766-1.2148 0.37109-1.8359l1.1484-29.012c0-2.8906-0.76563-5.6875-1.4336-8.1523-0.44141-1.6133-1.3477-4.9531-0.89062-5.5703 0.23438-0.31641 0.44922-0.65234 0.61328-1.0078 3.8984-8.207 8.6641-11.594 12.137-14.074 2.7109-1.9297 6.082-4.332 5.9531-8.7109-0.16406-5.4023-5.0508-8.4531-16.855-15.832-1.6055-1-3.6016-1.1719-5.3398-0.47266-1.7578 0.70703-3.0625 2.2148-3.5195 4.0469-0.76562 3.0312-2.0625 6.3164-8.9883 10.281-5.8516 3.1992-50.547 5.8984-97.594 5.8984-16.281 0-29.113-0.34766-35.367-0.98438-0.30078-0.21094-0.78906-0.62109-1.125-0.90625-1.8672-1.5742-4.6875-3.9453-8.8555-3.9453-0.86719 0-1.7578 0.10938-2.418 0.27734-2.3789 0.50391-8.4219 1.7812-10.09 6.7266-1.9766-3.3086-4.8828-6.9336-9.8398-6.9336-0.48828 0-1.7031 0.13281-2.168 0.25391-2.2305 0.55859-4.0156 1.9453-5.0273 3.8828-1.8516 3.5742-0.41797 7.332 0.85156 10.648 0.49609 1.2773 1.3086 3.4102 1.4805 3.5273-2.8672 5.7422-8.8789 11.754-14.629 14.613-7.9883 3.9922-16.203 6.0195-24.402 6.0195-2.9297 0-5.8672-0.26953-8.1445-0.63672-0.61328-0.31641-1.9688-1.8984-2.7812-2.8438-2.2227-2.5977-4.9844-5.8281-9.2305-5.8281-1.5586 0-3.0859 0.47266-4.1836 1.2148-7.7422 4.6406-2.9922 13.684-0.82031 17.707-1.75 0.33984-3.75 0.68359-5.8906 1.0547-15.863 2.75-39.84 6.8984-46.371 23.23-2.5273 6.2773 1.9609 11.289 4.9297 14.605 0.39453 0.44141 0.89062 0.99219 1.3242 1.5039-3.2383 1.8594-11.785 3.4648-16.699 4.3867-12.25 2.3008-23.812 4.4727-27.609 13.035-5.7031 15.469-6.5156 24.008-2.8125 29.461 3.5586 5.2539 9.5625 5.4023 14.391 5.5234 6.2773 0.15625 8.0117 0.60547 9.0898 3.4727 0.83594 2.5117-1.875 7.2227-4.2695 11.375-3.7109 6.4414-8.3242 14.453-4.8906 22.148 3.4727 9.5469 12.879 18.32 19.738 24.734 2.3633 2.207 5.293 4.9453 6.2148 6.4531 1.6523 2.4805 1.582 5.1914 1.3242 9.4062-0.39453 6.3398-0.98438 15.918 11.77 22.742 4.0312 1.6055 9.1055 0.69141 12.957-0.36328 2.2773-0.62109 4.5117-1.1484 5.4648-0.79688 0.33203 0.13281 0.56641 0.20312 0.92188 0.27734 0.70703 0.29297 2.293 2.1328 3.2383 3.2227 2.5898 3.0156 5.8203 6.7656 10.863 6.7656 1.7891 0 3.5273-0.49609 5.0586-1.4258 4.4023-2.5039 6.3945-8.375 8.7031-15.164 1.2461-3.6562 4.5352-13.352 6.75-13.352 0.27734 0 2.5977 0.16406 7.3555 5.3008-0.0625 0.070312-0.11719 0.13281-0.16406 0.17969-2.1016 2.2695-4.9844 5.3789-4.9844 9.8555 0 5.3242 1.2617 10.359 2.4727 15.242 1.0938 4.3711 2.125 8.5078 2.125 12.383 0 9.2461-1.4414 10.895-2.8281 12.484-3.6328 4.1523-5.2539 8.2695-4.0312 19.234 0.21875 1.9766 1.4258 3.7188 3.1992 4.6172l2.3008 1.1641c1.2773 0.64453 2.7266 0.80469 4.1133 0.46484 7.332-1.8438 22.66-14.832 43.52-32.98 5.4336-4.7344 10.152-8.8398 12.91-11.059 1.418 0.66016 3.8594 2.7188 5.1133 3.7734 2.8594 2.4023 5.1133 4.3008 8.168 4.3008 1.8047 0 4.0234-1.0625 5.1367-2.4648 1.6953-2.125 1.7812-4.7344 1.3711-7.3945 2.8203 2.0547 5.7578 4.6875 8.2383 6.8906 4.5703 4.0742 8.5078 7.5859 12.367 8.8711 3.8359 1.3086 7.6953-0.76562 10.137-2.8828 0.89063 2.4102 2.4727 5.1602 5.9805 6.3398 4.6484 1.543 10.02 0.20312 14.094-1.1484 1.1484-0.39453 2.2773-0.76563 3.3086-1.0156-0.40234 2.5117-0.49609 5.75 1.7734 8.375 6.0742 7.957 41.52 32.121 53.461 32.121 0.15625 0 0.48828-0.015625 0.80469-0.039062 2.875-0.007813 4.0078-0.51172 25.316-24.023 2.6719 0.48828 7.332 1.6875 10.949 2.6133 8.5938 2.207 17.473 4.4961 23.133 4.4961 6.7109 0 8.7422-3.5352 9.3594-5.625 1.5742-4.4805 0.15625-10.176-1.3477-16.195-0.51172-2.0625-1.3086-5.2227-1.5039-7.082 0.33203-0.13281 0.67578-0.26172 0.96875-0.36328 2.6055-0.96094 6.9336-2.543 8.625-6.9883 1.3945-3.1602 0.52734-6.332-2.582-9.4453-0.15625-0.15625-0.32422-0.30859-0.48047-0.47266-0.09375-0.65234-0.28516-1.293-0.57422-1.875-0.21094-0.43359-0.28516-1.2305-0.21094-1.9062 4.0664-3.0781 6.5-3.0547 8.168-3.0781 6.8516 0 9.5625-4.1133 11.941-11.234 0.66797-2.0859 0.41016-4.3203-0.75-6.1094zm-28.238 12.383c-0.62109 0.51953-1.1328 1.1562-1.4883 1.8906-1.8125 3.6172-1.9844 8.3672-0.51172 12.195 0.22656 1.4648 0.78906 2.7031 1.457 3.7734-1.8047 0.66797-3.9141 1.543-5.5859 3.2305-4.1523 4.1523-2.5508 10.555-0.69922 17.969 0.49609 2 1.2227 4.9062 1.5508 7.0195-4.5938-0.48828-12.098-2.418-18.289-4.0156-7.957-2.0469-12.602-3.207-15.613-3.207-0.48047 0-1.7344 0.14063-2.1914 0.25391-1.1406 0.28516-2.168 0.89844-2.9531 1.7734-7.9883 8.8125-17.023 18.543-20.582 22.047-8.7031-2.1992-37.281-20.652-42.227-26.594 0.0625-0.39453 0.16406-0.86719 0.22656-1.2305 0.49609-2.4102 1.9766-9.7266-4.8281-11.98-4.6484-1.5664-10.02-0.21875-14.102 1.1406-2.0391 0.67578-3.9688 1.3242-5.4492 1.3242-0.085938-0.27734-0.16406-0.55859-0.22656-0.79688-0.75781-2.6328-2.0078-7.0273-6.6953-8.5859-0.59766-0.19531-1.2305-0.30078-1.8594-0.30078-3.9062 0-6.7266 2.6055-8.7891 4.5039-0.28516 0.26172-0.62891 0.58203-0.96094 0.86719-1.875-1.2461-4.7578-3.8125-6.9883-5.7969-7.043-6.2773-15.012-13.391-23.551-13.391-2.2695 0-4.3086 0.98437-5.5859 2.7109-0.96875 1.293-1.3086 2.6484-1.3398 3.9141-3.5742-1.7891-7.6562-2.3398-11.672 0.38672-3.0547 2.3789-8.293 6.9219-14.406 12.25-8.7734 7.6328-25.215 21.93-33.949 27.844 0.16406-2.1406 0.77344-2.8281 1.4883-3.6641 3.1445-3.6016 5.75-7.6094 5.75-20.258 0-5.332-1.2617-10.367-2.4727-15.25-1.0938-4.3789-2.125-8.5-2.1992-11.871 0.20312-0.48828 1.2773-1.6367 1.9141-2.332 2.0156-2.1758 6.7266-7.2617 2.5273-13.492-6.7812-8.0742-12.625-11.84-18.383-11.84-10.672 0-14.707 11.848-17.938 21.371-0.83594 2.4648-2.0078 5.9297-2.8672 7.7188-0.54297-0.56641-1.1406-1.2695-1.6055-1.8047-2.2773-2.6484-5.082-5.8984-9.207-6.957-3.9297-1.3867-8.7656-0.47266-12.469 0.54297-1.7422 0.48047-3.3867 0.92188-4.5859 0.92188-0.32422 0-0.58984-0.039063-0.37109 0.10156-5.3789-2.9375-5.2227-5.3945-4.8594-11.273 0.30078-4.7969 0.66016-10.777-2.9141-16.055-1.2305-2.4648-3.7109-4.8359-8.3555-9.168-5.9961-5.5938-14.195-13.258-16.855-20.52-1.1484-2.5742 1.5586-7.2852 4.1836-11.832 3.6328-6.3086 7.7578-13.453 5.168-21.211-4.0977-10.941-14.004-11.191-19.922-11.344-1.7578-0.039062-4.3945-0.10937-4.8984-0.32422-0.16406-0.32422-1.4883-3.5586 3.9609-18.41 1.125-2.543 13.098-4.7891 18.848-5.8672 11.066-2.0781 21.52-4.0391 25.371-10.254 4.6406-6.1836-0.77344-12.227-3.3711-15.133-0.76562-0.85156-1.9531-2.1836-2.4648-3.0078 4.6953-9.6797 24.145-13.051 37.125-15.297 4.6875-0.8125 8.7266-1.5117 11.191-2.2773 2.5117-0.49609 4.4492-1.9688 5.4727-4.1367 0.84375-1.8047 0.875-3.6016 0.46484-5.3789 0.33984 0.11719 0.69141 0.21875 1.0547 0.31641 13.438 2.4492 27.402 0.27734 40.535-6.2852 8.0664-4.0234 15.887-11.84 19.914-19.906 0.21875-0.44141 0.41016-0.89062 0.55078-1.3398 1.3477 1.0547 2.9531 1.875 4.9297 2.2617 5.6641 0.70703 9.4766 1.0391 12.004 1.0391 1.7578 0 7.0898 0 8.5-4.8984 0.45703-1.5664 0.32422-2.9219-0.17188-4.1055 6.082 0.65234 19.156 1.0312 36.164 1.0312 9.4531 0 92.672-0.21875 103.72-7.6172 5.8359-3.332 9.2383-6.8203 11.336-10.191 1.1172 0.72656 2.1914 1.4492 3.1289 2.1016-4 2.9141-9.7812 7.6719-14.438 17.234-3.4336 5.1055-1.8438 10.926-0.67578 15.219 0.49609 1.8359 1.0156 3.7422 1.0234 4.8203l-1.1016 27.719c-1.1094 2.3711-3.2773 5.1211-5.5703 8.0195-5.1289 6.4922-11.508 14.562-10.523 25.332 1.7656 10.57 7.8281 20.961 13.707 31.004 6.2383 10.672 12.691 21.715 12.691 31.344 0 4.3086-0.96094 5.5781-2.0781 7.0508-4.2617 5.625-3.8594 10.312 1.7031 20.062 0.26172 0.45703 0.58203 0.875 0.95312 1.2461 1.7109 1.7109 4.9609 3.8828 10.121 7.2852 3.4648 2.2852 9.7188 6.4023 11.602 8.2461 0.35547 1.7109 0.32422 3.4023 0.28516 5.3164-0.10156 5.0352-0.21875 11.297 6.7656 18.266 1.1484 1.1484 2.4961 1.9453 3.9219 2.5039-2.9492 0.83984-6.3281 2.582-10.473 6.0312z"/>
  <path d="m124.48 315.16c-5.2695-2.6719-7.8047-4.5352-12.211-7.7969-2.4023-1.7734-5.2695-3.8984-9.2852-6.6797-1.4805-1.0156-3.3711-1.3164-5.082-0.79688-7.6562 2.332-14.668 3.0234-20.852 3.6406-2.8281 0.27734-5.6328 0.55078-8.3672 0.99219l0.34766-0.19531c24.27-13.77 24.734-14.027 24.641-18.77-0.078125-3.9375-3.3477-5.625-4.4258-6.1758-0.21094-0.125-0.48047-0.20312-0.41797 0.046876 0-0.007813-0.20312-0.91406 0.55859-3.1836 1.0391-0.25391 2.5273-0.51953 3.625-0.71875 6.2773-1.1328 14.094-2.5352 15.328-9.4531 1.1562-6.4922-4.4492-12.469-21.055-22.223-3.6641-1.8359-8.8125-0.9375-12.824 0.16406-0.91406 0.25391-1.8438 0.50391-2.7109 0.67578 0.16406-2.1836 0.31641-5.5078-1.8828-8.2383-1.1094-1.7227-3.3867-3.8711-7.8047-3.8711-0.875 0-1.7969 0.085938-2.6875 0.17969-0.41797 0.046875-0.82812 0.10156-1.1875 0.10156-2.543 0-4.7969 1.6289-5.6016 4.0391-0.36328 1.0938-0.73438 2.3555-1.125 3.7188-1.7422 5.9961-4.1133 14.203-9.8477 15.484-2.5273 0.71875-7.293 1.6367-11.91 2.5273-15.305 2.9453-19.418 3.7422-19.273 9.625 0.039062 1.5742 0.72656 5.2695 6.2227 6.2227 2.9844 0.78125 6.5391 0.86719 10.617 0.96875 8.9258 0.24219 15.992 0.76172 18.164 4.9688 0.38672 6.1289 2.5586 25.105 14.605 26.316-5.7656 2.2461-10.84 6.2539-14.652 13.98-1.6953-1.5742-3.7266-2.75-6.2617-2.75-0.62891 0-1.7578 0.17188-2.3555 0.37891-0.27734 0.09375-0.54297 0.19531-0.80469 0.33203-7.4297 3.7344-5.8672 12.809-4.8359 18.816 0.03125 0.16406 0.0625 0.34766 0.09375 0.52734-1.6055-1.0625-3.293-2.3555-4.4727-3.2617-4.0547-3.0938-7.5469-5.7656-11.438-5.7656-3.5117 0-6.4336 2.207-7.4453 5.3086-3.7188 8.6719 4.3086 14.258 9.0977 17.59 2.0469 1.4258 4.6641 3.2539 5.9531 5.1133-0.48047 0.32422-1.0078 0.65234-1.4414 0.92188-2.7812 1.7578-10.152 6.4023-6.7188 13.25 3.6172 8.4219 11.98 11.887 18.707 14.66 1.6875 0.69922 3.332 1.3789 4.168 1.75 1.8047 1.1797 3.9609 1.7344 6.3398 1.6445-1.0781 1.668-2.5898 3.4727-4.082 5.2539-5.5781 6.6641-14.91 17.816-3.1523 31.508 1.8281 1.8203 4.1133 2.7891 6.6094 2.7812 10.57 0 17.945-17.273 18.016-17.449 0.09375-0.24609 0.17188-0.49609 0.24609-0.76562 1.7812-7.1055 1.207-14.312 0.65234-21.293-0.17969-2.3398-0.37109-4.6562-0.44141-7.1133 2.5117-1.3008 5.5078-2.4805 8.6406-3.7422 3.3398-1.332 6.75-2.6953 9.9336-4.2852 2.6328-1.3242 3.8984-3.6562 4.6719-5.332l2.3164 0.039062c3.8047 0 15.383 0 21.418-15.816 0.40234-1.5977 0.47266-3.1523 0.39453-4.6328 0.14844 0.007813 0.30078 0.015626 0.44922 0.015626 1.5586 0 3.3945-0.75781 4.4961-1.8516 4.5938-4.5703 4.3789-11.184 4.207-16.496-0.015625-0.43359-0.03125-0.91406-0.039062-1.4102 1.3398 2.6641 3.0547 4.8828 6.3555 4.8828 2.0703 0 4.0078-1.1094 5.082-2.8516 2.9453 1.6211 5.9727 1.5977 8.0898-0.50391 1.1094-1.1094 1.7422-2.6133 1.7422-4.1836-0.015625-5.582-10.82-9.9141-15.098-10.82zm-67.301-36.352c-0.023438-0.59766-0.14844-1.1992-0.34766-1.7656-1.8906-5.1992-5.4648-8.3477-9.7031-10.262 7.3633-2.8047 11.184-9.7422 13.523-16.102 0.67578 1.7266 1.9141 3.457 4.1055 4.8906 3.6484 1.8281 8.8047 0.9375 12.824-0.16406 1.6602-0.45703 3.3789-0.92188 4.082-1.1797 7.2852 4.2852 11.098 7.1523 13.074 8.918-1.3242 0.30078-2.7891 0.55859-3.8047 0.75-5.1523 0.92187-9.6016 1.7266-11.723 5.9805-2.6875 6.3867-2.8984 11.492-0.56641 15.328-3.418 2.0312-8.6406 4.9922-15.43 8.8477l-0.96094 0.54297c-0.42578 0.22656-0.69922 0.33203-0.85156 0.36328-1.8594-1.3789-3.918-9.2109-4.2227-16.148zm-6.9414 128.5c-1.4336 3.3633-4.2617 7.207-6.1836 8.9023-2.6484-4.0547-1.0547-7.0195 4.9062-14.141 0.66797-0.80469 1.3555-1.6211 2.0312-2.457 0.003906 2.6836-0.19531 5.2852-0.75391 7.6953zm56.305-76.863c0.023437 0.75 0.054687 1.6953 0.054687 2.6797-2.6328-1.1172-6.3555-0.37891-8.2148 2.1836-2.8359 3.3633-2.0391 7.5859-1.4414 10.703 0.27734 1.457 0.62109 3.2695 0.62109 3.4492-2.6875 6.9805-6.3477 7.5547-10.176 7.5547l-3.0078-0.054687c-0.90625 0-1.9375 0.039062-3 0.27734-4.3555 0.52734-6.1367 4.5625-6.8359 6.1445-0.085938 0.17969-0.16406 0.38672-0.24609 0.56641-2.6484 1.2773-5.4492 2.3867-8.207 3.4727-3.875 1.543-7.8672 3.1367-11.336 5.1133-1.4805 0.49609-3.293 1.6055-4.1992 4.1133-1.7266-0.24609-3.6172 0.10156-5.1289 0.43359-0.62109 0.13281-1.3086 0.27734-1.7969 0.31641-0.015625-0.007813-0.039062-0.023438-0.078125-0.039063-1.7031-0.85156-3.6094-1.6445-5.5625-2.457-4.2305-1.75-8.5703-3.543-11.074-6.4414 0.30859-0.1875 0.59766-0.38672 0.85938-0.54297 3.1289-1.9688 8.957-5.6406 7.4922-11.328-0.22656-1.8438-0.82031-3.4883-1.6367-4.9688 3 0.37891 5.9961-0.54297 7.8359-2.7422 2.9375-3.4727 2.1992-8.1445 1.3477-13.105 1.1992 0.97656 2.5977 1.6289 4.3867 1.6289 2.8281 0 5.2773-1.8359 6.293-4.8984 4.4336-15.234 10.793-15.863 24.719-17.234 6.0039-0.58984 12.715-1.2539 20.324-3.2852 2.7344 1.9297 4.8594 3.4961 6.7031 4.8594 1.0625 0.78906 2.0469 1.5117 3.0078 2.207-1.9531 3.5312-1.8047 8.2891-1.7031 11.395z"/>
 </g>
</svg>
