<?xml version="1.0" encoding="UTF-8"?>
<svg width="512pt" height="512pt" version="1.1" viewBox="0 0 512 512" xmlns="http://www.w3.org/2000/svg">
 <g fill="#443f3c">
  <path d="m112 416h-48v48h48zm-16 32h-16v-16h16z"/>
  <path d="m208 208h16v56h-16z"/>
  <path d="m248 208h16v48h-16z"/>
  <path d="m288 208h16v56h-16z"/>
  <path d="m496 400v-27.301l-20.699-20.699h-19.301v-152c0-23.398-16.898-43.398-40-47.301v-24.699h16v-16h-16v-16h-16v16h-16v16h16v24.699c-23.102 3.8984-40 23.898-40 47.301v106.2l-24-8v-110.9l8-8v-19.301c-0.10156-45.5-34.699-83.398-80-87.602v-24.398h16v-16h-16v-16h-16v16h-16v16h16v24.398c-45.301 4.1992-79.898 42.199-80 87.602v19.301l8 8v110.9l-24 8v-106.2c0-23.398-16.898-43.398-40-47.301v-24.699h16v-16h-16v-16h-16v16h-16v16h16v24.699c-23.102 3.8984-40 23.898-40 47.301v152h-19.301l-20.699 20.699v27.301h8v80h-8v16h480v-16h-8v-80zm-360 80h-96v-80h96zm0-96h-104v-4.6992l11.301-11.301h92.699zm0-72.398-10.102 3.3984 10.102 30.398v6.6992l-64 0.003906v-64h64zm0-39.602h-64v-10.602l32-12.801 32 12.801zm0-27.801-32-12.801-32 12.801v-28.199h64zm-64-44.199c0-17.699 14.301-32 32-32s32 14.301 32 32zm184-112c33.602 0 62.699 23.301 70.199 56h-140.4c7.5-32.699 36.598-56 70.199-56zm-72 72h144v12.699l-3.3008 3.3008h-137.4l-3.3008-3.3008zm136 32v100.9l-64-21.301-64 21.301v-100.9zm-136 288h-32v-128h32zm96 0h-48v-88h48zm32 0h-16v-104h-80v104h-16v-128h112zm48 0h-32v-128h32zm2.1992-144h-212.4l-3.6016-10.898 109.8-36.703 109.9 36.602zm45.801-168c17.699 0 32 14.301 32 32h-64c0-17.699 14.301-32 32-32zm-32 48h64v28.199l-32-12.801-32 12.801zm0 45.398 32-12.801 32 12.801v10.602h-64zm0 83.902 10.102-30.398-10.102-3.3984v-23.504h64v64h-64zm96 134.7h-96v-80h96zm8-96h-104v-16h92.699l11.301 11.301z"/>
  <path d="m448 416h-48v48h48zm-16 32h-16v-16h16z"/>
 </g>
</svg>
