<?xml version="1.0" encoding="UTF-8"?>
<svg width="512pt" height="512pt" version="1.1" viewBox="0 0 512 512" xmlns="http://www.w3.org/2000/svg">
 <g fill="#443f3c">
  <path d="m488 480v-156.8l-34.398-16.801-16.801-34.398h-76.801v-32h-40v-94.398l9.6016-28-65.602-57.602v-12h16v-16h-16v-16h-16v16h-16v16h16v12l-65.602 56.801 9.6016 28v95.199h-40v32h-76.801l-16.801 34.398-34.398 16.801v156.8h-8v16h480v-16zm-16 0h-16v-155.2l16 8zm-192 0h-48v-16c0-13.602 10.398-24 24-24s24 10.398 24 24zm-24-56c-22.398 0-40 17.602-40 40v16h-24v-68.801l64-64 64 64v68.801h-24v-16c0-22.398-17.602-40-40-40zm52.801-296-2.3984 8h-100.8l-2.3984-8zm-95.199-16 42.398-37.602 42.398 37.602zm-5.6016 40h96v84.801l-48-48-48 48zm48 59.199 70.398 70.398-6.3984 12.801v22.398l-64-64-64 64v-22.398l-6.3984-12.801zm91.199 164.8h28.801v28.801zm-180-32 8 16h-61.602l10.398-16zm-2.3984 32-28.801 28.801v-28.801zm20.801-30.398 70.398-70.398 70.398 70.398-6.3984 12.797v30.398l-64-64-64 64v-30.398zm151.2 14.398 8-16h42.398l10.398 16zm-160.8-32h-60l-20 29.602v18.398h24v44.801l-8 8v51.199h-40v-160h104zm-48 107.2 48-48v41.602l-24 24v27.199h-24zm40 24 8-8v28.801h-8zm168-8 8 8v20.801h-8zm0-22.398v-41.602l48 48v44.801h-24v-27.199zm56-8v-44.801h24v-18.398l-20-29.602h-60v-8h104v160h-40v-51.199zm43.199-116.8h-99.199v-6.3984l4.8008-9.6016h86.398zm-91.199-32h-4.8008l-16-16h20.801zm-176-16h20.801l-16 16h-4.8008zm3.1992 32 4.8008 9.6016v6.3984h-99.199l8-16zm-131.2 44.801 16-8v155.2h-16z"/>
  <path d="m216 160h16v40h-16z"/>
  <path d="m248 160h16v24h-16z"/>
  <path d="m280 160h16v40h-16z"/>
  <path d="m248 224h16v16h-16z"/>
  <path d="m248 296h16v24h-16z"/>
  <path d="m248 376h16v40h-16z"/>
  <path d="m272 392h16v24h-16z"/>
  <path d="m224 392h16v24h-16z"/>
  <path d="m88 440h16v24h-16z"/>
  <path d="m408 440h16v24h-16z"/>
 </g>
</svg>
