<?xml version="1.0" encoding="UTF-8"?>
<svg width="512pt" height="512pt" version="1.1" viewBox="0 0 512 512" xmlns="http://www.w3.org/2000/svg">
 <g fill="#443f3c">
  <path d="m353.92 179.22h17.281v12.801h-17.281z"/>
  <path d="m460.8 246.59v-54.566h16.34l7.6797-38.398-44.5-0.003906v-41.43l-119.47-0.003906v-46.934h-12.801v27.734h-17.922v-27.734h-12.801v27.734h-14.93v-33.219l21.219-16.754-7.9297-10.043-19.688 15.543-19.68-15.543-7.9375 10.047 21.219 16.754v33.219h-14.934v-27.734h-12.801v27.734h-17.922v-27.734h-12.801v46.934l-119.46-0.003906v41.43l-44.504 0.003906 7.6797 38.398h16.344v275.58l-16.641 0.003907v12.801h442.88v-12.801h-16.637zm-12.801 221.02h-5.6953v-221.02h5.6953zm-384-248.3h384v14.484h-384zm339.07 72.086h-18.699v-44.801h33.629zm-49.996 0h-45.133v-44.801h45.133zm-76.43 0h-40.012v-44.801h40.012zm-71.312 0h-45.133v-44.801h45.133zm-76.426 0h-18.691l-14.934-44.801h33.629zm-29.711 7.4375v168.78h-16.703v-218.87zm12.801 5.3594h16.91v163.41h-16.91zm29.711-57.598h5.6953v221.02h-5.6953zm18.492 57.598h45.133v163.41h-45.133zm57.934-57.598h5.6992v221.02h-5.6992zm18.5 57.598h40.012v163.41h-40.012zm52.812-57.598h5.6953v221.02h-5.6953zm18.496 57.598h45.133v163.41h-45.133zm57.934-57.598h5.6953v221.02h-5.6953zm18.492 57.598h16.91v163.41h-16.91zm29.711-5.3633 15.426-46.273v215.05h-15.426zm-210.13-167.43h104.11v22.23h-104.11zm116.91 12.395h106.67v9.8359h-106.67zm106.67-18.797v5.9961h-106.67v-5.9961zm-119.47-6.3984h-104.11v-12.801h104.11zm-116.91 6.3984v5.9961h-106.66v-5.9961zm-106.66 18.797h106.66v9.8359h-106.66zm260.48 48.234v-12.801h-299.61l-2.5586-12.801h426.42l-2.5586 12.801h-84.574v12.801h65.922v14.484h-384v-14.484zm-280.96 54.57h5.6953v221.02h-5.6953z"/>
 </g>
</svg>
