<?xml version="1.0" encoding="UTF-8"?>
<svg width="512pt" height="512pt" version="1.1" viewBox="0 0 512 512" xmlns="http://www.w3.org/2000/svg">
 <path d="m464 448v-32h-0.30078l-7.6016-234.5c0-1.5 0.5-2.8984 1.6016-4 4-4 6.3008-9.3984 6.3008-15.102v-47.199l16-16v-57l-78.699-26.199h-33.301v18.199l-24 8v29.801h-178.2l-4.1992-12.699 22.5-15v-28.301h-32.801l-119.3 25.5v57.801l16 16v47.199c0 5.6992 2.1992 11.102 6.3008 15.102 1 1 1.6016 2.5 1.6016 4l-7.6016 234.4h-0.30078v32h-32v48h480v-48zm-104-394.2 24-8v-13.801h14.699l14 4.6992-3.3008 6.6016-7.1016 7.1016 11.301 11.301 8.8984-8.8984 5.5-11 35.898 12 0.003907 18.195h-103.9zm-312 0.69922 104.8-22.5h15.199v3.6992l-25.5 17 6.3984 19.301h-28.898v-4.6992l5.6992-5.6992-11.301-11.301-10.398 10.398v11.301h-56zm0 38.199v-4.6992h416v4.6992l-11.301 11.301h-393.4zm270.3 84.902c1 1 1.6016 2.5 1.6016 4l-7.6016 234.4h-24.5l-7.6016-234.5c0-1.5 0.5-2.8984 1.6016-4 4-4 6.3008-9.3984 6.3008-15.102v-2.3984h24v2.5c-0.10156 5.6016 2.0977 11.102 6.1992 15.102zm57.699 254.4v16h-96v-16zm-23.801-250 7.5 234h-31.5l7.5-234c0.19922-5.8984-2.1016-11.602-6.1992-15.801-1-1-1.6016-2.3984-1.6016-3.8008v-2.3984h32v2.5c0 1.3984-0.60156 2.8008-1.6016 3.8008-3.9961 4.0977-6.2969 9.8008-6.0977 15.699zm23.5 234-7.6016-234.5c0-1.5 0.5-2.8984 1.6016-4 4-4 6.3008-9.3984 6.3008-15.102v-2.3984h24v2.5c0 5.6992 2.1992 11.102 6.3008 15.102 1 1 1.6016 2.5 1.6016 4l-7.6016 234.4zm16.301 16h56v16h-56zm48.199-250 7.5 234h-31.5l7.5-234c0.19922-5.8984-2.1016-11.602-6.1992-15.801-1-1-1.6016-2.3984-1.6016-3.8008v-2.3984h32v2.5c0 1.3984-0.60156 2.8008-1.6016 3.8008-3.9961 4.0977-6.2969 9.8008-6.0977 15.699zm-376.2-38v-24h384v24zm200.2 38 7.5 234h-31.5l7.5-234c0.19922-5.8984-2.1016-11.602-6.1992-15.801-1-1-1.6016-2.3984-1.6016-3.8008v-2.3984h32v2.5c0 1.3984-0.60156 2.8008-1.6016 3.8008-3.9961 4.0977-6.2969 9.8008-6.0977 15.699zm-176 0 7.5 234h-31.398l7.5-234c0.19922-5.8984-2.1016-11.602-6.1992-15.801-1-1-1.6016-2.3984-1.6016-3.8008v-2.3984h32v2.5c0 1.3984-0.60156 2.8008-1.6016 3.8008-4.0977 4.0977-6.3984 9.8008-6.1992 15.699zm71.801 250v16h-96v-16zm-17.699-254.4c1 1 1.6016 2.5 1.6016 4l-7.6016 234.4h-24.5l-7.6016-234.5c0-1.5 0.5-2.8984 1.6016-4 4-4 6.3008-9.3984 6.3008-15.102v-2.3984h24v2.5c-0.10156 5.6016 2.0977 11.102 6.1992 15.102zm10 238.4 7.5-234c0.19922-5.8984-2.1016-11.602-6.1992-15.801-1-1-1.6016-2.3984-1.6016-3.8008v-2.3984h32v2.5c0 1.3984-0.60156 2.8008-1.6016 3.8008-4.1992 4.1992-6.3984 9.8984-6.1992 15.801l7.5 234h-31.398zm23.699 16h88v16h-88zm54.301-254.4c1 1 1.6016 2.5 1.6016 4l-7.6016 234.4h-24.5l-7.6016-234.5c0-1.5 0.5-2.8984 1.6016-4 4-4 6.3008-9.3984 6.3008-15.102v-2.3984h24v2.5c-0.10156 5.6016 2.0977 11.102 6.1992 15.102zm-118.3 302.4h-80v-16h80zm96 0h-80v-16h80zm88 0h-72v-16h72zm104 0h-88v-16h88zm80 0h-64v-16h64z" fill="#443f3c"/>
</svg>
