<?xml version="1.0" encoding="UTF-8"?>
<svg width="512pt" height="512pt" version="1.1" viewBox="0 0 512 512" xmlns="http://www.w3.org/2000/svg">
 <g fill="#443f3c" fill-rule="evenodd">
  <path d="m0 0v512h512v-512zm17.066 17.066v477.87h477.87v-477.87z"/>
  <path d="m121.05 303.93c-8.5742-11.801-14.098-31.277-12.008-46.914 14.578 5.5938 29.914 21.969 36.109 34.488 18.184-66.629-46.637-62.574-63.484-83.863 11.605 24.41-30.098 82.641 39.383 96.289zm-26.348-74c13.039 6.7891 35.773 11.375 41.59 31.652-12.977-14-31.598-18.086-36.562-20.277 0 5.0195-6.3008 23.617 0 41.625-11.922-7.6367-9.0703-29.375-5.0273-53zm19.934 52.863s10.172 7.7734 15.094 9.8594c0.074219-5.1992-0.83203-12.434-1.9102-18.301 0 0-10.242-9.9531-15.941-12.234-1.1445 6.7539 2.7578 20.676 2.7578 20.676z"/>
  <path d="m314.32 285.67c4.543-8.9062 7.1016-18.988 7.1016-29.672 0-11.508-2.9727-22.324-8.1914-31.719l158.07-115.77-10.086-13.77-158.14 115.83c-11.898-12.324-28.59-19.988-47.074-19.988-17.871 0-34.07 7.1641-45.875 18.781l-156.5-114.62-10.086 13.77 156.07 114.3c-5.7383 9.7305-9.0312 21.074-9.0312 33.188 0 11.289 2.8594 21.91 7.8906 31.176l-154.93 113.47 10.086 13.766 154.88-113.43c11.922 12.586 28.793 20.438 47.5 20.438 19.312 0 36.672-8.3672 48.648-21.68l156.57 114.67 10.086-13.766zm-57.191 18.043c26.703 0 48.355-21.652 48.355-48.355 0-26.707-21.652-48.355-48.355-48.355-26.707 0-48.359 21.648-48.359 48.355 0 26.703 21.652 48.355 48.359 48.355z"/>
  <path d="m255.92 284.5-31.594 17.008 6.0352-36.02-25.562-25.512 35.324-5.2539 15.797-32.77 15.801 32.77 35.324 5.2539-25.562 25.512 6.0352 36.02zm0-15.922-14.133 7.3516 2.6992-15.574-11.438-11.031 15.805-2.2734 7.0664-14.172 7.0703 14.172 15.801 2.2734-11.434 11.031 2.6992 15.574z"/>
  <path d="m162.05 469.45-12.305 6.4688 2.3516-13.703-9.957-9.7031 13.758-2 6.1523-12.469 6.1562 12.469 13.758 2-9.957 9.7031 2.3516 13.703z"/>
  <path d="m255.92 469.45-12.305 6.4688 2.3516-13.703-9.957-9.7031 13.758-2 6.1523-12.469 6.1523 12.469 13.762 2-9.957 9.7031 2.3516 13.703z"/>
  <path d="m349.79 469.45-12.305 6.4688 2.3516-13.703-9.957-9.7031 13.758-2 6.1523-12.469 6.1523 12.469 13.758 2-9.9531 9.7031 2.3477 13.703z"/>
  <path d="m162.05 65.535-12.305 6.4727 2.3516-13.703-9.957-9.707 13.758-1.9961 6.1523-12.469 6.1562 12.469 13.758 2-9.957 9.7031 2.3516 13.703z"/>
  <path d="m255.92 65.535-12.305 6.4727 2.3516-13.703-9.957-9.707 13.758-1.9961 6.1523-12.469 6.1523 12.469 13.762 2-9.957 9.7031 2.3516 13.703z"/>
  <path d="m349.79 65.535-12.305 6.4727 2.3516-13.703-9.957-9.707 13.758-1.9961 6.1523-12.469 6.1523 12.469 13.758 2-9.9531 9.7031 2.3477 13.703z"/>
  <path d="m36.977 91.023h438.05v329.95h-438.05zm17.066 17.066h403.91v295.82h-403.91z"/>
 </g>
</svg>
