<?xml version="1.0" encoding="UTF-8"?>
<svg width="512pt" height="512pt" version="1.1" viewBox="0 0 512 512" xmlns="http://www.w3.org/2000/svg">
 <path d="m261.62 15.684c3.0859 0.20312 6.1758 0.42578 9.2656 0.61328 17.746 1.0703 35.098 4.2656 52.031 9.6836 22.539 7.2148 43.242 17.879 61.43 33.133 17.184 14.406 30.621 31.621 38.691 52.727 5.6406 14.754 7.875 30.023 6.6562 45.797-1.0078 13.098-4.625 25.453-9.9141 37.449-2.707 6.1328-4.6797 12.602-6.8242 18.969-8.7812 26.062-17.602 52.105-26.18 78.234-2.3008 7.0078-4.3672 14.07-7.7305 20.668-8.7812 17.219-21.355 31.027-37.473 41.641-0.67188 0.44141-1.5352 0.73047-1.9727 1.3398-0.47266 0.64844-0.53906 1.5859-0.78516 2.4023-0.34766-0.30859-0.69531-0.60938-1.043-0.91797 2.0547 7.2344 4.1055 14.469 6.1484 21.703 2.9141 10.301 5.2344 20.727 6.2461 31.395 1.1211 11.793 1.2344 23.5-2.9219 34.867-5.9336 16.242-16.73 28.426-31.223 37.516-11.645 7.3008-24.367 11.617-38 13.164-24.078 2.7344-46.434-2.0391-66.422-16.055-13.73-9.6289-23.484-22.332-28.18-38.641-2.0781-7.2227-2.3906-14.605-2.3086-22.086 0.17578-15.652 3.6602-30.734 7.4023-45.789 0.86719-3.4727 1.5977-6.9805 2.5234-10.43 0.29297-1.0898-0.0625-1.5-0.91016-1.9805-22.328-12.605-38.801-30.699-48.199-54.461-13.031-32.945-28.094-65.004-41.867-97.617-1.6523-3.9219-4.0234-7.5352-5.9453-11.352-7-13.945-10.98-28.691-11.52-44.328-0.03125-0.90234-0.16797-1.8008-0.26172-2.6992v-2.2461c0.09375-1.0078 0.23437-2.0117 0.27734-3.0195 0.60938-16.309 4.8477-31.66 12.555-45.992 12.684-23.586 31.133-41.734 53.781-55.684 13.094-8.0625 26.824-14.918 41.699-19.117 10.879-3.0703 21.855-5.7539 33.223-6.4766 5.7617-0.36328 11.484-1.1992 17.234-1.7344 3.293-0.30859 6.6055-0.44531 9.9062-0.66016 3.543-0.015625 7.0781-0.015625 10.609-0.015625zm-2.1797 9.543c-19.559 0.0625-35.809 1.75-51.828 5.832-21.652 5.5156-41.984 13.863-60.125 27.09-14.07 10.254-25.82 22.625-33.859 38.227-7.5508 14.66-10.605 30.188-8.4141 46.602 1.9062 14.301 7.5586 27.102 16.027 38.695 11.094 15.195 25.398 26.691 41.754 35.711 26.441 14.586 55 21.492 84.996 22.855 17.652 0.80469 35.176-0.52344 52.496-4.1406 21.27-4.4453 41.34-11.93 59.695-23.695 15.434-9.8867 28.684-22.043 38.133-37.918 12.273-20.609 15.457-42.477 8.1211-65.5-6.5117-20.43-19.938-35.906-36.348-48.992-7.707-6.1445-16.379-10.887-25.262-15.164-27.961-13.469-57.566-19.48-85.387-19.602zm-59.516 341.21c-1.0938 4.543-2.1758 9.2734-3.3828 13.977-3.707 14.449-6.2969 29.023-6.0156 44.031 0.13281 7.1523 1.3516 14.035 4.1367 20.609 6.2227 14.68 16.945 25.199 30.859 32.508 19.035 9.9961 39.219 12.227 60.113 7.6328 16.598-3.6523 30.891-11.508 42.039-24.551 7.9727-9.3281 12.805-20.102 13.566-32.414 0.61328-9.9727-0.12891-19.949-2.4062-29.664-2.8008-11.945-6.1836-23.758-9.3242-35.625-0.10156-0.39062-0.26562-0.75781-0.26953-0.76953-42.645 17.73-85.531 20.449-129.32 4.2656zm62.531-1.5664c-0.40625-1.9766-0.78516-3.7461-1.1367-5.5312-3.5391-18.027-6.9805-36.074-10.66-54.074-1.4336-7-3.4336-13.887-5.1367-20.832-0.26953-1.1055-0.75781-1.6758-1.957-1.5508-0.51562 0.054688-1.0508-0.046875-1.6289-0.082031-0.085938 0.39453-0.20312 0.69531-0.21875 1-0.48828 11.223-1.1367 22.445-1.3828 33.676-0.21875 9.9531 0.24609 19.902 2.0078 29.738 0.79688 4.4805 1.8438 8.8984 4.1484 12.898 1.2305 2.1289 2.7461 4.1133 5.2734 4.6289 3.4609 0.70703 6.9883 0.77344 10.691 0.12891zm26.07-83.785c-3.0312-0.027343-3.0273-0.027343-3.5039 2.2539-3.2109 15.512-4.7461 31.262-6.7188 46.957-1.1094 8.8516-2.2617 17.703-3.4297 26.551-0.32422 2.457-0.76172 4.8945-1.168 7.4453 4.7812-0.66406 9.3281-1.3516 13.887-1.8945 1.3008-0.15234 1.9258-0.64062 2.0117-1.9219 0.39062-6.0781 1.2188-12.164 1.1094-18.23-0.30078-17.066-0.96875-34.121-1.5312-51.18-0.10938-3.3047-0.42969-6.6016-0.65625-9.9805zm-34.129 2.332c2.6836 23.031 8.7109 45.352 13.113 67.984 0.14844 0.003906 0.30078 0.015624 0.44922 0.019531 2.7227-22.965 5.4531-45.926 8.1836-68.922-7.3516 0.3125-14.426 0.60938-21.746 0.91797zm-55.066-7.4102c0.11328 1.1016 0.19531 2.207 0.33984 3.3086 1.9062 14.52 4.3398 28.949 7.6562 43.219 2.0781 8.9492 4.3516 17.844 7.9961 26.32 1.4375 3.3477 3.4453 6.2656 6.207 8.6523 3.6914 3.1953 8.1719 3.7461 13.004 4.043-0.32422-0.64453-0.48047-1.0352-0.69141-1.3945-4.6602-7.8398-8.2695-16.176-11.375-24.711-6.957-19.113-13.77-38.277-20.602-57.438-0.44531-1.2383-1.0078-2.0664-2.5352-2zm36.215 73.969c0.10156-0.039062 0.20312-0.085937 0.3125-0.12891-1.5664-22.645-3.1367-45.293-4.6992-67.871-6.5469-1.0234-12.902-2.0156-19.406-3.0312 0.10156 0.50781 0.16016 0.97266 0.29297 1.4141 4.2617 14.156 8.3359 28.375 12.867 42.445 2.6328 8.168 5.9922 16.102 9.0625 24.129 0.40234 1.0547 1.0352 2.0273 1.5703 3.043zm65.719 8.4336c9.0586-1.5312 15.078-5.918 18.027-13.66 1.5469-4.0586 2.5977-8.375 3.3164-12.668 1.2461-7.4297 2.1211-14.918 3.0273-22.398 1.3047-10.773 2.5273-21.555 3.7031-32.344 0.22656-2.0898 0.03125-4.2227 0.03125-6.332-0.12109-0.097656-0.24609-0.1875-0.375-0.28516-0.50781 0.67578-1.2695 1.2852-1.4844 2.043-3.375 11.859-6.9336 23.668-9.9414 35.621-3.9844 15.805-7.7812 31.637-14.895 46.43-0.51953 1.0781-0.88281 2.2422-1.4102 3.5938zm-130.06-92.227c0.28125 0.76953 0.43359 1.2578 0.63672 1.7266 9.082 21.078 18.098 42.188 27.32 63.207 1.7266 3.9258 4.2461 7.5117 6.4258 11.234 0.30078 0.51172 0.78516 0.92188 1.1836 1.3789 0-1.4648-0.17969-2.7852-0.49609-4.0703-5.3164-21.77-10.641-43.539-16.02-65.289-0.15234-0.61328-0.85547-1.3242-1.4688-1.5625-4.7305-1.8125-9.5078-3.5078-14.266-5.2578-1.0273-0.39062-2.0273-0.83984-3.3164-1.3672zm127.65 82.594c0.097656 0.015624 0.1875 0.027343 0.28516 0.039062 1.6367-5.3867 3.5898-10.699 4.8633-16.176 3.6289-15.59 6.875-31.273 11.266-46.684 1.043-3.6719 1.7852-7.4297 2.6875-11.238-6.5586 1.582-12.852 3.1016-19.102 4.6133v69.445zm29.73-15.453c0.57812-0.85937 0.98438-1.3477 1.2656-1.8984 1.1484-2.2305 2.3906-4.4297 3.3477-6.7422 8.6406-20.859 15.094-42.453 21.566-64.047 0.066407-0.21875 0.011719-0.48047 0.011719-0.72656-5.0938 2.3438-10.07 4.6836-15.094 6.9062-1.0273 0.45703-1.4688 1.043-1.6172 2.0898-0.53125 3.7578-1.1211 7.5078-1.6758 11.266-2.582 17.555-5.1562 35.113-7.8047 53.152zm-78.375-83.281c0.96094 7.9258 1.9102 15.75 2.8711 23.695 0.74609 0 1.2734 0.015625 1.8008 0 6.1484-0.21094 12.297-0.38281 18.441-0.66016 3.543-0.16016 3.5391-0.23438 3.7734-3.6719 0.03125-0.42578 0.11719-0.85156 0.12891-1.2812 0.16406-5.4531 0.31641-10.906 0.47266-16.359 0.035156-1.25-0.36328-1.8789-1.8516-1.8633-7.9766 0.082031-15.953 0.039062-23.926 0.050781-0.47266 0.003906-0.94531 0.050781-1.7109 0.089843zm-44.406-4.5742c-0.10156 0.44141-0.18359 0.69531-0.22656 0.95703-1.1875 7.25 0.03125 14.266 2.1562 21.176 0.12109 0.39453 0.70703 0.82812 1.1406 0.91016 7.332 1.3984 14.668 2.7383 22.102 4.1133 0.74609-8.0117 1.4531-15.637 2.1719-23.289-9.25-1.3203-18.242-2.582-27.344-3.8672zm93.051 23.898c0.19531 0.050781 0.30078 0.12109 0.39062 0.10156 6.6094-1.6953 13.219-3.3789 19.809-5.1445 0.44141-0.11719 0.92188-0.83594 1.0273-1.3477 1.1094-5.3828 2.0625-10.797 3.2461-16.16 0.43359-1.9805 0.21484-3.6055-0.9375-5.2578-0.57812-0.82813-0.97656-1.1094-2.0312-0.82031-5.3438 1.4648-10.723 2.8359-16.098 4.1914-2.8203 0.71094-5.6719 1.3203-8.2266 1.9102 0.65625 3.9219 1.3867 7.5742 1.8477 11.266 0.46484 3.75 0.66406 7.5273 0.97266 11.262zm34.621 71.938c0.77344-0.29688 1.2148-0.44531 1.6328-0.63672 7.4609-3.3555 12.207-9.1992 15.121-16.656 8.0234-20.531 14.285-41.594 18.977-63.129 0.77344-3.5469 1.3242-7.1484 1.9805-10.727-0.21094-0.097656-0.41797-0.19531-0.63672-0.29297-0.64453 1.0195-1.5 1.9648-1.9102 3.0703-7.0156 18.75-13.855 37.57-21.004 56.273-3.9766 10.41-7.4922 21.055-13.477 30.594-0.21875 0.35547-0.35156 0.76953-0.68359 1.5039zm-126.73 10.777c0.13672-0.10938 0.26953-0.21875 0.41016-0.32812-0.47266-0.85547-0.87891-1.75-1.4219-2.5547-2.7734-4.1172-5.7969-8.0859-8.3438-12.336-6.4805-10.793-11.375-22.359-16.18-33.965-5.1602-12.484-10.414-24.93-15.57-37.41-1.0078-2.4492-1.2656-2.8398-3.9492-3.5039 0.054688 0.28516 0.09375 0.54688 0.16016 0.79297 5.418 19.742 12.309 38.988 19.676 58.066 2.9648 7.6836 6.6523 15.047 11.5 21.773 3.457 4.8164 8.2773 7.5859 13.719 9.4648zm-30.742-20.082c0.1875-0.14453 0.37891-0.28516 0.56641-0.42969-0.28516-0.67578-0.50781-1.3828-0.86719-2.0156-1.4883-2.6562-2.9648-5.3203-4.5469-7.9219-4.1133-6.7578-8.5898-13.312-12.355-20.254-10.188-18.801-19.012-38.273-27.617-57.836-0.29688-0.67578-0.54297-1.4805-1.0586-1.9453-2.7734-2.4922-5.6328-4.9062-8.7852-7.6172 0.32812 0.83594 0.5 1.3164 0.70312 1.7852 4.8242 11.062 9.6406 22.133 14.484 33.191 3.0664 6.9922 5.7188 14.219 9.3594 20.906 6.3555 11.652 13.68 22.734 21.984 33.117 2.5391 3.1484 5.4141 6.0195 8.1328 9.0195zm-10.094-99.477c-2.7578 3.7578-3.6523 7.7344-2.4023 12.098 0.71875 2.5156 1.4141 5.0391 2.2852 7.4961 0.26562 0.74609 0.96094 1.5781 1.6758 1.9062 4.6094 2.1133 9.2617 4.1367 13.926 6.1172 1.8906 0.80469 3.8516 1.4336 5.6523 2.0938 0-3.5547-0.30078-6.9883 0.082031-10.344 0.39062-3.3984 1.4609-6.7227 2.2617-10.215-7.7031-3.0039-15.598-6.082-23.48-9.1523zm174.45 23.609c0.35156-0.097656 0.625-0.12109 0.84375-0.23438 5.9492-3.1445 11.902-6.2734 17.816-9.4883 0.55469-0.30078 0.98828-1.0898 1.1836-1.7461 0.83984-2.8125 1.3867-5.7188 2.3711-8.4727 1.6445-4.6094-0.39062-8.168-2.9141-11.844-7.4297 3.5977-14.809 7.1719-22.23 10.766 3.957 6.707 3.6758 13.793 2.9297 21.02zm21.77 57.07c0.085938 0.054687 0.17578 0.10938 0.26172 0.16406 0.25781-0.46094 0.54297-0.90234 0.76172-1.3789 2.1523-4.6523 4.4688-9.2422 6.3906-13.988 4.7344-11.68 9.3242-23.418 13.902-35.16 3.082-7.9062 6.1016-15.836 9.0156-23.809 0.96875-2.6406 1.5195-5.4375 2.2695-8.1602-0.60938 0.11328-0.87109 0.37891-1.1484 0.62109-4.625 4.0547-9.2148 8.1562-13.906 12.129-1.0352 0.87891-1.5117 1.6797-1.5117 3.0547 0 3.3594 0.35156 6.8672-0.44922 10.055-3.2109 12.785-6.7695 25.48-10.277 38.195-1.6797 6.125-3.5273 12.191-5.3086 18.277zm-220.33-62.855c0.27734 0.74609 0.48047 1.4023 0.75781 2.0234 5.6953 12.773 11.168 25.66 17.184 38.281 3.875 8.1367 8.5508 15.898 12.898 23.809 0.53906 0.97656 1.2695 1.8438 1.9141 2.7656 0.10156-0.60547-0.046875-1.0508-0.20312-1.4961-6.6602-18.703-13.82-37.242-18.77-56.516-0.11719-0.44922-0.52344-0.94141-0.93359-1.1875-4.2109-2.5547-8.4453-5.0586-12.848-7.6797zm-7.8945-37.449c-0.22656 0.050781-0.45703 0.10156-0.67969 0.16016-0.11328 1.9883-0.57812 4.0352-0.26562 5.9531 0.78516 4.7773 1.8906 9.5039 2.9492 14.227 0.14844 0.65625 0.65625 1.3789 1.2031 1.7734 4.7148 3.4102 9.4766 6.7539 14.238 10.105 0.34766 0.24609 0.76953 0.39844 1.2734 0.66016-0.92188-7.0352-1.9609-13.855 0.21875-20.312-6.4219-4.2617-12.676-8.4141-18.938-12.566zm243.77 20.105c0.26172-0.11719 0.41797-0.15234 0.53125-0.24609 5.9688-4.9805 11.496-10.414 16.512-16.359 0.27734-0.33203 0.53125-0.87109 0.47656-1.2656-0.54297-3.8828-1.3984-7.6758-3.4922-11.062-0.26563-0.42969-0.60547-0.8125-0.98828-1.3203-6.0625 4.668-11.969 9.2148-17.867 13.758 3.168 5.1172 4.0938 10.691 4.8281 16.496zm-266.21-44.199c-0.64844 1.3203-1.6328 2.4609-1.7578 3.6953-0.6875 6.7891-0.49609 13.449 4.1914 19.094 1.1992 1.4375 2.3047 2.9531 3.5156 4.3711 1.7812 2.0781 3.6289 4.1016 5.4531 6.1445 0.14844-0.97266 0-1.75-0.12891-2.5273-0.85938-5.2773-1.3984-10.516 1.5703-15.41 0.14844-0.24609 0.019532-0.85156-0.19531-1.0938-4.0781-4.6602-8.1992-9.2773-12.648-14.273zm297.01-11.586c-3.3672 4.9805-6.7344 9.918-10.02 14.895-0.21875 0.33984-0.078125 1.1406 0.1875 1.5273 0.47656 0.69141 1.1484 1.2578 1.7852 1.8281 1.7305 1.5312 2.9766 3.3477 3.3789 5.6562 0.13281 0.74609 0.16797 1.5117 0.28125 2.5977 0.48828-0.72266 0.77344-1.1562 1.0703-1.5859 3.5547-5.2188 5.7148-11.039 7.5664-17.02 1.4648-4.7266 1.3672-5.1406-3.1133-7.4102-0.24219-0.125-0.48828-0.21484-1.1367-0.48828zm-307.89-14.441c-4.3359 0.875-7.2852 4.3711-6.2344 7.7812 1.4219 4.6133 3.3828 9.0586 5.2188 13.844 2.3867-1.9961 4.4805-3.7109 6.5117-5.5039 0.22656-0.19922 0.21484-0.88672 0.078125-1.2578-1.832-4.9453-3.7031-9.875-5.5742-14.863zm317.57-12.113c-1.6172 4.9414-3.2305 9.8398-4.8008 14.754-0.12109 0.37891-0.097656 1.0703 0.13672 1.2578 1.3633 1.0664 2.8125 2.0234 4.4141 3.1367 0.44922-1.3008 0.99219-2.3086 1.1328-3.3672 0.5625-4.2812 1.0352-8.5742 1.4844-12.871 0.23047-2.2266-0.14453-2.5898-2.3672-2.9102zm-320.93 1.9922c-0.71875-4.7969-1.4375-9.6172-2.1602-14.434-3.3008 3.1836-3.8711 12.883-2.1523 17.68 1.4219-1.0703 2.8594-2.1484 4.3125-3.2461z" fill="#443f3c"/>
</svg>
