<?xml version="1.0" encoding="UTF-8"?>
<svg width="512pt" height="512pt" version="1.1" viewBox="0 0 512 512" xmlns="http://www.w3.org/2000/svg">
 <g fill="#443f3c">
  <path d="m57.047 188.03 15.785 9.8125 13.609 11.988v0.003907c1.7812 1.5547 4.4844 1.3711 6.0391-0.40625 1.5547-1.7812 1.375-4.4844-0.40625-6.0391l-13.867-12.203-0.59766-0.42578-10.453-6.4844 2.8594-1.8789 21.973 6.1016c1.0078 0.28906 2.0859 0.19922 3.0312-0.25391l33.195-16.34 22.316-2.5156 8.7891 4.8633-0.003906-0.003906c0.46094 0.29688 0.98828 0.47266 1.5352 0.51172l33.879 4.2656v0.003906c0.9375 0.10156 1.8828-0.10938 2.6875-0.59766l53.762-32.383h191.74v17.066-0.003907c-0.003906 0.83203 0.23047 1.6484 0.68359 2.3477l4.2656 6.6562-8.1055 18.773-10.156-3.1562c-1.3281-0.42188-2.7773-0.16797-3.8828 0.67969l-18.898 14.254c-1.0469 0.80469-1.6641 2.0508-1.6641 3.3711 0 1.3203 0.61719 2.5625 1.6641 3.3672l31.574 24.746-0.89453 28.117-14.766 0.003907c-0.48047-0.003907-0.96094 0.082031-1.4102 0.25391l-26.754 9.6016-23.379-3.6719c-1.1602-0.19141-2.3477 0.10156-3.2852 0.8125l-27.051 20.863h-20.223c-1.5078 0-2.9023 0.79688-3.6719 2.0898l-19.328 32.641-24.574 37.805-7.6367-10.496 12.801-14.633v-0.003906c1.5547-1.7773 1.3711-4.4805-0.40625-6.0352-1.7812-1.5547-4.4805-1.375-6.0391 0.40234l-14.977 17.066h0.003906c-1.25 1.5625-1.25 3.7773 0 5.3359l13.312 18.305h-0.003906c0.80859 1.1016 2.0938 1.75 3.457 1.7461 1.4062-0.042969 2.6992-0.77734 3.457-1.9609l27.82-43.391 18.215-30.336h19.203c0.9375 0.007812 1.8516-0.29297 2.6016-0.85547l26.836-20.48 22.613 3.5859c0.69922 0.17969 1.4336 0.17969 2.1328 0l27.051-9.7266h18.133l0.003906-0.003906c1.1289 0 2.2148-0.44922 3.0156-1.2461 0.80078-0.80078 1.25-1.8867 1.25-3.0195l1.1094-34.391v0.003906c0.035157-1.3672-0.58203-2.668-1.6641-3.5l-28.93-22.957 12.801-9.7266 11.734 3.7969c2.0898 0.66016 4.3398-0.37109 5.2031-2.3867l10.371-24.406c0.57422-1.3047 0.46094-2.8086-0.30078-4.0117l-4.8633-7.5508v-20.098c0-1.1328-0.44922-2.2148-1.25-3.0156-0.80078-0.80078-1.8867-1.25-3.0156-1.25h-197.12c-0.77734 0.007812-1.543 0.21094-2.2188 0.59766l-53.461 32.254-31.574-3.8828-9.1289-5.1172c-0.76953-0.46484-1.6758-0.64844-2.5625-0.51172l-24.406 2.7734c-0.48828 0.035156-0.96484 0.16406-1.4062 0.38281l-32.383 15.957-22.445-6.2305c-1.1914-0.32812-2.4648-0.12891-3.4961 0.55469l-9.9844 6.6562c-1.2188 0.80078-1.9414 2.168-1.9219 3.6289 0.035156 1.4492 0.80859 2.7852 2.0508 3.5391z"/>
  <path d="m238.16 300.2c-1.6641-1.6562-4.3516-1.6562-6.0156 0l-14.891 14.422c-0.92578 0.89844-1.3984 2.168-1.2773 3.4531 0.11719 1.2852 0.80469 2.4453 1.875 3.1602l29.867 19.457v-0.003906c1.9805 1.2969 4.6328 0.74219 5.9297-1.2344 1.2969-1.9805 0.74219-4.6367-1.2383-5.9336l-25.301-16.512 11.051-10.711v0.003907c0.82031-0.80469 1.2852-1.9023 1.2852-3.0508 0-1.1484-0.46484-2.25-1.2852-3.0508z"/>
  <path d="m281.3 284.84c0.91797-2.168-0.09375-4.6719-2.2617-5.5898l-27.305-11.648c-1.4492-0.55078-3.082-0.27344-4.2695 0.72656l-39.508 34.602c-1.3633 1.1641-1.8516 3.0625-1.2227 4.7422 0.62891 1.6797 2.2461 2.7852 4.0391 2.7656 1.0352 0 2.0391-0.37891 2.8164-1.0664l37.207-32.641 24.918 10.582h-0.003906c1.0703 0.42969 2.2656 0.41016 3.3164-0.058594 1.0547-0.46484 1.875-1.3359 2.2734-2.4141z"/>
  <path d="m220.2 283.01c0.63672 0.003907 1.2656-0.14062 1.8359-0.42578 2.1133-1.0195 3.0117-3.5547 2.0039-5.6758l-12.246-25.602 15.617-10.113 24.062 8.5352c1.332 0.48828 2.8203 0.28125 3.9688-0.55469l13.355-9.3438 4.5234 17.066c0.35938 1.375 1.3867 2.4805 2.7305 2.9453l10.539 3.625c2.2383 0.76953 4.6719-0.42578 5.4375-2.6641s-0.42578-4.6758-2.6641-5.4414l-8.5352-2.8594-5.5469-20.82c-0.35938-1.3242-1.3359-2.3945-2.6211-2.8789-1.2852-0.48047-2.7227-0.31641-3.8633 0.44531l-16.469 11.988-23.98-8.5352v0.003906c-1.25-0.44922-2.6367-0.29297-3.7539 0.42578l-20.523 13.312c-1.75 1.1406-2.418 3.3789-1.5781 5.293l13.867 28.887v-0.003906c0.71875 1.4648 2.207 2.3945 3.8398 2.3906z"/>
  <path d="m164.18 236.54 25.602-4.2656c2.3555-0.37891 3.9609-2.5938 3.5859-4.9492-0.37891-2.3555-2.5938-3.9609-4.9531-3.5859l-27.734 4.2656 0.003906 0.003907c-1.3398 0.21484-2.4961 1.0547-3.1172 2.2617l-8.918 17.066h0.003906c-0.3125 0.60547-0.47266 1.2773-0.47266 1.9609v11.094c0.015624 1.2305 0.55859 2.3984 1.4961 3.1992 0.76562 0.67578 1.75 1.0547 2.7734 1.0664h0.59766l41.047-5.5898h-0.003906c2.3555-0.31641 4.0078-2.4844 3.6914-4.8398-0.31641-2.3594-2.4844-4.0117-4.8438-3.6914l-36.18 5.4609v-5.0781z"/>
  <path d="m137.17 184.79c-0.60547-0.96875-1.5742-1.6523-2.6875-1.9023-1.1133-0.24609-2.2812-0.039063-3.2422 0.57812l-28.844 19.629c-1.5547 1.043-2.25 2.9844-1.707 4.7773l6.4844 21.035v18.773h0.003907c-0.007813 1.7852 1.1016 3.3867 2.7734 4.0117l26.199 9.8125h-0.003906c0.48047 0.16406 0.98437 0.25 1.4961 0.25781 2.0312-0.035157 3.7617-1.5039 4.1211-3.5078 0.36328-2-0.73828-3.9805-2.6289-4.7305l-23.426-8.7891v-16.469c-0.003907-0.43359-0.078126-0.86719-0.21094-1.2773l-5.7188-18.602 26.238-17.664v-0.003906c0.94141-0.63281 1.5938-1.6133 1.8086-2.7266 0.21484-1.1094-0.019531-2.2656-0.65625-3.2031z"/>
  <path d="m203.22 291.8c0.80469-0.80078 1.2617-1.8906 1.2617-3.0273 0-1.1406-0.45703-2.2305-1.2617-3.0312-1.6641-1.6523-4.3516-1.6523-6.0156 0l-24.961 24.406c-0.34375 0.33594-0.63281 0.72266-0.85547 1.1523l-7.7656 15.531c-0.56641 1.1719-0.56641 2.5391 0 3.7109 0.55078 1.125 1.5625 1.9492 2.7734 2.2617l16.383 3.8828h0.98438c1.3203-0.003906 2.5664-0.61719 3.3711-1.6641l9.7266-12.457v-0.003906c1.3906-1.7969 1.125-4.3633-0.59766-5.8438-1.8633-1.4336-4.5312-1.0898-5.9727 0.76953l-8.1055 10.324-8.5352-2.0039 5.1211-10.07z"/>
  <path d="m132.91 359.98c0.70703 0.47266 1.5391 0.72656 2.3906 0.72266 0.47656-0.007813 0.94922-0.078125 1.4062-0.21094l27.18-9.4727c2.1758-0.82031 3.293-3.2305 2.5156-5.418-0.78125-2.2109-3.2031-3.3711-5.418-2.6055l-25.215 8.5352-8.6172-5.6758 6.0156-8.7891h7.8516-0.003906c-0.1875 2.3555 1.5703 4.418 3.9258 4.6094 2.3594 0.1875 4.4219-1.5703 4.6094-3.9258l0.55469-4.2656c0.14844-1.207-0.22656-2.418-1.0234-3.3281-0.80859-0.92188-1.9766-1.4492-3.1992-1.4531h-15.02c-1.418 0-2.7461 0.70312-3.543 1.8789l-9.6445 14.422h0.003906c-0.63672 0.9375-0.87109 2.0898-0.65625 3.2031 0.21875 1.1133 0.86719 2.0938 1.8086 2.7266z"/>
  <path d="m117.42 326.74c0.72266 1.4336 2.1914 2.3398 3.7969 2.3477 0.67969-0.015625 1.3516-0.17578 1.9648-0.47266l20.609-10.539h-0.003906c1.1641-0.58203 1.9961-1.668 2.2617-2.9414 0.26562-1.3086-0.097656-2.668-0.98047-3.6719l-18.219-22.188v0.003906c-0.66016-0.82422-1.6055-1.3711-2.6445-1.5391l-22.188-3.3281c-1.125-0.16797-2.2734 0.11719-3.1875 0.80078-0.91406 0.67969-1.5195 1.6992-1.6758 2.8281-0.33203 2.3164 1.2695 4.4688 3.582 4.8203l20.566 3.1133 13.824 16.812-15.66 8.2344c-1.0312 0.48047-1.832 1.3555-2.2188 2.4297-0.38281 1.0742-0.32031 2.2578 0.17188 3.2891z"/>
  <path d="m142.8 296.06 6.1016 9.4297c0.78516 1.2227 2.1328 1.9609 3.5859 1.9648 0.82812-0.015625 1.6367-0.25391 2.3438-0.68359 0.95703-0.62109 1.625-1.5938 1.8555-2.707 0.23047-1.1133 0.011719-2.2734-0.61719-3.2227l-4.6094-7.125 2.0898-3.1992 11.309 8.7891c0.87891 0.79688 2.0469 1.1953 3.2305 1.0977 1.1836-0.10156 2.2695-0.6875 3.0039-1.6211 0.73047-0.93359 1.0391-2.1328 0.85547-3.3047-0.1875-1.1719-0.85547-2.2109-1.8398-2.8711l-14.977-11.691c-0.94922-0.72266-2.1562-1.0195-3.3281-0.8125-1.1875 0.19141-2.2422 0.87109-2.9023 1.8789l-6.1016 9.4297c-0.91797 1.4141-0.91797 3.2344 0 4.6484z"/>
  <path d="m281.3 162.48c2.3555 0 4.2656-1.9141 4.2656-4.2695s-1.9102-4.2656-4.2656-4.2656h-18.305c-2.3555 0-4.2656 1.9102-4.2656 4.2656s1.9102 4.2695 4.2656 4.2695z"/>
  <path d="m301.4 162.48h125.27c2.3555 0 4.2656-1.9141 4.2656-4.2695s-1.9102-4.2656-4.2656-4.2656h-125.27c-2.3594 0-4.2695 1.9102-4.2695 4.2656s1.9102 4.2695 4.2695 4.2695z"/>
 </g>
</svg>
