<?xml version="1.0" encoding="UTF-8"?>
<svg width="512pt" height="512pt" version="1.1" viewBox="0 0 512 512" xmlns="http://www.w3.org/2000/svg">
 <g fill="#443f3c">
  <path d="m131 127.85c0-10.004-8.1367-18.141-18.141-18.141s-18.141 8.1367-18.141 18.141v46.719h36.281zm-5.3086 41.41h-25.66v-41.41c0-7.0742 5.7539-12.832 12.832-12.832 7.0742 0 12.832 5.7539 12.832 12.832z"/>
  <path d="m98.828 424.02h29.863v-36.727h-29.863zm5.3008-31.414h19.246v26.105h-19.246z"/>
  <path d="m194.95 331.48v22.855h24.004v-22.488l-11.961-9.9141zm18.688 17.543h-13.379v-14.977l6.6562-5.2734 6.7227 5.5742z"/>
  <path d="m417.29 127.85c0-10.004-8.1406-18.141-18.141-18.141s-18.145 8.1367-18.145 18.141v46.719h36.285zm-5.3086 41.41h-25.668v-41.41c0-7.0742 5.7539-12.832 12.836-12.832 7.0742 0 12.832 5.7539 12.832 12.832z"/>
  <path d="m383.31 424.02h29.863v-36.727h-29.863zm5.3125-31.414h19.246v26.105h-19.246z"/>
  <path d="m293.06 331.85v22.488h24.004v-22.855l-12.043-9.5391zm18.691 2.2031v14.977h-13.383v-14.676l6.7227-5.5742z"/>
  <path d="m459.71 205.21 8.1562-14.238h-13.941v-97.004h-20.5l-31.699-35.605v-21.094h5.918v-5.3086h-5.918v-6.3633h-5.3086v6.3594h-5.7734v5.3086h5.7734v21.242l-31.559 35.457h-20.5l-0.003906 97.008h-13.941l8.168 14.242v33.207l-6.2344 6.2305v7.2539h-60.414v-16.375h-13.277v-35.176h10.395v-5.3086h-10.395v-11.062h-5.3086v11.062h-10.172v5.3086h10.172v35.176l-13.27 0.003906v16.375h-60.414v-7.2539l-6.2344-6.2305v-33.207l8.1602-14.242h-13.941l-0.003907-97.008h-20.5l-31.699-35.609v-21.094h5.918v-5.3047h-5.918v-6.3633h-5.3086v6.3594h-5.7734v5.3086h5.7734v21.246l-31.559 35.449-20.504 0.003906v97.008h-13.941l8.1602 14.242v33.207l-6.2344 6.2305v241.74h419.88v-241.74l-6.2305-6.2305v-33.215zm-92.473-105.94 31.898-35.836 31.898 35.836h17.578v91.699h-98.949v-91.699zm91.469 97.008-3.1914 5.5703h-112.74l-3.1953-5.5703zm-4.3086 40.586h-110.51v-29.707h110.51zm-373.44-137.59 31.902-35.836 31.902 35.836h17.57l0.003907 91.699h-98.949v-91.699zm91.469 97.008-3.1953 5.5703h-112.74l-3.1914-5.5703zm-4.3125 40.586h-110.51v-29.707h110.51zm-112.06 5.3086h113.62l4.6797 4.6797v5.0547h-122.98v-5.0547zm144.2 150.43h111.49v88.488h-29.645v-56.57l-13.656-11.125h-24.895l-13.66 11.125v56.57h-29.641zm3.3281-5.3086 52.418-57.984 52.422 57.98h-104.84zm73.215 93.797h-41.594v-54.051l10.234-8.3359h21.125l10.234 8.3359zm40.266 0v-92.164l-61.062-67.531-61.055 67.531v92.164h-143.57v-223.88h194.01v-16.367h21.234v16.367h194.01v223.88zm143.57-234.23v5.0547h-122.98v-5.0547l4.6836-4.6797h113.62z"/>
  <path d="m256.11 276.68c-9.9375 0-18.027 8.0898-18.027 18.027s8.0859 18.027 18.027 18.027 18.027-8.0859 18.027-18.027c0-9.9453-8.0859-18.027-18.027-18.027zm0 30.75c-7.0156 0-12.719-5.7031-12.719-12.719s5.7031-12.719 12.719-12.719 12.719 5.7031 12.719 12.719c-0.003906 7.0156-5.707 12.719-12.719 12.719z"/>
 </g>
</svg>
