<?xml version="1.0" encoding="UTF-8"?>
<svg width="512pt" height="512pt" version="1.1" viewBox="0 0 512 512" xmlns="http://www.w3.org/2000/svg">
 <g fill="#443f3c">
  <path d="m235.52 148.48c0.52344 2.1445 2.3594 3.7109 4.5586 3.8906h0.5625c2.0859 0.011718 3.9688-1.2461 4.7617-3.1758l8.2422-19.918 21.504 1.6914c2.1953 0.15625 4.2461-1.1055 5.0898-3.1367 0.84766-2.0273 0.30469-4.375-1.3516-5.8242l-16.383-14.027 8.293-19.918c0.85938-2.0625 0.27734-4.4492-1.4336-5.8867-1.7812-1.4922-4.3477-1.5977-6.2461-0.25391l-18.379 11.266-16.383-14.027-0.003907-0.003906c-1.6875-1.4922-4.1484-1.7031-6.0664-0.52734-1.918 1.1758-2.8438 3.4688-2.2773 5.6445l5.1211 20.992-18.379 11.266h-0.003906c-1.8789 1.1562-2.8086 3.3828-2.3047 5.5312 0.50391 2.1602 2.3438 3.7539 4.5586 3.9414l21.504 1.6914zm-1.8438-36.66c1.8789-1.1523 2.8086-3.3828 2.3047-5.5273l-2.3555-9.0117 7.2695 6.1953c1.6875 1.4297 4.1055 1.6172 5.9922 0.46094l8.1406-5.1211-3.6367 8.7031c-0.84375 2.0391-0.28906 4.3945 1.3828 5.8359l7.2188 6.2461-9.4727-0.76953 0.003907 0.003907c-2.2031-0.17188-4.2656 1.0859-5.1211 3.1211l-3.6367 8.8047-2.2031-9.2656h0.003906c-0.51172-2.1797-2.375-3.7773-4.6094-3.9414l-9.6758-0.51172z"/>
  <path d="m103.07 311.25c15.797 5.2266 32.309 7.9727 48.945 8.1406 32.824 0.53516 64.219-13.418 85.812-38.145-5.5312 37.426-34.152 38.453-62.004 39.371-9.0195-0.15234-18.023 0.87891-26.777 3.0742-33.332 11.059-39.477 33.125-44.902 52.684-1.4141 5.4297-3.125 10.781-5.1211 16.027-9.9844 24.219-37.836 26.676-39.016 26.777h0.003906c-1.9688 0.13672-3.6797 1.3906-4.4062 3.2227-0.63281 1.7578-0.25781 3.7188 0.97266 5.1211 9.8828 10.699 50.227 34.508 95.438 34.508h7.8867c35.02-2.2031 63.742-18.738 85.402-49.203 45.363-63.797 26.676-114.38 12.594-137.83 34.508 16.281 27.035 44.082 19.711 71.016-2.8828 8.5742-4.6055 17.492-5.1172 26.523 0.71875 35.125 20.02 47.512 37.07 58.418h-0.003906c4.8477 2.8359 9.5156 5.9648 13.977 9.3711 20.48 16.691 14.336 44.031 14.078 45.16l0.003906-0.003907c-0.36719 1.5469 0.007813 3.1797 1.0078 4.4102 1.0039 1.2344 2.5234 1.9336 4.1133 1.8906 0.76172-0.007813 1.5117-0.17969 2.1992-0.51172 13.875-6.6562 51.812-41.574 63.18-88.629 8.1914-34.098 0.82031-66.559-21.914-96.102-47-61.441-100.1-59.238-126.93-52.891 26.367-26.367 49.922-10.238 72.859 5.1211 7.1953 5.4492 15.082 9.9258 23.453 13.312 7.1602 2.4141 14.66 3.6914 22.219 3.7891 20.02 0 33.125-10.238 45.105-19.812v-0.003907c4.3203-3.582 8.8516-6.8984 13.57-9.9336 22.375-13.672 46.078 0.82031 47.309 1.4336 1.6602 1.0391 3.7656 1.0391 5.4258 0 1.7383-1.082 2.6641-3.0938 2.3555-5.1172-1.7422-15.359-22.375-62.516-63.18-88.574-29.594-18.84-62.516-22.426-97.996-10.598-73.523 24.93-88.781 75.875-91.445 103.37-16.539-33.535 6.2461-50.738 28.363-67.379h0.003906c7.4922-5.0469 14.273-11.074 20.172-17.918 20.992-28.16 13.312-49.766 6.5547-68.863-2.0273-5.2539-3.7383-10.621-5.1211-16.078-5.7344-25.602 15.668-43.57 16.59-44.34 1.5156-1.2422 2.1875-3.2461 1.7305-5.1523-0.45703-1.9102-1.9648-3.3867-3.8828-3.8086-15.359-3.3281-66.559 1.0234-104.29 31.23-27.391 21.914-41.371 51.918-41.625 89.293-0.5625 78.234 43.672 108.95 68.66 120.06-37.531 6.3984-47.359-20.48-56.832-46.797l-0.003906 0.003906c-2.5859-8.6367-6.3242-16.883-11.109-24.523-20.734-28.363-43.672-27.441-63.898-26.574-5.6094 0.30859-11.234 0.30859-16.844 0-26.215-1.9453-36.863-27.547-37.324-28.875-0.71484-1.7695-2.3516-2.9922-4.25-3.1758-1.9609-0.14453-3.832 0.85156-4.8125 2.5586-7.7305 13.414-18.738 63.797-1.0234 108.85 12.852 32.617 37.426 54.887 73.062 66.102zm237.93 13.977c-8.1914-21.965-26.164-55.039-63.641-64.102 26.113-2.1523 64.77 5.1211 100.66 52.02 20.48 27.086 27.441 56.32 20.02 87.449h-0.003906c-8.1797 29.82-25.359 56.391-49.203 76.082 0.88281-16.793-6.0547-33.051-18.789-44.031-4.7109-3.7227-9.6523-7.1406-14.797-10.242-16.332-10.238-31.742-20.48-32.359-50.023v0.003906c0.52344-8.0352 2.0703-15.965 4.6094-23.605 6.4531-23.859 15.668-57.805-17.355-78.645 36.352 6.6562 53.707 38.094 61.441 58.727l-0.003907 0.003906c0.73438 2.0273 2.6562 3.375 4.8125 3.3789 1.6836 0.003907 3.2578-0.81641 4.2188-2.1953 0.96094-1.3789 1.1836-3.1445 0.59375-4.7188zm-7.4766-171.62c32.41-10.754 62.414-7.5781 89.242 9.5742 25.551 17.371 45.109 42.207 56.012 71.117-15.578-6.293-33.195-5.0273-47.715 3.4297-5.0898 3.2383-9.9766 6.7773-14.645 10.598-15.359 12.031-29.594 23.398-57.805 14.336-7.3438-3.0781-14.289-7.0312-20.684-11.777-13.414-9.1133-30.719-20.789-49.406-20.789l-0.003906 0.003906c-11.297 0.13281-22.184 4.2695-30.719 11.672 18.484-33.125 55.09-38.91 78.027-38.91h0.41016c2.8281 0 5.1211-2.293 5.1211-5.1211s-2.293-5.1211-5.1211-5.1211h-0.35938c-20.02 0-61.695 4.5586-84.328 39.578 6.3516-25.703 25.758-60.059 81.973-78.59zm-87.348 137.11c4.7109 36.965-20.887 63.078-38.348 76.492-1.7188 1.332-2.4062 3.6094-1.7148 5.6719 0.69141 2.0625 2.6133 3.4648 4.7891 3.4922 1.1055 0 2.1836-0.35938 3.0703-1.0234 15.359-11.57 45.16-39.578 42.855-80.434 9.8789 24.266 14.539 63.484-19.867 111.92-19.812 27.801-46.078 42.906-77.672 44.902-30.953 1.0312-61.469-7.5547-87.344-24.578 16.273-4.0469 29.766-15.387 36.555-30.719 2.1875-5.7383 4.0352-11.605 5.5312-17.562 5.1211-18.688 10.238-36.352 38.246-45.672v0.003907c7.832-1.8516 15.863-2.7109 23.91-2.5625 24.73-0.61328 59.953-1.9453 69.988-39.934zm-33.996-140.55c-2.6719-0.91406-5.582 0.50391-6.5 3.1758-6.5547 18.844-16.23 60.211 9.8789 93.234-21.965-14.285-48.129-43.672-47.719-102.86 0-34.152 12.953-61.441 37.785-81.355h0.003906c24.758-18.629 54.688-29.113 85.656-30.004-10.969 12.648-15.484 29.652-12.238 46.078 1.3594 5.8516 3.0703 11.613 5.1211 17.254 6.4531 18.277 12.594 35.531-5.1211 59.34v0.003906c-5.2773 6.0703-11.297 11.453-17.918 16.023-19.762 14.848-47.922 36.098-34.457 72.91-25.602-28.469-18.945-65.484-11.367-87.039 0.52344-1.3086 0.48438-2.7734-0.10547-4.0547-0.58984-1.2773-1.6836-2.2578-3.0195-2.707zm-176.03 0.5625 0.003907 0.003906c8.9023 14.27 23.914 23.609 40.652 25.293 6.0195 0.33203 12.055 0.33203 18.074 0 19.406-0.82031 37.684-1.5859 55.195 22.375l-0.003906-0.003906c4.1602 6.8086 7.4297 14.121 9.7305 21.762 8.3984 23.297 20.48 56.32 59.801 54.273-34.867 16.434-68.352-1.0234-87.039-14.695-1.0859-0.90625-2.5-1.3203-3.9023-1.1484s-2.6719 0.91406-3.5078 2.0547c-0.83594 1.1406-1.1602 2.5742-0.90234 3.9648 0.25781 1.3867 1.0781 2.6094 2.2695 3.3711 12.133 8.9102 35.84 23.246 63.898 23.246 9.6211 0.066407 19.176-1.6719 28.16-5.1211-20.121 16.793-55.961 33.125-112.64 15.359-32.562-10.238-54.988-30.719-66.559-60.109h-0.003906c-10.418-29.148-11.543-60.809-3.2227-90.621z"/>
  <path d="m66.559 234.7 20.48 1.332 5.1211 19.969c0.55078 2.1562 2.4375 3.7109 4.6602 3.8398h0.46094c2.0977 0.003906 3.9844-1.2773 4.7617-3.2266l7.6289-19.148 20.48 1.332c2.2266 0.15625 4.2969-1.1484 5.1172-3.2266 0.82422-2.0625 0.22266-4.418-1.4844-5.8359l-16.023-13.16 7.6289-19.148c0.82812-2.0586 0.23438-4.418-1.4688-5.8398-1.7031-1.4219-4.1289-1.5859-6.0078-0.40625l-17.461 11.008-15.871-13.16v0.003906c-1.7109-1.4023-4.125-1.5469-5.9883-0.35938-1.7109 1.3008-2.4258 3.5273-1.793 5.582l5.1211 19.969-17.719 11.059c-1.8789 1.1758-2.7891 3.4258-2.25 5.5781 0.54688 2.1406 2.4023 3.6875 4.6055 3.8398zm23.656-13.824c1.8594-1.1875 2.75-3.4375 2.1992-5.5781l-2.0977-8.293 6.6055 5.4766c1.7109 1.3984 4.125 1.543 5.9883 0.35938l7.2188-4.5586-3.125 7.9375h0.003906c-0.82422 2.0625-0.22266 4.418 1.4844 5.8359l6.6055 5.4766-8.6016-0.5625c-2.2266-0.15625-4.3008 1.1484-5.1211 3.2266l-3.1758 7.9883-2.0977-8.293v-0.003906c-0.55078-2.1562-2.4336-3.707-4.6602-3.8398l-8.4453-0.76562z"/>
  <path d="m176.95 384 7.6289-19.301c0.82422-2.0625 0.22656-4.4219-1.4844-5.8398-1.6875-1.4297-4.1016-1.6172-5.9883-0.46094l-17.512 11.109-15.973-13.211v0.003906c-1.6953-1.3984-4.0938-1.5586-5.9609-0.40234-1.8672 1.1602-2.7852 3.3828-2.2852 5.5234l5.1211 20.07-17.613 11.262c-1.8594 1.1914-2.7461 3.4414-2.1992 5.582 0.54687 2.1406 2.4023 3.6875 4.6055 3.8398l20.734 1.2812 5.1211 20.07c0.54688 2.1406 2.4062 3.6875 4.6094 3.8398h0.35938c2.0781-0.019532 3.9414-1.293 4.7109-3.2266l7.6289-19.25 20.734 1.2812v-0.003906c2.2188 0.14453 4.2734-1.1602 5.0898-3.2266 0.82031-2.0664 0.21094-4.4219-1.5039-5.8359zm-11.367 10.238h0.003906c-2.2422-0.14844-4.3164 1.1836-5.1211 3.2773l-3.1758 8.0898-2.1484-8.293c-0.54688-2.1406-2.4062-3.6875-4.6094-3.8398l-8.7031-0.5625 7.3711-4.6602c1.8633-1.1914 2.75-3.4414 2.2031-5.582l-2.1523-8.4492 6.6562 5.582c1.7227 1.4258 4.168 1.5703 6.043 0.35938l7.3203-4.6602-3.1758 8.0898h0.003906c-0.82422 2.0625-0.22266 4.418 1.4844 5.8359l6.5 5.5312z"/>
  <path d="m321.59 350.52c-1.7969-1.3164-4.2422-1.3164-6.0391 0-1.8438 1.2266-2.6914 3.4961-2.1016 5.6328l5.6836 20.48-18.023 11.828v-0.003906c-1.9102 1.2461-2.7656 3.6055-2.0977 5.7852 0.58984 2.1172 2.4648 3.6211 4.6602 3.7383l21.504 1.0234 5.6836 20.84c0.59375 2.1328 2.4961 3.6406 4.7109 3.7383 2.1211-0.015625 4.0156-1.3398 4.7617-3.3281l7.832-20.277 21.504 1.0234v0.003906c2.2539 0.14062 4.332-1.2109 5.1211-3.3281 0.77344-2.0703 0.13281-4.4023-1.5898-5.7852l-16.844-13.469 7.6289-20.02c0.77344-2.0664 0.13672-4.3984-1.5859-5.7852-1.7344-1.4062-4.1758-1.5312-6.043-0.30469l-17.973 11.828zm27.238 18.895-3.3789 8.8594v-0.003906c-0.75 2.0547-0.10937 4.3594 1.5898 5.7344l7.4258 5.9375-9.4727-0.46094h-0.003906c-2.2539-0.14062-4.332 1.2109-5.1172 3.3281l-3.3281 8.8594-2.5078-9.1133h-0.003906c-0.57422-2.1562-2.4805-3.6875-4.707-3.7891l-9.4727-0.46094 7.9375-5.1211h-0.003906c1.8438-1.2031 2.707-3.4492 2.1523-5.5781l-2.2539-8.9609 7.3711 5.9375h0.003907c1.7969 1.3164 4.2422 1.3164 6.0391 0z"/>
  <path d="m358.4 215.55 20.84 1.332 5.1211 20.48c0.55078 2.1562 2.4336 3.7109 4.6602 3.8398h0.10156c2.0977 0.003906 3.9844-1.2773 4.7617-3.2266l7.7305-19.406 20.84 1.332c2.1875 0.11328 4.2109-1.1797 5.0195-3.2188 0.8125-2.0391 0.23438-4.3672-1.4375-5.7891l-16.027-13.363 7.7305-19.406h0.003907c0.82031-2.0625 0.22266-4.418-1.4844-5.8359-1.7227-1.4258-4.168-1.5703-6.043-0.35937l-17.613 11.109-16.078-13.312c-1.6172-1.5312-4.0391-1.8398-5.9883-0.76562-1.8828 1.1758-2.7891 3.4297-2.2539 5.5781l5.1211 20.48-17.664 11.109v0.003906c-1.8633 1.1875-2.75 3.4375-2.2031 5.5781 0.57422 2.2266 2.5664 3.8008 4.8633 3.8398zm23.859-13.926c1.8828-1.1758 2.793-3.4297 2.2539-5.582l-2.2031-8.6016 6.8125 5.6836c1.7109 1.4023 4.125 1.5469 5.9883 0.35938l7.4766-4.7109-3.2266 8.2461c-0.79688 2.0469-0.19922 4.375 1.4844 5.7852l6.8086 5.6836-8.8047-0.61328v-0.003906c-2.2266-0.15625-4.3008 1.1484-5.1211 3.2266l-3.2773 8.2422-2.1523-8.6016h0.003906c-0.55469-2.1562-2.4375-3.707-4.6602-3.8398l-8.8047-0.5625z"/>
 </g>
</svg>
