<?xml version="1.0" encoding="UTF-8"?>
<svg width="512pt" height="512pt" version="1.1" viewBox="0 0 512 512" xmlns="http://www.w3.org/2000/svg">
 <path d="m256.72 103.41c-2.2969 0-4.0742 1.7188-4.0742 3.9414 0 2.2188 1.7773 3.9375 4.0742 3.9375 2.3008 0 4.0781-1.7188 4.0781-3.9375 0-2.2227-1.7773-3.9414-4.0781-3.9414zm-31.242 88.102c0.74219-14.078 3.2617-26.805 6.9453-36.562 0.36719-0.97656-23.41 11.137-27.859 36.562zm55.422-36.906c4.3984 11.449 6.4375 24.754 7.0781 36.906h20.906c-2.7773-15.871-13.219-29.562-27.984-36.906zm-10.723 36.906c-0.68359-12.031-2.7852-22.699-5.8164-30.727-5.8984-15.648-9.3672-15.617-15.27 0-3.0273 8.0273-5.1289 18.695-5.8125 30.727zm-125.8 184.61c0.015625 4.7227-3.9297 8.5781-8.8164 8.5938-4.8906 0.011719-8.875-3.8008-8.8906-8.5273l-0.09375-14.062c-0.015624-4.7266 3.9297-8.5781 8.8164-8.5938 4.8906-0.015625 8.875 3.8008 8.8906 8.5234zm0-104.73c0.015625 4.7227-3.9297 8.5781-8.8164 8.5898-4.8906 0.015625-8.875-3.7969-8.8906-8.5234l-0.09375-14.062c-0.015624-4.7266 3.9297-8.5781 8.8164-8.5938 4.8906-0.015625 8.875 3.8008 8.8906 8.5234zm244.41 104.73c0.015625 4.7227-3.9297 8.5781-8.8164 8.5938-4.8906 0.011719-8.875-3.8008-8.8906-8.5273l-0.097657-14.062c-0.011718-4.7266 3.9336-8.5781 8.8203-8.5938s8.875 3.8008 8.8906 8.5234zm0-104.73c0.015625 4.7227-3.9297 8.5781-8.8164 8.5898-4.8906 0.015625-8.875-3.7969-8.8906-8.5234l-0.097657-14.062c-0.011718-4.7266 3.9336-8.5781 8.8203-8.5938s8.875 3.8008 8.8906 8.5234zm-87.094-21.523c0.015625 4.7266-3.9297 8.5781-8.8203 8.5938-4.8867 0.015624-8.875-3.8008-8.8867-8.5273l-0.097657-14.062c-0.015624-4.7227 3.9297-8.5781 8.8203-8.5938 4.8867-0.011719 8.8711 3.8008 8.8867 8.5273zm-36.5 0.015624c0.015625 4.7227-3.9297 8.5781-8.8203 8.5938-4.8867 0.011719-8.875-3.8008-8.8867-8.5273l-0.097657-14.062c-0.015624-4.7266 3.9297-8.5781 8.8203-8.5938 4.8867-0.015625 8.8711 3.8008 8.8867 8.5234zm-35.34-0.035156c0.011719 4.7266-3.9336 8.5781-8.8203 8.5938-4.8906 0.015625-8.875-3.8008-8.8906-8.5234l-0.09375-14.066c-0.015625-4.7227 3.9297-8.5781 8.8164-8.5938 4.8906-0.011718 8.875 3.8008 8.8906 8.5273zm17.984-172.99c0-4.7461 3.9805-8.5938 8.8867-8.5938 4.9102 0 8.8906 3.8477 8.8906 8.5938v11.203c7.8008 3.3867 12.969 10.918 12.969 19.289 0 8.3242-5.1484 15.906-12.969 19.289v5.6758c35.258 4.2812 61.797 33.383 61.797 67.789v86.945l13.793-10.309v-59.059c0-1.3984 0.34766-2.7188 0.96484-3.8906l28.395-60.633v-14.496c0-4.7461 3.9844-8.5938 8.8906-8.5938 4.9102 0 8.8906 3.8477 8.8906 8.5938v14.492l28.48 60.555c0.40234 0.71094 1.0039 3.5312 1.0039 4.3359v86.262h35.523c4.9102 0 8.8906 3.8516 8.8906 8.5938v122.18c0 4.7422-3.9805 8.5898-8.8906 8.5898h-393.26c-4.9102 0-8.8906-3.8477-8.8906-8.5898v-122.18c0-4.7422 3.9805-8.5938 8.8906-8.5938h35.527v-86.633c0-1.3984 0.34766-2.7188 0.96094-3.8867l28.398-60.629v-14.504c0-4.7422 3.9805-8.5898 8.8906-8.5898 4.9062 0 8.8867 3.8477 8.8867 8.5898v14.496l28.484 60.555c0.91797 1.7773 1.0039 2.9336 1.0039 4.8945v58.141l13.141 10.816 0.65625-87.453c0-34.402 26.543-63.508 61.793-67.789v-5.6797c-7.832-3.4062-12.969-10.938-12.969-19.285 0-8.3516 5.1406-15.871 12.969-19.281zm53.156 349.62-0.078125-26.316c0-4.7227 3.9648-8.5586 8.8555-8.5586 4.8867 0 8.8555 3.8359 8.8555 8.5586l0.074218 26.316h22.504v-52.715h-168.96v52.715h21.629l-0.078125-26.359c0-4.7266 3.9688-8.5586 8.8555-8.5586 4.8867 0 8.8555 3.832 8.8555 8.5586l0.074219 26.359h17.566l-0.074219-26.359c0-4.7266 3.9648-8.5586 8.8555-8.5586 4.8867 0 8.8516 3.832 8.8516 8.5586l0.078125 26.359h17.633l-0.078125-26.277c0-4.7227 3.9648-8.5586 8.8555-8.5586 4.8867 0 8.8516 3.8359 8.8516 8.5586l0.078124 26.277zm30.43-95.965c-5.3555 0-9.7148 4.1602-9.7852 9.332v16.734h19.566v-16.613c0-5.2227-4.3828-9.4531-9.7812-9.4531zm-18.676-10.082c4.9492-4.4102 11.508-7.1055 18.672-7.1055 3.4414 0 6.7422 0.61719 9.7852 1.7539v-15.887l-6.7852 5.582c-3.168 3.0156-8.2344 3.3281-11.777 0.57031l-17.781-13.852-19.793 14.32c-3.1914 2.3125-7.7188 2.3164-10.938-0.23828l-17.406-13.844-17.262 13.73c-3.082 2.5586-7.6953 2.8047-11.078 0.35156l-19.793-14.32-17.781 13.852c-3.2539 2.5117-8 2.5352-11.289-0.16406l-7.2734-5.9883v15.883c3.0469-1.1367 6.3438-1.75 9.7812-1.75 7.1836 0 13.758 2.707 18.676 7.1055 4.9492-4.4102 11.504-7.1055 18.668-7.1055 7.1797 0 13.75 2.7031 18.664 7.0938 4.9062-4.3906 11.488-7.0938 18.684-7.0938 7.207 0 13.785 2.6992 18.695 7.0938 4.9492-4.4062 11.5-7.0938 18.656-7.0938 7.1875 0 13.758 2.707 18.676 7.1055zm-8.8867 36.148v-16.613c0-5.2227-4.3867-9.4531-9.7812-9.4531-5.4023 0-9.7891 4.2305-9.7891 9.4531v16.613zm-37.352 0v-16.613c0-5.2109-4.3906-9.4531-9.7773-9.4531-5.3984 0-9.7891 4.2461-9.7891 9.4531v16.613zm-37.348 0v-16.613c0-5.2148-4.3867-9.4531-9.7812-9.4531-5.3594 0-9.7188 4.1602-9.7891 9.332v16.734zm-37.348 0v-16.613c0-5.2227-4.3828-9.4531-9.7812-9.4531-5.3555 0-9.7148 4.1602-9.7852 9.332v16.734zm-56.812-178.46c-0.75781 0.089844-1.4688 0.089844-2.2227 0.007812l-14.5 30.953h31.285zm-39.379 143.37h-26.637v104.99h26.637zm58.844-40.84v-54.387h-41.066v200.21h41.066v-145.83zm226.12-102.52c-0.75391 0.085938-1.4727 0.085938-2.2266 0.003907l-14.5 30.953h31.289zm37.246 248.35h26.633v-104.99h-26.633zm-58.844 0.003906h41.066v-200.21h-41.066v200.21zm-155.16-153.19c3.2461-1.8789 7.3789-1.543 10.25 0.78516l19.367 14.012 17.664-14.051c3.3594-2.6719 8.1562-2.5469 11.363 0.09375l17.547 13.957 19.75-14.289c2.9688-2.1484 6.8789-2.2266 9.8711-0.48828v-64.617h-105.81z" fill="#443f3c"/>
</svg>
