<?xml version="1.0" encoding="UTF-8"?>
<svg width="512pt" height="512pt" version="1.1" viewBox="0 0 512 512" xmlns="http://www.w3.org/2000/svg">
 <g fill="#443f3c">
  <path d="m422.12 276.89-54.516-153.17c-0.019531-0.058594-0.074218-0.089844-0.097656-0.14453-0.38281-0.99219-0.96094-1.875-1.7188-2.5977-0.15625-0.14844-0.35547-0.22266-0.52344-0.35547-0.64844-0.51953-1.3555-0.92969-2.1602-1.1992-0.13281-0.046875-0.22266-0.16406-0.35937-0.19922-0.24219-0.070312-0.49609 0.019532-0.74609-0.023437-0.38672-0.0625-0.73828-0.23047-1.1445-0.23047l-122.68-0.003906-26.938-73.535c-0.023437-0.058594-0.070313-0.097657-0.09375-0.15625-0.039063-0.09375-0.039063-0.19141-0.078125-0.28125v-0.007813c-5.0859-11.414-21.719-14.332-38.691-6.8242-15.988 7.0859-24.734 20.152-21.5 31.203 0.054687 0.20312 0.019531 0.40625 0.09375 0.60547l0.33203 0.89453c0.074219 0.18359 0.078125 0.375 0.15625 0.55469 0.027344 0.058593 0.078125 0.097656 0.10547 0.15625l26.613 71.816-92.406 75.996c-0.32812 0.26953-0.50781 0.63672-0.77344 0.95312-0.16797 0.19141-0.41406 0.28516-0.5625 0.5-0.074219 0.10938-0.070313 0.25391-0.14063 0.36719-0.44141 0.71484-0.71484 1.4766-0.88281 2.2812-0.042969 0.21094-0.15625 0.39844-0.18359 0.61328-0.12109 1.0273-0.003906 2.0625 0.32812 3.0625 0.019531 0.0625 0 0.12891 0.019531 0.19141l57.262 158.68c0.60156 1.6602 1.2422 3.2695 2.0117 4.8594 5.9258 12.359 35.223 66.945 89.531 66.945 0.47656 0 1-0.097656 1.4805-0.10938l69.766 17.641c5.8711 1.8164 11.258 2.6211 16.168 2.6211 21.289 0 34.137-14.945 42.336-27.25l34.551-50.07c34.895-24.867 37.91-80.98 25.441-123.78zm-34.922 113.23c-14.422 9.5625-42.547 22.566-68.801 2.8125l-13.18-10.996c-0.84766-4.707-2.0586-9.2656-3.4258-13.598l-49.645-142.7 105.41-87.477 50.953 143.11c11.48 39.469 7.8477 89.516-21.309 108.85zm-216.39-307.84c0.375 0.011719 0.69922 0.11328 1.082 0.11328 5.6562 0 11.938-1.3477 18.266-4.1523 5.8125-2.5742 10.598-5.9727 14.293-9.7461l33.043 90.207c3.4414 9.3008-1.3203 19.672-10.609 23.125-4.457 1.6602-9.3438 1.4688-13.758-0.55859-4.3867-2.0117-7.7109-5.5859-9.3672-10.066zm7.375-31.035c4.7383-2.1055 9.0547-2.8945 12.445-2.8945 4.0156 0 6.7383 1.1055 7.3359 2.4375l0.011719 0.035157c1.0547 2.4727-3.293 9.7461-13.621 14.324-10.25 4.5234-18.449 2.9297-19.695 0.53125l-0.089844-0.23828c-0.90625-2.5508 3.4062-9.6758 13.613-14.195zm12.145 124.93c4.8164 13.023 17.191 21.09 30.328 21.09 3.7227 0 7.5078-0.64844 11.195-2.0117 16.703-6.1875 25.25-24.82 19.07-41.504l-7.4961-20.469h97.602l-99.883 82.906-130.59 1.3672 72.895-59.949zm-34.562 208.51c-0.55078-1.1523-1.0156-2.3086-1.4414-3.5117l-53.848-149.2 138.21-1.4492 49.512 142.33c4.8242 15.227 6.293 28.141-2.168 41.793-6.3984 10.328-14.754 20.59-32.414 25.711-59.477 17.18-91.945-43.336-97.852-55.676zm194.52 58.016c-12.602 18.895-24.871 24.402-42.789 18.895l-41.477-10.496c16.75-7.0664 25.676-18.41 32.176-28.902 4.4375-7.168 6.75-14.223 7.6758-21.066l3.6328 3.0273c11.801 8.8984 25.137 13.336 39.137 13.336 7.0117-0.007813 14.195-1.2383 21.422-3.4609z"/>
  <path d="m328.45 208.45c-1.1367 0.48047-2.2031 1.0859-3.25 1.793-14.543 10.016-24.156 7.1836-24.453 7.0781-9.6641-3.5586-20.102 1.1953-23.879 10.707-3.7578 9.5781 0.98047 20.449 10.539 24.234 11.344 4.457 31.566 4.9102 52.316-6.8438 0.52344 3.1992 1.4492 6.9648 3.1797 10.801l28.91 63.898c3.0391 6.6602 9.7188 10.977 17.043 10.977 2.6758 0 5.2773-0.57812 7.707-1.6797 4.5469-2.0469 8.0234-5.75 9.7891-10.418 1.7656-4.6836 1.6094-9.7539-0.45312-14.316l-28.93-63.871c-0.050782-0.12109-0.35156-0.86328-0.57812-3.3281-1.5547-16.105-9.5078-24-15.906-27.773-13.82-8.2227-29.117-2.4883-32.035-1.2578zm24.75 13.574c5.0703 3.0078 8.1641 8.8281 8.9336 16.816 0.33203 3.4102 0.875 5.8203 1.7812 7.8555l28.945 63.898c0.99609 2.1836 0 4.7891-2.2031 5.7852-2.1836 1.0156-4.8242-0.070312-5.8047-2.1836l-28.91-63.879c-1.7148-3.7773-2.2383-7.6484-2.5156-10.645-0.28125-2.7422-1.0312-6.4922-3.0586-8.7656-0.68359-0.77734-1.5391-1.3984-2.4805-1.8086-1.207-0.52344-2.5352-0.71875-3.8477-0.71875-1.7656 0-3.4961 0.33984-4.8945 0.73438-0.71875 0.19922-1.3984 0.50781-2.0273 0.92578-19.84 13.102-37.738 11.562-44.434 8.9062-2.2539-0.89062-3.375-3.4414-2.5-5.6562 0.875-2.2031 3.375-3.3477 5.6797-2.5 1.6602 0.56641 16.852 5.4258 38.156-9.1523 0.44531-0.19141 10.914-4.4922 19.18 0.38672z"/>
  <path d="m343.21 289.6c2.5703-9.8945-3.375-20.086-13.32-22.758-10.016-2.5508-20.172 3.4102-22.828 13.25-0.35156 1.2773-8.1445 31.41 15.363 54.816 0.62891 1.9766-2.918 9.2461-8.0938 15.121-3.4414 3.6172-5.2617 8.3711-5.1406 13.371 0.14063 5 2.2031 9.6484 5.8398 13.094 3.4766 3.3047 8.0586 5.1211 12.848 5.1211 5.0859 0 10.031-2.1133 13.562-5.8203 12.586-13.25 30.344-44.328 7.5-67.176-8.1602-8.1445-5.8008-18.688-5.7305-19.02zm-12.129 76.316c-1.6094 1.7148-4.5117 1.7812-6.2031 0.17578-0.85547-0.80469-1.3281-1.8867-1.3633-3.0586-0.035156-1.1719 0.40234-2.2891 1.3984-3.3555 9.6133-10.906 16.711-25.781 7.7266-34.75-17.742-17.707-12.008-40.152-11.766-41.094 0.54297-1.9766 2.3594-3.2695 4.2812-3.2695 0.36719 0 0.73438 0.035156 1.0859 0.14062 2.3242 0.61328 3.7227 2.9883 3.0938 5.4023-1.6953 6.9023-1.5898 21.57 9.4922 32.652 18.785 18.77-7.5039 46.895-7.7461 47.156z"/>
  <path d="m249.66 334.17-4.6758-22.285c-6.4844-30.992-34.191-52.211-65.961-50.742l-23.168 1.2422c-10.016 0.54297-17.734 9.1406-17.199 19.156 0.26953 4.9297 2.4375 9.4375 6.1172 12.691 3.6172 3.2148 8.1445 4.7031 13.039 4.5117l23.125-1.2422c13.836-0.48828 25.617 8.5117 28.402 21.832l4.668 22.305c2.3672 11.309-4.5898 22.254-15.82 24.926l-4.125 0.98047c-4.7266 1.1172-8.75 4.0195-11.301 8.1641-2.5508 4.1445-3.3398 9.0352-2.2188 13.758 1.9492 8.25 9.2305 14.02 17.707 14.02 1.4141 0 2.8477-0.17578 4.168-0.50781l4.1797-0.98047c30.566-7.2617 49.477-37.047 43.062-67.828zm-46.328 53.891-4.2305 0.98047c-2.2656 0.47266-4.1523-0.875-4.6211-2.8672-0.23438-1.0156-0.070313-2.0625 0.48047-2.9531 0.54297-0.89062 1.3906-1.5039 2.4023-1.7305l4.1445-0.99609c18.836-4.4766 30.484-22.848 26.523-41.793l-4.668-22.305c-4.0977-19.559-21.133-33.246-40.988-33.246-0.71875 0-1.4492 0.015625-2.1758 0.050781l-23.238 1.2422c-1.3555 0.22656-2.1602-0.45312-2.6836-0.92578-0.79688-0.69922-1.2578-1.6797-1.3203-2.7422-0.11328-2.1328 1.5391-3.9688 3.6797-4.0898l23.133-1.2422c24.68-1.0859 46.172 15.328 51.199 39.383l4.6758 22.285c4.8242 23.105-9.3867 45.496-32.312 50.949z"/>
 </g>
</svg>
