<?xml version="1.0" encoding="UTF-8"?>
<svg width="512pt" height="512pt" version="1.1" viewBox="0 0 512 512" xmlns="http://www.w3.org/2000/svg">
 <g fill="#443f3c">
  <path d="m329.41 251.33c-2.2109-0.078125-4.2734-1.125-5.6445-2.8633-2.582-3.2266-2.0781-7.9297 1.1289-10.539 0.26562-0.28906 0.57031-0.54297 0.90234-0.75391l3.8398-3.8398c0.45312-0.52734 1.2812-1.3555 1.957-2.2578 1.9766-2.4023 3.8125-4.918 5.4961-7.5312l0.45312-0.67578c0.023437-0.14844 0.023437-0.30078 0-0.45312l1.6562-2.6367c1.6562-2.7852 3.1641-5.5703 4.5195-8.2812 0.52734-1.1289 1.0547-2.2578 1.5078-3.3867 1.582-3.4648 2.7852-6.4766 3.7656-9.3359 0.52734-1.3555 0.75391-2.1836 1.0547-3.0859l0.52734-1.5078h-0.003907c1.8242-5.6133 3.3555-11.32 4.5938-17.094 0-1.5078 0.60156-2.7109 0.82813-3.9141l1.2031-6.3984c0-1.5078 0.45313-2.9375 0.60156-4.293v-0.75391c0.90234-6.0234 1.3555-11.219 1.6562-15.586 0.054687-1 0.054687-2.0078 0-3.0117v-3.8398c-0.078125-0.57422-0.078125-1.1562 0-1.7305 2.625-10.062 4.043-20.398 4.2188-30.797v-4.4414-3.4648c-0.19922-2.5352-0.60547-5.0547-1.207-7.5273 0.0625-0.60156 0.0625-1.207 0-1.8086-0.03125-0.34766-0.03125-0.70313 0-1.0547l-0.375-1.2812v0.003906c-0.19141-0.80859-0.46875-1.5898-0.82812-2.3359-0.61719-1.7734-1.3984-3.4883-2.3359-5.1172-0.30078-0.63281-0.65234-1.2344-1.0547-1.8086-0.3125-0.59766-0.66406-1.1758-1.0508-1.7305-0.90625-1.0508-1.8867-2.0312-2.9375-2.9375-0.67969-0.89453-1.4336-1.7266-2.2578-2.4844l-2.1094-1.957-0.60156-0.45312-1.207-0.60156c-3.6602-2.6953-7.6602-4.8945-11.895-6.5508-1.25-0.55078-2.5352-1.0312-3.8398-1.4297-4.8906-1.6562-9.9375-2.8164-15.059-3.4648-15.734-1.9375-31.621-2.3672-47.438-1.2812-5.1953 0-9.8633 0.45313-13.777 0.45313-3.9141 0-8.7344 0-13.93-0.45313-15.715-1.1133-31.5-0.71094-47.133 1.207-1.9805 0.30078-3.9961-0.19531-5.6055-1.3828s-2.6836-2.9648-2.9805-4.9414c-0.63281-4.0938 2.1602-7.9297 6.25-8.5859 16.609-2.0664 33.375-2.5195 50.07-1.3555 5.043 0 9.4883 0.45312 13.328 0.45312 3.8398 0 8.207 0 13.176-0.45312 16.773-1.1758 33.617-0.69531 50.297 1.4297 5.9531 0.70703 11.824 1.9688 17.543 3.7656 1.6445 0.49609 3.2539 1.0977 4.8203 1.8086 5.3633 2.0469 10.43 4.8086 15.059 8.207 0.82812 0.53125 1.6094 1.1367 2.332 1.8047 1.2461 1.0078 2.4258 2.0898 3.5391 3.2383 1.0312 0.98047 2.0117 2.0078 2.9375 3.0898 1.2852 1.3906 2.4688 2.875 3.5391 4.4414l1.5078 2.2578c0.45312 0.82812 1.0547 1.7305 1.582 2.7852h-0.003906c1.2227 2.1016 2.2344 4.3242 3.0117 6.625 0.61719 1.2188 1.0742 2.5078 1.3555 3.8398 0 0.45312 0 1.1289 0.60156 1.957v0.003906c0.35547 1.1328 0.63281 2.2891 0.82812 3.4609 0.69141 2.8242 1.1719 5.6914 1.4336 8.5859v4.3672 5.2695c-0.15625 11.332-1.6758 22.609-4.5195 33.582 0.058594 1.0781 0.058594 2.1562 0 3.2383 0.085938 1.3008 0.085938 2.6094 0 3.9141 0 4.3672-0.75391 9.9375-1.8086 16.414 0 2.1094-0.45313 3.6875-0.75391 5.2695-0.30078 1.582-0.75391 4.5195-1.2031 6.7031-0.45312 2.1836-0.60156 3.0117-1.0547 4.668h0.003906c-1.2852 6.2109-2.9219 12.344-4.8945 18.371l-0.52734 1.5078v-0.003907c-0.35938 1.2031-0.78906 2.3867-1.2812 3.5391-1.1758 3.5078-2.5312 6.9531-4.0664 10.316-0.60156 1.2031-1.1289 2.5586-1.8086 3.8398-1.5078 3.0859-3.1641 6.25-5.043 9.3359l-1.957 3.0859v0.003906c-0.28516 0.62891-0.66797 1.2148-1.1289 1.7305-1.875 2.9648-3.9375 5.8086-6.1758 8.5078-0.82812 1.0547-1.8086 2.1836-2.8594 3.3125l-6.1758-4.4414 5.4219 5.1211c-1.2305 1.3789-2.5352 2.6836-3.9141 3.9141l-1.4297 1.2031h-0.003906c-1.3711 0.92969-3.0117 1.3789-4.668 1.2812z"/>
  <path d="m372.71 301.7h-0.60156c-6.6719-0.61719-13-3.2422-18.148-7.5273-11.086-8.1484-20.906-17.891-29.137-28.914-2.5586-3.3047-1.9531-8.0586 1.3555-10.617 3.3047-2.5586 8.0586-1.9492 10.613 1.3555 7.3359 9.8242 16.09 18.5 25.977 25.75 2.7656 2.3789 6.1211 3.9648 9.7148 4.5938 6.3984 0 11.594-8.2812 17.168-18.297 15.617-27.379 39.273-49.301 67.762-62.797l3.0859-1.4297c13.855-5.7969 27.41-12.195 28.914-23.113-0.16406-7.7031-2.8047-15.148-7.5273-21.234-19.051-31.473-39.004-61.59-59.484-91.707-6.2227-10.863-14.977-20.059-25.523-26.805-14.305-7.5312-32.301-5.4961-56.848 5.7227l-5.1211 2.2578c-4.293 1.957-8.7344 3.9141-13.102 6.1758h0.003906c-1.7734 0.98437-3.8672 1.2109-5.8125 0.63281-1.9414-0.58203-3.5703-1.918-4.5117-3.7148-0.94141-1.793-1.1211-3.8945-0.49609-5.8203 0.625-1.9297 2-3.5273 3.8164-4.4258 4.7422-2.4844 9.6367-4.668 14.004-6.625l4.9688-2.1836c28.688-13.176 51.578-15.059 69.949-5.3477 12.832 7.793 23.52 18.664 31.098 31.625 20.629 30.117 40.734 60.914 59.707 92.16 6.7148 8.8359 10.219 19.699 9.9375 30.793-2.4102 19.578-21.762 28.461-37.648 35.613l-2.9375 1.3555h0.003907c-25.637 12.137-46.91 31.883-60.914 56.547-5.7227 10.391-14.453 25.977-30.266 25.977z"/>
  <path d="m139.29 301.7c-15.738 0-24.547-15.66-30.117-25.977-14.004-24.664-35.273-44.41-60.914-56.547l-3.0859-1.3555c-15.734-7-35.086-16.109-37.645-35.613-0.35938-11.094 3.0664-21.98 9.7109-30.871 18.145-30.117 38.25-60.836 59.633-92.086v0.003906c7.5742-12.988 18.293-23.863 31.172-31.625 18.445-9.5625 41.336-7.5312 69.871 5.3477l5.7227 2.5586c4.293 1.8086 8.8828 3.8398 13.328 6.1758 2.8516 1.4961 4.4336 4.6367 3.9414 7.8203-0.49219 3.1797-2.9531 5.6953-6.125 6.2578h-0.75391l-3.1641 0.60156-2.6328 0.75391c-0.34766 0.042968-0.70312 0.042968-1.0547 0l-1.957 0.52734h-0.82812l-1.8086 0.45312-1.8789 0.97656-1.7305 0.60156h-0.003906c-2.0352 0.66406-4.0234 1.4727-5.9453 2.4102l-2.7109 1.3555h-0.45312l-1.8828 1.1289-2.332 1.8086h-0.45313l-0.67578 0.52734-1.1289 0.90234h-0.003906c-1.7148 1.332-3.3008 2.8164-4.7422 4.4414-0.67578 0.75391-1.1289 1.3555-1.582 1.957-0.69141 0.85938-1.3203 1.7656-1.8828 2.7109l-1.7305 2.7852v0.003906c-0.32422 0.57812-0.60156 1.1836-0.82812 1.8047-0.76562 1.5312-1.4219 3.1172-1.957 4.7422-0.81641 2.4688-1.4688 4.9805-1.957 7.5312 0 1.8086-0.60156 3.6875-0.75391 5.7227-0.066406 1.0273-0.066406 2.0586 0 3.0859-0.23047 3.4609-0.23047 6.9336 0 10.391v1.1289c0 1.957 0.375 3.9922 0.60156 6.0234 0.78906 5.7305 1.8984 11.41 3.3125 17.02 0.074218 0.59766 0.074218 1.207 0 1.8047v1.582 1.6562 2.3359 3.9141 3.9141c0 1.3555 0 2.9375 0.52734 4.5195 0.375 3.2383 0.82812 6.0234 1.2812 8.9609 0 1.2812 0.375 2.3359 0.52734 3.3867 0.75391 4.0664 1.582 8.0547 2.6367 12.199 0 1.2031 0.52734 2.2578 0.90234 3.4648v-0.003906c1.0859 4.4727 2.4414 8.8711 4.0664 13.176 0.52734 1.582 0.98047 2.9375 1.582 4.293h-0.003906c2.7734 7.2695 6.332 14.211 10.617 20.707 0.75391 1.2031 1.582 2.3359 2.4102 3.4648v-0.003906c1.4453 2.0391 3.0312 3.9766 4.7422 5.8008 0.62109 0.75391 1.3008 1.457 2.0352 2.1055 1.0664 1.1445 2.1992 2.2227 3.3867 3.2383 1.5781 1.2891 2.5703 3.1602 2.7461 5.1875 0.17578 2.0312-0.48047 4.0469-1.8164 5.582-1.332 1.5391-3.2344 2.4727-5.2695 2.5859-2.0312 0.11328-4.0273-0.60547-5.5234-1.9844-1.4453-1.207-2.8047-2.5156-4.0664-3.918-0.99219-0.83203-1.9023-1.7656-2.7109-2.7852-2.0352-2.1523-3.9219-4.4414-5.6445-6.8516-0.98047-1.2812-1.957-2.7109-2.8594-4.1406h-0.003906c-4.4102-7.1719-8.0469-14.797-10.84-22.738-0.60156-1.5078-1.2031-3.1641-1.8086-4.8945-1.7695-4.6992-3.2539-9.5039-4.4414-14.383-0.375-1.1289-0.67578-2.4844-1.0547-3.8398-1.0547-4.4414-2.0312-8.7344-2.7109-12.801 0-1.6562-0.52734-2.9375-0.67578-4.1406-0.45313-2.8594-0.98047-5.9492-1.2812-8.8086-0.30078-2.8594-0.45313-3.8398-0.60156-5.3477-0.15234-1.5078 0-3.0117-0.375-4.3672l-0.375-5.4961-0.003906 0.003906c-0.054688-1.0039-0.054688-2.0117 0-3.0117-0.035157-0.35156-0.035157-0.70703 0-1.0547-1.5078-6.0977-2.6367-12.121-3.4648-17.922 0-2.3359-0.45312-4.4414-0.60156-6.5508v-1.2031c-0.26562-4.0117-0.26562-8.0352 0-12.047v-4.1406c0.16797-2.3516 0.46875-4.6875 0.90234-7.0039 0.63281-3.3359 1.4648-6.6289 2.4844-9.8633 0.75391-2.1602 1.6328-4.2695 2.6367-6.3242 0.44141-1.0078 0.94531-1.9883 1.5078-2.9375 0.60156-0.98047 1.2031-2.1836 1.957-3.3125 0.79297-1.2227 1.6445-2.4023 2.5586-3.5391 0.68359-1.0078 1.4375-1.9648 2.2578-2.8594 1.9336-2.2344 4.0742-4.2773 6.4023-6.1016 0.66016-0.60156 1.3672-1.1523 2.1055-1.6562l1.6562-1.2812 2.6367-1.6562 2.9375-1.7305h0.52734l3.2383-1.6562c1.582-0.75391 3.1641-1.4297 4.8203-2.0312-23.867-10.918-42.316-12.648-56.32-5.4219h-0.003906c-10.668 6.6094-19.578 15.703-25.977 26.504-21.23 31.02-41.184 61.742-59.406 91.48-4.7969 6.1328-7.4414 13.676-7.5273 21.461 1.3555 11.219 15.812 17.844 28.535 23.719l3.1641 1.4297h-0.003906c28.484 13.465 52.141 35.359 67.766 62.719 5.9492 10.016 10.844 18.07 17.242 18.07 3.5625-0.65234 6.8906-2.2383 9.6406-4.5938 10.043-7.3086 18.926-16.094 26.352-26.051 2.4883-3.2773 7.1523-3.9492 10.465-1.5078 1.6094 1.1875 2.6797 2.9688 2.9766 4.9453 0.29688 1.9766-0.20312 3.9922-1.3945 5.5977-8.2148 11.148-18.066 21-29.215 29.215-5.1211 4.2852-11.422 6.9102-18.07 7.5273z"/>
  <path d="m294.18 462.98c-1.4336-0.003906-2.8555-0.23438-4.2188-0.67969-24.02-7.5312-17.242-98.484-11.145-152.02 0.24219-1.957 1.2422-3.7383 2.7891-4.9688l42.164-34.258-14.457-85.156c-0.82812-8.3438 0.88672-16.742 4.918-24.09 4.0312-7.3516 10.191-13.312 17.668-17.098l32.828-12.273h0.003906c1.875-0.70312 3.957-0.63281 5.7773 0.20312 1.8242 0.83203 3.2383 2.3594 3.9336 4.2383 1.418 3.8906-0.5625 8.1953-4.4414 9.6406l-32.152 12.047c-4.5703 2.3711-8.3281 6.0547-10.797 10.574-2.4648 4.5195-3.5312 9.6719-3.0547 14.801l15.059 89.148v-0.003906c0.48047 2.6875-0.52734 5.4258-2.6367 7.1562l-42.766 34.859c-7.5312 64.754-6.8516 124.16 0.82812 132.52 1.8086-0.90234 7.5312-5.3477 19.273-26.578v-0.003906c0.85547-1.9023 2.4609-3.3672 4.4375-4.0391 1.9727-0.67578 4.1406-0.5 5.9805 0.48438 1.8398 0.98047 3.1875 2.6836 3.7266 4.6992 0.53906 2.0156 0.21484 4.168-0.89062 5.9336-13.027 24.02-23.117 34.863-32.828 34.863z"/>
  <path d="m276.25 490.39c-11.23-0.20312-22.066-4.1992-30.746-11.332-8.6758-7.1328-14.691-16.992-17.066-27.973-9.5625-43.141-10.09-118.66-10.09-136.36l-42.918-34.484c-2.1367-1.7148-3.1758-4.4531-2.707-7.1562l15.059-89.75c0.35547-5.1797-0.84375-10.352-3.4492-14.844-2.6016-4.4961-6.4883-8.1094-11.16-10.379l-31.473-11.746c-1.9766-0.61328-3.6172-2.0156-4.5273-3.875-0.91406-1.8594-1.0195-4.0156-0.29297-5.9531 0.72656-1.9414 2.2227-3.4961 4.1289-4.3008 1.9102-0.80469 4.0664-0.78516 5.9609 0.050781l32.152 11.973v-0.003906c7.7422 3.5508 14.207 9.3867 18.531 16.723 4.3203 7.3359 6.2891 15.824 5.6367 24.312l-15.059 85.762 42.316 34.031c1.7695 1.4375 2.793 3.5977 2.7852 5.875 0 0.90234-0.52734 90.352 9.8633 136.58 1.6953 8.3594 6.4492 15.785 13.324 20.824 6.8789 5.0391 15.391 7.3359 23.871 6.4336 18.973-2.5586 30.117-19.727 32.301-51.051 0.33203-4.1562 3.9727-7.2578 8.1328-6.9258s7.2617 3.9727 6.9258 8.1328c-3.9883 49.391-26.578 62.492-45.324 65.055-2.0508 0.23828-4.1133 0.36328-6.1758 0.375z"/>
  <path d="m182.74 251.48c-1.8281 0-3.5977-0.66797-4.9688-1.8789-4.5117-4.0742-8.5742-8.6172-12.121-13.555-0.98047-1.2812-1.957-2.7109-2.8594-4.1406h-0.003906c-4.9297-7.2695-9.0234-15.074-12.195-23.266-0.69531-1.5703-1.2969-3.1797-1.8086-4.8203-3.668-10.102-6.4414-20.508-8.2812-31.094 0-1.3555-0.45312-2.7852-0.60156-4.1406l-0.003907-0.003907c-1.3711-8.0469-2.2773-16.168-2.707-24.32v-2.7109-1.0547 0.003906c-1.4531-5.9102-2.582-11.891-3.3906-17.922 0-2.7109-0.67578-5.4219-0.82812-7.9805-0.25781-3.9883-0.25781-7.9844 0-11.973-0.09375-1.3516-0.09375-2.7109 0-4.0664 0.37109-5.7695 1.5117-11.469 3.3906-16.941 0.66016-2.0469 1.4922-4.0352 2.4844-5.9453 0.43359-1.0977 0.96484-2.1562 1.5781-3.1641 1.8711-3.5312 4.1758-6.8203 6.8516-9.7891 1.9297-2.1914 4.043-4.207 6.3281-6.0234 0.78906-0.67578 1.6172-1.3047 2.4844-1.8828 0.38281-0.37891 0.8125-0.70703 1.2773-0.97656l2.6367-1.6562c1.2031-0.75391 2.1836-1.3555 3.2383-1.8828l3.3125-1.6562c2.2773-1.0898 4.6133-2.0469 7.0039-2.8633l2.5586-0.60156 5.6484-1.582 2.6367-0.67578h0.52734l3.3086-1.1289c1.2031 0 2.4844-0.45312 3.6875-0.67578h0.75391v-0.003906c16.66-2.0664 33.477-2.5195 50.223-1.3555 8.8047 0.45312 17.625 0.45312 26.43 0 16.77-1.1758 33.617-0.69531 50.297 1.4336 5.8086 0.79688 11.527 2.1328 17.09 3.9883 1.5078 0.45312 3.1641 1.0547 4.8203 1.7305v0.003906c5.375 2.0547 10.441 4.8438 15.059 8.2812 0.82422 0.53516 1.6055 1.1406 2.332 1.8047 1.2773 0.96875 2.4609 2.0547 3.5391 3.2383 1.0703 0.94141 2.0547 1.9727 2.9375 3.0898 1.3086 1.3711 2.4922 2.8594 3.5391 4.4414 0.64453 0.78906 1.1992 1.6484 1.6562 2.5586 0.51953 0.77734 1 1.582 1.4297 2.4102 1.207 2.1484 2.2383 4.3906 3.0898 6.6992 0.53516 1.25 0.98828 2.5312 1.3516 3.8398 0.21484 0.66797 0.39062 1.3477 0.52734 2.0352 0.38281 1.1055 0.68359 2.2383 0.90625 3.3867 0.625 2.832 1.0781 5.6992 1.3555 8.5859v4.3672 5.2695c-0.15625 11.328-1.6484 22.602-4.4453 33.582v3.2383 3.5391c-0.375 4.7422-0.82812 10.391-1.8086 16.789 0 1.7305-0.45312 3.4648-0.75391 5.2695-0.30078 1.8086-0.82812 4.5195-1.2812 6.7031h0.003906c-0.25391 1.6016-0.60547 3.1836-1.0508 4.7422-1.2969 6.1836-2.9336 12.293-4.8945 18.297l-0.52734 1.6562c0 1.1289-0.75391 2.2578-1.2031 3.3867h-0.003906c-1.1953 3.5117-2.5781 6.9531-4.1406 10.316-0.52734 1.2031-1.1289 2.5586-1.8086 3.8398h0.003906c-1.5195 3.1719-3.207 6.2656-5.0469 9.2617-0.52734 0.98047-1.2031 2.0312-1.8828 3.1641-0.67578 1.1289-0.67578 1.0547-1.1289 1.7305-1.8906 2.9688-3.9805 5.8125-6.25 8.5078-0.88281 1.1602-1.8398 2.2695-2.8594 3.3125l-0.82813 0.82812c-1.1289 1.2031-2.4844 2.5586-3.8398 3.7656-0.30078 0.30469-0.62891 0.58203-0.98047 0.82812-2.1797 2.0234-5.3516 2.5742-8.0859 1.3984-2.7344-1.1719-4.5234-3.8438-4.5625-6.8203-0.007812-2.2773 1.0156-4.4375 2.7852-5.8711l0.90234-0.75391 3.7656-3.7656c0.73047-0.73047 1.4102-1.5117 2.0352-2.332 2.0039-2.3789 3.8398-4.8984 5.4961-7.5312l0.52734-0.67578v-0.45312l1.6562-2.6367c1.7305-2.7852 3.1641-5.5703 4.5195-8.2812 0.60156-1.1289 1.0547-2.2578 1.5078-3.3125 1.582-3.4648 2.7852-6.5508 3.7656-9.4102 0.52734-1.2812 0.75391-2.1094 1.0547-2.9375l0.60156-1.6562c1.8828-5.9492 3.3867-11.746 4.5195-17.016 0-1.6562 0.67578-2.7852 0.82812-3.9922 0.52734-2.4102 0.90234-4.4414 1.2031-6.3984s0.52734-3.2383 0.67578-4.7422c0.98047-6.3242 1.4297-11.293 1.7305-15.887v-3.6875-3.0859l-0.003906-0.007813c-0.082031-0.59766-0.082031-1.207 0-1.8047 2.6328-10.062 4.0469-20.398 4.2188-30.797v-4.4414-3.5391c-0.24219-2.5352-0.64453-5.0469-1.207-7.5312-0.11328-0.60938-0.26172-1.2148-0.44922-1.8047-0.035156-0.375-0.035156-0.75391 0-1.1289v-1.0547c-0.22656-0.87891-0.52734-1.7383-0.90625-2.5625-0.64062-1.7266-1.3945-3.4141-2.2578-5.043l-1.0547-1.7305-0.52734-0.90234-0.60156-0.90234v-0.003906c-0.84375-1.1719-1.7734-2.2812-2.7852-3.3125-0.72266-0.87891-1.5039-1.707-2.3359-2.4844-0.62891-0.67578-1.3086-1.3047-2.0312-1.8828l-0.67578-0.52734-1.1328-0.60156c-3.6602-2.6953-7.6602-4.8945-11.895-6.5508-1.2266-0.55078-2.4844-1.0273-3.7656-1.4297-4.8906-1.6523-9.9375-2.8125-15.059-3.4648-15.73-1.9766-31.621-2.4062-47.434-1.2812-5.1953 0-9.8633 0.45313-13.777 0.45313-3.9141 0-8.6602 0-13.93-0.45313h-0.003906c-15.711-1.1133-31.496-0.71094-47.133 1.207h-0.75391l-3.0117 0.60156c-0.91016 0.074219-1.8125 0.19922-2.7109 0.375h-2.3359l-5.1914 1.8828-1.6562 0.60156c-2.0625 0.66797-4.0742 1.4727-6.0234 2.4102l-2.7109 1.3555h-0.45312l-1.6562 0.98047-2.5586 1.957-0.52734 0.45312v-0.003906c-0.62109 0.39844-1.1992 0.85156-1.7344 1.3555-1.6953 1.3516-3.2812 2.8398-4.7422 4.4453-1.9883 2.2734-3.6602 4.8047-4.9688 7.5273l-0.52734 0.82812-0.75391 1.7305v0.003906c-0.69141 1.2383-1.2461 2.5508-1.6562 3.9141-1.5352 4.418-2.4492 9.0312-2.7109 13.703-0.058594 1.0273-0.058594 2.0586 0 3.0859-0.26172 3.4609-0.26172 6.9336 0 10.391 0 2.3359 0 4.5938 0.67578 6.9258 0.75391 5.4961 1.8828 11.293 3.3125 17.242l0.003906 0.003906c0.070313 0.59766 0.070313 1.207 0 1.8047v1.582c-0.046875 0.5-0.046875 1.0039 0 1.5078v0.14844c0.36328 7.7266 1.2188 15.422 2.5586 23.039 0 1.3555 0.375 2.5586 0.52734 3.6875v0.003906c1.6836 9.7344 4.2031 19.309 7.5312 28.609 0.52734 1.5078 0.98047 2.7852 1.582 4.2148l-0.003906 0.003907c2.7344 7.2734 6.2695 14.215 10.543 20.707 0.82813 1.2812 1.582 2.4102 2.4102 3.4648v-0.003906c2.9727 4.0977 6.4102 7.8359 10.238 11.145 1.6094 1.3047 2.6133 3.2148 2.7695 5.2812 0.15625 2.0664-0.54688 4.1055-1.9414 5.6367-1.3789 1.6133-3.375 2.5703-5.4961 2.6328z"/>
  <path d="m338 377.6c-3.0391-0.015624-5.7734-1.8594-6.9297-4.668-10.195-24.09-22.203-47.371-35.914-69.648-1.1289-1.6562-1.5508-3.6953-1.1758-5.6641 0.37109-1.9727 1.5156-3.7109 3.1719-4.8398 3.4531-2.3477 8.1523-1.457 10.504 1.9961 10.703 16.871 20.188 34.484 28.387 52.703 1.0312-22.523-4.9102-44.824-17.02-63.848-1.0039-1.7344-1.2734-3.8008-0.75391-5.7383 0.52344-1.9375 1.8008-3.582 3.543-4.5781 3.5781-2.0547 8.1445-0.84766 10.238 2.7109 14.156 24.32 27.934 60.988 12.875 97.203v0.003906c-1.1562 2.8086-3.8867 4.6523-6.9258 4.668z"/>
  <path d="m174 377.6c-3.0391-0.015624-5.7695-1.8594-6.9258-4.668-15.059-36.367-1.2812-72.961 12.949-97.281 0.87891-1.9414 2.5391-3.4219 4.5664-4.0703 2.0273-0.64844 4.2383-0.41016 6.082 0.66016 1.8398 1.0703 3.1406 2.875 3.582 4.957 0.4375 2.0859-0.027343 4.2578-1.2773 5.9805-12.086 19.066-18.023 41.379-17.02 63.926 8.2266-18.223 17.738-35.832 28.461-52.707 2.3516-3.4492 7.0547-4.3438 10.504-1.9922 3.4531 2.3477 4.3477 7.0508 1.9961 10.504-13.844 22.406-25.953 45.84-36.215 70.098-1.1445 2.707-3.7617 4.5-6.7031 4.5938z"/>
  <path d="m301.18 267.29c-0.95312 0.003906-1.8984-0.17578-2.7852-0.52734-27.5-9.2617-57.281-9.2617-84.781 0-3.8477 1.5508-8.2227-0.30078-9.7891-4.1406-0.73828-1.8555-0.71094-3.9297 0.078126-5.7695 0.79297-1.8359 2.2812-3.2812 4.1406-4.0195 31.055-10.84 64.867-10.84 95.922 0 3.2656 1.3906 5.1211 4.8711 4.4492 8.3555s-3.6875 6.0273-7.2344 6.1016z"/>
  <path d="m286.12 266.02c-0.95313 0-1.8984-0.17969-2.7852-0.52734-17.738-5.9453-36.926-5.9453-54.664 0-1.8828 0.94922-4.082 1.0664-6.0547 0.31641-1.9727-0.74609-3.543-2.2852-4.3281-4.2461-0.78125-1.957-0.70703-4.1562 0.20703-6.0586 0.91406-1.8984 2.5859-3.332 4.6055-3.9414 21.301-7.457 44.504-7.457 65.805 0 3.2656 1.3867 5.1211 4.8672 4.4492 8.3516-0.67187 3.4844-3.6875 6.0273-7.2344 6.1055z"/>
 </g>
</svg>
