<?xml version="1.0" encoding="UTF-8"?>
<svg width="512pt" height="512pt" version="1.1" viewBox="0 0 512 512" xmlns="http://www.w3.org/2000/svg">
 <g fill="#443f3c">
  <path d="m284.87 172.28c0 16.699-13.535 30.234-30.23 30.234-16.699 0-30.234-13.535-30.234-30.234 0-16.695 13.535-30.23 30.234-30.23 16.695 0 30.23 13.535 30.23 30.23"/>
  <path d="m345.29 274.6c0 16.695-13.535 30.23-30.234 30.23-16.695 0-30.23-13.535-30.23-30.23 0-16.699 13.535-30.234 30.23-30.234 16.699 0 30.234 13.535 30.234 30.234"/>
  <path d="m231.41 273.28c0 16.695-13.535 30.23-30.234 30.23-16.695 0-30.23-13.535-30.23-30.23 0-16.699 13.535-30.234 30.23-30.234 16.699 0 30.234 13.535 30.234 30.234"/>
  <path d="m452.48 217.51c-1.9609-81.508-50.531-118.99-52.594-120.55l-1.3008-0.71094c-59.707-22.152-106.71-12.688-128.84 2.1328-5.6836 3.8086-10.145 8.1602-13.293 12.836-3.4219-5.293-8.5781-10.434-15.316-15.16-28.781-20.188-82.844-30.488-138.73-8.0156l-1.1953 0.67578c-52.719 40.199-49.535 127.94-49.359 131.84 2.9961 37.441 50.09 75.227 81.496 87.418 8.4141 3.2695 15.848 4.3398 22.148 4.3398h0.070312c-5.7305 15.359-8.2969 30.242-6.8672 49.203 2.2188 29.371 13.691 57.43 31.477 76.504l0.60937 0.79297 0.79297 0.47656c30.164 15.547 58.258 20.195 80.992 20.195 32.004 0 53.387-9.1328 54.934-9.8125 35.172-16.414 47.102-43.266 50.914-62.91 4.6641-24.016-0.45703-50.195-9.1641-68.004 1.6367 0.18359 3.2734 0.37109 5.0312 0.37109 8.8047 0 19.035-2.3086 29.648-6.9531 29.301-12.824 62.219-45.375 58.543-94.672zm-10.227 0.5c0.73828 9.9336-0.18359 19.035-2.2656 27.383-28.562-43.816-90.285-40.328-135.14-30.48 71.688-43.352 90.43-85.363 95.332-103.88 12.863 12.969 40.648 47.699 42.078 106.98zm-99.766 86.012c-7.8555 7.3281-18.125 11.148-28.84 10.781-10.738-0.375-20.691-4.9102-28.02-12.77s-11.156-18.102-10.781-28.84c0.375-10.738 4.9102-20.691 12.77-28.016 7.7383-7.2148 17.594-10.789 27.426-10.789 10.773 0 21.523 4.293 29.434 12.777 7.3281 7.8594 11.156 18.102 10.781 28.844-0.37109 10.734-4.9062 20.684-12.77 28.012zm-61.848-66.336c-9.8594 9.1914-15.551 21.676-16.023 35.148-0.050782 1.4648-0.011719 2.9219 0.058593 4.3711-2.5391-17.965-3.9883-31.945-4.5938-38.301 6.0703-2.2812 19.637-7.0703 36.84-11.367-5.8672 2.25-11.414 5.6055-16.281 10.148zm-5.1953-130.79c19.641-13.164 61.5-21.375 115.67-2.3945-3.0391 14.816-22.02 72.172-136.37 125.3-6.2344-3.2461-13.574-7.25-21.617-11.863 6.1094 2.8789 12.789 4.5391 19.746 4.7852 0.59766 0.019532 1.1953 0.03125 1.7891 0.03125 27.016 0 49.461-21.488 50.418-48.703 0.90625-25.832-17.879-47.848-42.844-51.637 1.7969-5.5234 6.3203-10.906 13.211-15.523zm-20.844 25.156c0.48047 0 0.96094 0.007813 1.4414 0.023438 22.168 0.77734 39.578 19.445 38.801 41.613-0.78125 22.164-19.352 39.648-41.613 38.797-10.738-0.375-20.691-4.9141-28.016-12.77-7.3281-7.8594-11.156-18.102-10.781-28.84s4.9102-20.691 12.77-28.02c7.5078-6.9961 17.188-10.805 27.398-10.805zm-19.344-27.602c8.043 5.6406 13.277 11.828 15.098 17.578-11.262 0.93359-21.762 5.5312-30.137 13.34-9.8594 9.1953-15.551 21.676-16.023 35.148-0.47266 13.473 4.332 26.324 13.523 36.184 2.4414 2.6172 5.1289 4.918 7.9883 6.9297-52.023-30.664-125.23-82.461-117.09-116.97 51.473-19.809 100.53-10.52 126.64 7.793zm-137.38 0.99609c3.2031 33.395 50.957 71.473 92.812 98.734-42.926-13.344-96.457-21.637-128.47 3.8906 0.95703-22.59 6.5039-72.238 35.66-102.62zm39.184 193.55c-32.723-12.703-70.84-48.043-74.688-77.125 44.891-49.664 167.07 7 187.07 16.781-0.097656 6.1797-0.31641 12.168-0.63281 17.996-2.2773-6.5273-5.8672-12.582-10.723-17.789-18.977-20.352-50.977-21.477-71.332-2.4961-9.8594 9.1914-15.551 21.676-16.02 35.148-0.39453 11.285 2.957 22.113 9.4492 31.137-5.3242 1.3242-13.504 0.082031-23.125-3.6523zm23.91-27.129c0.375-10.734 4.9141-20.688 12.773-28.016 16.227-15.129 41.734-14.23 56.859 1.9922 7.3281 7.8594 11.156 18.102 10.781 28.836-0.375 10.738-4.9141 20.691-12.773 28.02s-18.141 11.148-28.836 10.781c-10.738-0.375-20.691-4.9102-28.016-12.77-7.3359-7.8594-11.164-18.105-10.789-28.844zm-2.0547 89.434c-1.5469-20.477 2.1914-39.535 9.4414-49.711 8.6523 7.4414 19.48 11.719 31.051 12.125 0.60547 0.019531 1.207 0.03125 1.8086 0.03125 12.809 0 24.953-4.7734 34.371-13.555 3.418-3.1875 6.2969-6.793 8.6719-10.672-13.375 81.738-48.398 118.3-59.656 128.17-14.438-17.234-23.773-41.078-25.688-66.387zm34.441 72.414c15.004-13.598 51.133-54.754 62.758-143.66 7.5977 49.477 22.723 119.67 50.219 152.75-16.641 5.1328-61.328 14.703-112.98-9.0938zm165.02-48.898c-4.6758 24.07-18.883 42.152-41.965 53.898-27.445-29.793-42.75-102.09-50.344-152.03 2.0273 8.2695 6.1055 15.934 12.07 22.328 9.1953 9.8594 21.676 15.551 35.148 16.023 0.60547 0.019532 1.2109 0.03125 1.8086 0.03125 10.965 0 21.426-3.5234 30.121-10.035 9.582 13.582 18.504 42.27 13.16 69.785zm31.461-82.02c-14.219 6.2148-28.203 7.6133-36.07 4.1211 16.074-19.23 15.727-47.941-1.793-66.738-10.941-11.734-26.211-17.035-41.082-15.82 44.16-8.9922 102.56-10.75 124.64 34.027-9.6094 21.645-27.777 36.566-45.699 44.41z"/>
 </g>
</svg>
