<?xml version="1.0" encoding="UTF-8"?>
<svg width="512pt" height="512pt" version="1.1" viewBox="0 0 512 512" xmlns="http://www.w3.org/2000/svg">
 <path d="m388 332 8.8008 3.1992 5.6016-15.199-16-6.3984-4.8008-73.602h66.398v-32h8v-16h-78.398l-1.6016-16h16v-32h12l16-24h24l22.398-29.602c4.8008-0.80078 9.6016-1.6016 15.199-2.3984l4.8008-0.80078 12-48.801-12 1.6016c-235.2 39.199-458.4 0.80078-460.8 0l-12-2.3984 12 48.801 4.7969 1.5977s5.6016 0.80078 15.199 2.3984l22.402 29.602h24l16 24h12v32h15.199l-0.80078 16h-78.398v16h8v32h66.398l-5.6016 74.398-16 6.3984 5.6016 15.199 8.8008-3.1992-10.398 147.2h-96.801v16h480v-16h-96.801zm-4.8008 148h-31.199l-4-154.4 12-4.8008 12 4.8008zm-203.2-165.6 1.6016-74.398h147.2l1.6016 74.398-14.398 5.6016 5.6016 15.199 8.8008-4 5.5938 148.8h-160l4-148 8.8008 4 5.6016-15.199zm20-170.4h24v48h-40.801v-16h16v-32zm112 0v32h16v16h-40v-48zm-40 48h-32v-48h32zm-88.801 16h145.6v16h-146.4zm248.8 0v16h-52l-1.6016-16zm-56-48h-16.801l11.199 147.2-10.398-4-12.801 4.8008-3.1992-148h-16v-16h48zm-341.6-102.4c48.801 7.1992 240 32 442.4 0l-4 15.199c-5.6016 0.80078-10.398 1.6016-16 2.3984-133.6 19.199-268.8 19.199-402.4 0-7.1992-0.80078-12.797-1.5977-16-2.3984zm65.602 46.398h-24l-8-10.398c63.199 8 126.4 12 189.6 12 62.398 0 124-4 185.6-12l-8 10.398h-24l-16 24h-279.2zm-20 120v-16h52.801l-0.80078 16zm72.801-64h-16.801v-16h48v16h-16l-4 148-12-4.8008-10.398 4zm-12.801 165.6 12-4.8008 12 4.8008-4 154.4h-31.199z" fill="#443f3c"/>
</svg>
