<?xml version="1.0" encoding="UTF-8"?>
<svg width="512pt" height="512pt" version="1.1" viewBox="0 0 512 512" xmlns="http://www.w3.org/2000/svg">
 <g fill="#443f3c">
  <path d="m437.07 435.59c-13.895-5.6836-32.961-10.523-56.676-14.395l-3.8984-4.3828c1.2344-1.5156 2.4609-3.0508 3.668-4.6211 32.52-42.273 50.426-98.355 50.426-157.92 0-51.875-13.59-101.11-38.578-140.88l17.082-17.082h51.844l42.801-96.305-106.4 31.922v52.625l-14.867 14.867c-0.76172-1.0273-1.5234-2.0547-2.3008-3.0664-33.016-42.922-77.113-66.559-124.17-66.559s-91.152 23.637-124.17 66.559c-0.77734 1.0117-1.5391 2.0391-2.3008 3.0664l-14.867-14.867v-52.625l-106.4-31.922 42.801 96.305h51.844l17.082 17.082c-24.992 39.773-38.578 89.004-38.578 140.88 0 59.562 17.91 115.64 50.426 157.92 1.207 1.5664 2.4336 3.1016 3.668 4.6211l-3.8984 4.3828c-23.715 3.875-42.781 8.7109-56.676 14.395-18.016 7.3711-26.777 16.051-26.777 26.531 0 16.137 21.281 28.414 65.062 37.535 38.227 7.9648 88.938 12.352 142.79 12.352 53.852 0 104.56-4.3867 142.79-12.352 43.777-9.1211 65.062-21.398 65.062-37.535-0.007813-10.48-8.7656-19.156-26.785-26.531zm-23.105-391.29 59.875-17.965-23.711 53.348h-24.41l27.375-27.375-11.758-11.758-27.375 27.375zm-352.1 35.383-23.707-53.348 59.875 17.965v23.625l-27.375-27.375-11.758 11.754 27.375 27.375zm310.53 232.79c-11.797 0-24.941-20.488-24.941-49.883 0-29.398 13.145-49.883 24.941-49.883 1.6445 0 3.3008 0.38281 4.9453 1.1289 2.2109 13.09 3.3672 26.617 3.3672 40.441 0 20.375-2.5156 39.938-7.1172 58.133-0.39844 0.039062-0.79688 0.0625-1.1953 0.0625zm0-116.39c-23.309 0-41.57 29.215-41.57 66.512 0 35.324 16.383 63.383 37.922 66.25-1.8281 5.3984-3.8438 10.648-6.043 15.727-27.617-6.6719-48.504-41.227-48.504-81.977 0-44.086 24.148-80.25 54.539-82.957 1.8359 5.3906 3.4922 10.883 4.9102 16.496-0.41797-0.019532-0.83594-0.050782-1.2539-0.050782zm-141.34-88.141v83.73c-2.9375-5.7422-6.2188-11.246-9.875-16.422-14.582-20.625-33.844-35.102-55.145-41.68 14.543-21.188 32.758-37.066 52.641-45.867 2.8125 7.3828 6.9805 14.23 12.379 20.238zm16.629 38.258h16.629v33.254h-16.629zm86.211 10.812 2.9414 17.645c-0.25391 0.18359-0.50781 0.36719-0.76172 0.55469l-18.16-6.0508c4.957-4.6992 10.305-8.7812 15.98-12.148zm-139.82 12.148-18.16 6.0508c-0.25391-0.1875-0.50781-0.375-0.76172-0.55469l2.9414-17.645c5.6758 3.3672 11.023 7.4492 15.98 12.148zm70.23 76.805v33.254h-16.629v-33.254zm-16.625-16.625v-33.254h16.629v33.254zm50.145 41.445c0.050781 0.8125 0.10938 1.6211 0.17188 2.4297l-15.234 12.188c-1.1875-7.418-1.832-15.047-1.832-22.809 0-0.64453 0.007812-1.2891 0.019531-1.9336zm-33.52 25.062v33.254h-16.629v-33.254zm-50.145-25.062 16.875-10.125c0.007812 0.64453 0.019531 1.2891 0.019531 1.9336 0 7.7617-0.64062 15.387-1.832 22.809l-15.234-12.188c0.0625-0.80859 0.12109-1.6172 0.17188-2.4297zm11.477-47.578-17.473-6.9883 6.6016-19.805c4.4844 8.2422 8.1562 17.242 10.871 26.793zm-24.359-38.922-4.5742 13.719c-1.0781-1.6914-2.1836-3.3594-3.3516-4.9688-1.2227-1.6836-2.4883-3.2969-3.7812-4.8477zm27.75 58.188-15.074 9.043c-0.44531-5.4453-1.2227-10.789-2.3086-16zm-17.953 49.707 14.039 11.23c-0.1875 0.62891-0.37109 1.2656-0.57031 1.8906l-18.676 3.7344c2.1211-5.3945 3.8594-11.035 5.207-16.855zm-23.258 46.836 6.6133 16.527c-0.26172 0.25-0.53125 0.49219-0.79297 0.73828l-16.672-7.1445c3.8164-2.9258 7.4531-6.3008 10.852-10.121zm18.848 2.3477-5.7539-14.379 16.297-3.2578c-3.0742 6.2852-6.6094 12.191-10.543 17.637zm41.016 4.3711h16.629v33.254h-16.629zm57.641-4.3711c-3.9375-5.4453-7.4727-11.352-10.547-17.637l16.297 3.2578zm12.238 14.184 6.6133-16.527c3.3984 3.8203 7.0352 7.1953 10.855 10.121l-16.672 7.1445c-0.26953-0.25-0.53906-0.48828-0.79688-0.73828zm-30.117-50.246c-0.19531-0.625-0.37891-1.2617-0.57031-1.8906l14.039-11.23c1.3438 5.8203 3.0859 11.461 5.2031 16.855zm10.59-53.785-15.074-9.043 17.387-6.9531c-1.0938 5.207-1.8672 10.555-2.3125 15.996zm20.602-58.477c-1.168 1.6055-2.2734 3.2734-3.3516 4.9688l-4.5742-13.719 11.711 3.9023c-1.2969 1.5508-2.5625 3.1641-3.7852 4.8477zm-21.41 3.375 6.6016 19.805-17.473 6.9883c2.7109-9.5508 6.3828-18.551 10.871-26.793zm-140.22-48.094c1.8281 0.44922 3.6367 0.96875 5.4219 1.5508l-2.7539 16.527c-3.3398-1.2188-6.7578-2.1328-10.238-2.7305 2.3086-5.2656 4.8398-10.379 7.5703-15.348zm-18.605 164.09c-4.6016-18.191-7.1172-37.758-7.1172-58.133 0-13.824 1.1562-27.352 3.3672-40.441 1.6445-0.74609 3.3008-1.1289 4.9453-1.1289 11.797 0 24.941 20.488 24.941 49.883 0 29.398-13.145 49.883-24.941 49.883-0.39453 0.003906-0.79297-0.019532-1.1953-0.0625zm42.77-49.816c0-37.297-18.258-66.512-41.57-66.512-0.41797 0-0.83594 0.03125-1.25 0.050782 1.418-5.6133 3.0742-11.105 4.9102-16.496 30.391 2.7109 54.539 38.871 54.539 82.957 0 40.754-20.891 75.305-48.504 81.977-2.1992-5.0781-4.2148-10.328-6.043-15.727 21.531-2.8672 37.918-30.926 37.918-66.25zm-22.871 96.637 20.199 8.6562c-4.1719 2.5234-8.5352 4.6367-13.039 6.3359-3.1055-4.5938-6.0312-9.4258-8.7734-14.465 0.53906-0.16797 1.0742-0.34766 1.6133-0.52734zm66.078-14.039c2.4141-3.75 4.625-7.6367 6.6758-11.621v91.793c-20.723-5.9141-39.586-19.047-55.203-37.43 18.977-8.3242 35.922-23.152 48.527-42.742zm23.305 50.426h16.629v32.859c-2.75 0.25391-5.5195 0.39844-8.3125 0.39844-2.793 0-5.5664-0.14062-8.3125-0.39844zm33.254-62.047c2.0508 3.9844 4.2617 7.8711 6.6758 11.621 12.602 19.59 29.551 34.418 48.527 42.738-15.617 18.383-34.48 31.52-55.203 37.43zm65.594 40.652c-4.5078-1.6992-8.8672-3.8125-13.039-6.3359l20.199-8.6562c0.53516 0.18359 1.0742 0.35938 1.6133 0.52734-2.7383 5.0391-5.6641 9.8711-8.7734 14.465zm5.7852-207.82-2.7539-16.527c1.7852-0.58594 3.5938-1.1016 5.4219-1.5508 2.7266 4.9688 5.2656 10.082 7.5703 15.348-3.4805 0.59375-6.8984 1.5078-10.238 2.7305zm-61.5 8.8477c-3.6562 5.1719-6.9414 10.676-9.875 16.422v-83.73c5.3984-6.0039 9.5664-12.852 12.379-20.234 19.883 8.8008 38.094 24.68 52.641 45.867-21.305 6.5742-40.566 21.051-55.145 41.676zm-9.8789-126.22v15.453c0 12.945-5.0391 25.113-14.191 34.266l-2.4336 2.4336v28.387h-16.629v-28.383l-2.4336-2.4336c-9.1523-9.1523-14.191-21.32-14.191-34.266l-0.003906-15.457c8.125-1.7031 16.457-2.6016 24.941-2.6016 8.4883 0 16.816 0.89844 24.941 2.6016zm-182.91 205.25c0-95.684 49.398-176.46 116.39-200.53v10.734c0 2.2852 0.12891 4.5508 0.36328 6.793-59.289 24.246-100.13 98.199-100.13 183 0 50.602 14.402 98.27 40.551 134.22 26.73 36.754 62.523 56.996 100.79 56.996s74.055-20.242 100.79-56.996c26.152-35.957 40.551-83.625 40.551-134.22 0-84.797-40.84-158.75-100.13-183 0.23047-2.2422 0.36328-4.5078 0.36328-6.793v-10.734c66.996 24.07 116.39 104.85 116.39 200.53 0 114.61-70.863 207.85-157.96 207.85s-157.96-93.242-157.96-207.85zm297.36 229.1c-37.148 7.7383-86.652 12-139.4 12s-102.25-4.2617-139.4-12c-43.027-8.9648-51.824-19.047-51.824-21.254 0-2.293 9.332-11.992 48.758-20.598l-13.398 15.074 12.43 11.047 34.047-38.301c30.875 32.016 69.043 49.406 109.39 49.406s78.512-17.395 109.39-49.406l34.047 38.301 12.43-11.047-13.398-15.074c39.426 8.6094 48.758 18.305 48.758 20.598-0.011719 2.207-8.8047 12.289-51.832 21.254z"/>
  <path d="m264.31 71.363c0 4.5898-3.7227 8.3125-8.3125 8.3125s-8.3125-3.7227-8.3125-8.3125c0-4.5938 3.7227-8.3164 8.3125-8.3164s8.3125 3.7227 8.3125 8.3164"/>
 </g>
</svg>
