<?xml version="1.0" encoding="UTF-8"?>
<svg width="512pt" height="512pt" version="1.1" viewBox="0 0 512 512" xmlns="http://www.w3.org/2000/svg">
 <defs>
  <clipPath id="b">
   <path d="m94.781 185h322.44v88h-322.44z"/>
  </clipPath>
  <clipPath id="a">
   <path d="m94.781 94.781h322.44v322.44h-322.44z"/>
  </clipPath>
 </defs>
 <g clip-path="url(#b)">
  <path d="m241.55 185.11c-4.4648 5.0664-4.3203 13.152-4.0312 20.867l-8.8789-14.082 2.2422 16.449c-6.2695-4.082-14.852-7.2227-16.496-13.348-2.1797 6.2539 0.66797 13.883 3.4961 21.098l-13.305-10.309 7.7227 14.668c-7.2734-1.668-16.43-1.7109-20.051-6.8828-0.17578 6.6367 5.1719 12.805 10.375 18.59l-15.902-5.0977 12.316 11.18c-7.4141 0.91406-16.055 3.9766-21.234 0.34766 2.1914 6.2422 9.3086 10.238 16.16 13.926l-16.738 0.65234s13.75 8.9414 14.289 8.9414c-3.2734 0-8.0312-2.4102-13.406-5.5625-5.375-3.1484-11.367-7.0352-18.84-7.0352-7.4727 0-13.465 3.8867-18.84 7.0352-5.375 3.1484-10.129 5.5625-13.406 5.5625-3.2734 0-8.0312-2.4102-13.406-5.5625-5.3398-3.1289-11.293-6.9844-18.699-7.0312-0.082031 2.1523-0.13672 4.3125-0.13672 6.4883 0 1.4258 0.019531 2.8438 0.054688 4.2578 3.2734 0 8.0039 2.4258 13.348 5.5586 5.375 3.1484 11.367 7.0352 18.84 7.0352 7.4727 0 13.465-3.8867 18.84-7.0352 5.375-3.1484 10.129-5.5625 13.406-5.5625 3.2734 0 8.0312 2.4141 13.406 5.5625 5.375 3.1484 11.367 7.0352 18.84 7.0352s13.465-3.8867 18.84-7.0352c5.375-3.1484 10.129-5.5625 13.406-5.5625 3.2734 0 8.0312 2.4141 13.406 5.5625 5.375 3.1484 11.367 7.0352 18.84 7.0352 7.4727 0 13.465-3.8867 18.84-7.0352 5.375-3.1484 10.129-5.5625 13.406-5.5625 3.2734 0 8.0312 2.4141 13.406 5.5625 5.375 3.1484 11.367 7.0352 18.84 7.0352s13.465-3.8867 18.84-7.0352c5.375-3.1484 10.129-5.5625 13.406-5.5625 3.2734 0 8.0312 2.4141 13.406 5.5625 5.375 3.1484 11.367 7.0352 18.84 7.0352 7.4727 0 13.465-3.8867 18.84-7.0352 5.3438-3.1328 10.074-5.5312 13.348-5.5586 0.035156-1.4141 0.054687-2.8359 0.054687-4.2578 0-2.1758-0.054687-4.3359-0.14062-6.4883-7.4062 0.066406-13.359 3.9023-18.699 7.0312-5.375 3.1484-10.129 5.5625-13.406 5.5625-3.2734 0-8.0312-2.4102-13.406-5.5625-5.375-3.1484-11.367-7.0352-18.84-7.0352-7.4727 0-13.465 3.8867-18.84 7.0352-4.4219 2.5898-8.4219 4.6797-11.527 5.3398l12.402-8.7188-16.508-0.64453c5.1133-5.4648 9.6133-13.379 15.938-13.934-5.9062-3.3086-13.809-1.832-21.324-0.27734l12.395-11.254-15.875 5.0898c2.9492-6.8828 4.5938-15.895 10.355-18.582-6.6523-1.1523-13.59 2.9609-20.125 7.0117l7.7852-14.797-13.164 10.203c0.41406-7.4805-1.1289-16.5 3.3672-20.992-6.5391 1.1523-11.707 7.4375-16.52 13.508l2.2656-16.609-8.7188 13.832c-2.2109-7.1016-6.8438-14.922-4.1875-20.621-5.5156 3.3438-8.3164 11.098-10.863 18.496l-3.5977-16.523-3.5039 16.172c-4.4961-5.9648-11.492-11.832-10.941-18.133z" fill="#443f3c"/>
 </g>
 <path d="m310.9 129.95c-11.086 1.5703-22.07 3.3477-33.254 3.3945-16.309 0.066406-20.328 6.4219-26.008 12.074-2.2109-5.1523-7.1875-7.5117-13.016-8.2852-7.7695-1.0273-25.645-2.0859-37.523-5.4961 5.1406 5.0547 15.898 7.5781 23.375 8.7188 0.52344 0.082031 1.0469 0.16797 1.5703 0.25391 5.0352 2.8008 16.211 4.0156 20.266 7.5664l-3.2578-0.066407c-5.3984-3.6953-9.4922-3.2266-12.281-0.93359l-7.9648 0.24219c-1.1289 0.60938 0.92969 3.1797 2.5977 3.2734l8.2109 0.074219c3.8164 4.8203 11.211 8.168 18.27 8.2109 4.957 0 10.207-2.0469 15.895-4.3789l14.422 0.09375c0.10156-0.6875-1.3906-2.0547-2.6719-2.2539-2.5469-0.40234-4.6992-0.066406-7.1562 0.30078 3.8945-1.5312 7.9922-2.9648 12.355-3.7695l-22.359-0.45703c2.582-3.0391 4.918-6.2578 6.3047-6.3398 15.152-0.87891 33.48-7.2773 42.223-12.215zm-75.59 16.898v0.003907c0.21875 0 0.42969 0.085937 0.58594 0.24219s0.24219 0.36719 0.24219 0.58594c0 0.45703-0.37109 0.82812-0.82812 0.82812s-0.82812-0.37109-0.82812-0.82812c0-0.21875 0.085937-0.42969 0.24219-0.58594s0.36719-0.24219 0.58594-0.24219zm13.219 1.3672h-0.035156z" fill="#443f3c"/>
 <path d="m159.27 292.1c-7.4727 0-13.465 3.8867-18.84 7.0352-5.375 3.1484-10.129 5.5586-13.406 5.5586-3.2734 0-8.0312-2.4102-13.406-5.5586-4.3477-2.5469-9.1016-5.5781-14.715-6.6406 0.99609 4.3242 2.1758 8.5742 3.5078 12.758 1.8047 0.89062 3.7461 1.9688 5.7734 3.1602 5.375 3.1484 11.367 7.0352 18.84 7.0352 7.4727 0 13.465-3.8867 18.84-7.0352 5.375-3.1484 10.129-5.5625 13.406-5.5625 3.2734 0 8.0312 2.4141 13.406 5.5625 5.375 3.1484 11.367 7.0352 18.84 7.0352s13.465-3.8867 18.84-7.0352c5.375-3.1484 10.129-5.5625 13.406-5.5625 3.2734 0 8.0312 2.4141 13.406 5.5625 5.375 3.1484 11.367 7.0352 18.84 7.0352 7.4727 0 13.465-3.8867 18.84-7.0352 5.375-3.1484 10.129-5.5625 13.406-5.5625 3.2734 0 8.0312 2.4141 13.406 5.5625 5.375 3.1484 11.367 7.0352 18.84 7.0352s13.465-3.8867 18.84-7.0352c5.375-3.1484 10.129-5.5625 13.406-5.5625 3.2734 0 8.0312 2.4141 13.406 5.5625 5.375 3.1484 11.367 7.0352 18.84 7.0352 7.4727 0 13.465-3.8867 18.84-7.0352 2.0273-1.1875 3.9648-2.2695 5.7734-3.1602 1.3359-4.1797 2.5117-8.4336 3.5078-12.758-5.6133 1.0664-10.367 4.0938-14.715 6.6406-5.375 3.1484-10.129 5.5586-13.406 5.5586-3.2734 0-8.0312-2.4102-13.406-5.5586-5.375-3.1484-11.367-7.0352-18.84-7.0352s-13.465 3.8867-18.84 7.0352c-5.375 3.1484-10.129 5.5586-13.406 5.5586-3.2734 0-8.0312-2.4102-13.406-5.5586-5.375-3.1484-11.367-7.0352-18.84-7.0352s-13.465 3.8867-18.84 7.0352c-5.375 3.1484-10.129 5.5586-13.406 5.5586-3.2734 0-8.0312-2.4102-13.406-5.5586-5.375-3.1484-11.367-7.0352-18.84-7.0352-7.4727 0-13.465 3.8867-18.84 7.0352-5.375 3.1484-10.129 5.5586-13.406 5.5586-3.2734 0-8.0312-2.4102-13.406-5.5586-5.375-3.1484-11.367-7.0352-18.84-7.0352z" fill="#443f3c"/>
 <path d="m159.27 313.62c-7.4727 0-13.465 3.8867-18.84 7.0352s-10.129 5.5586-13.406 5.5586c-3.2734 0-8.0312-2.4102-13.406-5.5586-2.2266-1.3047-4.5664-2.7344-7.0664-3.9648 2.3477 5.793 5.0156 11.418 7.9922 16.852 3.7227 1.9062 7.8125 3.4219 12.477 3.4219 7.4727 0 13.465-3.8867 18.84-7.0352 5.375-3.1484 10.129-5.5625 13.406-5.5625 3.2734 0 8.0312 2.4141 13.406 5.5625 5.375 3.1484 11.367 7.0352 18.84 7.0352 7.4727 0 13.465-3.8867 18.84-7.0352 5.375-3.1484 10.129-5.5625 13.406-5.5625 3.2734 0 8.0312 2.4141 13.406 5.5625 5.375 3.1484 11.367 7.0352 18.84 7.0352s13.465-3.8867 18.84-7.0352c5.375-3.1484 10.129-5.5625 13.406-5.5625 3.2734 0 8.0312 2.4141 13.406 5.5625 5.375 3.1484 11.367 7.0352 18.84 7.0352s13.465-3.8867 18.84-7.0352c5.375-3.1484 10.129-5.5625 13.406-5.5625 3.2734 0 8.0312 2.4141 13.406 5.5625 5.375 3.1484 11.367 7.0352 18.84 7.0352 4.668 0 8.7578-1.5156 12.477-3.4219 2.9766-5.4336 5.6484-11.059 7.9922-16.852-2.5039 1.2305-4.8398 2.6602-7.0664 3.9648-5.375 3.1484-10.129 5.5586-13.406 5.5586-3.2734 0-8.0312-2.4102-13.406-5.5586s-11.367-7.0352-18.84-7.0352c-7.4727 0-13.465 3.8867-18.84 7.0352s-10.129 5.5586-13.406 5.5586c-3.2734 0-8.0312-2.4102-13.406-5.5586s-11.367-7.0352-18.84-7.0352-13.465 3.8867-18.84 7.0352-10.129 5.5586-13.406 5.5586c-3.2734 0-8.0312-2.4102-13.406-5.5586s-11.367-7.0352-18.84-7.0352-13.465 3.8867-18.84 7.0352-10.129 5.5586-13.406 5.5586c-3.2734 0-8.0312-2.4102-13.406-5.5586s-11.367-7.0352-18.84-7.0352z" fill="#443f3c"/>
 <path d="m159.27 335.14c-7.4727 0-13.465 3.8867-18.84 7.0352-5.375 3.1484-10.129 5.5586-13.406 5.5586-1.2578 0-2.7383-0.36328-4.3828-0.97656 2.6602 3.9062 5.4883 7.6914 8.4727 11.34 5.6289-1.0586 10.395-4.0977 14.75-6.6484 5.375-3.1484 10.129-5.5625 13.406-5.5625 3.2734 0 8.0312 2.4102 13.406 5.5625 5.375 3.1484 11.367 7.0352 18.84 7.0352s13.465-3.8867 18.84-7.0352 10.129-5.5625 13.406-5.5625c3.2734 0 8.0312 2.4102 13.406 5.5625 5.375 3.1484 11.367 7.0352 18.84 7.0352 7.4727 0 13.465-3.8867 18.84-7.0352s10.129-5.5625 13.406-5.5625c3.2734 0 8.0312 2.4102 13.406 5.5625 5.375 3.1484 11.367 7.0352 18.84 7.0352s13.465-3.8867 18.84-7.0352 10.129-5.5625 13.406-5.5625c3.2734 0 8.0312 2.4102 13.406 5.5625 4.3555 2.5508 9.1211 5.5898 14.75 6.6484 2.9844-3.6484 5.8125-7.4297 8.4727-11.34-1.6445 0.61719-3.125 0.97656-4.3828 0.97656-3.2734 0-8.0312-2.4102-13.406-5.5586-5.375-3.1484-11.367-7.0352-18.84-7.0352s-13.465 3.8867-18.84 7.0352c-5.375 3.1484-10.129 5.5586-13.406 5.5586-3.2734 0-8.0312-2.4102-13.406-5.5586-5.375-3.1484-11.367-7.0352-18.84-7.0352s-13.465 3.8867-18.84 7.0352c-5.375 3.1484-10.129 5.5586-13.406 5.5586-3.2734 0-8.0312-2.4102-13.406-5.5586-5.375-3.1484-11.367-7.0352-18.84-7.0352-7.4727 0-13.465 3.8867-18.84 7.0352-5.375 3.1484-10.129 5.5586-13.406 5.5586-3.2734 0-8.0312-2.4102-13.406-5.5586-5.375-3.1484-11.367-7.0352-18.84-7.0352z" fill="#443f3c"/>
 <path d="m159.27 358.89c-7.4727 0-13.465 3.8867-18.84 7.0352-0.54688 0.32422-1.0781 0.625-1.6094 0.92578 2.5547 2.6992 5.2031 5.3125 7.9414 7.8281 5.0039-2.8867 9.418-5.043 12.512-5.043 3.2734 0 8.0312 2.4102 13.406 5.5586 5.375 3.1484 11.367 7.0352 18.84 7.0352 7.4727 0 13.465-3.8867 18.84-7.0352 5.375-3.1484 10.129-5.5586 13.406-5.5586 3.2734 0 8.0312 2.4102 13.406 5.5586 5.375 3.1484 11.367 7.0352 18.84 7.0352 7.4727 0 13.465-3.8867 18.84-7.0352 5.375-3.1484 10.129-5.5586 13.406-5.5586 3.2734 0 8.0312 2.4102 13.406 5.5586 5.375 3.1484 11.367 7.0352 18.84 7.0352s13.465-3.8867 18.84-7.0352c5.375-3.1484 10.129-5.5586 13.406-5.5586 3.0898 0 7.5078 2.1562 12.512 5.043 2.7344-2.5195 5.3867-5.1289 7.9414-7.8281-0.53125-0.30078-1.0664-0.60938-1.6094-0.92578-5.375-3.1484-11.367-7.0352-18.84-7.0352s-13.465 3.8867-18.84 7.0352c-5.375 3.1484-10.129 5.5625-13.406 5.5625-3.2734 0-8.0312-2.4102-13.406-5.5625-5.375-3.1484-11.367-7.0352-18.84-7.0352-7.4727 0-13.465 3.8867-18.84 7.0352-5.375 3.1484-10.129 5.5625-13.406 5.5625-3.2734 0-8.0312-2.4102-13.406-5.5625-5.375-3.1484-11.367-7.0352-18.84-7.0352-7.4727 0-13.465 3.8867-18.84 7.0352-5.375 3.1484-10.129 5.5625-13.406 5.5625-3.2734 0-8.0312-2.4102-13.406-5.5625-5.375-3.1484-11.367-7.0352-18.84-7.0352z" fill="#443f3c"/>
 <path d="m159.27 270.57c-7.4727 0-13.465 3.8867-18.84 7.0352s-10.129 5.5586-13.406 5.5586c-3.2734 0-8.0312-2.4102-13.406-5.5586-5.2148-3.0547-11.012-6.793-18.18-7.0156 0.32812 3.6953 0.78125 7.3555 1.3555 10.973 3.0859 0.69141 7.0352 2.7617 11.391 5.3125 5.375 3.1484 11.367 7.0352 18.84 7.0352 7.4727 0 13.465-3.8867 18.84-7.0352 5.375-3.1484 10.129-5.5625 13.406-5.5625 3.2734 0 8.0312 2.4141 13.406 5.5625 5.375 3.1484 11.367 7.0352 18.84 7.0352s13.465-3.8867 18.84-7.0352c5.375-3.1484 10.129-5.5625 13.406-5.5625 3.2734 0 8.0312 2.4141 13.406 5.5625 5.375 3.1484 11.367 7.0352 18.84 7.0352 7.4727 0 13.465-3.8867 18.84-7.0352 5.375-3.1484 10.129-5.5625 13.406-5.5625 3.2734 0 8.0312 2.4141 13.406 5.5625 5.375 3.1484 11.367 7.0352 18.84 7.0352s13.465-3.8867 18.84-7.0352c5.375-3.1484 10.129-5.5625 13.406-5.5625 3.2734 0 8.0312 2.4141 13.406 5.5625 5.375 3.1484 11.367 7.0352 18.84 7.0352 7.4727 0 13.465-3.8867 18.84-7.0352 4.3555-2.5508 8.3047-4.6211 11.391-5.3125 0.57422-3.6172 1.0273-7.2773 1.3555-10.973-7.1641 0.22266-12.965 3.9609-18.18 7.0156-5.375 3.1484-10.129 5.5586-13.406 5.5586-3.2734 0-8.0312-2.4102-13.406-5.5586s-11.367-7.0352-18.84-7.0352-13.465 3.8867-18.84 7.0352-10.129 5.5586-13.406 5.5586c-3.2734 0-8.0312-2.4102-13.406-5.5586s-11.367-7.0352-18.84-7.0352-13.465 3.8867-18.84 7.0352-10.129 5.5586-13.406 5.5586c-3.2734 0-8.0312-2.4102-13.406-5.5586s-11.367-7.0352-18.84-7.0352c-7.4727 0-13.465 3.8867-18.84 7.0352s-10.129 5.5586-13.406 5.5586c-3.2734 0-8.0312-2.4102-13.406-5.5586s-11.367-7.0352-18.84-7.0352z" fill="#443f3c"/>
 <g clip-path="url(#a)">
  <path d="m256 417.22c-89.223 0-161.22-71.996-161.22-161.22s71.996-161.22 161.22-161.22 161.22 71.996 161.22 161.22-71.996 161.22-161.22 161.22zm0-10.746c83.453 0 150.47-67.016 150.47-150.47 0-83.453-67.016-150.47-150.47-150.47-83.453 0-150.47 67.016-150.47 150.47 0 83.453 67.016 150.47 150.47 150.47z" fill="#443f3c"/>
 </g>
</svg>
