<?xml version="1.0" encoding="UTF-8"?>
<svg width="512pt" height="512pt" version="1.1" viewBox="0 0 512 512" xmlns="http://www.w3.org/2000/svg">
 <path d="m440.54 471.65h-46.48l-4.8594-85.191c19.625-8.7188 35.133-26.188 40.48-48.695h0.83203c8.5117 0 15.477-6.9648 15.477-15.535 0-8.5703-6.9648-15.477-15.477-15.477h-0.53516c-5.293-25.109-24.004-45.465-48.398-52.98l-2.3789-41.73c14.469-6.8672 24.289-21.645 24.289-38.633 0-16.613-9.3555-31.297-23.512-38.336l-9.3555-72.98c-0.29688-2.3242-1.9062-4.168-4.0469-4.8203-0.007813-0.003906-0.019531 0-0.027344-0.003906v-22.867c0-3.2891-2.668-5.9531-5.9531-5.9531-3.2891 0-5.9531 2.6641-5.9531 5.9531v22.883c-2.1289 0.60156-3.7227 2.4961-4.0781 4.8086l-9.4062 73.102c-14.816 7.5352-23.453 22.496-23.453 38.215 0 16.914 9.7695 31.543 24.289 38.516l-2.3828 41.906c-24.289 7.5-43.039 27.738-48.395 52.918h-1.1289c-8.5117 0-15.477 6.9062-15.477 15.477 0 8.5703 6.9648 15.535 15.477 15.535h1.4883c5.0195 21.793 20.816 39.996 40.418 48.695l-4.8594 85.191h-48.551l-18.797-279.43c-0.23828-2.7969-2.2617-5-5-5.418l-8.5742-82.207c-0.35547-3.0352-2.918-5.3555-5.9531-5.3555-3.0352 0-5.5938 2.3203-5.8945 5.3555l-8.5703 82.207c-2.6797 0.35938-4.8203 2.6172-5 5.418l-18.855 279.43h-43.371l-9.9844-147.46c25.883-8.9141 42.266-33.121 42.266-59.113 0-26.547-17.836-51.371-43.395-59.469l-8.9883-69.945c-0.29688-2.2617-1.9062-4.168-4.0469-4.8203-0.007813-0.003906-0.019531 0-0.027344-0.003906l-0.003906-22.844c0-3.2891-2.6641-5.9531-5.9531-5.9531-3.2891 0-5.9531 2.6641-5.9531 5.9531v22.863c-2.1289 0.66016-3.7227 2.5-4.0781 4.8086l-8.9883 69.945c-19.453 3.9023-43.395 28.25-43.395 59.469 0 27.562 17.949 50.809 42.266 59.113l-9.9844 147.46h-26.836c-3.2891 0-5.9531 2.6641-5.9531 5.9531 0 3.2891 2.6641 5.9531 5.9492 5.9531h369.07c3.2891 0 5.9531-2.6641 5.9531-5.9531 0-3.2852-2.6641-5.9531-5.9492-5.9531zm-73.727-164.9v-28.754c0.98047 1.6055 18.531 30.34 17.562 28.75-1.2812 0.003906-18.242 0.003906-17.562 0.003906zm17.383 31.012c-0.35937 0.59766-17.801 29.332-16.727 27.562v-27.562h16.727zm-32.504-86.551 2.0234-35.539c4.3477 0.80078 9.3828 0.76562 13.75 0.058594l2.0234 35.48c-5.8203-0.83203-12.473-0.76172-17.797 0zm3.2148 26.785v28.75h-17.559c0.4375-0.71875 18.02-29.504 17.559-28.75zm0.65625 59.766v27.562c-0.36719-0.60156-17.895-29.383-16.789-27.562h16.789zm5.9531 54.707c5.1914 0 11.066-0.83203 15.953-2.0234l2.6016 45.508h-38.957l2.6016-45.508c9.6953 2.3438 17.137 1.9883 17.801 2.0234zm49.645-40.598-6.7852-14.109h12.977c-1.4297 5-3.5117 9.7656-6.1914 14.109zm-0.29688-61.137c3.0938 4.8828 5.418 10.297 6.9062 16.012h-14.645zm-37.98 88.52c0.42969-0.70312 22.148-36.336 21.371-35.062l8.75 18.277c-8.7695 9.1406-20.414 15.02-30.121 16.785zm29.766-98.996-9.0469 18.809c-0.36328-0.59766-21.973-36.074-21.609-35.48 11.281 2.2617 22.195 7.9453 30.656 16.672zm-13.039-117.75h-57.977c9.7227-26.645 48.48-26.738 57.977 0zm-57.977 21.789h57.98c-9.7188 26.52-47.969 26.797-57.98 0zm-21.016 105.96 7.9766 16.488h-15.18c1.5469-5.8906 3.9883-11.484 7.2031-16.488zm0.41797 63.281c-3.1562-4.8203-5.5977-10.121-7.2031-15.777h14.824zm38.754-90.008c-0.36328 0.59766-23.113 37.91-21.668 35.539l-9.2852-19.168c9.0977-9.1016 20.383-14.555 30.953-16.371zm-30.422 100.12 9.4062-19.465c0.36328 0.59766 21.91 36.074 21.547 35.48-11.938-2.1133-22.891-7.9492-30.953-16.016zm-87.09-165.07h15.953l15.988 237.37h-47.934zm-105.19 73.457c0.60156 0.60547 12.148 12.211 11.43 11.488l-11.488 11.488-11.488-11.488c0.60547-0.60156 12.273-12.207 11.547-11.488zm-20 3.0391-9.4648-9.4648 11.488-11.547c0.60938 0.61328 10.133 10.133 9.5234 9.5234-0.60156 0.59766-12.27 12.207-11.547 11.488zm28.395-11.492c0.62109-0.62109 10.121-10.121 9.5234-9.5234l11.488 11.488-9.5234 9.5234c-1.957-1.957-12.133-12.137-11.488-11.488zm-4.8203 51.969c-1.2227 0.10156-4.5273 0.10547-7.082-0.17578l3.4531-3.4531zm-2.2031 11.965c2.8555 0 5.6562-0.17969 8.3945-0.59375l7.3555 109.02h-31.559l7.3555-109.03c2.7383 0.41797 5.5938 0.59766 8.4531 0.59766zm16.43-14.645-9.4062-9.4062c5.7734-5.7773 8.1094-8.1094 11.488-11.488 0.76953 0.76953 13.531 13.535 12.738 12.738-4.2227 3.3984-8.9648 6.0977-14.82 8.1562zm23.277-16.605-12.738-12.738 9.5234-9.5234 10.18 10.18c-1.7266 4.4023-4.1094 8.4492-6.9648 12.082zm10.477-25.48c-0.59766-0.59766-5.8359-5.832-5.2383-5.2383l5.2969-5.2383c0.38281 3.4336 0.26172 7.0234-0.058594 10.477zm-3.2148-24.105-10.477 10.418-11.488-11.488 13.395-13.395c3.5703 4.2852 6.5469 9.1055 8.5703 14.465zm-29.824-29.113c3.8477 1.3477 8.3359 3.5781 12.441 6.5469l-13.035 13.035c-0.59766-0.59766-7.0977-7.0977-9.4648-9.4648 0.58984-0.58984 10.656-10.711 10.059-10.117zm-13.988-2.9141-4.0469 4.0469h-1.0117c-0.51562-0.51562-3.4531-3.4531-3.8711-3.8672 4.4805-0.42188 6.6094-0.30859 8.9297-0.17969zm-4.5273 21.488c0.59766 0.59766 10.07 10.07 9.4648 9.4648l-9.4648 9.5234-9.5234-9.5234zm-17.797-17.797 9.3477 9.3438c-0.59766 0.59375-10.133 10.07-9.5234 9.4648l-11.844-11.848c4.2617-3.3789 9.4922-6.1172 12.02-6.9609zm-20.477 15.414 11.848 11.848-11.488 11.551-8.5117-8.5117c1.9023-5.4805 4.6406-10.48 8.1523-14.887zm-10.777 34.469c-0.078124-1.3867-0.19141-3.7305-0.058593-5.3555l2.7383 2.7383zm2.918 13.988 8.2148-8.1562 9.4648 9.4648-11.07 11.133c-2.7969-3.8086-5-7.9766-6.6094-12.441zm14.703 21.254 11.43-11.488c1.1055 1.1055 12.184 12.188 11.488 11.488l-8.6328 8.6328c-5.4727-2.1914-10.141-5.0469-14.285-8.6328z" fill="#443f3c"/>
</svg>
