<?xml version="1.0" encoding="UTF-8"?>
<svg width="512pt" height="512pt" version="1.1" viewBox="0 0 512 512" xmlns="http://www.w3.org/2000/svg">
 <g fill="#443f3c">
  <path d="m480 480v-32h-96v-103.2l-32-4.8008-8-324h-159.2l-24 324.8-32.801 4v103.2h-96v32h-16v16h480v-16zm-112-32h-8v-46.398c0-8.8008-4.8008-17.602-13.602-21.602l-10.398-4.8008-10.398 5.6016c-8 4-13.602 12-13.602 21.602v45.598h-8v-96h15.199l48.801 7.1992zm-24 0h-16v-46.398c0-3.1992 1.6016-5.6016 4.8008-7.1992l3.1992-1.6016 3.1992 1.6016c2.3984 1.6016 4.8008 4 4.8008 7.1992zm-80 0h-16v-54.398c0-3.1992 1.6016-5.6016 4.8008-7.1992l3.1992-1.6016 3.1992 1.6016c2.3984 1.6016 4.8008 4 4.8008 7.1992zm2.3984-75.199-10.398-5.6016-10.398 5.6016c-8 4-13.602 12-13.602 21.602v53.598h-8v-96h64v96h-8v-54.398c0-8.8008-4.8008-16.801-13.602-20.801zm64.801-212.8h-140.8l4-56h136zm0.80078 16 1.6016 56h-148.8l4-56zm1.6016 72 1.6016 56h-156l4-56zm-5.6016-216 1.6016 56h-134.4l4-56zm-149.6 288h156.8l0.80078 18.398-15.199-2.3984h-128.8l-15.199 2.3984zm-34.398 39.199 48.801-7.1992h15.199v96h-8v-46.398c0-8.8008-4.8008-17.602-13.602-21.602l-10.398-4.8008-10.398 5.6016c-8 4-13.602 12-13.602 21.602v45.598h-8zm40 88.801h-16v-46.398c0-3.1992 1.6016-5.6016 4.8008-7.1992l3.1992-1.6016 3.1992 1.6016c2.3984 1.6016 4.8008 4 4.8008 7.1992zm-136 16h416v16h-416z"/>
  <path d="m208 40h16v16h-16z"/>
  <path d="m232 40h16v16h-16z"/>
  <path d="m256 40h16v16h-16z"/>
  <path d="m280 40h16v16h-16z"/>
  <path d="m304 40h16v16h-16z"/>
  <path d="m208 64h16v16h-16z"/>
  <path d="m232 64h16v16h-16z"/>
  <path d="m256 64h16v16h-16z"/>
  <path d="m280 64h16v16h-16z"/>
  <path d="m304 64h16v16h-16z"/>
  <path d="m208 112h16v16h-16z"/>
  <path d="m232 112h16v16h-16z"/>
  <path d="m256 112h16v16h-16z"/>
  <path d="m280 112h16v16h-16z"/>
  <path d="m304 112h16v16h-16z"/>
  <path d="m208 136h16v16h-16z"/>
  <path d="m232 136h16v16h-16z"/>
  <path d="m256 136h16v16h-16z"/>
  <path d="m280 136h16v16h-16z"/>
  <path d="m304 136h16v16h-16z"/>
  <path d="m192 184h16v16h-16z"/>
  <path d="m216 184h16v16h-16z"/>
  <path d="m240 184h16v16h-16z"/>
  <path d="m264 184h16v16h-16z"/>
  <path d="m288 184h16v16h-16z"/>
  <path d="m192 208h16v16h-16z"/>
  <path d="m216 208h16v16h-16z"/>
  <path d="m240 208h16v16h-16z"/>
  <path d="m264 208h16v16h-16z"/>
  <path d="m288 208h16v16h-16z"/>
  <path d="m192 256h16v16h-16z"/>
  <path d="m216 256h16v16h-16z"/>
  <path d="m240 256h16v16h-16z"/>
  <path d="m264 256h16v16h-16z"/>
  <path d="m288 256h16v16h-16z"/>
  <path d="m192 280h16v16h-16z"/>
  <path d="m216 280h16v16h-16z"/>
  <path d="m240 280h16v16h-16z"/>
  <path d="m264 280h16v16h-16z"/>
  <path d="m288 280h16v16h-16z"/>
  <path d="m312 256h16v16h-16z"/>
  <path d="m312 280h16v16h-16z"/>
  <path d="m312 184h16v16h-16z"/>
  <path d="m312 208h16v16h-16z"/>
 </g>
</svg>
