<?xml version="1.0" encoding="UTF-8"?>
<svg width="512pt" height="512pt" version="1.1" viewBox="0 0 512 512" xmlns="http://www.w3.org/2000/svg">
 <g fill="#443f3c">
  <path d="m488 480v-56h-2.3984l-13.602-41.602v-46.398h-6.3984l7.1992-44.801-16.801-8v-27.199h-16v27.199l-16.801 8.8008 7.1992 44.801h-1.6016l-14.398-17.602c-11.199-13.602-24.801-25.602-40-35.199l-39.199-24.801-8-32.801-16-8-9.5977-26.398h-8.8008l3.1992-6.3984v-25.602h-9.6016l-9.6016-38.398c-3.1992-11.199-3.1992-23.199 0-35.199l4-15.199-11.996-23.203h-4.8008v-32h-16v32h-4.8008l-11.199 23.199 4 15.199c3.1992 11.199 3.1992 23.199 0 35.199l-10.398 38.402h-9.6016v25.602l3.1992 6.3984h-8.8008l-8.8008 26.398-16 8-8 32.801-39.199 24.801c-15.199 9.6016-28.801 21.602-40 35.199l-15.199 16.801h-1.6016l7.1992-44.801-16.797-8v-27.199h-16v27.199l-16.801 8.8008 7.1992 44h-6.3984v46.398l-13.602 41.602h-2.3984v56h-8v16h480v-16zm-32-128v24h-16v-24zm-18.398 40h20.801l10.398 32h-41.602zm3.1992-91.199 7.1992-3.1992 7.1992 3.1992-5.5977 35.199h-2.3984zm-148-84.801h-73.602l2.3984-8h68.801zm-41.602-90.398c3.1992-14.398 3.1992-28.801 0-42.398l-2.3984-9.6016 4-9.6016h6.3984l4.8008 8.8008-2.3984 9.6016c-3.1992 14.398-3.1992 28.801 0 42.398l8.8008 34.398h-27.199zm-19.199 56.797v-6.3984h48v6.3984l-4.8008 9.6016h-38.398zm-22.398 49.602h92l11.199 5.6016 4.8008 18.398h-123.2l4.8008-18.398zm-100 96.801c10.398-12 22.398-23.199 36-31.199l40-25.602h139.2l40 25.602c13.602 8.8008 25.602 19.199 36 32l21.602 26.398v28l-12.004 40h-2.3984v-40h-6.3984l7.1992-36.801-16.801-8v-19.199h-16v19.199l-16.801 8.8008 7.1992 36.801h-6.3984v40h-16v-40h-6.3984l7.1992-36.801-16.801-8.8008v-19.199h-16v19.199l-16.801 8.8008 7.1992 36.801h-6.3984v40h-16v-40h-6.3984l7.1992-36.801-16.801-8.8008v-19.199h-16v19.199l-16.801 8.8008 7.1992 36.801h-6.3984v40h-16v-40h-6.3984l7.1992-36.801-16.801-8.8008v-19.199h-16v19.199l-16.801 8.8008 7.1992 36.801h-6.3984v40h-16v-40h-6.3984l7.1992-36.801-16.801-8.8008v-19.199h-16v19.199l-16.801 8.8008 7.1992 36.801h-6.3984v40h-2.3984l-13.602-42.402v-28zm267.2 28 7.1992-3.1992 7.1992 3.1992-5.5977 27.199h-3.1992zm-0.80078 43.199h16v24h-16zm-63.199-43.199 7.1992-3.1992 7.1992 3.1992-5.5977 27.199h-3.1992zm-0.80078 43.199h16v24h-16zm-63.199-43.199 7.1992-3.1992 7.1992 3.1992-5.5977 27.199h-3.1992zm-0.80078 43.199h16v24h-16zm-63.199-43.199 7.1992-3.1992 7.1992 3.1992-5.5977 27.199h-3.1992zm-0.80078 43.199h16v24h-16zm-63.199-43.199 7.1992-3.1992 7.1992 3.1992-5.5977 27.199h-3.1992zm-0.80078 43.199h16v24h-16zm-64-24v-24h16v24zm0.80078-75.199 7.1992-4 7.1992 3.1992-5.5977 36h-3.2031zm-3.1992 91.199h20.801l10.398 32h-41.602zm-13.602 48h432v40h-432z"/>
  <path d="m56 456h16v16h-16z"/>
  <path d="m120 456h16v16h-16z"/>
  <path d="m184 456h16v16h-16z"/>
  <path d="m248 456h16v16h-16z"/>
  <path d="m312 456h16v16h-16z"/>
  <path d="m376 456h16v16h-16z"/>
  <path d="m440 456h16v16h-16z"/>
 </g>
</svg>
