<?xml version="1.0" encoding="UTF-8"?>
<svg width="512pt" height="512pt" version="1.1" viewBox="0 0 512 512" xmlns="http://www.w3.org/2000/svg">
 <g fill="#443f3c">
  <path d="m495.56 362.3c0.15234 0.82422-0.039063 1.6719-0.52734 2.3516 0.3125 0.76562 0.28906 1.6289-0.066406 2.3789-0.35547 0.75-1.0078 1.3125-1.8008 1.5586-9.2461 2.5-18.727 4.0352-28.289 4.5781 0.21875 7.0703 0.027344 14.148-0.57422 21.199-0.80078 6.8008-2.7617 13.363-3.4336 20.129-0.039063 0.50391-0.20313 0.99219-0.48047 1.4141-0.17188 1.082-1.0273 1.9297-2.1094 2.0898-24.832 4.8945-50.07 3.3594-75.168 5.4961h-0.16797c-1.2969 0.33594-2.6172 0.64844-3.9609 0.91016-16.773 3.168-34.023 0.91016-50.652 4.1484-15.34 2.875-30.891 4.457-46.496 4.7305-30.953 0.88672-66.676 14.926-97.172 5.4727-11.156-3.457-16.461-13.914-20.801-23.828-6.2852-14.301-8.8984-28.289-24.207-35.199v-0.003906c-0.20703-0.10938-0.40625-0.22656-0.60156-0.35938-2.8047-1.0078-5.7188-1.6914-8.6836-2.0391-0.26953-0.011719-0.53906-0.0625-0.80078-0.14453-0.33594-0.023438-0.64844-0.023438-0.98438-0.046876h0.003907c-1.2266-0.12109-2.2734-0.94141-2.6836-2.1016s-0.11328-2.4531 0.76172-3.3203c2.3359-4.4492 3.6758-9.3516 3.9375-14.371-0.015624-0.86719 0.375-1.6914 1.0547-2.2305 0.19922-0.68359 0.82031-1.1602 1.5312-1.1758h37.719c-6.2539-5.3945-12.887-10.344-19.844-14.801-5.4844-2.5781-10.703-5.6953-15.57-9.3086-10.539 3.4297-21.699 4.5117-32.699 3.1641-15.957-1.6016-27.566-8.6367-34.695-22.984-1.3438 0.39844-2.7109 0.71875-4.0781 1.0312h-0.003906c-0.64062 0.16016-1.3125 0.10156-1.9141-0.16797-1.2852 0.25391-2.5898-0.30859-3.2891-1.4141-1.832-2.6367-2.9336-5.7031-3.1992-8.9023-0.058593-1.1172 0.57812-2.1562 1.5977-2.6133 0.37109-0.42578 0.85156-0.73438 1.3945-0.89062 3.4062-1.0234 6.7383-2.2734 9.9805-3.7422-17.035-12.066-35.074-22.672-50.887-36.398l-0.003907-0.003906c-0.78125-0.58984-1.1367-1.5898-0.91016-2.543-0.875-0.95312-1.0195-2.3672-0.35938-3.4805 0.28906-0.4375 0.42578-0.96094 0.39844-1.4883 0.007812-0.29297 0.058593-0.58203 0.14453-0.86328-0.082031-1.1445 0.42969-2.25 1.3555-2.9258 0.92578-0.67578 2.1328-0.82812 3.1992-0.40625 11.648 5.2578 22.727 11.691 33.066 19.199 24.52-24.617 56.719-42.059 85.656-60.844 15.621-10.129 30.52-21.02 45.707-31.719 1.7773-1.2461 3.6211-2.4258 5.4688-3.5273-0.074219-0.15234-0.125-0.3125-0.14453-0.48047-0.66406-3.793-0.55078-7.6758 0.32422-11.426-0.9375-0.023438-1.8945-0.046876-2.832-0.046876-0.90625 0.003907-1.7617-0.42578-2.3008-1.1523-1.0898-0.41797-1.7812-1.4961-1.7031-2.6641 0.23828-15.453 19.527-11.109 30.801-10.801 4.3398 0.12109 8.707 0.26562 13.102 0.39844 1.4609-18.523-1.6016-36.852-1.8945-55.352l-0.003907 0.003906c-0.003906-0.26953 0.027344-0.53906 0.09375-0.80078 0-1.2773 0.87109-2.3867 2.1133-2.6875 3.1992-0.81641 6.5312-0.95312 9.7891-0.40234 0.30859 0.054688 0.60547 0.17969 0.86328 0.36328 1.2031 0.34766 2.0078 1.4805 1.9414 2.7344 0.24219 10.023 1.3242 20.008 3.2383 29.848 1.3203 8.8281 1.6016 17.758 3.0469 26.535v0.16797c11.109 0.097656 22.195-0.097657 33.09-0.96094v0.003907c0.16797-0.015626 0.33594-0.015626 0.50391 0 0.90234 0.019531 1.7578 0.42578 2.3477 1.1094 0.58984 0.6875 0.85938 1.5898 0.74609 2.4883-0.03125 1.9141 0.039062 3.8281 0.21875 5.7305 0.039062 0.73047-0.24219 1.4414-0.76953 1.9453-0.125 0.16797-0.26953 0.32422-0.43359 0.45703-0.30469 0.30469-0.67578 0.54297-1.0781 0.69531-10.848 5.5195-14.562 29.633 0.070312 33.062 1.2656 0.37891 2.1289 1.5391 2.1367 2.8594 0.003906 1.3164-0.85156 2.4844-2.1133 2.875-0.25 0.12891-0.51953 0.21875-0.79688 0.26172-9.8398 1.4414-19.914 2.3047-30.039 2.8008h-0.003906c0.65625 4.1172 0.9375 8.2852 0.83984 12.453 2.4727 0.097656 4.9453 0.23828 7.3867 0.45703h0.003906c0.71484 0.050781 1.3867 0.35547 1.8945 0.86328 0.96484 0.47266 1.5586 1.4688 1.5117 2.543 0 2.1836 0.14453 4.3438 0.3125 6.5273 6.8398-0.070313 13.676-0.21484 20.492-0.52734 4.7227-0.19141 12 0.21484 12 6.8594 0.03125 1.3828-0.38281 2.7344-1.1758 3.8633 11.395-0.64844 22.742-1.0781 34.094-1.6016-0.21484-2.0391-0.55078-4.0781-0.76953-6.1211v0.003906c0.42969-1.8984 1.9141-3.3828 3.8164-3.8125 1.6562 0 3.3359-0.023437 4.9922-0.023437v-0.16797c0.35547-3.9023 0.36328-7.832 0.023438-11.734-5.1133-0.80078-10.242-1.5547-15.453-1.8672-7.9688-0.50391-21.066 1.6016-28.191-2.5938-5.6406-3.3125-4.4883-10.605-3.8164-16.195-1.5312-0.68359-2.668-2.0273-3.0938-3.6484-0.34766-1.8984-0.5-3.8281-0.45703-5.7578 0.007813-1.6523 1.3477-2.9883 3-3 0.089844 0.015625 0.17969 0.039063 0.26172 0.074219l0.33594-0.070313v-0.003906c14.941-1.3242 29.805-3.4023 44.535-6.2148-0.32812-1.4336-0.51172-2.8945-0.55469-4.3633 0-0.046875 0.023438-0.070312 0.023438-0.097656-12.246 1.7734-24.645 2.2734-36.992 1.4883-0.19531-0.015625-0.39062-0.046875-0.57812-0.09375-0.79688 0.046875-1.5742-0.23828-2.1484-0.78906-0.57422-0.55078-0.89062-1.3203-0.875-2.1172-0.097656-9.5508 1.6797-20-2.6875-28.863-3.2891-0.12109-4.4883-5.2305-0.91016-5.832 12.43-2.0625 24.879-3.7891 37.383-5.3711 0.23828-16-3.2891-31.719-3.6016-47.699-0.070313-1.0234 0.45312-1.9922 1.3438-2.4961 0.52344-0.84375 1.457-1.3477 2.4492-1.3203 2.1328 0.19141 4.2695 0.21484 6.3984 0.39844 0.42188 0.050781 0.83594 0.16406 1.2266 0.33594 1.4922 0.089843 2.6328 1.3633 2.5664 2.8555 0 0.74219 0.023438 1.4648 0.046876 2.207 9.0664-2.7344 17.012-0.3125 25.863 4.1992 3.1211 1.6016 18.523 11.781 20.895 6.6914l0.003906 0.003906c0.29297-0.75781 0.9375-1.3242 1.7266-1.5117 0.77344-0.42969 1.7031-0.47656 2.5156-0.12109 0.8125 0.35156 1.4141 1.0625 1.6289 1.9219 2.5664 10.219-6.1914 17.035-11.973 24.113v-0.003906c-0.46484 0.62109-1.1914 0.99219-1.9688 1.0078-11.602 2.4258-21.688-6.0664-33.398-3.5234 0.67188 3.5703 1.2734 7.1484 1.6562 10.773 12.598-1.5117 25.199-2.9531 37.793-4.5859 3.8359-0.50391 3.7891 5.5195 0 6-2.832 0.35938-5.6406 0.71875-8.4727 1.0547-1.4648 9.2344-3.8398 21.062 4.3984 27.602 0.72266 0.48828 1.1094 1.3398 1.0078 2.2031 0.11719 0.68359-0.046875 1.3828-0.44531 1.9453-0.40234 0.5625-1.0078 0.94141-1.6914 1.0547-9.4531 2.1133-18.766 4.1992-28.023 5.9531 0.16016 0.36328 0.24219 0.75781 0.24219 1.1523 0.023438 1.1289 0.12109 2.2305 0.23828 3.332 15.043-2.6133 29.824-6.9805 45.156-7.3164 1.0508-0.085937 2.0469 0.47656 2.5195 1.418 1.0938 0.51562 1.8125 1.5898 1.8672 2.7969 0.19141 2.0625 0.19141 4.125 0.19141 6.1875l0.003906 0.003906c0.0625 1.3164-0.82422 2.4961-2.1094 2.7969-0.28516 0.13672-0.58203 0.24219-0.88672 0.3125-3.2656 0.625-6.5742 1.1523-9.8633 1.6562-1.5352 6.7148-6.8359 10.773 2.3984 14.59 3.8867 2.1094 6.4375 6.0469 6.7656 10.461 0.22656 0.89844 0.027344 1.8555-0.53906 2.5938-0.5625 0.73828-1.4336 1.1758-2.3633 1.1953-11.199 1.2734-22.148 8.4922-33.52 7.8906-1.6562-0.097656-3.2891-0.21484-4.9414-0.39844 0.19141 3.1445 0.57422 6.2891 0.80078 9.457 3.957 0.070312 7.9141 0.26562 11.875 0.625 1.0703 0.078125 2.0195 0.71484 2.4922 1.6758 0.88672 0.77344 1.2734 1.9727 1.0078 3.1172-0.14453 0.74219-0.3125 1.4883-0.48047 2.2305 12.984-0.55078 26-0.67188 38.969-0.625v0.003906c0.53125-0.003906 1.0547 0.13281 1.5117 0.40234 0.52734 0.11719 1.0078 0.38281 1.3906 0.76562 0.91016-0.91016 1.8242-1.8242 2.7344-2.7617v0.003907c-0.26562-0.42969-0.41406-0.91797-0.43359-1.418-0.98438-17.512-1.957-35.035-2.9258-52.566-0.9375-17.156-3.5273-35.199-2.4727-52.398l0.003906-0.003906c0.027344-0.34375 0.10547-0.6875 0.24219-1.0078 0-0.070313-0.046874-0.12109-0.046874-0.19141h-0.003907c0-1.6562 1.3398-2.9961 2.9961-3 2.5664 0.23828 5.0898 0.64844 7.6016 1.1055 0.62109 0.12891 1.168 0.48828 1.5352 1.0078 0.71875 0.53125 1.1172 1.3906 1.0547 2.2773-0.23828 15.859 2.0391 32.105 3.1992 47.887 1.0312 14 1.5117 28.77 3.1211 42.59 14.539-17.559 28.047-36.254 46.547-49.879h0.003906c0.089844-0.042968 0.17578-0.089843 0.26172-0.14453 0.074218-0.054687 0.15625-0.10547 0.24219-0.14453l0.14453-0.070312h-0.003906c0.92969-0.49609 2.043-0.50781 2.9766-0.023438 2.2578 1.1055 4.293 2.6172 6 4.4609 1.1523 1.1797 1.1523 3.0664 0 4.2461-0.25781 0.24609-0.55859 0.44141-0.88672 0.57422-0.089844 0.14453-0.19531 0.27734-0.3125 0.40234-0.64844 0.74219-1.3203 1.4648-2 2.207-1.1797 10.832-3.1172 21.566-5.8047 32.129-2.3477 11.336-5.3789 22.52-9.0664 33.492-4.4062 11.723-7.9375 23.754-10.559 36-1.0781 9.0547-3.6055 17.875-7.4844 26.129-0.30469 0.62891-0.85156 1.1133-1.5117 1.3438-0.046875 0.050781-0.10547 0.09375-0.16797 0.11719-3.543 1.9258-7.3398 3.332-11.277 4.1758 0.023438 0.45703 0.023438 0.90625 0.046875 1.3398 10.102-2.5391 20.559-1.5781 30.902-1.5078h0.003906c0.23828 0.007813 0.48047 0.039063 0.71484 0.097656 5.9297 0.625 11.832 1.4375 17.684 2.6133 0.097656 0.023438 0.19141 0.070313 0.28906 0.097657v-0.003907c0.83594 0.074219 1.5859 0.53906 2.0312 1.25 0.44141 0.71094 0.52734 1.5938 0.22266 2.375 0.007812 0.25781-0.007813 0.51172-0.046876 0.76953-1.457 9.1094-3.4609 18.121-6 26.988-0.046874 0.12109-0.097656 0.21484-0.14453 0.33594 1.2227 2.2578 4.5859 2.4258 6.8398 3.0469v0.003906c3.0742 0.58984 5.7539 2.4453 7.3867 5.1094 0.54297 0.89453 0.54297 2.0117 0 2.9023-0.36328 4.9375-0.25781 9.9023 0.3125 14.82zm-5.8516 1.0312c-0.53906-4.2305-0.70703-8.5039-0.50391-12.766-1.8008 0.3125-3.5742 0.60156-5.375 0.91016 0.60156 4.3438 0.69531 8.7578 1.5586 13.074 1.4414-0.35547 2.8828-0.78516 4.3203-1.2188zm-3.8398-18.262c-1.3203-0.3125-2.6641-0.5-3.7695-0.88281h0.003906c-2.8047-0.78125-5.1641-2.6836-6.5273-5.2539-10.438 1.2227-20.801 3.0469-31.289 3.3359h0.003906c-0.32031 0.13281-0.66406 0.21094-1.0078 0.23828-20.199 1.4883-40.309 3.9805-60.578 4.1953v8.9297h-0.003906c34.617-0.78125 69.113-4.3125 103.17-10.562zm-6.6914-26c0.52734-2.6367 1.0547-5.2773 1.5352-7.9414v0.003906c-10.719 1.8008-21.539 2.9219-32.398 3.3594 0.023438 2.5898 0.046875 5.1992 0.046875 7.7734 10.34-0.24219 20.645-1.3047 30.816-3.1758zm0.71875 46.738v0.003906c-0.82031-4.3906-1.2305-8.8477-1.2227-13.316v-0.023438c-2.3984 0.45703-5.8789 0.86328-8.6406 1.2969 1.2852 4.293 1.8867 8.7617 1.7773 13.242 2.7109-0.32031 5.3906-0.67969 8.0859-1.1836zm-2.0391-202.4c-0.26562-0.19141-0.52734-0.35938-0.80078-0.52734-31.312 23.441-48.203 61.324-81.047 83.199-0.089843 0.042969-0.17969 0.09375-0.26562 0.14453 0.42969 2.2734 1.0547 4.5039 1.8711 6.668 3.2891-4.3984 7.3906-8.4922 10.895-12.5 9.2617-10.578 18.641-21.043 28.047-31.504 13.734-15.145 27.602-30.211 41.301-45.441zm-2 169.46c0.71875-2.4922 1.3906-5.0117 1.9688-7.5312-9.7617 1.6875-19.633 2.6562-29.535 2.9023-0.046874 2.5391-0.16797 5.0859-0.39844 7.6289h-0.003906c-0.027344 0.070312-0.042969 0.14453-0.046875 0.21875 9.3789-0.51953 18.645-2.0859 28-3.1836zm-6.2539-133.67c1.2969-7.5117 3.4805-15.285 4.7539-22.984-11.18 12.332-22.398 24.594-33.543 36.949-8.9727 9.957-17.922 19.914-26.754 30h-0.003906c-5.168 5.1445-9.8359 10.77-13.938 16.801 0.38281 1.1758 0.66797 2.3789 0.86328 3.5977 4.8242 0.14453 9.6719 0.33594 14.516 0.52734 0.097656 0.023437 0.16797 0.023437 0.26562 0.046875v0.003906c0.10938-0.03125 0.22266-0.046875 0.33594-0.046875 1.6367 0.039062 2.957 1.3594 3 3 0.39844 3.2656 1.5352 8.2031-1.4883 10.629v-0.003906c-2.3008 1.625-5.0859 2.4062-7.8945 2.2109-0.95703 5.875-1.3633 11.828-1.2227 17.777 11.66 0.070313 24.352 0.80078 34.859-4.8945 5.0898-10.148 5.1992-20.895 8.1367-31.672 2.6133-9.6016 6-18.977 9.043-28.453 3.7969-10.938 6.8281-22.129 9.0703-33.488zm-4.125 168.4v0.003906c0.14844-4.3672-0.45312-8.7227-1.7773-12.887-1.8711 0.26562-3.7695 0.52734-5.6406 0.76953 0.6875 4.1016 1.0938 8.2422 1.2266 12.398v0.11719c2.0625-0.11328 4.125-0.23047 6.1914-0.39844zm-6 6.4297v-0.39844c-9.6016 0.57422-16.484 0.67188-16.484 0.67188-1.8398 0.23438-3.543-1.0078-3.8867-2.8281-0.050781-0.11719-0.09375-0.23828-0.12109-0.35938-0.16406-0.88672-0.23438-1.7773-0.33203-2.6641-12.168 0.60156-24.309 3.4805-36.426 4.6055-13.461 1.2461-26.895 1.8945-40.398 2.2812-26.176 0.74219-52.184 3.6016-78.398 4-2.5195 0.046874-33.062 1.6328-33.23 0.80078l-0.003907-0.003907c1.0156 7.3281 2.418 14.602 4.1992 21.781 4.0977-1.9297 6.4297-6.3242 5.7344-10.797-0.45703-3.8398 5.543-3.793 6 0 0.98438 8.543-4.1992 14.109-11.445 17.422v-0.003906c-0.36328 0.41406-0.83594 0.71484-1.3672 0.86328-4.1836 0.85547-8.5312 0.023437-12.105-2.3125-3.5742-2.3359-6.0781-5.9883-6.9727-10.16-0.67188-3.793 5.1133-5.3984 5.7852-1.6016 0.83594 4.3242 4.2695 7.6758 8.6133 8.3984-1.8867-7.7227-3.375-15.539-4.4648-23.414-12.836 0.3125-25.695 0.50391-38.578 0.21484-9.3086-0.19141-18.449-1.1055-27.641-1.8242 0.097656 3.3594 0.23828 6.8008 0.55078 10.27 13.211 2.8164 26.625 4.5898 40.117 5.3047 8.3281 0.45703 11.516 0.96094 11.516 1.4648 0 0.50391-3.1992 0.88672-11.602 1.0781-13.309 0.11328-26.59-1.25-39.598-4.0547 0.26562 2.0391 0.60156 4.0547 1.0312 6.0469 12.152 1.9141 24.41 3.0508 36.707 3.4023 7.6016 0.35937 10.465 0.80078 10.465 1.3203s-2.9023 0.9375-10.488 1.2227c-3.8125 0.14453-8.8008 0.12109-15.199-0.046875l-10.703-0.71875c-3.043-0.39844-6.3086-0.88672-9.7891-1.4141v-0.003907c0.93359 3.3516 2.2891 6.5703 4.0312 9.5781 6.9062 11.602 15.523 14.348 28.359 13.773 21.664-0.98438 43.043-6.1914 64.73-7.7266 23.008-1.6328 45.562-1.9688 68.477-5.1992v-0.003906c9-1.2969 18.055-2.1367 27.137-2.5195 8.4297 0.32422 16.871-0.035156 25.242-1.082 8.8008-1.8242 16.484-6.8867 24.738-10.172 4.9922-2.1367 9.8516-4.5781 14.539-7.3203-1.4414 0.19141-2.8789 0.39844-4.3203 0.50391-8.4727 0.80078-16.508 0.76953-24.062 1.2969-7.5586 0.39844-14.66 1.5586-21.57 2.4961-6.9102 0.9375-13.363 2-19.574 2.543-6.2148 0.64844-12.07 1.2734-17.602 1.8438-5.6016 0.19141-10.82 0.39844-15.766 0.55078-2.4727 0.097657-4.8477 0.16797-7.1523 0.23828-2.3008-0.023438-4.5312-0.046875-6.668-0.046875l-12-0.14453c-3.7188-0.12109-7.0781 0.070312-10.195 0.16797-3.1172 0.097656-5.9531 0.39844-8.543 0.60156-5.1992 0.39844-9.3789 0.74219-12.645 1.0078v0.003907c-3.1289 0.28516-6.2773 0.19922-9.3828-0.26563 3.0391-0.71094 6.1445-1.0859 9.2617-1.1289 3.2383-0.39844 7.3906-0.96094 12.547-1.6289 2.6172-0.28906 5.4492-0.74219 8.6406-0.86328 3.1641-0.19141 6.6211-0.48047 10.316-0.43359 3.6953-0.046875 7.6992-0.070313 11.973-0.097656 2.1602-0.023438 4.3672-0.046875 6.668-0.046875 2.2812-0.12109 4.6562-0.21484 7.0781-0.33594 4.8945-0.23828 10.074-0.48047 15.602-0.74219 5.4922-0.625 11.324-1.2734 17.469-2 6.1875-0.57422 12.645-1.6797 19.504-2.6406 3.4062-0.48047 6.9375-0.98438 10.531-1.5117 3.6719-0.39844 7.4414-0.9375 11.281-1.1055 7.6992-0.55078 15.734-0.52734 23.969-1.3438l-0.003907 0.003906c6.0938-0.52344 12.117-1.6719 17.973-3.4297 1.3164-0.50391 2.6836-0.96094 4.0508-1.3672 0.98438-0.35938 1.9688-0.74219 2.9531-1.1758l0.19141 0.39844c0.023438 0 0.046875-0.023438 0.097657-0.023438 0.023437-1.8477 0.046874-3.6953 0.046874-5.543-7.7969 1.0781-15.285 2-22.48 3.2383-4.0312 0.67188-7.9688 1.2969-11.805 1.9219-3.8359 0.625-7.6562 1.1055-11.328 1.6562-7.3633 1.2461-14.492 1.6328-21.23 2.2539-6.7383 0.62109-13.074 0.88672-19.102 1.3203-24.113 1.3438-42.898 2.8789-57.246 3.8633-7.1992 0.50391-13.27 0.91016-18.328 1.2734-5.0625 0.43359-9.168 0.23828-12.332 0.3125v-0.003906c-3.0391 0.22656-6.0938 0.082031-9.0938-0.42969 2.9648-0.67969 6.0039-1.0078 9.0469-0.98438 3.1406-0.26562 7.1992-0.28906 12.234-0.91016 5.0352-0.50391 11.086-1.0781 18.258-1.8008 14.324-1.2969 33.113-3.0938 57.273-4.6523 6.0234-0.45703 12.477-0.74219 19.102-1.4141s13.699-1.0547 20.992-2.3281c3.6719-0.55078 7.5117-1.1055 11.352-1.6797 3.8398-0.57422 7.9141-1.2734 11.949-1.9219 7.2812-1.3008 13.734-2.2383 23.332-3.3672zm-1.1758 20.324c0.14453-1.6562 0.23828-3.3125 0.3125-4.9453-13.004 3.1992-24.762 11.898-37.117 16.988-7.1523 2.9531-13.891 6.6953-20.781 10.074v0.003906c18.207 0.023438 36.395-1.3164 54.402-4 0.85547-6.0742 2.6797-11.977 3.1836-18.121zm0.12109-86.328c-0.023437-0.046876-0.023437-0.070313-0.046875-0.12109-0.023438-0.046875 0.023438-0.12109 0-0.16797h-0.003906c-7.5703-0.55078-15.184 0.046875-22.574 1.7773 0.53516 4.7383 0.73438 9.5078 0.59766 14.277 1.5117-0.12109 2.9961-0.26562 4.5078-0.39844 0.16797-3.3828 0.16797-6.6445 0.16797-10.27-0.097656-1.3164 0.55469-2.5781 1.6836-3.2656 0.60938-0.83203 1.6055-1.2969 2.6367-1.2227 0.29297-0.078124 0.58984-0.11719 0.89062-0.12109 4.0508 0.078125 8.1055-0.085938 12.141-0.48828zm-5.0625 60.152h-0.003906c-0.039063-0.089843-0.0625-0.1875-0.070313-0.28906-0.050781-3.8828-0.45312-7.7539-1.1992-11.562-2.543 0.33594-5.0898 0.64844-7.6328 0.96094-0.046875 2.4453-0.16797 4.9141-0.097656 7.3633 0.042969 0.32422 0.050781 0.65625 0.023437 0.98437 0.042969 0.89063 0.12891 1.7812 0.26562 2.6641 2.9062-0.023437 5.8125-0.050781 8.7109-0.12109zm-12.98-31.434h-0.003906c0.011719-2.4258-0.12109-4.8555-0.39844-7.2656-19.145 1.8906-38.242-0.39844-57.27 1.6758v9.5508c19.293-0.19141 38.453-2.4727 57.668-3.9609zm-2 25.695 0.070313-4.4609v0.003907c-19.062 2.207-38.227 3.4297-57.418 3.668-0.17188 0.0625-0.34766 0.10937-0.52734 0.14453-12.957 2.1133-25.48 5.0898-38.727 4.8945-14.848-0.23828-29.629-1.6016-44.434 0.21484-0.73047 0.11719-1.4766-0.089844-2.0391-0.57422-0.41016-0.15625-0.77734-0.40234-1.082-0.71875-1.4805-1.418-3.0586-2.7227-4.7266-3.9141-0.51953 3.8086-0.60938 7.6641-0.26562 11.492 25.742-0.57031 51.348-3.1641 77.094-3.957 13.484-0.43359 26.992-1.1055 40.398-2.6406 10.523-1.2227 21.035-3.5742 31.641-4.1484zm-8-38.316-0.003906 0.003906c0.035156-7.0273-0.30078-14.055-1.0078-21.047-1.8008 0.21484-3.625 0.35938-5.4453 0.48047 0.14453 6.8008 1.0078 13.555 1.7734 20.348v0.33594c1.5586-0.023438 3.1055-0.070313 4.6758-0.11719zm-7.3711-110.92c0.003907-0.027344-0.003906-0.050781-0.023437-0.070313-2.207-16.051-2.7109-32.512-3.8867-48.684-1.1289-15.062-3.1992-30.539-3.1992-45.703-0.50391-0.070313-1.0078-0.16797-1.4883-0.23828-0.74219 16.555 1.6562 33.828 2.543 50.266 0.88672 16.102 1.7852 32.191 2.6875 48.277 1.1367-1.2734 2.2617-2.5469 3.3672-3.8477zm-43.309 112.32c13.316-1.2969 26.699-1.7031 40.07-1.2227-0.039062-0.13281-0.066406-0.26562-0.074219-0.40234-0.046874-0.39844-0.097656-0.80078-0.14453-1.1992h-10.461 0.003906c-0.41797 0.003906-0.83203-0.0625-1.2266-0.19141-14.398-0.16797-29.055 1.1289-43.57 0.96094-0.12109 10.801 0.19141 21.602 0.21484 32.398 0 0.046875-0.023438 0.070313-0.023438 0.097656 3.6719 0.023438 7.3398-0.023437 11.012-0.046875v-26.004c-0.070312-1.4844 0.83203-2.8477 2.2305-3.3594 0.50391-0.57812 1.207-0.94922 1.9688-1.0312zm38.293-20c-0.023438-0.60156-0.046876-1.1992-0.046876-1.7773-3.0703 0.023438-6.1211-0.023437-9.1406-0.023437 0.3125 3.9375 0.83984 7.8477 1.5352 11.785h0.45703c0.16797-2.0625 0.52344-4.1289 0.69141-6.1914 0.058594-0.94531 0.55469-1.8047 1.3438-2.3281 0.36328-0.60547 0.96484-1.0312 1.6562-1.1758 1.1641-0.17578 2.3359-0.26953 3.5117-0.27734zm-4.6094-32.027c0.50391-0.52734 0.39844-2 0.19141-3.457-39.516-1.6328-78.625-1.1055-118.12 1.1289 0.28906 0.9375 0.98438 1.3906 2.5938 1.4414 2.0586 0.070313 4.125-0.12109 6.2109-0.21484 33.93-5.1133 68.398 0.74219 102.43 0.9375v-0.003907c0.79688 0.03125 1.5703 0.26563 2.2578 0.67188 0.48047 0 0.96094 0 1.4414-0.023438 0.71484-0.011719 2.4102 0.13281 2.9922-0.46875zm-7.6758-43.199c-17.578-0.37109-35.164 0.16406-52.688 1.5977-18.883 1.8672-37.551 1.8906-56.434 2.8984 0.023437 0.88672 0.023437 1.8008 0.046874 2.6875 0.39844-0.046875 0.80078-0.046875 1.2227-0.070312 14.18-3.7695 29.531-1.6797 44-1.3672h0.003906c17.859-0.13281 35.676-1.8125 53.246-5.0117 0.65625-0.097657 1.3281-0.015626 1.9414 0.24219 2.4219-0.19141 4.8438 0 7.2422-0.26562h0.003907c0.55078-0.011719 1.0664-0.26172 1.4141-0.6875zm-1.2734 86.207h0.003906c-2.25-12.293-2.4766-24.871-0.67188-37.238-31.91-0.48047-64.348-5.7578-96.141-1.3438-8.4453 26.777 25.336 37.359 45.059 38.824 17.316 1.3125 34.477-0.21875 51.754-0.21875zm-11.371-152.19c0-0.625-0.023438-1.2422-0.070312-1.8672-18.262 0.69531-36.496 6.3086-54.586 8.9492-15.309 2.2305-30.762 5.5195-46.211 6.7656 0.023438 0.26562 0.023438 0.55078 0.046876 0.83984 0.023437 0.023437 0.023437 0.097656 0.046874 0.14453l0.003907-0.003907c0.26953-0.10547 0.55078-0.16797 0.83984-0.19141 17.875-1.4414 35.27-5.5391 52.977-8.0859 15.617-2.2305 31.43-3.6953 46.953-6.5508zm1.8945 99.141c-1.3203-9.7891-7.3906-17.176-4.6094-25.648h0.003906c-14.625 2.7461-29.469 4.1914-44.352 4.3203-14.758-0.28906-31.199-2.7109-45.66 0.86328-2.8984 5.707-4.3633 17.254 2.3047 20.344 0.61719 0.28125 1.1094 0.77344 1.3906 1.3906 30.363-1.5156 60.574-2.0156 90.926-1.2695zm-10.195 153.32c0.69531-0.21484 1.3672-0.48047 2.0391-0.71875-2.832 0.097656-5.707 0.12109-8.7305 0.23828-14.324 0.57422-28.398 2.3047-42.59 4.2461-26.32 3.5742-52.953 2.4258-79.344 5.7344-20.086 2.4922-47.602 12.262-66.465 0.98438-15.02-8.9531-17.32-33.449-17.703-48.758v-0.23828c-1.9219-0.12109-3.8633-0.26562-5.8086-0.35938-5.9023-0.26562-11.805-0.26562-17.707-0.26562v0.003906c6.2891 4.0234 11.086 10 13.652 17.012 5.7109 13.652 10.105 35.531 26.969 39.199 16.773 3.625 35.031 0.50391 51.66-2.207h-0.003906c15.051-2.5898 30.27-4.082 45.539-4.4609 9.6211 0.24609 19.246-0.42188 28.742-2 6.7109-1.7109 13.547-2.8906 20.445-3.5273 16.457-0.78125 33.375 0.25 49.305-4.8828zm-0.83984-324.31c-3.8359 0.21875-7.6602-0.55078-11.109-2.2344-11.422-4.6562-22.023-14.781-35.051-9.7188 0.86328 6.9688 2.0898 13.891 3.668 20.73 5.125-1.2539 10.488-1.1641 15.57 0.26563 5.4492 1.5352 11.426 4.5117 17.199 3.457 3.125-3.6484 8.0938-7.7305 9.7227-12.5zm4.5117 102.52c-3.0703-5.3008-9.7656-3.5273-12.934-8.8984-2.543-4.3438 2.207-9.3555 4.1992-13.629-12.141 1.6328-24.355 2.8789-36.449 4.8945-15.812 2.6133-31.477 5.8516-47.457 7.3633-0.19141 5.9531 1.2227 11.516 8.5156 11.898 4.3438 0.21484 8.6875 0.39844 13.027 0.67188 7.5352 0.45703 15.117 0.98438 22.578 2.1836 11.73 1.8945 21.566 3.5742 33.199-0.35938l0.007813 0.003906c4.9922-1.7578 10.109-3.1367 15.312-4.1289zm-18.164-46.375c-5.4453-7.6016-4.1953-18.188-2.7812-27.398-23.66 2.8516-47.363 5.4688-70.926 9.1992 3.4531 8.5156 2.6875 17.781 2.5664 26.895 24.379 1.332 47.484-3.4688 71.141-8.6953zm-6.4531 75.336c0.023438-0.070313 0.023438-0.14453 0.046875-0.21484-9.7383-0.71875-19.508-0.45703-29.273-0.39844 0.16797 1.1992 0.3125 2.4258 0.45703 3.6484 5.9766-0.28906 11.973-0.625 17.973-1.0781 3.5703-0.26562 7.1719-0.45703 10.746-0.64844l0.003906-0.007812c-0.078125-0.43359-0.0625-0.875 0.046875-1.3008zm-10.293 131.43c1.6562-0.023437 3.3086 0.023438 4.9883 0.070313-0.046875-10.699-0.33594-21.43-0.21484-32.129-2.1836-0.097657-4.3398-0.23828-6.5234-0.43359 0.76562 10.824 0.88672 21.672 1.75 32.492zm-10.441-138.13c1.9219 0 3.8164-0.023437 5.7344-0.023437-0.23828-3.3594-0.64844-6.7422-0.80078-10.129-1.6016-0.21484-3.1992-0.45703-4.8008-0.69531h0.003906c0.26953 3.582 0.23828 7.1797-0.09375 10.754-0.015625 0.058594-0.039062 0.058594-0.039062 0.09375zm5.1133 143.05c-0.26953-0.51562-0.38281-1.0977-0.33594-1.6758-0.074219-0.22656-0.12109-0.46094-0.14453-0.69922-0.12109-1.2227-0.16797-2.4258-0.26562-3.6484-12.379 1.7031-24.473-0.19141-36.875-1.0078v0.003906c-0.92188 2.168-1.4102 4.5-1.4375 6.8594 9.3789-0.23828 18.711 0.35938 28.168 0.50391 3.6953 0.046874 7.3164-0.074219 10.891-0.33594zm-1.1523-11.973c-0.046875-0.80078-0.070313-1.6016-0.12109-2.4258-5.7305-0.097656-11.445-0.57422-17.18-0.48047-3.9062 0.046875-11.758-0.50391-15.836 2.0898 10.973 1.6133 22.102 1.8867 33.137 0.81641zm-0.39844-8.4453c-0.23828-5.9023-0.45703-11.805-0.91016-17.684h-0.003906c-3.6797-0.51172-7.332-1.2188-10.938-2.1133-18.598-4.7734-38.578-20.199-33.602-41.41-2.1797 0.25391-4.3906 0.066406-6.5-0.55078-0.15625-0.058594-0.3125-0.13281-0.45703-0.21875-0.22656 0.48828-0.57422 0.91016-1.0078 1.2266-0.16797 0.12109-0.33594 0.21484-0.50391 0.33594-0.078125 0.14062-0.17578 0.27734-0.28516 0.39844-5.2578 5.8789-9.1992 11.324-8.4453 19.676 0.36328 7.1094 2.9844 13.918 7.4844 19.434 1.043 0.79297 1.5 2.1406 1.1602 3.4023-0.34375 1.2656-1.418 2.1992-2.7227 2.3555-13.633 1.3555-27.359 1.5312-41.027 0.52734-0.070313 0.91016-0.12109 1.8945-0.16797 2.9297 6.625-0.98438 13.316-0.23828 20-0.83984 0.69922-0.09375 1.4023 0.10547 1.9453 0.55078 0.046876 0.023438 0.12109 0.023438 0.16797 0.046876 4.9141 2.2305 10.605 3.0664 15.711 4.8008 3.7422 1.2969 9.8164 2.7344 11.258 6.9844 0.29688 0.81641 0.1875 1.7266-0.29688 2.4453-0.48438 0.72266-1.2852 1.168-2.1523 1.2031-0.42187 0.30859-0.91797 0.5-1.4414 0.55078-2.1602 0.28906-4.3203 0.50391-6.4805 0.71875l0.003906 0.003907c0.38672 1.9531 0.64453 3.9336 0.76562 5.9219 5.6406-2.7109 15.906 1.5117 18.715-4.3438 0.17969-0.42188 0.47266-0.78516 0.84375-1.0547 7.6367-9.4492 28.035-5.6562 38.879-5.2969zm-6.4844-174.72 3.3086-0.50391c-0.19141-1.4258-0.3125-2.8555-0.35938-4.293-0.003906-0.042968 0.003906-0.082031 0.023437-0.12109l-3.6016 0.57422v0.003907c0.10938 0.30859 0.16406 0.63281 0.16797 0.96094 0.019531 1.1406 0.17578 2.2734 0.46094 3.3789zm-7.2461-45.801c1.8242-0.21484 3.6484-0.45703 5.4961-0.67188-1.5117-14.801-6.5742-28.938-7.0547-43.836-0.64844-0.023438-1.2969-0.070313-1.9453-0.12109 0.58984 14.949 3.5977 29.656 3.5 44.629zm-29.18 235.56c-0.48047 0.046875-0.98438 0.097656-1.4883 0.12109-3.6484-0.22656-7.3164-0.007813-10.914 0.64844 2.3086 1.543 4.4922 3.2656 6.5273 5.1562 1.7734-0.19141 3.5234-0.33594 5.2773-0.45703-0.03125-1.8398 0.17188-3.6758 0.59766-5.4688zm-11.012-89.602 2.7109-0.14453c-4.3984-5.5156-4.1758-14.828-1.7773-21.734h-0.023438l0.003907 0.003907c-0.77344 0.011718-1.5234-0.28906-2.0703-0.83594s-0.84766-1.2969-0.83594-2.0703c-0.023438-2.5938-0.19141-5.1992-0.21484-7.7969 0.007813-0.30078 0.054687-0.59766 0.14453-0.88672-1.2773 0.40234-2.5977 0.65234-3.9375 0.74609-0.32031 0.015624-0.64453-0.015626-0.95703-0.097657-0.30859 6.8359-0.76562 15.199-9.4297 15.641-8.5898 0.39844-17.199 1.5117-25.793 2.5195 0.15625 5.6328 0.61328 11.258 1.3672 16.844 12.422 2.0586 24.949 3.3711 37.527 3.9375-0.10156-0.76563-0.14453-1.5352-0.12109-2.3047 0.31641-1.8203 1.6367-3.2969 3.4062-3.8164zm-5.6875-39.602c0.57422-2.1602-0.39844-3.4805-2.8984-1.3672l-45.637 0.003906c7.9414 1.1289 15.98 0.67188 24 1.2227 6.7969 0.60156 13.629 0.73828 20.445 0.40234 0.11719-0.011719 0.23828-0.011719 0.35938 0h0.023437c1.2305-0.15625 2.4688-0.24609 3.707-0.26172zm-3.4336 135.06c0.12109-0.88672 0.23828-1.7773 0.39844-2.6602-23.949 2.3008-48.492 0.60156-72.484 0.60156l-75.035-0.003906c-0.10547 1.5156-0.30469 3.0195-0.60156 4.5078 29.176 1.3906 53.602 0.33594 73.66 0.48047 20.633-0.070312 36.707 0.48047 48.871-0.33594 1.5352-0.046874 3-0.097656 4.3984-0.16797 1.3984-0.070313 2.7344-0.26562 4.0312-0.35938l7.0742-0.71875h0.007813c3.2578-0.17969 6.4961-0.62891 9.6797-1.3438zm-0.39844 12.332h-0.003906c-0.26172-3.582-0.19141-7.1836 0.21484-10.75-3.0273 0.83203-6.1172 1.418-9.2383 1.7539-2.1602 0.3125-4.5078 0.64844-7.125 1.0078-1.2969 0.16797-2.6406 0.39844-4.0547 0.50391-1.4141 0.10547-2.9023 0.19141-4.4414 0.28906-12.309 1.1523-28.434 0.86328-49.016 1.1055-20.18 0.046875-44.801 1.2227-74.57-0.23828v-0.003906c-0.45703 1.5547-1.0039 3.0859-1.6328 4.582 12.359 0.48047 24.801-0.50391 37.098 0.91016 13.27 1.5547 26.297 2 39.637 2.3242 11.059 0.26562 22.145 0.12109 33.23-0.14453-0.097656-0.60156-0.19141-1.2734-0.28906-1.8672-0.57422-3.793 5.1992-5.543 5.8047-1.7266 0.16797 1.1055 0.3125 1.9141 0.48047 3.0195 0.070313 0.28906 31.07-0.69531 33.926-0.76562zm-0.91016-20.367-0.003907-0.003906c-0.058593-2.5547-0.34766-5.0977-0.86328-7.5977-19.125 1.4883-38.293 1.0781-57.465 0.98438 0.21484 2.5938 0.12109 5.2305 0.35937 7.8477 19.34 0.5625 38.695 0.15234 57.992-1.2344zm4-14c-2.707-0.83984-5.6016-1.6016-6.7148-1.9219h-0.007813c-3.793-0.95703-7.5312-2.1172-11.199-3.4805-6.6602-0.074219-13.316 0.23828-19.938 0.9375-0.046875 2.4258-0.097656 4.5859-0.097656 5.9766 12.691 0.007813 25.336-0.30078 37.98-1.5039zm-6.6445-106.64c-8 0.19141-15.906-0.74219-23.922-0.88672v-0.003906c-6.9492 0.10938-13.902-0.34766-20.777-1.3672-0.32031-0.0625-0.62891-0.17578-0.91406-0.33594-3.7422 5.707-7.3164 11.539-11.086 17.227 11.602-0.12109 22.742-2.6641 34.238-3.7695 10.297-0.98047 20.445 0.79297 22.461-10.863zm-1.0547-83.602c0-0.26562-0.023438-0.52734-0.023438-0.80078-13.531 0.83984-27.062-0.097656-40.621 0.26562-0.9375 0.023437-2.7344-0.070313-5.1133-0.19141-0.046876 1.0312-0.070313 2.0859-0.070313 3.1406v-0.003906c15.309 0.054687 30.605-0.75 45.828-2.4023zm-0.64844 148.64c0.14453-4.3711 1.3398-8.6406 3.4805-12.453-9.6719 1.9688-19.621 2.1133-29.348 0.43359-17.422-2.1836-34.523-6.4414-50.934-12.695-0.039062-0.027344-0.078125-0.050781-0.12109-0.070312l-2.1602 2c0.003907 0.058594-0.003906 0.11328-0.023437 0.16797-3.4062 14.969 4.4375 30.562 15.836 40.066 0.023438 0.023437 0.046875 0.070312 0.097657 0.097656 9.5469 5.7305 24.16 4.3398 34.957 4.4375 11.301 0.070313 23.152 0.96094 34.551 0.14453-4.3477-6.543-6.5625-14.27-6.3359-22.121zm-31.359-18.801c12.211 1.8008 26.32 4 37.887-1.1055-25.629-1.4414-50.578-7.8203-76.277-8.6133v0.003906c12.457 4.457 25.312 7.7109 38.391 9.7109zm26.078-90.117c-7.7461-8-7.1992-23.492-0.50391-33.016-14.586 1.3672-29.34 1.7539-44.098 1.7266v0.003906c-7.3789 9.9062-14.105 20.289-20.129 31.078-0.43359 0.71875-0.86328 1.4648-1.3203 2.207 22.035 0.76172 44.102 0.09375 66.051-2.0039zm-34.234 30.398c6.3984 0.070312 12.801 0.12109 19.219 0.097656-0.12109-1.3672-0.19141-2.7617-0.23828-4.1523-10.848-0.76953-21.691-0.28906-32.559-0.21484-0.33594 1.3438-0.60156 2.7109-0.9375 4.0781l9.5703 0.14453c0.69531-0.23828 1.3672-0.50391 2.0625-0.71875 1.0273-0.34766 2.1602-0.046875 2.8828 0.76562zm4.0312-10.488h4.0742v0.003906c0.074219-4.0391-0.20703-8.0781-0.83984-12.07l-4.1953 0.14453c0.60156 3.5508 0.19141 7.1992 0.9375 10.746v0.003906c0.066406 0.38672 0.074219 0.78125 0.023438 1.1719zm-2.5938 57.602c1.9688 0.28906 3.957 0.57422 5.9492 0.88672v0.003906c-0.67969-5.0547-1.0938-10.141-1.25-15.238-1.8438 0.19141-3.7148 0.39844-5.5625 0.55078 0.21484 4.5898 0.69531 9.1758 0.86328 13.777zm3.0469 59.266c-0.52734 0-1.0547-0.023437-1.6016-0.046875-1.0781-0.046875-2.1602-0.070312-3.2656-0.097656h0.003906c-0.41016 5.0195-0.52344 10.059-0.33594 15.094 0 0.097656-0.023438 0.19141-0.023438 0.3125 1.5352 0 3.0977 0 4.6328 0.023437 0.039062-5.6602 0.11328-10.336 0.58984-15.305zm-8.3008-182.7c2.3984 0.070312 4.8242 0.12109 7.2227 0.14453-1.4414-9.5703-1.8711-19.242-3.4805-28.84-1.5664-8.2773-2.5039-16.656-2.8008-25.074-0.91406-0.042969-1.8281-0.003907-2.7344 0.12109 0.42188 17.922 3.2539 35.699 1.793 53.648zm0.12109 65.906c0.625 0 1.2227 0 1.8477-0.023438-0.71875-3.9062-0.16797-8-1.1992-11.875-0.74219 0.023438-1.4883 0.023438-2.2305 0.046876h-0.003906c-0.078126 4.0078 0.45312 8.0039 1.582 11.852zm-0.88672 56.695c-0.19141-4.1719-0.60156-8.3242-0.80078-12.5-4.1719 0.26563-8.3242 0.43359-12.477 0.33594h-0.003906c-0.50781 0.007812-1.0078-0.13281-1.4375-0.39844-2.543 3.6016-5.2812 7.0625-8.2031 10.363 7.6836 0.35156 15.312 1.168 22.918 2.1992zm-1.9688 62.84c0.046875-1.0312 0.14453-2.0625 0.23828-3.0703-7.207 0.17969-14.336-1.5234-20.68-4.9453-0.30469-0.20312-0.57422-0.45312-0.80078-0.74219-0.070313-0.039063-0.13281-0.089844-0.19141-0.14453-11.406-9.293-18.113-23.152-18.324-37.859-3.4766 3.5312-6.543 7.4414-9.1406 11.66-3.625 6.5547-7.8086 12.781-12.5 18.617-0.42578 0.54688-1.0508 0.89844-1.7383 0.97656-0.6875 0.074218-1.3789-0.13281-1.9102-0.57422-0.027343 0.003906-0.054687-0.007813-0.070312-0.023437-10.723-3.2891-22.07-3.6719-32.727-6.8867-7.8906-2.3711-15.43-5.8516-23.273-8.2539 2.543 1.7773 4.9922 3.6719 7.4844 5.6016l-0.003906-0.003906c7.4414 5.4141 15.379 10.102 23.711 14 1.6367-0.375 3.2148-0.96484 4.6992-1.75 1.2109-0.62109 2.6875-0.37109 3.625 0.61719 0.9375 0.98438 1.1133 2.4727 0.42969 3.6523-0.10156 0.45703-0.31641 0.88672-0.62109 1.2461-0.14453 0.19141-0.3125 0.33594-0.45703 0.50391 8.6914 4.5078 17.129 9.4961 25.262 14.949 8.0898 5.5664 15.547 12.066 24.164 16.82 0.72266 0.35156 1.2461 1.0156 1.418 1.7969h7.6992c-0.03125-0.19531-0.039063-0.39844-0.023437-0.59766 0.23828-3.8633-0.21484-7.7266 0.023437-11.539l-0.14453-0.14453c-1.6406-1.4062-3.0156-3.0977-4.0547-4.9922-0.88672-1-1.0117-2.4648-0.3125-3.6016 0.070313-0.23828 0.097656-0.48047 0.19141-0.71875 0.070313-0.16797 0.14453-0.3125 0.21484-0.45703 0.13281-1.1562 1.0312-2.0742 2.1875-2.2266 8.4609-1.4492 17.039-2.0898 25.621-1.9102zm-0.12109 12.453c0-0.097656-0.023437-0.16797-0.023437-0.26562 0-2.0898-0.023437-4.1523-0.023437-6.2148h-0.003907c-6.1211-0.082031-12.238 0.19922-18.328 0.83984 2.7812 1.9727 5.6797 3.7695 8.6836 5.375 0.10938 0.074219 0.21875 0.14062 0.33594 0.19531zm-8-131.84c1.6016 0 3.168-0.023437 4.7539-0.046875h-0.003907c-0.94141-3.9062-1.3906-7.9102-1.3438-11.926-8.0625 0-16.102-0.097656-24-0.21484h-0.070312c-4.9141 8.4258-9.668 16.988-14.277 25.602-2.9961 5.5664-5.9492 11.16-8.9258 16.723 3.8867-1.1289 7.7539-2.2305 11.602-3.3828-0.34375-4.1367 1.4023-8.1719 4.6562-10.75h-0.60156c-1.6328-0.10156-2.9062-1.457-2.9062-3.0938 0-1.6367 1.2734-2.9922 2.9062-3.0938 7.3633 0 14.758 0.070312 22.168 0.16797 0.69531-2.2812 1.0078-4.6797 1.7266-6.9844h0.003906c0.28125-0.99609 1.0781-1.7617 2.0859-2 0.54297-0.65625 1.3594-1.0234 2.2109-1zm3.0234-59.453c0.023438-0.45703 0.070312-0.9375 0.070312-1.3906-12.234-0.57422-30.281-1.0078-34.938 2.9258 10.555 0.19141 21.199 0.43359 31.887 0.50391 1-0.67578 2.0078-1.3164 2.9688-2.0391zm-27.711 117.2c12.234-11.602 20.441-25.648 29.633-39.422-7.4648 3-14.637 6.5977-22.148 9.6211-10 4.0312-20.398 6.457-30.664 9.6953-7.3164 13.602-14.781 27.113-22.91 40.285l-0.003907 0.003907c-0.79297 1.332-2.4961 1.8086-3.8633 1.0781-17.559-1.7031-34.906-5.7109-52.449-7.9453-1.3906-0.16797-2.8008-0.35938-4.1758-0.52734-2.1602 2.0859-4.4961 3.9805-6.9805 5.6641 0.14453 0.070312 0.26563 0.14453 0.39844 0.21484 0.13672 0.070312 0.28906 0.19141 0.43359 0.28906 2-0.83984 4-1.6797 6.043-2.3984 0.69531-0.26953 1.4766-0.22656 2.1367 0.12109 1.0312-0.027343 1.9844 0.54297 2.4492 1.4609 0.74219 1.3203 1.4648 2.6406 2.1836 3.9375 0.27734-0.03125 0.55859-0.039062 0.83984-0.023438 11.371 1.293 20.969 6.3984 31.793 9.668 11.66 3.5039 23.895 4.3438 35.629 7.7734 5.4961-6.8359 9.3555-14.73 14.348-21.953 5.1562-6.4219 10.949-12.309 17.293-17.562zm14.996 87.863h4.293l-0.003906 0.003906c0.03125-3.1953-0.19531-6.3906-0.67188-9.5508-1.2227-0.69531-2.3984-1.4648-3.5469-2.2578-0.3125 3.6914 0.23828 7.4844 0.023437 11.199v0.003906c-0.027344 0.19531-0.0625 0.39062-0.10938 0.58594zm3.8828-129.28v0.003907c-5.125-0.74219-10.352-0.18359-15.203 1.6328-0.23438 0.5-0.59766 0.92969-1.0508 1.2461-2.1914 1.1914-3.7578 3.2734-4.2969 5.7109 3.6289-1.1914 7.1914-2.5664 10.676-4.125 3.2891-1.5078 6.5781-3.0195 9.8633-4.4844zm-4.3281-67.863c-5.2578-0.070312-10.512-0.16797-15.738-0.26562h-0.003906c-0.95312 2.7656-1.2734 5.707-0.93359 8.6133 5.5156-2.9062 11.156-5.4961 16.676-8.3477zm3.2344 4.9922c-9.7031 4.2773-19.035 9.3477-27.902 15.164-13.746 10.102-27.543 19.938-41.867 29.242-28.531 18.496-60.484 35.727-85.246 59.43 13.41 5.4727 28 6.8867 42.301 8.6641 15.016 1.8672 29.746 5.5391 44.801 7.0039 7.7539-12.691 14.898-25.695 21.906-38.773 0.10156-0.34375 0.27344-0.66406 0.50391-0.93359 5.4453-10.148 10.801-20.348 16.398-30.473h0.003906c8.7383-16.992 18.453-33.465 29.102-49.328zm-36.781 192.11h10.398c-7.4844-4.9453-14.371-10.801-21.953-15.645-7.6797-4.8711-15.547-9.3086-23.559-13.578h0.003906c-1.1211 0.85547-2.3008 1.6328-3.5273 2.3281 5.7305 4.4844 13.148 7.2695 18.977 11.707 6.2656 4.8008 12.648 9.4023 18.859 14.277 0.33203 0.24219 0.60547 0.55078 0.80078 0.91016zm-43.449-31.141c-16.844 0.39844-36.562-10.867-42.516-25.199v-0.003906c-6.2461 4.4062-13.047 7.9648-20.227 10.582 7.3867 13.82 19.625 19.293 35.484 18.98 9.1406-0.18359 19.078-0.44922 27.258-4.3594zm-7.7227-6.668h-0.003906c-4.168-2.2148-8.1719-4.7344-11.969-7.5391-5.0859-4.25-10.559-8.0156-16.34-11.25 4.7695 8.9727 16.723 16.508 28.309 18.789zm-35.297-25.602c-0.28906-0.55078-0.60156-1.0781-0.88672-1.6016-10.531 3.8594-20.105 9.8594-30.801 13.34h-0.003907c0.30078 0.97266 0.70313 1.9141 1.2031 2.8008 11.07-2.6328 21.461-7.582 30.484-14.52zm-13.941-9.4023c1.7383-1.0234 3.4062-2.1641 4.9922-3.4102-5.1992-0.80469-10.352-1.9023-15.43-3.2852 3.4336 2.3203 6.8906 4.5547 10.438 6.7148zm-4.8633 9.3125c1.6289-0.76953 3.2344-1.5312 4.8438-2.3242-19.527-11.352-36.707-26.422-57.246-36-0.070313 0.23828-0.14453 0.48047-0.23828 0.71875 16.27 14.086 34.984 24.734 52.355 37.332l-0.003906 0.003906c0.10156 0.082032 0.19922 0.17578 0.28906 0.26953z"/>
  <path d="m407.39 375.09c0.76562 0.019531 1.4844 0.35156 1.9961 0.91797 0.51172 0.56641 0.77344 1.3203 0.71875 2.082 0.027344 0.76953-0.25 1.5195-0.77734 2.082-0.52344 0.5625-1.2539 0.89453-2.0234 0.91797-1.9219 0.19141-5.3984 0.21484-5.3984 0.21484-4.8008 0-4.8008-6 0-6-0.011719 0 3.5664-0.023437 5.4844-0.21484z"/>
  <path d="m368.3 377.89c4.8008 0 4.8008 4.8008 0 4.8008h-2.3984c-4.8008 0-4.8008-4.8008 0-4.8008z"/>
  <path d="m339.01 382.5c0.4375 1.5977-0.49609 3.2461-2.0859 3.6953-1.2617 0.20313-2.5391 0.30078-3.8164 0.28906-1.6602 0-3-1.3438-3-3s1.3398-3 3-3c0.73438 0.039063 1.4766 0.007813 2.207-0.097656 1.5977-0.39062 3.2227 0.53516 3.6953 2.1133z"/>
  <path d="m307.41 383.89c0.40234 1.5938-0.51562 3.2188-2.0859 3.6953-1.0234 0.38281-2.1094 0.55469-3.1992 0.50391-1.6562 0-3-1.3438-3-3 0-1.6602 1.3438-3 3-3 0.54688 0.027344 1.0938-0.074219 1.5977-0.28906 0.76953-0.21484 1.5859-0.11328 2.2773 0.28125 0.69531 0.39062 1.1992 1.043 1.4102 1.8086z"/>
  <path d="m279.53 382.69c1.9883 0 3.6016 1.6133 3.6016 3.6016s-1.6133 3.5977-3.6016 3.5977h-4.8008c-1.9883 0-3.5977-1.6094-3.5977-3.5977s1.6094-3.6016 3.5977-3.6016z"/>
  <path d="m209.95 385.09c2.3984 0 2.3984 4.8008 0 4.8008h-4.8008c-2.3984 0-2.3984-4.8008 0-4.8008z"/>
 </g>
</svg>
