<?xml version="1.0" encoding="UTF-8"?>
<svg width="512pt" height="512pt" version="1.1" viewBox="0 0 512 512" xmlns="http://www.w3.org/2000/svg">
 <path d="m197.84 183.91c-39.016-13.566-66.559-10.238-81.922 9.9844-0.51172 0.66406-0.92187 1.332-1.3828 1.9453-30.719 2.3555-50.582 14.082-59.336 34.559-15.359 36.199 16.383 85.402 46.746 121.29l-0.003906 56.73c0 2.5898 1.0352 5.0703 2.8672 6.8984 1.8359 1.8242 4.3242 2.8438 6.9141 2.832h288.61c5.3828 0 9.75-4.3477 9.7812-9.7305v-56.68c30.207-35.891 62-85.094 46.691-121.34-8.7031-20.48-28.621-32.309-59.137-34.664-0.41016-0.61328-0.82031-1.332-1.2812-1.9453-23.5-30.363-67.688-15-82.227-9.9844l0.003906 0.003906c-10.512 3.168-21.242 5.5625-32.102 7.168v-14.594c-0.015625-8.8555 1.543-17.645 4.6055-25.957l5.8867-16.027h0.003906c1.3086-3.5586 0.42969-7.5547-2.2539-10.238l-27.441-27.391h-0.003906c-1.8086-1.8398-4.2812-2.875-6.8594-2.875s-5.0508 1.0352-6.8594 2.875l-27.445 27.34c-2.6836 2.6797-3.5625 6.6797-2.2539 10.238l5.8398 16.078c3.0586 8.3125 4.6211 17.102 4.6055 25.957v15.77c-10.887-1.8711-21.609-4.6289-32.051-8.2422zm-66.559 21.914c14.898-19.301 49.102-7.3711 60.363-3.4805 12.531 4.3008 25.414 7.4844 38.504 9.5234v13.414c-14.551-2.0938-28.879-5.5234-42.805-10.242-16.742-5.7852-38.246-10.648-45.672-0.87109-15.359 19.66 19.559 86.273 42.395 123.9h-15.359c-38.398-63.895-52.43-112.79-37.633-132.25zm98.867 39.066v93.031h-23.297c-34.508-53.508-49.918-97.281-49.918-110.13 8.1484 0.48047 16.18 2.207 23.805 5.1211 15.969 5.6016 32.449 9.6172 49.203 11.98zm-121.6 4.4023c3.5547 15.656 8.7031 30.906 15.359 45.516-14.488-20.789-22.223-37.785-20.734-43.418 1.5742-0.97656 3.3047-1.6719 5.1211-2.0469zm-35.43-11.215c5.1211-11.469 16.18-18.637 33.434-21.605-0.61328 4.4258-0.83594 8.8984-0.66406 13.363-11.059 2.2539-17.816 6.6562-20.48 13.312-9.5742 22.172 23.242 66.816 47.719 94.773h-17.461c-35.789-42.855-51.301-79.055-42.547-99.844zm365.72 0c8.8047 20.789-6.707 56.984-42.496 99.637h-17.461c24.371-27.75 57.191-72.398 47.82-94.516-2.8164-6.6055-9.6758-11.059-20.48-13.262h0.003906c0.17578-4.4648-0.046875-8.9375-0.66797-13.363 17.152 2.9219 28.469 10.09 33.281 21.504zm-35.176 11.211v0.003907c1.8125 0.38672 3.543 1.0781 5.1211 2.0469 1.5352 5.6328-6.1953 22.527-20.48 43.266 6.6406-14.547 11.789-29.727 15.359-45.312zm-121.6-38.398 0.003906 0.003906c13.035-1.8516 25.906-4.7109 38.5-8.5508 11.211-3.8906 45.465-15.77 60.363 3.4805 5.1211 6.7578 6.9648 17.254 5.1211 31.129-4.3516 32.973-27.34 75.367-42.496 100.97h-15.359c22.938-37.582 57.805-104.19 42.547-123.8-7.4766-9.8828-28.98-5.1211-45.723 0.76953l0.003906-0.003906c-13.988 4.3125-28.305 7.4805-42.805 9.4727zm0 32.973 0.003906 0.003907c16.691-2.1953 33.164-5.793 49.254-10.754 7.6094-2.918 15.621-4.6445 23.754-5.1211 0 12.902-15.359 56.32-49.973 109.93h-23.039zm-26.059-126.46 16.078 16.078-3.7383 10.238c-3.8438 10.461-5.8008 21.52-5.7852 32.664v161.54h-13.109v-161.54c0.015626-11.145-1.9414-22.203-5.7852-32.664l-3.7383-10.238zm134.61 239.82v41.422h-269.16v-41.422z" fill="#443f3c"/>
</svg>
