<?xml version="1.0" encoding="UTF-8"?>
<svg width="512pt" height="512pt" version="1.1" viewBox="0 0 512 512" xmlns="http://www.w3.org/2000/svg">
 <g fill="#443f3c">
  <path d="m484.95 328h-14.008l-16-112h-16l-16-112h-158.94v-18.047l66.52-19.953c8.0664-2.4336 13.48-9.7109 13.48-18.129 0-8.1523-5.1914-15.367-12.938-17.953l-65.766-21.918h-17.297v96h-158.94l-16 112h-16l-16 112h-14.008l-19.055 38.113v137.89h496v-137.89zm-220.95-303.57 61.992 20.664c1.1992 0.39844 2.0078 1.5195 2.0078 2.7734 0 1.2969-0.83984 2.4258-2.0781 2.8008l-61.922 18.574zm190.78 303.57h-110.78v-96h97.062zm-174.78 0h-48v-40c0-13.23 10.77-24 24-24s24 10.77 24 24zm-24-80c-22.055 0-40 17.945-40 40v40h-32v-96h144v96h-32v-40c0-22.055-17.945-40-40-40zm-153.06-128h306.13l13.711 96h-333.55zm-32 112h97.062v96h-110.78zm49.062 256h-48v-56c0-13.23 10.77-24 24-24s24 10.77 24 24zm208-112v112h-32v-56c0-22.055-17.945-40-40-40s-40 17.945-40 40v56h-32v-112zm-48 112h-48v-56c0-13.23 10.77-24 24-24s24 10.77 24 24zm160 0h-48v-56c0-13.23 10.77-24 24-24s24 10.77 24 24zm16 0v-56c0-22.055-17.945-40-40-40s-40 17.945-40 40v56h-32v-112h96v-16h-368v16h96v112h-32v-56c0-22.055-17.945-40-40-40s-40 17.945-40 40v56h-32v-112h32v-16h-27.055l8-16h438.11l8 16h-27.059v16h32v112z"/>
  <path d="m424 312v-64h-64v64zm-48-48h32v32h-32z"/>
  <path d="m88 248v64h64v-64zm48 48h-32v-32h32z"/>
  <path d="m120 200h80v-64h-80zm16-48h48v32h-48z"/>
  <path d="m216 200h80v-64h-80zm16-48h48v32h-48z"/>
  <path d="m312 200h80v-64h-80zm16-48h48v32h-48z"/>
 </g>
</svg>
