<?xml version="1.0" encoding="UTF-8"?>
<svg width="512pt" height="512pt" version="1.1" viewBox="0 0 512 512" xmlns="http://www.w3.org/2000/svg">
 <g fill="#443f3c">
  <path d="m48 168h16v24h-16z"/>
  <path d="m80 168h16v24h-16z"/>
  <path d="m56 296h16v24h-16z"/>
  <path d="m56 336h16v16h-16z"/>
  <path d="m136 400h16v64h-16z"/>
  <path d="m168 400h16v64h-16z"/>
  <path d="m136 296h16v56h-16z"/>
  <path d="m168 296h16v56h-16z"/>
  <path d="m240 216h16v32h-16z"/>
  <path d="m272 216h16v32h-16z"/>
  <path d="m240 296h16v56h-16z"/>
  <path d="m272 296h16v56h-16z"/>
  <path d="m408 296h16v56h-16z"/>
  <path d="m376 296h16v56h-16z"/>
  <path d="m408 400h16v64h-16z"/>
  <path d="m376 400h16v64h-16z"/>
  <path d="m488 480v-250.1l-64-112v-34.797l-16-8v-27.102h-16v27.102l-16 8v34.801l-33.199 58.098h-174.8v-16h-16v22l-32 58.699v-22.699l8-16v-60l-16.301-30h8.3008v-16h-17.102l-22.898-42v-38h-16v38l-22.898 42h-17.102v16h8.3008l-16.301 30v59.898l8 16v262.1h-8v16h480v-16zm-96-387.1 8-4 8 4v19.102h-16zm-3.3984 35.102h22.699l54.898 96h-35.301l-22.898-42v-22h-16v22l-22.898 42h-35.301zm45.898 136h-69l34.5-63.301zm-274.5-63.301 34.5 63.301h-69zm-88-128 34.5 63.301h-69zm32 407.3h-64v-96h64zm0-112h-64v-88h64zm0-104h-64v-40h64zm8-65.898-4.8984 9.8984h-70.203l-4.8984-9.8984v-46.102h80zm88 281.9h-80v-96h80zm0-112h-80v-88h80zm80 112h-32v-48c0-8.8008 7.1992-16 16-16s16 7.1992 16 16zm32 0h-16v-48c0-17.699-14.301-32-32-32s-32 14.301-32 32v48h-16v-96h96zm0-112h-96v-88h96zm0-104h-99.301l-39.301-72h160.2l-21.598 37.898zm32 216h-16v-96h16zm0-112h-16v-128h32.301l-16.301 30zm96 112h-80v-96h80zm0-112h-80v-88h80zm32 112h-16v-96h16zm0-112h-16v-98l-16.301-30h32.301z"/>
 </g>
</svg>
