<?xml version="1.0" encoding="UTF-8"?>
<svg width="512pt" height="512pt" version="1.1" viewBox="0 0 512 512" xmlns="http://www.w3.org/2000/svg">
 <g fill="#443f3c">
  <path d="m117.35 477.75c14.977 5.0547 30.68 7.6172 46.488 7.5781 29.031 0 59.801-8.2422 92.16-24.523 32.203 16.281 62.977 24.523 92.16 24.523 15.859 0.054687 31.617-2.5039 46.645-7.5781 64.77-21.812 94.465-82.535 95.691-85.094 1.1055-2.3203 0.31641-5.1055-1.8438-6.5-7.7617-4.7344-15.918-8.793-24.371-12.137 10.871-21.848 17.902-45.402 20.789-69.633 0.20703-2.4727-1.3906-4.7383-3.7891-5.375-23.586-6.2734-48.078-8.4375-72.398-6.3984 0.023438-9.0938-0.73047-18.172-2.2539-27.137-0.49219-2.4219-2.6484-4.1484-5.1172-4.0977-15.898 1.5781-31.516 5.2617-46.441 10.957-2.8594-24.172-9.6211-47.723-20.016-69.734-1.2773-2.4219-4.2305-3.4141-6.7109-2.2539-8.2695 4.2188-16.164 9.1367-23.602 14.695-11.723-23.258-27.301-44.363-46.078-62.41-1.9414-1.7305-4.8711-1.7305-6.8125 0-18.762 18.062-34.34 39.16-46.078 62.41-7.3398-5.6133-15.152-10.582-23.348-14.848-2.4805-1.1641-5.4336-0.17188-6.707 2.2539-10.312 21.875-17.051 45.266-19.969 69.273-14.551-5.4453-29.75-8.9727-45.211-10.496-2.5664-0.17969-4.8672 1.5742-5.375 4.0977-1.5234 8.9609-2.2773 18.043-2.2539 27.133-24.262-1.9648-48.68 0.25391-72.191 6.5547-2.3359 0.69922-3.8594 2.9453-3.6328 5.375 2.8867 24.23 9.918 47.785 20.785 69.633-8.4531 3.3438-16.605 7.4023-24.371 12.137-2.1602 1.3945-2.9492 4.1797-1.8438 6.5 1.2305 2.5586 30.926 63.285 95.695 85.094zm361.52-85.348c-7.8359 13.824-36.406 58.469-87.605 75.672-30.004 10.238-62.824 9.1641-97.844-2.5586 6.043 0.46094 12.031 0.71875 17.867 0.71875 40.961 0 75.52-10.598 103.68-31.797h0.003906c18.148-13.805 33.215-31.242 44.234-51.203 6.7344 2.6562 13.301 5.7188 19.664 9.168zm-81.613-120.27c0.84375 7.1719 1.2539 14.387 1.2266 21.605-14.48 1.9492-28.66 5.7344-42.188 11.266 0.23438-7.3086 0.082031-14.625-0.46094-21.914 13.348-5.2148 27.242-8.8906 41.422-10.957zm-41.727 44.441c49.922-22.426 103.53-12.391 118.63-8.8047-2.457 17-14.898 80.691-65.383 118.58-35.379 26.523-82.227 35.277-139.27 26.113 60.367-40.707 81.664-91.035 86.016-135.89zm-27.547-104.6c11.16 24.168 54.324 134.86-44.699 217.34 31.18-43.059 46.078-87.656 43.621-133.12-1.3242-24.957-7.3711-49.438-17.816-72.141 6.0195-4.4492 12.332-8.4844 18.895-12.082zm-72.602-48.129c12.902 13.16 58.008 63.797 61.441 133.12 2.457 51.199-18.176 102.09-61.441 150.79-43.164-48.691-63.797-99.586-61.34-150.79 3.2773-69.43 48.387-120.07 61.34-133.12zm-72.652 48.129c6.5664 3.6484 12.879 7.7344 18.891 12.234-10.422 22.715-16.469 47.188-17.816 72.141-2.2031 45.312 12.441 89.906 43.621 133.12-99.02-82.637-55.809-193.33-44.695-217.5zm-67.996 60.16c13.734 1.9766 27.199 5.4961 40.141 10.496-0.54297 7.2578-0.69531 14.535-0.46094 21.809-13.168-5.207-26.922-8.8008-40.957-10.699-0.007813-7.2227 0.41797-14.438 1.2773-21.605zm-76.801 35.84c15-3.5859 67.738-13.465 117.3 8.1914 4.1992 45.055 25.602 95.742 86.324 136.65-56.32 8.9102-103.07 0-138.24-26.266-50.59-38.094-63.031-101.79-65.488-118.79zm14.949 75.469h0.003906c11.02 19.957 26.09 37.398 44.234 51.199 28.16 21.195 62.926 31.797 103.68 31.797 5.8359 0 11.828 0 17.867-0.71875-35.02 11.727-67.84 12.645-97.844 2.5586-51.297-17.406-79.867-62.051-87.703-75.875 6.3633-3.4492 12.93-6.5117 19.664-9.168z"/>
  <path d="m231.48 88.574-9.832 30.309v0.003907c-0.69531 2.1094 0.050781 4.4258 1.8438 5.7344 1.8008 1.3164 4.2422 1.3164 6.043 0l25.602-18.738 25.602 18.738h-0.003906c1.7891 1.2891 4.1992 1.2891 5.9883 0 1.793-1.3086 2.5391-3.625 1.8438-5.7344l-9.4219-30.312 25.602-18.738c1.7578-1.2617 2.5312-3.4922 1.9336-5.5703-0.59766-2.0781-2.4375-3.5586-4.5977-3.6953h-32.051l-9.8281-30.312c-0.71484-2.1953-2.8125-3.6445-5.1211-3.5312-2.2148 0-4.1758 1.4258-4.8633 3.5312l-9.5742 30.312h-31.949c-2.2148 0.011719-4.168 1.4492-4.8438 3.5586-0.67578 2.1055 0.082032 4.4102 1.875 5.707zm12.852-17.766c2.3086 0.11328 4.4062-1.332 5.1172-3.5312l6.1445-18.895 6.0938 18.895c0.71484 2.1992 2.8125 3.6445 5.1211 3.5312h19.812l-16.027 11.672 0.003906 0.003906c-1.8125 1.293-2.5781 3.6133-1.8945 5.7344l6.1445 18.84-16.078-11.672c-1.7891-1.293-4.2031-1.293-5.9922 0l-16.078 11.672 6.1445-18.84c0.625-2.1914-0.27344-4.5273-2.1992-5.7344l-16.078-11.672z"/>
  <path d="m114.43 128.97 25.602 6.1953 1.9961 26.164h-0.003906c0.19141 2.6875 2.4297 4.7656 5.1211 4.7617 1.7812-0.007812 3.4258-0.9375 4.3516-2.457l13.773-22.375 25.602 6.1953c2.1328 0.51172 4.3594-0.39453 5.5273-2.2539 1.1562-1.8867 0.97266-4.3047-0.46094-5.9922l-17-20.02 13.773-22.375 0.003906 0.003906c1.1797-1.8984 0.99219-4.3438-0.46094-6.043-1.4453-1.6719-3.7969-2.2305-5.8398-1.3828l-24.27 9.9844-17.148-20.02c-1.4336-1.6914-3.793-2.2656-5.8438-1.4258-2.0547 0.83984-3.332 2.9023-3.168 5.1133l2.25 26.215-24.27 9.9844h0.003906c-2.0664 0.83203-3.3594 2.9023-3.1953 5.125 0.16406 2.2227 1.7461 4.082 3.9102 4.6016zm30.719-11.672c2.0352-0.85547 3.293-2.9219 3.1211-5.1211l-1.0742-14.184 9.2148 10.855c1.4336 1.6875 3.7891 2.2695 5.8398 1.4336l13.211-5.4258-7.4766 12.082c-1.0781 1.918-0.80859 4.3086 0.66406 5.9375l9.2148 10.805-14.027-3.2266c-2.1641-0.52734-4.418 0.40625-5.582 2.3047l-7.4766 12.082-1.0742-14.184v0.003906c-0.17969-2.1992-1.7461-4.0352-3.8906-4.5586l-13.617-3.2266z"/>
  <path d="m44.031 213.4 26.164-2.3555 10.238 24.113c0.80469 1.8945 2.6562 3.1211 4.7109 3.125h0.46094c2.2305-0.19531 4.0742-1.8086 4.5586-3.9922l5.8359-25.602 26.164-2.4062c2.1914-0.21875 4-1.8125 4.4844-3.9609 0.48828-2.1484-0.45313-4.3672-2.3359-5.5117l-22.578-13.465 5.8359-25.602c0.48438-2.168-0.48828-4.4023-2.4062-5.5273-1.8984-1.1445-4.3125-0.9375-5.9883 0.51172l-19.762 17.305-22.578-13.414h-0.003907c-1.8984-1.1445-4.3164-0.9375-5.9922 0.51172-1.6758 1.4648-2.2148 3.8438-1.3281 5.8867l10.238 24.113-19.559 17.359c-1.6328 1.4688-2.1445 3.8164-1.2773 5.832 0.87109 2.0156 2.9297 3.2539 5.1172 3.0781zm25.602-20.992c1.6758-1.4648 2.2148-3.8438 1.332-5.8867l-5.6328-13.055 12.238 7.2695-0.003906-0.003906c1.8984 1.1445 4.3164 0.9375 5.9922-0.51172l10.699-9.3711-3.125 13.875 0.003907 0.003907c-0.49219 2.1562 0.45703 4.3906 2.3555 5.5273l12.238 7.2695-14.184 1.2812c-2.2109 0.21484-4.0273 1.8281-4.5078 3.9961l-3.1758 13.875-5.582-13.105 0.003906-0.003907c-0.81641-1.8711-2.668-3.0781-4.7109-3.0703h-0.46094l-14.184 1.2812z"/>
  <path d="m319.9 147.46 25.602-6.1953 13.668 22.578c0.93359 1.5352 2.6055 2.4688 4.4023 2.457h1.1797c2.1602-0.52734 3.7305-2.3906 3.8906-4.6055l1.9961-26.164 25.602-6.1953c2.1641-0.51953 3.7461-2.3828 3.9102-4.6016 0.16406-2.2227-1.1289-4.2969-3.1953-5.1289l-24.27-9.9844 1.9961-26.215v0.003906c0.16406-2.2109-1.1133-4.2773-3.1641-5.1133-2.0547-0.83984-4.4102-0.26562-5.8438 1.4258l-17 20.02-24.32-9.9844c-2.0391-0.84766-4.3945-0.28906-5.8359 1.3828-1.457 1.6953-1.6445 4.1406-0.46094 6.0391l13.773 22.375-17 20.02c-1.4297 1.6875-1.6172 4.1055-0.46094 5.9922 1.2656 1.7227 3.4727 2.4805 5.5312 1.8945zm22.578-30.719-7.4766-12.082 13.16 5.6289c2.0508 0.83594 4.4062 0.25391 5.8359-1.4336l9.2148-10.855-1.0742 14.184c-0.16406 2.2148 1.1172 4.2812 3.1758 5.1211l13.156 5.5781-13.824 3.3789c-2.1602 0.50391-3.7539 2.3438-3.9414 4.5586l-1.0742 14.184-7.4258-12.082v-0.003907c-0.93359-1.5352-2.6055-2.4688-4.4023-2.457h-1.1758l-13.824 3.3281 9.2148-10.906c1.4102-1.6758 1.5938-4.0625 0.46094-5.9375z"/>
  <path d="m408.78 183.35-22.527 13.465c-1.8594 1.168-2.7656 3.3945-2.2539 5.5312 0.50391 2.1602 2.3438 3.7539 4.5586 3.9414l26.164 2.4062 5.7852 25.602h-0.003906c0.48438 2.1836 2.332 3.7969 4.5586 3.9922h0.46094c2.0547-0.003906 3.9102-1.2305 4.7109-3.125l10.238-24.113 26.164 2.3555c2.1875 0.17969 4.25-1.0547 5.1211-3.0742 0.85938-2.0273 0.32031-4.3789-1.332-5.8359l-19.867-17.355 10.238-24.113 0.003906-0.003907c0.85938-2.0352 0.31641-4.3906-1.3477-5.8477-1.6641-1.4531-4.0742-1.6758-5.9766-0.55078l-22.371 13.414-19.762-17.305h-0.003906c-1.6875-1.4883-4.1484-1.7031-6.0664-0.52734-1.918 1.1758-2.8398 3.4688-2.2773 5.6445zm10.855 1.3828-3.1758-13.875 10.699 9.3711v-0.003906c1.6758 1.4492 4.0938 1.6562 5.9922 0.51172l12.289-7.2695-5.6328 13.055v0.003907c-0.88281 2.043-0.34766 4.4219 1.332 5.8867l10.754 9.3711-14.184-1.2812h-0.003907c-2.1875-0.17969-4.2461 1.0547-5.1172 3.0703l-5.6328 13.105-3.125-13.875v0.003907c-0.48047-2.1836-2.3281-3.8008-4.5547-3.9961l-14.184-1.2812 12.238-7.2695c1.957-1.0938 2.9727-3.3359 2.5078-5.5273z"/>
 </g>
</svg>
