<?xml version="1.0" encoding="UTF-8"?>
<svg width="512pt" height="512pt" version="1.1" viewBox="0 0 512 512" xmlns="http://www.w3.org/2000/svg">
 <g fill="#443f3c">
  <path d="m485.58 153.24c-17.562-11.98-40.961-25.09-66.559-19.918h-0.003907c-9.3086 1.9492-18.062 5.9727-25.598 11.777l-0.5625 0.41016c-12.773 10.387-23.234 23.328-30.723 37.988-6.5664 13.324-10.777 27.684-12.441 42.445-1.1797 0.84766-1.9453 2.1602-2.1016 3.6055-0.15625 1.4453 0.3125 2.8906 1.2812 3.9727-0.92188 10.238-1.125 20.48-1.2812 29.902-0.51172 28.773-1.0234 53.914-20.48 70.965l0.003907-0.003906c-6.8203-17.02-15.203-33.371-25.039-48.844-25.035-41.27-103.32-103.68-121.75-118.12 4.6523-7.8008 8.1055-16.262 10.238-25.09 13.062-2.7852 23.969-11.711 29.285-23.961 16.078-35.176-2.6094-54.734-3.4297-55.551-0.34766-0.34766-0.74609-0.64062-1.1758-0.87109h-0.71875c-0.47656-0.17578-0.97656-0.28125-1.4844-0.30859h-0.25781 0.003906c-0.57812 0.007813-1.1484 0.10938-1.6914 0.30859h-0.41016l-0.61328 0.25781v-0.003907c-13.973 7.8281-28.625 14.371-43.777 19.559-9.3203-4.5586-47.359-20.121-98.406 0-6.0938 2.6641-24.832-10.238-38.605-23.5-0.16406-0.11328-0.33594-0.21484-0.51172-0.30859-0.34375-0.26953-0.72266-0.49219-1.125-0.66406l-0.82031-0.25781c-0.44141-0.054687-0.89062-0.054687-1.332 0h-0.82031 0.003907c-0.46484 0.10938-0.91406 0.28125-1.332 0.51172l-0.71875 0.35938c-8.0625 6.6836-13.695 15.844-16.008 26.059-2.3164 10.215-1.1875 20.91 3.2109 30.414 10.648 22.941 23.398 26.934 31.129 26.934 2.0469 17.461 10.754 37.734 35.84 53.762v-0.003907c-1.7461 26.855-0.023437 53.82 5.1211 80.23 3.2578 12.887 7.6797 25.445 13.207 37.531-4.7109 23.039 6.7578 66.047 11.215 81.406-8.2891 2.0391-15.512 7.1055-20.25 14.203s-6.6484 15.711-5.3516 24.148c0.40625 2.5039 2.582 4.332 5.1211 4.3008h26.625c-0.47266 3.4062-0.37109 6.8672 0.30469 10.238 0.57812 2.3398 2.7109 3.9609 5.1211 3.8906h126.46c6.1641 1.418 12.465 2.1562 18.789 2.2031 17.941 0.23047 35.312-6.2734 48.691-18.227 9.0625-2.0469 55.602-16.129 78.594-95.281v-0.003906c7.3398-27.629 11.059-56.094 11.059-84.684 1.2812-38.809 2.0469-62.258 35.84-69.633 5.1211-0.87109 7.4258 3.6367 11.52 17.512l0.82031 2.7656c3.9414 13.055 9.832 28.98 27.75 28.98h0.82031c12.852-0.35938 22.629-8.6523 26.777-22.785 4.8633-18.844-0.66797-45.824-19.457-58.625zm5.4258 21.762c-2.4062 6.043-11.57 24.574-33.176 24.113-1.2773-4.7227-2.9922-9.3164-5.1211-13.723 7.4766-7.5781 8.1914-24.371 7.832-35.176v0.003906c6.6836 3.3359 13.117 7.1523 19.254 11.414 4.8125 3.4297 8.6719 8.0312 11.211 13.363zm-135.83 127.07c1.457-8.9375 2.2578-17.973 2.4062-27.031 10.238 3.125 25.602 9.8828 30.719 20.48-0.97266 8.5977-2.3711 17.141-4.1992 25.598-7.8203-8.7578-17.789-15.324-28.926-19.047zm3.7891-66.203c9.832 1.4844 27.801 5.8867 31.949 18.586-0.25781 8.3438-0.5625 17.102-1.2305 26.215v0.003907c-9.2773-7.6836-20.133-13.227-31.797-16.23v-0.87109c0.15625-8.9609 0.51172-18.227 1.0781-27.496zm32.613 2.2539v0.003906c-9.2148-6.8633-20.074-11.172-31.488-12.496 1.4648-11.723 4.6758-23.164 9.5234-33.945 8.8047 1.8438 24.168 6.9648 26.574 16.23-2.7852 9.9102-4.332 20.125-4.6094 30.414zm-180.94-124.16c-3.4922 7.9062-9.9727 14.109-18.023 17.254 0.78516-6.2656 1.043-12.586 0.76953-18.895 0-1.0742 2.8672-3.2773 5.1211-5.1211 7.957-5.457 13.938-13.34 17.047-22.477 1.3555 10.02-0.35938 20.211-4.9141 29.238zm-191.49-3.8398c-4.4609-9.0195-4.9258-19.5-1.2812-28.879 0.26172 1.3555 0.62109 2.6914 1.0781 3.9922 3.5312 9.7266 12.031 17.512 25.602 23.09l-0.003906 0.003906c-2.2227 7.3789-3.4258 15.027-3.582 22.73-4.8633-0.15234-13.621-3.0703-21.812-20.938zm31.641 25.602v-0.46094-0.003907c-0.41797-9.4688 1.1523-18.922 4.6094-27.75 0.56641-1.2969 0.56641-2.7734 0.003906-4.0742-0.5625-1.3008-1.6406-2.3086-2.9727-2.7852-12.953-4.6094-20.992-10.855-23.859-18.688-1.2812-3.5977-1.5273-7.4844-0.71875-11.215 10.648 9.4727 31.539 25.602 43.93 20.48 52.84-20.48 91.188 0.51172 91.547 0.71875 1.2773 0.73047 2.8047 0.88281 4.1992 0.40625 13.59-4.6719 26.863-10.23 39.73-16.637-1.2461 9.7578-6.7617 18.461-15.055 23.754-4.4531 3.4805-9.0117 7.0664-9.0625 13.312 2.4062 58.523-42.238 81.922-61.441 89.602h0.003906c-3.7539 1.4453-7.9336 1.2969-11.57-0.41016-5.6328-2.6094-13.262-6.707-22.734-12.289-28.059-16.129-35.789-37.172-36.66-53.965zm39.781 290.71c0.30859-7.0664 3.5859-20.172 23.195-23.656v-0.003907c1.4961-0.24609 2.8047-1.1406 3.5742-2.4453 0.77344-1.3047 0.92578-2.8828 0.42188-4.3125-6.4414-20.297-10.832-41.188-13.109-62.359 15.055 31.59 33.176 64.102 41.422 78.539-12.902 0.66406-22.375 4.5039-28.16 11.52-0.67969 0.87891-1.293 1.8008-1.8438 2.7656zm126.88 14.234-45.258-0.003906c1.1758-6.5547 5.1211-15.82 23.449-17.973 6.1523 7.2305 13.535 13.312 21.809 17.973zm19.098-2.457c-23.09-8.0898-40.242-24.984-42.648-41.984v-0.003907c-2.707-19.637 2.4609-39.547 14.371-55.391 11.91-15.848 29.605-26.34 49.219-29.191 2.8281-0.39844 4.8008-3.0117 4.4023-5.8398-0.39453-2.8281-3.0078-4.7969-5.8359-4.4023-22.324 3.2344-42.461 15.176-56.008 33.211-13.547 18.039-19.402 40.703-16.285 63.047 0.91016 5.543 2.8359 10.871 5.6836 15.719-15.871 3.2266-24.883 12.441-27.188 27.289h-40.09c-0.003906-3.7148 1.2422-7.3203 3.5312-10.242 4.8125-5.7852 14.797-8.5 28.824-7.7305h0.25781c0.80078-0.003906 1.5898-0.19922 2.3047-0.5625 0.47656-0.25391 0.90625-0.58203 1.2812-0.97266l0.71875-0.82031h-0.003906c0.14453-0.26172 0.26172-0.53516 0.35938-0.82031v-0.30859 0.003906c0.09375-0.55859 0.09375-1.1328 0-1.6914v-0.41016c-0.066406-0.49219-0.20312-0.97656-0.41016-1.4336 0 0-38.859-78.645-20.48-145.1v0.003906c0.76562-2.7305-0.82812-5.5625-3.5586-6.3242-2.7266-0.76562-5.5586 0.82812-6.3242 3.5586-9.0117 32.41-5.5312 66.559 0.97266 94.414-16.383-31.438-33.844-68.098-38.195-88.523v-0.003906c-4.5977-23.77-6.3164-48.008-5.1172-72.191 7.5273 4.3516 13.926 7.7305 18.84 10.238 3.3203 1.5469 6.9375 2.3516 10.598 2.3555 3.0664-0.003907 6.1055-0.57422 8.9609-1.6875 19.328-7.3008 36.328-19.684 49.203-35.84 18.945 14.898 95.23 76.133 119.09 115h0.003906c10.672 16.641 19.512 34.395 26.367 52.938 0.074219 0.30078 0.17578 0.58984 0.30469 0.87109 9.832 29.285 9.8828 58.676-14.594 81.922-16.895 15.562-42.75 19.965-68.605 10.906zm89.191-20.172c13.977-22.477 12.852-48.23 5.1211-73.113v-0.007812c2.5117-1.9727 4.8711-4.1289 7.0664-6.4492 7.0664 4.7109 23.039 17.305 26.777 36.453-8.7852 17.676-22.266 32.59-38.965 43.109zm45.621-56.32v-0.007813c-5.9297-12.621-15.211-23.371-26.832-31.078 3.6875-5.6484 6.4844-11.832 8.2969-18.328 7.7812 2.918 22.68 10.238 27.801 22.938 0 0.51172 0 1.0234-0.41016 1.5352-2.4297 8.4375-5.3867 16.715-8.8555 24.781zm29.953-164.91-0.003906-0.007812c-7.3984-7.1914-16.711-12.098-26.828-14.133 0.71875-1.1758 1.3828-2.3555 2.1523-3.5312 5.375-8.5078 11.941-16.195 19.504-22.836 9.5742 7.9375 20.48 19.918 18.996 26.574-5.6484 3.4102-10.391 8.1367-13.824 13.773zm33.535-21.453-0.003906-0.007813c-3.2852 0.73438-6.5195 1.6953-9.6758 2.8672-2.1523-10.855-13.16-21.914-20.48-28.16 5.043-3.1836 10.605-5.4531 16.438-6.707 9.7148-1.7422 19.719-0.85938 28.977 2.5625 0.97266 12.953-0.30859 26.93-3.7891 31.59-3.3594-2.2734-7.4961-3.0859-11.469-2.2539zm59.75 33.477c-0.80469 4.0938-2.9258 7.8125-6.043 10.586-3.1172 2.7734-7.0547 4.4492-11.215 4.7734-8.7031 0-12.75-5.1211-16.281-14.949 14.125-0.97266 26.914-8.6914 34.355-20.734 1.2344 6.75 0.95703 13.695-0.81641 20.324z"/>
  <path d="m117.76 187.34c1.3555 0 2.6602-0.53906 3.6172-1.5 0.96094-0.95703 1.5-2.2617 1.5-3.6172v-27.957c0-2.8281-2.293-5.1211-5.1172-5.1211-2.8281 0-5.1211 2.293-5.1211 5.1211v28.008c0.027344 2.8047 2.3125 5.0664 5.1211 5.0664z"/>
 </g>
</svg>
