<?xml version="1.0" encoding="UTF-8"?>
<svg width="512pt" height="512pt" version="1.1" viewBox="0 0 512 512" xmlns="http://www.w3.org/2000/svg">
 <g fill="#443f3c">
  <path d="m480 480v-24l-17.602-88h-14.398v-167.2l14.398-80.801h9.6016v-16h-8v-18.398c0-16-9.6016-31.199-24.801-36.801l-15.199-6.4023v-26.398h-16v26.398l-15.199 5.6016c-15.199 6.3984-24.801 21.602-24.801 37.602v18.398h-8v16h9.6016l14.398 80.801v49.602c-31.199-32-75.199-50.398-120-50.398h-16c-92.801 0-168 75.199-168 168l-30.398-0.003906-17.602 86.398v25.602h-16v16h480v-16zm-362.4-181.6-8.8008 8.8008c3.1992-8 8-15.199 12-22.398l27.199 27.199-32 32h-18.398c1.6016-11.199 4.8008-22.398 9.6016-33.602l15.199 15.199 11.199-11.199zm42.398 24.801 20.801 20.801h-41.602zm43.199 20.801-32-32 36.801-36.801 36.801 36.801-32 32zm52.801-116.8 36.801 36.801-36.801 36.801-36.801-36.801zm-48 25.602-23.199-23.199c18.398-8.8008 39.199-12.801 59.199-13.602zm59.199-36.801c20.801 0.80078 40.801 4.8008 59.199 13.602l-22.398 23.199zm-11.199 107.2 20.801 20.801h-41.602zm43.199 20.801-32-32 36.801-36.801 36.801 36.801-32 32zm52.801-20.801 20.801 20.801h-41.602zm43.199 20.801-32-32 27.199-27.199c12 17.602 20 38.398 23.199 59.199zm-11.199-258.4c0-9.6016 5.6016-18.398 15.199-22.398l16.801-6.4023 16.801 6.3984c8.8008 4 15.199 12.801 15.199 22.398v18.402h-64zm1.6016 34.398h60.801l-14.402 78.398v169.6c0-35.199-11.199-69.602-32-98.398v-69.602zm-4 151.2-29.602 29.602-36.801-36.801 26.398-26.398c15.203 8.7969 28.801 20 40.004 33.598zm-211.2-33.598 26.398 26.398-36.797 36.801-29.602-29.602c11.203-13.598 24.801-24.801 40-33.598zm-73.598 122.4h319.2c0 2.3984 0.80078 5.6016 0.80078 8h-320.8c0-2.3984 0-5.6016 0.80078-8zm255.2 49.602 7.1992 70.398h-16l-6.3984-65.602c-0.80078-8-8-14.398-16-14.398h-25.602c-8 0-15.199 6.3984-16 14.398l-6.3984 65.602h-8.8008v-96h81.602zm-24.801 70.398h-38.398l6.3984-64h25.602zm-94.398-65.602c-0.80078-8-8-14.398-16-14.398h-25.602c-8 0-15.199 6.3984-16 14.398l-6.3984 65.602h-16l7.1992-70.398 6.3984-25.602h81.602v96h-8.8008zm-9.6016 65.602h-38.398l6.3984-64h25.602zm-175.2-23.199 14.398-72.801h87.199l-5.5977 22.398-7.1992 73.602h-1.6016l-6.3984-65.602c-0.80078-8-8-14.398-16-14.398h-25.602c-8 0-15.199 6.3984-16 14.398l-6.3984 65.602h-16.801zm71.199 23.199h-38.398l6.3984-64h25.602zm273.6 0 6.3984-64h25.602l6.3984 64zm54.398 0-6.3984-65.602c-0.80078-8-8-14.398-16-14.398h-25.602c-8 0-15.199 6.3984-16 14.398l-6.3984 65.602h-1.6016l-7.1992-72.801-5.6016-23.199h87.199l14.398 72.801 0.003906 23.199z"/>
  <path d="m408 136h16v128h-16z"/>
  <path d="m240 144h72c13.602 0 24-10.398 24-24s-10.398-24-24-24c-4.8008 0-8-3.1992-8-8 0-13.602-10.398-24-24-24h-8c-13.602 0-24 10.398-24 24 0 4.8008-3.1992 8-8 8-13.602 0-24 10.398-24 24s10.398 24 24 24zm0-32c13.602 0 24-10.398 24-24 0-4.8008 3.1992-8 8-8h8c4.8008 0 8 3.1992 8 8 0 13.602 10.398 24 24 24 4.8008 0 8 3.1992 8 8s-3.1992 8-8 8h-72c-4.8008 0-8-3.1992-8-8s3.1992-8 8-8z"/>
  <path d="m242.42 261.74 11.312-11.312 15.84 15.84-11.312 11.312z"/>
  <path d="m290.42 309.74 11.312-11.312 15.84 15.84-11.312 11.312z"/>
  <path d="m338.42 261.74 11.312-11.312 15.84 15.84-11.312 11.312z"/>
  <path d="m194.42 309.74 11.312-11.312 15.84 15.84-11.312 11.312z"/>
  <path d="m146.42 261.74 11.312-11.312 15.84 15.84-11.312 11.312z"/>
  <path d="m378.42 309.74 11.312-11.312 15.84 15.84-11.312 11.312z"/>
  <path d="m84 144h108v-16h-108c-6.3984 0-12-5.6016-12-12s5.6016-12 12-12h20v-16h-20c-15.199 0-28 12.801-28 28s12.801 28 28 28z"/>
  <path d="m44 216h20v-16h-20c-6.3984 0-12-5.6016-12-12s5.6016-12 12-12h100v-16h-100c-15.199 0-28 12.801-28 28s12.801 28 28 28z"/>
  <path d="m160 160h16v16h-16z"/>
 </g>
</svg>
