<?xml version="1.0" encoding="UTF-8"?>
<svg width="512pt" height="512pt" version="1.1" viewBox="0 0 512 512" xmlns="http://www.w3.org/2000/svg">
 <g fill="#443f3c">
  <path d="m149.8 286.65h8.2266c4.2812 0 7.7617-3.4805 7.7617-7.7617v-8.2266c0-4.2812-3.4805-7.7617-7.7617-7.7617h-8.2266c-4.2812 0-7.7617 3.4805-7.7617 7.7617v8.2266c0 4.2812 3.4805 7.7617 7.7617 7.7617z"/>
  <path d="m149.39 301.4h9.043v9.043h-9.043z"/>
  <path d="m149.39 319.93h9.043v9.043h-9.043z"/>
  <path d="m91.059 273.36h7.2578c4.1172 0 7.4648-3.3477 7.4648-7.4648v-7.2617c0-4.1172-3.3477-7.4648-7.4648-7.4648h-7.2578c-4.1172 0-7.4648 3.3477-7.4648 7.4648v7.2617c0 4.1172 3.3477 7.4648 7.4648 7.4648z"/>
  <path d="m58.637 273.36h7.2578c4.1172 0 7.4648-3.3477 7.4648-7.4648v-7.2617c0-4.1172-3.3477-7.4648-7.4648-7.4648h-7.2578c-4.1172 0-7.4648 3.3477-7.4648 7.4648v7.2617c0 4.1172 3.3477 7.4648 7.4648 7.4648z"/>
  <path d="m60.414 294.65h9.043v9.043h-9.043z"/>
  <path d="m60.414 313.18h9.043v9.043h-9.043z"/>
  <path d="m86.148 294.65h9.043v9.043h-9.043z"/>
  <path d="m86.148 313.18h9.043v9.043h-9.043z"/>
  <path d="m353.97 286.65h8.2227c4.2812 0 7.7617-3.4805 7.7617-7.7617v-8.2266c0-4.2812-3.4805-7.7617-7.7617-7.7617h-8.2227c-4.2773 0-7.7656 3.4805-7.7656 7.7617v8.2266c0.003907 4.2812 3.4844 7.7617 7.7656 7.7617z"/>
  <path d="m353.56 301.4h9.043v9.043h-9.043z"/>
  <path d="m353.56 319.93h9.043v9.043h-9.043z"/>
  <path d="m465.36 192.88c-0.85156-0.71094-1.3359-1.75-1.3359-2.8555v-9.8984c0-6.7617-4.1328-12.57-10-15.047v-6.2305h5.6406v-10.461h-5.6875c-0.25781-8.5391-7.2422-15.414-15.844-15.414-8.6016 0-15.586 6.8789-15.844 15.414h-6.9414v10.461h6.8945v6.8555c-5.2305 2.7227-8.8438 8.1328-8.8438 14.422v7.5273c0 1.3711-0.75391 2.6289-1.9648 3.2734-14.625 7.8242-24.055 22.98-24.609 39.562l-0.15234 4.6523h-1.9141c-3.2305 0-5.8594-2.6289-5.8594-5.8594v-6.2969c0-9.8242-7.9922-17.82-17.82-17.82-9.8242 0-17.816 7.9922-17.816 17.82v6.2969c0 3.2305-2.6289 5.8594-5.8594 5.8594h-9.3438c-1.9883-29.031-4.6484-60.219-8.2148-91.695-0.69531-6.1562-5.8945-10.801-12.098-10.801-5.7266 0-10.73 4.0664-11.906 9.6719l-3.2383 15.801c-0.99609-8.6445-2.9648-24.828-4.9219-36.07-0.85547-4.9062-4.5664-8.6445-9.2539-9.7344-0.25391-2.3242-0.51562-4.6133-0.78516-6.8438h8.0547v-10.461h-9.4297c-0.32031-2.2734-0.64062-4.4414-0.94922-6.4844h5.8594v-10.461h-7.5508c-0.035156-0.20703-0.074219-0.4375-0.10938-0.63672h0.003906c-1.4766-8.543-8.8438-14.742-17.52-14.742s-16.043 6.1992-17.52 14.746c-0.035157 0.19922-0.074219 0.42969-0.10938 0.63672h-7.5508v10.461h5.8594c-0.3125 2.043-0.62891 4.2109-0.94922 6.4844h-9.4297v10.461h8.0547c-0.26953 2.2305-0.53516 4.5156-0.78516 6.8438-4.6836 1.0898-8.3945 4.8281-9.2539 9.7344-1.9531 11.242-3.9219 27.426-4.8594 36.047l-3.3047-15.77c-1.168-5.6055-6.1758-9.6758-11.902-9.6758-6.1992 0-11.398 4.6406-12.102 10.801-3.5625 31.477-6.2227 62.66-8.2109 91.695h-9.3438c-3.2305 0-5.8594-2.6289-5.8594-5.8594v-6.2969c0-9.8242-7.9922-17.82-17.82-17.82-9.8242 0-17.82 7.9922-17.82 17.82v6.2969c0 3.2305-2.6289 5.8594-5.8594 5.8594h-1.9141l-0.15625-4.6523c-0.55469-16.578-9.9805-31.734-24.609-39.562-1.2109-0.64453-1.9609-1.8984-1.9609-3.2734v-7.5273c0-6.2891-3.6172-11.695-8.8438-14.422v-6.8555h6.8945v-10.461l-6.9336-0.003907c-0.25781-8.5391-7.2422-15.414-15.844-15.414-8.6016 0-15.586 6.8789-15.844 15.414h-5.6875v10.461h5.6406v6.2305c-5.8711 2.4766-10.004 8.2852-10.004 15.047v9.8984c0 1.1055-0.48438 2.1445-1.5195 3.0039-8.1211 6.7695-13 16.707-13.387 27.359l-3.3516 167.67c-1.707 2.4492-2.7227 5.4102-2.7227 8.6133v30.711c0 12.094 9.8359 21.926 21.926 21.926h414.17c12.09 0 21.926-9.8359 21.926-21.926v-30.711c0-3.2031-1.0156-6.1641-2.7227-8.6133l-3.3555-167.76c-0.38672-10.566-5.2695-20.508-13.574-27.426zm-32.656-44.02c0-0.16797 0.082031-0.30859 0.097656-0.47266 0.25391-2.7617 2.5078-4.957 5.3359-4.957 2.8242 0 5.082 2.1953 5.3359 4.957 0.015625 0.16406 0.097656 0.30469 0.097656 0.47266v14.941h-10.859v-4.957zm-35.418 81.98c0.42578-12.859 7.7383-24.617 19.086-30.684 4.6211-2.4688 7.4883-7.2578 7.4883-12.5v-7.5273c0-3.2305 2.6289-5.8594 5.8594-5.8594h17.984c3.2305 0 5.8594 2.6289 5.8594 5.8594v9.8984c0 4.2188 1.8555 8.1875 5.2852 11.043 5.8438 4.8672 9.3516 12.016 9.6289 19.527l3.2148 160.96h-79.426l2.5508-76.555 2.3242-69.855zm-59.883 14.762c9 0 16.32-7.3203 16.32-16.32v-6.2969c0-4.0586 3.3047-7.3594 7.3594-7.3594 4.0586 0 7.3594 3.3008 7.3594 7.3594v6.2969c0 9 7.3203 16.32 16.316 16.32h1.5664l-4.5273 135.95h-30.27v-0.78125c0-11.504-7.5781-21.266-18.008-24.566-0.55469-25.512-1.8359-64.957-4.7695-110.61zm-88.613-166.39c0.60547-3.5156 3.6406-6.0664 7.2109-6.0664s6.6055 2.5508 7.2109 6.0664v-0.003907c1.3438 7.7852 3.4062 20.844 4.9414 35.395-2.4062 1.8906-4.1328 4.6406-4.5898 7.8359l-0.79688 5.5742c-0.039063 0.28125-0.28516 0.49219-0.57031 0.49219h-12.395c-0.28516 0-0.53125-0.21094-0.57031-0.49219l-0.79688-5.5742c-0.45703-3.1992-2.1797-5.9453-4.5859-7.8398 1.5352-14.543 3.5977-27.602 4.9414-35.387zm-46.238 65.422c0.097657-0.86719 0.83203-1.5195 1.707-1.5195 0.80078 0 1.5 0.56641 1.6641 1.3555l3.3047 15.777c1.0078 4.8047 5.3008 8.293 10.211 8.293 5.3008 0 9.7539-3.9609 10.359-9.2109 0.58203-5.043 1.5039-12.684 2.5469-20.352 0.72266-5.3125 1.5078-10.637 2.2891-15.129 0.14453-0.82422 0.86719-1.4258 1.7227-1.4258 0.86719 0 1.6094 0.64453 1.7305 1.5039l0.79687 5.5742c0.76953 5.4023 5.4688 9.4766 10.926 9.4766h12.395c5.457 0 10.156-4.0742 10.926-9.4766l0.79688-5.5781c0.12109-0.85547 0.86328-1.5 1.7305-1.5 0.85547 0 1.5781 0.59766 1.7266 1.4258 0.78125 4.4922 1.5625 9.8164 2.2891 15.129 1.0469 7.668 1.9648 15.309 2.5469 20.352 0.60547 5.25 5.0625 9.2109 10.355 9.2109 4.9102 0 9.207-3.4883 10.211-8.293l3.3047-15.777c0.16406-0.78125 0.86328-1.3516 1.6641-1.3516 0.87109 0 1.6055 0.65234 1.7031 1.5195 3.5156 31.059 6.1445 61.836 8.1211 90.52 1.6992 24.688 2.9141 47.816 3.7773 68.211 0.86328 20.391 1.3789 38.051 1.6875 51.801-0.57031 0.0625-1.1289 0.16016-1.6875 0.25781-3.8477 0.66797-7.3945 2.1836-10.461 4.3555-6.5781 4.6719-10.895 12.336-10.895 21.004v0.78125h-87.996v-0.78125c0-8.6641-4.3125-16.328-10.891-21-3.0625-2.1758-6.6133-3.6875-10.461-4.3555-0.55859-0.097657-1.1172-0.19531-1.6875-0.25781 0.30859-13.762 0.82422-31.441 1.6875-51.852 0.86328-20.383 2.0742-43.492 3.7734-68.164 1.9766-28.691 4.6055-59.469 8.125-90.523zm97.445 265.57h-87.996v-18.188h87.996zm-172.76-164.6c9 0 16.32-7.3203 16.32-16.32v-6.2969c0-4.0586 3.3008-7.3594 7.3594-7.3594 4.0586 0 7.3594 3.3008 7.3594 7.3594v6.2969c0 9 7.3203 16.32 16.32 16.32h8.6484c-2.9336 45.645-4.2148 85.094-4.7695 110.61-10.426 3.3008-18.008 13.062-18.008 24.566v0.78125l-30.27-0.003906-4.5273-135.95zm-58.801-96.742c0-0.16797 0.082031-0.30859 0.097656-0.47266 0.25391-2.7617 2.5078-4.957 5.3359-4.957s5.082 2.1953 5.3359 4.957c0.015625 0.16406 0.097657 0.30469 0.097657 0.47266v14.941h-10.859v-4.957zm-24.918 71.824c0.27734-7.5977 3.7891-14.746 9.8125-19.77 3.2422-2.6992 5.1016-6.668 5.1016-10.887v-9.8984c0-3.2305 2.6289-5.8594 5.8594-5.8594h17.984c3.2305 0 5.8594 2.6289 5.8594 5.8594v7.5273c0 5.2383 2.8711 10.027 7.4883 12.496 11.344 6.0703 18.66 17.828 19.086 30.688l0.14453 4.3047 2.3281 69.855 2.5508 76.555h-79.426zm5.3984 218.17c-6.3203 0-11.465-5.1445-11.465-11.469v-30.711c0-2.5703 2.0898-4.6602 4.6602-4.6602h118.36v46.84zm142.55 0h-20.535v-58.082c0-5.5078 2.9492-10.301 7.3242-12.996 2.332-1.4375 5.0469-2.3086 7.9805-2.3086 0.85938 0 1.6914 0.11719 2.5156 0.25781 0.65234 0.10547 1.2773 0.28125 1.8984 0.47266 5.1914 1.5742 9.2188 5.7852 10.461 11.113 0.26172 1.1172 0.42969 2.2695 0.42969 3.4648v58.078zm20.535 0v-18.188h87.996v18.188zm118.99 0h-20.535v-58.078c0-1.1953 0.17188-2.3516 0.43359-3.4727 1.2422-5.3242 5.2695-9.5312 10.461-11.105 0.62109-0.1875 1.2422-0.36328 1.8945-0.47266 0.82031-0.13672 1.6523-0.25391 2.5156-0.25391 2.9336 0 5.6484 0.86719 7.9805 2.3086 4.375 2.6953 7.3203 7.4883 7.3203 12.996v58.082zm143.55-11.465c0 6.3203-5.1445 11.469-11.465 11.469l-111.55-0.003906v-46.84h118.36c2.5703 0 4.6602 2.0898 4.6602 4.6602z"/>
  <path d="m413.68 273.36h7.2617c4.1133 0 7.4648-3.3477 7.4648-7.4648v-7.2617c0-4.1172-3.3516-7.4648-7.4648-7.4648h-7.2617c-4.1172 0-7.4648 3.3477-7.4648 7.4648v7.2617c0 4.1172 3.3477 7.4648 7.4648 7.4648z"/>
  <path d="m446.11 273.36h7.2617c4.1133 0 7.4648-3.3477 7.4648-7.4648v-7.2617c0-4.1172-3.3477-7.4648-7.4648-7.4648h-7.2617c-4.1172 0-7.4688 3.3477-7.4688 7.4648v7.2617c0.003906 4.1172 3.3516 7.4648 7.4688 7.4648z"/>
  <path d="m442.54 294.65h9.043v9.043h-9.043z"/>
  <path d="m442.54 313.18h9.043v9.043h-9.043z"/>
  <path d="m416.81 294.65h9.043v9.043h-9.043z"/>
  <path d="m416.81 313.18h9.043v9.043h-9.043z"/>
  <path d="m215.53 233.43h8.2266c4.2812 0 7.7617-3.4805 7.7617-7.7617v-8.2266c0-4.2812-3.4805-7.7617-7.7617-7.7617h-8.2266c-4.2812 0-7.7617 3.4805-7.7617 7.7617v8.2266c0 4.2812 3.4805 7.7617 7.7617 7.7617z"/>
  <path d="m251.89 233.43h8.2266c4.2773 0 7.7617-3.4805 7.7617-7.7617v-8.2266c0-4.2812-3.4805-7.7617-7.7617-7.7617h-8.2266c-4.2812 0-7.7617 3.4805-7.7617 7.7617v8.2266c0 4.2812 3.4805 7.7617 7.7617 7.7617z"/>
  <path d="m210.6 187.1h9.043v9.043h-9.043z"/>
  <path d="m229.95 187.1h9.043v9.043h-9.043z"/>
  <path d="m210.28 262.27h9.043v9.043h-9.043z"/>
  <path d="m236.02 262.27h9.043v9.043h-9.043z"/>
  <path d="m210.28 290.13h9.043v9.043h-9.043z"/>
  <path d="m236.02 290.13h9.043v9.043h-9.043z"/>
  <path d="m210.28 317.98h9.043v9.043h-9.043z"/>
  <path d="m236.02 317.98h9.043v9.043h-9.043z"/>
  <path d="m280.49 225.67c0 4.2812 3.4805 7.7617 7.7617 7.7617h8.2227c4.2773 0 7.7617-3.4805 7.7617-7.7617v-8.2266c0-4.2812-3.4805-7.7617-7.7617-7.7617h-8.2227c-4.2812 0-7.7617 3.4805-7.7617 7.7617z"/>
  <path d="m292.36 187.1h9.0469v9.043h-9.0469z"/>
  <path d="m273.01 187.1h9.043v9.043h-9.043z"/>
  <path d="m292.68 262.27h9.043v9.043h-9.043z"/>
  <path d="m266.94 262.27h9.043v9.043h-9.043z"/>
  <path d="m292.68 290.13h9.043v9.043h-9.043z"/>
  <path d="m266.94 290.13h9.043v9.043h-9.043z"/>
  <path d="m292.68 317.98h9.043v9.043h-9.043z"/>
  <path d="m266.94 317.98h9.043v9.043h-9.043z"/>
 </g>
</svg>
