<?xml version="1.0" encoding="UTF-8"?>
<svg width="512pt" height="512pt" version="1.1" viewBox="0 0 512 512" xmlns="http://www.w3.org/2000/svg">
 <path d="m2.7227 171.48c1.1211 0.61719 2.4609 0.67578 3.6289 0.14844l15.512-6.9609c3.8203 6.4531 13.75 18.781 33.812 18.781 11.141 0 22.688-5.6328 33.855-11.082 14.184-6.9219 27.582-13.461 37.84-7.7305 15.172 8.4688 9.6719 33.883 7.6523 41.395-2.2617 0.59375-4.5664 1.3164-6.9023 2.2031-25.445 9.6797-44.336 37.758-45.129 38.949-0.86328 1.2969-0.90625 2.9688-0.11719 4.3086 0.78906 1.3398 2.2695 2.1133 3.8242 1.9883l15.375-1.2266c-7.1211 6.6211-16.176 16.594-20.688 27.852-7.8359 19.531-5.2812 54.145-5.168 55.605 0.10547 1.3477 0.87109 2.5586 2.0508 3.2227 1.1758 0.66797 2.6094 0.70312 3.8203 0.097656l9.6719-4.8398c-2.6562 9.25-6.0234 24.02-5.6367 38.461 0.625 23.254 16.25 50.238 16.914 51.375 0.69141 1.1836 1.9375 1.9414 3.3086 2.0078 1.3672 0.058594 2.6836-0.5625 3.4922-1.6758l7.6133-10.516c3.957 14.652 14.113 43.262 35.078 54.305 28.223 14.863 118.69 25.73 148.37 25.73 28.242 0 50.73-17.184 56.508-22.027 2.2422 0.21094 4.4922 0.3125 6.7461 0.3125 14.328 0 28.93-3.9648 44.234-8.1211 17.508-4.7539 35.613-9.668 53.453-8.1953 1.5352 0.11719 3.0039-0.62109 3.8047-1.9336 0.80078-1.3125 0.78906-2.9648-0.027344-4.2695-4.2227-6.75-9.3477-13.012-15.316-18.727 5.8672 0.54297 11.602 0.089844 17.293-1.375 1.3867-0.35937 2.4844-1.4219 2.8867-2.7969s0.046875-2.8633-0.92969-3.9102c-8.9023-9.543-13.457-23.336-16.906-37.863 2.2461-4.0742 9.957-17 19.984-21.914 12.086-5.9258 30.949-2.3281 31.137-2.293 1.1953 0.23438 2.4336-0.074219 3.3711-0.84766 0.9375-0.77344 1.4805-1.9258 1.4805-3.1445-0.003906-0.78125-0.11719-19.305-7.0977-32.379-3.3086-6.1953-8.7812-11.094-13.793-14.605 7.0312-0.16016 13.34 0.74219 18.844 2.7031 1.4805 0.52734 3.1367 0.15234 4.2461-0.96094 1.1094-1.1172 1.4766-2.7734 0.9375-4.2539-0.25781-0.71094-6.4648-17.496-18.734-24.305-6.0312-3.3477-13.586-4.5078-19.734-4.8164 6.9922-5.0469 15.949-8.8867 27.094-11.633 1.8594-0.46094 3.1484-2.1562 3.0898-4.0742-0.058594-1.9141-1.4492-3.5312-3.3359-3.8711-1.5469-0.28125-38.062-6.7969-58.383-1.5586-14.488 3.7344-24.457 12.082-29.344 17.031-16.496-20.32-41.312-45.98-69.723-58.996-24.359-11.16-59.18-14.086-90.688-9.1953-4.0156-2.9258-15.648-10.438-30.957-11.949 4.9961-17.242 20.066-74.102 12.082-107.32-9.3203-38.77-36.688-76.715-85.574-66.914-32.352 6.4922-37.637 30.742-41.879 50.23-2.0234 9.2812-3.9297 18.047-8.5117 22.395-6.6797 6.3398-20.074 6.5977-34.254 6.8711-16.848 0.32422-34.266 0.66016-45.859 10.82-21.652 18.977-16.605 56.887-16.383 58.492 0.17969 1.2656 0.94141 2.375 2.0586 2.9922zm123.95-15.949c-12.793-4.0625-26.957 2.832-40.699 9.5352-10.34 5.043-21.027 10.258-30.289 10.258-16.512 0-24.328-10.406-27.031-15.141 3.2109-3.0781 10.113-9.0352 17.859-11.617 5.7812-1.9297 13.641-1.6445 21.242-1.3672 6.7383 0.24609 13.703 0.49609 19.758-0.73047 10.555-2.1367 22.277-11.684 27.078-15.926 0.085937 0.042969 0.16797 0.089844 0.25391 0.13672 4.4883 2.3906 8.7305 4.6445 10.824 8.2539 2.6992 4.6602 2.0469 11.73 1.0039 16.598zm317.11 109.37c10.262-2.6445 25.812-1.875 37.75-0.64453-9.1562 4.0039-16.461 9.1484-22.113 15.539-1.1172 1.2617-1.3359 3.082-0.55469 4.5781 0.78125 1.4922 2.4141 2.3477 4.0781 2.1523 0.16016-0.019532 16.367-1.8555 26.137 3.5703 4.9883 2.7695 8.8438 8.0234 11.402 12.449-7.875-1.3711-16.637-1.1992-26.527 0.50781-1.7812 0.30859-3.1445 1.7539-3.3477 3.5508-0.20312 1.7969 0.80469 3.5078 2.4727 4.207 0.15625 0.0625 15.469 6.5586 21.273 17.43 4.0664 7.6133 5.4414 17.902 5.9062 23.828-7.2578-0.80859-20.824-1.3789-31.203 3.7109-8.0938 3.9688-14.656 11.699-18.918 17.855-0.17969-0.85156-0.35938-1.707-0.53906-2.5586-2.3711-11.301-4.6133-21.973-8.3203-30.539-5.4805-12.664-15.719-22.613-24.184-29.195 4.8867-0.12109 9.5898-0.78516 14.07-1.9922 1.2383-0.33203 2.2461-1.2344 2.7227-2.4258 0.47266-1.1953 0.35547-2.5391-0.32031-3.6289-0.60938-0.98828-6.418-10.305-16.062-22.797 3.8203-4.0312 12.855-12.137 26.277-15.598zm-203.66-56.777c-11.203 2.5352-21.719 6.1172-30.855 10.738-19.367 9.7969-31.398 23.613-34.789 39.957-11.25 54.199 68.379 99.184 71.77 101.07 1.3828 0.76953 3.0898 0.66406 4.375-0.26953 1.2812-0.9375 1.8984-2.5312 1.5859-4.082l-3.8242-18.969c18.66 16.211 41.984 28.191 69.52 35.688 2.1641 0.58984 4.3984-0.6875 4.9883-2.8516 0.58984-2.1641-0.6875-4.3984-2.8516-4.9883-30.965-8.4297-56.281-22.715-75.25-42.469-1.2539-1.3047-3.2148-1.625-4.8164-0.78516-1.6016 0.83594-2.457 2.6328-2.0977 4.4023l4.5195 22.43c-19.473-12.625-68.062-48.5-59.961-87.527 3.6289-17.477 18.59-28.332 30.5-34.355 34.613-17.508 92.488-19.184 126.38-3.6562 40.066 18.355 73.859 64.965 84.137 80.203-6.5781 0.97266-13.672 0.70703-21.168-0.78906-1.9805-0.39844-3.9492 0.72656-4.6211 2.6289-0.67578 1.9023 0.15234 4.0117 1.9375 4.9531 0.25 0.13281 25.207 13.457 34.227 34.305 3.3789 7.8125 5.5391 18.094 7.8242 28.98 3.5781 17.035 7.5742 36.066 17.461 50.086-7.9414 0.75781-16.152-0.75781-24.918-4.5977-1.9336-0.84375-4.1875-0.074218-5.1953 1.7734-1.0117 1.8477-0.44141 4.1641 1.3125 5.332 9.5508 6.3633 17.574 13.789 23.938 22.141-16.379 0.16406-32.406 4.5156-47.977 8.7422-17.578 4.7695-34.18 9.2812-49.688 7.3906-31.238-3.8086-84.527-44.469-85.059-44.879-1.7031-1.3086-4.1289-1.0664-5.5391 0.55859-1.4102 1.6211-1.3125 4.0586 0.21875 5.5625 9.1133 8.9648 17.09 19.77 23.77 32.191-22.164-5.1836-83.531-21.816-114.96-53.062-37.887-37.672-26.441-97.617-26.324-98.215 0.44141-2.1992-0.98047-4.3398-3.1836-4.7852-2.2031-0.43359-4.3398 0.98047-4.7852 3.1836-0.52734 2.625-12.469 64.785 28.562 105.58 40.371 40.141 123.86 56.41 127.39 57.086 1.5078 0.28125 3.0352-0.29688 3.9727-1.5039s1.1133-2.8398 0.46094-4.2227c-3.2188-6.8125-6.7852-13.227-10.68-19.215 16.215 10.547 37.926 23.051 56.164 27.973-8.9766 6.2578-26.008 15.91-45.684 15.91-32.109 0-119.3-11.477-144.58-24.793-24.602-12.957-32.855-56.988-32.938-57.434-0.28906-1.6016-1.5078-2.875-3.0977-3.2383-1.5859-0.36328-3.2383 0.26172-4.1914 1.5781l-9.0234 12.461c-4.4648-8.8516-12.41-26.633-12.82-41.898-0.57422-21.383 8.0664-44.539 8.1523-44.77 0.58984-1.5625 0.16406-3.332-1.0781-4.4531s-3.043-1.3672-4.5391-0.61719l-12.77 6.3867c-0.36719-10.633-0.375-32.672 4.9141-45.852 7.0312-17.523 27.723-32.488 27.93-32.637 1.4844-1.0625 2.082-2.9844 1.4531-4.6992-0.625-1.7148-2.3438-2.8047-4.1406-2.6562l-19.109 1.5234c7.0234-8.6445 20.363-22.902 35.957-28.836 22.566-8.5859 42.535-0.16016 42.727-0.078126 1.3086 0.57422 2.8281 0.41797 3.9922-0.41406 0.19141-0.13672 19.223-13.562 37.941-13.562 9.8906-0.003906 18.531 3.2773 24.434 6.3398zm-126.51-136.48c4.1289-18.949 8.3984-38.547 35.539-43.992 54.383-10.918 71.977 43.824 76.074 60.859 7.7852 32.379-8.6602 91.816-12.605 105.25-14.938 0.92969-29.023 8.375-35.66 12.414-3.9453-8.8086-5.2891-19-4.0039-30.406 5.6016 2.4688 11.613 3.3047 17.949 2.4883 1.2852-0.16406 2.4141-0.93359 3.0391-2.0703 0.625-1.1328 0.67188-2.5 0.125-3.6758-3.8711-8.3125-1.3789-18.223 1.0312-27.801 1.4688-5.832 2.8516-11.344 2.8516-16.527 0-5.9297-1.7812-10.703-3.9844-14.34 5.8438-0.22266 11.555-1.9297 17.07-5.1133 1.3594-0.78516 2.1445-2.2852 2.0156-3.8516-0.12891-1.5664-1.1484-2.918-2.6211-3.4688-6.5586-2.4648-13.699-13.082-20.602-23.348-9.1406-13.59-17.773-26.43-28.441-26.43-11.625 0-18.906 8.7773-25.332 16.52-3.6445 4.3906-7.082 8.5391-10.641 10.25-5.4531 2.6211-10.523 1.6602-13.488 0.62109 0.59766-2.4023 1.1406-4.8711 1.6836-7.375zm-9.7305 25.406c2.543-2.8164 4.3477-6.3242 5.7656-10.25 4.4492 1.4766 11.602 2.6133 19.305-1.0859 5.1562-2.4805 9.1484-7.293 13.375-12.383 5.7969-6.9844 11.27-13.582 19.078-13.582 6.3398 0 14.496 12.133 21.695 22.836 5.7695 8.5781 11.305 16.812 17.336 21.988-5.0977 1.5586-10.289 1.5547-15.723 0.007813-1.9258-0.54297-3.9609 0.40234-4.7969 2.2266-0.83594 1.8281-0.19922 3.9961 1.4805 5.0938 0.34375 0.22656 8.4414 5.6523 8.4414 16.273 0 4.1758-1.2656 9.2109-2.6094 14.543-2.1875 8.6992-4.6172 18.367-2.4336 27.668-4.5273-0.25-8.7344-1.6992-12.746-4.3711-1.1406-0.76172-2.5859-0.89062-3.8438-0.35937-1.2578 0.53516-2.1641 1.668-2.4102 3.0156-2.4805 13.676-1.7383 26.027 2.1641 36.859-5.9492-1.3359-14.414-2.4062-24.137-1.1953 2.4844-11.148 5.2812-33.969-9.7148-44.984 1.3828-5.3164 3.3242-16.336-1.418-24.5-3.2578-5.6133-8.7383-8.5273-14.035-11.348-4.7031-2.5039-9.1406-4.8672-11.309-8.8438-3.6953-6.7852-3.6484-14.621-3.4648-17.609zm-81.477 19.059c9.3633-8.207 25.273-8.5117 40.66-8.8086 12.234-0.23438 23.93-0.47656 32.754-4.5156 0.33984 4.5195 1.4297 10.32 4.3945 15.766 1.7578 3.2266 4.2578 5.6328 7.0039 7.6094-4.9922 4.1875-13.848 10.836-21.32 12.352-5.1094 1.0352-11.301 0.8125-17.848 0.57422-8.3203-0.30078-16.93-0.61328-24.105 1.7773-11.082 3.6953-20.211 12.641-22.621 15.152l-13.039 5.8516c-0.5-10.527 0.19922-33.555 14.121-45.758zm0.67969 17.176 5.332-7.4688c1.3047-1.8281 3.8438-2.25 5.668-0.94922 1.8281 1.3047 2.25 3.8398 0.94922 5.668l-5.332 7.4727c-0.79297 1.1094-2.043 1.7031-3.3125 1.7031-0.81641 0-1.6406-0.24609-2.3555-0.75391-1.8281-1.3047-2.2539-3.8438-0.94922-5.6719zm129.98-17.207c9.1758 0 16.641-6.5742 16.641-14.652s-7.4648-14.656-16.641-14.656c-9.1758 0-16.641 6.5742-16.641 14.656s7.4648 14.652 16.641 14.652zm0-21.18c4.6133 0 8.5117 2.9883 8.5117 6.5273 0 3.5352-3.8984 6.5273-8.5117 6.5273-4.6133 0-8.5117-2.9883-8.5117-6.5273 0-3.5391 3.8984-6.5273 8.5117-6.5273z" fill="#443f3c"/>
</svg>
