<?xml version="1.0" encoding="UTF-8"?>
<svg width="512pt" height="512pt" version="1.1" viewBox="0 0 512 512" xmlns="http://www.w3.org/2000/svg">
 <path d="m467.01 363.05s-34.91-10.859-48.871-38.012l77.574-31.031c1.5508-0.77734 3.1016-1.5508 3.8789-3.8789 0.77734-0.77734 12.414-24.047-0.77734-41.891-2.3281-3.1016-5.4297-3.8789-8.5352-2.3281l-14.738 5.4297v-170.67c0-2.3281-0.77734-4.6562-3.1016-6.207l-48.098-34.133h-0.77734c-0.77734 0-0.77734-0.77734-1.5508-0.77734h-1.5508-0.77734c-100.85-3.1016-146.62 41.891-162.13 62.062-15.516-20.945-62.062-65.164-162.13-62.062h-0.77734c-0.77344-0.76953-1.5508-0.76953-1.5508-0.76953-0.77734 0-0.77734 0-1.5508 0.77734h-0.77734l-48.094 34.906c-2.3281 1.5508-3.1016 3.8789-3.1016 6.207v168.34l-17.066-6.9805c-3.1016-1.5508-6.9805 0-8.5352 2.3281-12.414 17.844-0.77734 40.34-0.77734 41.891 0.77734 1.5508 2.3281 3.1016 3.8789 3.8789l78.352 31.805c-14.738 28.703-50.426 41.113-50.426 41.113-20.945 6.9805-31.805 25.602-33.359 47.32-1.5469 11.637-3.875 26.375-3.875 29.48v0.77734c0 10.859 8.5312 32.578 37.234 32.578 3.1016 0-10.859 4.6562 214.89-86.109 217.21 86.887 204.02 82.23 206.35 82.23 24.824 0 38.789-18.617 37.238-34.133-2.3281-31.805-6.207-62.059-36.461-72.145zm-4.6562 13.965c24.824 8.5352 22.496 36.461 24.824 48.098l-161.36-63.613 77.574-31.031c17.848 34.133 57.41 46.547 58.961 46.547zm24.047-96.195-181.53 72.922-24.047-9.3086c53.527-20.945 176.87-69.816 207.9-81.453 1.5508 6.2031-0.77344 13.961-2.3281 17.84zm-201.7 80.68-24.824 10.086-24.824-10.086 24.824-10.086zm-1.5508-34.91-22.496 8.5352-24.824-9.3125c11.633-5.4297 30.254-10.082 47.32 0.77734zm177.65-69.816-161.36 63.613c-10.859-10.086-22.496-13.965-34.133-14.738 23.273-65.164 153.6-75.25 155.15-75.25 3.8789 0 6.9805-3.8789 6.9805-7.7578v-162.14l32.582 24.047c0 180.75-0.77344 169.89 0.77734 172.22zm-196.27-140.41c6.207-10.086 43.441-62.836 145.07-62.836h2.3281v162.13c-24.824 2.3281-109.38 14.738-147.39 60.508zm-162.14-62.836h2.3281c101.62 0 138.86 52.75 145.07 62.836v159.8c-37.238-45.77-121.79-57.406-147.39-60.508zm-47.32 200.92v-169.89l32.582-24.047v162.13c0 3.8789 3.1016 6.9805 6.9805 7.7578 1.5508 0 132.66 10.086 155.15 76.023-12.414 2.3281-24.047 7.7578-32.582 12.414zm-31.805 4.6523 216.44 85.332-24.824 9.3086-189.29-76.797c-1.5547-3.8789-3.8789-11.637-2.3281-17.844zm26.375 117.92c1.5508-0.77734 42.668-15.516 59.734-49.648l85.332 34.133-170.67 66.715 2.3281-17.066c1.5508-14.738 8.5352-28.703 23.273-34.133zm-6.207 81.453c-13.188-0.77734-18.617-7.7578-20.168-13.188l191.61-75.25 24.824 10.086zm425.12-3.1016-187.73-75.25 24.824-10.086 183.08 72.145c-2.3281 4.6562-6.9805 12.414-20.168 13.191z" fill="#443f3c"/>
</svg>
