<?xml version="1.0" encoding="UTF-8"?>
<svg width="512pt" height="512pt" version="1.1" viewBox="0 0 512 512" xmlns="http://www.w3.org/2000/svg">
 <g fill="#443f3c">
  <path d="m256 0c-141.16 0-256 114.84-256 256s114.84 256 256 256 256-114.84 256-256-114.84-256-256-256zm0 495.48c-132.05 0-239.48-107.44-239.48-239.48s107.44-239.48 239.48-239.48 239.48 107.44 239.48 239.48-107.44 239.48-239.48 239.48z"/>
  <path d="m414.89 99.773c-0.39453-0.48828-0.77734-0.98438-1.2227-1.4375-0.44531-0.44531-0.94922-0.81641-1.4297-1.2227-40.266-39.598-95.438-64.082-156.23-64.082s-115.95 24.484-156.22 64.074c-0.48828 0.40625-0.99219 0.77734-1.4453 1.2305-0.45313 0.45312-0.82422 0.94922-1.2227 1.4375-39.598 40.258-64.082 95.43-64.082 156.23s24.484 115.97 64.082 156.23c0.39453 0.48828 0.77734 0.98438 1.2227 1.4375 0.33203 0.33203 0.71875 0.57031 1.0664 0.86719 40.293 39.812 95.621 64.438 156.6 64.438s116.3-24.625 156.6-64.438c0.34766-0.30469 0.73438-0.53516 1.0664-0.86719 0.45313-0.45312 0.82422-0.94922 1.2227-1.4375 39.598-40.258 64.082-95.43 64.082-156.23s-24.484-115.97-64.082-156.23zm0.53516 287.26-25.137-50.285c7.9609-13.18 14.004-27.59 17.82-42.918l53.363-17.781c-4.0625 41.898-20.68 80.164-46.047 110.98zm-13.742 15.102c-0.97266 0.77734-2.2617 1-3.3945 0.44531l-45.973-22.98c10.176-7.9453 19.324-17.102 27.277-27.277l22.992 45.98c0.57031 1.125 0.33203 2.4102-0.4375 3.3789-0.16016 0.14844-0.30859 0.30469-0.46484 0.45312zm-291.82-0.45312c-0.77734-0.96484-1.0078-2.2617-0.4375-3.3867l22.98-45.973c7.9453 10.176 17.102 19.324 27.277 27.277l-45.98 22.992c-1.1055 0.57812-2.4102 0.33203-3.3789-0.4375-0.14453-0.16797-0.30078-0.31641-0.46094-0.47266zm-59.316-125.64 53.363 17.789c3.8164 15.328 9.8594 29.738 17.82 42.918l-25.145 50.285c-25.367-30.824-41.984-69.102-46.039-110.99zm46.039-151.07 25.137 50.285c-7.9609 13.18-14.004 27.59-17.82 42.918l-53.355 17.777c4.0547-41.895 20.672-80.16 46.039-110.98zm13.742-15.102c0.96484-0.77734 2.2695-0.99219 3.3945-0.44531l45.973 22.98c-10.176 7.9453-19.324 17.102-27.277 27.277l-22.992-45.98c-0.57031-1.125-0.33203-2.4102 0.4375-3.3789 0.16016-0.14844 0.30859-0.30469 0.46484-0.45312zm291.82 0.45312c0.77734 0.96484 1.0078 2.2617 0.4375 3.3867l-22.98 45.973c-7.9453-10.176-17.102-19.324-27.277-27.277l45.98-22.992c1.0977-0.57031 2.4102-0.33203 3.3867 0.44531 0.14453 0.16016 0.29297 0.31641 0.45312 0.46484zm59.316 125.64-53.363-17.789c-3.8164-15.328-9.8594-29.738-17.82-42.918l25.145-50.285c25.367 30.824 41.984 69.102 46.039 110.99zm-1.1992 23.082-48.672 16.219c0.78516-6.3242 1.3125-12.727 1.3125-19.258s-0.52734-12.934-1.3047-19.258l48.664 16.219c1.3164 0.44531 2.1914 1.6602 2.1914 3.0391s-0.875 2.5938-2.1914 3.0391zm-204.26 137.35c-77.41 0-140.39-62.977-140.39-140.39s62.977-140.39 140.39-140.39 140.39 62.977 140.39 140.39-62.977 140.39-140.39 140.39zm19.258 15.211-16.219 48.664c-0.88281 2.625-5.1953 2.6172-6.0781 0.007812l-16.219-48.672c6.3242 0.77734 12.727 1.3047 19.258 1.3047s12.934-0.52734 19.258-1.3047zm-38.516-311.2 16.219-48.664c0.88281-2.625 5.1953-2.6172 6.0781-0.007812l16.219 48.672c-6.3242-0.77734-12.727-1.3047-19.258-1.3047s-12.934 0.52734-19.258 1.3047zm100 21.32c-13.18-7.9609-27.59-14.004-42.918-17.82l-17.777-53.363c41.895 4.0547 80.168 20.672 110.98 46.047zm-118.58-17.82c-15.328 3.8164-29.738 9.8594-42.918 17.82l-50.285-25.145c30.82-25.379 69.086-41.984 110.99-46.039zm-166.43 149.06 48.672-16.219c-0.78516 6.3242-1.3125 12.727-1.3125 19.258s0.52734 12.934 1.3047 19.258l-48.664-16.219c-1.3164-0.44531-2.1914-1.6602-2.1914-3.0391s0.875-2.5938 2.1914-3.0391zm123.52 137.32c13.18 7.9609 27.59 14.004 42.918 17.82l17.781 53.363c-41.895-4.0547-80.168-20.672-110.98-46.047zm118.58 17.82c15.328-3.8164 29.738-9.8594 42.918-17.82l50.285 25.145c-30.82 25.379-69.086 41.984-110.99 46.039z"/>
  <path d="m330.61 157.36c-0.91016-0.70312-1.7852-1.4297-2.75-2.0547-20.293-14.527-45.059-23.172-71.863-23.172s-51.57 8.6445-71.863 23.172c-0.96484 0.62891-1.8398 1.3555-2.75 2.0547-29.852 22.637-49.258 58.371-49.258 98.645 0 68.301 55.57 123.87 123.87 123.87s123.87-55.57 123.87-123.87c0-40.273-19.406-76.008-49.258-98.645zm-0.28906 32.578c0 13.66-11.117 24.773-24.773 24.773-13.66 0-24.773-11.117-24.773-24.773 0-13.66 11.117-24.773 24.773-24.773 4.8047 0 9.2656 1.4375 13.062 3.8164 0.95703 0.69531 1.8984 1.4023 2.8398 2.1211 5.375 4.5508 8.8711 11.258 8.8711 18.836zm-3.8984 57.809c6.7031 0 12.156 5.4492 12.156 12.156 0 4.6406-2.5781 8.8047-6.7148 10.875l-9.8008 4.8984v13.359c0 15.395-10.621 28.242-24.891 31.895-0.21484-4.7148-1.6758-9.1094-4.1797-12.773 12.371-7.1367 20.809-20.359 20.809-35.637v-4.9805c5.2031-5.8203 9.2812-12.559 12.098-19.793zm-78.684 82.582v32.609c-5.6406-0.42969-11.148-1.3047-16.516-2.5859v-38.281c0-4.5586 3.6992-8.2578 8.2578-8.2578h33.031c4.5586 0 8.2578 3.6992 8.2578 8.2578v38.293c-5.3672 1.2734-10.875 2.1484-16.516 2.5859v-32.621zm-67.609-59.551c-4.1367-2.0742-6.7148-6.2422-6.7148-10.875 0-6.707 5.4531-12.156 12.156-12.156h0.52734c2.8086 7.2344 6.8945 13.98 12.098 19.793l0.003906 4.9805c0 15.277 8.4414 28.5 20.809 35.633-2.5039 3.668-3.9648 8.0586-4.1797 12.773-14.277-3.6484-24.898-16.496-24.898-31.891v-13.363zm13.254-101.8c3.8008-2.3789 8.2578-3.8164 13.066-3.8164 13.66 0 24.773 11.117 24.773 24.773 0 13.66-11.117 24.773-24.773 24.773-13.66 0-24.773-11.117-24.773-24.773 0-7.582 3.4922-14.285 8.8711-18.836 0.92969-0.71875 1.8789-1.4258 2.8359-2.1211zm103.9 103.54c0 13.66-11.117 24.773-24.773 24.773h-33.031c-13.66 0-24.773-11.117-24.773-24.773zm4.6094-16.516h-37.641v-33.031h-16.516v33.031h-37.641c-6.25-7.1836-10.258-16.145-11.469-25.566 2.5352 0.49609 5.1445 0.79297 7.8203 0.79297 6.418 0 12.422-1.6016 17.844-4.2188-0.76953 1.2539-1.3281 2.6406-1.3281 4.2188 0 4.5586 3.6992 8.2578 8.2578 8.2578 4.5586 0 8.2578-3.6992 8.2578-8.2578 0-4.5586-3.6992-8.2578-8.2578-8.2578-0.125 0-0.22266 0.066406-0.33984 0.066406 8.0508-5.9609 13.949-14.684 16.02-24.84h18.184c2.0742 10.164 7.9688 18.879 16.02 24.84-0.11328 0-0.21094-0.066406-0.33594-0.066406-4.5586 0-8.2578 3.6992-8.2578 8.2578 0 4.5586 3.6992 8.2578 8.2578 8.2578 4.5586 0 8.2578-3.6992 8.2578-8.2578 0-1.5781-0.5625-2.9648-1.3281-4.2188 5.4258 2.6172 11.43 4.2188 17.844 4.2188 2.6758 0 5.2852-0.29687 7.8203-0.79297-1.2109 9.4219-5.2188 18.383-11.469 25.566zm-14.898-102.75c-11.066 5.625-19.355 15.93-21.91 28.426h-18.184c-2.543-12.496-10.844-22.809-21.91-28.426 9.832-2.9727 20.227-4.6094 31.004-4.6094s21.172 1.6367 31 4.6094zm-138.36 102.75c0-21.473 6.3984-41.445 17.309-58.242 1.9648 10.191 7.7461 18.961 15.723 25.004v1.625c0 2.4102 0.18359 4.8047 0.45312 7.1836-14.168 1.7266-25.227 13.695-25.227 28.328 0 10.926 6.0703 20.762 15.855 25.648l0.66016 0.33203v3.1523c0 24.5 17.895 44.848 41.289 48.805v17.234c-38.754-16.207-66.062-54.5-66.062-99.07zm148.64 99.07v-17.234c23.395-3.9492 41.289-24.297 41.289-48.805v-3.1562l0.66797-0.33203c9.7812-4.8945 15.852-14.719 15.852-25.645 0-14.625-11.059-26.598-25.227-28.324 0.26953-2.3789 0.45312-4.7734 0.45312-7.1875v-1.625c7.9766-6.043 13.758-14.809 15.723-25.004 10.906 16.797 17.309 36.77 17.309 58.242 0 44.57-27.309 82.863-66.066 99.07z"/>
  <path d="m313.8 189.93c0 4.5625-3.6953 8.2617-8.2578 8.2617-4.5586 0-8.2578-3.6992-8.2578-8.2617 0-4.5586 3.6992-8.2578 8.2578-8.2578 4.5625 0 8.2578 3.6992 8.2578 8.2578"/>
  <path d="m214.71 189.93c0 4.5625-3.6992 8.2617-8.2578 8.2617-4.5625 0-8.2578-3.6992-8.2578-8.2617 0-4.5586 3.6953-8.2578 8.2578-8.2578 4.5586 0 8.2578 3.6992 8.2578 8.2578"/>
  <path d="m338.58 90.84c0 4.5586-3.6992 8.2578-8.2578 8.2578-4.5625 0-8.2578-3.6992-8.2578-8.2578 0-4.5625 3.6953-8.2578 8.2578-8.2578 4.5586 0 8.2578 3.6953 8.2578 8.2578"/>
  <path d="m189.93 90.84c0 4.5586-3.6953 8.2578-8.2578 8.2578-4.5586 0-8.2578-3.6992-8.2578-8.2578 0-4.5625 3.6992-8.2578 8.2578-8.2578 4.5625 0 8.2578 3.6953 8.2578 8.2578"/>
  <path d="m338.58 421.16c0 4.5625-3.6992 8.2578-8.2578 8.2578-4.5625 0-8.2578-3.6953-8.2578-8.2578 0-4.5586 3.6953-8.2578 8.2578-8.2578 4.5586 0 8.2578 3.6992 8.2578 8.2578"/>
  <path d="m189.93 421.16c0 4.5625-3.6953 8.2578-8.2578 8.2578-4.5586 0-8.2578-3.6953-8.2578-8.2578 0-4.5586 3.6992-8.2578 8.2578-8.2578 4.5625 0 8.2578 3.6992 8.2578 8.2578"/>
  <path d="m90.84 189.93c0 4.5625-3.6992 8.2617-8.2578 8.2617-4.5625 0-8.2578-3.6992-8.2578-8.2617 0-4.5586 3.6953-8.2578 8.2578-8.2578 4.5586 0 8.2578 3.6992 8.2578 8.2578"/>
  <path d="m437.68 189.93c0 4.5625-3.6953 8.2617-8.2578 8.2617-4.5586 0-8.2578-3.6992-8.2578-8.2617 0-4.5586 3.6992-8.2578 8.2578-8.2578 4.5625 0 8.2578 3.6992 8.2578 8.2578"/>
  <path d="m99.098 330.32c0 4.5586-3.6992 8.2578-8.2578 8.2578-4.5625 0-8.2578-3.6992-8.2578-8.2578 0-4.5625 3.6953-8.2578 8.2578-8.2578 4.5586 0 8.2578 3.6953 8.2578 8.2578"/>
  <path d="m429.42 330.32c0 4.5586-3.6953 8.2578-8.2578 8.2578-4.5586 0-8.2578-3.6992-8.2578-8.2578 0-4.5625 3.6992-8.2578 8.2578-8.2578 4.5625 0 8.2578 3.6953 8.2578 8.2578"/>
 </g>
</svg>
