<?xml version="1.0" encoding="UTF-8"?>
<svg width="512pt" height="512pt" version="1.1" viewBox="0 0 512 512" xmlns="http://www.w3.org/2000/svg">
 <g fill="#443f3c">
  <path d="m8 442h65c3.6914 0 6.8242-2.5195 7.7227-6h23.754c9.043 8.8633 21.41 14.355 35.047 14.355 13.637 0 26-5.4883 35.047-14.355h42.27c0.76172 3.6289 3.9727 6.3555 7.8281 6.3555h155.33c3.8516 0 7.0664-2.7266 7.8281-6.3555h19.129c9.043 8.8633 21.41 14.355 35.047 14.355 21.016 0 39.02-13.016 46.453-31.398l21.883-28.414c1.0781-1.3984 1.6641-3.1172 1.6641-4.8789v-111.42c0-2.1328-0.84766-4.1719-2.3594-5.6719-1.5-1.4922-3.5273-2.3281-5.6406-2.3281h-0.046875l-20.5 0.12109c-17.914 0.10938-34.086 10.105-42.18 26.086l-23.02 45.426c-10.094-3.6758-38.254-16.926-54.719-54.508-1.2656-2.8867-4.1094-4.7656-7.2617-4.7891l-40.676-0.33594h-0.066406c-2.1094 0-4.1367 0.83203-5.6328 2.3203-1.5156 1.5-2.3672 3.5469-2.3672 5.6797v55.414l-0.89062 0.39453c-20.539 9.1367-43.699 8.3164-63.543-2.2617-1.6562-0.88281-3.5742-1.1562-5.4062-0.76953l-76.535 16.094c-6.5586-3.1602-13.883-4.9844-21.641-4.9844-15.184 0-28.785 6.8125-37.984 17.516l-21.543 4.5273c-3.3281 0.69922-5.7109 3.3789-6.2305 6.543l-30.605 6.457c-21.012 4-37.387 20.113-41.719 41.055l-1.2734 6.1523c-0.48828 2.3555 0.11328 4.8086 1.6328 6.6719s3.7969 2.9492 6.2031 2.9492zm364-15.645h-139.33v-18.859c0-12.039 9.7969-21.836 21.836-21.836h117.5zm70 8c-18.812 0-34.113-15.305-34.113-34.113 0-18.809 15.305-34.113 34.113-34.113s34.113 15.305 34.113 34.113c0 18.809-15.301 34.113-34.113 34.113zm-12.195-83.883 25.738-50.789c5.375-10.613 16.109-17.246 28.004-17.32l12.453-0.074219v100.65l-5.0703 6.5859c-4.9297-22.492-24.98-39.391-48.93-39.391-4.5898 0-9.0078 0.67188-13.23 1.832 0.38281-0.46484 0.75391-0.94531 1.0352-1.4922zm-106.27-56.164 27.523 0.22656c10.27 21.215 23.816 35.211 36.066 44.32h-63.59zm-85.324 60.961c23.625 11.617 50.762 12.164 74.938 1.4062l4.0898-1.8203h102.9 0.015626 0.023437 0.71875c-17.102 7.9883-29.004 25.301-29.004 45.387 0 7.0156 1.4609 13.691 4.0742 19.758h-7.9609v-42.34c0-4.4141-3.5859-8-8-8h-125.5c-20.863 0-37.836 16.973-37.836 37.836v12.504h-31.109c2.6172-6.0664 4.0742-12.742 4.0742-19.758 0-12.293-4.4688-23.551-11.84-32.281zm-98.688 10.859c18.812 0 34.113 15.305 34.113 34.113 0 18.809-15.305 34.113-34.113 34.113-18.809 0-34.113-15.305-34.113-34.113 0-18.809 15.301-34.113 34.113-34.113zm-53.609 21.148 5.5586-1.168c-1.3242 4.4883-2.0625 9.2227-2.0625 14.137 0 7.0156 1.4609 13.691 4.0742 19.758h-10.98zm-39.605 13.582 22.602-4.7656-3.1172 29.906-47.789 0.003906c3.9883-12.871 14.719-22.559 28.305-25.145z"/>
  <path d="m139.52 422.82c12.453 0 22.586-10.133 22.586-22.586s-10.133-22.586-22.586-22.586-22.586 10.133-22.586 22.586c0.003906 12.453 10.133 22.586 22.586 22.586zm0-29.164c3.6289 0 6.5859 2.9531 6.5859 6.5859 0 3.6328-2.9531 6.5859-6.5859 6.5859-3.6328 0-6.5859-2.9531-6.5859-6.5859 0.003906-3.6328 2.9531-6.5859 6.5859-6.5859z"/>
  <path d="m442 377.66c-12.453 0-22.586 10.133-22.586 22.586s10.133 22.586 22.586 22.586 22.586-10.133 22.586-22.586-10.133-22.586-22.586-22.586zm0 29.164c-3.6289 0-6.5859-2.9531-6.5859-6.5859 0-3.6328 2.9531-6.5859 6.5859-6.5859s6.5859 2.9531 6.5859 6.5859c0 3.6328-2.957 6.5859-6.5859 6.5859z"/>
 </g>
</svg>
