<?xml version="1.0" encoding="UTF-8"?>
<svg width="512pt" height="512pt" version="1.1" viewBox="0 0 512 512" xmlns="http://www.w3.org/2000/svg">
 <g fill="#443f3c">
  <path d="m496 443.2v-27.199h-56v-20.801l8-8v-19.199h-119.2l7.1992-75.199 9.6016-6.3984c8.8008-5.6016 15.199-15.199 16.801-25.602l2.3984-12.801h27.199c8.8008 0 16-7.1992 16-16v-4l5.6016 4h2.3984c13.602 0 24-10.398 24-24v-76.801l13.602-13.602-11.199-11.199-13.602 13.602h-30.398c-6.3984 0-12.801 2.3984-16.801 7.1992l-72.801 72.801h-4.8008c-4.8008 0-8-3.1992-8-8v-4.8008l71.199-78.398c0.80078 0.80078 0.80078 1.6016 0.80078 3.1992v8h16v-8.8008c0-12.801-10.398-23.199-23.199-23.199h-62.398l-16-10.398 5.5977-12v-25.602c0-13.602-10.398-24-24-24h-16c-13.602 0-24 10.398-24 24v4l-17.602 4 3.1992 16 14.402-3.1992v6.3984l2.3984 2.3984-13.602 6.3984c-8 4-13.602 12-13.602 21.602v66.398l-22.398 16.801c-5.6016 4-8 12-4.8008 19.199l-3.9961 0.003906c-22.398 0-40 17.602-40 40v72l7.1992 56h-71.199v19.199l8 8v20.801h-56v27.199l8 8v28.801h-8v16h480v-16h-8v-28.801zm-104-211.2h-24l5.6016-26.398 18.398 12zm0.80078-93.602c1.6016-1.6016 3.1992-2.3984 5.6016-2.3984h25.598v72c0 4-2.3984 7.1992-5.6016 8l-10.398-7.1992v-32.801h-16v22.398l-9.6016-6.3984c-7.1992-4.8008-17.602-3.1992-22.398 4.8008-0.80078 1.6016-1.6016 4-2.3984 5.6016l-5.6016 29.598h-12l-17.602-23.199zm-88.801 77.602h4l19.199 25.602c3.1992 4 8 6.3984 12.801 6.3984h8.8008l-1.6016 9.6016c-1.6016 6.3984-4.8008 12-10.398 15.199l-16 10.398-8 84.801h-1.6016l-5.6016-58.398c-0.80078-7.1992-4.8008-13.602-10.398-17.602 6.3984-8 5.6016-19.199-1.6016-26.398l-2.3984-1.6016 8.8008-8.8008c8-8 9.6016-21.602 2.3984-31.199l-7.1992-9.6016c3.1992 0.80078 5.6016 1.6016 8.8008 1.6016zm-97.602 152-6.3984-32.801v-23.199c0-4.8008 3.1992-8 8-8h73.602c4 0 7.1992 3.1992 8 7.1992l5.6016 56.801zm56.801-172 25.602 36h-14.398c-0.80078-1.6016-2.3984-3.1992-3.1992-4.8008l-20.004-19.199zm18.402 80.801c1.6016 1.6016 1.6016 4 0 5.6016-1.6016 1.6016-4 1.6016-5.6016 0l-13.602-10.398c-1.6016-1.6016-2.3984-4-0.80078-5.6016l10.398-13.602c0.80078-1.6016 2.3984-3.1992 2.3984-4.8008h9.6016l-16 16zm-41.602-57.602 19.199 19.199c1.6016 1.6016 1.6016 4 0 5.6016l-7.1992 9.6016-30.398-15.199zm99.199-115.2h10.398l-53.598 59.199v-35.199h12.801c4 0 8-1.6016 11.199-4.8008zm-99.199-64c0-4.8008 3.1992-8 8-8h16c2.3984 0 4 0.80078 5.6016 2.3984zm32 9.6016v12l-4.8008 10.398h-16l-11.199-11.199v-4zm-56 122.4v-74.398c0-3.1992 1.6016-5.6016 4.8008-7.1992l17.602-8.8008 6.3984 6.3984h24.801l24 16h23.199l-8 8h-12.801c-8.8008 0-16 7.1992-16 16v64 0.80078l-8-12v-3.1992-57.602h-16v57.602c0 2.3984-0.80078 4-2.3984 5.6016l-44.801 44.801-22.398-33.602zm-72 139.2v-71.199c0-13.602 10.398-24 24-24h14.398l20 30.398 42.398 21.602c-0.80078 7.1992 2.3984 14.398 8 18.398l3.2031 1.6016h-48c-7.1992 0-14.398 3.1992-19.199 9.6016l-13.602-13.602c-4.8008-4.8008-7.1992-10.398-7.1992-16.801v-27.199h-16v26.398c0 10.398 4 20.801 12 28l20 20v21.602l6.3984 32h-14.398v-35.199c0-4.8008-1.6016-9.6016-4-13.602l-13.602-20-13.602 8.8008 13.602 20c0.80078 1.6016 1.6016 3.1992 1.6016 4.8008v35.199h-8.8008zm-60.801 72.801h345.6l-4.8008 4.8008v27.199h-336v-27.199zm-43.199 96v-35.199l-8-8v-4.8008h448v4.8008l-8 8v35.199z"/>
  <path d="m80 448h16v24h-16z"/>
  <path d="m128 448h16v24h-16z"/>
  <path d="m176 448h16v24h-16z"/>
  <path d="m224 448h16v24h-16z"/>
  <path d="m272 448h16v24h-16z"/>
  <path d="m320 448h16v24h-16z"/>
  <path d="m368 448h16v24h-16z"/>
  <path d="m416 448h16v24h-16z"/>
  <path d="m104 392h16v16h-16z"/>
  <path d="m152 392h16v16h-16z"/>
  <path d="m200 392h16v16h-16z"/>
  <path d="m248 392h16v16h-16z"/>
  <path d="m296 392h16v16h-16z"/>
  <path d="m344 392h16v16h-16z"/>
  <path d="m392 392h16v16h-16z"/>
  <path d="m392 152h16v16h-16z"/>
 </g>
</svg>
