<?xml version="1.0" encoding="UTF-8"?>
<svg width="512pt" height="512pt" version="1.1" viewBox="0 0 512 512" xmlns="http://www.w3.org/2000/svg">
 <g fill="#443f3c">
  <path d="m504 288c0-10.414-6.7109-19.215-16-22.527v-50.953c9.2891-3.3125 16-12.113 16-22.527 0-10.414-6.7109-19.215-16-22.527v-89.465c0-4.4258-3.5742-8-8-8h-32v-32h16v-16h-16v-16h-16v16h-16v16h16v32h-32c-4.4258 0-8 3.5742-8 8v89.473c-9.2891 3.3125-16 12.113-16 22.527s6.7109 19.215 16 22.527v50.953c-9.2891 3.3125-16 12.113-16 22.527 0 10.414 6.7109 19.215 16 22.527v17.465l-48-36v-100c0-3.0312-1.7109-5.8008-4.4258-7.1602l-27.574-13.785v-59.055c0-3.0312-1.7109-5.8008-4.4258-7.1602l-48-24c-2.2461-1.1289-4.9023-1.1289-7.1602 0l-48 24c-2.7031 1.3594-4.4141 4.1289-4.4141 7.1602v59.055l-27.574 13.793c-2.7148 1.3516-4.4258 4.1211-4.4258 7.1523v100l-48 36v-17.48c9.2891-3.3125 16-12.113 16-22.527 0-10.414-6.7109-19.215-16-22.527v-50.953c9.2891-3.3125 16-12.113 16-22.527s-6.7109-19.215-16-22.527v-89.457c0-4.4258-3.5742-8-8-8h-32v-32h16v-16h-16v-16h-16v16h-16v16h16v32h-32c-4.4258 0-8 3.5742-8 8v89.473c-9.2891 3.3125-16 12.113-16 22.527s6.7109 19.215 16 22.527v50.953c-9.2891 3.3047-16 12.105-16 22.52s6.7109 19.215 16 22.527v177.47h-16v16h496v-16h-16v-177.47c9.2891-3.3125 16-12.113 16-22.527zm-32-72v48h-64v-48zm-40-72v24h-24v-48h64v48h-24v-24zm40-56v16h-64v-16zm-72 96h80c4.4141 0 8 3.5859 8 8s-3.5859 8-8 8h-80c-4.4141 0-8-3.5859-8-8s3.5859-8 8-8zm0 96h80c4.4141 0 8 3.5859 8 8s-3.5859 8-8 8h-80c-4.4141 0-8-3.5859-8-8s3.5859-8 8-8zm-219.2 22.398c2.0156-1.5039 3.1992-3.8789 3.1992-6.3984v-99.055l27.574-13.793c2.7148-1.3516 4.4258-4.1211 4.4258-7.1523v-59.055l40-20 40 20v59.055c0 3.0312 1.7109 5.8008 4.4258 7.1602l27.574 13.785v99.055c0 2.5117 1.1836 4.8867 3.1992 6.3984l60.801 45.602v140h-24v-56c0-61.762-50.238-112-112-112s-112 50.238-112 112v56h-24v-140zm139.2 185.6h-128v-56c0-35.289 28.711-64 64-64s64 28.711 64 64zm-64-136c-44.113 0-80 35.887-80 80v56h-16v-56c0-52.938 43.062-96 96-96s96 43.062 96 96v56h-16v-56c0-44.113-35.887-80-80-80zm-152-136v48h-64v-48zm-40-72v24h-24v-48h64v48h-24v-24zm40-56v16h-64v-16zm-72 96h80c4.4141 0 8 3.5859 8 8s-3.5859 8-8 8h-80c-4.4141 0-8-3.5859-8-8s3.5859-8 8-8zm0 96h80c4.4141 0 8 3.5859 8 8s-3.5859 8-8 8h-80c-4.4141 0-8-3.5859-8-8s3.5859-8 8-8zm8 32h64v176h-64zm368 176v-176h64v176z"/>
  <path d="m240 192h32c4.4258 0 8-3.5742 8-8v-32c0-13.23-10.77-24-24-24s-24 10.77-24 24v32c0 4.4258 3.5742 8 8 8zm8-40c0-4.4141 3.5859-8 8-8s8 3.5859 8 8v24h-16z"/>
  <path d="m208 288h32c4.4258 0 8-3.5742 8-8v-32c0-13.23-10.77-24-24-24s-24 10.77-24 24v32c0 4.4258 3.5742 8 8 8zm8-40c0-4.4141 3.5859-8 8-8s8 3.5859 8 8v24h-16z"/>
  <path d="m264 248v32c0 4.4258 3.5742 8 8 8h32c4.4258 0 8-3.5742 8-8v-32c0-13.23-10.77-24-24-24s-24 10.77-24 24zm16 0c0-4.4141 3.5859-8 8-8s8 3.5859 8 8v24h-16z"/>
 </g>
</svg>
