<?xml version="1.0" encoding="UTF-8"?>
<svg width="512pt" height="512pt" version="1.1" viewBox="0 0 512 512" xmlns="http://www.w3.org/2000/svg">
 <g fill="#443f3c">
  <path d="m232 176h16v16h-16z"/>
  <path d="m264 176h16v16h-16z"/>
  <path d="m272 448c0 8.2734-13.734 14.785-18.543 16.414l2.543 7.5859 2.5273 7.5938c3.0156-1.0078 29.473-10.434 29.473-31.594 0-11.664 12.336-24 24-24v-16c-20.559 0-40 19.441-40 40z"/>
  <path d="m332.23 400.95 3.7695 7.0547 3.5742 7.1602c2.0898-1.0469 20.426-11.258 20.426-47.16h-16c0 25.91-11.289 32.664-11.77 32.945z"/>
  <path d="m472 360c-19.902 0-33.574-4.2227-46.809-8.3125-10.938-3.375-22.352-6.7031-36.273-7.3984-6.2148-26.184-23.098-59.984-60.93-77.176v-45.535l-16.754-25.129-7.6641-22.984c-1.6797-5.0312-4.2891-9.5195-7.4961-13.473h7.9258v-16h-10.801l-24.887-56h11.688v-15.992h-16v-16h8v-16h-8v-32h-16v32h-8v16h8v16h-16v16h11.688l-24.887 56h-10.801v16h7.9023c-3.1992 3.9531-5.8164 8.4414-7.4961 13.473l-7.6641 22.984-16.742 25.117v45.289c-19.953 7.6328-29.457 18.895-38.656 32.695-10.855 16.289-17.344 41.875-17.344 68.441 0 25.824 5.4336 44.566 17.602 60.801 3.7617 5.0156 7.1836 11.824 10.809 19.031 11.902 23.703 28.215 56.168 75.59 56.168 41.207 0 54.559-8.6406 74.762-21.711 8.6719-5.6172 18.512-11.977 32.816-19.129 52.422-26.215 52.422-71.062 52.422-95.16 0-2.2656-0.12891-4.8242-0.38281-7.5586 10.297 0.92969 19.078 3.5195 28.855 6.543 13.688 4.2227 29.199 9.0156 51.527 9.0156h32v-16zm-176-102.21v-25.793h16v29.23c-5.0234-1.4219-10.367-2.5742-16-3.4375zm-48-25.793v24.52c-5.6562 0.23047-11.008 0.55078-16 0.96094v-25.48zm16 0h16v24.207c-2.6172-0.11719-5.2656-0.20703-8-0.20703-2.8008 0-5.3359 0.0625-8 0.097656zm-8-132.3 19.688 44.305h-39.391zm-41.344 104.75 8.9375-25.902c3.6953-11.09 14.023-18.539 25.703-18.539h13.406c11.68 0 22.008 7.4492 25.703 18.527l8 24 8.793 13.473h-98.254zm-14.656 27.559h16v27.168c-5.8867 0.81641-11.129 1.8242-16 2.9453zm132.43 216.84c-15.098 7.5508-25.777 14.457-34.352 20.008-19.082 12.352-29.586 19.152-66.074 19.152-37.504 0-49.602-24.07-61.297-47.344-3.9531-7.8633-7.6797-15.297-12.305-21.457-9.957-13.277-14.398-29.062-14.398-51.199 0-23.176 5.6172-46 14.656-59.559 13.031-19.555 24.297-36.441 113.34-36.441 102.82 0 104 95.039 104 96 0 23.512 0 59.055-43.574 80.84z"/>
  <path d="m176 376h16v16h-16z"/>
  <path d="m281.14 288.08-2.2656 15.832c49.281 7.0391 57 40.297 57.305 41.703l15.672-3.1914c-0.375-1.8555-9.8164-45.637-70.711-54.344z"/>
  <path d="m193.32 406.24-15.609 3.5195c4.2305 18.734 18.648 63.07 60.977 70.129l2.6328-15.785c-32.762-5.4453-44.488-42.277-48-57.863z"/>
 </g>
</svg>
