<?xml version="1.0" encoding="UTF-8"?>
<svg width="512pt" height="512pt" version="1.1" viewBox="0 0 512 512" xmlns="http://www.w3.org/2000/svg">
 <g fill="#443f3c">
  <path d="m506.25 139.23c-29.258-15.672-102.92-30.824-176.07-36.051v-0.52344c0-3.1328 2.0898-6.2695 5.7461-9.4023 2.0898-2.0898 2.6133-5.2227 0.52344-7.8359-2.0898-2.0898-5.2227-2.6133-7.8359-0.52344-6.2695 5.2227-9.4023 10.973-9.4023 17.242-5.7461 0-12.016-0.52344-18.285-0.52344 0.52344-2.6133 2.0898-5.2227 5.2227-8.3594 2.0898-2.0898 2.6133-5.2227 0.52344-7.8359-2.0898-2.0898-5.2227-2.6133-7.8359-0.52344-5.7461 4.7031-8.8828 10.449-9.4023 16.195h-18.809v-1.043c0-3.1328 2.0898-6.2695 5.7461-9.4023 2.0898-2.0898 2.6133-5.2227 0.52344-7.8359-2.0898-2.0898-5.2227-2.6133-7.8359-0.52344-6.2695 5.2227-9.4023 11.492-9.4023 17.762v1.043h-5.7461l-1.5664-2.6133c-1.0547-2.0898-4.1875-3.1328-6.8008-1.5664-2.0898 1.043-3.1328 3.1328-2.6133 5.2227h-1.043c0-0.52344-0.52344-1.5664-0.52344-2.0898 0-3.1328 2.0898-6.2695 5.7461-9.4023 2.0898-2.0898 2.6133-5.2227 0.52344-7.8359-2.0898-2.0898-5.2227-2.6133-7.8359-0.52344-6.2695 5.2227-9.4023 11.492-9.4023 17.762 0 1.043 0 2.0898 0.52344 3.1328-6.2695 0.52344-12.539 1.5664-18.809 2.6133-0.52344-1.043-0.52344-2.0898-0.52344-2.6133 0-3.1328 2.0898-6.2695 5.7461-9.4023 2.0898-2.0898 2.6133-5.2227 0.52344-7.8359-2.0898-2.0898-5.2227-2.6133-7.8359-0.52344-6.2695 5.2227-9.4023 11.492-9.4023 17.762 0 1.5664 0.52344 3.1328 0.52344 4.7031-1.043 0.52344-2.6133 0.52344-3.6562 1.043-5.7461 1.043-10.449 2.0898-14.629 3.1328-0.52344-1.043-0.52344-2.0898-0.52344-3.1328 0-3.1328 2.0898-6.2695 5.7461-9.4023 2.0898-2.0898 2.6133-5.2227 0.52344-7.8359-2.0898-2.0898-5.2227-2.6133-7.8359-0.52344-6.2695 5.2227-9.4023 11.492-9.4023 17.762 0 2.0898 0.52344 3.6562 1.043 5.2227-5.7461 1.043-10.449 2.0898-14.629 2.6133-1.5664 0.52344-3.1328 0.52344-4.7031 1.043-0.52344-1.043-0.52344-2.0898-0.52344-3.1328 0-3.1328 2.0898-6.2695 5.7461-9.4023 2.0898-2.0898 2.6133-5.2227 0.52344-7.8359-2.0898-2.0898-5.2227-2.6133-7.8359-0.52344-6.2695 5.2227-9.4023 11.492-9.4023 17.762 0 2.0898 0.52344 3.6562 1.043 5.7461-7.3125 2.6133-10.449 6.2695-16.719 15.672-4.1797 6.793-11.492 18.285-27.168 37.094-50.68 59.566-88.297 66.359-88.82 66.359-4.1797 0.52344-7.8359 3.6562-8.8828 8.3594-2.6133 9.9258-1.5664 32.391 18.809 43.887 8.8828 4.7031 20.375 8.8828 32.391 12.539 21.941 7.3125 47.02 15.152 59.559 31.348l43.363 89.34c1.5664 3.6562 5.7461 6.2695 9.9258 6.2695h0.52344c4.1797 0 7.8359-2.6133 9.4023-6.793l20.898-52.246c21.422 3.1328 42.84 3.6562 61.125 3.6562 13.582 0 25.602-0.52344 32.914-1.043 30.301-1.5664 83.07-7.3125 91.949-22.988 7.8359-13.582 8.8828-35.004 2.0898-53.812 0-0.52344-0.52344-1.043-0.52344-1.5664l34.48 13.582c1.043 0.52344 2.6133 0.52344 3.6562 0.52344s1.5664 0 2.6133-0.52344h1.0469c11.492-3.1328 19.332-9.4023 24.031-19.332 13.062-29.781-14.629-80.457-18.285-86.203-2.6133-4.1797-7.3125-6.2695-12.016-5.2227l-33.43 7.3125c7.8359-11.492 12.016-23.512 11.492-36.051-0.52344-16.719-8.8828-30.301-17.762-40.23 51.723 6.793 97.176 17.762 117.55 28.211 5.2227 2.6133 12.016 0.52344 14.629-4.7031 2.0898-5.2188 0-11.488-5.2227-14.621zm-404.38 62.168v98.742c-8.3594-4.7031-17.242-8.3594-26.121-11.492v-62.695c7.8359-6.2656 16.715-14.625 26.121-24.555zm-71.578 71.055c-6.793-3.6562-8.3594-9.4023-8.8828-14.105 8.8828-3.1328 24.031-9.4023 43.363-23.512l0.003906 50.156c-2.0898-0.52344-3.6562-1.043-5.7461-2.0898-10.973-3.1367-21.422-6.2695-28.738-10.449zm133.23 120.69-16.195-33.438c8.3594 3.1328 17.242 5.7461 26.121 7.8359zm265.93-111.8c-1.043 2.0898-2.6133 4.7031-7.3125 6.793l-3.1328-1.043c2.6133-17.242-3.1328-46.496-7.3125-64.262l4.7031-1.043c9.3984 18.281 19.324 46.492 13.055 59.555zm-84.113-152.04c0.52344 0 29.258 18.285 30.301 42.32 0.52344 14.629-9.9258 30.301-30.824 45.453-4.1797 3.1328-5.7461 8.3594-3.6562 13.062s7.3125 7.3125 12.016 6.2695l48.066-10.973c5.2227 22.465 8.8828 45.977 7.8359 57.992l-59.559-23.512c-0.52344 0-1.043 0-1.5664-0.52344-1.043 0-1.5664-0.52344-2.6133-0.52344-0.52344 0-1.043 0-1.5664 0.52344-0.52344 0-1.5664 0-2.0898 0.52344-0.52344 0.52344-1.5664 1.043-2.0898 1.5664s-1.043 0.52344-1.5664 1.043c-0.52344 0.52344-1.043 1.043-1.043 2.0898-0.52344 0.52344-1.043 1.043-1.043 1.5664 0 0.52344 0 1.043-0.52344 1.5664 0 1.043-0.52344 1.5664-0.52344 2.6133 0 0.52344 0.52344 1.5664 0.52344 2.0898s0 1.5664 0.52344 2.0898c0.52344 0.52344 1.043 1.043 1.043 2.0898 0.52344 0.52344 0.52344 1.043 1.043 1.5664 0.52344 0.52344 1.043 0.52344 1.5664 1.043 0.52344 0.52344 1.043 1.043 1.5664 1.043 13.582 5.2227 19.852 16.719 22.465 25.602 4.7031 13.582 3.6562 27.691 0 35.004-10.973 7.8359-87.25 19.332-158.82 10.973-38.66-4.7031-65.305-14.629-75.234-27.691-4.7031-6.2695-10.449-11.492-16.719-16.195v-118.59l3.1328-3.1328c16.719-20.375 24.555-32.391 28.734-39.184 4.1797-6.793 4.7031-7.3125 14.629-8.8828-6.793 16.195-27.691 41.273-41.797 55.902-2.0898 2.0898-2.0898 5.7461 0 7.8359 1.043 1.043 2.6133 1.5664 3.6562 1.5664 1.5664 0 2.6133-0.52344 3.6562-1.5664 4.7031-4.7031 39.707-40.75 45.977-65.305 5.2227-1.043 10.973-2.0898 18.285-3.6562-25.594 59.559-70.004 78.887-70.523 78.887-2.6133 1.043-4.1797 4.1797-3.1328 6.793 1.043 2.0898 2.6133 3.1328 4.7031 3.1328 0.52344 0 1.5664 0 2.0898-0.52344 2.0898-1.043 51.723-22.465 78.891-92.473h0.52344c6.2695-1.5664 13.582-2.6133 20.898-3.6562-11.492 47.02-70.008 86.727-70.531 87.25-2.6133 1.5664-3.1328 5.2227-1.5664 7.3125 1.043 1.5664 2.6133 2.6133 4.7031 2.6133 1.043 0 2.0898-0.52344 3.1328-1.043 1.5664-1.043 28.211-19.332 50.156-45.453l13.062 22.988c-3.1328 1.5664-6.2695 2.6133-9.4023 4.1797l-4.1797-7.3125c-1.5664-2.6133-4.7031-3.6562-7.3125-2.0898-2.6133 1.5664-3.6562 4.7031-2.0898 7.3125l3.6562 6.2695c-35.004 16.719-54.336 29.781-56.945 39.707-1.043 4.1797-1.043 7.8359 1.043 11.492 3.1328 5.2227 9.9258 6.793 14.629 3.6562 3.1328-2.0898 5.2227-5.2227 5.2227-8.8828 6.793-6.793 34.48-21.422 60.605-33.438 7.8359 17.242 15.152 39.707 10.449 49.109-1.043 1.5664-2.6133 3.6562-7.3125 4.7031-33.973 6.2695-46.512 1.0469-46.512 1.0469-5.2227-2.6133-12.016-0.52344-14.629 4.7031-2.6133 5.2227-0.52344 12.016 4.7031 14.629 2.0898 1.043 9.4023 4.1797 26.645 4.1797h2.0898l14.105 24.555c1.043 1.5664 2.6133 2.6133 4.7031 2.6133 1.043 0 2.0898 0 2.6133-0.52344 2.6133-1.5664 3.6562-4.7031 2.0898-7.3125l-11.496-19.855c3.6562-0.52344 7.3125-0.52344 10.973-1.5664l15.152 26.121c1.043 1.5664 2.6133 2.6133 4.7031 2.6133 1.043 0 1.5664 0 2.6133-0.52344 2.6133-1.5664 3.6562-4.7031 2.0898-7.3125l-13.062-22.988c4.1797-1.043 7.8359-3.1328 10.449-5.2227l18.809 33.438c1.043 1.5664 2.6133 2.6133 4.7031 2.6133 1.043 0 2.0898 0 2.6133-0.52344 2.6133-1.5664 3.6562-4.7031 2.0898-7.3125l-20.898-36.051c0.52344-1.043 1.043-1.5664 1.043-2.0898 1.5664-3.6562 2.6133-7.8359 3.1328-12.539l32.391 55.375c1.043 1.5664 2.6133 2.6133 4.7031 2.6133 1.043 0 2.0898 0 2.6133-0.52344 2.6133-1.5664 3.6562-4.7031 2.0898-7.3125l-43.887-76.277c-4.7031-17.762-13.062-34.48-15.672-39.184-2.0898-3.6562-5.7461-5.7461-9.9258-5.7461l-14.633-25.078c-0.52344-1.043-1.5664-1.5664-2.6133-2.0898 3.1328-4.1797 5.7461-8.3594 8.3594-12.539l84.113 147.33c1.043 1.5664 2.6133 2.6133 4.7031 2.6133 1.043 0 2.0898 0 2.6133-0.52344 2.6133-1.5664 3.6562-4.7031 2.0898-7.3125l-87.25-154.12c2.0898-4.1797 3.1328-8.3594 4.7031-12.539l87.77 153.08c1.043 1.5664 2.6133 2.6133 4.7031 2.6133 1.043 0 2.0898 0 2.6133-0.52344 2.6133-1.5664 3.6562-4.7031 2.0898-7.3125l-88.816-154.64c4.1797-0.52344 8.3594-0.52344 13.062-0.52344l65.828 114.94c1.043 1.5664 2.6133 2.6133 4.7031 2.6133 1.043 0 2.0898 0 2.6133-0.52344 2.6133-1.5664 3.6562-4.7031 2.0898-7.3125l-62.695-109.71c24.031-0.52344 49.633 1.043 75.234 3.1328 0.51953 0.51953 1.5625 1.5664 3.1328 2.6094z"/>
  <path d="m100.31 240.07c0 6.3477-5.1445 11.492-11.492 11.492s-11.492-5.1445-11.492-11.492 5.1445-11.496 11.492-11.496 11.492 5.1484 11.492 11.496"/>
  <path d="m343.25 185.21c12.539 0 22.465-9.9258 22.465-22.465 0-12.539-9.9258-22.465-22.465-22.465s-22.465 9.9258-22.465 22.465c0 12.539 9.9258 22.465 22.465 22.465zm0-34.48c6.2695 0 11.492 5.2227 11.492 11.492s-5.2227 11.492-11.492 11.492-11.492-5.2227-11.492-11.492c-0.003906-6.2695 5.2227-11.492 11.492-11.492z"/>
 </g>
</svg>
