<?xml version="1.0" encoding="UTF-8"?>
<svg width="512pt" height="512pt" version="1.1" viewBox="0 0 512 512" xmlns="http://www.w3.org/2000/svg">
 <g fill="#443f3c">
  <path d="m120 424h16v16h-16z"/>
  <path d="m152 424h16v16h-16z"/>
  <path d="m184 424h16v16h-16z"/>
  <path d="m216 424h16v16h-16z"/>
  <path d="m248 424h16v16h-16z"/>
  <path d="m280 424h16v16h-16z"/>
  <path d="m312 424h16v16h-16z"/>
  <path d="m344 424h16v16h-16z"/>
  <path d="m376 424h16v16h-16z"/>
  <path d="m453.6 229.6 21.602-21.602h20.797v-16h-23.199c-12.801 0-25.602-1.6016-37.602-4.8008l-0.80078-0.80078-0.80078 0.80078c-8-2.3984-16-4.8008-23.199-8-12-5.6016-23.199-12-33.602-20.801l-80.797-66.398v-20h-11.199l-28.801-57.602-28.801 57.602h-11.199v20l-80.801 65.602c-10.398 8-21.602 15.199-33.602 20.801-7.1992 3.1992-15.199 6.3984-23.199 8l-0.80078-0.80078-0.80078 0.80078c-11.996 3.9961-24.797 5.5977-37.598 5.5977h-23.199v16h20.801l21.602 21.602 11.199-11.199-11.199-11.199c4.8008-0.80078 10.398-1.6016 15.199-2.3984l17.602 17.602 11.199-11.199-11.203-11.207c2.3984-0.80078 4.8008-1.6016 7.1992-2.3984l16 16 11.199-11.199-12-12c2.3984-0.80078 4-2.3984 6.3984-3.1992l10.398 10.398 11.199-11.199-8-8c1.6016-1.6016 3.1992-2.3984 5.6016-4l7.1992 7.1992 11.199-11.199-5.5938-5.6016 9.6016-8 8.8008 8.8008 11.199-11.199-7.1992-7.1992 36-29.602-61.602 86.398c-30.402 42.398-80 68-132.8 68v16h11.199l13.602 20.801 13.602-8.8008-9.6016-14.398c5.6016-0.80078 10.398-2.3984 16-3.1992l12 18.398 13.602-8.8008-9.6016-14.398c4.8008-1.6016 9.6016-4 13.602-5.6016l6.3984 12 14.398-7.1992-6.3984-12.801c4-2.3984 7.1992-4 10.398-6.3984l4.8008 10.398 14.398-7.1992-5.5977-12.801c2.3984-1.6016 4-3.1992 6.3984-5.6016l11.199 11.199 11.199-11.199-11.199-11.199c3.1992-3.1992 5.6016-6.3984 8-9.6016l7.1992 7.1992 11.199-11.199-9.6016-9.6016 7.1992-10.398 6.3984 6.3984 11.199-11.199-8.8008-8.8008 7.1992-10.398 5.6016 5.6016 11.199-11.199-8-8 4-5.6016 8.8008 8.8008 4.8008-4.8008-12.793 48v17.602h-8v40h8v24.801c-52.801 7.1992-96 47.199-106.4 100l-12 59.199h-57.602v32h-8v16h480v-16h-8v-32h-57.602l-12-59.199c-10.398-52.801-53.598-92.801-106.4-100v-24.801h8v-40h-8v-17.602l-15.199-46.398 4.8008 4.8008 8.8008-8.8008 4 5.6016-8 8 11.199 11.199 5.6016-5.6016 7.1992 10.398-8.8008 8.8008 11.199 11.199 6.3984-6.3984 7.1992 10.398-9.6016 9.6016 11.199 11.199 7.1992-7.1992c2.3984 3.1992 5.6016 6.3984 8 9.6016l-11.199 11.199 11.199 11.199 11.199-11.199c2.3984 1.6016 4 4 6.3984 5.6016l-6.3984 12.801 14.398 7.1992 4.8008-10.398c3.1992 2.3984 7.1992 4.8008 10.398 6.3984l-6.3984 12 14.398 7.1992 6.3984-12c4.8008 2.3984 8.8008 4 13.602 5.6016l-9.6016 14.398 13.602 8.8008 12-18.398c5.6016 1.6016 10.398 2.3984 16 3.1992l-9.6016 14.398 13.602 8.8008 13.602-20.801h11.199v-16c-52.801 0-102.4-25.602-132.8-68l-61.602-86.398 36 29.602-7.1992 7.1992 11.199 11.199 8.8008-8.8008 9.6016 8-5.6016 5.6016 11.199 11.199 7.1992-7.1992c1.6016 1.6016 3.1992 2.3984 5.6016 4l-8 8 11.199 11.199 10.398-10.398c2.3984 0.80078 4 2.3984 6.3984 3.1992l-12 12 11.199 11.199 16-16c2.3984 0.80078 4.8008 1.6016 7.1992 2.3984l-10.398 10.398 11.199 11.199 17.602-17.602c4.8008 0.80078 9.6016 1.6016 15.199 2.3984l-11.199 11.199zm-221.6-125.6v-16h48v16zm24-54.398 11.199 22.398h-22.398zm-44.801 94.398 16.801-24h0.80078l-10.398 31.199zm92.801 96v8h-96v-8zm-264 224h104v16h-104zm304 0v16h-184v-16zm128 16h-112v-16h112zm-68.801-88 11.199 56h-316.8l11.199-56c10.398-51.199 55.199-88 107.2-88h80c52 0 96.801 36.801 107.2 88zm-107.2-104h-80v-24h80zm-80-64v-14.398l29.602-89.602h20.801l29.598 89.602v14.398zm77.602-72.801-10.402-31.199h0.80078l16.801 24z"/>
 </g>
</svg>
