<?xml version="1.0" encoding="UTF-8"?>
<svg width="512pt" height="512pt" version="1.1" viewBox="0 0 512 512" xmlns="http://www.w3.org/2000/svg">
 <g fill="#443f3c">
  <path d="m265.74 278.22h-19.48 0.003907c-4.4219 0-8 3.582-8 8v39.898c0 2.1211 0.83984 4.1562 2.3398 5.6562s3.5352 2.3438 5.6602 2.3438h19.48-0.003907c2.125 0 4.1602-0.84375 5.6602-2.3438s2.3398-3.5352 2.3398-5.6562v-39.898c0-2.1211-0.83984-4.1562-2.3398-5.6562s-3.5352-2.3438-5.6602-2.3438zm-4 43.895h-11.48l0.003907-31.895h11.48z"/>
  <path d="m189.55 367.69h-19.48c-4.418 0-8 3.582-8 8v39.914c0 2.1211 0.84375 4.1562 2.3438 5.6562s3.5352 2.3438 5.6562 2.3438h19.48c2.1211 0 4.1562-0.84375 5.6562-2.3438 1.5039-1.5 2.3438-3.5352 2.3438-5.6562v-39.914c0-2.1211-0.83984-4.1562-2.3438-5.6562-1.5-1.5-3.5352-2.3438-5.6562-2.3438zm-4 43.895h-11.48v-31.895h11.48z"/>
  <path d="m322.45 423.6h19.48c2.1211 0 4.1562-0.84375 5.6562-2.3438s2.3438-3.5352 2.3438-5.6562v-39.914c0-2.1211-0.84375-4.1562-2.3438-5.6562s-3.5352-2.3438-5.6562-2.3438h-19.48c-4.418 0-8 3.582-8 8v39.914c0 2.1211 0.83984 4.1562 2.3438 5.6562 1.5 1.5 3.5352 2.3438 5.6562 2.3438zm4-43.895h11.48v31.895h-11.48z"/>
  <path d="m475.4 369.72-117.2-98.703 24.996-28.59c2.3555-2.8008 3.3984-6.4766 2.8633-10.094-0.53516-3.6211-2.5977-6.8359-5.6641-8.832-14.184-9.6719-27.457-20.617-39.652-32.699l132.93-132.93c3.5742-3.5352 3.6055-9.2969 0.078124-12.875l-21.359-21.352c0.10156-0.53906 0.15625-1.0859 0.16016-1.6367 0.015625-2.5508-0.99219-5-2.7969-6.8008l-6.3984-6.3984h-0.003906c-3.7578-3.7539-9.8438-3.7539-13.598 0l-132.59 132.61c-13.172-17.098-24.074-35.828-32.441-55.723-1.4023-3.5977-4.8672-5.9648-8.7266-5.9648s-7.3242 2.3672-8.7266 5.9648c-6.3945 15.512-14.469 30.281-24.074 44.035l-141.48-119.13c-3.8281-3.2578-9.5664-2.8008-12.836 1.0195l-19.457 23.105c-3.1094-0.26953-6.1562 0.98438-8.168 3.3633l-5.8203 6.9141c-1.6484 1.9492-2.4492 4.4727-2.2305 7.0117 0.21484 2.543 1.4375 4.8906 3.3906 6.5312l144.85 121.98c-15.043 16.051-31.742 30.461-49.82 42.988-3.0664 1.9961-5.1289 5.2109-5.6641 8.832-0.53516 3.6172 0.50781 7.293 2.8633 10.094l17.07 20.398-107.58 107.57c-3.5703 3.5352-3.6055 9.293-0.082031 12.875l21.355 21.355h0.003906c-0.10156 0.53906-0.15625 1.0859-0.16016 1.6367-0.015625 2.5469 0.99609 4.9961 2.7969 6.7969l6.4023 6.4023c1.8008 1.8086 4.2461 2.8242 6.8008 2.8242 2.5508 0 4.9961-1.0156 6.7969-2.8242l43.68-43.68c-4.0547 13.512-9.0977 26.707-15.082 39.484l-7.4648 15.875c-1.4336 2.9141-1.2617 6.3594 0.45312 9.1172 1.7148 2.7578 4.7305 4.4336 7.9805 4.4336h1.7656l-15.773 51.305h-13.336c-3.3164 0-6 2.6875-6 6s2.6836 6 6 6h343.09-0.003906c3.3164 0 6-2.6875 6-6s-2.6836-6-6-6h-13.336l-15.777-51.332h1.7695c3.2305 0 6.2305-1.6562 7.9531-4.3867 1.7227-2.7344 1.9219-6.1562 0.52734-9.0703l-7.5117-15.973c-5.043-10.758-9.418-21.82-13.098-33.117l42.211 35.547h0.003906c1.6562 1.3984 3.7578 2.1641 5.9258 2.1641 2.6641 0.007813 5.1914-1.1641 6.9062-3.1992l19.465-23.117c0.26953 0.023437 0.52734 0.066406 0.80078 0.066406 0.27344 0 0.55469 0 0.83594-0.03125h-0.003906c2.543-0.21094 4.8945-1.4297 6.5312-3.3867l5.8203-6.9102c1.6484-1.9492 2.4492-4.4727 2.2305-7.0156-0.21484-2.5391-1.4375-4.8906-3.3906-6.5312zm-193.26-111.5h-43.703c0.89062-2.457 1.5156-5.0078 1.8594-7.5977l1.8164-14.117 6.1523-6.1523c5.3711 2.6016 11.695 2.3242 16.824-0.73437l18 15.145c0.10547 4.5039-0.21094 9.0117-0.94922 13.457zm-19.805-44.426c0 2.5625-1.543 4.8711-3.9102 5.8516-2.3672 0.98047-5.0938 0.44141-6.9062-1.3711s-2.3555-4.5391-1.375-6.9062c0.98438-2.3672 3.293-3.9102 5.8555-3.9102 3.4961 0.003907 6.332 2.8359 6.3359 6.3359zm200.77 166.83-168.48-141.87c4.8984 0.50781 9.5312 2.4727 13.301 5.6445l157.92 132.98zm-88.934-146.54c0.035156 0.22656-0.03125 0.46094-0.1875 0.63281l-24.945 28.594-33.379-28.113c-6.1797-5.1797-13.895-8.1836-21.953-8.5391l-14.223-0.60938-6.4883-5.4609v0.003906c1.9297-4.6914 1.7695-9.9805-0.4375-14.547l16.281-16.285v0.003906c12.062 1.1914 23.82 4.4727 34.762 9.6914 1.1953 0.55859 2.5039 0.84766 3.8281 0.84766 1.6523-0.011719 3.2695-0.46875 4.6875-1.3203 12.812 12.781 26.777 24.355 41.719 34.57 0.18359 0.11719 0.30859 0.3125 0.33594 0.53125zm-47.34-46.344c-8.7148-3.9375-17.852-6.8711-27.23-8.7383l145.57-145.63 18 18zm109.73-168.75 3.0156 3.0078-155.74 155.74c0.92188-4.832 3.2734-9.2812 6.7461-12.77zm-180.56 76.953c8.7891 19.18 19.75 37.285 32.668 53.965l-6.5742 6.5742v0.003906c-5.6992 5.7148-9.3516 13.145-10.402 21.145l-1.8164 14.117-5.7148 5.7148c-5.6289-2.9297-12.387-2.6367-17.746 0.75781l-17.492-14.73c0.15234-12.117 2.4141-24.113 6.6797-35.457 1.3047-3.6211 0.21484-7.6758-2.7305-10.156l-0.52734-0.44531v0.003906c9.1719-13.059 17.09-26.949 23.656-41.492zm-179.84-74.344 147.5 124.2c-3.1875 9.0234-5.3359 18.379-6.3984 27.887l-157.51-132.61zm-27.266 26.039 8.9453 7.5273 159.53 134.34c-4.8945-0.50391-9.5273-2.4688-13.301-5.6328l-157.92-132.98zm89.105 187.08c-0.15234-0.17188-0.22266-0.40625-0.18359-0.63281 0.027344-0.21875 0.15234-0.41406 0.33984-0.53125 19.039-13.203 36.605-28.41 52.398-45.363l5.7695 4.8594c6.1836 5.1914 13.902 8.1953 21.969 8.5508l14.223 0.60547 6.3242 5.3242v-0.003906c-1.8203 4.7109-1.5156 9.9766 0.83594 14.445l-16.516 16.52c-12.062-1.1914-23.824-4.4727-34.762-9.6914-3.4961-1.6094-7.625-0.86719-10.348 1.8555l-23.652 23.648zm47.156 5.793c8.7188 3.9414 17.859 6.8711 27.242 8.7422l-145.57 145.62-18-18zm-109.71 168.75-3.0156-3.0117 155.74-155.74c-0.92578 4.8359-3.2734 9.2852-6.7461 12.773zm50.68 35.402h108.43v51.332h-124.2zm120.43 51.332v-51.332h18.895l0.003907 51.332zm155.1 0h-124.2v-51.332h108.43zm-11.344-75.652 5.7969 12.32h-280.21l5.7969-12.32c9.2422-19.695 16.34-40.332 21.164-61.547l87.051-87.031c0.49609-0.49609 0.96094-1.0234 1.4258-1.5469l48.219-0.003906c-1.2305 4.5391-2.4766 8.1367-3.1641 10-1.3008 3.6211-0.21094 7.6719 2.7344 10.148l92.285 77.727c4.6875 17.957 11.016 35.449 18.902 52.254zm45.527-13.691-147.5-124.21c3.1875-9.0234 5.3359-18.379 6.3984-27.887l157.22 132.36 0.29688 0.24609z"/>
 </g>
</svg>
