<?xml version="1.0" encoding="UTF-8"?>
<svg width="512pt" height="512pt" version="1.1" viewBox="0 0 512 512" xmlns="http://www.w3.org/2000/svg">
 <g fill="#443f3c">
  <path d="m473.24 425.47-180.94-183.86c-2.0625-2.1133-4.9375-3.2344-7.8867-3.0742-2.9336 0.16406-5.6562 1.582-7.4727 3.8945-13.047 16.672-33.051 26.398-54.223 26.367-6.5547 0.058594-13.086-0.80469-19.402-2.5625-3.6445-1.0781-7.5859-0.054687-10.242 2.6641l-154.32 156.57c-2.8867 2.9453-3.7266 7.3359-2.125 11.137 1.5977 3.8008 5.3242 6.2734 9.4453 6.2695h419.84c4.1211 0.003906 7.8477-2.4688 9.4453-6.2695 1.6016-3.8008 0.76172-8.1914-2.125-11.137zm-402.74-3.0703 133.12-135.22-0.003906-0.003906c29.516 6.5586 60.348-2.2656 81.922-23.449l156.16 158.72z"/>
  <path d="m156.16 197.12c16.973 0 33.254-6.7422 45.254-18.746 12.004-12.004 18.746-28.281 18.746-45.254 0-16.977-6.7422-33.254-18.746-45.258-12-12-28.281-18.742-45.254-18.742s-33.254 6.7422-45.254 18.742c-12.004 12.004-18.746 28.281-18.746 45.258 0.027344 16.965 6.7773 33.227 18.773 45.223s28.262 18.75 45.227 18.777zm0-107.52c11.543 0 22.613 4.582 30.773 12.746 8.1602 8.1602 12.746 19.23 12.746 30.773 0 11.543-4.5859 22.609-12.746 30.773-8.1602 8.1602-19.23 12.746-30.773 12.746-11.543 0-22.613-4.5859-30.773-12.746-8.1602-8.1641-12.746-19.23-12.746-30.773 0.011719-11.539 4.6016-22.602 12.762-30.758 8.1562-8.1602 19.219-12.75 30.758-12.762z"/>
 </g>
</svg>
