<?xml version="1.0" encoding="UTF-8"?>
<svg width="512pt" height="512pt" version="1.1" viewBox="0 0 512 512" xmlns="http://www.w3.org/2000/svg">
 <g fill="#443f3c">
  <path d="m104.54 16-32.543 36.984v43.016h18.105l70.258 226.4h-0.003906c2.3242 10.348 8.3242 19.5 16.887 25.754-3.6367 5.2109-6.5586 10.895-8.6797 16.887l-48 120c-0.98047 2.4648-0.67578 5.2539 0.8125 7.4492 1.4883 2.1953 3.9688 3.5117 6.6211 3.5117h256c2.6562 0 5.1367-1.3164 6.625-3.5117 1.4883-2.1992 1.793-4.9922 0.80859-7.457l-48-119.93v0.003907c-2.1289-6.0195-5.0625-11.727-8.7148-16.961 8.5781-6.2422 14.594-15.395 16.922-25.746l70.254-226.4h18.105v-43.016l-32.543-36.984zm7.1992 16h288.48l14.078 16h-62.301v16h72v16h-336v-16h56v-16h-46.305zm241.56 231.02c-6.0273-7.793-10.965-16.375-14.672-25.504l35.199-109.51h21.367zm-126.33 72.984 29.023-90.305 29.023 90.305zm-110.18-208h21.375l35.199 109.51c-3.707 9.1211-8.6484 17.695-14.68 25.48zm38.184 0h36.938c0.050781 28.297-3.2891 56.5-9.9531 84zm52.938 0h10.258l29.422 91.559-31.602 98.297-25.602-79.727c9.1875-24.016 16.801-59.191 17.512-110.13zm27.062 0h42.047l-21.031 65.414zm29.414 91.559 29.434-91.559h10.258c0.73438 50.938 8.3281 86.113 17.543 110.13l-25.633 79.727zm55.691-91.559h36.938l-26.988 84c-6.6602-27.504-10-55.703-9.9492-84zm80.09-16h-288.36l-4.9688-16h298.29zm-236 168.65h-0.003907c6.418-6.2578 11.887-13.422 16.23-21.266l24.617 76.617h-13.023c-6.7188 0-11.559-3.0078-16.359-18.398zm185.79 143.81 9.4141 23.543h-206.77l19.199-48h168.37zm-210.15 55.543 6.3984-16h219.57l6.3984 16zm38.398-96 5.2383-13.105c5.4336-13.949 9.7617-18.895 16.547-18.895h14.816c-2.7148 4.1914-4.8672 8.7188-6.4023 13.473l15.199 5.0547c5.8242-17.488 15.895-18.48 16.559-18.527h7.8281v16h16v-16h7.8477c0.66406 0.046875 10.734 1.0391 16.559 18.527l15.199-5.0547h0.003906c-1.5352-4.7539-3.6875-9.2812-6.4023-13.473h14.793c6.7852 0 11.113 4.9453 16.566 18.969l5.2188 13.031zm158.14-66.398c-4.8008 15.383-9.6016 18.398-16.359 18.398h-13.023l24.625-76.617c4.3438 7.8438 9.8125 15.008 16.23 21.266z"/>
  <path d="m280 424c0-6.3633-2.5273-12.469-7.0312-16.969-4.5-4.5039-10.605-7.0312-16.969-7.0312s-12.469 2.5273-16.969 7.0312c-4.5039 4.5-7.0312 10.605-7.0312 16.969s2.5273 12.469 7.0312 16.969c4.5 4.5039 10.605 7.0312 16.969 7.0312s12.469-2.5273 16.969-7.0312c4.5039-4.5 7.0312-10.605 7.0312-16.969zm-24 8c-3.2344 0-6.1523-1.9492-7.3906-4.9375-1.2383-2.9922-0.55469-6.4297 1.7344-8.7188s5.7266-2.9727 8.7188-1.7344c2.9883 1.2383 4.9375 4.1562 4.9375 7.3906 0 2.1211-0.84375 4.1562-2.3438 5.6562s-3.5352 2.3438-5.6562 2.3438z"/>
  <path d="m216 424c0-6.3633-2.5273-12.469-7.0312-16.969-4.5-4.5039-10.605-7.0312-16.969-7.0312s-12.469 2.5273-16.969 7.0312c-4.5039 4.5-7.0312 10.605-7.0312 16.969s2.5273 12.469 7.0312 16.969c4.5 4.5039 10.605 7.0312 16.969 7.0312s12.469-2.5273 16.969-7.0312c4.5039-4.5 7.0312-10.605 7.0312-16.969zm-24 8c-3.2344 0-6.1523-1.9492-7.3906-4.9375-1.2383-2.9922-0.55469-6.4297 1.7344-8.7188s5.7266-2.9727 8.7188-1.7344c2.9883 1.2383 4.9375 4.1562 4.9375 7.3906 0 2.1211-0.84375 4.1562-2.3438 5.6562s-3.5352 2.3438-5.6562 2.3438z"/>
  <path d="m344 424c0-6.3633-2.5273-12.469-7.0312-16.969-4.5-4.5039-10.605-7.0312-16.969-7.0312s-12.469 2.5273-16.969 7.0312c-4.5039 4.5-7.0312 10.605-7.0312 16.969s2.5273 12.469 7.0312 16.969c4.5 4.5039 10.605 7.0312 16.969 7.0312s12.469-2.5273 16.969-7.0312c4.5039-4.5 7.0312-10.605 7.0312-16.969zm-24 8c-3.2344 0-6.1523-1.9492-7.3906-4.9375-1.2383-2.9922-0.55469-6.4297 1.7344-8.7188s5.7266-2.9727 8.7188-1.7344c2.9883 1.2383 4.9375 4.1562 4.9375 7.3906 0 2.1211-0.84375 4.1562-2.3438 5.6562s-3.5352 2.3438-5.6562 2.3438z"/>
  <path d="m208 216h16v16h-16z"/>
  <path d="m288 216h16v16h-16z"/>
  <path d="m320 48h16v16h-16z"/>
 </g>
</svg>
