<?xml version="1.0" encoding="UTF-8"?>
<svg width="512pt" height="512pt" version="1.1" viewBox="0 0 512 512" xmlns="http://www.w3.org/2000/svg">
 <g fill="#443f3c">
  <path d="m426.14 370.23-38.582-12.887h-0.003907c8.2344-17.605 12.492-36.805 12.473-56.238v-156.91c0-73.445-59.754-133.2-133.2-133.2h-17.543c-73.445 0-133.2 59.754-133.2 133.2v156.91c-0.023437 18.945 4.0234 37.672 11.855 54.922l-42.156 14.199c-24.668 8.2383-43 24.301-54.5 47.75-9.5156 19.398-14.801 44.512-16.16 76.77-0.070313 1.6328 0.53125 3.2266 1.6641 4.4062 1.1328 1.1797 2.6992 1.8477 4.3359 1.8477h469.76c1.6211 0 3.1758-0.65625 4.3047-1.8203 1.1289-1.1602 1.7422-2.7305 1.6953-4.3516-1.9336-67.648-25.738-109.57-70.746-124.6zm-298.05-226.03c0.035156-32.133 12.816-62.938 35.535-85.66 22.723-22.723 53.527-35.504 85.66-35.539h17.543c32.137 0.035156 62.941 12.816 85.664 35.539 22.723 22.723 35.504 53.527 35.539 85.66v156.91c0 5.1602-0.32812 10.312-0.97656 15.426-43.516 18.004-80.828 24.527-111.45 19.516 7.8672-4.5312 15.25-9.8594 22.031-15.895 17.57-15.633 39.367-43.75 43.48-88.965 0.28516-2.7148 0.42578-5.4414 0.42578-8.168v-76.559c-0.023437-20.789-8.2891-40.719-22.988-55.418-14.703-14.699-34.633-22.969-55.422-22.992h-9.9883c-20.789 0.023437-40.719 8.293-55.418 22.992-14.699 14.699-22.969 34.629-22.992 55.418v76.555c0 6.3047 0.76562 12.586 2.2734 18.707 3.2812 20.039 15.711 69.266 60.148 93.773 17.152 9.457 36.918 14.188 59.301 14.184 25.957 0 55.352-6.4062 87.953-19.156h-0.003906c-6.5898 26.199-21.734 49.449-43.031 66.074-21.297 16.621-47.531 25.668-74.547 25.703h-17.543c-32.133-0.035157-62.941-12.816-85.66-35.539-22.723-22.719-35.504-53.527-35.539-85.66zm134.82-15.164c23.527 0.72266 46.477 7.4883 66.637 19.641v63.242h-142.81v-63.121c23.715-13.676 49.973-20.508 76.176-19.766zm-75.074 5.4805h-0.003907c2.8164-15.273 10.887-29.086 22.816-39.031 11.93-9.9492 26.965-15.406 42.496-15.426h9.9883c15.488 0.019531 30.48 5.4453 42.395 15.336 11.914 9.8906 20.004 23.629 22.871 38.848-20.121-10.621-42.402-16.504-65.145-17.199-26.211-0.64062-52.16 5.3672-75.422 17.469zm141.69 89.398c-0.25391 17.449-7.3555 34.102-19.777 46.359-12.418 12.258-29.16 19.141-46.613 19.16h-9.9883c-17.449-0.019532-34.191-6.9023-46.613-19.16-12.418-12.258-19.523-28.91-19.773-46.359zm-76.375 77.52h9.9883-0.003907c17.867 0.015625 35.195-6.1055 49.09-17.332-12.801 21.102-31.867 37.684-54.543 47.434-5.0859-1.7656-10.012-3.957-14.73-6.5469-18.855-10.398-31.309-25.945-39.516-41.375h0.003906c13.996 11.535 31.57 17.836 49.707 17.82zm-1.0938 187.57h-146.93v-31.555c0-3.3125-2.6836-6-6-6-3.3125 0-6 2.6875-6 6v31.555h-65.688c3.6992-61.078 23.008-94.312 62.168-107.39l43.863-14.773c11.625 20.473 28.465 37.504 48.809 49.355s43.465 18.102 67.008 18.117h2.7734zm174.05 0v-31.555c0-3.3125-2.6875-6-6-6-3.3164 0-6 2.6875-6 6v31.555h-150.05v-54.695h2.7695c47.406-0.027344 91.227-25.238 115.08-66.199l40.43 13.5c38.398 12.824 59.344 48.941 62.309 107.39z"/>
  <path d="m152.09 301.11v-60.105c0-3.3125-2.6875-6-6-6-3.3164 0-6 2.6875-6 6v60.105c-0.03125 15.355 3.207 30.539 9.5 44.543 0.64062 1.4648 1.8438 2.6133 3.3359 3.1914 1.4922 0.57422 3.1523 0.53125 4.6133-0.125 1.4609-0.65234 2.6016-1.8633 3.1641-3.3633 0.5625-1.4961 0.50391-3.1602-0.16406-4.6133-5.5977-12.461-8.4805-25.973-8.4492-39.633z"/>
  <path d="m146.09 227c3.3125 0 6-2.6875 6-6v-6.8008c0-3.3125-2.6875-6-6-6-3.3164 0-6 2.6875-6 6v6.8008c0 3.3125 2.6836 6 6 6z"/>
  <path d="m209.24 172.65c1.7773-1.2266 3.7148-2.1992 5.7578-2.8906v3.5586-0.003906c0 3.3164 2.6875 6 6 6s6-2.6836 6-6v-4.0078 0.003906c2.7969 0.87109 5.3672 2.3555 7.5195 4.3477 2.4648 2.2148 6.2578 2.0156 8.4727-0.44922 2.2148-2.4648 2.0156-6.2578-0.44922-8.4766-5.6602-5.3047-13.156-8.2109-20.914-8.1172-0.20703-0.019531-0.41797-0.03125-0.62891-0.03125-0.35156 0-0.70312 0.035157-1.0508 0.097657-6.3945 0.44141-12.551 2.6172-17.805 6.293-2.6719 1.9609-3.25 5.7188-1.2891 8.3906 1.9609 2.6719 5.7188 3.25 8.3906 1.2891z"/>
  <path d="m279.23 175.2c1.4844 0 2.9102-0.54687 4.0117-1.5391 1.8672-1.7188 4.0391-3.0664 6.4062-3.9805v1.1992c0 3.3125 2.6875 6 6 6s6-2.6875 6-6v-1.4766c2.457 0.71875 4.7852 1.8203 6.8945 3.2695 2.6797 1.9531 6.4336 1.3633 8.3828-1.3125 1.9531-2.6758 1.3672-6.4297-1.3086-8.3828-5.7266-4.0117-12.52-6.2266-19.508-6.3594-0.15234-0.011719-0.30078-0.023437-0.46094-0.023437-0.19922 0-0.39453 0.011718-0.58984 0.03125h0.003906c-7.3867 0.17578-14.449 3.0625-19.844 8.1094-1.8477 1.6641-2.4805 4.293-1.5898 6.6133 0.89063 2.3203 3.1172 3.8516 5.6016 3.8516z"/>
 </g>
</svg>
