<?xml version="1.0" encoding="UTF-8"?>
<svg width="512pt" height="512pt" version="1.1" viewBox="0 0 512 512" xmlns="http://www.w3.org/2000/svg">
 <g fill="#443f3c">
  <path d="m485.6 480-64-184h-19.199l-6.3984 19.199-102.4-275.2h-16l-8-24h-27.199l-8 24h-16l-102.4 275.2-6.3984-19.199h-19.199l-64 184h-10.402v16h480v-16zm-16.801 0h-7.1992l-53.602-152 4-11.199zm-276.8 0h-48v-24.801l48-6.3984zm16-32h96v32h-96zm112 0.80078 48 6.3984v24.801h-48zm-7.1992-16.801h-112.8l-72 8.8008v39.199h-60.801l46.398-131.2 9.6016 19.199h18.398l84-232h61.602l84 232h18.398l9.6016-19.199 45.602 131.2h-60.801v-39.199zm-78.402-320h44l3.1992 8h-49.602zm5.6016-16 5.6016-16h20.801l5.6016 16zm-10.398-40h16l8-24h4.8008l8 24h16l104 280h0.80078l-6.3984 12.801-103.2-284.8h-43.199l-103.2 284.8-6.3984-12.801h0.80078zm-129.6 260.8 4 11.199-53.602 152h-7.1992z"/>
  <path d="m224 456h64v16h-64z"/>
  <path d="m264 408h-16v-256h-16v272h48v-272h-16z"/>
  <path d="m184 256h16v16h-16z"/>
  <path d="m208 256h16v16h-16z"/>
  <path d="m288 256h16v16h-16z"/>
  <path d="m312 256h16v16h-16z"/>
  <path d="m288 352h16v16h-16z"/>
  <path d="m312 352h16v16h-16z"/>
  <path d="m336 352h16v16h-16z"/>
  <path d="m160 352h16v16h-16z"/>
  <path d="m184 352h16v16h-16z"/>
  <path d="m208 352h16v16h-16z"/>
 </g>
</svg>
