<?xml version="1.0" encoding="UTF-8"?>
<svg width="512pt" height="512pt" version="1.1" viewBox="0 0 512 512" xmlns="http://www.w3.org/2000/svg">
 <g fill="#443f3c">
  <path d="m506.67 469.04h-501.34c-2.9453 0-5.332-2.3867-5.332-5.332v-35.469c0-2.9453 2.3867-5.332 5.332-5.332h501.34c1.4141 0 2.7695 0.5625 3.7695 1.5625s1.5625 2.3555 1.5625 3.7695v35.469c0 1.4141-0.5625 2.7695-1.5625 3.7695s-2.3555 1.5625-3.7695 1.5625zm-496-10.668 490.66 0.003906v-24.801h-490.66z"/>
  <path d="m404.43 433.52h-296.91c-2.1602 0.019531-4.1172-1.2656-4.9609-3.2539-0.83203-1.9844-0.39062-4.2773 1.1211-5.8125l148.54-151.73c0.99609-1.0156 2.3594-1.5938 3.7852-1.5977 1.4258 0.003906 2.7891 0.58203 3.7852 1.5977l148.48 151.73c1.4961 1.5469 1.918 3.8398 1.0664 5.8125-0.83203 1.9727-2.7656 3.2539-4.9062 3.2539zm-284.27-10.668h271.62l-135.79-138.77z"/>
  <path d="m455.04 433.57c-2.1406-0.003907-4.0703-1.2852-4.9062-3.2539l-55.039-130.72-139.09-84.375-139.15 84.375-55.039 130.72c-1.2188 2.5938-4.2695 3.7578-6.9062 2.6406-2.6367-1.1172-3.9219-4.1211-2.9062-6.8008l55.68-132.27c0.42969-1.0391 1.1758-1.918 2.1328-2.5078l143.41-86.988c1.6484-0.94922 3.6836-0.94922 5.332 0l143.57 86.988c0.95703 0.58984 1.7031 1.4688 2.1328 2.5078l55.68 132.27c1.1484 2.7109-0.11719 5.8359-2.8242 6.9883-0.66406 0.26562-1.3672 0.41016-2.082 0.42578z"/>
  <path d="m399.36 301.25c-2.9453 0-5.332-2.3867-5.332-5.332v-173.82h-17.441v156.8c0 2.9453-2.3867 5.332-5.332 5.332-2.9453 0-5.332-2.3867-5.332-5.332v-162.13c0-2.9453 2.3867-5.332 5.332-5.332h28.105c1.4141 0 2.7734 0.55859 3.7734 1.5625 1 1 1.5586 2.3555 1.5586 3.7695v179.15c0 1.4141-0.55859 2.7695-1.5586 3.7695s-2.3594 1.5625-3.7734 1.5625z"/>
  <path d="m399.36 122.11h-28.105c-1.6562 0.046875-3.2383-0.67969-4.2812-1.9648-1.0469-1.2852-1.4336-2.9844-1.0508-4.5938l14.184-59.309c0-2.9453 2.3906-5.332 5.3359-5.332 2.9453 0 5.332 2.3867 5.332 5.332l14.027 59.309c0.37891 1.6094-0.007812 3.3086-1.0508 4.5938-1.0469 1.2852-2.6289 2.0117-4.2852 1.9648zm-21.332-10.668h14.559l-7.2539-30.824z"/>
  <path d="m112.59 301.25c-2.9453 0-5.332-2.3867-5.332-5.332v-179.15c0-2.9453 2.3867-5.332 5.332-5.332h28.105c1.418 0 2.7734 0.55859 3.7734 1.5625 1 1 1.5625 2.3555 1.5625 3.7695v162.13c0 2.9453-2.3867 5.332-5.3359 5.332-2.9453 0-5.332-2.3867-5.332-5.332v-156.8h-17.438v173.82c0 1.4141-0.5625 2.7695-1.5625 3.7695s-2.3594 1.5625-3.7734 1.5625z"/>
  <path d="m140.69 122.11h-28.105c-1.6211-0.007813-3.1523-0.75391-4.1602-2.0273-1.0117-1.2734-1.3867-2.9453-1.0117-4.5312l14.027-59.309c0.57812-2.457 2.8047-4.1719 5.332-4.1055 2.5273-0.066406 4.7539 1.6484 5.332 4.1055l14.078 59.309h0.003906c0.37891 1.6094-0.007812 3.3086-1.0508 4.5938-1.0469 1.2852-2.6289 2.0117-4.2852 1.9648zm-21.332-10.668h14.613l-7.3594-30.824z"/>
  <path d="m444.48 408.51c-1.4453 0.007813-2.8281-0.57031-3.8398-1.6016l-188.48-194.24c-1.1133-0.98438-1.7656-2.3867-1.8008-3.8711s0.55078-2.918 1.6133-3.9531c1.0664-1.0312 2.5156-1.5781 3.9961-1.5 1.4844 0.078125 2.8672 0.76953 3.8164 1.9102l188.54 194.19c1.5078 1.5352 1.9414 3.8281 1.1016 5.8125-0.83984 1.9805-2.7891 3.2656-4.9414 3.2539z"/>
  <path d="m67.465 408.51c-2.1523 0.011719-4.1016-1.2734-4.9414-3.2539-0.83984-1.9844-0.40234-4.2773 1.1016-5.8125l188.54-194.19c0.94922-1.1406 2.3359-1.832 3.8164-1.9102 1.4844-0.078125 2.9297 0.46875 3.9961 1.5 1.0664 1.0352 1.6484 2.4688 1.6133 3.9531-0.035157 1.4844-0.6875 2.8867-1.8008 3.8711l-188.48 194.24c-1.0117 1.0312-2.3984 1.6094-3.8438 1.6016z"/>
  <path d="m494.45 433.57h-39.414c-1.6484-0.003907-3.207-0.77344-4.2109-2.082-1.0117-1.2969-1.3672-2.9922-0.96094-4.5859l5.9219-22.773h-0.003906c0.625-2.418 2.8398-4.0781 5.3359-4h27.414c2.4922-0.078124 4.707 1.582 5.332 4l5.7578 22.828c0.42188 1.625 0.050781 3.3555-0.99609 4.668-1.0508 1.3125-2.6562 2.0508-4.3359 1.9961zm-32.535-10.668h25.652l-3.1445-11.945h-19.359z"/>
  <path d="m488.54 410.96h-27.574c-2.9453 0-5.3359-2.3906-5.3359-5.3359v-296.91c0-2.9453 2.3906-5.332 5.3359-5.332h27.574c1.4141 0 2.7695 0.5625 3.7695 1.5625s1.5625 2.3555 1.5625 3.7695v296.91c0 1.418-0.5625 2.7734-1.5625 3.7734s-2.3555 1.5625-3.7695 1.5625zm-22.238-10.668h16.902v-286.24h-16.906z"/>
  <path d="m488.48 114h-27.574c-1.6445 0.039062-3.2148-0.67969-4.2539-1.9492-1.043-1.2734-1.4414-2.9531-1.0781-4.5586l13.758-60.371c0.55859-2.4805 2.793-4.2227 5.3359-4.1602 2.5391-0.0625 4.7734 1.6797 5.332 4.1602l13.707 60.371c0.36328 1.6055-0.035156 3.2852-1.0781 4.5586-1.043 1.2695-2.6133 1.9883-4.2539 1.9492zm-20.906-10.668h14.238l-7.1445-31.094z"/>
  <path d="m56.961 433.57h-39.414c-1.6797 0.050781-3.2852-0.6875-4.3359-2-1.0469-1.3125-1.418-3.043-0.99609-4.668l5.9219-22.773h-0.003907c0.625-2.418 2.8398-4.0781 5.332-4h27.574c2.4961-0.078124 4.7109 1.582 5.3359 4l5.7578 22.828c0.40625 1.5938 0.050782 3.2852-0.96094 4.5859-1.0156 1.2891-2.5703 2.0352-4.2109 2.0273zm-32.535-10.668h25.652l-3.1445-11.945h-19.359z"/>
  <path d="m51.039 410.96h-27.574c-2.9453 0-5.332-2.3906-5.332-5.3359v-296.91c0-2.9453 2.3867-5.332 5.332-5.332h27.574c1.4141 0 2.7734 0.5625 3.7734 1.5625s1.5625 2.3555 1.5625 3.7695v296.91c0 1.418-0.5625 2.7734-1.5625 3.7734s-2.3594 1.5625-3.7734 1.5625zm-22.238-10.668h16.906v-286.24h-16.906z"/>
  <path d="m51.094 114h-27.629c-1.6406 0.039062-3.2109-0.67969-4.2539-1.9492-1.043-1.2734-1.4414-2.9531-1.0781-4.5586l13.867-60.371c0.55859-2.4805 2.793-4.2227 5.332-4.1602 2.543-0.0625 4.7773 1.6797 5.3359 4.1602l13.598 60.371c0.36328 1.6055-0.035156 3.2852-1.0781 4.5586-1.0391 1.2695-2.6094 1.9883-4.2539 1.9492zm-20.906-10.668h14.188l-7.043-31.094z"/>
  <path d="m381.44 433.52c-2.9453 0-5.3359-2.3867-5.3359-5.332v-23.52c0-2.9453 2.3906-5.3359 5.3359-5.3359 2.9453 0 5.332 2.3906 5.332 5.3359v23.52c0 1.4141-0.5625 2.7695-1.5625 3.7695s-2.3555 1.5625-3.7695 1.5625z"/>
  <path d="m343.25 433.52c-2.9453 0-5.332-2.3867-5.332-5.332v-62.508c0-2.9453 2.3867-5.332 5.332-5.332 2.9453 0 5.332 2.3867 5.332 5.332v62.508c0 1.4141-0.5625 2.7695-1.5625 3.7695s-2.3555 1.5625-3.7695 1.5625z"/>
  <path d="m300.85 433.57c-2.9453 0-5.332-2.3906-5.332-5.3359v-105.92c0-2.9453 2.3867-5.332 5.332-5.332 2.9492 0 5.3359 2.3867 5.3359 5.332v105.92c0 1.418-0.5625 2.7734-1.5625 3.7734s-2.3555 1.5625-3.7734 1.5625z"/>
  <path d="m256 433.52c-2.9453 0-5.332-2.3867-5.332-5.332v-151.73c0-2.9453 2.3867-5.332 5.332-5.332s5.332 2.3867 5.332 5.332v151.73c0 1.4141-0.5625 2.7695-1.5625 3.7695s-2.3555 1.5625-3.7695 1.5625z"/>
  <path d="m212.54 433.57c-2.9492 0-5.3359-2.3906-5.3359-5.3359v-107.41c0-2.9453 2.3867-5.3359 5.3359-5.3359 2.9453 0 5.332 2.3906 5.332 5.3359v107.41c0 1.418-0.5625 2.7734-1.5625 3.7734s-2.3555 1.5625-3.7695 1.5625z"/>
  <path d="m172.38 433.52c-2.9453 0-5.3359-2.3867-5.3359-5.332v-66.293c0-2.9453 2.3906-5.3359 5.3359-5.3359s5.332 2.3906 5.332 5.3359v66.293c0 1.4141-0.5625 2.7695-1.5625 3.7695s-2.3555 1.5625-3.7695 1.5625z"/>
  <path d="m139.2 433.57c-2.9453 0-5.332-2.3906-5.332-5.3359v-32.426c0-2.9453 2.3867-5.332 5.332-5.332 2.9453 0 5.3359 2.3867 5.3359 5.332v32.426c0 1.418-0.5625 2.7734-1.5625 3.7734s-2.3594 1.5625-3.7734 1.5625z"/>
  <path d="m232.96 228.93c-2.9453 0-5.3359-2.3867-5.3359-5.332v-46.453c0.003906-1.7891 0.90234-3.457 2.3906-4.4453 1.4922-0.98828 3.3789-1.1602 5.0234-0.46484l20.961 8.8008 20.961-8.8008c1.7344-0.80859 3.7695-0.625 5.332 0.48047 1.4688 0.99609 2.3516 2.6523 2.3477 4.4297v45.812c0 2.9453-2.3867 5.332-5.332 5.332-2.9492 0-5.3359-2.3867-5.3359-5.332v-37.812l-15.625 6.5586c-1.332 0.5625-2.832 0.5625-4.1602 0l-15.625-6.5586v38.453h-0.003906c0.003906 1.4609-0.59375 2.8594-1.6523 3.8672s-2.4844 1.5391-3.9453 1.4648z"/>
 </g>
</svg>
