<?xml version="1.0" encoding="UTF-8"?>
<svg width="512pt" height="512pt" version="1.1" viewBox="0 0 512 512" xmlns="http://www.w3.org/2000/svg">
 <g fill="#443f3c">
  <path d="m82.582 74.324c0 4.5586-3.6992 8.2578-8.2578 8.2578-4.5625 0-8.2578-3.6992-8.2578-8.2578 0-4.5625 3.6953-8.2578 8.2578-8.2578 4.5586 0 8.2578 3.6953 8.2578 8.2578"/>
  <path d="m99.098 90.84c0 4.5586-3.6992 8.2578-8.2578 8.2578-4.5625 0-8.2578-3.6992-8.2578-8.2578 0-4.5625 3.6953-8.2578 8.2578-8.2578 4.5586 0 8.2578 3.6953 8.2578 8.2578"/>
  <path d="m280.77 74.324c0 4.5586-3.6953 8.2578-8.2578 8.2578-4.5586 0-8.2578-3.6992-8.2578-8.2578 0-4.5625 3.6992-8.2578 8.2578-8.2578 4.5625 0 8.2578 3.6953 8.2578 8.2578"/>
  <path d="m264.26 90.84c0 4.5586-3.6953 8.2578-8.2578 8.2578s-8.2578-3.6992-8.2578-8.2578c0-4.5625 3.6953-8.2578 8.2578-8.2578s8.2578 3.6953 8.2578 8.2578"/>
  <path d="m512 286.75c0-16.859-9.8711-32.355-25.148-39.484l-98.047-45.758c-4.3633-2.0352-9.1836-3.1562-14-3.2891 3.2109-5.2344 5.0625-11.383 5.0625-17.961 0.003906-17.43-14.18-31.613-31.609-31.613-8.4453 0-16.383 3.2891-22.355 9.2617l-7.2578 7.2539h-112.19c-2.5625 0-4.8555-1.1719-6.3711-3.0117 8.8047-3.8242 16.223-9.9531 21.609-17.551 5.5234 2.6367 11.613 4.0469 17.793 4.0469 20.184 0 37.031-14.559 40.598-33.727 19.164-3.5625 33.723-20.41 33.723-40.594 0-20.184-14.559-37.031-33.727-40.598-3.5625-19.168-20.41-33.727-40.594-33.727-12.238 0-23.738 5.4648-31.504 14.621l-0.52734-0.52734c-9.0898-9.0859-21.176-14.094-34.035-14.094-12.855 0-24.945 5.0078-34.035 14.098l-0.52734 0.52734c-7.7656-9.1602-19.262-14.625-31.5-14.625-20.184 0-37.031 14.559-40.598 33.727-19.168 3.5625-33.727 20.41-33.727 40.598 0 20.184 14.559 37.031 33.727 40.598 3.5664 19.164 20.414 33.723 40.598 33.723 6.1797 0 12.27-1.4102 17.797-4.0469 5.3867 7.5977 12.805 13.73 21.609 17.551-1.5156 1.8359-3.8086 3.0117-6.3711 3.0117h-14.773c-19.371 0-37.352 9.6211-48.098 25.742l-49.785 74.676-5.6797 1.8945c-13.191 4.3945-22.055 16.691-22.055 30.598 0 17.781 14.469 32.254 32.254 32.254 0.74609 0 1.4844-0.027344 2.2227-0.066407-0.93359 2.6016-1.4453 5.4023-1.4453 8.3242v8.0508c0 12.258-6.8125 23.281-17.777 28.766-9.4102 4.7031-15.254 14.164-15.254 24.684 0 4.2617 1.0078 8.5273 2.9141 12.34 10.336 20.672 31.113 33.512 54.227 33.512h3.207c12.48 29.871 41.688 49.547 74.461 49.547h19.59l5.4883 3.668c12.574 8.4102 27.211 12.852 42.336 12.852 15.219 0 29.93-4.4453 42.539-12.859l5.4844-3.6602 5.7539 0.003906c27.086 0 53.012-12.316 70.16-33.145 37.102-2.0273 67.047-31.391 69.988-68.242 7.6914-2.9102 14.875-7.043 21.246-12.199 6.0977 9.0273 16.219 14.488 27.336 14.488 27.984 0 50.754-22.766 50.754-50.754v-24.77c10.051-7.9844 16.516-20.305 16.516-34.113zm-33.43-25.125c-2.6992 19.535-19.262 34.828-39.254 35.625l-36.059-54.086-13.742 9.1602 37.074 55.609c6.875 10.312 17.164 17.555 28.828 20.672-7.5547 11.195-20.32 18.234-34.258 18.234h-3.1562l-39.008-78.016-14.773 7.3867 27.516 55.031c-9.9219 12.668-22.418 23.27-36.535 30.988-42.043-23.844-80.113-54.988-111.7-91.496 0.51172-0.38281 1.0234-0.76953 1.5312-1.1602 11.82 7.332 25.355 11.199 39.312 11.199 30.922 0 58.996-19.453 69.852-48.406l2.043-5.4453c2.7383-7.3047 9.8203-12.211 17.625-12.211 2.7305 0 5.4844 0.60937 7.957 1.7656zm-173.69 158.37-5.1133 0.73047c-28.902-31.844-51.73-69.09-66.859-109.43l-10.398-27.734c2.3789-1.168 4.7305-2.4062 7.0391-3.7148 32.988 38.523 72.902 71.383 117.05 96.496-2.168 22.105-19.375 40.465-41.723 43.656zm-219.12-23.605c-17.75 0-34.168-8.0586-45.004-21.785 5.6289-8.0156 8.7891-17.703 8.7891-27.969v-8.0508c0-4.5547 3.7031-8.2578 8.2578-8.2578 23.453 0 45.219-11.648 58.227-31.16l5.6797-8.5195c4.2188 1.3828 8.5117 2.5469 12.855 3.5039-10.184 36.289-26.219 70.934-47.219 102.24zm177.01-214.71h16.719c-0.89844 5.6562-2.1953 11.172-3.8711 16.516h-17.547c1.9258-5.1016 3.4727-10.402 4.5703-15.887zm-12.691 33.035h18.93c-3.1289 6.3594-6.8086 12.395-10.98 18.035l-13.328-9.9961c1.9141-2.5859 3.7109-5.2695 5.3789-8.0391zm37.109 0h56.805c-1.2695 2.0039-2.3633 4.1406-3.2188 6.4141l-2.043 5.4414c-8.4531 22.547-30.309 37.691-54.383 37.691-9.1484 0-18.062-2.1406-26.145-6.2227 12.453-12.457 22.277-27.195 28.984-43.324zm-53.375 20.52 13.473 10.102c-4.6719 4.7617-9.7383 9.1289-15.141 13.043l-10.445-13.059c4.2812-3.0508 8.3398-6.4141 12.113-10.086zm-26.441 18.621 10.648 13.312c-7.1992 3.8125-14.816 6.8984-22.75 9.1602l-4.0469-16.191c5.582-1.6406 10.98-3.7461 16.148-6.2812zm-32.336 9.6328 4.0586 16.227c-5.1367 0.69922-10.363 1.0625-15.66 1.0625-1.5703 0-3.1328-0.039063-4.6953-0.097657l3.2852-16.426c0.21875 0 0.4375 0.007812 0.65625 0.007812 4.1719 0 8.293-0.27344 12.355-0.77344zm-32.777 15.371c-7.0664-1.293-13.98-3.2266-20.66-5.7695l8.4766-14.129c5 1.6797 10.141 2.9766 15.391 3.8633zm-35.719-12.77c-5.2734-2.9219-10.344-6.2539-15.148-9.9844l9.918-12.367c4.2812 3.2422 8.7812 6.125 13.469 8.625zm-27.672-20.77-11.16-9.9219 9.5547-14.332 11.684 11.684zm27.172 39.062-3.7461 5.6211c-8.4375 12.652-21.699 20.953-36.469 23.184 0.13281-0.1875 0.27734-0.35938 0.41016-0.55078l25.355-36.223c4.6562 2.9609 9.4844 5.6172 14.449 7.9688zm44.957 12.332c4.1172 0.38281 8.2656 0.57812 12.438 0.57812 0.12891 0 0.25391-0.003906 0.38281-0.003906l-11.875 148.43c-20.301-1.6914-38.168-13.68-47.406-32.152l-3.7695-7.5352c22.48-33.418 39.555-70.488 50.23-109.32zm29.477-0.51563c2-0.25781 3.9922-0.55859 5.9766-0.90234 9.2188 53.801 22.773 106.99 40.445 158.68-7.9648 5.5039-17.391 8.4766-27.281 8.4766-10.098 0-19.871-2.9609-28.273-8.5586l-3.3047-2.2031zm22.074-4.7461c1.5781-0.48047 3.1484-0.98828 4.7109-1.5273l10.188 27.172c15.617 41.652 39.062 80.156 68.711 113.2-8.9141 9.8828-21.613 15.637-35.156 15.637h-9.3945c-17.055-50.348-30.145-102.12-39.059-154.48zm122.94-109.77 12.094-12.094c2.8516-2.8516 6.6445-4.4219 10.676-4.4219 8.3242 0 15.098 6.7734 15.098 15.098 0 9.8867-8.043 17.934-17.934 17.934h-52.598c1.4141-5.2344 2.5195-10.566 3.293-15.98l0.078125-0.53516zm-189.95-148.15 4.9297 9.8594c-5.6445 3.9336-10.559 8.8477-14.492 14.492l-9.875-4.9375c1.9492-9.7656 9.668-17.465 19.438-19.414zm28.551 17.098c-3.5469 15.281-15.594 27.328-30.879 30.879 3.5508-15.281 15.598-27.332 30.879-30.879zm47.227-17.098c9.7656 1.9492 17.488 9.6484 19.438 19.414l-9.875 4.9375c-3.9336-5.6445-8.8477-10.559-14.492-14.492zm2.3242 47.977c-15.281-3.5469-27.328-15.594-30.879-30.879 15.281 3.5469 27.332 15.598 30.879 30.879zm50.625-40.215v8.2578h8.2578c13.66 0 24.773 11.113 24.773 24.773 0 13.66-11.113 24.773-24.773 24.773h-8.2578v8.2578c0 13.66-11.113 24.773-24.773 24.773-3.707 0-7.2617-0.80859-10.52-2.3438 1.4727-4.8242 2.2617-9.9297 2.2617-15.191v-23.75c0-6.3555-1.0469-12.469-2.9492-18.195l19.465-9.7344v-5.1055c0-16.008-9.1641-29.906-22.516-36.754 4.1133-2.8945 9.0742-4.5352 14.258-4.5352 13.66 0 24.773 11.113 24.773 24.773zm-113.2-15.512c5.9727-5.9727 13.91-9.2617 22.355-9.2617 8.4453 0 16.383 3.2891 22.355 9.2578l0.62891 0.62891-4.7891 9.5781c-5.7227-1.9023-11.836-2.9492-18.195-2.9492-6.3555 0-12.469 1.0469-18.195 2.9492l-4.7891-9.5781zm-43.707 106.35c-13.66 0-24.773-11.113-24.773-24.773v-8.2578h-8.2578c-13.66 0-24.773-11.113-24.773-24.773 0-13.66 11.113-24.773 24.773-24.773h8.2578v-8.2578c0-13.66 11.113-24.773 24.773-24.773 5.1836 0 10.145 1.6406 14.258 4.5352-13.352 6.8438-22.516 20.742-22.516 36.75v5.1016l19.465 9.7344c-1.9023 5.7266-2.9492 11.84-2.9492 18.199v23.758c0 5.2578 0.78516 10.363 2.2617 15.191-3.2578 1.5312-6.8125 2.3398-10.52 2.3398zm24.773-17.531v-16.102c17.516-2.5156 32.52-12.91 41.289-27.469 8.7695 14.559 23.773 24.949 41.289 27.469v16.098c0 16.25-11.012 30.355-26.777 34.297l-6.2539 1.5625v6.4492c0 10.758 6.8945 19.934 16.496 23.348-0.10547 4.5586-1.6133 8.8438-4.2227 12.355-4.4531-6.5898-11.992-10.93-20.531-10.93-8.5352 0-16.078 4.3398-20.535 10.926-2.6094-3.5117-4.1133-7.793-4.2227-12.355 9.6055-3.4102 16.5-12.586 16.5-23.344v-6.4492l-6.2539-1.5625c-15.766-3.9414-26.777-18.043-26.777-34.293zm49.547 91.855c0 4.5547-3.7031 8.2578-8.2578 8.2578-4.5547 0-8.2578-3.7031-8.2578-8.2578s3.7031-8.2578 8.2578-8.2578c4.5547 0 8.2578 3.7031 8.2578 8.2578zm-56.062-24.777h6.582c0.60938 12.184 6.8945 23.141 16.961 29.801 2.332 11.262 12.324 19.75 24.262 19.75 11.941 0 21.934-8.4883 24.262-19.75 10.066-6.6602 16.352-17.617 16.961-29.801h31.223c-8.9492 38.438-43.504 66.066-83.188 66.066-22.82 0-44.273-8.8867-60.41-25.023l-15.668-15.668 4.6562-6.9883c7.6797-11.512 20.523-18.387 34.359-18.387zm-109.1 116.39c0-6.7852 4.3242-12.785 10.762-14.93l11.055-3.6836 20.121-30.184 15.934 14.164c1.2578 1.1172 2.5391 2.2031 3.832 3.2695l-25.52 36.457c-4.6641 6.6641-12.309 10.641-20.445 10.641-8.6797 0-15.738-7.0586-15.738-15.734zm1.1719 106.96c-0.76562-1.5312-1.168-3.2461-1.168-4.957 0-4.2227 2.3477-8.0195 6.125-9.9102 2.2383-1.1172 4.3555-2.3945 6.3555-3.8047 11.895 14.293 28.629 23.5 47.066 25.906-4.4141 5.8594-9.0117 11.578-13.785 17.148h-5.1406c-16.816 0-31.934-9.3398-39.453-24.383zm57.824 34.328c4.9961-5.8711 9.8086-11.898 14.426-18.07 11.902 23.512 34.75 38.758 60.684 40.887l-1.3438 16.789h-14.469c-26.137 0-49.414-15.738-59.297-39.605zm126.71 56.121c-11.844 0-23.309-3.4805-33.156-10.062l-3.543-2.3672 1.0195-12.746c10.082 5.6758 21.414 8.6562 33.07 8.6562 11.77 0 23.051-3.1367 32.914-8.9922 1.6914 4.6875 3.4141 9.3633 5.1719 14.023l-2.1055 1.4062c-9.8867 6.5938-21.426 10.082-33.371 10.082zm53.777-16.516h-2.5469c-2.0742-5.4883-4.1094-10.992-6.0859-16.516h3.6328c17.805 0 34.539-7.3633 46.5-20.086 4.2617 4.3281 8.6406 8.5508 13.125 12.656-13.969 15.105-33.879 23.945-54.625 23.945zm69.113-33.113c-3.9219-3.5-7.7617-7.0898-11.516-10.766 24.516-6.0664 43.371-25.988 48.414-50.398 5.7031 2.9453 11.465 5.7695 17.285 8.457l0.33203 0.15234c-2.5391 28.461-25.773 51.055-54.516 52.555zm63.48-66.605-2.3789-1.0977c-4.7344-2.1836-9.4219-4.4688-14.074-6.832 10.246-6.6914 19.574-14.77 27.66-23.953l9.7422 19.48c-6.0547 5.4883-13.191 9.7344-20.949 12.402zm90.375-33.617c0 18.879-15.359 34.238-34.238 34.238-6.2969 0-11.957-3.5-14.773-9.1289l-3.8047-7.6094c20.551-1.7812 38.668-14.469 47.387-33.117 1.8477-0.21484 3.6602-0.54688 5.4297-0.98828zm-10.543-31.828c-4.625 0-9.1094-0.95313-13.23-2.707 8.5742-2.7188 16.449-7.4219 23.031-13.898 6.5742-6.4727 11.398-14.258 14.254-22.77 1.9258 3.7539 3.0039 7.9609 3.0039 12.32 0 14.918-12.141 27.055-27.059 27.055z"/>
  <path d="m82.582 355.1c0 4.5586-3.6992 8.2578-8.2578 8.2578-4.5625 0-8.2578-3.6992-8.2578-8.2578 0-4.5625 3.6953-8.2578 8.2578-8.2578 4.5586 0 8.2578 3.6953 8.2578 8.2578"/>
  <path d="m148.64 388.13c0 4.5625-3.6953 8.2578-8.2578 8.2578-4.5586 0-8.2578-3.6953-8.2578-8.2578s3.6992-8.2578 8.2578-8.2578c4.5625 0 8.2578 3.6953 8.2578 8.2578"/>
  <path d="m198.2 421.16c0 4.5625-3.6992 8.2578-8.2617 8.2578-4.5586 0-8.2578-3.6953-8.2578-8.2578 0-4.5586 3.6992-8.2578 8.2578-8.2578 4.5625 0 8.2617 3.6992 8.2617 8.2578"/>
  <path d="m264.26 421.16c0 4.5625-3.6953 8.2578-8.2578 8.2578s-8.2578-3.6953-8.2578-8.2578c0-4.5586 3.6953-8.2578 8.2578-8.2578s8.2578 3.6992 8.2578 8.2578"/>
  <path d="m313.8 388.13c0 4.5625-3.6953 8.2578-8.2578 8.2578-4.5586 0-8.2578-3.6953-8.2578-8.2578s3.6992-8.2578 8.2578-8.2578c4.5625 0 8.2578 3.6953 8.2578 8.2578"/>
  <path d="m363.36 322.07c0 4.5586-3.6992 8.2578-8.2578 8.2578-4.5625 0-8.2578-3.6992-8.2578-8.2578 0-4.5625 3.6953-8.2617 8.2578-8.2617 4.5586 0 8.2578 3.6992 8.2578 8.2617"/>
 </g>
</svg>
