<?xml version="1.0" encoding="UTF-8"?>
<svg width="512pt" height="512pt" version="1.1" viewBox="0 0 512 512" xmlns="http://www.w3.org/2000/svg">
 <path d="m221.05 461.93c-24.844 0-48.723-7.7109-69.168-22.301h-39.809l-21.656-23.816h59.293c1.1016-2.4883 2.9492-5.7383 5.8047-8.1016 0.375-0.3125 0.6875-0.57813 0.94531-0.8125-0.26172-0.51172-0.53906-1.0156-0.70312-1.3242-1.9492-3.5859-4.582-8.4219-2.9492-13.988 1.6445-5.6133 6.4961-8.2773 10.039-10.23 0.58984-0.32422 1.0898-0.59766 1.5-0.83594-0.12109-0.63672-0.26172-1.3008-0.34766-1.6992-0.84375-3.9492-1.9961-9.3438 1.1484-14.234 3.1602-4.9102 8.5625-6.0938 12.504-6.957 0.37891-0.082031 1.043-0.22656 1.6758-0.39062 0.0625-0.64453 0.11719-1.3203 0.14453-1.6836 0.30078-4.0547 0.70703-9.5625 5.1094-13.383 4.3867-3.8086 9.8984-3.4414 13.926-3.1641 0.67969 0.046876 1.2656 0.085938 1.7461 0.10156 0.22656-0.59375 0.47656-1.2656 0.59766-1.5859 1.4219-3.7891 3.3633-8.9805 8.6797-11.414 5.293-2.4102 10.461-0.50781 14.234 0.89453 0.38281 0.14453 1.0273 0.37891 1.6484 0.58984 0.41016-0.51172 0.82031-1.0586 1.0195-1.3242 2.4375-3.2422 5.7734-7.6836 11.598-8.5156 5.6992-0.82812 10.102 2.4531 13.309 4.8438 0.55859 0.41406 1.668 1.2383 2.3555 1.6641h4v75.469c5.2852-2.6523 11.34-4.0977 17.555-4.0977 11.414 0 21.855 4.6797 28.395 12.617l55.055 7.7148-56.293 9.3945c-23.953 24.602-50.582 36.57-81.355 36.57zm-104.7-31.973h38.68l1.2734 0.9375c19.055 13.984 41.445 21.371 64.742 21.371 28.867 0 52.859-11.039 75.496-34.75l1.1055-1.1641-0.56641-0.79297c-4.5117-6.3281-12.875-10.262-21.832-10.262-7.3164 0-14.27 2.6016-19.078 7.1289l-8.1445 7.6758 0.003906-87.992c-0.75391-0.49609-1.5469-1.0742-2.4219-1.7266-2.207-1.6445-4.4492-3.3164-6.1992-3.0508-1.8633 0.26562-3.5859 2.5508-5.2422 4.75-1.2695 1.6914-2.5156 3.2812-3.7734 4.2539l-0.72656 0.5625-2.7188 0.8125-0.91016-0.070313c-1.6328-0.12891-3.5078-0.78516-5.6172-1.5664-2.5586-0.94141-5.2031-1.9297-6.8555-1.1719-1.6836 0.77344-2.6836 3.4336-3.6445 6.0156-1.0898 2.918-1.8477 4.6172-2.9531 5.8281l-1.7969 1.3633-0.55469 0.19922c-1.6133 0.58984-3.6211 0.57812-6.7539 0.34766-2.7188-0.17969-5.5508-0.37891-6.9258 0.82422-1.3945 1.2031-1.6016 4.0234-1.8008 6.7578-0.26562 3.5625-0.54688 6.0117-2.0312 7.7266-1.4961 1.7109-3.8594 2.3281-7.2969 3.0938-2.7383 0.59766-5.5078 1.2031-6.5078 2.7539-0.98828 1.543-0.39844 4.3008 0.17578 6.9727 0.74609 3.4766 1.168 5.918 0.21875 8.0039-0.875 1.9141-2.6055 3.1016-6.1602 5.0312-2.418 1.332-4.9062 2.6992-5.4336 4.4844-0.50781 1.7305 0.83594 4.2031 2.1367 6.5898 1.7266 3.1797 2.8125 5.3945 2.4844 7.668-0.29297 2.0273-1.6016 3.7461-5.0234 6.5859-2.2734 1.8789-3.6758 5.7891-3.9258 6.7383l-0.97266 3.5859h-44.527zm253.71-73.707c-0.57422 0-1.1641-0.039062-1.7656-0.12891-5.6875-0.8125-8.9531-5.1445-11.336-8.3164-0.19922-0.26563-0.55859-0.74219-0.92578-1.2031-0.57422 0.19922-1.168 0.41797-1.4883 0.53906-3.6875 1.3633-8.7344 3.2344-13.918 0.86719-5.2109-2.3867-7.1133-7.4492-8.5-11.152-0.10938-0.28516-0.32812-0.875-0.55859-1.4531-0.57812 0.039062-1.2344 0.09375-1.5508 0.11328-3.9609 0.25781-9.3242 0.625-13.625-3.1133-4.3164-3.7383-4.7109-9.1172-4.9961-13.047-0.027344-0.34375-0.070312-0.95312-0.12891-1.5508-0.60547-0.14844-1.207-0.27734-1.5039-0.34375-3.8555-0.83984-9.1328-1.9961-12.23-6.8086-3.0859-4.7969-1.9609-10.066-1.1328-13.91 0.078125-0.36328 0.20312-0.96094 0.3125-1.543-0.51172-0.29688-1.0391-0.58203-1.332-0.74609-3.4727-1.8984-8.2188-4.5039-9.8359-10.008-1.6016-5.4688 0.96875-10.188 2.8477-13.633 0.12109-0.22656 0.29297-0.53906 0.47266-0.87891-1.4297-0.95703-2.6211-1.8633-3.6797-2.7969l-39.078-0.003907-21.262-23.387 56.746-0.003906c1.0664-2.3398 2.9219-5.3047 6.0664-7.7109 0.49219-0.375 0.92188-0.70703 1.2891-1-0.21094-0.39453-0.40625-0.75781-0.54297-1.0039-1.8984-3.4805-4.4688-8.2031-2.8672-13.664 1.6172-5.5156 6.3711-8.1211 9.8359-10.016 0.29297-0.16016 0.82031-0.44922 1.332-0.74609-0.11328-0.57812-0.24219-1.1719-0.3125-1.5312-0.82812-3.8594-1.9609-9.1289 1.1328-13.926 3.0977-4.8125 8.375-5.9688 12.227-6.8086 0.30078-0.066407 0.90625-0.19922 1.5117-0.34375 0.054687-0.59375 0.10156-1.1992 0.12891-1.5312 0.29297-3.9531 0.6875-9.332 5.0078-13.078 4.2969-3.7344 9.668-3.375 13.582-3.1094 0.33203 0.027343 0.97656 0.066406 1.6133 0.09375 0.20312-0.54297 0.42578-1.1406 0.53906-1.4336 1.3867-3.7031 3.2812-8.7656 8.4922-11.152 5.1914-2.3594 10.23-0.5 13.91 0.86719 0.32812 0.11719 0.91797 0.33203 1.4961 0.53906 0.36328-0.45703 0.71875-0.9375 0.91797-1.1914 2.3906-3.1758 5.6523-7.5117 11.352-8.3203 5.5977-0.79297 9.8867 2.3906 13.012 4.7188 0.5625 0.41406 1.5938 1.1836 2.2383 1.5859h3.9766v73.09c5.0898-2.5078 10.914-3.8828 16.879-3.8828 11.078 0 21.234 4.5312 27.598 12.223l54.383 7.3242-55.699 9.5352c-13.418 13.91-25.672 23.879-43.16 29.754v66.789h-3.9766c-0.64453 0.39844-1.6641 1.1562-2.1523 1.5195-2.875 2.1367-6.5898 4.918-11.34 4.918zm-12.52-19.762 2.2695 0.64844 1.1875 0.70312c1.2227 0.94531 2.3867 2.4375 3.6641 4.1328 1.6094 2.1406 3.2578 4.3281 4.9922 4.5703 1.6523 0.26562 3.8047-1.3555 5.8711-2.8984 0.84375-0.62891 1.6094-1.1836 2.3281-1.6641l0.003907-66.129 3.4766-1.0195c17.812-5.2227 29.84-15.121 43.473-29.395l1.0703-1.1211-0.41406-0.58984c-4.3516-6.0977-12.414-9.8906-21.055-9.8906-7.0586 0-13.762 2.5039-18.402 6.8672l-8.1445 7.6758v-85.582c-0.69531-0.46094-1.4297-1-2.2305-1.5977-2.1719-1.6133-4.3281-3.2812-5.9648-2.9688-1.7461 0.24609-3.3906 2.4375-4.9883 4.5586-1.2969 1.7148-2.4531 3.1992-3.6797 4.1484l-0.73828 0.57422-2.6875 0.78516-0.89453-0.066406c-1.6172-0.12109-3.4453-0.76172-5.5-1.5273-2.4531-0.90625-4.9805-1.8477-6.5312-1.1367-1.5781 0.72266-2.5352 3.2812-3.4609 5.75-1.0664 2.8398-1.8008 4.5039-2.8945 5.6953l-1.4023 1.0898-0.93359 0.46484c-1.582 0.56641-3.4727 0.55859-6.6094 0.34766-2.6211-0.17969-5.3242-0.35937-6.6133 0.75781-1.3047 1.1328-1.5039 3.8398-1.6953 6.4609-0.26172 3.4766-0.54297 5.8711-2.0117 7.5742-1.4844 1.7031-3.8125 2.3203-7.207 3.0547-2.5664 0.56641-5.2266 1.1484-6.1641 2.6016-0.92578 1.4375-0.35937 4.0898 0.1875 6.6523 0.73047 3.4258 1.1367 5.8125 0.19531 7.8633-0.92188 2.0273-2.9805 3.2734-6.0156 4.9297-2.3203 1.2695-4.7148 2.582-5.207 4.2656-0.47656 1.6211 0.8125 3.9883 2.0586 6.2773 1.6836 3.1133 2.7461 5.2773 2.4258 7.5273-0.36719 2.5391-2.418 4.2656-5.7461 6.8047-3.0039 2.293-3.793 5.8164-3.8047 5.8516l-0.82422 3.8086-3.9102 0.054688h-38.324l3.6875 4.0547h38.762l1.4219 1.4688c1.2383 1.2734 2.7305 2.4102 5.1133 3.9023 1.3359 0.69141 3.2734 2.1875 3.6133 5.1211 0.3125 2.207-0.74609 4.3711-2.3945 7.4258-1.2812 2.3438-2.5703 4.7109-2.0898 6.3398 0.49219 1.6758 2.8867 2.9883 5.207 4.2617 3.0352 1.6641 5.0938 2.9062 6.0195 4.9453 0.9375 2.0391 0.53125 4.4219-0.19531 7.8281-0.55469 2.582-1.1211 5.2344-0.19531 6.6758 0.9375 1.4531 3.5977 2.0312 6.168 2.6016 3.3906 0.73828 5.7188 1.3516 7.1992 3.0508 1.4727 1.7031 1.7578 4.0977 2.0117 7.5469 0.19531 2.6484 0.39453 5.3555 1.6953 6.4883 1.3008 1.1211 3.9883 0.94141 6.6016 0.76953 3.1641-0.21875 5.0547-0.22656 6.625 0.34375l1.5352 0.86719 0.79688 0.69531c1.0898 1.1875 1.8281 2.8516 2.8945 5.6953 0.92578 2.4688 1.8789 5.0273 3.4609 5.75 1.5547 0.70703 4.0859-0.23047 6.5312-1.1367 2.0547-0.75781 3.8828-1.4023 5.5-1.5273zm-201.31-149.57c-24.883 0-48.754-7.7109-69.145-22.301h-39.801l-21.695-23.793h59.453c1.1211-2.3242 2.9883-5.375 5.8477-7.8164 0.28125-0.24219 0.59375-0.55469 0.88672-0.85938-0.24609-0.49609-0.51562-1-0.69531-1.332-2.0703-3.8125-4.6836-8.6367-3.0703-14.223 1.6602-5.7188 6.7617-8.4492 10.145-10.254 0.57812-0.32422 1.043-0.57813 1.4062-0.79688-0.12109-0.67187-0.26953-1.3633-0.34375-1.6953-0.85938-3.9492-2.043-9.3711 1.168-14.285 3.1445-4.8828 8.5234-6.0625 12.453-6.918 0.34375-0.078125 1.0352-0.23047 1.7031-0.39453 0.039062-0.43359 0.085937-0.97656 0.12109-1.6445 0.3125-4.125 0.73047-9.6406 5.1406-13.434 3.4336-2.9609 7.5469-3.3008 10.336-3.3008 1.168 0 2.3398 0.070312 3.4648 0.14453 0.41406 0.027343 0.78906 0.046875 1.125 0.066406 1.1719-2.8047 2.9609-4.3125 4.4453-5.1211 4.9258-2.6797 10.527-0.13281 12.922 0.95703l0.48047 0.21484c0.24609 0.085938 0.82031 0.28125 1.4062 0.46484 0.34375-0.47656 0.71094-0.99219 0.89453-1.2461 2.3047-3.2188 5.457-7.6133 11.105-8.5547 5.6562-0.9375 10.008 2.1797 13.211 4.4531 0.30078 0.21094 0.80469 0.57422 1.2969 0.90625 0.49219-0.36328 0.97266-0.73828 1.207-0.92188 3.1328-2.4492 7.418-5.7812 13.113-5.0703 5.625 0.67969 8.9297 4.8828 11.34 7.957 1.1836 1.5039 3.1094 4.6836 3.4805 5.3047l1.0391 1.7305-14.965 58.301c4.5664-1.832 9.5859-2.8125 14.715-2.8125 11.406 0 21.852 4.668 28.395 12.578l54.957 7.7734-56.184 9.3789c-23.914 24.594-50.547 36.543-81.359 36.543zm-104.67-31.969h38.68l1.2812 0.9375c19 13.977 41.375 21.367 64.711 21.367 28.914 0 52.906-11.027 75.504-34.707l1.1211-1.168-0.58203-0.82031c-4.5156-6.3164-12.887-10.238-21.836-10.238-7.3203 0-14.273 2.5977-19.078 7.1211l-3.918 3.6953-51.012-67.344c-0.95703 0.011719-2.0742-0.050781-2.9688-0.10937-4.2969-0.26953-6.207-0.16797-7.3516 0.8125-1.3789 1.1836-1.5938 4.0156-1.8008 6.7422-0.23437 4.2227-0.75781 6.2656-1.9922 7.7109-1.5117 1.6289-3.4805 2.2695-7.3828 3.1289-2.6914 0.58203-5.4414 1.1836-6.4414 2.7383-1.0156 1.5508-0.38281 4.4336 0.16797 6.9805 0.72266 3.3477 1.1562 5.8672 0.22656 7.9648-0.92188 1.9648-2.707 3.1914-6.1328 5.0742-2.8164 1.5039-4.9766 2.7695-5.457 4.4375-0.51172 1.7734 0.82812 4.2461 2.125 6.6289 1.7422 3.2773 2.7383 5.3438 2.5273 7.4648-0.55469 3.1797-3.8008 6.1406-4.7812 6.9844-2.9375 2.5078-4.2305 6.6445-4.2383 6.6875l-1.043 3.4219-3.5859 0.027344h-40.805zm92.211-87.469 42.074 55.547 14.457-56.32c-0.66406-1.0547-1.3555-2.1133-1.7266-2.5859-1.6133-2.0547-3.2656-4.1523-4.9297-4.3516-1.7734-0.26562-3.9023 1.4648-5.9922 3.0859-1.6328 1.2734-3.207 2.4531-4.6328 3.0547-1.4023 0.62891-3.0938 0.67578-4.6406 0.082031-1.3867-0.48828-2.9961-1.582-4.7891-2.8633-2.125-1.5117-4.3047-3.082-6.0156-2.7969-1.7109 0.28125-3.2969 2.5039-4.8398 4.6445-1.7266 2.4062-2.9141 3.875-4.2656 4.7422l-1.6953 0.70312-0.97266 0.19531c-1.6758 0.17578-3.5625-0.375-6.4727-1.3789-0.26562-0.09375-0.69531-0.26953-1.2461-0.52344-2.918-1.3242-3.9531-1.3633-4.3281-1.2461 0.015625 0 0.015625 0.007812 0.015625 0.011718z" fill="#443f3c"/>
</svg>
