<?xml version="1.0" encoding="UTF-8"?>
<svg width="512pt" height="512pt" version="1.1" viewBox="0 0 512 512" xmlns="http://www.w3.org/2000/svg">
 <g fill="#443f3c">
  <path d="m244.91 95.238c1.9219 0.90625 4.1211 1.0117 6.1211 0.29297 1.9961-0.71875 3.625-2.2031 4.5273-4.125 29.32-62.316 51.227-75.406 64.441-75.406 34 0 49.527 34.398 64.551 67.719 13.992 31 27.211 60.281 55.449 60.281 48.098 0 55.742 62.238 56.047 64.887 0.45312 4.0508 3.8789 7.1133 7.9531 7.1133 0.30078 0 0.59766-0.015625 0.89453-0.046875 4.375-0.49219 7.5312-4.4258 7.0664-8.8008-3.0508-27.398-22-79.152-71.961-79.152-17.91 0-28.543-23.566-40.863-50.863-16.312-36.16-34.801-77.137-79.137-77.137-26.32 0-52.145 27.672-78.922 84.594-0.90234 1.918-1.0078 4.1172-0.28906 6.1172 0.71875 1.9961 2.2031 3.625 4.1211 4.5273z"/>
  <path d="m507.07 272.61c-11.793-4.8945-23.465-9.1367-35.07-12.922v-27.688c0-2.1211-0.84375-4.1562-2.3438-5.6562s-3.5352-2.3438-5.6562-2.3438h-32c-4.418 0-8 3.582-8 8v15.152c-5.3359-1.0469-10.672-2.0391-16-2.8477v-20.305c0-2.6758-1.3398-5.1719-3.5664-6.6562l-24-16c-2.6875-1.7891-6.1875-1.7891-8.875 0l-24 16c-2.2227 1.4844-3.5586 3.9805-3.5586 6.6562v16.238c-1.7539 0-3.4883 0.10547-5.2227 0.16016-53.48-106.37-102.86-160.4-146.78-160.4-26.398 0-55.16 19.887-85.434 59.113-2.6992 3.4961-2.0508 8.5234 1.4492 11.223 3.5 2.6992 8.5234 2.0508 11.223-1.4492 27.09-35.086 51.562-52.887 72.762-52.887 35.543 0 81.258 51.543 129.23 145.23-16.539 1.1914-32.984 3.4492-49.23 6.7695v-8c0-2.6758-1.3359-5.1719-3.5586-6.6562l-24-16c-2.6914-1.793-6.1914-1.793-8.8828 0l-24 16c-2.2227 1.4844-3.5586 3.9805-3.5586 6.6562v27.602c-10.938 4.6211-21.621 9.8281-32 15.598v-115.2c0-2.1211-0.84375-4.1562-2.3438-5.6562s-3.5352-2.3438-5.6562-2.3438h-32c-4.418 0-8 3.582-8 8v24h-16v-24c0-2.1211-0.84375-4.1562-2.3438-5.6562s-3.5352-2.3438-5.6562-2.3438h-32c-4.418 0-8 3.582-8 8v24h-16v-24c0-2.1211-0.84375-4.1562-2.3438-5.6562s-3.5352-2.3438-5.6562-2.3438h-32c-4.418 0-8 3.582-8 8v336c0 2.1211 0.84375 4.1562 2.3438 5.6562s3.5352 2.3438 5.6562 2.3438h416c2.7734 0 5.3438-1.4375 6.8008-3.7969 1.457-2.3555 1.5898-5.3008 0.35156-7.7773l-16-32c-0.875-1.7578-2.3633-3.1289-4.1836-3.8594l-38.48-15.391-22.832-22.832c-1.5-1.5-3.5352-2.3438-5.6562-2.3438h-75.719l-13.602-20.441c-1.2891-1.9297-3.3594-3.207-5.6641-3.4961l-60.633-7.5742-21.984-29.289c-0.87891-1.1758-2.0664-2.0859-3.4297-2.6328l-36.922-14.762-22.695-52.961v0.003906c-1.2617-2.9414-4.1523-4.8477-7.3516-4.8477h-80v-112h16v24c0 2.1211 0.84375 4.1562 2.3438 5.6562s3.5352 2.3438 5.6562 2.3438h32c2.1211 0 4.1562-0.84375 5.6562-2.3438s2.3438-3.5352 2.3438-5.6562v-24h16v24c0 2.1211 0.84375 4.1562 2.3438 5.6562s3.5352 2.3438 5.6562 2.3438h32c2.1211 0 4.1562-0.84375 5.6562-2.3438s2.3438-3.5352 2.3438-5.6562v-24h16v128h-32c-4.418 0-8 3.582-8 8s3.582 8 8 8h48v16h-16c-4.418 0-8 3.582-8 8s3.582 8 8 8h24c2.1211 0 4.1562-0.84375 5.6562-2.3438s2.3438-3.5352 2.3438-5.6562v-32c0-2.1211-0.84375-4.1562-2.3438-5.6562s-3.5352-2.3438-5.6562-2.3438h-8v-2.4805c53.496-30.746 114.3-46.473 176-45.52 49.453 0.33203 98.367 10.312 144 29.375v82.625h-136c-4.418 0-8 3.582-8 8v32c0 2.1211 0.84375 4.1562 2.3438 5.6562s3.5352 2.3438 5.6562 2.3438h16v24c0 4.418 3.582 8 8 8s8-3.582 8-8v-24h104v88c0 4.418 3.582 8 8 8s8-3.582 8-8v-224c0.003906-3.2344-1.9414-6.1484-4.9297-7.3906zm-394.4 82.543c0.83594 1.9531 2.4141 3.4922 4.3828 4.2812l37.91 15.16 19.266 25.68-12.863 19.289v-0.003906c-1.793 2.6914-1.793 6.1914 0 8.8828l13.426 20.137-5.9297 11.848c-0.96875 1.8984-1.1367 4.1055-0.46875 6.1328 0.66406 2.0234 2.1133 3.6992 4.0234 4.6523 1.9062 0.95312 4.1133 1.1055 6.1367 0.42187 2.0195-0.67969 3.6836-2.1406 4.6211-4.0586l8-16c1.2773-2.5625 1.0898-5.6133-0.49609-8l-13.078-19.574 10.297-15.449 55.465 6.9375 13.969 20.953h-0.003906c1.4883 2.2266 3.9922 3.5625 6.6719 3.5586h76.688l21.656 21.656c0.76562 0.76953 1.6797 1.3711 2.6875 1.7773l37.168 14.863 8.8555 17.703h-395.05v-192h74.727zm327.33-115.15h16v14.855c-5.332-1.5156-10.668-2.9102-16-4.1836zm-64-22.398 16 10.664v13.922c-10.656-1.1602-21.32-1.7617-32-1.9922v-11.914zm-152 26.68 16-10.68 16 10.664v7.3906c-10.902 2.7695-21.566 6.0391-32 9.8086zm144 155.72v-16h128v16z"/>
  <path d="m72 224h-32c-4.418 0-8 3.582-8 8v32c0 2.1211 0.84375 4.1562 2.3438 5.6562s3.5352 2.3438 5.6562 2.3438h32c2.1211 0 4.1562-0.84375 5.6562-2.3438s2.3438-3.5352 2.3438-5.6562v-32c0-2.1211-0.84375-4.1562-2.3438-5.6562s-3.5352-2.3438-5.6562-2.3438zm-8 32h-16v-16h16z"/>
  <path d="m144 264v-32c0-2.1211-0.84375-4.1562-2.3438-5.6562s-3.5352-2.3438-5.6562-2.3438h-32c-4.418 0-8 3.582-8 8v32c0 2.1211 0.84375 4.1562 2.3438 5.6562s3.5352 2.3438 5.6562 2.3438h32c2.1211 0 4.1562-0.84375 5.6562-2.3438s2.3438-3.5352 2.3438-5.6562zm-16-8h-16v-16h16z"/>
  <path d="m406.46 348.7c1.2539-1.7148 1.7773-3.8633 1.4453-5.9648-0.32812-2.1016-1.4844-3.9844-3.207-5.2344l-88-64c-2.8047-2.0391-6.6016-2.0391-9.4062 0l-88 64c-2.0781 1.5117-3.3047 3.9258-3.2969 6.4961v32c0 4.418 3.582 8 8 8s8-3.582 8-8v-27.93l80-58.184 83.297 60.586c3.5703 2.5938 8.5703 1.8008 11.168-1.7695z"/>
  <path d="m296 336c-4.418 0-8 3.582-8 8v32c0 2.1211 0.84375 4.1562 2.3438 5.6562s3.5352 2.3438 5.6562 2.3438h32c2.1211 0 4.1562-0.84375 5.6562-2.3438s2.3438-3.5352 2.3438-5.6562v-32c0-2.1211-0.84375-4.1562-2.3438-5.6562s-3.5352-2.3438-5.6562-2.3438zm24 32h-16v-16h16z"/>
  <path d="m472 432h-32c-4.418 0-8 3.582-8 8v32c0 2.1211 0.84375 4.1562 2.3438 5.6562s3.5352 2.3438 5.6562 2.3438h32c2.1211 0 4.1562-0.84375 5.6562-2.3438s2.3438-3.5352 2.3438-5.6562v-32c0-2.1211-0.84375-4.1562-2.3438-5.6562s-3.5352-2.3438-5.6562-2.3438zm-8 32h-16v-16h16z"/>
  <path d="m40 392c0 2.1211 0.84375 4.1562 2.3438 5.6562s3.5352 2.3438 5.6562 2.3438h72c4.418 0 8-3.582 8-8s-3.582-8-8-8h-72c-4.418 0-8 3.582-8 8z"/>
  <path d="m136 384h16v16h-16z"/>
  <path d="m88 464h-40c-4.418 0-8 3.582-8 8s3.582 8 8 8h40c4.418 0 8-3.582 8-8s-3.582-8-8-8z"/>
  <path d="m104 464h16v16h-16z"/>
  <path d="m88 424c-4.418 0-8 3.582-8 8s3.582 8 8 8h40c4.418 0 8-3.582 8-8s-3.582-8-8-8z"/>
  <path d="m56 424h16v16h-16z"/>
  <path d="m64 352h24c4.418 0 8-3.582 8-8s-3.582-8-8-8h-24c-4.418 0-8 3.582-8 8s3.582 8 8 8z"/>
  <path d="m32 336h16v16h-16z"/>
  <path d="m280 480h40c4.418 0 8-3.582 8-8s-3.582-8-8-8h-40c-4.418 0-8 3.582-8 8s3.582 8 8 8z"/>
  <path d="m248 464h16v16h-16z"/>
 </g>
</svg>
