<?xml version="1.0" encoding="UTF-8"?>
<svg width="512pt" height="512pt" version="1.1" viewBox="0 0 512 512" xmlns="http://www.w3.org/2000/svg">
 <g fill="#443f3c">
  <path d="m444 392c-11.199 0-20 8.8008-20 20v52h40v-52c0-11.199-8.8008-20-20-20zm4 56h-8v-36c0-2.3984 1.6016-4 4-4s4 1.6016 4 4z"/>
  <path d="m496 352v-16h-80v-40h8v-16h-64v-48h8v-16h-8v-32h-16v8h-24v-16h8v-16h-40v-24h-24v-24h16v-16h-16v-16h-16v16h-16v16h16v24h-24v24h-40v16h8v16h-24v-8h-16v32h-8v16h8v48h-32v-112h8v-16h-16v-67.199l-8-8v-20.801c0-10.398-6.3984-19.199-16-22.398v-17.602h-16v17.602c-9.6016 3.1992-16 12-16 22.398v20.801l-8 8v67.199h-16v16h8v168h-24v16h8v8h-8v16h8v104h-8v16h480v-16h-8v-128zm-128 128h-32v-80c0-8.8008 7.1992-16 16-16s16 7.1992 16 16zm-16-112c-17.602 0-32 14.398-32 32v80h-16v-96c0-26.398-21.602-48-48-48s-48 21.602-48 48v96h-16v-80c0-17.602-14.398-32-32-32s-32 14.398-32 32v80h-8v-160h280v160h-16v-80c0-17.602-14.398-32-32-32zm-64 112h-64v-96c0-17.602 14.398-32 32-32s32 14.398 32 32zm-112 0h-32v-80c0-8.8008 7.1992-16 16-16s16 7.1992 16 16zm64-328h32v8h-32zm-32 24h96v16h-96zm-40 32h176v8h-176zm0 24h176v48h-24.801c-4-23.199-24-40-47.199-40h-32c-23.199 0-43.199 16.801-47.199 40h-24.801zm135.2 48h-94.398c4-14.398 16-24 31.199-24h32c14.398 0 27.199 9.6016 31.199 24zm96.801 16v8h-280v-8zm-320-248c4.8008 0 8 3.1992 8 8v16h-16v-16c0-4.8008 3.1992-8 8-8zm-16 43.199 3.1992-3.1992h25.602l3.1992 3.1992v60.801h-32zm-8 76.801h48v112h-8v16h8v40h-48zm-16 184h64v8h-64zm0 24h64v104h-64zm376 104v-104h56v104zm56-120h-56v-8h56z"/>
  <path d="m72 192h16v24h-16z"/>
  <path d="m72 240h16v24h-16z"/>
  <path d="m72 288h16v24h-16z"/>
  <path d="m72 392c-13.602 0-24 10.398-24 24v48h48v-48c0-13.602-10.398-24-24-24zm8 56h-16v-32c0-4.8008 3.1992-8 8-8s8 3.1992 8 8z"/>
  <path d="m72 104h16v32h-16z"/>
 </g>
</svg>
