<?xml version="1.0" encoding="UTF-8"?>
<svg width="512pt" height="512pt" version="1.1" viewBox="0 0 512 512" xmlns="http://www.w3.org/2000/svg">
 <g fill="#443f3c">
  <path d="m272 272h-32c-4.4141 0-8 3.5742-8 8v48c0 4.4258 3.5859 8 8 8h32c4.4141 0 8-3.5742 8-8v-48c0-4.4258-3.5859-8-8-8zm-8 48h-16v-32h16z"/>
  <path d="m272 352h-32c-4.4141 0-8 3.5742-8 8v48c0 4.4258 3.5859 8 8 8h32c4.4141 0 8-3.5742 8-8v-48c0-4.4258-3.5859-8-8-8zm-8 48h-16v-32h16z"/>
  <path d="m256 192c-17.648 0-32 14.352-32 32s14.352 32 32 32 32-14.352 32-32-14.352-32-32-32zm0 48c-8.8242 0-16-7.1758-16-16s7.1758-16 16-16 16 7.1758 16 16-7.1758 16-16 16z"/>
  <path d="m160 384h16v32h-16z"/>
  <path d="m120 384h16v32h-16z"/>
  <path d="m80 384h16v32h-16z"/>
  <path d="m40 384h16v32h-16z"/>
  <path d="m40 448h16v24h-16z"/>
  <path d="m80 448h16v24h-16z"/>
  <path d="m120 448h16v24h-16z"/>
  <path d="m160 448h16v24h-16z"/>
  <path d="m336 384h16v32h-16z"/>
  <path d="m376 384h16v32h-16z"/>
  <path d="m416 384h16v32h-16z"/>
  <path d="m456 384h16v32h-16z"/>
  <path d="m456 448h16v24h-16z"/>
  <path d="m416 448h16v24h-16z"/>
  <path d="m376 448h16v24h-16z"/>
  <path d="m336 448h16v24h-16z"/>
  <path d="m480 252.69v-28.688h-16v28.688l-21.656 21.656c-1.5039 1.4961-2.3438 3.5273-2.3438 5.6562v20.367l-2.7266-2.3906c-1.4648-1.2734-3.3359-1.9766-5.2734-1.9766h-112v-128c0-2.2148-0.89453-4.2148-2.3516-5.6641l-34.414-34.426c8.2617-9.4141 12.766-21.383 12.766-34.039 0-16.191-7.7344-31.672-20.695-41.398l-11.305-8.4727v-36h-16v36l-11.305 8.4805c-12.961 9.7188-20.695 25.199-20.695 41.391 0 12.656 4.5117 24.617 12.77 34.039l-34.414 34.426c-1.4609 1.4492-2.3555 3.4492-2.3555 5.6641v128h-112c-1.9375 0-3.8086 0.70312-5.2734 1.9766l-2.7266 2.3906v-20.367c0-2.1289-0.83984-4.1602-2.3438-5.6562l-21.656-21.656v-28.688h-16v28.688l-21.656 21.656c-1.5039 1.4961-2.3438 3.5273-2.3438 5.6562v216c0 4.4258 3.5859 8 8 8h480c4.4141 0 8-3.5742 8-8v-216c0-2.1289-0.83984-4.1602-2.3438-5.6562zm-24 30.625 16-16 16 16v59.055l-32-28zm-27.008 28.688 45.711 40h-154.7v-40zm-156.99 176h-32v-24c0-8.8242 7.1758-16 16-16s16 7.1758 16 16zm-16-56c-17.648 0-32 14.352-32 32v24h-16v-312h96v312h-16v-24c0-17.648-14.352-32-32-32zm-10.336-309.66-3.1836-3.1836c-6.7617-6.7539-10.48-15.727-10.48-25.289 0-11.184 5.3438-21.879 14.305-28.602l9.6953-7.2695 9.6953 7.2734c8.9609 6.7188 14.305 17.414 14.305 28.598 0 9.5508-3.7188 18.527-10.48 25.281l-3.1836 3.1836c-3.1211 3.1289-3.1211 8.1836 0 11.312l26.352 26.352h-73.375l26.344-26.344c3.1289-3.1289 3.1289-8.1836 0.007812-11.312zm-162.66 189.66h108.99v40h-154.7zm-43.008-44.688 16 16v31.055l-32 28v-59.055zm-16 100.69h168v120h-168zm296 120v-120h168v120z"/>
 </g>
</svg>
