<?xml version="1.0" encoding="UTF-8"?>
<svg width="512pt" height="512pt" version="1.1" viewBox="0 0 512 512" xmlns="http://www.w3.org/2000/svg">
 <path d="m511.15 147.59c0.55859-1.1055 0.84766-2.3359 0.84766-3.5859v-32c0-4.4141-3.5859-8-8-8h-8v-56c0-10.434-6.6875-19.297-16-22.594v-1.4062c0-4.4141-3.5859-8-8-8s-8 3.5859-8 8v1.4062c-9.3125 3.3125-16 12.176-16 22.594v16h-24v-8c0-4.4141-3.5859-8-8-8s-8 3.5859-8 8v8h-24v-8c0-4.4141-3.5859-8-8-8s-8 3.5859-8 8v8h-24v-8c0-4.4141-3.5859-8-8-8s-8 3.5859-8 8v8h-24v-16c0-10.434-6.6875-19.297-16-22.594v-1.4062c0-4.4141-3.5859-8-8-8s-8 3.5859-8 8v1.4062c-9.3125 3.3125-16 12.176-16 22.594v56h-8c-4.4141 0-8 3.5859-8 8v32c0 1.2461 0.28906 2.4648 0.84766 3.5859l15.152 30.305v23.871l-25.938 6.4805c-3.5664 0.89453-6.0625 4.0977-6.0625 7.7617v80c0 2.5117 1.1836 4.8945 3.1992 6.3984l28.801 21.602v44h-32v-8c0-4.4141-3.5859-8-8-8s-8 3.5859-8 8v8h-32v-8c0-4.4141-3.5859-8-8-8s-8 3.5859-8 8v8h-32v-8c0-4.4141-3.5859-8-8-8s-8 3.5859-8 8v8h-32v-16c4.4141 0 8-3.5859 8-8 0-4.4141-3.5859-8-8-8 0-14.879-10.223-27.375-24-30.945v-1.0547c0-4.4141-3.5859-8-8-8s-8 3.5859-8 8v1.0547c-13.777 3.5664-24 16.062-24 30.945-4.4141 0-8 3.5859-8 8 0 4.4141 3.5859 8 8 8v64c-4.4141 0-8 3.5859-8 8 0 4.4141 3.5859 8 8 8h3.0547l13.793 27.586c1.3594 2.7031 4.1289 4.4141 7.1523 4.4141v14.703l-5.7617 17.297-26.238-0.003906c-4.4141 0-8 3.5859-8 8s3.5859 8 8 8h496c4.4141 0 8-3.5859 8-8s-3.5859-8-8-8h-32v-32c3.0234 0 5.793-1.7109 7.1523-4.4141l13.793-27.586h3.0547c4.4141 0 8-3.5859 8-8s-3.5859-8-8-8v-64c4.4141 0 8-3.5859 8-8s-3.5859-8-8-8v-158.11l15.152-30.305zm-47.152-99.586c0-4.4141 3.5859-8 8-8s8 3.5859 8 8v16h-16zm-192 0c0-4.4141 3.5859-8 8-8s8 3.5859 8 8v16h-16zm0 32h208v24h-24c-4.4141 0-8 3.5859-8 8v24h-40v-24c0-4.4141-3.5859-8-8-8h-48c-4.4141 0-8 3.5859-8 8v24h-40v-24c0-4.4141-3.5859-8-8-8h-24zm-16 40h32v24c0 4.4141 3.5859 8 8 8h56c4.4141 0 8-3.5859 8-8v-24h32v24c0 4.4141 3.5859 8 8 8h56c4.4141 0 8-3.5859 8-8v-24h32v22.113l-12.945 25.887h-214.11l-12.945-25.887zm224 188.34c-2.4805-1.4414-5.168-2.543-8-3.2812v-1.0547c0-4.4141-3.5859-8-8-8s-8 3.5859-8 8v1.0547c-13.777 3.5664-24 16.062-24 30.945-4.4141 0-8 3.5859-8 8s3.5859 8 8 8v64h-48v-64c4.4141 0 8-3.5859 8-8s-3.5859-8-8-8c0-14.879-10.223-27.375-24-30.945v-1.0547c0-4.4141-3.5859-8-8-8s-8 3.5859-8 8v1.0547c-13.777 3.5664-24 16.062-24 30.945-4.4141 0-8 3.5859-8 8s3.5859 8 8 8v64h-48v-232h208zm-124.95 139.66h-6.1133l-8-16h22.113zm-3.0547-128c8.8164 0 16 7.1836 16 16h-32c0-8.8164 7.1836-16 16-16zm16 32v64h-32v-64zm-128-129.76 16-4v21.762h-16zm0 69.762v-36h16v48zm16 92v32h-176v-32zm-208-64c8.8164 0 16 7.1836 16 16h-32c0-8.8164 7.1836-16 16-16zm16 32v64h-32v-64zm-27.055 80h22.113l-8 16h-6.1133zm18.641 50.527c0.27344-0.81641 0.41406-1.6641 0.41406-2.5273v-16c3.0234 0 5.793-1.7109 7.1523-4.4141l13.793-27.586h179.05v64h-204.89l4.4961-13.473zm216.41 13.473v-64h51.055l13.793 27.586c1.3594 2.7031 4.1289 4.4141 7.1523 4.4141v8c0 4.4141 3.5859 8 8 8s8-3.5859 8-8v-8c3.0234 0 5.793-1.7109 7.1523-4.4141l13.793-27.586h54.113l13.793 27.586c1.3594 2.7031 4.1289 4.4141 7.1523 4.4141v32zm195.05-48h-6.1133l-8-16h22.113zm12.945-32h-32v-64h32zm-32-80c0-8.8164 7.1836-16 16-16s16 7.1836 16 16zm-128-120c0-4.4141 3.5859-8 8-8s8 3.5859 8 8-3.5859 8-8 8-8-3.5859-8-8zm64 0c0-4.4141 3.5859-8 8-8s8 3.5859 8 8-3.5859 8-8 8-8-3.5859-8-8zm32 0c0-4.4141 3.5859-8 8-8s8 3.5859 8 8-3.5859 8-8 8-8-3.5859-8-8zm-96 32c0-4.4141 3.5859-8 8-8s8 3.5859 8 8-3.5859 8-8 8-8-3.5859-8-8zm64 32v-32c0-4.4141 3.5859-8 8-8s8 3.5859 8 8v32c0 4.4141-3.5859 8-8 8s-8-3.5859-8-8zm32 0v-32c0-4.4141 3.5859-8 8-8s8 3.5859 8 8v32c0 4.4141-3.5859 8-8 8s-8-3.5859-8-8zm-320 184c0 4.4141-3.5859 8-8 8s-8-3.5859-8-8 3.5859-8 8-8 8 3.5859 8 8zm48 0c0 4.4141-3.5859 8-8 8s-8-3.5859-8-8 3.5859-8 8-8 8 3.5859 8 8zm48 0c0 4.4141-3.5859 8-8 8s-8-3.5859-8-8 3.5859-8 8-8 8 3.5859 8 8zm48 0c0 4.4141-3.5859 8-8 8s-8-3.5859-8-8 3.5859-8 8-8 8 3.5859 8 8z" fill="#443f3c"/>
</svg>
