<?xml version="1.0" encoding="UTF-8"?>
<svg width="512pt" height="512pt" version="1.1" viewBox="0 0 512 512" xmlns="http://www.w3.org/2000/svg">
 <path d="m480 366.46v-106.46c-0.03125-26.512-10.574-51.93-29.324-70.676-18.746-18.75-44.164-29.293-70.676-29.324h-26.461l-74.34-29.734c-3.4531-18.617-13.316-35.434-27.875-47.539-14.555-12.102-32.891-18.727-51.824-18.727h-2.5547l-8.1211-16.25c-7.7734-15.547-22.168-26.738-39.152-30.438-16.984-3.7031-34.73 0.48828-48.266 11.395-13.535 10.902-21.406 27.352-21.406 44.734v7.9375-0.003906c-6.1133 2.1641-11.09 6.707-13.801 12.598-2.707 5.8906-2.918 12.625-0.58594 18.676 2.3359 6.0469 7.0195 10.895 12.988 13.434l-5.6328 5.6328c-6.832 6.832-10.039 16.484-8.6562 26.043 1.3867 9.5586 7.1992 17.906 15.688 22.516v90.184l-60.066 150.17c-6.7773 16.93-4.7148 36.125 5.5117 51.227 10.223 15.102 27.277 24.148 45.516 24.145h25.039c2.125 0.003906 4.1602-0.84375 5.6602-2.3477 5.0703 1.5586 10.344 2.3516 15.645 2.3477h26.695c10.605-0.011719 20.773-4.2305 28.27-11.73 7.5-7.4961 11.719-17.664 11.73-28.27v-8c0-2.1211-0.84375-4.1562-2.3438-5.6562s-3.5352-2.3438-5.6562-2.3438h-21.754l83.621-104.53 0.89062 0.62109v0.003906c5.3789 3.7578 11.164 6.9062 17.242 9.3828v38.02c0 6.9609 1.8203 13.805 5.2734 19.848l24.078 42.137-17.789 11.859c-2.2266 1.4844-3.5625 3.9805-3.5625 6.6562v24c0 2.1211 0.84375 4.1562 2.3438 5.6562s3.5352 2.3438 5.6562 2.3438h216c2.1211 0 4.1562-0.84375 5.6562-2.3438s2.3438-3.5352 2.3438-5.6562v-80c0-1.0195-0.19531-2.0273-0.57031-2.9727zm-392-270.46h48c4.418 0 8 3.582 8 8s-3.582 8-8 8h-8c-3.2344 0-6.1523 1.9492-7.3906 4.9375-1.2383 2.9922-0.55469 6.4297 1.7344 8.7188l10.344 10.344h-41.375l10.344-10.344c2.2891-2.2891 2.9727-5.7266 1.7344-8.7188-1.2383-2.9883-4.1562-4.9375-7.3906-4.9375h-8c-4.418 0-8-3.582-8-8s3.582-8 8-8zm56 57.371c-0.003906 3.8789-1.5469 7.5977-4.2891 10.34-2.7422 2.7422-6.4609 4.2852-10.34 4.2891h-34.742c-3.8789-0.003906-7.5977-1.5469-10.34-4.2891-2.7422-2.7422-4.2852-6.4609-4.2891-10.34 0-0.46094 0.023438-0.91797 0.066406-1.3711h63.867c0.042968 0.45312 0.066406 0.91016 0.066406 1.3711zm136 314.91 20.438-13.625c3.5-2.332 4.5938-6.9766 2.5078-10.625l-27.781-48.625c-2.0742-3.625-3.1641-7.7305-3.1641-11.906v-33.199c5.6719 1.1328 11.438 1.6992 17.219 1.6992h46.781v32c0 1.3906 0.36328 2.7617 1.0547 3.9688l30.945 54.156v37.875h-88zm100.23-65.945 17.043 34.086-13.27 6.6328v-3.0547c0-1.3906-0.36328-2.7617-1.0547-3.9688l-30.945-54.156v-29.875h24v32.449c0.011719 6.2109 1.457 12.332 4.2266 17.887zm99.773 77.664h-96v-19.055l27.578-13.789c3.9531-1.9766 5.5547-6.7812 3.5781-10.734l-20.617-41.234c-1.6641-3.3359-2.5312-7.0117-2.5391-10.738v-104.45h-16v56h-86.781c-14.773-0.003906-29.188-4.5469-41.293-13.016l-0.046875-0.03125 30.367-37.953c1.1367-1.418 1.7539-3.1836 1.7539-5v-96h-16v93.195l-126.25 157.8c-1.1367 1.418-1.7539 3.1836-1.7539 5v8c0 2.1211 0.84375 4.1562 2.3438 5.6562s3.5352 2.3438 5.6562 2.3438h24c-0.007812 6.3633-2.5391 12.465-7.0391 16.961-4.4961 4.5-10.598 7.0312-16.961 7.0391h-26.695c-12.93 0-24.938-6.6953-31.734-17.691-6.7969-11-7.4141-24.734-1.6328-36.297l75.219-150.43c0.40625-0.8125 0.66797-1.6875 0.78125-2.5859l8-64-15.875-1.9844-7.832 62.641-74.602 149.21h0.003906c-4.9688 9.9258-6.7109 21.156-4.9805 32.117 1.7305 10.965 6.8438 21.113 14.625 29.027h-8.3164c-12.93 0-25.016-6.4102-32.262-17.117-7.25-10.707-8.7148-24.309-3.9102-36.312l60.641-151.6v0.003906c0.375-0.94531 0.57031-1.9531 0.57031-2.9727v-88h33.371c8.125 0 15.914-3.2266 21.656-8.9727 5.7461-5.7422 8.9727-13.531 8.9727-21.656 0-8.1211-3.2266-15.91-8.9688-21.656l-5.6328-5.6328c6.8398-2.9102 11.945-8.8281 13.82-16.02 1.8789-7.1914 0.31641-14.852-4.2266-20.734-4.543-5.8828-11.559-9.3281-18.992-9.3281h-40v-6.5586c0-12.543 5.6797-24.406 15.445-32.273 9.7656-7.8633 22.57-10.887 34.82-8.2188 12.254 2.668 22.641 10.742 28.25 21.957l10.328 20.672v-0.003906c1.3555 2.7148 4.125 4.4258 7.1562 4.4258h7.5c15.859-0.003906 31.172 5.7891 43.062 16.281 11.887 10.496 19.535 24.973 21.5 40.707 0.35938 2.8906 2.2617 5.3594 4.9648 6.4414l80 32c0.94531 0.375 1.9531 0.57031 2.9727 0.57031h28c22.27 0.027344 43.621 8.8867 59.367 24.633 15.746 15.746 24.605 37.098 24.633 59.367v108c0 1.0195 0.19531 2.0273 0.57031 2.9727l15.43 38.566z" fill="#443f3c"/>
</svg>
