<?xml version="1.0" encoding="UTF-8"?>
<svg width="512pt" height="512pt" version="1.1" viewBox="0 0 512 512" xmlns="http://www.w3.org/2000/svg">
 <path d="m465.92 460.8h-117.76c1.0234-24.062 10.754-125.44 84.48-171.01 2.0469-1.5352 3.0703-4.0977 2.0469-6.1445-1.0234-2.5586-3.5859-3.5859-5.6328-3.0703-1.0234 0-50.176 10.238-88.062 54.785 1.5352-7.6797 3.0703-15.359 4.6094-23.039l2.0469 0.51172h1.0234c2.5586 0 4.6094-1.5352 5.1211-4.0977 0.51172-2.5586-1.5352-5.6328-4.0977-5.6328h-1.5352c9.7266-43.008 23.039-81.406 38.91-113.15l4.0977 1.5352c0.51172 0 1.0234 0.51172 2.0469 0.51172 2.0469 0 4.0977-1.0234 4.6094-3.0703 1.0234-2.5586 0-5.6328-3.0703-6.6562l-3.0703-1.0234c13.312-25.09 29.184-46.594 46.078-62.977 3.0703 5.1211 6.1445 11.777 8.1914 19.457 7.6797 31.23-3.5859 69.633-33.793 114.18-1.5352 2.0469-1.0234 4.6094 0.51172 6.1445 1.0234 1.0234 2.5586 1.5352 3.5859 1.5352 1.0234 0 1.5352 0 2.5586-0.51172 1.0234-0.51172 89.602-51.711 69.633-133.12-4.6094-18.434-13.312-31.23-26.113-37.375-12.289-6.1445-25.09-5.1211-34.305-3.5859-2.5586-8.7031-7.168-20.992-18.434-29.184-11.777-8.7031-26.625-11.266-45.055-7.168-2.0469 0.51172-4.6094 1.0234-7.168 2.0469-6.1445-6.1445-13.312-12.289-22.016-17.922-16.895-10.754-32.77-13.312-47.105-8.7031-16.383 5.6328-27.137 19.969-32.77 29.695-5.6328-9.7266-16.383-24.062-32.77-29.695-14.336-5.1211-30.207-2.0469-47.105 8.7031-8.7031 5.6328-15.871 11.266-21.504 17.922-2.5586-0.51172-4.6094-1.5352-7.168-2.0469-18.434-4.0977-33.793-1.5352-45.055 7.168-10.754 8.1914-15.871 20.48-18.434 29.184-8.7031-2.0469-22.016-2.5586-34.305 3.5859-12.801 6.6562-22.016 18.945-26.113 37.375-19.445 79.871 69.129 131.07 70.152 131.58 1.0234 0.51172 1.5352 0.51172 2.5586 0.51172 1.5352 0 2.5586-0.51172 3.5859-1.5352 1.5352-1.5352 2.0469-4.6094 0.51172-6.1445-30.207-44.543-41.473-82.945-33.793-114.18 2.0469-7.6797 5.1211-14.336 8.1914-19.457 17.406 16.895 32.77 37.887 46.078 62.977l-2.5547 1.0234c-2.5586 1.0234-4.0977 4.0977-3.0703 6.6562 1.0234 2.0469 2.5586 3.0703 4.6094 3.0703 0.51172 0 1.0234 0 2.0469-0.51172l4.0977-1.5352c15.871 31.742 29.184 70.145 38.91 113.15h-1.5352c-2.5586 0.51172-4.6094 3.0703-4.0977 5.6328 0.51172 2.5586 2.5586 4.0977 5.1211 4.0977h1.0234l2.0469-0.51172c1.5352 7.6797 3.0703 15.359 4.6094 23.039-38.402-43.008-88.066-53.25-88.578-53.762-2.5586-0.51172-4.6094 1.0234-5.6328 3.0703-1.0234 2.0469 0 5.1211 2.0469 6.1445 73.73 46.082 82.945 147.46 84.48 171.52h-117.76c-14.336 0-25.602 11.266-25.602 25.602 0 3.0703 2.0469 5.1211 5.1211 5.1211h460.8c3.0703 0 5.1211-2.0469 5.1211-5.1211 0-14.34-11.262-25.602-25.598-25.602zm-63.488-160.77c-56.32 53.762-63.488 138.75-64.512 160.77h-30.207c0.51172-28.672 5.6328-53.246 13.312-73.215 0.51172-0.51172 1.0234-1.0234 1.5352-2.0469 0-0.51172 0.51172-2.0469 1.5352-5.1211 3.5859-8.1914 7.6797-15.871 12.289-22.527 0.51172-0.51172 1.0234-1.5352 1.5352-2.0469 18.941-29.699 45.055-46.598 64.512-55.812zm-139.78 160.77c7.168-31.23 13.312-59.391 18.434-84.48 0.51172-1.0234 1.0234-1.5352 1.0234-2.5586v-2.0469c10.238-50.688 15.871-86.527 18.945-103.43 29.184 41.984 16.895 97.281 13.312 110.59-9.2148 22.016-15.359 49.152-15.871 81.406h-35.844zm-48.129 0c-0.51172-32.77-6.6562-59.391-15.871-81.406-3.5859-13.824-16.383-68.609 13.312-110.59 2.5586 16.895 8.7031 52.734 18.945 103.43l-0.003906 1.5352c0 1.0234 0.51172 2.0469 1.0234 2.5586 5.1211 24.574 11.266 52.734 18.434 84.48zm-84.992-365.57c-2.0469-2.0469-3.5859-4.0977-5.6328-6.1445 2.5586 0 4.6094 0 7.168 0.51172-0.51172 1.5391-1.0234 3.5859-1.5352 5.6328zm22.527 46.082c4.0977 6.6562 8.7031 13.312 12.801 20.992l-19.969 7.6797c2.5625-10.242 4.6094-19.969 7.168-28.672zm4.6094-12.289c1.0234-2.0469 1.5352-4.0977 2.5586-5.6328v9.7266c-1.0234-1.5312-2.0469-3.0703-2.5586-4.0938zm25.602 31.746c-1.0234-2.5586-4.0977-4.0977-6.6562-3.0703l-1.0234 0.51172c-7.6797-20.992-9.2148-46.594 5.1211-74.754 7.168-14.848 16.895-23.551 28.672-26.113 2.5586-0.51172 5.6328-1.0234 8.1914-1.0234 10.238 0 19.969 4.0977 27.137 7.6797-2.0469 1.0234-4.0977 1.5352-6.6562 3.0703-0.51562-0.51172-1.0273-0.51172-1.5391-0.51172-2.0469 0-4.0977 1.5352-4.6094 3.5859-8.7031 5.1211-18.434 13.312-25.602 25.09-0.51172 0.51172-0.51172 0.51172-0.51172 1.0234-0.51172 0.51172-1.0234 1.0234-1.0234 2.0469-14.848 25.602-15.359 60.414-2.0469 103.43-7.168-8.1914-15.871-19.969-22.527-33.793l1.0234-0.51172c1.5391-1.0273 3.0742-4.0977 2.0508-6.6562zm73.727-90.113c2.0469 0.51172 8.1914 2.0469 15.359 5.6328v118.27h-30.719v-118.27c7.168-3.5859 13.312-5.1211 15.359-5.6328zm124.93 18.945c2.5586-0.51172 5.1211-0.51172 7.168-0.51172-2.0469 2.0469-4.0977 4.0977-5.6328 6.1445-0.51172-2.0508-1.0234-4.0977-1.5352-5.6328zm-33.793 72.191c4.0977-7.168 8.1914-13.824 12.801-20.48 2.5586 8.7031 5.1211 18.434 7.168 28.672zm5.6328-28.672c0-3.0703 0.51172-6.6562 0-9.7266 1.0234 2.0469 1.5352 4.0977 2.5586 6.1445-0.51172 1.0195-1.5352 2.0469-2.5586 3.582zm-14.848 25.086-1.0234-0.51172c-2.5586-1.0234-5.6328 0-6.6562 3.0703-1.0234 2.5586 0 5.6328 3.0703 6.6562l1.0234 0.51172c-3.0703 6.6562-6.6562 12.801-10.238 18.434 0 0.51172-0.51172 0.51172-0.51172 1.0234-4.0977 5.6328-7.6797 10.238-11.777 14.336 9.2148-30.207 11.777-56.32 7.6797-78.336 0-0.51172 0-1.5352-0.51172-2.0469-2.0469-8.7031-5.1211-16.383-9.2148-23.551 0-0.51172-0.51172-0.51172-0.51172-1.0234s-0.51172-1.5352-1.5352-2.0469c-7.6797-11.777-16.895-19.457-25.602-24.574-1.5391-2.0508-3.5859-3.5898-5.6328-3.5898-0.51172 0-1.0234 0-1.5352 0.51172-2.5586-1.0234-4.6094-2.0469-6.6562-3.0703 8.7031-4.6094 22.016-9.7266 34.816-6.6562 11.777 2.5586 21.504 11.266 28.672 26.113 14.848 28.16 13.312 53.758 6.1445 74.75zm-39.426 92.672c-1.0234-0.51172-2.0469-0.51172-3.0703 0-2.0469 0.51172-3.0703 2.0469-3.5859 4.0977 0 0.51172-3.0703 22.527-10.238 62.465v-112.64c3.0703 0 5.1211-2.0469 5.1211-5.1211 0-3.0703-2.0469-5.1211-5.1211-5.1211v-20.48c1.5352 0 3.0703-1.0234 4.0977-2.5586 7.6797-13.312 15.871-25.602 24.062-35.84 2.0469 23.039-3.0703 50.176-15.359 82.434-1.0234 2.0469 0 4.6094 1.5352 6.1445 1.0234 0.51172 2.0469 1.0234 3.0703 1.0234 1.0234 0 2.0469-0.51172 3.0703-1.0234 0 0 3.0703-2.5586 7.6797-7.168-4.0938 11.262-7.6797 22.527-11.262 33.789zm-57.855 87.043h30.719v32.77c-4.0977 21.504-9.2148 45.566-15.359 71.68-6.1445-26.625-11.266-50.688-15.359-71.68zm0-10.242v-122.88h30.719v122.88zm56.832-228.86c-7.6797 13.312-12.801 27.137-15.871 38.91v-55.293c5.6289 4.0938 10.75 9.2148 15.871 16.383zm10.238 23.551c-5.6328 6.6562-11.777 14.336-17.406 22.527 2.5586-10.238 6.6562-23.039 12.801-35.328 2.0469 4.0977 3.582 8.1953 4.6055 12.801zm-98.816-13.312c6.1445 12.289 10.238 25.09 12.801 35.328-5.6328-8.1914-11.266-15.871-17.406-22.527 1.0234-4.0938 2.5586-8.7031 4.6055-12.801zm5.6328-10.238c4.6094-6.6562 10.238-11.777 15.871-15.871v54.273c-3.0703-11.777-8.1914-25.602-15.871-38.402zm3.0742 119.3c-12.289-32.258-17.406-59.902-15.359-82.945 8.1914 10.238 16.383 22.527 24.062 35.84 1.0234 1.5352 2.5586 2.5586 4.0977 2.5586v20.48c-3.0703 0-5.1211 2.0469-5.1211 5.1211 0 3.0703 2.0469 5.1211 5.1211 5.1211v113.15c-7.168-39.938-10.238-61.953-10.238-62.465-0.51172-2.0469-1.5352-3.5859-3.5859-4.0977-1.0234-0.51172-2.0469-0.51172-3.0703 0-3.5859-11.266-7.168-22.527-11.266-33.793 4.6094 4.0977 7.168 6.6562 7.6797 6.6562 1.0234 0.51172 2.0469 1.0234 3.0703 1.0234 1.0234 0 2.0469-0.51172 3.0703-1.0234 1.5391-1.0234 2.5625-3.0703 1.5391-5.6289zm112.12 122.37c0.51172-9.7266 0-20.48-2.0469-31.742l7.6797 1.5352c-2.0469 9.7266-4.0938 19.965-5.6328 30.207zm7.6797-40.449-12.289-2.0469c-3.5859-13.312-9.2148-26.113-18.434-38.398 6.6562-24.062 15.359-46.594 25.602-68.098v-0.51172c4.0977-5.6328 7.6797-12.289 10.754-19.457l34.305 13.824c-16.383 32.258-29.695 71.168-39.938 114.69zm44.547-124.41-4.0977-1.5391c2.5586-6.6562 10.754-34.816 6.6562-66.559 5.6328-6.6562 11.266-12.289 16.895-17.406 8.7031 1.5352 14.848 4.6094 17.922 6.6562 2.5586 2.0469 7.168 5.6328 12.289 11.266-18.434 17.918-35.328 40.445-49.664 67.582zm75.773-79.875c10.238 5.1211 17.406 15.359 20.992 30.719 12.289 49.664-20.992 87.551-44.543 107.01 21.504-37.883 28.672-71.676 21.504-100.35-3.0703-11.777-8.1914-20.992-13.312-28.16-3.5859-5.1211-7.6797-9.2148-11.266-11.777 7.1719-1.5352 17.41-2.0469 26.625 2.5586zm-90.621-38.398c15.359-3.5859 27.648-1.5352 36.863 5.1211 8.1914 6.1445 12.289 15.359 14.336 22.527-8.7031-3.5859-23.039-7.6797-40.449-5.1211-3.0703-7.6797-7.168-14.848-12.289-22.016 0-0.51172 1.0273-0.51172 1.5391-0.51172zm-74.754-25.086c11.266-3.5859 24.574-1.5352 38.398 7.6797 28.672 18.434 40.449 43.008 44.031 66.559v0.51172c2.5586 17.406 1.0234 33.793-1.5352 45.566-2.0469-8.1914-4.6094-15.871-7.168-23.039 0-1.0234-0.51172-1.5352-1.0234-2.0469-5.6328-14.336-11.777-27.137-19.457-37.375-1.5352-3.5859-3.0703-7.168-4.6094-10.754-8.7031-17.406-20.992-28.16-35.84-31.742-13.824-3.0703-27.648 1.0234-37.375 5.6328 5.1211-8.1953 13.316-17.41 24.578-20.992zm-110.59 7.6797c13.824-8.7031 26.625-11.266 38.398-7.6797 11.266 3.5859 18.945 12.801 24.062 20.48-9.7266-4.6094-23.551-8.7031-37.375-5.6328-14.848 3.5859-27.137 13.824-35.84 31.742-2.0469 3.5859-3.5859 7.168-4.6094 10.754-11.777 15.871-20.992 36.352-27.137 61.953-5.6289-28.164-7.1641-80.387 42.5-111.62zm-73.219 22.527c9.2148-6.6562 21.504-8.7031 36.863-5.1211 0.51172 0 1.0234 0.51172 1.5352 0.51172-5.1211 7.168-9.2148 14.336-12.289 22.016-17.406-2.5586-31.742 1.5352-40.449 5.1211 2.0547-7.168 6.1484-16.383 14.34-22.527zm-52.223 70.656c-7.168 28.672 0 62.465 21.504 100.86-23.551-19.457-56.832-57.344-44.543-107.01 3.5859-15.359 10.754-25.602 20.992-30.719 5.6328-2.5586 11.266-3.5859 16.895-3.5859 3.5859 0 6.6562 0.51172 9.7266 1.0234-3.5859 3.0703-7.168 6.6562-11.266 11.777-5.1172 6.6562-10.238 15.871-13.309 27.648zm24.062-25.09c4.6094-5.6328 9.7266-9.2148 12.289-11.266 3.0703-2.0469 9.7266-4.6094 17.922-6.6562 5.6328 5.1211 11.266 10.754 16.383 17.406-4.0977 31.742 4.6094 59.902 6.6562 66.559l-3.5859 1.5352c-14.336-26.617-30.719-49.656-49.664-67.578zm54.785 76.801 34.305-13.312c3.0703 7.168 7.168 13.824 11.266 19.457v0.51172c9.7266 20.992 18.434 44.031 25.09 68.098-9.2148 12.289-15.359 25.602-18.945 38.91l-12.289 2.0469c-10.242-44.031-23.555-82.941-39.426-115.71zm49.152 123.9c-2.0469 10.754-2.5586 20.992-2.0469 30.719-1.5352-9.7266-3.5859-19.457-5.6328-29.184zm-74.754-8.7031c19.457 9.2148 45.566 26.113 65.023 55.809 0.51172 1.0234 0.51172 1.5352 1.5352 2.0469 4.0977 6.6562 8.1914 14.336 11.777 22.527 0.51172 3.0703 1.5352 4.6094 1.5352 5.1211 0.51172 1.0234 1.0234 1.5352 1.5352 2.0469 7.6797 19.969 12.801 44.031 13.312 73.215l-30.207 0.003906c-1.0234-22.016-8.1914-107.01-64.512-160.77zm-77.824 181.25c2.0469-6.1445 7.6797-10.238 14.336-10.238h419.84c6.6562 0 12.289 4.0977 14.336 10.238z" fill="#443f3c"/>
</svg>
