<?xml version="1.0" encoding="UTF-8"?>
<svg width="512pt" height="512pt" version="1.1" viewBox="0 0 512 512" xmlns="http://www.w3.org/2000/svg">
 <g fill="#443f3c">
  <path d="m488 480v-136h-8v-181.6l8-14.398v-20h-8v-24h8v-16h-16v-32c0-10.398-6.3984-19.199-16-22.398v-17.602h-16v17.602c-9.6016 3.1992-16 12-16 22.398v32h-16v16h8v24h-8v17.602l8 16v15.199l-8-5.6016v-19.199h-16v20l-16 10.398c-20 13.602-32 36-32 60v26.398l-8 8v11.203h-8v-72h8v-16h-8v-24h8v-16h-8v-40h-16v40h-8v16h8v24h-8v16h8v72h-8v-24c0-17.602-8-33.602-22.398-44.801l-17.602-13.598v-21.602h-16v23.199l-16.801 12c-14.398 10.398-23.199 27.199-23.199 45.602v23.199h-8v-72h8v-16h-8v-24h8v-16h-8v-40h-16v40h-8v16h8v24h-8v16h8v72h-88v-77.602l8-14.398v-20h-16v-28.801l8-8v-19.199h-8v-41.602l-16-48v-14.398h-16v14.398l-16 48v41.602h-8v19.199l8 8v28.801h-16v17.602l8 16v134.4h-8v136h-8v16h480v-16zm-160-136v-8h136v8zm32-80v-8h80v8zm64.801-120h47.199l-8 13.602v119.2l-8-8v-26.398c0-20.801-8.8008-40-24-53.602v-30.398zm23.199-96c4.8008 0 8 3.1992 8 8v8h-16v-8c0-4.8008 3.1992-8 8-8zm-8 32h16v8h-16zm-8 24h32v24h-32zm-47.199 92 15.199-10.398 15.199 10.398c15.199 9.6016 24 26.398 24.801 44h-80c0.80078-17.602 10.398-34.398 24.801-44zm-32.801 87.199 3.1992-3.1992h89.602l3.1992 3.1992v4.8008h-96zm112 20.801v16h-136v-16zm-223.2-72 16-12 15.199 12c9.6016 7.1992 16 19.199 16 32h-64c0-12.801 6.3984-24.801 16.801-32zm-16.801 48h64v8h-64zm88 24v40h-112v-40zm-128 16h-136v-16h136zm-120-262.4 7.1992 22.398h-14.398zm-8 38.398h16v24h-16zm-4.8008 40h25.602l-4.8008 4.8008v35.199h-16v-35.199zm-10.398 56h47.199l-8 13.602v82.398h-32v-81.602zm7.1992 144h136v8h-136zm-8 24h432v120h-16v-68c0-24-20-44-44-44s-44 20-44 44v68h-16v-68c0-24-20-44-44-44s-44 20-44 44v68h-16v-68c0-24-20-44-44-44s-44 20-44 44v68h-16v-68c0-24-20-44-44-44s-44 20-44 44v68h-16zm344 64h56v56h-56zm0.80078-16c2.3984-15.199 16-25.602 31.199-24 12 1.6016 22.398 11.199 24 24zm-104.8 16h56v56h-56zm0.80078-16c2.3984-15.199 16-25.602 31.199-24 12 1.6016 22.398 11.199 24 24zm-104.8 16h56v56h-56zm0.80078-16c2.3984-15.199 16-25.602 31.199-24 12 1.6016 22.398 11.199 24 24zm-104.8 16h56v56h-56zm0.80078-16c2.3984-15.199 16-25.602 31.199-24 12 1.6016 22.398 11.199 24 24z"/>
  <path d="m144 368h16v16h-16z"/>
  <path d="m248 368h16v16h-16z"/>
  <path d="m352 368h16v16h-16z"/>
  <path d="m232 312h16v24h-16z"/>
  <path d="m264 312h16v24h-16z"/>
  <path d="m440 160h16v24h-16z"/>
  <path d="m56 208h16v24h-16z"/>
  <path d="m56 256h16v24h-16z"/>
 </g>
</svg>
