<?xml version="1.0" encoding="UTF-8"?>
<svg width="512pt" height="512pt" version="1.1" viewBox="0 0 512 512" xmlns="http://www.w3.org/2000/svg">
 <g fill="#443f3c">
  <path d="m488 297.47v-284.57l-64 21.336v21.762h-16v-20l-40-30-40 30v20h-32v-20l-40-30-40 30v20h-32v-20l-40-30-40 30v20h-16v-21.77l-64-21.328v284.57c-9.2891 3.3164-16 12.117-16 22.531v184h496v-184c0-10.414-6.7109-19.215-16-22.527zm-192 190.53h-80v-72c0-22.055 17.945-40 40-40s40 17.945 40 40zm-40-128c-30.879 0-56 25.129-56 56v72h-16v-72c0-39.703 32.305-72 72-72s72 32.297 72 72v72h-16v-72c0-30.871-25.121-56-56-56zm0-32c-48.52 0-88 39.48-88 88v72h-16v-176h208v176h-16v-72c0-48.52-39.48-88-88-88zm152 96v-16h32v16zm-272 0h-16v-16h16zm-32-80v16h-32v-16zm-16 32v16h-32v-16zm16 32v16h-32v-16zm32-16h-32v-16h32zm0-32h-16v-16h16zm0-32h-32v-16h32zm-32-112v16h-32v-16zm304 16v-16h32v16zm0 64v-16h32v16zm-32 96v-16h32v16zm0-32v-16h16v16zm0-32v-16h32v16zm-240-32h-16v-16h17.473c-0.89844 2.5117-1.4727 5.1836-1.4727 8zm0-32v-16h32v16zm48-16h32v16h-32zm48 0h32v16h-32zm48 0h32v16h-32zm48 0h32v16h-32zm64 32v16h-16v-8c0-2.8164-0.57422-5.4883-1.4727-8zm-16-16v-16h32v16zm16-32h-32v-16h32zm-48 0h-32v-16h32zm-48 0h-32v-16h32zm-48 0h-32v-16h32zm-48 0h-32v-16h32zm-48 0h-32v-16h32zm-32 16v16h-32v-16zm-16 32v16h-32v-16zm48 8c0-4.4141 3.5938-8 8-8h192c4.4062 0 8 3.5859 8 8v8h-208zm224 120h16v16h-16zm48-16v-16h32v16zm-16-32v-16h32v16zm16-32v-16h32v16zm32-32v-16h16v16zm16-32h-48v-16h48zm0-32h-16v-16h16zm0-32h-48v-16h48zm-64 0h-32v-16h32zm-48 0h-32v-16h32zm-48 0h-32v-16h32zm-48 0h-32v-16h32zm-48 0h-32v-16h32zm-48 0h-32v-16h32zm-48 0h-32v-16h32zm-48 0h-32v-16h32zm-16 16v16h-16v-16zm16 32v16h-32v-16zm-16 32v16h-16v-16zm32 32v16h-32v-16zm-32 32v16h-32v-16zm-16 32v16h-16v-16zm16 32v16h-32v-16zm-16 32v16h-16v-16zm16 0h32v16h-32zm48 0h32v16h-32zm272 0h32v16h-32zm48 0h32v16h-32zm48 0h16v16h-16zm-16-16v-16h32v16zm16-32v-16h16v16zm-16-32v-16h32v16zm16-32v-16h8c4.4062 0 8 3.5859 8 8v8zm-400-282.23v26.23h48v-28l24-18 24 18v28h64v-28l24-18 24 18v28h64v-28l24-18 24 18v28h48v-26.23l32-10.664v132.89h-432v-132.9zm-40 266.23h8v16h-16v-8c0-4.4141 3.5938-8 8-8zm-8 160h112v16h-112zm352 16v-16h112v16z"/>
  <path d="m120 104h-64v48h64zm-16 32h-32v-16h32z"/>
  <path d="m200 104h-64v48h64zm-16 32h-32v-16h32z"/>
  <path d="m376 104h-64v48h64zm-16 32h-32v-16h32z"/>
  <path d="m456 104h-64v48h64zm-16 32h-32v-16h32z"/>
  <path d="m256 152c22.055 0 40-17.945 40-40s-17.945-40-40-40-40 17.945-40 40 17.945 40 40 40zm0-64c13.23 0 24 10.77 24 24s-10.77 24-24 24-24-10.77-24-24 10.77-24 24-24z"/>
 </g>
</svg>
