<?xml version="1.0" encoding="UTF-8"?>
<svg width="512pt" height="512pt" version="1.1" viewBox="0 0 512 512" xmlns="http://www.w3.org/2000/svg">
 <path d="m232 24h-9.6094c-31.844-0.085938-62.398 12.57-84.852 35.148l-16.078 16.078c-2.9219 2.8945-6.0859 5.5352-9.4609 7.8867v-3.5195c0.007812-2.7383 1.0977-5.3633 3.0312-7.3047 4.2891-4.3125 6.9609-9.9766 7.5586-16.031 0.60156-6.0547-0.91016-12.133-4.2734-17.203l-4.5859-6.8828c-1.1328-1.6953-1.7344-3.6875-1.7305-5.7266v-10.445h-16v10.445c-0.007812 5.1992 1.5312 10.285 4.4219 14.609l4.582 6.875c2.7188 4.1055 2.1836 9.5547-1.2891 13.047-4.9219 4.9492-7.6953 11.637-7.7148 18.617v11.926c-7.6836 2.8594-15.805 4.3633-24 4.4453v-16.371c0.007812-2.7383 1.0977-5.3633 3.0312-7.3047 4.2891-4.3125 6.9609-9.9766 7.5586-16.031 0.60156-6.0547-0.91016-12.133-4.2734-17.203l-4.5859-6.8828c-1.1328-1.6953-1.7344-3.6875-1.7305-5.7266v-10.445h-16v10.445c-0.007812 5.1992 1.5312 10.285 4.4219 14.609l4.582 6.875c2.7188 4.1055 2.1836 9.5547-1.2891 13.047-4.9219 4.9492-7.6953 11.637-7.7148 18.617v16.406h-16c-6.3633 0.007812-12.465 2.5391-16.965 7.0352-4.4961 4.5-7.0273 10.602-7.0352 16.965v16c0.007812 6.3633 2.5391 12.465 7.0352 16.965 4.5 4.4961 10.602 7.0273 16.965 7.0352h7.3438c-20.383 28.52-31.344 62.699-31.344 97.758v22.242c0.066406 57.266 22.844 112.17 63.336 152.66 40.496 40.492 95.398 63.27 152.66 63.336h133.2c26.742-0.039062 52.5-10.102 72.188-28.199 19.688-18.102 31.875-42.922 34.156-69.57 15.293-10.418 24.449-27.723 24.457-46.23v-64c-0.078125-69.992-27.918-137.1-77.41-186.59-49.492-49.492-116.6-77.332-186.59-77.41zm-200 256v-22.242c-0.019531-44.484 19.418-86.75 53.207-115.69l-10.414-12.141c-5.1094 4.3945-9.9531 9.0938-14.5 14.07h-20.293c-4.418-0.003906-7.9961-3.582-8-8v-16c0.003906-4.418 3.582-7.9961 8-8h31.305c23.07 0.066406 45.203-9.1016 61.469-25.461l16.078-16.078c19.461-19.566 45.941-30.535 73.539-30.461h9.6094c24.395-0.007812 48.66 3.5938 72 10.695v69.305c-0.011719 10.605-4.2305 20.773-11.73 28.27-7.4961 7.5-17.664 11.719-28.27 11.73h-24c-14.848 0.015625-29.082 5.9219-39.578 16.422-10.5 10.496-16.406 24.73-16.422 39.578v16c-0.011719 10.605-4.2305 20.773-11.73 28.27-7.4961 7.5-17.664 11.719-28.27 11.73-14.848 0.015625-29.082 5.9219-39.578 16.422-10.5 10.496-16.406 24.73-16.422 39.578v90.582c-35.941-37.176-56.023-86.871-56-138.58zm448 72c-0.011719 10.605-4.2305 20.773-11.73 28.27-7.4961 7.5-17.664 11.719-28.27 11.73h-40v16h40c4.8555-0.015625 9.6836-0.66797 14.367-1.9375-3.9453 20.77-15.008 39.516-31.281 53.008-16.277 13.496-36.746 20.898-57.887 20.93h-133.2c-46.801 0.039062-92.121-16.414-128-46.469v-105.53c0.011719-10.605 4.2305-20.773 11.73-28.27 7.4961-7.5 17.664-11.719 28.27-11.73 14.848-0.015625 29.082-5.9219 39.578-16.422 10.5-10.496 16.406-24.73 16.422-39.578v-16c0.011719-10.605 4.2305-20.773 11.73-28.27 7.4961-7.5 17.664-11.719 28.27-11.73h24c14.848-0.015625 29.082-5.9219 39.578-16.422 10.5-10.496 16.406-24.73 16.422-39.578v-63.816c47.004 17.898 87.469 49.641 116.04 91.035 28.57 41.395 43.898 90.484 43.961 140.78z" fill="#443f3c"/>
</svg>
