<?xml version="1.0" encoding="UTF-8"?>
<svg width="512pt" height="512pt" version="1.1" viewBox="0 0 512 512" xmlns="http://www.w3.org/2000/svg">
 <g fill="#443f3c">
  <path d="m64 151.8h16v16h-16z"/>
  <path d="m64 279.8h16v16h-16z"/>
  <path d="m64 319.8h16v16h-16z"/>
  <path d="m64 359.8h16v16h-16z"/>
  <path d="m64 399.8h16v16h-16z"/>
  <path d="m64 439.8h16v16h-16z"/>
  <path d="m488 257.7 10-20-10-8.3008v-99.699l9.1016-18.199-57.102-95.301-57.102 95.199 9.1016 18.199v99.699l-2.8984 2.3984-29.102 0.003907v-16h-16v16h-32v-16h-16v16h-32v-48h48v-48h-48v-8h-16v104h-32v-16h-16v16h-32v-16h-16v16h-29.102l-2.8984-2.3984v-99.699l9.1016-18.199-57.102-95.203-57.102 95.199 9.1016 18.199v99.699l-10 8.3008 10 20v222.1h-8v16h480v-16h-8zm-224-105.9h32v16h-32zm-160 328h-64v-216h64zm3.1016-232h-70.203l-3-5.8984 38-31.699 38 31.699zm-67.102-31.801v-80.301h64v80.301l-32-26.699zm67.102-96.199h-70.203l-3.8008-7.6016 38.902-64.898 38.898 64.801zm92.898 360h-16v-32h16zm64 0h-16v-24c0-4.3984 3.6016-8 8-8s8 3.6016 8 8zm64 0h-16v-32h16zm64 0h-48v-48h-48v48h-16v-24c0-13.301-10.699-24-24-24s-24 10.699-24 24v24h-16v-48h-48v48h-48v-64h272zm0-80h-272v-80h272zm-232-96v-11.102l8-4 8 4v11.102zm88 0v-11.102l8-4 8 4v11.102zm80 0v-11.102l8-4 8 4v11.102zm64 0h-32v-20.898l-24-12-24 12v20.898h-32v-20.898l-24-12-24 12v20.898h-40v-20.898l-24-12-24 12v20.898h-24v-46.102l4.8984-9.8984h262.1l4.8984 9.8984v46.102zm80 176h-64v-160h64zm0-176h-64v-40h64zm3.1016-56h-70.102l-3-5.8984 38-31.699 38 31.699zm-67.102-31.801v-80.301h64v80.301l-32-26.699zm67.102-96.199h-70.102l-3.8008-7.6016 38.801-64.898 38.898 64.801z"/>
  <path d="m432 151.8h16v16h-16z"/>
  <path d="m432 359.8h16v16h-16z"/>
  <path d="m432 399.8h16v16h-16z"/>
  <path d="m432 439.8h16v16h-16z"/>
  <path d="m136 335.8h16v16h-16z"/>
  <path d="m136 367.8h16v16h-16z"/>
  <path d="m136 431.8h16v24h-16z"/>
  <path d="m192 335.8h16v16h-16z"/>
  <path d="m360 431.8h16v24h-16z"/>
  <path d="m192 367.8h16v16h-16z"/>
  <path d="m248 335.8h16v16h-16z"/>
  <path d="m248 367.8h16v16h-16z"/>
  <path d="m304 335.8h16v16h-16z"/>
  <path d="m360 335.8h16v16h-16z"/>
  <path d="m304 367.8h16v16h-16z"/>
  <path d="m360 367.8h16v16h-16z"/>
 </g>
</svg>
