<?xml version="1.0" encoding="UTF-8"?>
<svg width="512pt" height="512pt" version="1.1" viewBox="0 0 512 512" xmlns="http://www.w3.org/2000/svg">
 <g fill="#443f3c">
  <path d="m408 332.69v-52.688c0-2.1211-0.84375-4.1562-2.3438-5.6562s-3.5352-2.3438-5.6562-2.3438h-24v-16h8c8.793-0.375 17.27-3.3828 24.332-8.6406 7.0586-5.2539 12.375-12.516 15.254-20.832l8-24c0.21094-0.82812 0.35156-1.6758 0.41406-2.5273v-24h-16v16h-16v-19.199c10.398-5.8164 32-19.945 32-36.801v-32h-16v18.062l-16-9.3281v-24.734h-16v15.398l-16-9.3359v-22.062h-16v12.734l-16-9.3359v-19.398h-16v16h-128v-16h-16v19.398l-16 9.3359v-12.734h-16v22.062l-16 9.3359v-15.398h-16v24.734l-16 9.3281v-18.062h-16v32c0 16.848 21.602 30.977 32 36.801v19.199h-16v-16h-16v24c0.0625 0.85156 0.20312 1.6992 0.41406 2.5273l8 24c2.8789 8.3164 8.1953 15.578 15.254 20.832 7.0625 5.2578 15.539 8.2656 24.332 8.6406h8v16h-24c-4.418 0-8 3.582-8 8v52.688l-85.656 85.656c-1.5 1.5-2.3438 3.5352-2.3438 5.6562v32c0 2.1211 0.84375 4.1562 2.3438 5.6562s3.5352 2.3438 5.6562 2.3438h464c2.1211 0 4.1562-0.84375 5.6562-2.3438s2.3438-3.5352 2.3438-5.6562v-32c0-2.1211-0.84375-4.1562-2.3438-5.6562zm4.8945-124.69-4.4805 13.473c-2.7617 7.4453-8.4531 13.434-15.75 16.566l-35.062-30.039zm-80.613 32-21.336-32h22.105l37.348 32zm27.719 16v40h-16v-40zm-115.05-16 16-32h30.777l21.336 32zm51.055 16v40h-16v-40zm-32 0v40h-16v-40zm16-64v-16h24v16zm32 64h16v40h-16zm8-64v-16h16v16zm32 0v-16h32v16zm-26.168-104 88.953 51.879c-6.5859 8.5195-15.047 15.406-24.73 20.121h-10.262l-58.914-72zm-25.602 0 58.91 72h-49.027l-19.641-72zm-36.23 0h9.8867l19.641 72h-29.527zm0 104h-16v-16h16zm-16-104v72h-29.527l19.641-72zm-20.945 152h-28.109l21.336-32h22.777zm4.9453 16v40h-16v-40zm-90.398-16 37.336-32h22.105l-21.336 32zm26.398 16v40h-16v-40zm-8-64h-32v-16h32zm16 0v-16h16v16zm8 64h16v40h-16zm24-64v-16h24v16zm3.793-104h9.7344l-19.641 72h-49.008zm-114.58 51.879 88.953-51.879h4.9531l-58.91 72h-10.266c-9.6836-4.7148-18.145-11.602-24.73-20.121zm22.121 98.152c-7.2969-3.1289-12.992-9.1133-15.75-16.559l-4.4805-13.473h55.293zm0.66406 49.969h16v16c0 2.1211 0.84375 4.1562 2.3438 5.6562s3.5352 2.3438 5.6562 2.3438h224c2.1211 0 4.1562-0.84375 5.6562-2.3438s2.3438-3.5352 2.3438-5.6562v-16h16v40h-272zm96 160h-184v-16h184zm64 0h-48v-32c0-8.5742 4.5742-16.496 12-20.785 7.4258-4.2852 16.574-4.2852 24 0 7.4258 4.2891 12 12.211 12 20.785zm-24-72c-10.605 0.011719-20.773 4.2305-28.27 11.73-7.5 7.4961-11.719 17.664-11.73 28.27h-172.69l16-16h60.688v-16h-44.688l40-40h281.38l16 16h-52.688v16h68.688l40 40h-172.69c-0.011719-10.605-4.2305-20.773-11.73-28.27-7.4961-7.5-17.664-11.719-28.27-11.73zm224 72h-184v-16h184z"/>
  <path d="m128 360h56v16h-56z"/>
  <path d="m312 384h40v16h-40z"/>
  <path d="m272 360h16v16h-16z"/>
  <path d="m192 384h16v16h-16z"/>
 </g>
</svg>
