<?xml version="1.0" encoding="UTF-8"?>
<svg width="512pt" height="512pt" version="1.1" viewBox="0 0 512 512" xmlns="http://www.w3.org/2000/svg">
 <g fill="#443f3c">
  <path d="m476.16 128.08c-2.7188-51.918-45.68-92.559-97.762-92.559h-244.88c-52 0-94.961 40.641-97.762 92.238-0.16016 1.9219-0.16016 254.56 0 256.24 2.8008 51.84 45.762 92.48 97.762 92.48l244.88 0.003907c52.078 0 95.039-40.641 97.68-91.762 0.32031-2.1602 0.32031-255.36 0.082031-256.64zm-15.762 250.4c0 1.3594 0 2.6406-0.23828 4.7188-2.2305 43.359-38.16 77.281-81.762 77.281h-244.88c-43.52 0-79.441-34-81.762-77.602-0.16016-1.5195-0.16016-2.8789-0.16016-4.3984l0.003906-244.88c0-1.5195 0-2.9609 0.16016-4.7188 2.3203-43.359 38.238-77.359 81.762-77.359l244.88-0.003907c43.602 0 79.52 34 81.84 78.078 0.16016 1.3594 0.16016 2.6406 0.16016 4z"/>
  <path d="m388.88 208.16h-85.039v-85.039c0-4.3984-3.5195-8-8-8h-79.68c-4.4805 0-8 3.6016-8 8v85.039h-84.961c-4.4805 0-8 3.6016-8 8v79.762c0 4.3984 3.5195 8 8 8h84.961v84.961c0 4.3984 3.5195 8 8 8h79.68c4.4805 0 8-3.6016 8-8v-84.961h85.039c4.3984 0 8-3.6016 8-8v-79.762c0-4.3984-3.5977-8-8-8zm-8 79.762h-85.039c-4.4062 0-8 3.5195-8 8v84.961h-63.68v-84.961c0-4.4805-3.6016-8-8-8h-84.961v-63.762h84.961c4.3984 0 8-3.6016 8-8v-85.039h63.68v85.039c0 4.3984 3.5938 8 8 8h85.039z"/>
 </g>
</svg>
