<?xml version="1.0" encoding="UTF-8"?>
<svg width="512pt" height="512pt" version="1.1" viewBox="0 0 512 512" xmlns="http://www.w3.org/2000/svg">
 <g fill="#443f3c">
  <path d="m208 136h16v24h-16z"/>
  <path d="m248 136h16v24h-16z"/>
  <path d="m288 136h16v24h-16z"/>
  <path d="m248 224h16v16h-16z"/>
  <path d="m216 320h16v32h-16z"/>
  <path d="m248 312h16v40h-16z"/>
  <path d="m280 320h16v32h-16z"/>
  <path d="m96 376h16v32h-16z"/>
  <path d="m64 376h16v32h-16z"/>
  <path d="m32 376h16v32h-16z"/>
  <path d="m496 288v-16h-120v-29.602l-32-13.602v-60.797h-8v-40h8v-16h-24v-8c0-22.398-13.602-42.398-33.602-51.199l-22.398-10.402v-26.398h-16v26.398l-22.398 9.6016c-20 8.8008-33.602 29.602-33.602 52v8h-24v16h8v40h-8v60.801l-32 13.602v29.598h-120v16h120v17.602c-9.6016 3.1992-16 12-16 22.398h-8v19.199l4.8008 4.8008h-100.8v16h104v112h-8v-44c0-11.199-8.8008-20-20-20s-20 8.8008-20 20v44h-8v-44c0-11.199-8.8008-20-20-20s-20 8.8008-20 20v44h-8v16h480v-16h-8v-44c0-11.199-8.8008-20-20-20s-20 8.8008-20 20v44h-8v-44c0-11.199-8.8008-20-20-20s-20 8.8008-20 20v44h-8v-112h104v-16h-100.8l4.8008-4.8008v-19.199h-8c0-10.398-6.3984-19.199-16-22.398v-17.602zm-152 40h-8v19.199l4.8008 4.8008h-12.801c0-40-32-72-72-72s-72 32-72 72h-12.801l4.8008-4.8008v-19.199h-8c0-10.398-6.3984-19.199-16-22.398v-41.602h208v41.602c-9.6016 3.1992-16 12-16 22.398zm-24 152h-8v-84c0-2.3984 1.6016-4 4-4s4 1.6016 4 4zm-4-104c-11.199 0-20 8.8008-20 20v84h-8v-72c0-17.602-14.398-32-32-32s-32 14.398-32 32v72h-8v-84c0-11.199-8.8008-20-20-20s-20 8.8008-20 20v84h-8v-112h32v-16c0-31.199 24.801-56 56-56s56 24.801 56 56v16h32v112h-8v-84c0-11.199-8.8008-20-20-20zm-44 104h-32v-72c0-8.8008 7.1992-16 16-16s16 7.1992 16 16zm-72 0h-8v-84c0-2.3984 1.6016-4 4-4s4 1.6016 4 4zm-36-232 92-39.199 92 39.199zm44-144c0-16 9.6016-30.398 24-36.801l24-10.398 24 10.398c14.398 6.3984 24 20.801 24 36.801v8h-96zm-16 24h128v40h-128zm-8 56h144v38.398l-72-31.199-72 31.199zm-40 136c4.8008 0 8 3.1992 8 8h-16c0-4.8008 3.1992-8 8-8zm-12.801 24h25.602l-4.8008 4.8008v131.2h-16v-131.2zm-43.199 92c0-2.3984 1.6016-4 4-4s4 1.6016 4 4v44h-8zm-48 0c0-2.3984 1.6016-4 4-4s4 1.6016 4 4v44h-8zm424 0c0-2.3984 1.6016-4 4-4s4 1.6016 4 4v44h-8zm-48 0c0-2.3984 1.6016-4 4-4s4 1.6016 4 4v44h-8zm-56 44v-131.2l-4.8008-4.8008h25.602l-4.8008 4.8008v131.2zm0-152c0-4.8008 3.1992-8 8-8s8 3.1992 8 8z"/>
  <path d="m400 376h16v32h-16z"/>
  <path d="m432 376h16v32h-16z"/>
  <path d="m464 376h16v32h-16z"/>
 </g>
</svg>
