<?xml version="1.0" encoding="UTF-8"?>
<svg width="512pt" height="512pt" version="1.1" viewBox="0 0 512 512" xmlns="http://www.w3.org/2000/svg">
 <g fill="#443f3c">
  <path d="m360 400h-5.7539l13.512-54.062h0.003907c0.59375-2.3906 0.058593-4.9219-1.457-6.8633-1.5156-1.9375-3.8438-3.0742-6.3047-3.0742h-5.7539l13.512-54.062h0.003907c0.59375-2.3906 0.058593-4.9219-1.457-6.8633-1.5156-1.9375-3.8438-3.0742-6.3047-3.0742h-5.7539l13.512-54.055h0.003907c0.59766-2.3906 0.0625-4.9258-1.4531-6.8672-1.5195-1.9414-3.8438-3.0781-6.3086-3.0781h-5.7539l13.512-54.055h0.003907c0.59766-2.3906 0.0625-4.9258-1.4531-6.8672-1.5195-1.9414-3.8438-3.0781-6.3086-3.0781h-18.23l-14.176-42.527c-1.0898-3.2695-4.1484-5.4727-7.5938-5.4727h-21.754l5.5117-22.055h0.003907c0.59766-2.3906 0.0625-4.9258-1.4531-6.8672-1.5195-1.9414-3.8438-3.0781-6.3086-3.0781h-16v-24c0-2.1211-0.84375-4.1562-2.3438-5.6562s-3.5352-2.3438-5.6562-2.3438h-8v-24c0-4.418-3.582-8-8-8s-8 3.582-8 8v24h-8c-4.418 0-8 3.582-8 8v24h-16c-2.4648 0-4.7891 1.1367-6.3086 3.0781-1.5156 1.9414-2.0508 4.4766-1.4531 6.8672l5.5156 22.055h-21.754c-3.4453 0-6.5039 2.2031-7.5938 5.4727l-14.176 42.527h-18.23c-2.4648 0-4.7891 1.1367-6.3086 3.0781-1.5156 1.9414-2.0508 4.4766-1.4531 6.8672l13.516 54.055h-5.7539c-2.4648 0-4.7891 1.1367-6.3086 3.0781-1.5156 1.9414-2.0508 4.4766-1.4531 6.8672l13.516 54.055h-5.7539c-2.4609 0-4.7891 1.1367-6.3047 3.0742-1.5156 1.9414-2.0508 4.4727-1.457 6.8633l13.516 54.062h-5.7539c-2.4609 0-4.7891 1.1367-6.3047 3.0742-1.5156 1.9414-2.0508 4.4727-1.457 6.8633l13.516 54.062h-5.7539c-4.418 0-8 3.582-8 8v32c0 2.1211 0.84375 4.1562 2.3438 5.6562s3.5352 2.3438 5.6562 2.3438h5.7539l-13.516 54.062c-0.59375 2.3906-0.058593 4.9219 1.457 6.8633 1.5156 1.9375 3.8438 3.0742 6.3047 3.0742h208c2.4609 0 4.7891-1.1367 6.3047-3.0742 1.5156-1.9414 2.0508-4.4727 1.457-6.8633l-13.516-54.062h5.7539c2.1211 0 4.1562-0.84375 5.6562-2.3438s2.3438-3.5352 2.3438-5.6562v-32c0-2.1211-0.84375-4.1562-2.3438-5.6562s-3.5352-2.3438-5.6562-2.3438zm-200 32v-16h192v16zm88-384h16v16h-16zm-21.754 32h59.504l-4 16h-51.504zm-28.48 32h116.46l10.672 32h-137.8zm50.234 48h16v16h-16zm-85.754 0h69.754v24c0 2.1211 0.84375 4.1562 2.3438 5.6562s3.5352 2.3438 5.6562 2.3438h32c2.1211 0 4.1562-0.84375 5.6562-2.3438s2.3438-3.5352 2.3438-5.6562v-24h69.754l-12 48h-163.51zm85.754 64h16v16h-16zm-85.754 0h69.754v24c0 2.1211 0.84375 4.1562 2.3438 5.6562s3.5352 2.3438 5.6562 2.3438h32c2.1211 0 4.1562-0.84375 5.6562-2.3438s2.3438-3.5352 2.3438-5.6562v-24h69.754l-12 48h-163.51zm85.754 64h16v16h-16zm-85.754 0h69.754v24c0 2.1211 0.84375 4.1562 2.3438 5.6562s3.5352 2.3438 5.6562 2.3438h32c2.1211 0 4.1562-0.84375 5.6562-2.3438s2.3438-3.5352 2.3438-5.6562v-24h69.754l-12 48h-163.51zm85.754 64h16v16h-16zm-85.754 0h69.754v24c0 2.1211 0.84375 4.1562 2.3438 5.6562s3.5352 2.3438 5.6562 2.3438h32c2.1211 0 4.1562-0.84375 5.6562-2.3438s2.3438-3.5352 2.3438-5.6562v-24h69.754l-12 48h-163.51zm85.754 144v-16h16v16zm101.75 0h-69.754v-24c0-2.1211-0.84375-4.1562-2.3438-5.6562s-3.5352-2.3438-5.6562-2.3438h-32c-4.418 0-8 3.582-8 8v24h-69.754l12-48h163.51z"/>
  <path d="m192 368h16v16h-16z"/>
  <path d="m304 368h16v16h-16z"/>
  <path d="m192 304h16v16h-16z"/>
  <path d="m304 304h16v16h-16z"/>
  <path d="m192 240h16v16h-16z"/>
  <path d="m304 240h16v16h-16z"/>
  <path d="m192 176h16v16h-16z"/>
  <path d="m304 176h16v16h-16z"/>
  <path d="m248 136h16c4.418 0 8-3.582 8-8s-3.582-8-8-8h-16c-4.418 0-8 3.582-8 8s3.582 8 8 8z"/>
  <path d="m208 120h16v16h-16z"/>
  <path d="m288 120h16v16h-16z"/>
  <path d="m192 480h16c4.418 0 8-3.582 8-8s-3.582-8-8-8h-16c-4.418 0-8 3.582-8 8s3.582 8 8 8z"/>
  <path d="m304 480h16c4.418 0 8-3.582 8-8s-3.582-8-8-8h-16c-4.418 0-8 3.582-8 8s3.582 8 8 8z"/>
  <path d="m504 304h-80c-4.418 0-8 3.582-8 8v192c0 2.1211 0.84375 4.1562 2.3438 5.6562s3.5352 2.3438 5.6562 2.3438h80c2.1211 0 4.1562-0.84375 5.6562-2.3438s2.3438-3.5352 2.3438-5.6562v-192c0-2.1211-0.84375-4.1562-2.3438-5.6562s-3.5352-2.3438-5.6562-2.3438zm-8 192h-64v-176h64z"/>
  <path d="m448 336h32v16h-32z"/>
  <path d="m448 368h32v16h-32z"/>
  <path d="m448 400h32v16h-32z"/>
  <path d="m448 432h32v16h-32z"/>
  <path d="m448 464h32v16h-32z"/>
  <path d="m106.53 352.41-96-32c-2.4336-0.82812-5.1211-0.42187-7.1992 1.0898-2.0898 1.5039-3.3281 3.9219-3.3281 6.4961v176c0 2.1211 0.84375 4.1562 2.3438 5.6562s3.5352 2.3438 5.6562 2.3438h96c2.1211 0 4.1562-0.84375 5.6562-2.3438s2.3438-3.5352 2.3438-5.6562v-144c-0.003906-3.4414-2.207-6.4961-5.4727-7.5859zm-10.527 143.59h-80v-156.89l80 26.664z"/>
  <path d="m40 416h32c2.1211 0 4.1562-0.84375 5.6562-2.3438s2.3438-3.5352 2.3438-5.6562v-32c0-2.1211-0.84375-4.1562-2.3438-5.6562s-3.5352-2.3438-5.6562-2.3438h-32c-4.418 0-8 3.582-8 8v32c0 2.1211 0.84375 4.1562 2.3438 5.6562s3.5352 2.3438 5.6562 2.3438zm8-32h16v16h-16z"/>
  <path d="m40 480h32c2.1211 0 4.1562-0.84375 5.6562-2.3438s2.3438-3.5352 2.3438-5.6562v-32c0-2.1211-0.84375-4.1562-2.3438-5.6562s-3.5352-2.3438-5.6562-2.3438h-32c-4.418 0-8 3.582-8 8v32c0 2.1211 0.84375 4.1562 2.3438 5.6562s3.5352 2.3438 5.6562 2.3438zm8-32h16v16h-16z"/>
 </g>
</svg>
