<?xml version="1.0" encoding="UTF-8"?>
<svg width="512pt" height="512pt" version="1.1" viewBox="0 0 512 512" xmlns="http://www.w3.org/2000/svg">
 <g fill="#443f3c">
  <path d="m488 480v-32h-16v-40l-8-304h8v-16h-10.398l-3.1992-12c-9.6016-32.801-43.199-51.199-75.199-41.602-20.004 5.6016-36.004 21.602-41.602 41.602l-4 12h-9.6016v16h8l-3.1992 128h-28.801v-24h-96v24h-28.801l-3.1992-128h8v-16h-10.398l-3.1992-12c-9.6016-32.801-43.199-51.199-75.199-41.602-20.004 5.6016-36.004 21.602-41.602 41.602l-4 12h-9.6016v16h8l-8 304v40h-16v32h-8v16h480v-16zm-16-16v16h-144v-16zm-128-16v-24h112v24zm108-184h-104l1.6016-72h100.8zm-108 144 3.1992-128h104.8l4 128zm12.801-327.2c7.1992-24 32-37.602 56-31.199 15.199 4 26.398 16 31.199 31.199l2.3984 7.1992h-92zm91.199 23.199 1.6016 72h-99.203l1.6016-72zm-224 144v-24h64v24h44l-4 160v40h-16v32h-112v-32h-16v-40l-4-160zm-162.4-56h100.8l1.6016 72h-104zm7.1992-111.2c7.1992-24 32-37.602 56-31.199 15.199 4 26.398 16 31.199 31.199l2.3984 7.1992h-92zm91.199 23.199 1.6016 72h-99.203l1.6016-72zm-100.8 176h104.8l4 128h-112zm-3.1992 144h112v24h-112zm-16 40h144v16h-144z"/>
  <path d="m72 296h16v24h-16z"/>
  <path d="m104 296h16v24h-16z"/>
  <path d="m136 296h16v24h-16z"/>
  <path d="m136 168v-32c0-13.602-10.398-24-24-24s-24 10.398-24 24v32zm-32-32c0-4.8008 3.1992-8 8-8s8 3.1992 8 8v16h-16z"/>
  <path d="m112 200c-13.602 0-24 10.398-24 24v32h48v-32c0-13.602-10.398-24-24-24zm8 40h-16v-16c0-4.8008 3.1992-8 8-8s8 3.1992 8 8z"/>
  <path d="m360 296h16v24h-16z"/>
  <path d="m392 296h16v24h-16z"/>
  <path d="m424 296h16v24h-16z"/>
  <path d="m424 168v-32c0-13.602-10.398-24-24-24s-24 10.398-24 24v32zm-32-32c0-4.8008 3.1992-8 8-8s8 3.1992 8 8v16h-16z"/>
  <path d="m424 256v-32c0-13.602-10.398-24-24-24s-24 10.398-24 24v32zm-32-32c0-4.8008 3.1992-8 8-8s8 3.1992 8 8v16h-16z"/>
  <path d="m232 326.4c0-2.3984 0.80078-4 2.3984-5.6016l21.602-21.602 21.602 21.602c1.6016 1.6016 2.3984 3.1992 2.3984 5.6016v97.602h16v-97.602c0-6.3984-2.3984-12.801-7.1992-16.801l-32.801-32.797-32.801 32.801c-4.8008 4.7969-7.1992 10.398-7.1992 16.797v97.602h16z"/>
  <path d="m304 256h16v24h-16z"/>
  <path d="m192 256h16v24h-16z"/>
  <path d="m232 232h48v16h-48z"/>
  <path d="m208 456h96v16h-96z"/>
  <path d="m216 432h80v16h-80z"/>
 </g>
</svg>
