<?xml version="1.0" encoding="UTF-8"?>
<svg width="512pt" height="512pt" version="1.1" viewBox="0 0 512 512" xmlns="http://www.w3.org/2000/svg">
 <g fill="#443f3c">
  <path d="m432 360c-0.60156 0-1.1992 0.007812-1.8164 0.023438-7.3203-32.422-36.23-56.023-70.184-56.023-34.641 0-63.633 24.594-70.465 57.23-15.938-12.656-36.711-19.414-59.078-16.633-7.2656-36.855-40.168-64.598-78.457-64.598-38.961 0-71.727 27.68-78.656 65.344-37.664 6.9297-65.344 39.695-65.344 78.656 0 44.113 35.887 80 80 80h344c39.695 0 72-32.305 72-72s-32.305-72-72-72zm-344 128c-35.289 0-64-28.711-64-64 0-32.832 24.574-60.168 57.168-63.625 2.2461-0.23828 4.5273-0.375 6.832-0.375 21.391 0 41.289 10.625 53.207 28.426l13.289-8.9023c-14.52-21.664-38.496-34.719-64.449-35.391 7.0977-27.98 32.242-48.133 61.953-48.133 32.984 0 60.969 25.734 63.719 58.594l0.0625 0.78516c0.12109 1.5312 0.21875 3.0703 0.21875 4.6211 0 18.176-7.7773 35.566-21.336 47.703l10.672 11.922c16.793-15.031 26.457-36.52 26.625-59.016 38.949-5.1523 72.039 25.48 72.039 63.391 0 35.289-28.711 64-64 64zm344 0h-144.2c19.496-14.602 32.199-37.816 32.199-64 0-17.961-5.9844-34.594-16.016-48h0.015625c0-30.879 25.121-56 56-56 25.961 0 48.078 17.762 54.223 42.32-21.895 5.5352-40.215 21.016-48.984 42.68l14.832 6.0078c7.4492-18.398 23.727-31.129 42.84-34.23l1.6484-0.21484c2.4492-0.33203 4.9219-0.5625 7.4414-0.5625 30.879 0 56 25.121 56 56s-25.121 56-56 56z"/>
  <path d="m98.305 247.93c41.734-0.71875 81.414-20.879 106.5-54.328l3.6875-4.9219c12.609 12.383 29.441 19.32 47.512 19.32s34.902-6.9375 47.512-19.32l3.6875 4.9219c25.078 33.449 64.762 53.609 106.5 54.328 37.68 36.527 74.207 67.688 77.121 70.16l10.359-12.184c-0.88672-0.76172-58.504-49.887-103.81-96.902 39.746-15.277 66.633-53.562 66.633-97.004 0-57.344-46.656-104-104-104s-104 46.656-104 104c0 5.3828 0.55078 10.711 1.3672 16h-68.922c-9.8242 0-18.527 5.8555-22.184 14.922-18.672 46.367-154.08 161.82-155.45 162.99l10.359 12.184c2.9258-2.4805 39.453-33.641 77.133-70.168zm173.7-135.93c0-48.52 39.48-88 88-88s88 39.48 88 88c0 39.008-25.617 73.105-62.664 84.223-18.93-20.594-34.184-39.855-39.602-53.305-3.6562-9.0625-12.359-14.918-22.184-14.918h-49.93c-0.96484-5.2656-1.6211-10.602-1.6211-16zm-90.887 36.895c1.1914-2.9727 4.0703-4.8945 7.3359-4.8945h135.11c3.2656 0 6.1445 1.9219 7.3359 4.8945 8.1836 20.312 35.16 51.238 64.703 81.129-29.852-5.2148-57.195-21.488-75.594-46.023l-16-21.336-6.3984 8.5352c-9.9141 13.215-25.082 20.801-41.602 20.801s-31.688-7.5859-41.602-20.801l-6.3984-8.5352-16 21.336c-18.398 24.535-45.742 40.809-75.594 46.023 29.539-29.895 56.523-60.816 64.707-81.129z"/>
  <path d="m72 456h16v16h-16z"/>
  <path d="m104 456h104v16h-104z"/>
  <path d="m328 456h16v16h-16z"/>
  <path d="m360 456h72v16h-72z"/>
 </g>
</svg>
