<?xml version="1.0" encoding="UTF-8"?>
<svg width="512pt" height="512pt" version="1.1" viewBox="0 0 512 512" xmlns="http://www.w3.org/2000/svg">
 <path d="m488 480v-168h-16v14.398l-24-72v-22.398h-16v16h-50.398l-5.6016-17.602v-22.398h-16v16h-40v-56h-16v16h-16v-59.199l-8-8v-65.602l-16-8v-27.199h-16v27.199l-16 8v65.602l-8 8v59.199h-16v-16h-16v56h-40v-16h-16v22.398l-5.6016 17.602h-50.398v-16h-16v22.398l-24 72v-14.398h-16v168h-8v16h480v-16zm-232-272.8 64 106.4v30.402h-16v-26.398l-40-64v-29.602h-16v29.602c-40 56-40 64-40 66.398v24h-16v-29.602zm157.6 136.8-2.3984-8h47.199l2.3984 8zm-77.602 0v-24h52.801l8 24zm-3.1992-40-14.398-24h57.602l8 24zm120 16h-47.199l-5.6016-16h47.199zm-82.402-56h-61.602l-14.398-24h68zm-82.398 176h-8v-51.199l-16-16v-12.801h-16v12.801l-16 16v51.199h-8v-112h8v16h16v-16h16v16h16v-16h8zm-32.801-169.6 25.602 41.602h-52.801c6.3984-9.6016 16.801-26.398 27.199-41.602zm-140 73.602 8-24h52.801v24zm21.602-64h57.602l-14.398 24h-51.199zm66.398-16h-61.602l8-24h68zm-96.801 56h-47.199l5.6016-16h47.199zm-5.5977 16-2.3984 8h-47.203l2.3984-8zm-4.8008 24v120h-24v-120zm16 0h24v120h-24zm40 0h24v120h-24zm40 0h16v120h-16zm32 96h8v24h-8zm24-60.801 8-8 8 8v84.801h-16zm32 60.801h8v24h-8zm24-96h16v120h-16zm32 0h24v120h-24zm40 0h24v120h-24zm40 0h24v120h-24zm40 0h16v120h-16zm-21.602-96 8 24h-47.199l-8-24zm-130.4-64v24h-16v-24zm-56-76.801v-62.398l8-4 8 4v62.398l8 8v72l-8-13.602v-37.598h-16v37.602l-8 13.602v-72zm-40 76.801h16v24h-16zm-91.199 88h-47.199l8-24h47.199zm-76.801 72h16v120h-16z" fill="#443f3c"/>
</svg>
