<?xml version="1.0" encoding="UTF-8"?>
<svg width="512pt" height="512pt" version="1.1" viewBox="0 0 512 512" xmlns="http://www.w3.org/2000/svg">
 <g fill="#443f3c">
  <path d="m344 448h-24v-24c24-32 20.801-76.801-8-104.8v-27.199l25.602-19.199c4-3.1992 6.3984-8 6.3984-12.801v-84h40c8.8008 0 16-7.1992 16-16v-8h7.1992c8 0 15.199-4 20-10.398l11.199-16.801-13.602-8.8008-11.199 16.801c-1.6016 2.3984-4 3.1992-6.3984 3.1992h-40.801c-2.3984 0-4-0.80078-5.6016-2.3984l-46.398-46.398c-4.7969-4.8047-10.398-7.2031-16.797-7.2031h-2.3984l-5.6016-43.199c-1.6016-12-12-20.801-24-20.801h-20c-12 0-22.398 8.8008-24 20.801l-4.8008 43.199h-2.3984c-6.3984 0-12.801 2.3984-16.801 7.1992l-46.398 46.398c-1.6016 1.6016-3.1992 2.3984-5.6016 2.3984h-40.801c-2.3984 0-4.8008-1.6016-6.3984-3.1992l-11.199-16.801-13.602 8.8008 11.199 16.801c4.8008 6.3984 12 10.398 20 10.398l7.1992 0.003906v8c0 8.8008 7.1992 16 16 16h40v84c0 4.8008 2.3984 9.6016 6.3984 12.801l25.602 19.199v27.199c-28.801 28-32 72.801-8 104.8v24h-24v32h-152v16h480v-16h-152zm-48 0v-16h8v16zm-64 0v-16h16v16zm32-16h16v16h-16zm41.602-16h-9.6016v-12.801l13.602-13.602-11.199-11.199-18.402 18.402v19.199h-16v-32h-16v32h-16v-19.199l-18.398-18.398-11.199 11.199 13.602 13.602-0.003906 12.797h-9.6016c-8.8008-11.199-14.398-25.602-14.398-40h24c8.8008 0 16-7.1992 16-16v-8h8c8.8008 0 16-7.1992 16-16v-24c8.8008 0 17.602 1.6016 25.602 5.6016l-5.6016 1.6016c-7.1992 1.6016-12 8-12 15.199v14.398c0 4 1.6016 8 4.8008 11.199l11.199 11.199c3.1992 3.1992 7.1992 4.8008 11.199 4.8008h28.801c0 14.398-4.8008 28.801-14.398 40zm12-56h-26.398l-11.203-11.199v-14.398l20-4.8008c8.8008 8 15.199 18.398 17.602 30.398zm-61.602-160-36-7.1992-4-4v-36.801h12.801c10.398 0 19.199-6.3984 22.398-16.801l4.8008-14.398 4.8008 14.398c3.1992 9.6016 12.801 16.801 22.398 16.801h12.801v36.801l-4 4zm110.4-48h17.602v8h-56v100l-16 12v-57.602l-6.3984-12.801 6.3984-6.3984v-44c3.1992-0.80078 6.3984-2.3984 8.8008-4l17.602-13.602 11.199 11.199c4.7969 4.8047 10.398 7.2031 16.797 7.2031zm-68.797-56c2.3984 0 4 0.80078 5.6016 2.3984l24 24-16 12c-1.6016 0.80078-3.1992 1.6016-4.8008 1.6016h-23.199c-3.1992 0-6.3984-2.3984-7.1992-5.6016l-9.6016-28.801 22.398-5.6016zm-51.203-64h20c4 0 7.1992 3.1992 8 7.1992l5.6016 43.199-24 5.6016-23.199-5.6016 5.6016-43.199c-0.003906-4 3.9961-7.1992 7.9961-7.1992zm-37.598 66.398c1.6016-1.6016 3.1992-2.3984 5.6016-2.3984h8l22.398 5.6016-9.6016 28.801c0 3.1992-3.1992 5.5977-6.3984 5.5977h-23.199c-1.6016 0-3.1992-0.80078-4.8008-1.6016l-16-12zm-24.801 161.6v-100h-56v-8h17.602c6.3984 0 12.801-2.3984 16.801-7.1992l11.199-11.199 17.602 13.602c2.3984 1.6016 5.6016 3.1992 8.8008 4v44l6.3984 6.3984-6.4023 12.797v57.602zm32-42.398 4.8008-8.8008 35.199 7.1992 35.199-7.1992 4.8008 8.8008v88.801c-24.801-14.398-55.199-14.398-80 0zm24 96.797v21.602h-8c-8.8008 0-16 7.1992-16 16v8h-21.602c5.6016-22.398 23.203-40 45.602-45.602zm-32 117.6h8v16h-8zm-24 32h144v16h-144z"/>
  <path d="m152 48c0-13.602-10.398-24-24-24h-24v16h24c4.8008 0 8 3.1992 8 8s-3.1992 8-8 8h-56v16h56c13.602 0 24-10.398 24-24z"/>
  <path d="m40 56h16v16h-16z"/>
  <path d="m480 224c0 4.8008-3.1992 8-8 8h-64v16h64c13.602 0 24-10.398 24-24s-10.398-24-24-24h-24v16h24c4.8008 0 8 3.1992 8 8z"/>
  <path d="m376 232h16v16h-16z"/>
  <path d="m432 288h-24v16h24c13.602 0 24-10.398 24-24s-10.398-24-24-24h-64v16h64c4.8008 0 8 3.1992 8 8s-3.1992 8-8 8z"/>
  <path d="m16 80h80v16h-80z"/>
  <path d="m80 224h56v16h-56z"/>
  <path d="m56 224h16v16h-16z"/>
 </g>
</svg>
