<?xml version="1.0" encoding="UTF-8"?>
<svg width="512pt" height="512pt" version="1.1" viewBox="0 0 512 512" xmlns="http://www.w3.org/2000/svg">
 <g fill="#443f3c">
  <path d="m495.48 280.77h-165.16v-140.39h115.61c18.215 0 33.031-14.816 33.031-33.031 0-18.215-14.816-33.031-33.031-33.031-2.7383 0-5.4141 0.32812-7.9961 0.92969-12.914-20.969-36.117-33.965-60.77-33.965-21.801 0-42.113 9.7617-55.73 26.785l-0.68359 0.85156c-10.531-22.777-29.207-41.441-53.246-51.742l-3.2539-1.3945-3.2539 1.3945c-4.0273 1.7266-7.8945 3.6992-11.609 5.875-15.379-14.871-35.559-23.059-57.008-23.059-25.074 0-48.438 11.23-64.098 30.809l-2.8828 3.6055c-3.1289-0.90234-6.418-1.3828-9.793-1.3828-18.215 0-33.031 14.816-33.031 33.031s14.816 33.031 33.031 33.031h83.453c-0.56641 4.3867-0.875 8.8398-0.875 13.344v24.656c-15.16-13.875-34.668-21.48-55.352-21.48-25.074 0-48.438 11.23-64.098 30.809l-2.8828 3.6055c-3.1328-0.90234-6.418-1.3828-9.793-1.3828-18.215 0-33.031 14.816-33.031 33.031 0 18.215 14.816 33.031 33.031 33.031h132.13v165.16h-16.516v-99.098c0-9.1055-7.4102-16.516-16.516-16.516l-148.65 0.003906c-9.1055 0-16.516 7.4102-16.516 16.516v231.23h495.48v-181.68c9.1055 0 16.516-7.4102 16.516-16.516v-16.516c0-9.1094-7.4102-16.52-16.516-16.52zm-198.2 16.516v16.516h-82.582l0.003907-148.64h99.098v115.61c-9.1094 0-16.52 7.4102-16.52 16.516zm16.516 49.551h-16.516v-16.516h16.516zm-78.137-231.23c-2.8203 4.8633-4.4453 10.5-4.4453 16.516s1.625 11.652 4.4453 16.516h-20.957v-33.031zm78.137 33.031h-20.961c2.8203-4.8633 4.4453-10.5 4.4453-16.516s-1.625-11.652-4.4453-16.516h20.961zm-33.031-16.516c0 9.1055-7.4102 16.516-16.516 16.516-9.1055 0-16.516-7.4102-16.516-16.516 0-9.1055 7.4102-16.516 16.516-16.516 9.1055 0 16.516 7.4102 16.516 16.516zm-66.062 198.2h16.516v16.516h-16.516zm33.031 0h33.031v16.516h-33.031zm86.598-251.93c10.465-13.086 26.078-20.59 42.832-20.59 18.488 0 35.922 9.5078 45.977 24.941-3.457 2.9766-6.3672 6.6484-8.5 10.91l-0.87109 1.7422 14.773 7.3867 0.87109-1.7461c3.1484-6.2969 9.4766-10.207 16.516-10.207 9.1055 0 16.516 7.4102 16.516 16.516 0 9.1055-7.4102 16.516-16.516 16.516l-115.61 0.007813v-11.43c0-8.6133-1.0781-17.043-3.1016-25.152zm-70.082-44.559c26.164 12.496 44.16 37.023 48.516 65.258h-97.031c4.3555-28.234 22.352-52.762 48.516-65.258zm-148.64 48.746c-9.1055 0-16.516-7.4102-16.516-16.516 0-9.1055 7.4102-16.516 16.516-16.516 7.0391 0 13.367 3.9102 16.516 10.211l0.87109 1.7422 14.773-7.3867-0.87109-1.7422c-1.8242-3.6484-4.2188-6.8711-7.0391-9.5938l1.3242-1.6523c12.508-15.645 31.172-24.613 51.199-24.613 16.051 0 31.215 5.7461 43.172 16.238-15.652 13.004-27.133 30.344-32.984 49.828zm-49.547 115.61c-9.1055 0-16.516-7.4102-16.516-16.516 0-9.1055 7.4102-16.516 16.516-16.516 7.0391 0 13.367 3.9102 16.516 10.211l0.87109 1.7422 14.773-7.3867-0.87109-1.7422c-1.8242-3.6484-4.2188-6.8711-7.0391-9.5938l1.3242-1.6523c12.512-15.641 31.172-24.609 51.203-24.609 17.516 0 33.98 6.8203 46.363 19.207l8.9883 8.9883v37.867zm148.64 165.16h99.098v16.516h-99.098zm99.094 33.031v16.516h-132.13v-16.516zm-247.74-99.098v-16.516h49.547v16.516zm99.094 16.516v82.582h-148.64v-82.582zm0-16.516h-33.031v-16.516h33.031zm-115.61-16.516v16.516h-33.031v-16.516zm16.52 214.71h-16.52v-49.547h16.516zm66.062 0h-16.516v-49.547h16.516zm16.516 0v-49.547c0-9.1055-7.4102-16.516-16.516-16.516h-16.516c-9.1055 0-16.516 7.4102-16.516 16.516v49.547h-16.516v-49.547c0-9.1055-7.4102-16.516-16.516-16.516l-16.52-0.003906c-9.1055 0-16.516 7.4102-16.516 16.516v49.547l-16.516 0.003906v-82.582h148.64v82.582zm33.031-66.066h132.13v66.066h-8.2578v-33.031c0-9.1055-7.4102-16.516-16.516-16.516h-16.516c-9.1055 0-16.516 7.4102-16.516 16.516v33.031h-16.516v-33.031c0-9.1055-7.4102-16.516-16.516-16.516h-16.516c-9.1055 0-16.516 7.4102-16.516 16.516v33.031h-8.2578zm107.36 66.066h-16.516v-33.031h16.516zm-66.062 0h-16.516v-33.031h16.516zm156.9 0h-16.516v-49.547h16.516zm66.062 0h-16.516v-49.547h16.516zm16.52 0v-49.547c0-9.1055-7.4102-16.516-16.516-16.516h-16.516c-9.1055 0-16.516 7.4102-16.516 16.516v49.547h-16.516v-49.547c0-9.1055-7.4102-16.516-16.516-16.516h-16.516c-9.1055 0-16.516 7.4102-16.516 16.516v49.547h-16.516v-82.582h148.64v82.582zm-82.582-99.098h-16.516v-33.031h16.516zm66.062 0h-16.516v-33.031h16.516zm33.035 0h-16.516v-33.031c0-9.1055-7.4102-16.516-16.516-16.516h-16.516c-9.1055 0-16.516 7.4102-16.516 16.516v33.031h-16.516v-33.031c0-9.1055-7.4102-16.516-16.516-16.516h-16.516c-9.1055 0-16.516 7.4102-16.516 16.516v33.031h-16.516v-66.066h148.64zm16.516-82.582h-181.68v-16.516h181.68l0.011719 16.516h-0.007813z"/>
  <path d="m49.547 379.87h16.516c9.1055 0 16.516-7.4102 16.516-16.516v-16.516c0-9.1055-7.4102-16.516-16.516-16.516h-16.516c-9.1055 0-16.516 7.4102-16.516 16.516v16.516c0 9.1055 7.4102 16.516 16.516 16.516zm0-33.031h16.516l0.011719 16.516h-0.011719-16.516z"/>
  <path d="m115.61 379.87h16.516c9.1055 0 16.516-7.4102 16.516-16.516v-16.516c0-9.1055-7.4102-16.516-16.516-16.516h-16.516c-9.1055 0-16.516 7.4102-16.516 16.516v16.516c0 9.1055 7.4102 16.516 16.516 16.516zm0-33.031h16.516l0.011719 16.516h-0.011719-16.516z"/>
  <path d="m272.52 181.68h-16.516c-9.1055 0-16.516 7.4102-16.516 16.516v16.516c0 9.1055 7.4102 16.516 16.516 16.516h16.516c9.1055 0 16.516-7.4102 16.516-16.516v-16.516c0-9.1055-7.4102-16.516-16.516-16.516zm0 33.035h-16.516v-16.516h16.516l0.011719 16.516h-0.011719z"/>
  <path d="m272.52 247.74h-16.516c-9.1055 0-16.516 7.4102-16.516 16.516v16.516c0 9.1055 7.4102 16.516 16.516 16.516h16.516c9.1055 0 16.516-7.4102 16.516-16.516v-16.516c0-9.1055-7.4102-16.516-16.516-16.516zm0 33.031h-16.516v-16.516h16.516l0.011719 16.516h-0.011719z"/>
  <path d="m459.96 195.45c-4.4609-17.832-20.414-30.289-38.797-30.289-18.383 0-34.336 12.457-38.797 30.289l-0.91406 3.6641c-10.426 2.9258-18.094 12.508-18.094 23.855 0 13.66 11.113 24.773 24.773 24.773h66.066c13.66 0 24.773-11.113 24.773-24.773 0-11.348-7.6719-20.93-18.094-23.852zm-5.7617 35.777h-66.066c-4.5547 0-8.2578-3.7031-8.2578-8.2578s3.7031-8.2578 8.2578-8.2578c3.1211 0 6.0508 1.2148 8.2578 3.418l2.418 2.418 11.68-11.68-2.418-2.4141c-2.8438-2.8398-6.1836-4.9922-9.8281-6.3906l0.15234-0.60547c2.6172-10.469 11.98-17.781 22.77-17.781 10.789 0 20.152 7.3125 22.773 17.777l0.15234 0.60547c-3.6445 1.3984-6.9844 3.5508-9.8281 6.3906l-2.418 2.418 11.68 11.68 2.418-2.418c2.207-2.207 5.1367-3.418 8.2578-3.418 4.5547 0 8.2578 3.7031 8.2578 8.2578-0.003906 4.5508-3.707 8.2578-8.2578 8.2578z"/>
 </g>
</svg>
