<?xml version="1.0" encoding="UTF-8"?>
<svg width="512pt" height="512pt" version="1.1" viewBox="0 0 512 512" xmlns="http://www.w3.org/2000/svg">
 <path d="m504 16v-8h-8c-83.273 0-146.35 19.016-188.5 56.473l-58.695-58.742-5.6562 5.6562c-20.762 20.762-32.848 47.809-34.762 76.832-27.039 2.1719-48.391 24.828-48.391 52.422 0 7.6719 1.7617 15.09 4.8398 21.855-9.2227-0.17578-18.273 1.4062-26.754 4.5195-10.945-4.8398-21.328-9.1367-31.32-13.238-8.4727-3.4805-16.336-6.7188-23.656-9.9375 29.426-1.625 52.891-26.008 52.891-55.84v-8h-40c-25.281 0-46.551 16.559-53.527 39.633-11.938-11.352-18.473-25.832-18.473-47.633h24c30.871 0 56-25.121 56-56v-8h-40c-30.871 0-56 25.121-56 56v8c0 40.977 19.078 61.07 48.953 77.023-19.402 8.8086-32.953 28.32-32.953 50.977v40h8c30.871 0 56-25.121 56-56v-20.664c4.1367 1.7266 8.3438 3.4648 12.688 5.2461 6.2812 2.5742 12.754 5.2656 19.344 8.0547-12.176 8.8086-21.809 21.289-26.742 36.496l-10.465 32.184c-4.6406 14.273-2.7852 29.098 3.8711 41.352-52.184 40.859-78.695 111.17-78.695 209.33v8h8c55.902 0 107.79-24.129 143.65-64.879 0.45703 0.47266 0.85547 0.98438 1.3203 1.4492l62.223 62.223 5.6562-5.6562c23.496-23.488 36.023-55.688 34.945-88.809 0.70312-0.84766 1.4141-1.6797 2.0703-2.5742 4.5195-6.2227 7.457-13.266 8.9297-20.566 12.977 9.8242 28.762 15.023 44.703 15.023 6.1289 0 12.273-0.80078 18.281-2.3359 1.8477 4.4805 3.7266 9.0156 5.4492 13.289 0.66406 1.6406 1.3125 3.2305 1.9688 4.8398l-17.195-0.003906c-30.871 0-56 25.121-56 56v8h40c20.727 0 39.258-11.543 48.922-28.816 16.453 31.402 38.551 52.816 87.078 52.816 30.871 0 56-25.121 56-56v-40h-8c-30.871 0-56 25.121-56 56v23.711c-21.328-1.2578-35.801-7.6328-46.922-18.383 22.699-7.1992 38.922-28.305 38.922-53.328v-40h-8c-29.977 0-54.465 23.695-55.863 53.336-3.2891-7.4727-6.5586-15.512-10.07-24.184-1.6797-4.1445-3.5039-8.5586-5.2969-12.91 3.3359-1.6953 6.5742-3.6641 9.6875-5.9219l27.375-19.887c11.375-8.2656 18.848-20.465 21.047-34.352 2.1992-13.887-1.1445-27.801-9.4062-39.176-4.5117-6.207-10.305-11.168-16.785-14.824 25.902-18.055 38.32-51.742 28.152-83.039l-4.3438-13.383c59.039-34.246 95.504-97.043 95.504-165.66zm-408 80h23.191c-3.7188 18.23-19.871 32-39.191 32h-23.207c3.6953-18.383 19.816-32 39.207-32zm-32-72h23.191c-3.7109 18.23-19.871 32-39.191 32h-23.191c3.7109-18.23 19.871-32 39.191-32zm8 160c0 19.32-13.77 35.48-32 39.191v-23.191c0-19.32 13.77-35.48 32-39.191zm240 280h-23.191c3.7188-18.23 19.871-32 39.191-32h23.199c-3.7344 18.406-20.168 32-39.199 32zm144 0c0-19.32 13.77-35.48 32-39.191v23.191c0 19.32-13.77 35.48-32 39.191zm-72-32c0-19.32 13.77-35.48 32-39.191v23.191c0 19.383-13.617 35.52-32 39.207zm-134.98-403.43 47.07 47.07c-5.9297 6.3672-11.352 13.184-16.258 20.449-10.02-5.1328-21.332-8.0859-33.348-8.0859h-22.113c1.7109-22.023 10.25-42.672 24.648-59.434zm-36.375 75.434h33.832c31.719 0 57.52 25.809 57.52 57.52 0 11.23-3.5195 22.215-9.6875 31.574-3.1758-23.164-23.047-41.094-47.09-41.094h-20.457c-14.113 0-26.359 8.4961-31.855 20.719-0.33594-0.19922-0.67969-0.41406-1.0156-0.60938-11.031-6.4375-17.887-18.492-17.887-31.469 0-20.199 16.441-36.641 36.641-36.641zm100.95 87.465c7.1133 0.9375 13.336 5.8398 15.633 12.895l6.3125 19.449c5.0703 15.602-2.9453 40.551-18.367 47.367-13.184-1.7266-26.641-5.6875-37.32-13.641 0.035156-0.51953 0.15625-1.0078 0.15625-1.5352 0-4.7617-1.4336-9.168-3.832-12.902l11.359-14.609c0.015625-0.015625 0.023437-0.03125 0.03125-0.046875l16.945-21.785c3.6484-4.6875 6.6797-9.8008 9.082-15.191zm-52.77 129.17c-2.7188-13.559-3.3672-28.273 1.0781-41.457 4.4414-1.1289 8.375-3.457 11.441-6.6719 17.145 11.488 38.496 15.391 58.215 15.832 2.1289 3.7266 3.0078 8.0078 2.3281 12.312-0.80078 5-3.4961 9.3984-7.5938 12.383l-16.535 12.016c-13.934 10.121-38.375 7.6797-48.934-4.4141zm-86.457 63.934c-24.648-17.91-30.824-52.496-14.281-77.887 2.6797-1.625 5.2305-3.4883 7.6094-5.6016 1.5859-1.4141 3.3594-2.9375 5.2578-4.5039-0.12109 18.641 9.543 38.297 23.145 48.184l16.535 12.016c6.1914 4.5039 13.383 6.6641 20.504 6.6641 7.832 0 15.566-2.6484 21.848-7.6562 0.64844 1.5586 1.2969 3.0977 1.9531 4.5859 5.1445 11.695 3.6016 25.488-4.0156 35.984-5.7617 7.9219-14.246 13.129-23.91 14.656-9.7109 1.543-19.359-0.80078-27.273-6.543zm-12.688-115.89c-2.3047-4.5117-2.7109-9.6562-1.1445-14.48l6.3203-19.449c5.6172-17.305 26.863-36.07 41.754-33.039 12.258 10.129 24.129 23.383 29.008 39.047-2.8086 3.3828-4.6875 7.5117-5.2969 12.078-22.574 0.84766-43.93 12.047-60.984 24.672-4.1602-1.7148-7.5938-4.7656-9.6562-8.8281zm113.23-50.008-11.398 14.656c-2.3672-0.79297-4.8633-1.3203-7.5039-1.3203-1.4805 0-2.9219 0.17578-4.3281 0.44141-7.9219-21.52-25.535-38.52-43.047-50.863 2.3438-7.8672 9.6133-13.578 18.145-13.578h20.457c17.426 0 31.594 14.168 31.594 31.594-0.003906 8.4844-0.28516 14.398-3.918 19.07zm-82.191 63.84c12.824-7.6953 27.91-13.887 43.047-13.727 2.3984 3.793 5.832 6.832 9.9102 8.793-5.7539 20.266-2.6484 42.258 3.2656 61.414-0.13672 0.20703-0.23047 0.44141-0.38281 0.64844-6.1602 8.4727-18.047 10.344-26.504 4.1992l-16.535-12.016c-13.375-9.7109-21.512-34.801-12.801-49.312zm63.289-18.504c-4.4141 0-8-3.5938-8-8s3.5859-8 8-8 8 3.5938 8 8-3.5859 8-8 8zm-157.96-13.734 10.465-32.184c9.4258-29.039 40.535-45.641 69.855-37.602 2.3359 2 4.7852 3.8789 7.4805 5.4492 1.3047 0.76172 2.7031 1.6094 4.1367 2.4961-17.863 7.2656-33.266 25.777-38.336 41.375l-6.3203 19.449c-2.8789 8.8867-2.1445 18.359 2.1055 26.688 2.543 4.9922 6.2656 9.0898 10.664 12.289-0.34375 0.30469-0.71094 0.60938-1.0469 0.91016-9.5273 8.5039-23.145 11.305-35.465 7.2969-19.227-6.2422-29.777-26.953-23.539-46.168zm-73.977 237.55c1.3945-88.551 25.738-151.82 72.297-188.42 5.5742 5.4062 12.391 9.6953 20.266 12.258 5.3281 1.7266 10.832 2.5742 16.281 2.5742 2.0312 0 4.0391-0.3125 6.0469-0.54297-2.2812 6.543-3.5742 13.305-3.9531 20.105-3.1914 3.3125-6.3516 6.7109-9.4648 10.207h-53.535v16h40.055c-6.5117 8.0391-12.793 16.258-18.832 24.496l-47.754 15.922 5.0625 15.176 26.887-8.9609c-4.6641 6.7031-9.168 13.273-13.414 19.473-12.297 17.977-22.922 33.504-29.664 40.246l11.312 11.312c7.8008-7.793 18.281-23.121 31.551-42.52 4.4141-6.457 9.1055-13.289 13.977-20.281l4.8945 34.281 15.84-2.2656-7.2734-50.895c4.8477-6.6484 9.8242-13.297 14.969-19.84l8.8008 26.398 15.168-5.0625-11.984-35.961c1.7773-2.0898 3.543-4.1992 5.3438-6.2305 3.9453 16.457 13.426 31.641 28.008 42.23l3.2305 2.3516c-29.945 52.168-84.047 85.227-144.11 87.945zm198.91-7.8633-50.695-50.695c-0.87109-0.87109-1.625-1.8086-2.457-2.6953 4.0703-5.5039 7.8555-11.258 11.367-17.238l11.137 8.0898c9.0977 6.6094 19.809 10.062 30.832 10.062 2.7773 0 5.5586-0.21484 8.3516-0.66406 5.6562-0.89453 11.008-2.7109 15.961-5.2656-1.9375 21.477-10.395 41.941-24.496 58.406zm165.55-177.65c5.7539 7.9219 8.0781 17.602 6.543 27.273-1.5273 9.6641-6.7344 18.16-14.656 23.91l-27.375 19.887c-24.703 17.961-59.617 13.09-78.625-10.648-0.71094-2.9922-1.5938-5.9531-2.8477-8.8086-1.2969-2.9453-2.6875-6.3516-4.0625-10.055 6.4258 2.3984 13.398 3.7109 20.434 3.7109 11.137 0 22.297-3.1055 31.207-9.5742l16.535-12.016c7.5508-5.4961 12.52-13.602 13.984-22.824 0.82422-5.1836 0.35938-10.336-1.0625-15.215 2.3672-0.16016 4.6953-0.34375 6.9297-0.56641 12.766-1.2812 25.371 4.4375 32.996 14.926zm-25.367-30.832c-3.0469-0.24609-6.1211-0.32812-9.207-0.03125-3.9844 0.39844-8.6562 0.72656-13.727 0.85547 11.488-15.055 15.785-37.273 10.527-53.434l-6.3125-19.449c-3.9219-12.062-14.047-20.727-25.977-23.312 0.94531-4.6172 1.4805-9.3203 1.5195-14.055 4.3984-8.3438 11.91-14.824 21.008-17.785 19.246-6.2461 39.93 4.3125 46.176 23.52l10.457 32.184c9.4375 29.074-6 60.777-34.465 71.508zm40.289-105.35-1.0625-3.2734c-3.1992-9.8477-9.0781-18.062-16.52-24.215l37.008 5.2891 2.2656-15.832-35.633-5.0898c8.6328-6.1836 16.992-12.633 24.961-19.129l31.609 7.9023 3.8711-15.52-20.398-5.0977c20.367-17.734 37.207-34.574 48.121-45.48l-11.312-11.312c-9.1602 9.1602-22.602 22.594-38.762 37.152l4.3438-30.359-15.84-2.2656-6.9453 48.617c-10.977 9.1602-22.762 18.297-35.023 26.742l-6.1914-43.359-15.84 2.2656 7.2578 50.754c-1.4805 0.91016-2.9688 1.8242-4.4648 2.7031-6.207-0.3125-12.566 0.42578-18.832 2.4648-7.1914 2.3359-13.711 6.2148-19.199 11.207-4.2461-14.031-12.566-26.32-23.609-35.441 35.344-52.09 100.68-79.281 194.59-80.762-2.6953 58.559-34.328 111.68-84.398 142.04z" fill="#443f3c"/>
</svg>
