<?xml version="1.0" encoding="UTF-8"?>
<svg width="512pt" height="512pt" version="1.1" viewBox="0 0 512 512" xmlns="http://www.w3.org/2000/svg">
 <g fill="#443f3c">
  <path d="m488 480v-32.398l-8-72v-124.3l8-8v-35.301h-8v-68.699l9-9-25-83.5v-30.801h-16v30.801l-25 83.5 9 9v68.699h-8v35.301l8 8v40.898c-6.6992-6.1016-15.102-10.102-24-11.602v-40.598h-8v-8c0-10.199-6.3984-19.199-16-22.602v-26l-9.1992-55.301h-9.1992c-16.5-42.199-56.402-70.496-101.6-71.996v-24.102h-16v24.102c-45.199 1.5-85.102 29.801-101.6 71.898h-9l-9.3984 47.199v34.199c-9.6016 3.3984-16 12.5-16 22.602v8h-8v40.699c-8.8984 1.5-17.301 5.5-24 11.602v-40.898l8-8v-35.402h-8v-68.699l9-9-25-83.5v-30.801h-16v30.801l-25 83.5 9 9v68.699h-8v35.301l8 8v124.2l-8 72v32.5h-8v16h480v-16zm-432-404.2 13.199 44.199h-26.398zm8 60.199v72h-16v-72zm8 344h-32v-31.602l7.1992-64.398h17.699l7.1992 64.398 0.003906 31.602zm-24-112v-112h16v112zm24-131.3-3.3008 3.3008h-25.398l-3.3008-3.3008v-12.699h32zm32 243.3h-16v-32.398l-8-72v-23.602h24zm0-144h-24v-8c0-14.602 9.8984-27.301 24-31zm261.2-168h-21.199v-24h17.199zm-113.3-96h8.1992c37.801 0 72.102 21.801 88.102 56h-184.4c16-34.199 50.301-56 88.098-56zm76.102 72v24h-24v-24zm-40 0v24h-24v-24zm-40 0v24h-24v-24zm-40 0v24h-24v-24zm-57.398 0h17.398v24h-22.199zm1.3984 336h-32v-80h32zm0-160v64h-32v-128h8v-24c0-4.3984 3.6016-8 8-8s8 3.6016 8 8v24h8zm80 160h-32v-64c0-8.8008 7.1992-16 16-16s16 7.1992 16 16zm80 0h-32v-64c0-8.8008 7.1992-16 16-16s16 7.1992 16 16zm32 0h-16v-64c0-17.699-14.301-32-32-32s-32 14.301-32 32v64h-16v-64c0-17.699-14.301-32-32-32s-32 14.301-32 32v64h-16v-112h176zm0-128h-176v-32c0-48.602 39.398-88 88-88s88 39.398 88 88zm8-120v8h-8v24.602c-30.5-48.602-94.699-63.199-143.3-32.699-13.199 8.3008-24.398 19.5-32.699 32.699v-24.602h-8v-8c0-10.199-6.3984-19.199-16-22.602v-25.398h223.9l0.10156 0.69922v24.699c-9.6016 3.4023-16 12.402-16 22.602zm40 248h-32v-80h32zm0-96h-32v-128h8v-24c0-4.3984 3.6016-8 8-8s8 3.6016 8 8v24h8zm40-8.3984-8 72v32.398h-16v-128h24zm0-39.602h-24v-39c14.102 3.6992 24 16.398 24 31zm24-260.2 13.199 44.199h-26.5zm8 60.199v72h-16v-72zm8 344h-32v-31.602l7.1992-64.398h17.699l7.1992 64.398 0.003906 31.602zm-24-153.2v-70.801h16v112h-16v-40-1.1992zm24-90.102-3.3008 3.3008h-25.398l-3.3008-3.3008v-12.699h32z"/>
  <path d="m248 248h16v40h-16z"/>
  <path d="m280 264h16v24h-16z"/>
  <path d="m216 264h16v24h-16z"/>
  <path d="m184 304h16v24h-16z"/>
  <path d="m216 304h16v24h-16z"/>
  <path d="m248 304h16v24h-16z"/>
  <path d="m280 304h16v24h-16z"/>
  <path d="m312 304h16v24h-16z"/>
 </g>
</svg>
