<?xml version="1.0" encoding="UTF-8"?>
<svg width="512pt" height="512pt" version="1.1" viewBox="0 0 512 512" xmlns="http://www.w3.org/2000/svg">
 <g fill="#443f3c">
  <path d="m462.34 450.05h-17.922c-14.336 0-26.113-11.777-26.113-26.113v-13.824c-11.777-2.5586-20.48-12.801-20.48-25.602v-14.848c-13.312-1.0234-23.551-12.289-23.551-26.113l0.003907-160.25c0-3.0703 2.5586-5.6328 5.6328-5.6328 3.0703 0 5.6328 2.5586 5.6328 5.6328v160.77c0 8.1914 6.6562 14.848 14.848 14.848h8.7031v26.113c0 8.1914 6.6562 14.848 14.848 14.848h5.6328v24.062c0 8.1914 6.6562 14.848 14.848 14.848h6.6562l-0.003907-284.16c0-6.6562-1.0234-12.801-3.0703-18.434-1.0234-3.0703-2.0469-5.6328-3.0703-8.1914-6.1445-13.824-17.406-24.062-31.23-29.695-14.848-5.6328-31.742-5.1211-46.078 1.5352l-0.51172 0.51172c-24.062 10.754-51.711 1.5352-65.535-21.504-7.168-11.777-12.801-24.062-16.895-35.84-4.0977-10.754-10.754-19.969-19.969-25.09-15.879-9.7266-34.312-8.7031-54.277 2.5625 0 0-16.895 10.754-18.434 27.648 8.7031-2.0469 24.062-2.5586 33.281 10.238 6.1445 8.1914 6.6562 18.434 2.0469 27.648-6.6562 12.801-22.016 20.48-41.473 20.48h-12.289c-7.6797 0-20.992-2.5586-27.137-6.1445-15.871-6.6562-33.793-6.6562-49.152 0-15.871 7.168-27.137 19.457-32.77 35.84v0.51172c-2.0469 5.6328-2.5586 11.777-2.5586 17.922v284.16h6.6562c8.1914 0 14.848-6.6562 14.848-14.848v-24.062h5.6328c8.1914 0 14.848-6.6562 14.848-14.848v-26.113h8.7031c8.1914 0 14.848-6.6562 14.848-14.848v-158.72c0-3.0703 2.5586-5.6328 5.6328-5.6328 3.0703 0 5.6328 2.5586 5.6328 5.6328v158.72c0 13.312-10.238 24.574-23.551 26.113v14.848c0 12.289-8.7031 23.039-20.48 25.602v13.824c0 14.336-11.777 26.113-26.113 26.113l-18.941-0.007812v-295.93c0-7.6797 1.0234-14.848 3.0703-21.504v-0.51172c6.1445-18.945 20.48-34.816 38.91-42.496 17.406-7.6797 36.863-8.1914 54.273-1.5352l3.5859 1.5352-1.5352 3.0703 1.5352-3.0703s9.7266 4.6094 22.527 4.6094h12.289c15.359 0 27.137-5.6328 31.742-14.336 2.5586-5.1211 2.0469-11.266-1.0234-15.871-8.7031-11.266-27.137-4.0977-27.648-4.0977l-6.6562 2.5586-1.0234-7.168c-4.0977-28.16 22.527-44.543 23.551-45.055 31.746-16.898 53.762-10.754 66.562-2.5625 10.754 6.6562 19.457 17.922 24.574 30.719 4.0977 11.266 9.7266 22.527 16.383 33.793 10.754 17.922 32.77 25.09 51.199 16.895l0.51172-0.51172c17.406-7.6797 37.375-8.7031 54.785-2.0469 16.895 6.6562 30.207 18.945 37.887 35.328 1.5352 3.0703 2.5586 6.1445 3.5859 9.2148 2.5586 7.168 3.5859 14.336 3.5859 22.016z"/>
  <path d="m323.59 387.07-1.5352-5.6328c-8.1914-26.625-20.48-42.496-30.207-50.688-8.1914-7.168-20.48-7.168-28.16 0l-0.51172 0.51172c-5.1211 4.0977-12.801 4.0977-17.922 0l-0.51172-0.51172c-7.6797-7.168-19.969-7.6797-28.16 0-9.2148 8.7031-22.016 24.062-30.207 50.688l-1.5352 5.6328-40.449-16.383 2.5586-5.1211s4.0977-9.7266 7.6797-25.09c6.1445-26.113 5.1211-54.273-2.5586-81.922-1.0234-3.0703 1.0234-6.1445 3.5859-6.6562 3.0703-1.0234 6.1445 1.0234 6.6562 3.5859 8.7031 29.184 9.2148 59.391 2.5586 87.551-2.0469 9.7266-4.6094 16.895-6.6562 21.504l18.945 7.6797c8.7031-25.602 21.504-41.473 31.23-50.176 12.289-11.266 31.742-11.266 43.008 0 1.0234 1.0234 2.5586 1.0234 4.0977 0 11.777-11.266 30.719-11.266 43.008 0 9.7266 8.7031 22.527 24.574 31.23 50.176l18.945-7.6797c-1.5352-4.0977-3.5859-10.238-5.6328-17.922-7.6797-30.207-6.6562-62.465 3.0703-92.672 1.0234-3.0703 4.0977-4.6094 7.168-3.5859s4.6094 4.0977 3.5859 7.168c-9.2148 28.672-9.7266 58.367-2.5586 86.527 3.5859 13.312 7.168 21.504 7.168 21.504l2.5586 5.1211z"/>
  <path d="m254.46 284.67c-44.031 0-79.871-35.84-79.871-79.871s35.84-79.871 79.871-79.871 79.871 35.84 79.871 79.871-35.84 79.871-79.871 79.871zm0-148.48c-37.887 0-68.609 30.719-68.609 68.609 0 37.887 30.719 68.609 68.609 68.609 37.887 0 68.609-30.719 68.609-68.609-0.003907-37.891-30.723-68.609-68.609-68.609z"/>
  <path d="m230.91 279.55c-3.0703 0-5.6328-2.5586-5.6328-5.6328l0.003906-139.77c0-3.0703 2.5586-5.6328 5.6328-5.6328 3.0703 0 5.6328 2.5586 5.6328 5.6328v139.78c-0.003906 3.0703-2.5625 5.6289-5.6367 5.6289z"/>
  <path d="m324.61 189.95h-93.699c-3.0703 0-5.6328-2.5586-5.6328-5.6328 0-3.0703 2.5586-5.6328 5.6328-5.6328h93.695c3.0703 0 5.6328 2.5586 5.6328 5.6328 0 3.0703-2.5586 5.6328-5.6289 5.6328z"/>
  <path d="m324.61 231.94h-93.699c-3.0703 0-5.6328-2.5586-5.6328-5.6328 0-3.0703 2.5586-5.6328 5.6328-5.6328h93.695c3.0703 0 5.6328 2.5586 5.6328 5.6328 0 3.582-2.5586 5.6328-5.6289 5.6328z"/>
  <path d="m358.91 428.03c-2.0469 0-4.6094-1.5352-5.1211-3.5859l-17.406-48.641c-1.0234-3.0703 0.51172-6.1445 3.5859-7.168 3.0703-1.0234 6.1445 0.51172 7.168 3.5859l17.406 48.641c1.0234 3.0703-0.51172 6.1445-3.5859 7.168h-2.0469z"/>
  <path d="m148.99 428.03c-0.51172 0-1.0234 0-2.0469-0.51172-3.0703-1.0234-4.6094-4.0977-3.5859-7.168l17.406-48.641c1.0234-3.0703 4.0977-4.6094 7.168-3.5859 3.0703 1.0234 4.6094 4.0977 3.5859 7.168l-17.406 48.641c-0.51172 2.5625-2.5625 4.0977-5.1211 4.0977z"/>
  <path d="m254.46 512c-71.68-0.51172-128.51-31.742-130.56-32.77l-3.0703-1.5352v-45.566l28.16-15.871 2.5586 1.5352c25.09 12.801 56.32 18.945 78.336 22.527 15.871 2.5586 32.258 2.5586 48.129 0 22.016-3.0703 53.246-9.7266 78.336-22.527l2.5586-1.5352 28.16 15.871v45.566l-3.0703 1.5352c-1.5391 1.0273-58.371 32.258-129.54 32.77zm-122.37-40.961c12.289 6.1445 62.465 29.695 121.86 30.207 59.902-0.51172 110.08-23.551 122.37-30.207v-32.258l-17.406-9.7266c-25.602 12.289-56.832 18.945-78.848 22.016-16.895 2.5586-34.305 2.5586-51.711 0-22.016-3.0703-53.246-9.7266-78.848-22.016l-17.406 9.7266z"/>
  <path d="m108.54 370.18c-3.0703 0-5.6328-2.5586-5.6328-5.6328v-67.07c0-3.0703 2.5586-5.6328 5.6328-5.6328 3.0703 0 5.6328 2.5586 5.6328 5.6328v67.07c0 3.0742-2.5586 5.6328-5.6328 5.6328z"/>
  <path d="m423.94 411.14c-3.0703 0-5.6328-2.5586-5.6328-5.6328v-74.75c0-3.0703 2.5586-5.6328 5.6328-5.6328 3.0703 0 5.6328 2.5586 5.6328 5.6328v74.238c-0.51562 3.582-2.5625 6.1445-5.6328 6.1445z"/>
  <path d="m403.46 370.18c-3.0703 0-5.6328-2.5586-5.6328-5.6328v-67.07c0-3.0703 2.5586-5.6328 5.6328-5.6328 3.0703 0 5.6328 2.5586 5.6328 5.6328v67.07c0 3.0742-2.5625 5.6328-5.6328 5.6328z"/>
  <path d="m253.95 431.11c-4.6094 0-9.2148-1.5352-12.801-4.0977-6.1445-4.6094-9.7266-11.266-9.2148-18.945 0-3.0703 2.5586-5.6328 5.6328-5.1211 3.0703 0 5.6328 2.5586 5.1211 5.6328 0 3.5859 1.5352 7.168 4.6094 9.2148 3.5859 2.5586 8.7031 2.5586 12.289 0l0.51172-0.51172c3.0703-2.0469 5.1211-5.6328 4.6094-9.7266 0-3.0703 2.0469-5.6328 5.1211-5.6328 3.0703 0 5.6328 2.0469 5.6328 5.1211 0.51172 7.6797-3.5859 14.848-9.7266 19.457l0.5 0.51172c-3.582 2.5586-8.1914 4.0977-12.285 4.0977z"/>
  <path d="m284.16 429.57c-3.0703 0-5.6328-0.51172-8.1914-2.0469-5.6328-3.0703-9.2148-8.1914-9.7266-14.336l-6.6562-67.07c-0.51172-3.0703 2.0469-5.6328 5.1211-6.1445 3.0703-0.51172 5.6328 2.0469 6.1445 5.1211l6.6562 67.07c0 2.5586 1.5352 4.6094 4.0977 5.6328 2.5586 1.5352 6.1445 1.0234 8.1914-1.0234l0.51172-0.51172c2.0469-1.5352 2.5586-4.0977 2.0469-6.6562l-12.801-66.047c-0.51172-3.0703 1.5352-6.1445 4.6094-6.6562 3.0703-0.51172 6.1445 1.5352 6.6562 4.6094l12.801 66.047c1.0234 6.1445-1.0234 12.801-5.6328 16.895l-0.51172 0.51172c-4.6133 2.5586-8.707 4.6055-13.316 4.6055z"/>
  <path d="m224.26 429.57c-4.6094 0-9.2148-1.5352-12.289-4.6094l-0.51172-0.51172c-4.6094-4.0977-6.6562-10.754-5.6328-16.895l12.801-66.047c0.51172-3.0703 3.5859-5.1211 6.6562-4.6094s5.1211 3.5859 4.6094 6.6562l-12.801 66.047c-0.51172 2.5586 0.51172 5.1211 2.0469 6.6562l0.51172 0.51172c2.0469 2.0469 5.6328 2.5586 8.1914 1.0234 2.0469-1.0234 3.5859-3.0703 4.0977-5.6328l6.6562-67.07c0.51172-3.0703 3.0703-5.1211 6.1445-5.1211 3.0703 0.51172 5.1211 3.0703 5.1211 6.1445l-6.6562 67.07c-0.51172 6.1445-4.0977 11.777-9.7266 14.336-3.5898 1.0273-6.6602 2.0508-9.2188 2.0508z"/>
  <path d="m232.45 34.816h-5.6328v-11.266l11.262-0.51172v11.266z"/>
 </g>
</svg>
