<?xml version="1.0" encoding="UTF-8"?>
<svg width="512pt" height="512pt" version="1.1" viewBox="0 0 512 512" xmlns="http://www.w3.org/2000/svg">
 <path d="m447.71 423.5-69.855-40.32c-1.8398-1.0547-4.0156-1.3438-6.0625-0.80078-2.0469 0.54297-3.793 1.8867-4.8633 3.7266l-14.93 25.871v-19.969c0-12.383-4.0469-23.84-10.879-33.121l1.6484-2.6094c1.1523-1.8242 1.5195-4.0312 1.0234-6.1289-0.49609-2.0977-1.8242-3.9023-3.6641-5.0078l-13.199-7.9219-5.5195-20.977 10.191-5.0898c3.4414-1.7266 5.168-5.6484 4.1133-9.3594l-15.727-55.023c-0.046875-2.2891-0.20703-4.543-0.48047-6.7695h16.512c4.4141 0 8-3.5859 8-8 0-4.4141-3.5859-8-8-8h-20.688c-3.6797-9.0391-9.3438-17.07-16.48-23.52l19.391-19.391c3.1211-3.1211 3.1211-8.1914 0-11.312-3.1211-3.1211-8.1914-3.1211-11.312 0l-21.441 21.441c-6.5742-3.4258-13.809-5.7422-21.473-6.7031v-32.512c0-4.4141-3.5859-8-8-8s-8 3.5859-8 8v32.512c-7.6641 0.96094-14.895 3.2812-21.473 6.7031l-21.441-21.441c-3.1211-3.1211-8.1914-3.1211-11.312 0-3.1211 3.1211-3.1211 8.1914 0 11.312l19.391 19.391c-7.1367 6.4492-12.816 14.465-16.48 23.52h-20.688c-3.3594 0-6.2227 2.0781-7.4062 5.0234l-49.266-103.46c0.43359-1.793 0.67188-3.6484 0.67188-5.5664v-16c0-2.8164-0.51172-5.4883-1.4062-8h9.4062c4.4141 0 8-3.5859 8-8v-32c0-4.4141-3.5859-8-8-8h-12.688l10.336-10.336c3.1211-3.1211 3.1211-8.1914 0-11.312l-23.996-24.02c-3.1211-3.1211-8.1914-3.1211-11.312 0l-24 24c-3.1211 3.1211-3.1211 8.1914 0 11.312l10.336 10.336h-12.688c-4.4141 0-8 3.5859-8 8v32c0 4.4141 3.5859 8 8 8h9.4062c-0.89453 2.5117-1.4062 5.1836-1.4062 8v16c0 9.6797 5.7617 18 14.031 21.809l38.879 133.28-26.16 22.895c-2.3984 2.0977-3.3281 5.4062-2.3516 8.4492l32.945 103.55-16.113 25.777c-1.9688 3.1523-1.5039 7.2656 1.1211 9.9023l41.293 41.293-9.8086 12c-2.8008 3.4258-2.2891 8.4648 1.1211 11.266 3.4258 2.8008 8.4648 2.2891 11.266-1.1211l4.1445-5.0703 135.47-165.59 27.055 16.223-91.633 145.07c-0.83203 1.3281-1.2148 2.8164-1.2148 4.2734 0 2.6562 1.2969 5.2461 3.7109 6.7695 1.3281 0.83203 2.8008 1.2305 4.2734 1.2305 2.6562 0 5.2461-1.3125 6.7695-3.7266l84.879-134.38c2.7852 5.4414 4.3516 11.602 4.3516 18.113v47.68l-29.391 50.93c-1.0547 1.8398-1.3438 4.0156-0.80078 6.0625 0.54297 2.0469 1.8867 3.793 3.7266 4.8633l16.273 9.3906c3.8242 2.207 8.7188 0.89453 10.93-2.9297 0.73438-1.2656 1.0391-2.6406 1.0391-4 0-2.7695-1.4062-5.457-3.9688-6.9297l-9.3438-5.3906 52.336-90.641 56 32.32-4.8008 8.3203c-3.793-0.87891-7.7617-0.83203-11.633 0.20703-6.1914 1.6641-11.359 5.6328-14.574 11.184l-8 13.855c-3.1992 5.5508-4.0625 12.016-2.3984 18.207 1.0391 3.8711 2.9766 7.3438 5.6328 10.176l-2.7031 4.6719c-0.73438 1.2656-1.0391 2.6406-1.0391 4 0 2.7695 1.4062 5.4414 3.9688 6.9297 1.2656 0.71875 2.6406 1.0703 4 1.0703 2.7695 0 5.457-1.4414 6.9297-4l3.0547-5.2969c1.0898 0.16016 2.1914 0.23828 3.2969 0.23828 2.0781 0 4.1758-0.27344 6.2578-0.83203 6.1914-1.6641 11.359-5.6328 14.574-11.184l8-13.855c3.1992-5.5508 4.0625-12.016 2.3984-18.207-0.84766-3.168-2.3047-6.0469-4.2578-8.5586l9.168-15.871c2.207-3.8242 0.89453-8.7188-2.9297-10.93zm-144.53-184.32c-19.426-3.6172-34.77-18.961-38.383-38.383 19.426 3.6172 34.77 18.961 38.383 38.383zm-47.184-16.258c7.0703 12.754 18.367 22.832 32 28.367v29.68c0 17.648-14.352 32-32 32s-32-14.352-32-32v-29.68c13.633-5.5352 24.93-15.617 32-28.367zm16 113.05c0 8.8164-7.1836 16-16 16s-16-7.1836-16-16v-9.7617c5.0078 1.7773 10.383 2.7539 16 2.7539s10.992-0.97656 16-2.7539zm-24.816-135.18c-3.6172 19.426-18.961 34.77-38.383 38.383 3.6172-19.426 18.961-34.77 38.383-38.383zm-39.184 54.672v25.52c0 14.176 6.1914 26.945 16 35.742v18.383l-26.512-49.23 8.625-30.191c0.625-0.0625 1.2461-0.14453 1.8867-0.22266zm-32-15.488h16.512c-0.27344 2.2227-0.44922 4.4805-0.48047 6.7695l-5.4062 18.945-4.8945-9.0898-8.0977-17.008c0.75391 0.23828 1.5352 0.39844 2.3828 0.39844zm-80-220.67 12.688 12.688-12.688 12.688-12.688-12.688zm-24 60.688v-16h48v16zm32 24v16c0 4.4141-3.5859 8-8 8s-8-3.5859-8-8v-16c0-4.4141 3.5859-8 8-8s8 3.5859 8 8zm-0.97656 38.945c2-0.60937 3.8711-1.5039 5.6172-2.5938l50.062 105.14-20.527 17.969zm63.902 330.16-1.1367 1.375-35.648-35.648 30.816-49.297 5.8242-9.3125c2.3359-3.7422 1.1992-8.6875-2.543-11.023-3.7422-2.3359-8.6875-1.1992-11.023 2.543l-12.77 20.414-27.246-85.617 52.496-45.938 51.246 95.168c0.81641 1.5039 2.0469 2.6406 3.4727 3.3438 2.2578 1.1211 4.9922 1.1836 7.3594-0.097656 1.3906-0.75391 2.4648-1.8711 3.1836-3.1523 5.2969 6.6406 13.152 11.152 22.078 11.969l-86.129 105.27zm133.18-151.97c-3.4062-2.0469-7.793-1.2812-10.305 1.793l-1.8086 2.207v-8.4141c9.8086-8.8008 16-21.551 16-35.742v-25.52c0.625 0.078124 1.2461 0.16016 1.8867 0.22266l10.688 37.406 1.9219 6.7031-1.1836 0.59375-8.8789 4.4492c-3.3906 1.6953-5.1211 5.5352-4.1602 9.1992l2.9922 11.391zm129.36 147.94-8 13.855c-1.0703 1.8555-2.8008 3.168-4.8633 3.7266s-4.2227 0.27344-6.0625-0.80078c-1.8398-1.0703-3.168-2.8008-3.7266-4.8633s-0.27344-4.2227 0.80078-6.0625l8-13.855c1.0703-1.8555 2.8008-3.168 4.8633-3.7266 0.6875-0.19141 1.3906-0.27344 2.0781-0.27344 1.3906 0 2.7539 0.36719 3.9844 1.0703 1.8555 1.0703 3.168 2.8008 3.7266 4.8633 0.55859 2.0625 0.27344 4.2227-0.80078 6.0625z" fill="#443f3c"/>
</svg>
