<?xml version="1.0" encoding="UTF-8"?>
<svg width="512pt" height="512pt" version="1.1" viewBox="0 0 512 512" xmlns="http://www.w3.org/2000/svg">
 <path d="m462.78 338.35c4.8945-8.3477 6.6445-18.168 4.9375-27.691-1.707-9.5234-6.7617-18.125-14.25-24.25-7.4883-6.1289-16.918-9.3789-26.59-9.168l-3.2031-5.3359c-6.0781-10.137-15.223-18.082-26.113-22.68l-10.121-20.242c-1.9609-3.8828-4.4062-7.5-7.2773-10.77 12.984-5.5352 24.059-14.762 31.852-26.531 7.793-11.77 11.961-25.566 11.988-39.684v-48c-0.003906-4.2422-1.6914-8.3086-4.6914-11.309s-7.0664-4.6875-11.309-4.6914h-120c-20.812 0.035156-40.938 7.4414-56.809 20.902-15.875 13.461-26.465 32.109-29.898 52.637-3.0039-0.97656-6.1367-1.4922-9.293-1.5391h-32c-4.418-0.003906-7.9961-3.582-8-8v-56c-0.003906-4.2422-1.6914-8.3086-4.6914-11.309s-7.0664-4.6875-11.309-4.6914h-16c-4.2422 0.003906-8.3086 1.6914-11.309 4.6914s-4.6875 7.0664-4.6914 11.309v56c0.023438 19.43 10.125 37.461 26.688 47.625l-40.102 15.422c-21.953 8.4414-40.832 23.336-54.148 42.727-13.312 19.387-20.441 42.355-20.438 65.875v75.023c-0.003906 4.6719 2.0312 9.1094 5.5742 12.152 3.543 3.0391 8.2383 4.3828 12.855 3.668l78.461-12.07c12.016-1.8672 23.391-6.6523 33.129-13.938l5.9805-4.4844v8c0.011719 10.605 4.2305 20.773 11.73 28.27 7.4961 7.5 17.664 11.719 28.27 11.73h6.1133c10.133 0.023438 19.824-4.1445 26.777-11.516 10.434 8.9414 24.207 12.965 37.812 11.047 13.609-1.9141 25.734-9.582 33.297-21.055 7.2812 11.062 18.824 18.605 31.879 20.84 13.055 2.2305 26.449-1.0508 36.992-9.0625l-0.44922 0.90234 6.1992 3.1016c16.777 8.4141 36.609 8.0625 53.078-0.93359 11.754 6.918 25.895 8.5117 38.887 4.375 12.996-4.1367 23.613-13.609 29.203-26.047 5.5898-12.441 5.6172-26.672 0.082032-39.133-5.5391-12.461-16.117-21.977-29.094-26.168zm-17.738-2.7031-0.52734 0.52734c-7.4414 0.53516-14.656 2.8125-21.055 6.6484 2.3867-15.566-3.168-31.293-14.801-41.902l3.082-2.4688c5.125-4.0547 11.625-5.9531 18.125-5.2969 6.5 0.66016 12.492 3.8242 16.699 8.8203 4.0195 4.7773 6.0938 10.895 5.8125 17.133s-2.9023 12.145-7.3359 16.539zm-69.039 32.352c-8.4883 0-16.625-3.3711-22.629-9.3711-6-6.0039-9.3711-14.141-9.3711-22.629s3.3711-16.625 9.3711-22.629c6.0039-6 14.141-9.3711 22.629-9.3711s16.625 3.3711 22.629 9.3711c6 6.0039 9.3711 14.141 9.3711 22.629-0.007812 8.4844-3.3828 16.617-9.3828 22.617s-14.133 9.375-22.617 9.3828zm-80 0c-8.4883 0-16.625-3.3711-22.629-9.3711-6-6.0039-9.3711-14.141-9.3711-22.629s3.3711-16.625 9.3711-22.629c6.0039-6 14.141-9.3711 22.629-9.3711s16.625 3.3711 22.629 9.3711c6 6.0039 9.3711 14.141 9.3711 22.629-0.007812 8.4844-3.3828 16.617-9.3828 22.617s-14.133 9.375-22.617 9.3828zm-80 0c-8.4883 0-16.625-3.3711-22.629-9.3711-6-6.0039-9.3711-14.141-9.3711-22.629s3.3711-16.625 9.3711-22.629c6.0039-6 14.141-9.3711 22.629-9.3711s16.625 3.3711 22.629 9.3711c6 6.0039 9.3711 14.141 9.3711 22.629-0.007812 8.4844-3.3828 16.617-9.3828 22.617s-14.133 9.375-22.617 9.3828zm-72-32.484v-6.0117c7.2852 4.2539 15.566 6.4922 24 6.4961 0.003906 8.4336 2.2422 16.715 6.4961 24h-6.0117c-6.4922-0.007812-12.715-2.5898-17.305-7.1797-4.5898-4.5898-7.1719-10.812-7.1797-17.305zm96-103.52c0 8.4883-3.3711 16.625-9.3711 22.629-6.0039 6-14.141 9.3711-22.629 9.3711s-16.625-3.3711-22.629-9.3711c-6-6.0039-9.3711-14.141-9.3711-22.629s3.3711-16.625 9.3711-22.629c6.0039-6 14.141-9.3711 22.629-9.3711 8.4844 0.007812 16.617 3.3828 22.617 9.3828s9.375 14.133 9.3828 22.617zm14.766-10.656 0.62891-0.35938c10.293-5.8789 22.746-6.5977 33.652-1.9453 10.902 4.6523 19 14.141 21.879 25.641l0.15625 0.62109c-8.0977 4.418-14.609 11.25-18.633 19.547-9.0938-10.684-22.418-16.844-36.449-16.848-0.96094 0-1.9023 0.089844-2.8516 0.14453 3.1367-8.5859 3.6992-17.898 1.6172-26.801zm-46.766 58.656c0.96094 0 1.9023-0.089844 2.8516-0.14453-1.0195 2.8477-1.7656 5.7812-2.2266 8.7695-8.543 1.3438-16.566 4.9648-23.223 10.488-6.6602 5.5234-11.703 12.738-14.602 20.887h-2.8008c-11.258 0.019531-21.691-5.8867-27.469-15.547s-6.0469-21.648-0.70312-31.559c5.3438-9.9062 15.508-16.27 26.754-16.75 8.582 14.75 24.352 23.836 41.418 23.855zm16.871 8.8555c2.1523-9.4805 8.5078-17.465 17.266-21.688 8.7617-4.2227 18.965-4.2227 27.727 0 8.7578 4.2227 15.113 12.207 17.266 21.688-12.738 2.4102-23.965 9.8633-31.129 20.668-7.1641-10.805-18.391-18.258-31.129-20.668zm79.129-0.13281v-4.7227c0-10.004 5.3359-19.246 14-24.25 8.6641-5 19.336-5 28 0 8.6641 5.0039 14 14.246 14 24.25v6.8008c-9.8125 3.4844-18.234 10.051-24 18.723-7.3359-11.055-18.918-18.582-32-20.801zm105.95-8.582 0.41406 0.69141c-3.0781 1.3398-5.9766 3.0586-8.625 5.1211l-7.2148 5.7734c-5.8672-2.4648-12.164-3.7305-18.527-3.7266v-4c-0.003906-8.0391-2.2305-15.922-6.4297-22.777 7.8516-1.25 15.898-0.11328 23.098 3.2578 7.1992 3.375 13.219 8.8281 17.285 15.66zm-43.504-34.656-10.379 1.7266v0.003906c-8.75-5.832-19.332-8.2539-29.746-6.8047-1.457-5.6602-3.8203-11.047-7.0039-15.949l5.2773-3.0156c8.3281-4.7578 18.246-5.8789 27.43-3.1016 9.1797 2.7812 16.809 9.2188 21.098 17.797l4.3633 8.7266c-3.6914-0.15625-7.3867 0.050781-11.039 0.61719zm-78.449-141.48h120v48c-0.027344 12.59-4.3008 24.805-12.125 34.668s-18.746 16.801-31 19.695c-2.6367-1.3438-5.3867-2.4609-8.2148-3.332-13.383-4.1055-27.871-2.4648-40 4.5234l-8.2969 4.7422c-3.9492-3.2617-8.3359-5.9492-13.035-7.9766-12.016-5.168-25.512-5.7344-37.922-1.6016 3.0586-14.336 10.941-27.191 22.332-36.422s25.602-14.277 40.262-14.297h56v-16h-56c-18.113 0.03125-35.68 6.1992-49.836 17.5s-24.062 27.066-28.105 44.723c-5.2227-5.2578-11.59-9.2344-18.605-11.621-0.98438-5.6445-3.4766-10.918-7.2188-15.258 1.1914-18.234 9.2656-35.336 22.59-47.84 13.324-12.5 30.902-19.473 49.176-19.504zm-168 48v-56h16v56c0.007812 6.3633 2.5391 12.465 7.0352 16.965 4.5 4.4961 10.602 7.0273 16.965 7.0352h32c2.8164 0.007812 5.582 0.76562 8.0117 2.1914 2.4297 1.4219 4.4375 3.4648 5.8203 5.918-8.668 0.36719-17.074 3.0977-24.309 7.8906h-21.523c-10.605-0.011719-20.773-4.2305-28.27-11.73-7.5-7.4961-11.719-17.664-11.73-28.27zm-9.5469 234.61-78.453 12.062v-75.023c0-20.285 6.1484-40.094 17.633-56.812 11.484-16.719 27.762-29.57 46.695-36.852l57.926-22.277c1.9102 0.19531 3.8281 0.29297 5.7461 0.29297h6.4961c-5.7734 9.8242-7.7891 21.402-5.6836 32.598-11.699 1.7656-22.34 7.793-29.867 16.922-29.684 21.812-53.773 50.352-70.289 83.277l-3.8125 7.625 14.312 7.1562 3.8125-7.625c11.371-22.648 26.621-43.133 45.059-60.516 0 0.1875-0.027344 0.37109-0.027344 0.5625-0.007812 9.4219 2.7773 18.633 8 26.477v21.039c0.011719 13.32 6.582 25.777 17.562 33.312l-9.1445 6.8594c-7.6328 5.7109-16.547 9.4609-25.965 10.922zm87.66 29.391h-6.1133c-6.3633-0.007812-12.465-2.5391-16.965-7.0352-4.4961-4.5-7.0273-10.602-7.0352-16.965v-16.047c0.16406 0 0.31641 0.046875 0.48438 0.046875h21.039c5.5781 3.6953 11.875 6.1758 18.477 7.2773v0.72266c0 8.4023 2.2266 16.652 6.4453 23.918-3.9023 5.0742-9.9297 8.0625-16.332 8.082zm57.887 0c-8.4844-0.007812-16.617-3.3828-22.617-9.3828s-9.375-14.133-9.3828-22.617v-0.72266c13.082-2.2188 24.664-9.7461 32-20.801 7.3359 11.055 18.918 18.582 32 20.801v0.72266c-0.007812 8.4844-3.3828 16.617-9.3828 22.617s-14.133 9.375-22.617 9.3828zm80 0c-8.4844-0.007812-16.617-3.3828-22.617-9.3828s-9.375-14.133-9.3828-22.617v-0.72266c13.082-2.2188 24.664-9.7461 32-20.801 7.3359 11.055 18.918 18.582 32 20.801v0.72266c-0.007812 8.4844-3.3828 16.617-9.3828 22.617s-14.133 9.375-22.617 9.3828zm41.777-4.0547-2.0586-1.0312c5.4062-7.9336 8.293-17.312 8.2812-26.914v-0.72266c5.8477-0.98438 11.457-3.0547 16.543-6.1016-2.0078 13.082 1.6016 26.402 9.9375 36.68-10.707 3.8477-22.52 3.1562-32.703-1.9102zm70.223 4.0547c-8.4883 0-16.625-3.3711-22.629-9.3711-6-6.0039-9.3711-14.141-9.3711-22.629s3.3711-16.625 9.3711-22.629c6.0039-6 14.141-9.3711 22.629-9.3711s16.625 3.3711 22.629 9.3711c6 6.0039 9.3711 14.141 9.3711 22.629-0.007812 8.4844-3.3828 16.617-9.3828 22.617s-14.133 9.375-22.617 9.3828z" fill="#443f3c"/>
</svg>
