<?xml version="1.0" encoding="UTF-8"?>
<svg width="512pt" height="512pt" version="1.1" viewBox="0 0 512 512" xmlns="http://www.w3.org/2000/svg">
 <g fill="#443f3c">
  <path d="m100 81.457c-2.6406-14.258-3.8711-24.047-3.9219-24.465-0.28125-2.2734 0.42188-4.5586 1.9375-6.2812 1.5156-1.7188 3.6914-2.707 5.9844-2.7109 0.46484 0.03125 0.92969-0.03125 1.3672-0.18359 0.70312-1.7383 0.89844-3.6367 0.57031-5.4805-1.5469 0.96484-2.9883 2.0859-4.3047 3.3438-1.9922 1.9609-4.8633 2.75-7.5781 2.082l-32-8c-2.6523-0.66406-4.7812-2.6406-5.6484-5.2344-1.6211-4.793-8.1328-18.527-16.406-18.527h-24v16h8c2.3516 0 4.582 1.0352 6.1016 2.8281 1.5195 1.793 2.1719 4.1641 1.7852 6.4844-1.2539 9.0859 0.36328 18.34 4.625 26.465l-13.559 8.4805c-4.9922-8.5742-7.5664-18.34-7.4414-28.258h-7.5117c-4.418 0-8-3.582-8-8v-32c0-4.418 3.582-8 8-8h32c16.922 0 26.336 16.922 29.945 25.238l24 5.9922c5.0977-4.2617 11.422-6.7969 18.055-7.2305 3.4453 0 6.5039 2.2031 7.5938 5.4727 0.98438 2.9609 5.6016 18.215-1.2812 27.711-1.4102 1.9727-3.2539 3.5977-5.3906 4.7461 0.625 4.1367 1.5508 9.8945 2.793 16.617z"/>
  <path d="m352 256c-2.8438 0-5.4727-1.5078-6.9062-3.9609-1.4375-2.4531-1.4609-5.4805-0.070312-7.9609l70.785-125.83c-0.82031-3.6523-4.0664-6.2461-7.8086-6.2461h-32c-8.625 0-11.574-8.5117-14.695-17.535-4.4102-12.73-8.5039-22.465-17.305-22.465-14.16 0-22.398 24.863-24.16 33.602-0.76172 3.7227-4.0391 6.3984-7.8398 6.3984h-16c-3.4453 0-6.5039-2.2031-7.5938-5.4727l-6.1758-18.527h-2.2305c-14.16 0-22.398 24.863-24.16 33.602-0.23828 1.1602-0.73047 2.25-1.4414 3.1992-2.0547 2.7422-50.902 67.199-94.398 67.199-24 0-43.137-31.727-56.754-94.305l15.633-3.4062c11.129 51.168 26.504 81.711 41.121 81.711 28.727 0 66.895-41.68 80.574-59.457 2.1133-8.8164 12.371-44.543 39.426-44.543h8c3.4453 0 6.5039 2.2031 7.5938 5.4727l6.1758 18.527h4c3.832-12.801 14.613-40 38.23-40 20.91 0 28.121 20.801 32.426 33.223 0.80078 2.207 1.7266 4.9922 2.5117 6.7773h29.062c5.8008 0.007812 11.398 2.1133 15.77 5.9258 4.3711 3.8125 7.2188 9.0742 8.0156 14.816l54.23 61.992c1.6367 1.8594 2.3164 4.3711 1.8477 6.8008-0.46875 2.4336-2.0391 4.5078-4.2461 5.625l-128 64c-1.125 0.55859-2.3633 0.84766-3.6172 0.83984zm73.426-122.21-53.656 95.383 95.43-47.688z"/>
  <path d="m408 328h-168c-3.4453 0-6.5039-2.2031-7.5938-5.4727-6.3984-19.199-7.6016-55.266-3.5664-107.14l15.953 1.2305c-3.4414 44.258-2.9844 76.977 1.2812 95.383l153.93 0.003906v-96h16v104c0 2.1211-0.84375 4.1562-2.3438 5.6562s-3.5352 2.3438-5.6562 2.3438z"/>
  <path d="m190.55 294.51 9.2969-13.012 44.801 32-9.2969 13.012z"/>
  <path d="m184 256c-101.72 0-126.89-160-127.91-166.82l15.824-2.3984c0.22266 1.5117 22.645 143.96 104.09 152.78v-63.566h16v72c0 2.1211-0.84375 4.1562-2.3438 5.6562s-3.5352 2.3438-5.6562 2.3438z"/>
  <path d="m424 512h-36c-7.1445 0-13.746-3.8125-17.32-10-3.5742-6.1875-3.5742-13.812 0-20 3.5742-6.1875 10.176-10 17.32-10h5.3281l14.398-79.414-12.68-38.055 15.199-5.0547 13.336 40 0.003907-0.003906c0.42969 1.2891 0.52734 2.6641 0.27734 4l-16 88c-0.70703 3.7852-4.0117 6.5273-7.8633 6.5273h-12c-2.2109 0-4 1.7891-4 4s1.7891 4 4 4h29.441l22.336-111.66-15.465-54.145c-0.20703-0.71094-0.3125-1.4492-0.3125-2.1914 0-7.4062 0.46484-71.504 16-98.273v-29.727h16v32c-0.003906 1.5781-0.46875 3.125-1.3438 4.4414-11.793 17.68-14.551 70.207-14.656 90.449l15.688 54.922v-0.003906c0.35547 1.2227 0.40625 2.5117 0.15234 3.7578l-24 120c-0.74609 3.7383-4.0273 6.4297-7.8398 6.4336z"/>
  <path d="m280 512h-42.52c-7.0469-0.007812-13.641-3.4688-17.648-9.2617-4.0039-5.793-4.918-13.188-2.4375-19.781s8.0352-11.551 14.871-13.27l15.734-3.9336v-62.777c-6.9688-9.0703-11.617-25.535-14.168-50.145l15.91-1.6641c3.2734 31.488 9.4258 40.68 11.91 43.199h0.003906c1.4961 1.4961 2.3359 3.5195 2.3438 5.6328v72c0 3.6719-2.5 6.8711-6.0625 7.7617l-21.793 5.4414v-0.003906c-2.6953 0.66797-4.4648 3.2383-4.125 5.9922 0.33984 2.7539 2.6875 4.8203 5.4609 4.8086h34.52v-95.129c-4.7031-21.367-10.09-53.465-5.4336-72.871h-26.566v-16h40c3.7461-0.042969 7.0195 2.5195 7.8789 6.168 0.85547 3.6445-0.92969 7.3984-4.3047 9.0312-4.9531 4.4805-3.0234 38.398 4.2305 71.105h0.003906c0.125 0.55469 0.1875 1.125 0.19141 1.6953v104c0 2.1211-0.84375 4.1562-2.3438 5.6562s-3.5352 2.3438-5.6562 2.3438z"/>
  <path d="m312 496h-32v-16h32c2.1211 0 4.1562-0.84375 5.6562-2.3438s2.3438-3.5352 2.3438-5.6562v-79.023c-8.3438-33.762-8.2969-53.473-5.4492-64.977h-18.398c0.80078 20.711 4.7617 49.602 13.488 58.344 1.5039 1.4961 2.3555 3.5312 2.3594 5.6562v64c-0.003906 3.4414-2.207 6.4961-5.4727 7.5859l-24 8-5.0547-15.199 18.527-6.1562v-55.246c-15.527-20-16-69.191-16-74.984 0-4.418 3.582-8 8-8h40c3.7461-0.042969 7.0195 2.5195 7.8789 6.168 0.85547 3.6445-0.92969 7.3984-4.3047 9.0312-4.9609 3.7539-2.9531 34.344 4.1836 62.902l0.003907 0.003907c0.15625 0.61719 0.23438 1.2539 0.23828 1.8945v80c0 6.3633-2.5273 12.469-7.0312 16.969-4.5 4.5039-10.605 7.0312-16.969 7.0312z"/>
  <path d="m264 120h152v16h-152z"/>
  <path d="m296 296h-64v-16h56v-152h16v160c0 2.1211-0.84375 4.1562-2.3438 5.6562s-3.5352 2.3438-5.6562 2.3438z"/>
  <path d="m296 280h112v16h-112z"/>
  <path d="m344 128h16v160h-16z"/>
  <path d="m232 232h120v16h-120z"/>
  <path d="m248 176h136v16h-136z"/>
  <path d="m176 296h16v16h-16z"/>
  <path d="m200 296h16v32h-16z"/>
  <path d="m224 312h16v32h-16z"/>
  <path d="m376 320h16v24h-16z"/>
  <path d="m344 320h16v24h-16z"/>
  <path d="m488 504h-32c-8.5742 0-16.496-4.5742-20.785-12-4.2852-7.4258-4.2852-16.574 0-24 4.2891-7.4258 12.211-12 20.785-12h0.097656c0.50391-21.047 3.3359-55.398 15.902-67.91v-8.2656c-5.2695-4.4883-10.262-9.3008-14.945-14.398l11.746-10.84c4.9258 5.4258 10.273 10.449 16 15.023 2.0117 1.5078 3.1992 3.8789 3.1992 6.3984v16c0.015625 3.0469-1.6992 5.8398-4.4258 7.1992-6.0547 2.9766-11.574 33.891-11.574 64.793 0 2.1211-0.84375 4.1562-2.3438 5.6562s-3.5352 2.3438-5.6562 2.3438h-8c-4.418 0-8 3.582-8 8s3.582 8 8 8h24v-32c0-23.078 13.398-65.32 16-73.281v-11.406l-5.6562-5.6562c-10.609-10.609-26.344-61.328-26.344-109.66 0-40.641-11.871-48.992-12-49.07-0.82031-0.40625-1.5312-0.99609-2.0781-1.7305l-48-56 12.145-10.398 47.199 55.078c5.4766 3.8086 18.734 17.641 18.734 62.121 0 48.648 16.441 93.129 21.656 98.344l8 8c1.5 1.5 2.3438 3.5352 2.3438 5.6562v16c-0.003906 0.85938-0.14062 1.7109-0.40625 2.5273-0.16016 0.47266-15.594 47.074-15.594 69.473v40c0 2.1211-0.84375 4.1562-2.3438 5.6562s-3.5352 2.3438-5.6562 2.3438z"/>
  <path d="m18.344 42.34 32-32 11.312 11.312-32 32z"/>
  <path d="m128 312c-31.305 0-56.113-46.574-75.832-142.4-9.0039-45.27-15.734-90.957-20.168-136.9l16-1.4062c0 0.70312 6.1055 68.43 19.855 135.2 24.082 116.89 50.082 129.5 60.145 129.5 49.09 0 96.23-90.734 104.04-168.8l15.922 1.6016c-8.6641 86.648-60.066 183.2-119.96 183.2z"/>
 </g>
</svg>
