<?xml version="1.0" encoding="UTF-8"?>
<svg width="512pt" height="512pt" version="1.1" viewBox="0 0 512 512" xmlns="http://www.w3.org/2000/svg">
 <path d="m445.59 188.08-159.45 113.06c-14.723 10.438-32.371 15.941-50.418 15.719-18.043-0.22656-35.555-6.1641-50.012-16.965l-58.793-43.926-5.8984 20.68v0.003906c-1.2812 4.4922-1.0508 9.2852 0.65625 13.637 1.7031 4.3516 4.793 8.0195 8.7852 10.445l88.77 53.898c3.5586 2.1602 7.6719 3.2344 11.832 3.0859 4.1562-0.14844 8.1836-1.5117 11.578-3.918l135.64-96.168c1.9023-1.3477 3.7305-2.3672 5.5117-3.875 17.406-14.738 48.406-8.3086 69.23 14.363 20.828 22.668 23.602 52.992 6.1914 67.727h0.003906c-3.8516 3.2266-8.3906 5.5273-13.27 6.7188l-164.84 107.14c-14.637 9.5117-31.84 14.309-49.289 13.738-17.445-0.57031-34.301-6.4766-48.285-16.926l-105.66-78.934c-38.141-28.488-45.586-82.68-16.551-120.41l19.656-25.539c-37.125-28.715-44.129-82.188-15.391-119.53l40.176-52.195c14.344-18.637 43.871-3.7539 37.422 18.859l-17.898 62.812c-1.2852 4.4922-1.0547 9.2852 0.65234 13.637 1.707 4.3516 4.793 8.0195 8.7891 10.445l87.957 53.398c3.7461 2.2773 8.1055 3.3398 12.477 3.0508 4.375-0.28906 8.5547-1.918 11.969-4.668l126.65-101.93c1.9805-1.5977 3.7109-3.3359 5.6562-4.9883 17.406-14.734 48.406-8.3047 69.23 14.367 20.828 22.668 23.598 52.992 6.1914 67.727l0.003906-0.003906c-2.7656 2.332-5.9023 4.1797-9.2852 5.4609zm-240.61 50.164c9.7422 5.9141 21.07 8.6875 32.441 7.9336 11.375-0.75 22.238-4.9883 31.117-12.133l104.71-84.273h0.003906c3.1367 6.7734 7.3203 13.012 12.395 18.488 3.8867 4.2422 8.2539 8.0195 13.008 11.262l-132.25 93.773c-8.832 6.2617-19.422 9.5664-30.25 9.4297-10.828-0.13281-21.332-3.6953-30.008-10.176l-69.223-51.707c2.3203-8.1328 4.7344-16.184-0.17188-24.008l68.215 41.414zm-85.027-51.617c-6.4141-0.56641-13.145 1.7422-18.137 7.9688-21.965-17.047-26.297-48.555-9.7461-70.895-6.5547 25.621 6.0742 49.684 27.883 62.926zm142.44 195.02 114.2-80.973c4.9805 12.148 13.668 22.762 24.219 30.523l-138.3 89.883c-8.7812 5.707-19.105 8.5859-29.574 8.2422-10.469-0.33984-20.582-3.8867-28.973-10.156l-105.66-78.934c-22.625-16.895-27.246-48.879-10.508-71.477v0.003906c-2.9453 11.52-2.1094 23.68 2.3828 34.691 4.4922 11.008 12.402 20.281 22.566 26.453l88.77 53.898c9.25 5.6172 19.941 8.4023 30.758 8.0195 10.816-0.38281 21.281-3.9258 30.109-10.184zm164.59-91.469c-16.234-17.672-27.734-9.0273-10.934 9.2578 16.238 17.668 27.734 9.0234 10.934-9.2578zm-4.3438-153.22c-16.238-17.672-27.734-9.0273-10.934 9.2578 16.238 17.668 27.734 9.0234 10.934-9.2578z" fill="#443f3c" fill-rule="evenodd"/>
</svg>
