<?xml version="1.0" encoding="UTF-8"?>
<svg width="512pt" height="512pt" version="1.1" viewBox="0 0 512 512" xmlns="http://www.w3.org/2000/svg">
 <path d="m368.38 19.586s-0.76953-1.0234-1.1523-1.4062c-8.5742-10.238-20.223-18.176-34.434-18.176-14.207 0-25.855 7.9375-34.434 18.176-2.5586 3.0703-4.7344 6.1445-6.6562 9.3438-3.3281-3.5859-7.0391-7.2969-11.137-10.879-11.008-9.3438-24.32-16.641-37.375-16.641-10.625 0-24.832 5.1211-37.246 13.824-9.8555 6.9102-18.305 16.129-23.168 25.984-50.688 9.2148-97.152 28.414-136.96 63.105-2.4336-0.38281-4.8633-0.51172-7.4258-0.51172-11.008 0-19.711 5.7617-25.984 15.742-9.7266 15.488-12.414 43.902-12.414 61.055 0 106.24 53.504 212.35 93.313 252.29 10.879 10.754 25.09 24.449 47.488 28.289v39.426c0 7.0391 5.7617 12.801 12.801 12.801l204.8-0.007812c7.0391 0 12.801-5.7617 12.801-12.801v-39.551c15.23-2.3047 40.961-8.832 60.289-28.16 14.977-15.105 29.055-45.566 40.449-83.711 25.215-84.352 40.062-207.36 40.062-270.98 0-7.0391-3.7109-19.969-12.289-30.977-8.5742-11.137-21.762-20.223-38.91-20.223-3.1992 0-6.5273 0.76953-9.6016 2.5586-2.0469-3.3281-4.4805-6.7852-7.168-10.113-8.5742-10.238-20.223-18.176-34.434-18.176-21.504 0-34.047 9.0898-41.215 19.586zm-48.383 441.21h25.602v25.602h-25.602zm-51.199 25.602h25.602v-25.602h-25.602zm-51.199 0h25.602v-25.602h-25.602zm-25.602-25.602v25.602h-25.602v-25.602zm89.602-405.5c-3.1992-4.3516-9.6016-12.414-17.664-19.199-6.2734-5.375-13.312-10.496-20.734-10.496-6.5273 0-14.977 3.8398-22.527 9.0898-7.4258 5.2461-14.207 12.031-16.383 19.711v0.25781c-2.8164 9.8555-2.4336 27.008-1.5352 46.719 1.4062 32.77 4.8633 72.191 3.1992 101.5-0.76953 14.207-2.9453 26.238-6.5273 34.816-3.457 8.1914-8.5742 13.824-14.594 16.77-32.383 16.129-48.512-0.64062-65.152-14.465-6.1445-5.1211-12.031-13.566-17.406-24.191-6.7852-13.184-13.312-29.953-21.121-45.695-5.7617-11.777-12.16-23.039-20.098-31.359-6.2734-6.5273-13.566-11.137-22.785-11.137-1.2812 0-2.1758 0.89453-2.9453 1.793-1.4062 1.793-2.5586 3.9688-3.5859 6.3984-5.2461 12.801-6.2734 31.23-6.2734 42.879 0 98.559 48.895 197.25 85.887 234.11 8.9609 9.0898 20.863 21.887 42.113 21.887l204.93-0.003906s33.023 0 54.91-21.887c13.055-13.055 24.191-39.809 34.047-72.961 24.574-82.047 39.039-201.73 39.039-263.55 0-3.5859-2.6875-9.7266-6.9102-15.359-3.7109-4.8633-8.9609-9.2148-16-10.113-0.89453 1.4062-2.5586 3.9688-3.457 6.2734-2.3047 5.375-4.3516 12.16-6.3984 19.84-1.6641 6.2734-3.0703 13.184-4.4805 20.352 4.4805-1.5352 9.7266-0.51172 13.312 3.0703 4.9922 4.9922 4.9922 13.055 0 18.047l-9.0898 9.0898 9.0898 9.0898c4.9922 4.9922 4.9922 13.055 0 18.047-4.9922 4.9922-13.055 4.9922-18.047 0l-3.5859-3.457c-3.1992 25.473-4.9922 46.977-5.5039 52.609 13.695 9.0898 21.762 17.023 21.762 17.023 4.9922 4.9922 4.9922 13.055 0 18.176-4.9922 4.9922-13.055 4.9922-18.176 0 0 0-34.434-34.559-80.383-34.688h-0.25781c-49.664 0-99.199 12.414-99.199 12.414-6.7852 1.6641-13.824-2.4336-15.488-9.3438-1.6641-6.7852 2.4336-13.824 9.3438-15.488 0 0 11.266-2.8164 28.672-5.8867v-28.801c-4.7344 2.1758-10.496 1.2812-14.336-2.5586-4.9922-4.9922-4.9922-13.055 0-18.047l9.0898-9.0898-9.0898-9.0898c-4.9922-4.9922-4.9922-13.055 0-18.047 3.8398-3.8398 9.6016-4.7344 14.336-2.5586v-43.008zm-188.67 286.08c16.77 18.559 34.559 37.375 54.398 50.559 21.633 14.465 45.566 22.273 72.574 17.406 6.9102-1.2812 11.648-7.9375 10.367-14.848-1.2812-6.9102-7.9375-11.648-14.848-10.367-20.098 3.5859-37.762-2.8164-53.887-13.566-18.047-12.031-34.176-29.441-49.535-46.465-4.7344-5.2461-12.801-5.6328-18.047-0.89453-5.2461 4.7344-5.6328 12.801-0.89453 18.047zm317.7-51.84c-19.328 47.617-40.703 83.84-69.633 95.359-6.5273 2.5586-9.7266 9.9844-7.168 16.641 2.5586 6.5273 9.9844 9.7266 16.641 7.168 33.793-13.312 61.441-53.887 83.969-109.44 2.6875-6.5273-0.51172-14.078-7.0391-16.641-6.5273-2.6875-14.078 0.51172-16.641 7.0391zm-235.9 40.191c52.223-43.391 111.74-62.719 181.25-48.512 6.9102 1.4062 13.695-3.0703 15.105-9.9844 1.4062-6.9102-3.0703-13.695-9.9844-15.105-77.695-15.871-144.26 5.2461-202.75 53.887-5.375 4.4805-6.1445 12.543-1.6641 18.047 4.4805 5.375 12.543 6.1445 18.047 1.6641zm5.1211-119.17-37.762 15.105c7.8086 7.0391 16.383 13.566 31.488 6.0156 1.9219-1.0234 2.5586-3.7109 3.457-6.7852 1.2812-4.0977 2.1758-8.832 2.8164-14.336zm0.89453-39.809-61.695 20.609c1.2812 2.6875 2.4336 5.2461 3.5859 7.8086 0.89453 1.9219 1.9219 3.8398 2.8164 5.6328l55.551-22.273c0-3.8398 0-7.8086-0.25781-11.777zm253.95-118.65c-1.6641-4.0977-5.1211-11.391-10.367-17.535-3.8398-4.4805-8.4492-8.9609-14.719-8.9609-24.574 0-25.602 23.551-25.602 25.473 0 0.51172-2.3047 25.727-2.3047 25.727 3.3281 0 6.6562 1.2812 9.0898 3.7109 4.9922 4.9922 4.9922 13.055 0 18.176l-9.0898 9.0898 9.0898 9.0898c4.9922 4.9922 4.9922 13.055 0 18.047-3.9688 3.9688-9.8555 4.7344-14.594 2.4336l-3.8398 42.754c14.078 1.6641 27.137 5.8867 38.398 10.879 0.76953-8.0625 1.9219-19.457 3.457-32.383-2.3047-0.51172-4.3516-1.6641-6.1445-3.457-4.9922-4.9922-4.9922-13.055 0-18.047l9.0898-9.0898-9.0898-9.0898c-4.9922-4.9922-4.9922-13.055 0-18.047 4.0977-4.0977 10.113-4.8633 14.977-2.3047 3.3281-17.793 7.168-34.434 11.648-46.465zm-76.414 0.89453c-1.5352-3.8398-5.1211-11.777-10.625-18.434-3.8398-4.4805-8.4492-8.9609-14.719-8.9609-6.2734 0-11.008 4.3516-14.719 8.9609-5.8867 7.0391-9.4727 15.359-10.879 18.945v44.801c4.7344-2.1758 10.496-1.2812 14.336 2.5586 4.9922 4.9922 4.9922 13.055 0 18.047l-9.0898 9.0898 9.0898 9.0898c4.9922 4.9922 4.9922 13.055 0 18.047-3.8398 3.8398-9.6016 4.7344-14.336 2.5586v24.961c12.289-1.5352 25.727-2.8164 39.551-3.1992l0.89453-10.496 2.8164-31.23c-4.6094 1.9219-10.113 1.0234-13.953-2.8164-4.9922-4.9922-4.9922-13.055 0-18.047l9.0898-9.0898-9.0898-9.0898c-4.9922-4.9922-4.9922-13.055 0-18.176 4.9922-4.9922 13.055-4.9922 18.176 0l0.89453 0.89453c1.2812-13.441 2.1758-23.938 2.5586-28.543zm-238.59 74.113c-8.3203 4.6094-16.383 9.7266-24.191 15.488 0 0.12891 0.12891 0.25781 0.25781 0.38281 4.6094 7.8086 8.832 16.383 12.801 24.832l27.137-9.0898-15.871-31.742zm57.727-21.887c-11.902 2.6875-23.426 6.2734-34.559 10.754l17.281 34.688 19.457-6.5273c-0.76953-13.312-1.6641-26.625-2.1758-39.039zm-0.38281-38.273c-38.273 8.1914-73.727 23.039-105.09 47.488 2.8164 2.3047 5.6328 4.7344 8.1914 7.5508 29.184-21.246 61.312-35.84 96.512-42.879 0-4.3516 0.12891-8.4492 0.38281-12.16z" fill="#443f3c" fill-rule="evenodd"/>
</svg>
