<?xml version="1.0" encoding="UTF-8"?>
<svg width="512pt" height="512pt" version="1.1" viewBox="0 0 512 512" xmlns="http://www.w3.org/2000/svg">
 <g fill="#443f3c">
  <path d="m278.84 163.62 1.1094 4.6445c0.097657 0.42188 0.35547 0.78516 0.71875 1.0234 4.3008 2.8203 11.828 8.2266 20.848 15.008 1.3086 0.98047 3.1172-0.29297 2.625-1.8555l-42.5-134.5c-1.6367-5.1914-8.9766-5.2148-10.652-0.035156l-8.3086 25.707c-0.25781 0.79688 0.11328 1.6523 0.83984 2.0664 1.4844 0.83984 2.875 1.8398 4.1406 2.9805 12.246 11.238 20.703 39.641 31.18 84.961z"/>
  <path d="m265.12 165.87 0.21484 0.90625 0.21875 0.95703c0.57422 2.5117-0.64453 5.0938-2.9492 6.2461l-41.266 20.656c-3.6367 1.8203-7.9414-0.72266-8.1758-4.7852-1.0781-18.84-3.3633-37.598-6.8477-56.148-3.2812-16.348-10.98-23.984-22.91-22.66-1.9375 0.11719-3.8672 0.17969-5.7969 0.23828-2.2031 0.074218-4.3984 0.14453-6.6016 0.29688-2.4258 0.16406-4.4648-2.125-3.8086-4.4648 1.5117-5.3789 3.4453-9.4531 11.66-13.305 40.145-12.242 54.473-9.4648 59.461-4.9219 11.277 10.406 21.266 53.238 26.801 76.984zm-56.188-68.41c-2.9531 1.8359-2.2656 6.0742 1.0781 7.0234 1.7969 0.50781 3.6562 0.8125 5.5352 0.90234 2.0234 0.097657 4.0469-0.054687 6.0195-0.44922 3.2656-0.65234 4.4336-4.5781 1.8711-6.7031-4.25-3.5273-9.4141-3.9453-14.504-0.77344z" fill-rule="evenodd"/>
  <path d="m270.57 181.16c0.86719-0.43359 1.8672-0.40625 2.6797 0.11719 18.391 11.793 80.867 60.457 90.047 74.867 1.9062 2.9336 2.5742 4.9531 2.8047 6.2266 0.17969 1.0156-0.46094 1.9922-1.4219 2.3633-2.5938 1-5.4453 1.1797-8.1602 0.49609-0.15625-0.039063-0.30078-0.066406-0.45703-0.082031-26.996-2.6367-84.184-18.973-102.8-41.559-0.98047-1.1914-2.7188-1.5078-3.9844-0.62891l-3.3086 2.3047c-1.2656 0.87891-1.5859 2.6211-0.62891 3.832 11.32 14.309 33.531 25.168 55.523 32.773 1.1328 0.39453 1.8984 1.457 1.8984 2.6562v8.3477c0 1.3242-0.92188 2.4609-2.2148 2.7461-21.59 4.7305-68.734 17.543-105.23 38.438-1.9688 1.1289-4.2969-0.38672-3.5352-2.5234 2.543-7.125 9.8359-15.773 27.391-27.539 0.13672-0.09375 0.29297-0.17578 0.44531-0.24219 29.09-12.719 32.559-25.898 31.836-33.223-0.15234-1.5469-1.7344-2.4336-3.2344-2.0078l-3.918 1.1133c-1.4883 0.42188-2.3281 2.0117-2.5469 3.543-0.69531 4.8711-6.1406 11.695-19.609 18.637-1.418 0.73047-3.1406 0.070313-3.7188-1.418-0.12109-0.30859-0.24219-0.62109-0.36719-0.93359-9.0703-18.043-11.07-38.809-5.6406-58.23 0.21094-0.74609 0.73047-1.3633 1.4219-1.707z"/>
  <path d="m202.56 391.34c0.45312 2.6875 2.7852 4.6562 5.5117 4.6562h101.84c2.4727 0 4.6523-1.625 5.3594-3.9961l2.5156-8.2617c0.99609-3.2734-1.4375-6.582-4.8594-6.6094l-106.44-0.84375c-3.1016-0.023438-5.5117 2.6953-5.1172 5.7695z"/>
  <path d="m314.34 276.12c-1.2422-0.3125-2.1172-1.4297-2.1172-2.7148v-4.0859c0-1.875 1.8086-3.2188 3.6133-2.7031 9.9727 2.8633 20.102 5.1602 30.336 6.8828 1.6719 0.28125 2.7305 1.9609 2.2461 3.582l-1.3438 4.4727c-0.42969 1.4297-1.9062 2.2734-3.3555 1.9102z"/>
  <path d="m379.73 266.89c1.1406-5.2734-0.37891-11.512-4.7617-18.254-6.8203-10.766-32.809-32.707-56.355-51.145-1.2578-0.98438-0.55859-3.0117 1.0391-3.0117h137.82c8.0625 0 11.48 10.266 5.0312 15.102-14.5 10.867-65.168 47.938-80.453 59.113-0.91406 0.66797-2.5625-0.69531-2.3242-1.8047z"/>
  <path d="m350.94 327.7c-0.50781-1.5625-2.7266-1.5352-3.1992 0.035156l-21.246 70.621c-1.0781 3.6055-3.6992 6.6445-7.0234 8.3438-1.3047 0.66797-1.7109 2.6719-0.53125 3.5391l56.496 41.602c6.5703 4.8359 15.48-1.6016 12.949-9.3555z"/>
  <path d="m176.52 315.55c0.023438 4.9141 0.86328 10.129 2.0234 14.895l11.359 66.34c0.58203 3.6445 2.7227 6.9492 5.7305 9.043 1.082 0.75391 1.2852 2.4453 0.22266 3.2266l-58.484 42.918c-6.582 4.8281-15.484-1.6328-12.93-9.3867l44.441-134.89c1.5078-4.5781-0.089843-9.6094-3.9609-12.48l-115.39-85.602c-6.4922-4.8164-3.0859-15.125 4.9961-15.125h140.75c2.3672 0 4.2891 1.9219 4.2891 4.293 0.03125 0.69141 0.11328 1.3789 0.23828 2.0586 0.28516 1.5352 0.19922 3.1367-0.33203 4.6055-0.10156 0.28125-0.19531 0.5625-0.28516 0.84766-6.6719 23.086-3.0312 44.043 4.957 65.684 0.88281 2.3984 0.082031 5.0977-1.957 6.6406-16.945 12.82-24.77 24.211-25.66 36.938z"/>
  <path d="m226.53 309.18c-10.789 4.5781-21.258 9.875-31.34 15.859-1.9453 1.1523-2.9688 3.3906-2.6133 5.625l4.3398 26.758c0.39844 2.4805 2.5391 4.3008 5.0508 4.3008h119.39c2.3242 0 4.3594-1.5625 4.9492-3.8125l15.555-58.914c0.91406-3.0547-0.90625-6.2539-3.9961-7.0273l-29.383-7.3594c-0.8125-0.20312-1.6602-0.22266-2.4805-0.050781l-1.6328 0.33984c-18.195 3.7773-40.344 8.375-77.836 24.281zm38.09 23.883c0 10.555-8.5547 19.113-19.113 19.113-10.555 0-19.113-8.5586-19.113-19.113 0-10.559 8.5586-19.113 19.113-19.113 10.559 0 19.113 8.5547 19.113 19.113zm34.027 19.113c10.559 0 19.113-8.5586 19.113-19.113 0-10.559-8.5547-19.113-19.113-19.113-10.555 0-19.113 8.5547-19.113 19.113 0 10.555 8.5586 19.113 19.113 19.113z" fill-rule="evenodd"/>
 </g>
</svg>
