<?xml version="1.0" encoding="UTF-8"?>
<svg width="512pt" height="512pt" version="1.1" viewBox="0 0 512 512" xmlns="http://www.w3.org/2000/svg">
 <g fill="#443f3c">
  <path d="m98.078 129.77-7.6641 23.516h-24.664l19.941 14.484-7.5547 23.41 19.941-14.484 19.945 14.484-7.6641-23.41 20.051-14.484h-24.672z"/>
  <path d="m164.62 60.5-7.6602 23.406h-24.668l19.941 14.59-7.6602 23.41 20.047-14.488 19.945 14.488-7.6602-23.41 19.941-14.59h-24.668z"/>
  <path d="m73.305 272.43 19.945 14.48-7.6641-23.512 20.051-14.484h-24.668l-7.6641-23.406-7.6602 23.406h-24.668l19.945 14.484-7.5586 23.512z"/>
  <path d="m256.05 35.098-7.6641 23.512h-24.668l19.945 14.484-7.6641 23.512 20.051-14.484 19.941 14.484-7.6641-23.512 19.949-14.484h-24.672z"/>
  <path d="m263.61 439.01-7.5547-23.516-7.6641 23.516h-24.668l19.945 14.484-7.6641 23.406 20.051-14.484 19.941 14.484-7.6641-23.406 19.949-14.484z"/>
  <path d="m105.74 343.7-7.6602-23.512-7.6641 23.512h-24.664l19.941 14.484-7.5547 23.516 19.941-14.488 19.945 14.488-7.6641-23.516 20.051-14.484z"/>
  <path d="m172.18 414.03-7.5586-23.512-7.6602 23.512h-24.668l19.941 14.484-7.6602 23.516 20.047-14.488 19.945 14.488-7.6602-23.516 19.941-14.484z"/>
  <path d="m393.98 191.18 19.941-14.484 20.051 14.484-7.6602-23.41 19.941-14.484h-24.668l-7.6641-23.516-7.5547 23.516h-24.668l19.945 14.484z"/>
  <path d="m347.48 60.5-7.6641 23.406h-24.668l19.945 14.59-7.6641 23.41 20.051-14.488 19.945 14.488-7.6641-23.41 19.941-14.59h-24.668z"/>
  <path d="m471.02 248.91h-24.664l-7.6641-23.406-7.5586 23.406h-24.664l19.941 14.484-7.6641 23.512 19.945-14.48 20.051 14.48-7.6641-23.512z"/>
  <path d="m421.59 343.7-7.6641-23.512-7.5547 23.512h-24.668l19.945 14.484-7.6641 23.516 19.941-14.488 20.051 14.488-7.6602-23.516 19.941-14.484z"/>
  <path d="m355.04 414.03-7.5547-23.512-7.6641 23.512h-24.668l19.945 14.484-7.6641 23.516 20.051-14.488 19.945 14.488-7.6641-23.516 19.941-14.484z"/>
 </g>
</svg>
