<?xml version="1.0" encoding="UTF-8"?>
<svg width="3600pt" height="3600pt" version="1.1" viewBox="0 0 3600 3600" xmlns="http://www.w3.org/2000/svg">
 <g fill="#443f3c">
  <path d="m2377.9 1757.9c-11.477-1.7422-22.191 6.4141-23.852 17.914-2.25 15.945-4.2734 31.922-6.3008 47.898-4.6953 37.18-9.5898 75.602-17.41 112.3-5.625 26.27-6.0195 51.496-6.4141 75.91l-0.30859 17.746c-0.30469 11.645 8.8906 23.484 20.535 23.484h0.5625c11.391 0 20.785-10.941 21.066-22.387l0.33594-17.27c0.36719-23.398 0.73047-45.984 5.4844-68.23 8.2109-38.418 13.191-77.992 18.027-116.04 1.9961-15.777 3.9922-31.668 6.2148-47.391 1.6328-11.531-6.4102-22.305-17.941-23.938z"/>
  <path d="m2483.5 2368.8c53.691 0.39453 109.35-3.2891 162.87-6.918 31.977-2.1641 63.957-4.3047 95.961-5.6523 9.8984-0.44922 65.418-1.3516 139.08-2.082-0.085938-1.2383-0.44922-2.3633-0.30859-3.6289 1.0977-9.3359 1.9414-18.73 2.8125-28.125 1.9688-21.234 3.9922-43.172 8.6914-64.855 19.52-90.141 40.695-178.59 58.836-253.24 2.6172-10.801 4.4727-21.883 6.3281-32.992 4.9766-29.758 10.152-60.469 28.547-87.723 0.28125-8.2969-23.598-37.293-36.422-52.93-3.1211-3.7969-6.1602-7.3984-9.1406-11.082-14.852 38.953-22.305 80.383-29.672 123.64-4.1055 24.215-8.3828 49.867-14.176 74.477-4.5547 19.293-5.0898 39.742-5.6797 60.215l-0.11328 6.5234c-0.36328 11.504-9.7305 24.977-21.094 24.977h-0.61719c-11.645 0-20.812-14.539-20.477-26.184l0.11328-8.7461c0.61719-21.684 1.2383-44.156 6.7773-67.613 5.457-23.289 9.6172-47.785 13.641-71.41 8.9141-52.34 18.113-106.59 42.469-157.47-0.87109-1.4922-1.6875-3.3477-2.3633-5.2305-13.781-37.461-46.688-75.57-90.055-104.68-1.3516 4.1055-2.7578 7.2266-4.4141 11.504-16.68 43.004-16.762 89.129-16.848 131.74 0 11.645-9.4492 16.82-21.094 16.82h-0.027343c-11.645 0-21.066-5.1172-21.066-16.762 0.054688-43.988 0.16797-94.387 19.688-144.73 13.555-34.875 11.727-45.195-10.742-62.578-6.9766-5.3438-13.305-10.742-19.828-16.34-21.008 45.816-31.191 97.848-30.883 161.3 0.082032 11.723-9.3086 22.887-20.953 22.887h-0.11328c-11.617 0-21.039-10.996-21.094-22.613-0.39453-74.391 12.77-138.38 40.133-192.4-2.5312-2.4453-5.2305-4.9219-7.7344-7.3398-6.2734-6.0469-12.516-12.121-18.898-18.113-7.5391-7.1172-15.301-13.949-23.035-20.785-23.258-20.531-47.277-41.766-65.559-69.637-5.9609-9.1133-14.57-13.164-28.012-18.758-54.844-22.727-114.47-35.773-172.12-48.461l-9.5625-2.1094c-28.969-6.2734-52.004 6.6094-68.484 38.531-8.9453 17.383-10.32 36.871-10.941 55.293-0.81641 23.57-12.852 59.625-30.262 85.191 21.516 13.164 36.93 31.949 48.066 48.008 22.727 32.879 53.129 57.629 85.305 83.84 23.43 19.07 47.617 38.758 68.934 62.043 39.883 43.621 84.039 85.219 126.73 125.46 14.316 13.473 28.602 26.945 42.777 40.5 15.301 14.652 27.984 23.992 43.93 25.117 11.645 0.81641 20.391 10.914 19.547 22.527-0.78906 11.137-10.039 19.602-21.008 19.602-0.50781 0-1.0117-0.027344-1.5195-0.054688-30.207-2.1367-51.555-18.898-70.145-36.73-14.09-13.473-28.293-26.887-42.523-40.305-43.258-40.754-87.945-82.883-128.9-127.66-19.238-21.008-41.203-38.926-64.461-57.824-33.074-26.973-67.246-54.789-93.375-92.586-10.18-14.68-24.328-32.625-43.68-40.836-4.0508-1.7422-7.4258-4.6953-9.7305-8.4375l-62.691-102.21c-5.5391-9-12.375-17.465-19.293-23.906-3.2617 8.5508-7.7344 16.566-13.867 24.891-1.7422 2.4453-2.6719 4.1914-2.7578 5.0352-2.4766 32.852-6.5547 64.238-10.492 96.215-7.5078 61.004-15.273 120.8-11.758 182.76 0.71094 11.672-8.207 15.75-19.82 15.75h-1.2109c-11.109 0-20.418-2.082-21.066-13.332-3.7109-65.699 4.3047-124.12 12.039-186.95 3.8828-31.473 7.875-64.012 10.293-95.906 0.95703-12.402 7.1445-22.613 10.773-27.535 16.398-22.246 15.609-41.008-2.7266-66.965-23.992-33.977-45-47.785-74.926-49.219-22.051-1.0703-43.82 3.6562-66.852 8.6055-16.621 3.5703-33.836 7.2852-51.805 8.8594l-11.586 1.0117c-63.508 5.625-129.21 11.418-195.36 3.7695-10.633-1.1797-22.191-0.44922-31.895 1.7148-0.61719 3.4609-1.6602 7.1719-3.1211 11.137-8.8047 23.625-10.406 49.133-12.094 76.191-0.92969 14.766-1.8555 29.586-3.9102 44.184-6.1016 43.367-9.4219 88.227-12.684 131.62-1.3789 18.676-2.7852 37.379-4.3867 56.023-0.95703 10.996-10.152 19.293-20.98 19.293-0.58984 0-1.2109-0.027344-1.8281-0.085938-11.617-0.98438-20.195-11.195-19.211-22.836 1.6016-18.477 2.9531-37.012 4.3594-55.574 3.2891-44.043 6.6641-89.605 12.965-134.32 1.9141-13.527 2.7266-27.254 3.5703-40.949 1.8008-28.883 3.6562-58.809 14.652-88.285 0.39453-1.0703 0.67578-1.9414 0.87109-2.6172-1.0391-0.75781-2.6445-1.8828-5.1758-3.4297-9.2812-5.625-33.977-12.602-60.02-18.449-11.953 72.93-22.105 150.05-28.039 215.1-1.0117 10.941-10.211 19.18-20.98 19.18-0.64844 0-1.293-0.027344-1.9414-0.085938-11.617-1.0703-20.164-11.305-19.098-22.922 6.0469-66.402 16.426-145.15 28.633-219.46-16.762-2.8125-30.348-4.3867-35.578-3.8242-13.809 3.2891-27.113 4.2188-40.105 3.8828-7.1992 36.703-11.445 77.82-11.418 116.04 0 11.645-9.4219 21.094-21.094 21.094-11.645 0-21.094-9.4492-21.094-21.094-0.027344-39.91 4.3047-82.914 11.727-121.64-13.695-3.0938-27.113-7.0586-40.359-11.023-20.477-6.1328-39.824-11.898-59.43-14.117-83.531-9.2539-146.45 15.273-197.8 77.371-7.6797 9.2812-13.105 23.035-18.871 37.574-2.0234 5.1172-4.1641 10.293-6.3828 15.441 0.61719 0.50781 1.2656 0.78906 1.8828 1.3516 15.805 13.586 34.398 23.711 54.055 34.426 9 4.9219 18 9.8438 26.773 15.074 114.86 68.68 232.2 128.67 321.58 173.25 10.434 5.2031 14.652 17.859 9.4766 28.293-5.2305 10.406-17.887 14.652-28.293 9.4492-90.055-44.914-208.32-105.36-324.42-174.8-8.2969-4.9766-16.82-9.5898-25.312-14.23-20.727-11.277-42.16-22.949-61.34-39.43-1.0977-0.95703-1.5469-1.3516-6.1875-1.9688-0.16797-0.027344-0.30859-0.054688-0.47656-0.085938h-0.027343c-58.387-7.7617-115.34-23.371-170.44-38.445-34.988-9.6172-71.156-19.52-106.93-27.168-11.445-2.4453-20.586-7.4258-28.688-11.812-3.8828-2.1094-7.707-4.2461-11.785-5.8203l-9.0859-3.6836c-18.93-7.6484-36.73-14.992-54.789-12.91-66.711 7.5391-78.188 1.5469-111.68-58.5-3.543-6.3281-7.4258-12.516-11.25-18.73-6.582-10.633-13.414-21.602-19.07-33.555-3.207-6.75-5.625-9.8711-23.176-8.4102-30.629 2.6992-62.523 10.238-103.3 24.496-7.0039 2.4453-10.914 6.1328-14.43 13.5-26.242 55.434-49.727 105.52-71.492 157.33-12.008 28.492-14.344 59.68-16.82 92.727-0.89844 12.094-1.8008 24.16-3.1797 36.168-8.1289 70.875-13.219 143.41-18.141 213.58-5.5117 78.242-11.195 159.19-21.094 238.75-6.8633 55.012-8.832 112.08-10.715 167.29l-0.81641 23.09c-0.73047 20.477-2.6992 42.723-4.6953 65.445-2.6992 30.742-5.3438 62.184-5.1484 90.844 22.754 0.11328 46.547 0.33594 70.734 0.58984 0.19531-4.6406 0.44922-8.4648 0.5625-9.9844l4.3047-66.461c4.1055-64.602 8.3828-131.43 14.398-197.13l3.7695-40.641c9.5625-103.36 19.461-210.23 22.078-315.59 0.78906-31.051 5.6797-61.68 10.434-91.352 4.5547-28.773 9.6758-54.984 14.766-81.195l6.4141-33.102c2.1641-11.445 13.246-18.957 24.609-16.848 11.445 2.1641 18.984 13.191 16.82 24.637l-6.4414 33.383c-5.0352 25.707-10.039 51.414-14.148 77.289-4.8945 30.77-9.5898 60.02-10.293 88.227-2.6445 106.79-12.629 214.4-22.273 318.43l-3.7422 40.586c-5.9609 65.109-10.211 131.65-14.316 195.98l-4.3047 66.629c-0.16797 2.3047-0.30859 4.9766-0.42188 7.6484 22.922 0.33594 45.789 0.64844 68.035 1.0391 1.4609-12.883 1.5742-17.887 1.3516-19.828-6.6953-43.508-1.6328-85.867 3.2891-126.79 1.8555-15.555 3.7109-31.051 4.9219-46.633 4.4141-57.066 9.7031-114.1 14.992-171.14l6.582-72.055c1.0391-11.617 11.277-20.25 22.895-19.125 11.617 1.0391 20.164 11.277 19.125 22.895l-6.6094 72.113c-5.2578 56.84-10.52 113.65-14.934 170.49-1.2383 16.145-3.1484 32.258-5.0898 48.43-4.7812 39.852-9.3086 77.539-3.4609 115.48 0.92969 6.0195 0.47656 15.102-0.75781 26.805 93.883 1.6875 167.62 3.4297 169.51 3.4883 2.3047 0.085938 5.3984 0.054688 8.8047 0.027344 5.4297-75.516 10.602-152.95 10.352-229.55-0.16797-47.898-0.44922-120.26 75.938-154.91 7.1445-3.207 13.133-19.742 17.973-33.02 3.0078-8.3242 5.457-16.367 7.9297-24.441 5.8203-19.012 11.812-38.699 22.836-57.656 27.676-47.672 47.898-61.285 106.31-42.16 45.141 14.68 88.789 30.965 125.55 44.914 45 16.988 93.824 31.949 145.32 26.324l12.43-1.4922c21.094-2.6172 42.918-5.3164 67.078-2.1094 52.145 6.7773 103.92 17.633 154.01 28.098l25.875 5.3711c16.145 3.3477 32.344 6.4141 48.543 9.4766 57.938 10.996 117.84 22.332 174.6 46.379 10.715 4.5273 15.75 16.93 11.195 27.648-4.5273 10.715-16.988 15.805-27.648 11.164-52.621-22.273-110.25-33.215-166.02-43.789-16.453-3.0938-32.879-6.2422-49.246-9.6172l-25.961-5.3984c-49.305-10.293-100.29-20.953-150.86-27.535-18.844-2.5312-37.098-0.25391-56.445 2.1367l-12.91 1.5469c-60.414 6.5547-114.92-9.8984-164.9-28.773-36.309-13.781-79.367-29.812-123.7-44.242-35.324-11.531-36.898-10.914-56.758 23.258-8.5508 14.711-13.613 31.273-18.957 48.77-2.6719 8.7461-5.3438 17.465-8.4375 26.016-7.707 21.234-17.07 46.996-40.387 57.57-47.812 21.656-51.355 61.848-51.16 116.3 0.28125 76.527-4.7539 153.25-10.125 228.04 11.223-0.58984 23.289-1.2383 35.691-1.8828 65.477-3.4609 106.93-5.2891 133.17-5.1172-1.1797-35.352 0.16797-73.688 4.332-112.61 4.668-43.648 3.543-89.41 2.4766-133.65l-0.64844-28.969c-0.22656-11.672 1.6875-22.414 3.5156-32.793 2.5312-14.316 4.6953-26.664 0.50781-37.66-4.1641-10.883 1.2656-23.062 12.148-27.254 10.855-4.2188 23.062 1.2383 27.254 12.148 8.4102 21.91 4.8086 42.188 1.6602 60.102-1.5469 8.7734-3.0078 17.07-2.8672 24.664l0.61719 28.742c1.125 45.59 2.25 92.758-2.6992 139.13-4.1914 39.488-5.3711 78.188-3.7969 113.32 12.461 2.5586 32.992 3.543 57.656 3.6016 2.2773-48.008 4.5547-97.621 6.8633-147.52 2.5859-56.812 5.2031-113.6 7.7891-167.62 0.5625-11.645 10.574-21.094 22.078-20.055 11.645 0.5625 20.617 10.434 20.055 22.078-2.5859 53.973-5.2031 110.76-7.7891 167.51-2.25 49.051-4.5 97.762-6.7227 145.01 37.633-1.0391 79.004-3.207 114.64-5.1172 62.07-3.207 120.71-6.2422 151.71-4.1055 33.16 2.3906 66.883 1.5742 95.539 0.53516 7.6797-0.28125 22.922-0.81641 26.016-3.8516 1.5195-53.551 9.3672-104.43 16.988-153.62 4.6953-30.43 9.5625-61.875 12.742-92.758 1.1797-11.617 11.758-20.109 23.148-18.844 11.586 1.1797 20.023 11.531 18.816 23.117-3.2891 31.949-8.2109 63.93-12.992 94.895-7.3984 47.898-15.047 97.426-16.34 146.36 0 0.14062-0.054688 0.25391-0.054688 0.39453 8.7734 0.25391 18.562 0.47656 28.238 0.64844 11.84 0.25391 24.047 0.50781 36.168 0.81641-2.6172-32.766 3.3477-65.586 9.2812-97.594 3.1211-16.848 6.0742-32.738 7.6211-47.953 1.1797-11.617 11.758-20.082 23.09-18.871 11.586 1.1797 20.023 11.504 18.871 23.09-1.7148 16.988-4.9492 34.508-8.1016 51.441-5.7656 30.965-11.082 62.633-7.707 91.688 16.594 1.0391 31.332 2.4453 42.102 4.5859 35.523 7.0586 282.21 6.3281 358.99 2.7266 55.18-2.6172 110.93-2.3047 164.84-1.9688 38.672 0.16797 77.289 0.42187 115.93-0.39453 50.961-1.0703 101.87 2.6719 151.31 6.3281 40.254 3.1602 81.938 6.2266 122.58 6.5664z"/>
  <path d="m3346.7 2358.7c5.8516 0.16797 12.039 0.47656 18.395 1.125 1.125-58.133-4.2188-203.54-17.492-231.07-54.703-24.723-100.1-56.109-138.66-95.852-49.246-50.852-121.41-93.824-185.79-129.71-0.67578 1.2656-0.95703 2.6172-1.8008 3.8828-13.273 19.688-17.465 44.691-21.91 71.156-2.0234 12.121-4.0781 24.188-6.918 35.945-18.086 74.418-39.18 162.56-58.613 252.28-4.1641 19.152-5.9609 38.898-7.9023 59.766-0.84375 9.168-1.7148 18.336-2.7852 27.508 19.07-0.16797 38.867-0.30859 59.117-0.42188-1.5195-48.375 10.098-94.105 21.348-138.32l1.1797-4.6406c4.0234-15.805 7.3125-31.836 10.602-47.812 6.8359-33.02 13.867-67.191 27.141-100.18 0-0.44922-0.30859-4.0781-0.50781-6.3828-0.25391-3.1797-0.50781-6.5234-0.50781-9.6172 0.027343-11.617 9.4766-21.375 21.094-21.375h0.054687c11.672 0 21.066 9.8984 21.039 21.543 0 1.8555 0.16797 4.1641 0.33594 6.1328 0.61719 7.2266 1.3516 16.227-2.3906 25.539-11.867 29.445-18.227 60.273-24.945 92.898-3.4297 16.621-6.8633 33.242-11.023 49.668l-1.1797 4.668c-10.602 41.625-21.57 84.684-20.082 127.38 0 0.11328-0.054687 0.19531-0.054687 0.30859 128.05-0.42188 261.14 0.44922 308.22 4.9219 4.582 0.41016 9.3086 0.55078 14.035 0.66406z"/>
 </g>
</svg>
