<?xml version="1.0" encoding="UTF-8"?>
<svg width="1200pt" height="1200pt" version="1.1" viewBox="0 0 1200 1200" xmlns="http://www.w3.org/2000/svg">
 <g fill="#443f3c">
  <path d="m266.4 357.6h667.2c27.602 0 50.398-22.801 50.398-50.398 0-27.602-22.801-50.398-50.398-50.398l-667.2-0.003907c-27.602 0-50.398 22.801-50.398 50.398 0 27.602 22.801 50.402 50.398 50.402z"/>
  <path d="m933.6 549.6h-667.2c-27.602 0-50.398 22.801-50.398 50.398 0 27.602 22.801 50.398 50.398 50.398h667.2c27.602 0 50.398-22.801 50.398-50.398 0.003906-27.602-22.797-50.398-50.395-50.398z"/>
  <path d="m933.6 842.4h-667.2c-27.602 0-50.398 22.801-50.398 50.398 0 27.602 22.801 50.398 50.398 50.398h667.2c27.602 0 50.398-22.801 50.398-50.398 0.003906-27.598-22.797-50.398-50.395-50.398z"/>
 </g>
</svg>
