<?xml version="1.0" encoding="UTF-8"?>
<svg width="3600pt" height="3600pt" version="1.1" viewBox="0 0 3600 3600" xmlns="http://www.w3.org/2000/svg">
 <g fill="#a8a29d" fill-rule="evenodd">
  <path d="m1765.2 2071.4c47.773-38.371 84.293-94.312 94.465-137.77-47.309 68.883-409.14 363.53-691 379.25-357.67 51.469-655.09-78.129-733.22-43.457 87.223 103.56 597 93.387 733.38 76.59 274.46-33.902 388.65-133.45 596.22-274.61z"/>
  <path d="m1661.2 2608.3c105.87-139.46 363.53-208.5 526.57-227.77 300.66-35.445 527.96 112.03 586.36 112.19-50.238-152.41-740.62-226.53-1033.9 7.5508-11.094 8.7852-79.363 66.727-84.602 73.352-69.5 78.438-53.781 104.17 5.5469 34.672zm20.805 4.625c-131.45 114.96-302.04 407.14-301.43 468.47 41.301-10.789 57.789-21.883 78.746-58.867 22.344-36.523 39.297-70.734 59.176-108.34 169.67-320.54 193.4-269.99 405.91-373.86-45.152-56.555-187.08 41.609-242.56 72.738z"/>
  <path d="m1399.9 2783c-188.62 316.84-410.07 248.26-471.4 324.85 185.08 42.07 396.04-134.38 496.37-297.27 231.31-375.24 285.25-303.27 418.08-464-152.25-4.1602-368.61 311.44-442.89 436.42z"/>
  <path d="m1987.8 803.41c-736.77 385.26-1055.3-58.559-1456.9 233.31 49.16 3.543 31.898 7.5508 109.26-16.336 627.82-193.55 669.58 191.7 1362.7-178.14 460-245.33 409.45-285.71 1015.4-314.68 92.309-4.4688 318.38 20.34 383.41-8.6289-54.551-40.375-52.551-32.055-94.465-31.59-34.52-0.30859-67.496-0.15234-101.55-0.15234-69.656 0-119.28-4.4688-189.7 3.543-710.41 80.441-393.12-19.262-1028.3 312.83z"/>
  <path d="m1641.4 1262.5c-161.65 6.7812-616.88-68.73-721.97 13.254 54.246 39.605 2.4648 18.801 178.61-6.0117 146.09-20.648 401.29 32.977 568.48 23.422 772.98-44.074 780.53-666.65 1769.9-674.97 73.043-0.61719 128.83 16.18 163.66-31.59-146.4-27.43-578.81 22.961-714.73 81.828-596.22 257.97-695.77 571.11-1243.9 594.07z"/>
  <path d="m892.57 1955.8c8.168 70.578 266.75 52.703 328.24 50.238 112.34-4.625 222.37-4.0078 331.63-28.508 395.89-88.457 839.25-846.95 1618.7-768.2 53.629 5.3945 124.52 33.133 168.59 22.961-71.504-116.2-545.21-42.531-665.11 7.2422-232.54 96.312-356.44 158.27-554 323.31-127.14 106.02-413.15 329.01-548.61 368.77-243.33 71.504-658.95 22.035-679.29 24.039z"/>
  <path d="m2271.6 1188.8c-365.53 313.14-517.32 593.45-1066.9 561.4l-669.89-88.762c18.801 45 5.3945 33.75 77.359 48.234l606.24 73.816c556.46 32.207 617.8-192.17 955.29-462.77 47.309-38.062 69.961-73.66 108.03-109.11l253.04-188.31c183.54-153.33 193.55-85.527 257.97-147.32-94.926-35.906-210.2 53.781-281.7 119.58-77.668 71.504-160.73 125.9-239.32 193.25z"/>
  <path d="m1554 2446.2c-192.63 196.17-418.23 291.25-452.45 329.62 96.621 42.688 393.73-217.29 465.7-296.5 135.46-148.86 248.11-329.01 416.39-443.2 130.06-108.34 371.39-255.2 762.66-309.29 131.45-30.668 221.6 17.414 280.62-30.203-64.105-55.477-461.23 28.664-563.25 53.473-492.36 120.2-604.39 385.1-909.67 696.08z"/>
  <path d="m1559.8 844.41c-55.785-22.035-291.56-15.719-378.48-24.348-135.77-13.562-268.91-31.59-400.05-44.383-117.12-11.402-645.23-125.75-781.3-42.223 42.996 45.152 208.66 11.402 361.83 12.176 147.32 0.76953 270.76 48.543 407.76 63.027 143.78 15.258 699.16 96.16 790.24 35.75z"/>
 </g>
</svg>
