<?xml version="1.0" encoding="UTF-8"?>
<svg width="1200pt" height="1200pt" version="1.1" viewBox="0 0 1200 1200" xmlns="http://www.w3.org/2000/svg">
 <g fill="#a8a29d">
  <path d="m189.85 1120.9c-29.559-17.938-57.727-38.148-84.379-60.254-6.6953-5.5586-13.262-11.242-19.832-17.051-8.4648-7.5781-16.672-13.012-28.422-7.832-11.496 5.0508-22.23 20.211-15.41 32.715 2.9062 5.1797 7.9609 7.707 13.77 7.3281 0.75781 0 1.5156-0.37891 2.2734-0.50391 1.2617 1.1367 2.6523 2.3984 4.043 3.5352 4.6719 4.043 9.3477 8.0859 14.02 12 9.4727 7.832 19.199 15.535 29.051 22.988 20.211 15.156 41.305 29.18 63.031 42.316 3.4102 2.1484 9.8516 0.37891 13.137-1.0117 4.6719-2.1484 9.6016-6.4414 12.125-10.863 4.8047-8.4609 5.5625-17.934-3.4062-23.367z"/>
  <path d="m409.52 1083.4c-100.42-57.602-194.15-125.68-279.79-203.62-10.988-9.9805-28.926-10.105-41.18-2.2734-10.738 6.8203-17.051 22.105-6.0625 32.086 88.801 80.715 186.19 151.71 290.27 211.33 12.633 7.1992 31.328 4.4219 41.43-5.9375 9.6016-10.109 7.4531-24.633-4.6719-31.582z"/>
  <path d="m715.07 1107c-202.23-128.84-395.88-270.82-579.54-424.93-7.1992-6.0625-18.441-8.3359-26.906-3.5352-7.3281 4.168-9.6016 13.77-2.5273 19.578 185.94 156 381.98 299.88 586.61 430.36 16.426 10.48 43.457-7.9609 22.363-21.477z"/>
  <path d="m963.91 1109.7c-221.68-147.91-431.62-313.26-627.03-494.53-54.82-50.777-108.38-102.95-160.93-156.12-8.9688-9.0938-25.641-10.105-37.137-5.6836-9.2227 3.6641-18.57 13.77-9.4727 22.988 188.34 190.99 391.83 366.82 608.09 525.6 61.77 45.348 124.67 89.305 188.46 131.88 10.359 6.9492 28.043 6.5703 38.273-0.37891 9.9766-6.8242 9.7227-17.055-0.25781-23.75z"/>
  <path d="m1033.4 922.74c-222.06-160.42-434.4-334.11-635.5-520.3-57.223-53.051-113.56-106.99-169.01-161.94-12.633-12.504-42.57 11.367-30.441 23.367 196.17 194.53 404.09 377.18 622.36 546.57 61.641 47.875 124.17 94.609 187.33 140.34 13.387 9.6016 40.797-16.797 25.262-28.039z"/>
  <path d="m1062.6 698.78c-31.328-44.336-73.262-77.559-115.07-111.66-45.98-37.641-91.453-75.914-136.29-114.82-89.684-77.938-176.97-158.65-261.85-241.89-48-47.117-95.242-95.242-141.73-144-14.02-14.777-58.988 0.75781-40.547 20.086 161.81 170.02 333.6 330.44 514.48 479.88 46.738 38.652 99.156 75.031 134.65 125.05 6.8203 9.7266 19.832 11.875 30.949 8.7148 7.5742-2.0195 22.352-11.492 15.406-21.348z"/>
  <path d="m1066.9 479.12c-146.65-122.02-280.67-258.7-399.91-407.5-12.379-15.41-56.336-2.0195-40.043 18.441 119.24 148.8 253.39 285.47 399.91 407.5 8.9688 7.4531 22.23 8.7148 32.715 3.7891 7.707-3.6641 16.297-14.652 7.3281-22.23z"/>
  <path d="m1075.6 318.95-219.79-235.71c-12.504-13.391-50.527-4.168-32.969 14.652 80.844 86.652 161.68 173.3 242.53 259.96 8.4648 9.0938 33.473 11.621 37.262-3.5352 1.5156-6.0625 3.0312-12.125 4.5469-18.191 3.2852-13.641-18.062-21.473-31.578-17.176z"/>
  <path d="m1188 213.35c-63.535-51.41-119.62-111.54-166.61-178.36-7.3281-10.484-25.641-3.4102-32.715 3.4102-8.8438 8.3359-14.906 21.094-7.1992 32.086 46.988 66.949 103.07 127.07 166.61 178.36 9.9805 8.0859 23.621 5.1797 32.715-3.4102 6.5664-6.1914 17.559-23.625 7.1992-32.086z"/>
 </g>
</svg>
