<?xml version="1.0" encoding="UTF-8"?>
<svg width="512pt" height="512pt" version="1.1" viewBox="0 0 512 512" xmlns="http://www.w3.org/2000/svg">
 <g fill="#443f3c">
  <path d="m50.238 208.64c-1.2266-6.5781-1.9766-13.234-2.2383-19.922 0-2.1211-0.84375-4.1562-2.3438-5.6562s-3.5352-2.3438-5.6562-2.3438c-4.418 0-8 3.582-8 8 0.25391 7.4648 1.0547 14.898 2.3984 22.242 0.70703 3.8477 4.0898 6.6211 8 6.5586h1.4414c4.1406-0.80859 6.9414-4.6953 6.3984-8.8789z"/>
  <path d="m96 115.12c-15.539 19.594-23.996 43.871-24 68.879 0.050781 29.32 11.594 57.449 32.152 78.352 20.562 20.902 48.496 32.91 77.812 33.441 29.312 0.53516 57.668-10.449 78.973-30.59 21.309-20.141 33.867-47.832 34.98-77.133 1.1172-29.297-9.3008-57.863-29.016-79.566s-47.152-34.809-76.422-36.504c-2.1211-0.11719-4.2031 0.61328-5.7852 2.0312-1.582 1.418-2.5391 3.4062-2.6562 5.5273-0.24219 4.418 3.1445 8.1992 7.5625 8.4414 25.082 1.4648 48.594 12.707 65.484 31.316 16.887 18.605 25.805 43.09 24.844 68.199-0.96484 25.109-11.734 48.84-29.996 66.098-18.266 17.258-42.57 26.668-67.691 26.207-25.125-0.46094-49.066-10.754-66.688-28.668-17.617-17.914-27.512-42.023-27.555-67.152-0.09375-21.398 7.0391-42.199 20.238-59.039 1.7852-3.3867 0.91797-7.5664-2.0625-9.9648-2.9844-2.3984-7.25-2.3477-10.176 0.125z"/>
  <path d="m124.8 229.84c2.7148 3.4922 7.75 4.1172 11.238 1.3984 3.4922-2.7148 4.1172-7.7461 1.4023-11.238-7.9688-10.309-12.289-22.973-12.289-36s4.3203-25.691 12.289-36c2.7148-3.4922 2.0898-8.5234-1.4023-11.238-3.4883-2.7188-8.5234-2.0938-11.238 1.3984-10.211 13.129-15.754 29.289-15.754 45.918 0 16.633 5.543 32.793 15.754 45.922z"/>
  <path d="m126 105.68c1.6016-0.10547 3.1367-0.69141 4.3984-1.6797 10.039-6.7891 21.281-11.594 33.121-14.16 4.418-0.92578 7.25-5.2617 6.3203-9.6797-0.92578-4.418-5.2617-7.2461-9.6797-6.3203-13.84 2.9805-26.98 8.5742-38.719 16.48-2.9258 1.9648-4.2188 5.6133-3.1875 8.9805 1.0273 3.3711 4.1445 5.668 7.668 5.6602z"/>
  <path d="m390.08 338.72c-3.1719-2.7188-7.9023-2.5352-10.859 0.42188-2.9531 2.9531-3.1367 7.6836-0.41797 10.859l80 80c4.0273 3.7617 6.3555 8.9961 6.4492 14.504 0.09375 5.5078-2.0547 10.82-5.9492 14.715-3.8984 3.8984-9.207 6.043-14.719 5.9492-5.5078-0.09375-10.742-2.4219-14.504-6.4492l-154.08-154c10.809-8.2539 20.465-17.91 28.719-28.719l26.719 26.719h0.003906c3.1719 2.7188 7.9023 2.5352 10.859-0.41797 2.9531-2.957 3.1367-7.6875 0.41797-10.859l-28.879-28.879v-0.003906c23.609-38.668 28.738-85.852 13.988-128.69-14.75-42.836-47.84-76.863-90.25-92.801s-89.719-12.125-129.03 10.398c-39.312 22.523-66.527 61.406-74.227 106.05-0.77344 4.418 2.1797 8.6289 6.6016 9.4023 4.418 0.76953 8.625-2.1836 9.3984-6.6016 7.5469-43.445 35.691-80.535 75.5-99.5 39.809-18.969 86.344-17.453 124.84 4.0586 38.496 21.512 64.168 60.352 68.879 104.2 4.7109 43.844-12.133 87.25-45.18 116.45-33.047 29.195-78.195 40.555-121.12 30.477-42.93-10.078-78.309-40.344-94.91-81.195-1.6562-4.1094-6.332-6.0977-10.441-4.4414s-6.0977 6.332-4.4375 10.441c16.703 41.285 50.672 73.172 92.934 87.227 42.262 14.059 88.562 8.8711 126.66-14.188l155.36 155.84c6.8906 6.9102 16.246 10.797 26 10.801 9.5742 0.011719 18.758-3.7891 25.523-10.559 6.8438-6.8438 10.688-16.125 10.688-25.801 0-9.6797-3.8438-18.961-10.688-25.801z"/>
  <path d="m350 310c-3.1016 3.1211-3.1016 8.1602 0 11.281l11.602 11.602v-0.003906c3.1719 2.7188 7.9023 2.5352 10.859-0.41797 2.9531-2.957 3.1367-7.6875 0.41797-10.859l-11.602-11.602h0.003906c-3.1211-3.1016-8.1602-3.1016-11.281 0z"/>
 </g>
</svg>
