<?xml version="1.0" encoding="UTF-8"?>
<svg width="1200pt" height="1200pt" version="1.1" viewBox="0 0 1200 1200" xmlns="http://www.w3.org/2000/svg">
 <g fill="#443f3c">
  <path d="m1060.4 488.53c-27.277-6.0117-55.621 3.0469-74.41 23.652l-47.93 52.559h-24.887v-240.72h147.24v164.51z"/>
  <path d="m103.74 987.74h924.65v107.73h-924.65z"/>
  <path d="m1089.3 606.45-206.98 226.81c-3.1211 3.4805-6.5625 6.5039-10.355 9.2266-30.371 21.984-72.84 15.133-94.824-15.168l-67.129-92.918c-8.0156-11.062-23.578-13.598-34.715-5.543-6.4219 4.6328-10.223 12.156-10.223 20.125v211.23h-331.85l393.14-414.39 92.953 128.51c7.9453 11.125 23.578 13.621 34.691 5.6172 1.3789-0.98437 2.6289-2.1719 3.7695-3.4062l140.06-153.43c23.039-25.32 62.184-27.145 87.395-4.0547 25.344 23.039 27.023 62.18 4.0547 87.395z"/>
  <path d="m266.06 960.21 41.34-87.227 343.75-362.34h-266.96c-25.633 0-49.008 14.82-59.965 37.992l-195.18 411.57z"/>
  <path d="m387.74 251.53 279.36-21.59c1.1758-0.10938 2.293 0 3.4688 0.25391l62.855 11.578c5.9297 1.1992 10.402 6.1445 10.895 12.121 0.58984 7.4141-4.9688 13.859-12.277 14.363l-62.363 4.8359c4.9219 25.691 2.9531 52.309-5.832 76.98-27.301 76.262-111.17 115.95-187.38 88.727-76.207-27.176-115.93-111.06-88.727-187.27z"/>
  <path d="m390.13 208.41 281.26-21.66 33.539-43.824c8.2578-10.738 6.1914-26.125-4.6211-34.355-4.7773-3.707-10.777-5.4492-16.801-5.0391l-285.88 22.105c-13.523 1.0664-23.664 12.875-22.586 26.352 0.097656 1.5859 0.40625 3.1328 0.81641 4.6328z"/>
 </g>
</svg>
