<?xml version="1.0" encoding="UTF-8"?>
<svg width="512pt" height="512pt" version="1.1" viewBox="0 0 512 512" xmlns="http://www.w3.org/2000/svg">
 <g fill="#443f3c">
  <path d="m419.84 218.62-36.863-13.312-25.602-10.238c-5.1211-2.0469-11.266 0.51172-13.312 5.6328-2.0469 5.1211 0.51172 11.266 5.6328 13.312l25.602 10.238h0.51172l37.375 13.312c16.895 6.1445 27.648 16.895 27.648 28.16v166.91l-31.23 12.801v-138.24c0-3.5859-2.0469-7.168-5.6328-9.2148-3.0703-1.5352-7.168-1.5352-10.754 0.51172l-138.24 92.16c-4.6094 3.0703-6.1445 9.7266-3.0703 14.336 3.0703 4.6094 9.2148 6.1445 14.336 3.0703l122.88-81.918v144.89c0 5.6328 4.6094 10.238 10.238 10.238 5.6328 0 10.238-4.6094 10.238-10.238v-3.0703l44.543-17.922c4.0977-1.5352 6.6562-5.1211 6.6562-9.7266l0.003906-174.08c0-20.477-15.359-37.887-40.961-47.613z"/>
  <path d="m235.52 92.16h11.266c-0.51172 3.5859-1.0234 6.6562-1.0234 10.238 0 39.426 32.258 71.68 71.68 71.68 39.426 0 71.68-32.258 71.68-71.68 0-5.1211-0.51172-10.238-1.5352-14.848 1.0234-1.5352 1.5352-3.5859 1.5352-5.6328v-40.957c0-5.6328-4.6094-10.238-10.238-10.238l-133.12-0.003906c-3.0703 0-6.1445 1.5352-8.1914 4.0977-2.0469 2.5586-2.5586 5.6328-2.0469 8.7031l7.168 28.16h-7.1719c-5.6328 0-10.238 4.6094-10.238 10.238 0 5.6328 4.6055 10.242 10.238 10.242zm81.922 61.441c-28.16 0-51.199-23.039-51.199-51.199 0-3.5859 0.51172-7.168 1.0234-10.238h100.35c0.51172 3.0703 1.0234 6.6562 1.0234 10.238 0 28.156-23.039 51.199-51.199 51.199zm51.199-102.4v20.48h-104.45l-5.1211-20.48z"/>
  <path d="m384.51 264.19c4.6094-3.0703 5.6328-9.7266 2.5586-14.336-3.0703-4.6094-9.7266-5.6328-14.336-2.5586l-128 88.062c0.51172-2.5586 0.51172-5.1211 0.51172-8.1914v-20.48c0-5.6328-4.6094-10.238-10.238-10.238-5.6328 0-10.238 4.6094-10.238 10.238v20.48c0 22.527-18.434 40.961-40.961 40.961h-81.41c-8.7031 0-15.359-6.6562-15.359-15.359s6.6562-15.359 15.359-15.359h56.32c16.383 0 31.23-11.266 35.84-27.137 3.5859-13.824 8.7031-31.23 11.266-41.984 0.51172-2.5586 1.0234-4.6094 1.5352-6.6562 3.0703-13.824 4.6094-19.457 15.871-23.551 9.7266-3.5859 29.184-12.801 31.23-13.824l25.602-10.238c5.1211-2.0469 7.6797-8.1914 5.6328-13.312-2.0469-5.1211-8.1914-7.6797-13.312-5.6328l-25.602 10.238h-0.51172-0.51172s-20.48 9.7266-29.695 13.312c-22.527 8.1914-26.113 24.574-29.184 38.398-0.51172 2.0469-1.0234 4.0977-1.5352 6.1445-2.5586 10.754-7.6797 28.16-11.266 41.473-1.0234 7.6797-7.6797 12.801-15.359 12.801h-56.32c-19.969 0-35.84 15.871-35.84 35.84s15.871 35.84 35.84 35.84h81.922c15.871 0 30.207-6.1445 40.961-15.871v97.789c0 5.6328 4.6094 10.238 10.238 10.238 5.6328 0 10.238-4.6094 10.238-10.238l0.003907-110.59z"/>
  <path d="m153.6 276.48v-112.64c0-5.6328-4.6094-10.238-10.238-10.238h-81.922c-5.6328 0-10.238 4.6094-10.238 10.238v112.64c0 5.6328 4.6094 10.238 10.238 10.238h81.922c5.6289 0 10.238-4.6055 10.238-10.238zm-20.48-10.242h-61.441v-92.16h61.441z"/>
 </g>
</svg>
