<?xml version="1.0" encoding="UTF-8"?>
<svg width="1200pt" height="1200pt" version="1.1" viewBox="0 0 1200 1200" xmlns="http://www.w3.org/2000/svg">
 <g fill="#443f3c">
  <path d="m794.4 334.56-52.078 10.32v235.44l-260.76-44.52c-16.262-18.059-35.754-32.91-57.48-43.801 41.938-28.715 67.031-76.254 67.082-127.08 0.023438-23.211-5.2734-46.117-15.48-66.961h65.52l-58.441-78 36.602-65.039c5.7461-7.6875 8.2773-17.309 7.0547-26.828-1.2188-9.5195-6.0938-18.188-13.59-24.18-7.4961-5.9883-17.031-8.8281-26.586-7.9141l-289.32 48c-12.043 1.332-22.664 8.4844-28.434 19.133-5.7656 10.652-5.9492 23.457-0.48828 34.266 8.6836 17.348 10.855 37.23 6.1211 56.043-2.2773 8.9688-0.93359 18.477 3.7344 26.469 4.668 7.9883 12.293 13.828 21.223 16.25-16.613 33.348-20.539 71.602-11.047 107.63 9.4922 36.027 31.758 67.379 62.648 88.211-32.141 17.078-59.043 42.566-77.828 73.738-18.789 31.176-28.762 66.863-28.852 103.26v435h386.16v-380.52l208.08 36.84c18.48 3.1484 37.484 0.375 54.293-7.9219 16.812-8.2969 30.57-21.695 39.309-38.277l218.64-43.68v-402.6l-256.08-63.84zm-577.56-145.08 251.16-41.762-42.602 75.719 19.801 26.164h-221.4c2.4531-20.309 0.066407-40.91-6.9609-60.121zm14.16 175.08c-0.035156-24.43 8.4531-48.109 24-66.957h164.28c15.555 18.84 24.043 42.523 24 66.957 0 37.898-20.219 72.922-53.043 91.871-32.82 18.949-73.258 18.949-106.08 0-32.82-18.949-53.039-53.973-53.039-91.871zm-39 304.44c-0.33203-38.051 13.875-74.793 39.727-102.72 25.852-27.926 61.391-44.922 99.352-47.52h6c37.094-0.046875 72.773 14.227 99.602 39.84l-244.68 287.16zm601.68 10.441c-1.8789 10.691-7.8945 20.215-16.742 26.5-8.8516 6.2891-19.82 8.8398-30.539 7.0977l-264-46.922v285.84h-54v48h54v56.039h-290.4v-56.039h171.12v-48h-171.12v-32.16l286.08-336 282 48c10.77 1.875 20.352 7.9453 26.648 16.875 6.3008 8.9297 8.8008 19.992 6.9531 30.766zm208.8-48-160.8 32.16c-3.1953-31.391-22.719-58.762-51.359-72v-207.6l212.16-42.359zm-160.08-366.12 132 33.121-132 26.52z"/>
  <path d="m945.24 475.2c0 32.344-19.66 58.562-43.918 58.562-24.258 0-43.922-26.219-43.922-58.562 0-32.34 19.664-58.559 43.922-58.559 24.258 0 43.918 26.219 43.918 58.559"/>
 </g>
</svg>
