<!DOCTYPE svg PUBLIC "-//W3C//DTD SVG 1.1//EN" "http://www.w3.org/Graphics/SVG/1.1/DTD/svg11.dtd">
<!-- Uploaded to: SVG Repo, www.svgrepo.com, Transformed by: SVG Repo Mixer Tools -->
<svg width="800px" height="800px" viewBox="0 0 64 64" xmlns="http://www.w3.org/2000/svg" xmlns:xlink="http://www.w3.org/1999/xlink" aria-hidden="true" role="img" class="iconify iconify--emojione" preserveAspectRatio="xMidYMid meet">
<g id="SVGRepo_bgCarrier" stroke-width="0"/>
<g id="SVGRepo_iconCarrier"> <circle cx="32" cy="32" r="30" fill="#44403c"> </circle> <g fill="#ffffff"> <path d="M34.3 23c0 4.8 9.6 4.8 9.6 0v-4.8h-9.6l-3.8 2.9h3.8V23"> </path> <path d="M43.8 17.3v-3.8H33.3l1 3.8z"> </path> <path d="M24.6 25.6l-10.3-2.2v9.9l10.3 2.1z"> </path> <path d="M24.6 19.1l-10.3 2.1l10.3 2.2z"> </path> <path d="M30.9 43.1l14.4-14.4H30.9l-6.7 11.9l-1.9-3.4h-5.7l4.8 8.6h5.7l3.8-6.9z"> </path> <path d="M32.6 43.8h15.1V28.7z"> </path> <path d="M30.9 45.5h16.8v5H30.9z"> </path> </g> </g>
</svg>