<svg fill="#44403c" height="200px" width="200px" version="1.1" id="Capa_1" xmlns="http://www.w3.org/2000/svg" xmlns:xlink="http://www.w3.org/1999/xlink" viewBox="0 0 448 448" xml:space="preserve" stroke="#44403c"><g id="SVGRepo_bgCarrier" stroke-width="0"></g><g id="SVGRepo_iconCarrier"> <g> <path d="M368,0H80C57.944,0,40,17.944,40,40v368c0,22.056,17.944,40,40,40h288c22.056,0,40-17.944,40-40V40 C408,17.944,390.056,0,368,0z M392,408c0,13.234-10.767,24-24,24H80c-13.233,0-24-10.766-24-24V40c0-13.234,10.767-24,24-24h288 c13.233,0,24,10.766,24,24V408z"></path> <path d="M224,64c-61.757,0-112,50.243-112,112s50.243,112,112,112s112-50.243,112-112S285.757,64,224,64z M311.259,216H283.94 c2.127-10.018,3.469-20.756,3.903-32h31.821C318.724,195.335,315.808,206.117,311.259,216z M136.741,136h27.319 c-2.127,10.018-3.469,20.756-3.903,32h-31.821C129.276,156.665,132.192,145.883,136.741,136z M192,120h-6.693 c7.291-19.879,18.259-34.219,30.693-38.595V168h-39.823c0.491-11.28,2.007-22.074,4.357-32H192c4.418,0,8-3.582,8-8 S196.418,120,192,120z M262.693,120H232V81.405C244.434,85.781,255.402,100.121,262.693,120z M128.336,184h31.821 c0.434,11.244,1.776,21.982,3.903,32h-27.319C132.192,206.117,129.276,195.335,128.336,184z M176.177,184H216v32h-35.466 C178.185,206.074,176.668,195.28,176.177,184z M216,232v38.595c-12.434-4.377-23.402-18.716-30.693-38.595H216z M232,270.595V232 h30.693C255.402,251.879,244.434,266.219,232,270.595z M232,216v-80h35.466c2.349,9.926,3.865,20.72,4.356,32H256 c-4.418,0-8,3.582-8,8s3.582,8,8,8h15.823c-0.491,11.28-2.007,22.074-4.356,32H232z M287.843,168 c-0.434-11.244-1.776-21.982-3.903-32h27.319c4.548,9.883,7.465,20.665,8.405,32H287.843z M301.927,120h-22.235 c-3.838-11.862-8.88-22.308-14.854-30.868C279.666,96.132,292.425,106.816,301.927,120z M183.163,89.132 c-5.975,8.559-11.016,19.005-14.855,30.868h-22.235C155.575,106.816,168.334,96.132,183.163,89.132z M146.073,232h22.235 c3.838,11.862,8.88,22.308,14.855,30.868C168.334,255.868,155.575,245.184,146.073,232z M264.837,262.868 c5.975-8.559,11.016-19.005,14.854-30.868h22.235C292.425,245.184,279.666,255.868,264.837,262.868z"></path> <path d="M326,328H120c-4.418,0-8,3.582-8,8s3.582,8,8,8h206c4.418,0,8-3.582,8-8S330.418,328,326,328z"></path> <path d="M193,360h-41c-4.418,0-8,3.582-8,8s3.582,8,8,8h41c4.418,0,8-3.582,8-8S197.418,360,193,360z"></path> <path d="M296,360h-72c-4.418,0-8,3.582-8,8s3.582,8,8,8h72c4.418,0,8-3.582,8-8S300.418,360,296,360z"></path> </g> </g></svg>