<?xml version="1.0" encoding="UTF-8"?>
<svg width="3600pt" height="3600pt" version="1.1" viewBox="0 0 3600 3600" xmlns="http://www.w3.org/2000/svg">
 <path d="m1497.8 2571c9.3164 26.844 21.293 52.688 35.746 77.148 26.641 43.957 56.734 69.48 86.832 69.48 2.6016 0.003907 5.1992-0.16406 7.7773-0.50391h0.61328c46.078-6.8398 91.008-64.223 126.39-151.41 4.8008-11.664 9.3125-23.785 13.535-36.359-40.391 3.1328-82.801 7.9219-126.9 14.398-50.184 7.4531-98.496 16.703-144 27.254zm-28.586 142.92c-4.2461-6.1562-8.4258-12.602-12.457-19.262h0.003906c-18.863-31.891-34.32-65.676-46.117-100.8-38.676 11.215-76.746 24.434-114.05 39.602 50.125 40.48 109.38 68.102 172.62 80.461zm395.32-189.04c-7.7773 26.316-16.414 51.266-25.883 74.52-7.6797 18.91-15.91 36.77-24.695 53.566 58.047-32.711 110.34-74.715 154.8-124.34-30.852-2.8086-64.801-4.1055-101.41-3.7812zm-4.5703-653.72v-0.003907c38.676-11.211 76.746-24.43 114.05-39.598-50.176-40.504-109.5-68.117-172.8-80.426 4.2461 6.1562 8.4258 12.562 12.457 19.223 18.879 31.887 34.336 65.672 46.117 100.8zm-358.05 64.801c40.391-3.1328 82.801-7.9219 126.86-14.398 50.184-7.5234 98.531-16.738 144-27.324v-0.003906c-9.3008-26.832-21.266-52.668-35.715-77.113-26.641-43.957-56.734-69.48-86.832-69.48-2.6094-0.003906-5.2188 0.16797-7.8086 0.50391h-0.61328c-46.078 6.875-91.008 64.223-126.39 151.41-4.8008 11.664-9.3008 23.785-13.5 36.359zm-200.16 0.61328c30.852 2.8086 64.801 4.1055 101.38 3.7812h2.9531c7.7773-26.316 16.414-51.266 25.848-74.52 7.7031-18.938 15.949-36.805 24.73-53.605v-0.003906c-58.055 32.715-110.35 74.734-154.8 124.38zm60.984 382.36-209.91 31.32c0.81641 10.586 2.0156 20.977 3.6016 31.176l-0.003906-0.003906c9.3945 66.102 34.871 128.89 74.195 182.84 50.562-22.555 102.65-41.527 155.88-56.773-4.8008-21.312-8.8906-43.453-12.277-66.422v0.003906c-5.9727-40.484-9.7812-81.258-11.41-122.15zm454.89-68.117-365.18 54.504c1.25 40.973 4.8555 81.84 10.801 122.4 2.9297 19.559 6.3477 38.387 10.262 56.484 49.391-11.629 101.52-21.602 155.23-29.734 57.277-8.5312 112.79-14.184 165.2-17.172v-0.003906c13.18-61.422 21.094-123.86 23.652-186.62zm298.8-44.605-208.12 31.066v0.003906c-1.9336 66.391-9.2656 132.51-21.926 197.71 48.566-0.070312 97.062 3.5391 145.08 10.801 46.273-72.305 75.328-154.27 84.922-239.58zm-208.44-59.902 209.88-31.355c-0.81641-10.586-2.0156-20.977-3.6016-31.176h0.003906c-9.3789-66.105-34.859-128.89-74.195-182.84-50.555 22.555-102.63 41.527-155.85 56.773 4.8008 21.359 8.8789 43.512 12.238 66.457l0.003907-0.003907c6.0117 40.484 9.8555 81.258 11.52 122.15zm-455 67.898 365-54.508c-1.2305-40.973-4.8398-81.84-10.801-122.4-2.9297-19.586-6.3477-38.426-10.262-56.52-49.391 11.629-101.52 21.602-155.27 29.734-57.238 8.5312-112.75 14.398-165.2 17.172h0.003906c-13.152 61.426-21.051 123.86-23.617 186.62zm-298.8 44.605 208.15-31.066v-0.003907c1.8867-66.391 9.207-132.52 21.887-197.71-48.562 0.074219-97.062-3.5352-145.08-10.797-46.273 72.293-75.34 154.25-84.961 239.54zm1414.8-2036.3v-0.003907c3.8086-0.46094 7.6445-0.69141 11.484-0.68359 19.344-0.27344 38.105 6.6289 52.668 19.367 14.457 13.168 23.59 31.176 25.668 50.617 0.47656 3.9297 0.70312 7.8867 0.68359 11.844v2676.5c-0.45312 28.352-11.156 55.578-30.133 76.645-18.258 21.352-43.707 35.27-71.531 39.133l-1855.8 228.02c-3.7969 0.46484-7.6211 0.69141-11.449 0.68359-19.34 0.27344-38.098-6.6133-52.668-19.332-14.539-13.129-23.75-31.141-25.883-50.613-0.39453-3.3828-0.61328-7.1992-0.68359-10.801v-2677.6c0.45703-28.301 11.137-55.484 30.059-76.535 18.172-21.359 43.523-35.34 71.281-39.312l1856.1-227.95zm180.68 282.82h121.5v-0.003906c31.18 0.14453 61.039 12.59 83.086 34.637 22.043 22.047 34.492 51.906 34.633 83.086v2637.4c0.023437 31.164-12.375 61.051-34.449 83.051h-0.17969c-21.992 22.133-51.891 34.594-83.09 34.633h-1870.4l1568.1-192.64c49.707-6.75 95.23-31.449 127.98-69.445 33.402-37.418 52.125-85.672 52.703-135.83v-2474.9zm-1630.8 602.21 1046.6-156.2 0.003906-0.003906c15.922-2.3281 29.391-12.973 35.336-27.926 5.9453-14.953 3.4648-31.941-6.5156-44.566-9.9766-12.629-25.93-18.973-41.855-16.645l-1046.9 156.21c-15.922 2.3281-29.395 12.973-35.34 27.926-5.9453 14.953-3.4609 31.941 6.5156 44.566 9.9805 12.625 25.934 18.969 41.855 16.641zm148.32 263.23 749.3-111.85c12.035-1.4766 22.965-7.7461 30.32-17.387 7.3516-9.6367 10.508-21.836 8.7539-33.832-1.7539-11.996-8.2734-22.781-18.078-29.91-9.8086-7.1289-22.074-10.004-34.027-7.9727l-749.34 111.75c-12.035 1.4766-22.965 7.7422-30.32 17.383-7.3516 9.6406-10.508 21.836-8.7539 33.832 1.7539 12 8.2734 22.781 18.078 29.91 9.8086 7.1289 22.074 10.004 34.027 7.9727zm361.62 288h2.0859c27.547-4.0859 55.352-6.1523 83.199-6.1914 118.83-1.3828 234.21 39.945 325.15 116.46 89.59 77.336 147.95 184.66 164.16 301.9 4.0781 27.41 6.1094 55.086 6.0859 82.801-2.3555 157.59-61.281 309.09-166.03 426.85-102.99 120.33-245.3 200.25-401.65 225.57h-2.0508c-27.559 4.0859-55.375 6.1523-83.234 6.1914-118.84 1.3945-234.23-39.949-325.15-116.5-89.598-77.316-147.96-184.63-164.16-301.86-4.0547-27.414-6.0898-55.086-6.082-82.801 2.3516-157.6 61.293-309.1 166.07-426.85 102.99-120.27 245.27-200.16 401.58-225.47z" fill="#443f3c" fill-rule="evenodd"/>
</svg>
