<?xml version="1.0" encoding="UTF-8"?>
<svg width="512pt" height="512pt" version="1.1" viewBox="0 0 512 512" xmlns="http://www.w3.org/2000/svg">
 <path d="m346.88 195.41-60.801 60.586 60.801 60.586c4.0391 4.0078 6.3125 9.4609 6.3125 15.148s-2.2734 11.141-6.3125 15.145c-4.0234 3.9961-9.4766 6.2188-15.145 6.1875-5.6719 0.03125-11.121-2.1914-15.148-6.1875l-60.586-60.801-60.586 60.801c-4.0273 3.9961-9.4766 6.2188-15.148 6.1875-5.668 0.03125-11.121-2.1914-15.145-6.1875-4.0391-4.0039-6.3125-9.457-6.3125-15.145s2.2734-11.141 6.3125-15.148l60.801-60.586-60.801-60.586c-5.4141-5.4141-7.5273-13.301-5.5469-20.691s7.7578-13.168 15.148-15.148 15.277 0.13281 20.691 5.5469l60.586 60.801 60.586-60.801c5.4141-5.4141 13.301-7.5273 20.691-5.5469s13.168 7.7578 15.148 15.148-0.13281 15.277-5.5469 20.691zm59.945 211.41h0.003906c-40.238 38.859-94.125 60.363-150.06 59.875-55.938-0.48438-109.45-22.922-149-62.477-39.555-39.551-61.992-93.059-62.477-149-0.48828-55.934 21.016-109.82 59.875-150.06 40.238-38.859 94.125-60.363 150.06-59.875 55.938 0.48438 109.45 22.922 149 62.477 39.555 39.551 61.992 93.059 62.477 149 0.48828 55.934-21.016 109.82-59.875 150.06zm-30.078-271.57c-32.016-31.98-75.422-49.938-120.68-49.922-45.254 0.019531-88.645 18.008-120.64 50.012-31.992 32.004-49.965 75.402-49.965 120.66s17.973 88.652 49.965 120.66c31.992 32.004 75.383 49.992 120.64 50.012 45.254 0.015625 88.66-17.941 120.68-49.922 21.383-21.09 36.781-47.48 44.621-76.477 7.8398-28.992 7.8398-59.547 0-88.539-7.8398-28.996-23.238-55.387-44.621-76.477z" fill="#443f3c"/>
</svg>
