<?xml version="1.0" encoding="UTF-8"?>
<svg width="1200pt" height="1200pt" version="1.1" viewBox="0 0 1200 1200" xmlns="http://www.w3.org/2000/svg">
 <g fill="#443f3c">
  <path d="m1083.9 706.97v-668.26c0-21.348-17.359-38.711-38.711-38.711h-890.32c-21.348 0-38.711 17.359-38.711 38.711v400.01l-86.418 115.21c-19.164 25.551-29.711 57.195-29.711 89.133 0 11.418 1.3164 22.879 3.9492 34.027l73.469 312.27v210.64h275.23l-42.215-211.05 8.4805-21.211h342.25c18.891 131.09 131.63 232.26 267.87 232.26 149.42 0 270.97-121.55 270.97-270.97 0-91.836-46.027-173.03-116.13-222.06zm45.988 105.93h-65.711c-16.879-46.508-42.02-81.176-65.613-105.48 55.82 17.555 102.45 55.742 131.32 105.48zm-84.699 116.13c0 28.898-3.7148 54.484-9.6016 77.418l-212.88 0.003906c-5.9805-22.977-9.7734-48.562-9.7734-77.422 0-28.898 3.7148-54.484 9.6016-77.418h212.88c5.9805 22.973 9.7734 48.562 9.7734 77.418zm-116.05 229.12c-18.949-12.195-65.07-47.359-93.25-112.99h186.64c-28.008 65.883-74.113 100.78-93.391 112.99zm-69.582-450.74c-23.594 24.309-48.734 58.973-65.613 105.48h-65.711c28.879-49.742 75.508-87.93 131.32-105.48zm-126.85 35.422c-22.859 24.098-41.398 52.238-54.23 83.418-23.012 16.434-49.953 25.355-78.445 25.355-74.711 0-135.48-60.773-135.48-135.48 0-74.711 60.773-135.48 135.48-135.48s135.48 60.773 135.48 135.48c0 9.0195-1.0664 17.961-2.8086 26.711zm-35.902 186.19c0-27.176 4.9336-53.168 13.547-77.418h72.426c-5.2227 23.398-8.5508 48.949-8.5508 77.418 0 28.473 3.3281 54.02 8.5547 77.418l-72.426 0.003906c-8.6133-24.254-13.551-50.246-13.551-77.422zm138.79-116.13c27.988-65.844 74.09-100.76 93.387-112.99 18.949 12.195 65.07 47.359 93.23 112.99zm209.59-774.19v425.8h-870.96c-6.8125 0-13.277 1.3945-19.355 3.5625v-429.37zm-1006.4 604.36c0-23.613 7.8008-47.012 21.969-65.902l55.449-73.938v232.26h38.711v-212.9c0-10.664 8.6914-19.355 19.355-19.355 32.012 0 58.066 26.051 58.066 58.066v130.78c0 20.672 8.0508 40.121 22.684 54.754l13.703 13.703c26.453 26.457 41.027 61.645 41.027 99.074 0 17.902-3.3672 35.418-10.027 52.027l-22.43 56.109h-165.1l-70.488-299.5c-1.9375-8.2461-2.9219-16.723-2.9219-25.18zm77.418 518.22v-154.84h158.32l30.969 154.84zm218.27-232.26 1.1992-3.0195c8.4961-21.211 12.793-43.566 12.793-66.406 0-47.77-18.602-92.691-52.395-126.46l-13.703-13.703c-7.2969-7.2969-11.32-17.012-11.32-27.367v-130.78c0-21.871-7.5664-41.844-19.859-58.066l794.05 0.003906v181.36c-35.262-16.82-74.535-26.516-116.13-26.516-57.773 0-111.25 18.328-155.29 49.258-4.6445-91.957-80.668-165.39-173.75-165.39-96.039 0-174.2 78.156-174.2 174.2 0 96.039 78.156 174.2 174.2 174.2 21.891 0 43.102-4.1211 62.961-11.824-3.0977 16.391-4.8945 33.25-4.8945 50.531zm393.81 116.13h65.711c16.879 46.508 42.02 81.176 65.613 105.48-55.82-17.555-102.45-55.742-131.32-105.48zm270.33 105.48c23.594-24.309 48.734-58.973 65.613-105.48h65.711c-28.879 49.742-75.504 87.93-131.32 105.48zm149.21-144.19h-72.426c5.2266-23.402 8.5547-48.949 8.5547-77.422s-3.3281-54.02-8.5547-77.418h72.426c8.6133 24.25 13.547 50.246 13.547 77.418 0 27.176-4.9336 53.168-13.547 77.422z"/>
  <path d="m541.93 1006.5h38.711v38.711h-38.711z"/>
  <path d="m464.52 1006.5h38.711v38.711h-38.711z"/>
  <path d="m387.1 1006.5h38.711v38.711h-38.711z"/>
  <path d="m541.93 77.418h-348.39v348.39h348.39zm-174.19 232.26c-32.012 0-58.066-26.051-58.066-58.066 0-32.012 26.051-58.066 58.066-58.066 32.012 0 58.066 26.051 58.066 58.066-0.003906 32.016-26.055 58.066-58.066 58.066zm-38.711 38.711h77.418c25.199 0 46.492 16.238 54.504 38.711h-186.41c7.9961-22.473 29.285-38.711 54.484-38.711zm174.2 38.711h-1.9531c-6.7539-33.098-30.582-59.785-61.723-71.207 15.348-17.148 24.965-39.523 24.965-64.277 0-53.359-43.414-96.773-96.773-96.773-53.359 0-96.773 43.414-96.773 96.773 0 24.754 9.6211 47.129 24.969 64.277-31.141 11.418-54.988 38.109-61.723 71.207h-1.957v-270.97h270.97z"/>
  <path d="m1006.5 77.418h-425.81v116.13h425.8zm-232.26 38.711h38.711v38.711h-38.711zm-38.711 38.711h-38.711v-38.711h38.711zm116.13-38.711h38.711v38.711h-38.711zm-232.26 0h38.711v38.711h-38.711zm348.39 38.711h-38.711v-38.711h38.711z"/>
  <path d="m580.64 232.26h116.13v38.711h-116.13z"/>
  <path d="m735.48 232.26h270.97v38.711h-270.97z"/>
  <path d="m580.64 309.68h116.13v38.711h-116.13z"/>
  <path d="m735.48 309.68h270.97v38.711h-270.97z"/>
  <path d="m580.64 387.1h116.13v38.711h-116.13z"/>
  <path d="m735.48 387.1h270.97v38.711h-270.97z"/>
  <path d="m579.35 745.53-43.082-43.082-27.367 27.367 73.043 73.047 110.34-132.41-29.73-24.777z"/>
 </g>
</svg>
