<?xml version="1.0" encoding="UTF-8"?>
<svg width="512pt" height="512pt" version="1.1" viewBox="0 0 512 512" xmlns="http://www.w3.org/2000/svg">
 <g fill="#443f3c" fill-rule="evenodd">
  <path d="m135.09 114.93c-11.047 0-20.152 9.1055-20.152 20.152l-0.027344 174.68c0 8.9648 13.449 8.9648 13.449 0l0.011719-174.68c0-3.8359 2.8828-6.7188 6.7188-6.7188h188.09c3.8359 0 6.7188 2.8789 6.7188 6.7188v120.91c-0.12891 9.0859 13.562 9.0859 13.434 0v-120.91c0-11.047-9.1055-20.152-20.152-20.152zm40.305 53.738c-3.7109 0-6.7188 3.0078-6.7188 6.7188s3.0078 6.7188 6.7188 6.7188 6.7188-3.0078 6.7188-6.7188-3.0078-6.7188-6.7188-6.7188zm26.199 0.011719c-8.7539 0.60938-8.1289 13.664 0.64453 13.434l80.637 0.003906c8.7656-0.1875 8.7656-13.246 0-13.434h-80.637c-0.21484-0.011719-0.42969-0.011719-0.64453 0zm-26.199 40.293c-3.7109 0-6.7188 3.0078-6.7188 6.7188 0 3.7109 3.0078 6.7188 6.7188 6.7188s6.7188-3.0078 6.7188-6.7188c0-3.7109-3.0078-6.7188-6.7188-6.7188zm108.21 0c-0.24609-0.003906-0.49219 0.003907-0.73438 0.027344h-80.637c-0.21484-0.011718-0.42969-0.011718-0.64453 0-8.2422 1.0234-7.6602 13.152 0.64453 13.383h80.637c9.2227 0.81641 9.9922-13.211 0.73438-13.41zm-81.371 40.293c-8.7656 0.1875-8.7656 13.246 0 13.434h80.637c9.1523 0.19922 9.1523-13.633 0-13.434zm-26.844 0.011719c-3.7109 0-6.7188 3.0078-6.7188 6.7188s3.0078 6.7188 6.7188 6.7188 6.7188-3.0078 6.7188-6.7188-3.0078-6.7188-6.7188-6.7188zm0 40.305c-3.7109 0-6.7188 3.0078-6.7188 6.7188 0 3.7109 3.0078 6.7188 6.7188 6.7188s6.7188-3.0078 6.7188-6.7188c0-3.7109-3.0078-6.7188-6.7188-6.7188zm26.844 0c-9.1523-0.19922-9.1523 13.633 0 13.434h67.188c9.1523 0.19922 9.1523-13.633 0-13.434zm-26.844 40.305c-3.7109 0-6.7188 3.0078-6.7188 6.7188s3.0078 6.7188 6.7188 6.7188 6.7188-3.0078 6.7188-6.7188-3.0078-6.7188-6.7188-6.7188zm26.199 0c-8.9648 0.42969-8.3242 13.875 0.64453 13.449h53.754c8.9648 0 8.9648-13.449 0-13.449h-53.754c-0.21484-0.011719-0.42969-0.011719-0.64453 0zm-80.031 6.6016c-3.7344 0.035156-6.7266 3.1133-6.6523 6.8477l0.027344 33.574c0 11.047 9.1055 20.152 20.152 20.152h134.35c9.0859 0.12891 9.0859-13.562 0-13.434h-134.35c-3.8359 0-6.7188-2.8828-6.7188-6.7188l-0.011719-33.574c0.074219-3.793-3.0039-6.8945-6.7969-6.8477z"/>
  <path d="m336.62 276.14c-33.309 0-60.441 27.145-60.441 60.457 0 33.309 27.133 60.496 60.441 60.496 33.312 0 60.445-27.188 60.445-60.496 0-33.312-27.133-60.457-60.445-60.457zm0 13.445c26.051 0 47.012 20.961 47.012 47.012 0 26.047-20.961 47.047-47.012 47.047-26.047 0-47.008-21-47.008-47.047 0-26.051 20.961-47.012 47.008-47.012zm21.219 26.031c-1.7422 0.054687-3.3945 0.78516-4.6055 2.0352l-23.75 23.746-9.4727-9.5117c-1.25-1.3086-2.9766-2.0586-4.7852-2.0781-1.8125-0.019532-3.5547 0.6875-4.8359 1.9688-1.2812 1.2773-1.9922 3.0195-1.9766 4.832 0.019532 1.8086 0.76563 3.5352 2.0742 4.7891l14.234 14.234c1.2617 1.2656 2.9727 1.9727 4.7578 1.9727 1.7812 0 3.4961-0.70703 4.7539-1.9727l28.523-28.469c2.0039-1.9336 2.6055-4.9062 1.5117-7.4648-1.0898-2.5625-3.6484-4.1875-6.4297-4.082z"/>
 </g>
</svg>
