<?xml version="1.0" encoding="UTF-8"?>
<svg width="1200pt" height="1200pt" version="1.1" viewBox="0 0 1200 1200" xmlns="http://www.w3.org/2000/svg">
 <g fill="#443e3c">
  <path d="m95.438 1145.4c-3.3086 0.26562-6.6289 0.26562-9.9375 0-3.5625-1.6875-11.438-1.6875-11.438-1.6875-6.0039-0.31641-11.492-3.4922-14.758-8.5391-3.2656-5.0469-3.9141-11.355-1.7422-16.961 6.75-17.25 174.19-424.5 1022.4-1055.4 4.3789-3.2656 9.9648-4.4609 15.293-3.2734 5.332 1.1875 9.8828 4.6445 12.457 9.4609l33.188 62.25c2.2852 4.2305 2.8633 9.1758 1.6055 13.816-1.2578 4.6406-4.2461 8.6211-8.3555 11.121-5.25 2.625-534.19 331.31-1013.6 979.88-1.7188 2.3594-3.9648 4.2852-6.5625 5.625-5.8203 2.6484-12.172 3.9297-18.562 3.75zm989.44-1039.7c-626.06 468.75-873.19 815.81-956.25 956.25 428.06-561.19 883.88-871.88 971.06-928.69z"/>
  <path d="m893.06 421.12c-4.207 0.15625-8.3477-1.1094-11.746-3.5938-3.4023-2.4805-5.8711-6.0391-7.0039-10.094l-16.875-61.5c-0.94922-3.2891-0.97656-6.7773-0.085938-10.082 0.89453-3.3047 2.6719-6.3008 5.1484-8.668l41.438-39.938c4.3945-4.2656 10.594-6.1211 16.609-4.9609 6.0117 1.1562 11.082 5.1797 13.578 10.773l35.438 80.062c2.1289 4.7773 2.168 10.23 0.10156 15.035-2.0664 4.8086-6.043 8.5352-10.977 10.277l-58.688 21.562c-2.2227 0.80859-4.5742 1.1914-6.9375 1.125zm4.125-75 8.625 31.312 21.75-7.875-16.312-37.5z"/>
  <path d="m1024.7 865.69c-75 0-150-85.688-182.25-208.5-34.5-135.75 1.5-258.38 82.125-278.81s170.81 69.75 206.25 206.25c15.965 57.84 17.191 118.75 3.5625 177.19-15.562 54.562-46.875 90.562-86.438 100.69-7.5859 2.0312-15.398 3.1016-23.25 3.1875zm-76.875-453.19c-4.7383-0.03125-9.4648 0.53516-14.062 1.6875-58.312 14.812-83.438 121.69-55.125 233.25s101.62 193.5 159.94 178.5c26.625-6.75 47.625-33.375 58.688-75 12.016-52.223 10.793-106.62-3.5625-158.25-26.062-102.38-90.375-180.19-145.88-180.19z"/>
  <path d="m693.75 592.12c-4.207 0.15625-8.3477-1.1094-11.746-3.5938-3.4023-2.4805-5.8711-6.0391-7.0039-10.094l-16.688-60.938c-0.94922-3.2891-0.97656-6.7773-0.085938-10.082 0.89453-3.3047 2.6719-6.3008 5.1484-8.668l41.062-39.562c4.3945-4.2656 10.594-6.1211 16.609-4.9609 6.0117 1.1562 11.082 5.1797 13.578 10.773l36 78.75c2.1289 4.7773 2.168 10.23 0.10156 15.035-2.0664 4.8086-6.043 8.5352-10.977 10.277l-59.438 21.188c-2.0547 1.0195-4.2773 1.6562-6.5625 1.875zm4.3125-74.062 8.4375 30.75 21.375-7.6875-15.375-36.375z"/>
  <path d="m825 1032.9c-73.5 0-150-84.938-180.94-206.25-15.809-57.422-16.969-117.89-3.375-175.88 14.625-54.75 44.812-90.562 84.938-100.88 43.125-11.625 95.625 12.562 136.88 60.75 4.3203 5.125 5.5781 12.164 3.3008 18.469-2.2773 6.3047-7.7461 10.914-14.344 12.094-6.5977 1.1797-13.324-1.25-17.645-6.375-31.5-37.5-70.5-56.25-99.188-49.312s-47.062 33-58.125 75c-11.914 51.793-10.688 105.74 3.5625 156.94 28.125 110.62 100.69 191.62 158.44 177 51.375-13.125 78.188-101.62 60.938-201.38-0.11719-2.0625-0.11719-4.125 0-6.1875v-2.625c-1.6758-6.4961 0.24609-13.395 5.0352-18.094 4.7891-4.6992 11.723-6.4883 18.188-4.6875 6.4648 1.7969 11.477 6.9102 13.152 13.406 0.87109 3.0625 1.4375 6.2031 1.6875 9.375v2.4375c21.375 123-15.938 225-88.5 243.75-7.8633 1.8438-15.93 2.6602-24 2.4375z"/>
  <path d="m705.38 383.81c-1.8633 0.28125-3.7617 0.28125-5.625 0l-49.875-15.938c-5.3047-1.3984-9.7266-5.0508-12.109-9.9922-2.3789-4.9414-2.4766-10.676-0.26562-15.695l18.75-48.375c1.9609-4.8281 5.8438-8.625 10.719-10.473 4.875-1.8516 10.297-1.5898 14.969 0.72266l64.5 31.688c5.4961 2.7031 9.3242 7.9141 10.258 13.965 0.93359 6.0508-1.1445 12.18-5.5703 16.41l-32.812 32.625c-3.5039 3.2812-8.1367 5.0938-12.938 5.0625zm-24.938-46.312 20.062 6.375 6.5625-6.375-22.312-10.875z"/>
  <path d="m457.12 436.88c-99 0-176.44-42.562-183-104.62-3.75-35.25 15.938-70.125 55.312-97.875 41.652-27.539 89.555-44.172 139.31-48.375 116.25-12.188 213 33 220.31 102.75s-78 134.06-194.25 146.25c-12.52 1.2852-25.102 1.9102-37.688 1.875zm35.438-20.625m13.688-194.62c-11.023-0.011719-22.035 0.55078-33 1.6875-43.273 3.5469-84.977 17.855-121.31 41.625-27.75 18.75-41.812 42.188-39.562 63.375 4.875 47.25 87 78.938 179.25 69.375s165.94-57.75 160.88-105c-5.25-41.438-69.188-71.062-146.25-71.062z"/>
  <path d="m522.38 566.06c-1.8633 0.28125-3.7617 0.28125-5.625 0l-49.875-16.688c-4.8672-1.5703-8.8789-5.0625-11.109-9.6641-2.2305-4.6055-2.4844-9.918-0.70312-14.711l18.75-48.375c1.9609-4.8281 5.8438-8.625 10.719-10.473 4.875-1.8516 10.297-1.5898 14.969 0.72266l64.5 31.688c5.4961 2.7031 9.3242 7.9141 10.258 13.965 0.93359 6.0508-1.1445 12.18-5.5703 16.41l-34.125 32.625c-3.3945 2.9062-7.7188 4.5-12.188 4.5zm-24.938-46.312 20.062 6.375 7.5-6.375-22.312-10.875z"/>
  <path d="m354.19 744c-1.8633 0.28125-3.7617 0.28125-5.625 0l-49.875-15.938c-4.9727-1.5977-9.0547-5.1953-11.258-9.9297-2.207-4.7344-2.3398-10.172-0.36719-15.008l16.312-40.5c1.8047-4.4805 5.2656-8.0938 9.668-10.086 4.4023-1.9922 9.4023-2.207 13.957-0.60156l66.75 23.062c6.1797 2.1484 10.793 7.3633 12.172 13.758 1.3789 6.3984-0.67578 13.051-5.4219 17.555l-33.375 32.438c-3.4766 3.3516-8.1094 5.2305-12.938 5.25zm-24.938-46.5 20.062 6.375 3.9375-3.75-21.938-7.6875z"/>
  <path d="m248.62 866.44c-1.8633 0.28125-3.7617 0.28125-5.625 0l-49.875-15.938c-5.1523-1.5352-9.3945-5.2109-11.656-10.086-2.2578-4.8789-2.3164-10.492-0.15625-15.414l18.75-48.375c1.9609-4.8281 5.8438-8.625 10.719-10.473 4.875-1.8516 10.297-1.5898 14.969 0.72266l64.5 31.688c5.4961 2.7031 9.3242 7.9141 10.258 13.965 0.93359 6.0508-1.1445 12.18-5.5703 16.41l-34.125 32.625c-3.3438 3.0391-7.6719 4.7734-12.188 4.875zm-24.938-46.312 20.062 6.375 6.5625-6.375-22.312-10.875z"/>
  <path d="m241.88 657.38c-71.25 0-127.31-27.188-141.38-75-20.062-67.312 52.125-146.06 164.06-179.44 33.059-8.9453 67.027-14.102 101.25-15.375 6.6992 0 12.887 3.5742 16.238 9.375 3.3477 5.8008 3.3477 12.949 0 18.75-3.3516 5.8008-9.5391 9.375-16.238 9.375-30.922 1.1992-61.613 5.8516-91.5 13.875-88.875 26.438-152.44 87.188-138.94 132.75s99.938 61.688 188.81 35.25 152.44-87.188 138.94-132.75c-6.7852-16.84-19.535-30.586-35.812-38.625-6.1953-2.5469-10.562-8.2031-11.457-14.844-0.89453-6.6367 1.8203-13.25 7.125-17.344 5.3008-4.0938 12.387-5.0469 18.582-2.5 26.816 12.301 47.562 34.867 57.562 62.625 20.062 67.312-52.125 146.06-164.06 179.44-30.219 9.2188-61.598 14.078-93.188 14.438z"/>
  <path d="m514.69 738.38c-4.207 0.15625-8.3477-1.1094-11.746-3.5938-3.4023-2.4805-5.8711-6.0391-7.0039-10.094l-15.188-56.25c-0.94922-3.2891-0.97656-6.7773-0.085938-10.082 0.89453-3.3047 2.6719-6.3008 5.1484-8.668l37.5-35.812c4.3945-4.2656 10.594-6.1211 16.609-4.9609 6.0117 1.1562 11.082 5.1797 13.578 10.773l32.062 74.062c2.1289 4.7773 2.168 10.23 0.10156 15.035-2.0664 4.8086-6.043 8.5352-10.977 10.277l-53.812 18.75c-2.0156 0.53125-4.1094 0.71875-6.1875 0.5625zm5.8125-68.25 6.9375 25.125 15.75-5.625-12.75-29.062z"/>
  <path d="m364.5 893.06c-4.207 0.15625-8.3477-1.1094-11.746-3.5938-3.4023-2.4805-5.8711-6.0391-7.0039-10.094l-11.625-42.188c-0.94922-3.2891-0.97656-6.7773-0.085938-10.082 0.89453-3.3047 2.6719-6.3008 5.1484-8.668l28.312-27.375c4.3945-4.2656 10.594-6.1211 16.609-4.9609 6.0117 1.1562 11.082 5.1797 13.578 10.773l24.188 54.75c2.332 4.625 2.6484 10.008 0.87109 14.875-1.7734 4.8633-5.4844 8.7773-10.246 10.812l-40.875 14.625c-2.2812 0.83203-4.6992 1.2148-7.125 1.125zm9.375-55.125 3.1875 11.812 3-1.125-5.0625-11.625z"/>
  <path d="m264.75 1014.8c-4.207 0.15625-8.3477-1.1094-11.746-3.5938-3.4023-2.4805-5.8711-6.0391-7.0039-10.094l-11.625-42.188c-0.94922-3.2891-0.97656-6.7773-0.085938-10.082 0.89453-3.3047 2.6719-6.3008 5.1484-8.668l28.312-27.375c4.3945-4.2656 10.594-6.1211 16.609-4.9609 6.0117 1.1562 11.082 5.1797 13.578 10.773l24.188 54.75c2.1289 4.7773 2.168 10.23 0.10156 15.035-2.0664 4.8086-6.043 8.5352-10.977 10.277l-41.062 14.625c-1.7266 0.76953-3.5586 1.2773-5.4375 1.5zm9.375-55.125 3.1875 11.812 3.9375-0.9375-5.25-11.812z"/>
  <path d="m633 1137.9c-67.5 0-137.44-77.625-165.75-188.81-14.445-52.332-15.543-107.45-3.1875-160.31 13.5-50.25 41.25-83.25 78.375-92.625s76.875 6 112.5 43.312c3.8789 3.4883 6.1289 8.4297 6.2109 13.645 0.082031 5.2148-2.0117 10.227-5.7773 13.836-3.7617 3.6055-8.8594 5.4844-14.066 5.1797-5.2031-0.30469-10.047-2.7617-13.367-6.7852-26.062-27.188-53.062-38.812-76.125-33s-41.625 29.438-51.375 66c-10.742 46.652-9.6484 95.254 3.1875 141.38 25.312 99.375 90.188 172.31 141.38 159.19 37.5-9.75 62.25-68.438 58.125-142.88-0.25781-4.9453 1.4531-9.7891 4.7539-13.477 3.3047-3.6875 7.9297-5.9219 12.871-6.2109 4.9453-0.25781 9.7891 1.4531 13.477 4.7539 3.6875 3.3047 5.9219 7.9297 6.2109 12.871 5.625 96-27.938 166.5-86.062 181.31-6.9883 1.7617-14.168 2.6406-21.375 2.625z"/>
 </g>
</svg>
