<?xml version="1.0" encoding="UTF-8"?>
<svg width="1200pt" height="1200pt" version="1.1" viewBox="0 0 1200 1200" xmlns="http://www.w3.org/2000/svg">
 <path d="m913.95 1066.3c-40.055-12.379-112.24-46.156-184.62-74.707-4.1758 19.941-15.035 37.863-30.773 50.801-15.742 12.938-35.426 20.117-55.801 20.352-2.2266-0.36328-74.184 0.30859-76.316-0.039063-67.301 0.14062-453.91-0.097656-511.74 0v0.003906c-4.9766 0-9.7461-1.9727-13.262-5.4883-3.5195-3.5195-5.4922-8.2891-5.4883-13.262v-891.39c-0.003906-4.9727 1.9688-9.7422 5.4883-13.262 3.5156-3.5156 8.2852-5.4883 13.262-5.4883h87.668c1.3594-0.14453 2.7266-0.14453 4.0859 0h495.87c16.703 0.015625 33.066 4.7383 47.215 13.625 14.145 8.8867 25.5 21.578 32.766 36.621 5.2383-3.7109 12.016-4.4727 17.945-2.0156l353.5 145.5c4.6211 1.8789 8.2891 5.5312 10.184 10.145l58.684 141.47v-0.003906c2.1406 5.125 1.8984 10.93-0.66016 15.859l-230.66 559.68c-1.4219 3.4297-3.8242 6.3672-6.9102 8.4297-3.0859 2.0664-6.7148 3.1719-10.43 3.1797zm-273.89-41.051v-0.003906c13.418 0.28125 26.438-4.5625 36.414-13.543 9.9727-8.9805 16.148-21.422 17.273-34.797-13.77-5.6758-26.422-10.875-37.336-15.383v0.003907c2.1094 22.492-3.6719 45.02-16.352 63.719zm-476.92-0.039063h404.46c13.598-0.011719 26.637-5.4141 36.254-15.027 9.6172-9.6094 15.031-22.645 15.051-36.242v-229.1c-0.019531-44.273 0.015626-130.65 0-174.9v-347.31c-0.011718-13.605-5.4219-26.648-15.039-36.266-9.6211-9.6211-22.664-15.031-36.266-15.043h-404.46zm-89.703 0h52.207v-853.89h-52.203zm647.08-77.82c61.543 25.379 139.69 57.68 183.25 75.66l216.91-526.32-82.93-33.031c-4.6484-1.8633-8.3633-5.5078-10.316-10.121s-1.9844-9.8125-0.082032-14.449l34.68-84.082-318.73-131.21c-7.8672 19.137-77.16 187.25-86.883 210.86v123.12l327.23 134.66v-0.003906c6.0664 2.6328 10.293 8.2695 11.129 14.828 0.83203 6.5586-1.8516 13.074-7.0664 17.141-5.2148 4.0664-12.188 5.082-18.348 2.6758l-312.95-128.76v46.324l296.5 122.13v-0.003906c6.0625 2.6367 10.289 8.2695 11.121 14.828 0.83203 6.5586-1.8555 13.07-7.0664 17.137-5.2109 4.0625-12.18 5.082-18.34 2.6797l-282.22-116.2v46.617c63.453 26.113 190.89 78.715 265.78 109.64 6.0625 2.6445 10.285 8.2812 11.109 14.844 0.82812 6.5586-1.8633 13.07-7.082 17.133-5.2148 4.0625-12.188 5.0742-18.348 2.668-71.707-29.547-181.82-75.074-251.46-103.75v148.57c15.879 6.5156 39.641 16.297 64.105 26.402zm348.74-511.52 41.602 16.59-24.316-58.52zm-412.85-213.24v113.67l37.207-90.309v-23.363c-0.035156-13.992-5.7656-27.367-15.867-37.043-10.102-9.6797-23.711-14.828-37.691-14.266 10.66 14.984 16.375 32.922 16.352 51.309zm-135.99 477.06h-258.71c-6.6133-0.125-12.672-3.7266-15.941-9.4766-3.2734-5.75-3.2734-12.797 0-18.547 3.2695-5.75 9.3281-9.3516 15.941-9.4766h258.71c6.6094 0.12891 12.66 3.7344 15.926 9.4805 3.2695 5.7461 3.2695 12.789 0.003906 18.535-3.2695 5.75-9.3203 9.3516-15.93 9.4844zm486.68-45.484c-2.4531 0.007812-4.8828-0.47656-7.1406-1.4297l-322.21-132.9c-6.0586-2.6367-10.281-8.2695-11.113-14.824-0.83203-6.5547 1.8516-13.066 7.0625-17.129 5.2109-4.0664 12.176-5.0859 18.332-2.6875l322.21 132.9c5.2734 2.3125 9.1953 6.9141 10.652 12.484 1.4531 5.5703 0.28125 11.5-3.1875 16.098-3.4648 4.5977-8.8477 7.3555-14.602 7.4883zm-459.56-12.707h-312.93c-6.6992 0-12.891-3.5742-16.238-9.375-3.3477-5.8008-3.3477-12.949 0-18.75 3.3477-5.8008 9.5391-9.375 16.238-9.375h312.93c6.6094 0.13281 12.664 3.7344 15.93 9.4805s3.2656 12.789 0 18.539c-3.2656 5.7461-9.3203 9.3477-15.93 9.4805zm491.16-63.902v-0.003906c-2.4531 0.011718-4.8828-0.47266-7.1445-1.4258l-322.23-132.9 0.003906-0.003907c-6.0586-2.6367-10.281-8.2695-11.113-14.824-0.83203-6.5547 1.8516-13.066 7.0625-17.129 5.2109-4.0664 12.176-5.0859 18.332-2.6875l322.23 132.9h0.003906c5.2734 2.3125 9.1992 6.9141 10.652 12.484 1.457 5.5742 0.28125 11.504-3.1875 16.102-3.4648 4.5977-8.8477 7.3555-14.605 7.4844zm-647.88-17.176c-201.68-1.2734-201.82-301.39-0.015624-302.75 201.97 1.3594 201.34 301.37 0.015624 302.75zm-29.426-99.242c16.863 81.957 41.973 82.008 58.832 0zm96.625 0v-0.003906c-2.2969 16.848-6.4805 33.383-12.469 49.293 21.293-10.43 38.387-27.82 48.449-49.293zm-170.38 0v-0.003906c10.055 21.449 27.125 38.828 48.395 49.258-5.9883-15.898-10.164-32.422-12.449-49.258zm173.86-37.5 43.176-0.003906c1.4531-10.141 1.4336-20.441-0.054687-30.578h-43.16c0.51172 9.8984 0.54687 20.637 0.039062 30.578zm-103.88 0h66.375l-0.003906-0.003906c0.50781-10.188 0.48828-20.391-0.054688-30.578h-66.262c-0.53516 10.188-0.55078 20.391-0.054688 30.578zm-80.656 0 43.137-0.003906c-0.48828-9.9492-0.45703-20.68 0.054687-30.578h-43.031c-1.5508 10.129-1.6055 20.434-0.16406 30.578zm180.89-68.078h35.723l-0.003906-0.003906c-10.184-20.918-27.094-37.812-48.027-47.973 5.8711 15.484 9.9961 31.574 12.305 47.973zm-96.238 0h58.43c-16.988-80.164-41.473-80.281-58.438-0.003906zm-73.332 0h35.484l-0.007813-0.003906c2.3125-16.383 6.4258-32.457 12.27-47.938-20.816 10.207-37.625 27.082-47.754 47.938z" fill="#d6d2d0"/>
</svg>
