<?xml version="1.0" encoding="UTF-8"?>
<svg width="512pt" height="512pt" version="1.1" viewBox="0 0 512 512" xmlns="http://www.w3.org/2000/svg">
 <g fill="#443f3c">
  <path d="m490.53 378.96-179-310.04c-11.594-20.074-32.352-32.059-55.531-32.059s-43.938 11.984-55.531 32.059l-179 310.04c-11.59 20.074-11.59 44.047 0 64.121s32.352 32.059 55.531 32.059h358.01c23.18 0 43.938-11.984 55.527-32.059 11.586-20.074 11.586-44.043-0.003906-64.121zm-22.168 51.32c-6.9609 12.059-19.434 19.262-33.359 19.262h-358.01c-13.926 0-26.398-7.1992-33.359-19.262-6.9609-12.059-6.9609-26.461 0-38.52l179-310.04c6.9609-12.062 19.434-19.262 33.359-19.262s26.398 7.1992 33.359 19.262l179 310.05c6.9609 12.059 6.9609 26.457 0 38.516z"/>
  <path d="m256 145.88c-22.938 0-41.602 18.664-41.602 41.602v111.36c0 22.938 18.664 41.602 41.602 41.602s41.602-18.664 41.602-41.602v-111.36c0-22.938-18.664-41.602-41.602-41.602zm16 152.96c0 8.8242-7.1758 16-16 16s-16-7.1758-16-16v-111.36c0-8.8242 7.1758-16 16-16s16 7.1758 16 16z"/>
  <path d="m256 349.48c-22.938 0-41.602 18.664-41.602 41.602s18.664 41.602 41.602 41.602 41.602-18.664 41.602-41.602-18.664-41.602-41.602-41.602zm0 57.602c-8.8242 0-16-7.1758-16-16s7.1758-16 16-16 16 7.1758 16 16c0 8.8203-7.1758 16-16 16z"/>
 </g>
</svg>
