<?xml version="1.0" encoding="UTF-8"?>
<svg width="1200pt" height="1200pt" version="1.1" viewBox="0 0 1200 1200" xmlns="http://www.w3.org/2000/svg">
 <g fill="#d6d2d0">
  <path d="m117.75 489c-2.8828-15.414-4.6367-31.02-5.25-46.688 0-4.9727-1.9766-9.7422-5.4922-13.258-3.5156-3.5156-8.2852-5.4922-13.258-5.4922s-9.7422 1.9766-13.258 5.4922c-3.5156 3.5156-5.4922 8.2852-5.4922 13.258 0.59375 17.488 2.4727 34.91 5.625 52.125 0.79688 4.3672 3.1211 8.3125 6.5547 11.125 3.4336 2.8164 7.7539 4.3242 12.195 4.25h3.375c4.6758-0.91406 8.832-3.5742 11.617-7.4375 2.7852-3.8672 3.9961-8.6484 3.3828-13.375z"/>
  <path d="m225 269.81c-36.422 45.93-56.242 102.82-56.25 161.44 0.11328 68.715 27.172 134.65 75.359 183.64 48.188 48.992 113.66 77.133 182.37 78.379 68.707 1.25 135.16-24.492 185.1-71.695 49.938-47.207 79.371-112.11 81.984-180.78 2.6133-68.668-21.805-135.62-68.008-186.48-46.203-50.863-110.51-81.582-179.11-85.559-4.9727-0.27344-9.8516 1.4414-13.559 4.7617-3.7109 3.3242-5.9492 7.9844-6.2227 12.957s1.4414 9.8516 4.7617 13.559c3.3242 3.7109 7.9844 5.9492 12.957 6.2227 58.793 3.4336 113.89 29.785 153.48 73.395 39.582 43.609 60.492 101 58.234 159.85-2.2578 58.852-27.5 114.47-70.309 154.92-42.805 40.445-99.766 62.496-158.65 61.418-58.887-1.0781-115-25.199-156.29-67.191-41.297-41.988-64.484-98.492-64.586-157.39-0.21484-50.148 16.5-98.906 47.438-138.38 2.7227-5.1719 2.8789-11.32 0.42188-16.625-2.4609-5.3047-7.2539-9.1562-12.961-10.422-5.7109-1.2617-11.68 0.21094-16.148 3.9844z"/>
  <path d="m292.5 538.69c4.1211 5.293 10.75 7.9844 17.395 7.0625 6.6406-0.92188 12.289-5.3164 14.812-11.531 2.5195-6.2148 1.5391-13.301-2.582-18.594-18.672-24.164-28.801-53.84-28.801-84.375s10.129-60.211 28.801-84.375c4.1211-5.293 5.1016-12.379 2.582-18.594-2.5234-6.2148-8.1719-10.609-14.812-11.531-6.6445-0.92188-13.273 1.7695-17.395 7.0625-23.93 30.773-36.926 68.641-36.926 107.62s12.996 76.852 36.926 107.62z"/>
  <path d="m295.31 247.69c3.7539-0.24609 7.3477-1.6211 10.312-3.9375 23.523-15.91 49.871-27.176 77.625-33.188 6.6992-1.4062 12.137-6.2812 14.27-12.785 2.1289-6.5039 0.62891-13.652-3.9375-18.75-4.5664-5.0977-11.508-7.3711-18.207-5.9648-32.434 6.9805-63.234 20.09-90.75 38.625-4.4805 3.0117-7.4453 7.8086-8.1367 13.16-0.69141 5.3555 0.95703 10.75 4.5273 14.797 3.5703 4.0508 8.7109 6.3672 14.109 6.3555z"/>
  <path d="m914.25 793.88c-4.8281-4.1328-11.418-5.543-17.512-3.7383-6.0977 1.8008-10.863 6.5664-12.664 12.664-1.8047 6.0938-0.39453 12.684 3.7383 17.512l187.5 187.5c9.4375 8.8125 14.895 21.082 15.113 33.992 0.22266 12.914-4.8086 25.359-13.941 34.492s-21.578 14.164-34.492 13.941c-12.91-0.21875-25.18-5.6758-33.992-15.113l-361.12-360.94c25.328-19.348 47.965-41.984 67.312-67.312l62.625 62.625c4.8281 4.1328 11.418 5.543 17.512 3.7383 6.0977-1.8008 10.863-6.5664 12.664-12.664 1.8047-6.0938 0.39453-12.684-3.7383-17.512l-67.688-67.688c36.555-59.871 54.621-129.2 51.93-199.3-2.6875-70.098-26.016-137.84-67.051-194.74-41.035-56.895-97.953-100.41-163.62-125.09-65.668-24.676-137.16-29.414-205.51-13.625-68.348 15.789-130.52 51.406-178.7 102.38-48.188 50.98-80.254 115.05-92.176 184.18-1.1719 6.6992 1.3164 13.516 6.5352 17.879 5.2148 4.3633 12.359 5.6133 18.75 3.2812 6.3867-2.3359 11.043-7.8984 12.215-14.598 13.156-75.727 53.23-144.15 112.84-192.66 59.613-48.516 134.75-73.859 211.57-71.363 76.816 2.5 150.14 32.668 206.48 84.957 56.332 52.285 91.879 123.16 100.09 199.59 8.2109 76.418-11.473 153.23-55.418 216.29-43.941 63.055-109.19 108.11-183.73 126.87-74.535 18.754-153.34 9.9453-221.89-24.805-68.555-34.75-122.25-93.102-151.18-164.3-2.5117-6.2305-8.1562-10.645-14.809-11.586-6.6523-0.9375-13.297 1.7422-17.438 7.0312-4.1367 5.2891-5.1406 12.387-2.6289 18.617 25.871 63.945 69.746 119.01 126.3 158.5 56.559 39.488 123.37 61.707 192.31 63.961 68.945 2.2539 137.06-15.559 196.07-51.27l364.12 365.25c16.145 16.199 38.07 25.305 60.938 25.312 22.434 0.03125 43.957-8.875 59.812-24.75 16.043-16.035 25.055-37.789 25.055-60.469s-9.0117-44.434-25.055-60.469z"/>
  <path d="m820.31 726.56c-3.4922 3.5117-5.4531 8.2656-5.4531 13.219s1.9609 9.707 5.4531 13.219l27.188 27.188c4.8281 4.1328 11.418 5.543 17.512 3.7383 6.0977-1.8008 10.863-6.5664 12.664-12.664 1.8047-6.0938 0.39453-12.684-3.7383-17.512l-27.188-27.188c-3.5117-3.4922-8.2656-5.4531-13.219-5.4531s-9.707 1.9609-13.219 5.4531z"/>
 </g>
</svg>
