<?xml version="1.0" encoding="UTF-8"?>
<svg width="1200pt" height="1200pt" version="1.1" viewBox="0 0 1200 1200" xmlns="http://www.w3.org/2000/svg">
 <g fill="#443f3c">
  <path d="m289.56 999.84h600.72c3.1797 0 6.2344-1.2656 8.4844-3.5156s3.5156-5.3008 3.5156-8.4844v-819.84c0-3.1836-1.2656-6.2344-3.5156-8.4844s-5.3047-3.5156-8.4844-3.5156h-600.72c-6.625 0-12 5.3711-12 12v819.84c0 3.1836 1.2656 6.2344 3.5156 8.4844s5.3047 3.5156 8.4844 3.5156zm12-819.84h576.72v795.84h-576.72z"/>
  <path d="m333.72 1020c-6.625 0-12 5.3711-12 12s5.375 12 12 12h567.6c11.957-0.03125 23.414-4.7969 31.871-13.25 8.4531-8.457 13.219-19.914 13.25-31.871v-786.72c0-6.6289-5.375-12-12-12-6.6289 0-12 5.3711-12 12v786.72c0 5.6016-2.2266 10.973-6.1875 14.934-3.9609 3.9609-9.332 6.1875-14.934 6.1875z"/>
  <path d="m594.12 277.68c-0.55859-0.058594-1.1211-0.058594-1.6797 0h-2.5195c-50.922 0-99.758 20.23-135.77 56.234-36.008 36.008-56.234 84.844-56.234 135.77 0 50.922 20.227 99.758 56.234 135.77 36.008 36.008 84.844 56.234 135.77 56.234h5.6406-0.003906c50.922-0.19141 99.684-20.602 135.55-56.746 35.871-36.141 55.918-85.051 55.727-135.97-0.19141-50.922-20.602-99.684-56.746-135.55-36.141-35.871-85.051-55.918-135.97-55.727zm109.56 180c-0.45703-33.73-7.9336-67-21.961-97.68 7.875-3.7891 15.383-8.2891 22.441-13.441 31.066 28.887 50.059 68.453 53.16 110.76zm-101.76-151.2c17.98 10.164 33.348 24.383 44.879 41.52-14.633 4.0859-29.699 6.4219-44.879 6.9609zm46.801 5.7617-0.003906-0.003907c12.699 4.7969 24.785 11.082 36 18.723-4.7578 3.0039-9.6836 5.7266-14.758 8.1602-6.1797-9.7109-13.293-18.793-21.242-27.121zm-136.08 28.316c-6.1641-2.6758-12.105-5.8477-17.762-9.4805 13.062-8.9609 27.32-16.031 42.359-21-9.3477 9.1797-17.602 19.406-24.598 30.48zm65.281-32.039v46.199c-14.047-0.61328-27.996-2.625-41.641-6 10.883-16.191 25.074-29.895 41.641-40.199zm0 70.199v78.719l-73.922 0.003906c0.48438-30.113 7.1445-59.805 19.559-87.242 17.699 5.082 35.957 7.9453 54.363 8.5195zm0 102.72v78.723c-18.387 0.49219-36.641 3.2344-54.363 8.1602-12.301-27.348-18.953-56.898-19.559-86.879zm0 102.72v46.203c-16.68-10.348-30.957-24.133-41.883-40.438 13.727-3.3516 27.762-5.2812 41.883-5.7617zm-40.68 44.762-0.003907 0.003906c-15.383-5.0938-29.938-12.41-43.199-21.723 5.8516-3.5469 11.949-6.6758 18.242-9.3594 7.0469 11.32 15.43 21.754 24.957 31.082zm64.68 3.6016v-48c15.102 0.77734 30.074 3.2344 44.637 7.3203-11.602 16.77-26.863 30.684-44.637 40.68zm67.68-31.922v0.003906c4.9766 2.3438 9.7891 5.0312 14.398 8.0391-11.023 7.3438-22.863 13.383-35.281 18 7.7891-7.9844 14.781-16.703 20.883-26.039zm-67.68-40.32v-78.836h77.52c-0.46875 30.781-7.418 61.121-20.402 89.039-18.492-5.9531-37.707-9.3867-57.117-10.199zm0-102.84v-78.719c19.473-0.60156 38.773-3.8711 57.359-9.7188 12.812 27.75 19.68 57.875 20.16 88.441zm-126.36-110.64c8.0352 5.8164 16.641 10.801 25.68 14.879-13.512 30.23-20.738 62.891-21.238 96h-57.48c3.0391-42.332 21.988-81.945 53.039-110.88zm-53.039 134.64h57.48c0.55469 32.832 7.6562 65.223 20.879 95.277-9.1992 4.0156-17.965 8.9609-26.16 14.762-30.551-28.859-49.176-68.121-52.199-110.04zm280.92 111.6v-0.003907c-6.9258-5.0938-14.273-9.5898-21.961-13.438 14.152-30.82 21.711-64.254 22.199-98.16h53.641c-3.082 42.707-22.355 82.625-53.879 111.6z"/>
  <path d="m660 867.12h-139.92c-6.625 0-12 5.3711-12 12 0 6.625 5.375 12 12 12h139.92c6.6289 0 12-5.375 12-12 0-6.6289-5.3711-12-12-12z"/>
 </g>
</svg>
