<?xml version="1.0" encoding="UTF-8"?>
<svg width="1200pt" height="1200pt" version="1.1" viewBox="0 0 1200 1200" xmlns="http://www.w3.org/2000/svg">
 <g fill="#443f3c">
  <path d="m675 825c0 41.422-33.578 75-75 75s-75-33.578-75-75 33.578-75 75-75 75 33.578 75 75"/>
  <path d="m600 300c-100.46 0-182.1 81.711-182.1 182.1 0 5.9609 4.7266 10.762 10.688 10.762h107.1c5.9609 0 10.727-4.8008 10.727-10.762 0-29.512 24.039-53.551 53.586-53.551 29.551 0 53.625 24.039 53.625 53.551 0 20.586-10.988 33.523-40.125 62.625-32.812 32.812-77.773 77.699-77.773 153.52v18.523c0 5.9609 4.8008 10.727 10.727 10.727h107.18c5.8867 0 10.688-4.7617 10.688-10.727l-0.003906-18.523c0-20.625 10.988-33.523 40.125-62.664 32.812-32.812 77.625-77.738 77.625-153.49 0-100.39-81.562-182.1-182.06-182.1z"/>
  <path d="m600 75c-289.95 0-525 235.05-525 525s235.05 525 525 525 525-235.05 525-525-235.05-525-525-525zm0 937.5c-227.44 0-412.5-185.1-412.5-412.5 0-227.44 185.06-412.5 412.5-412.5 227.4 0 412.5 185.06 412.5 412.5 0 227.4-185.1 412.5-412.5 412.5z"/>
 </g>
</svg>
